%FSLAX45Y45*%
G04 Gerber Fmt 4.5, Leading zero omitted, Abs format (unit mm)*
G04 Created by KiCad (PCBNEW (5.1.5)-3) date 2020-08-12 10:23:54*
%MOMM*%
%LPD*%
G04 APERTURE LIST*
%TA.AperFunction,Profile*%
%ADD10C,0.010000*%
%TD*%
%ADD11C,0.200000*%
%ADD12C,0.300000*%
G04 APERTURE END LIST*
D10*
X5232400Y-7239000D02*
X5257800Y-7239000D01*
X5232400Y-2108200D02*
X5232400Y-7239000D01*
X7810500Y-2108200D02*
X5232400Y-2108200D01*
X5257800Y-7239000D02*
X7810500Y-7239000D01*
X7810500Y-2108200D02*
X7810500Y-7239000D01*
D11*
X6520500Y-3409000D02*
X6560500Y-3449000D01*
X6560500Y-3409000D02*
X6520500Y-3449000D01*
X6545900Y-6584000D02*
X6585900Y-6624000D01*
X6585900Y-6584000D02*
X6545900Y-6624000D01*
X6545900Y-6838000D02*
X6585900Y-6878000D01*
X6585900Y-6838000D02*
X6545900Y-6878000D01*
X6965000Y-2901000D02*
X7005000Y-2941000D01*
X7005000Y-2901000D02*
X6965000Y-2941000D01*
X5945500Y-2265700D02*
G75*
G03X5945500Y-2265700I-40000J0D01*
G01*
X5945500Y-2519700D02*
G75*
G03X5945500Y-2519700I-40000J0D01*
G01*
X5945500Y-2773700D02*
G75*
G03X5945500Y-2773700I-40000J0D01*
G01*
X5945500Y-3027700D02*
G75*
G03X5945500Y-3027700I-40000J0D01*
G01*
X5945500Y-3281700D02*
G75*
G03X5945500Y-3281700I-40000J0D01*
G01*
X5945500Y-3535700D02*
G75*
G03X5945500Y-3535700I-40000J0D01*
G01*
X5945500Y-3789700D02*
G75*
G03X5945500Y-3789700I-40000J0D01*
G01*
X5945500Y-4043700D02*
G75*
G03X5945500Y-4043700I-40000J0D01*
G01*
X5945500Y-4297700D02*
G75*
G03X5945500Y-4297700I-40000J0D01*
G01*
X5945500Y-4551700D02*
G75*
G03X5945500Y-4551700I-40000J0D01*
G01*
X5945500Y-4805700D02*
G75*
G03X5945500Y-4805700I-40000J0D01*
G01*
X5945500Y-5059700D02*
G75*
G03X5945500Y-5059700I-40000J0D01*
G01*
X5945500Y-5313700D02*
G75*
G03X5945500Y-5313700I-40000J0D01*
G01*
X5945500Y-5567700D02*
G75*
G03X5945500Y-5567700I-40000J0D01*
G01*
X5945500Y-5821700D02*
G75*
G03X5945500Y-5821700I-40000J0D01*
G01*
X5945500Y-6075700D02*
G75*
G03X5945500Y-6075700I-40000J0D01*
G01*
X5945500Y-6329700D02*
G75*
G03X5945500Y-6329700I-40000J0D01*
G01*
X5945500Y-6583700D02*
G75*
G03X5945500Y-6583700I-40000J0D01*
G01*
X5945500Y-6837700D02*
G75*
G03X5945500Y-6837700I-40000J0D01*
G01*
X5945500Y-7091700D02*
G75*
G03X5945500Y-7091700I-40000J0D01*
G01*
X7469500Y-2265700D02*
G75*
G03X7469500Y-2265700I-40000J0D01*
G01*
X7469500Y-2519700D02*
G75*
G03X7469500Y-2519700I-40000J0D01*
G01*
X7469500Y-2773700D02*
G75*
G03X7469500Y-2773700I-40000J0D01*
G01*
X7469500Y-3027700D02*
G75*
G03X7469500Y-3027700I-40000J0D01*
G01*
X7469500Y-3281700D02*
G75*
G03X7469500Y-3281700I-40000J0D01*
G01*
X7469500Y-3535700D02*
G75*
G03X7469500Y-3535700I-40000J0D01*
G01*
X7469500Y-3789700D02*
G75*
G03X7469500Y-3789700I-40000J0D01*
G01*
X7469500Y-4043700D02*
G75*
G03X7469500Y-4043700I-40000J0D01*
G01*
X7469500Y-4297700D02*
G75*
G03X7469500Y-4297700I-40000J0D01*
G01*
X7469500Y-4551700D02*
G75*
G03X7469500Y-4551700I-40000J0D01*
G01*
X7469500Y-4805700D02*
G75*
G03X7469500Y-4805700I-40000J0D01*
G01*
X7469500Y-5059700D02*
G75*
G03X7469500Y-5059700I-40000J0D01*
G01*
X7469500Y-5313700D02*
G75*
G03X7469500Y-5313700I-40000J0D01*
G01*
X7469500Y-5567700D02*
G75*
G03X7469500Y-5567700I-40000J0D01*
G01*
X7469500Y-5821700D02*
G75*
G03X7469500Y-5821700I-40000J0D01*
G01*
X7469500Y-6075700D02*
G75*
G03X7469500Y-6075700I-40000J0D01*
G01*
X7469500Y-6329700D02*
G75*
G03X7469500Y-6329700I-40000J0D01*
G01*
X7469500Y-6583700D02*
G75*
G03X7469500Y-6583700I-40000J0D01*
G01*
X7469500Y-6837700D02*
G75*
G03X7469500Y-6837700I-40000J0D01*
G01*
X7469500Y-7091700D02*
G75*
G03X7469500Y-7091700I-40000J0D01*
G01*
X5501000Y-2413000D02*
G75*
G03X5501000Y-2413000I-40000J0D01*
G01*
X5501000Y-2667000D02*
G75*
G03X5501000Y-2667000I-40000J0D01*
G01*
X5501000Y-2921000D02*
G75*
G03X5501000Y-2921000I-40000J0D01*
G01*
X5628000Y-3683000D02*
G75*
G03X5628000Y-3683000I-40000J0D01*
G01*
X5628000Y-4445000D02*
G75*
G03X5628000Y-4445000I-40000J0D01*
G01*
X6218100Y-2265700D02*
G75*
G03X6218100Y-2265700I-40000J0D01*
G01*
X6218100Y-2519700D02*
G75*
G03X6218100Y-2519700I-40000J0D01*
G01*
X6218100Y-2773700D02*
G75*
G03X6218100Y-2773700I-40000J0D01*
G01*
X6218100Y-3027700D02*
G75*
G03X6218100Y-3027700I-40000J0D01*
G01*
X6218100Y-3281700D02*
G75*
G03X6218100Y-3281700I-40000J0D01*
G01*
X6218100Y-3535700D02*
G75*
G03X6218100Y-3535700I-40000J0D01*
G01*
X6218100Y-3789700D02*
G75*
G03X6218100Y-3789700I-40000J0D01*
G01*
X6218100Y-4043700D02*
G75*
G03X6218100Y-4043700I-40000J0D01*
G01*
X6218100Y-4297700D02*
G75*
G03X6218100Y-4297700I-40000J0D01*
G01*
X6218100Y-4551700D02*
G75*
G03X6218100Y-4551700I-40000J0D01*
G01*
X6218100Y-4805700D02*
G75*
G03X6218100Y-4805700I-40000J0D01*
G01*
X6218100Y-5059700D02*
G75*
G03X6218100Y-5059700I-40000J0D01*
G01*
X6218100Y-5313700D02*
G75*
G03X6218100Y-5313700I-40000J0D01*
G01*
X6218100Y-5567700D02*
G75*
G03X6218100Y-5567700I-40000J0D01*
G01*
X6218100Y-5821700D02*
G75*
G03X6218100Y-5821700I-40000J0D01*
G01*
X6218100Y-6075700D02*
G75*
G03X6218100Y-6075700I-40000J0D01*
G01*
X6218100Y-6329700D02*
G75*
G03X6218100Y-6329700I-40000J0D01*
G01*
X6218100Y-6583700D02*
G75*
G03X6218100Y-6583700I-40000J0D01*
G01*
X6218100Y-6837700D02*
G75*
G03X6218100Y-6837700I-40000J0D01*
G01*
X6218100Y-7091700D02*
G75*
G03X6218100Y-7091700I-40000J0D01*
G01*
X7742100Y-2265700D02*
G75*
G03X7742100Y-2265700I-40000J0D01*
G01*
X7742100Y-2519700D02*
G75*
G03X7742100Y-2519700I-40000J0D01*
G01*
X7742100Y-2773700D02*
G75*
G03X7742100Y-2773700I-40000J0D01*
G01*
X7742100Y-3027700D02*
G75*
G03X7742100Y-3027700I-40000J0D01*
G01*
X7742100Y-3281700D02*
G75*
G03X7742100Y-3281700I-40000J0D01*
G01*
X7742100Y-3535700D02*
G75*
G03X7742100Y-3535700I-40000J0D01*
G01*
X7742100Y-3789700D02*
G75*
G03X7742100Y-3789700I-40000J0D01*
G01*
X7742100Y-4043700D02*
G75*
G03X7742100Y-4043700I-40000J0D01*
G01*
X7742100Y-4297700D02*
G75*
G03X7742100Y-4297700I-40000J0D01*
G01*
X7742100Y-4551700D02*
G75*
G03X7742100Y-4551700I-40000J0D01*
G01*
X7742100Y-4805700D02*
G75*
G03X7742100Y-4805700I-40000J0D01*
G01*
X7742100Y-5059700D02*
G75*
G03X7742100Y-5059700I-40000J0D01*
G01*
X7742100Y-5313700D02*
G75*
G03X7742100Y-5313700I-40000J0D01*
G01*
X7742100Y-5567700D02*
G75*
G03X7742100Y-5567700I-40000J0D01*
G01*
X7742100Y-5821700D02*
G75*
G03X7742100Y-5821700I-40000J0D01*
G01*
X7742100Y-6075700D02*
G75*
G03X7742100Y-6075700I-40000J0D01*
G01*
X7742100Y-6329700D02*
G75*
G03X7742100Y-6329700I-40000J0D01*
G01*
X7742100Y-6583700D02*
G75*
G03X7742100Y-6583700I-40000J0D01*
G01*
X7742100Y-6837700D02*
G75*
G03X7742100Y-6837700I-40000J0D01*
G01*
X7742100Y-7091700D02*
G75*
G03X7742100Y-7091700I-40000J0D01*
G01*
X6644000Y-4826000D02*
G75*
G03X6644000Y-4826000I-40000J0D01*
G01*
X6634000Y-4846000D02*
X6634000Y-4806000D01*
X6574000Y-4846000D02*
X6574000Y-4806000D01*
X6634000Y-4806000D02*
G75*
G03X6574000Y-4806000I-30000J0D01*
G01*
X6574000Y-4846000D02*
G75*
G03X6634000Y-4846000I30000J0D01*
G01*
X6644000Y-5588000D02*
G75*
G03X6644000Y-5588000I-40000J0D01*
G01*
X7025000Y-4826000D02*
G75*
G03X7025000Y-4826000I-40000J0D01*
G01*
X7015000Y-4846000D02*
X7015000Y-4806000D01*
X6955000Y-4846000D02*
X6955000Y-4806000D01*
X7015000Y-4806000D02*
G75*
G03X6955000Y-4806000I-30000J0D01*
G01*
X6955000Y-4846000D02*
G75*
G03X7015000Y-4846000I30000J0D01*
G01*
X7025000Y-5588000D02*
G75*
G03X7025000Y-5588000I-40000J0D01*
G01*
X5461000Y-5030000D02*
X5461000Y-5130000D01*
X5411000Y-5080000D02*
X5511000Y-5080000D01*
X5461000Y-5284000D02*
X5461000Y-5384000D01*
X5411000Y-5334000D02*
X5511000Y-5334000D01*
X5461000Y-5919000D02*
X5461000Y-6019000D01*
X5411000Y-5969000D02*
X5511000Y-5969000D01*
X5461000Y-6173000D02*
X5461000Y-6273000D01*
X5411000Y-6223000D02*
X5511000Y-6223000D01*
D12*
X5268829Y-7705214D02*
X5268829Y-7405214D01*
X5340257Y-7405214D01*
X5383114Y-7419500D01*
X5411686Y-7448071D01*
X5425971Y-7476643D01*
X5440257Y-7533786D01*
X5440257Y-7576643D01*
X5425971Y-7633786D01*
X5411686Y-7662357D01*
X5383114Y-7690929D01*
X5340257Y-7705214D01*
X5268829Y-7705214D01*
X5568829Y-7705214D02*
X5568829Y-7505214D01*
X5568829Y-7562357D02*
X5583114Y-7533786D01*
X5597400Y-7519500D01*
X5625971Y-7505214D01*
X5654543Y-7505214D01*
X5754543Y-7705214D02*
X5754543Y-7505214D01*
X5754543Y-7405214D02*
X5740257Y-7419500D01*
X5754543Y-7433786D01*
X5768828Y-7419500D01*
X5754543Y-7405214D01*
X5754543Y-7433786D01*
X5940257Y-7705214D02*
X5911686Y-7690929D01*
X5897400Y-7662357D01*
X5897400Y-7405214D01*
X6097400Y-7705214D02*
X6068828Y-7690929D01*
X6054543Y-7662357D01*
X6054543Y-7405214D01*
X6440257Y-7705214D02*
X6440257Y-7405214D01*
X6540257Y-7619500D01*
X6640257Y-7405214D01*
X6640257Y-7705214D01*
X6911686Y-7705214D02*
X6911686Y-7548071D01*
X6897400Y-7519500D01*
X6868828Y-7505214D01*
X6811686Y-7505214D01*
X6783114Y-7519500D01*
X6911686Y-7690929D02*
X6883114Y-7705214D01*
X6811686Y-7705214D01*
X6783114Y-7690929D01*
X6768828Y-7662357D01*
X6768828Y-7633786D01*
X6783114Y-7605214D01*
X6811686Y-7590929D01*
X6883114Y-7590929D01*
X6911686Y-7576643D01*
X7054543Y-7505214D02*
X7054543Y-7805214D01*
X7054543Y-7519500D02*
X7083114Y-7505214D01*
X7140257Y-7505214D01*
X7168828Y-7519500D01*
X7183114Y-7533786D01*
X7197400Y-7562357D01*
X7197400Y-7648071D01*
X7183114Y-7676643D01*
X7168828Y-7690929D01*
X7140257Y-7705214D01*
X7083114Y-7705214D01*
X7054543Y-7690929D01*
X7325971Y-7676643D02*
X7340257Y-7690929D01*
X7325971Y-7705214D01*
X7311686Y-7690929D01*
X7325971Y-7676643D01*
X7325971Y-7705214D01*
X7325971Y-7519500D02*
X7340257Y-7533786D01*
X7325971Y-7548071D01*
X7311686Y-7533786D01*
X7325971Y-7519500D01*
X7325971Y-7548071D01*
X4942400Y-8179500D02*
X4982400Y-8219500D01*
X4982400Y-8179500D02*
X4942400Y-8219500D01*
X5325971Y-8035214D02*
X5354543Y-8035214D01*
X5383114Y-8049500D01*
X5397400Y-8063786D01*
X5411686Y-8092357D01*
X5425971Y-8149500D01*
X5425971Y-8220929D01*
X5411686Y-8278071D01*
X5397400Y-8306643D01*
X5383114Y-8320929D01*
X5354543Y-8335214D01*
X5325971Y-8335214D01*
X5297400Y-8320929D01*
X5283114Y-8306643D01*
X5268829Y-8278071D01*
X5254543Y-8220929D01*
X5254543Y-8149500D01*
X5268829Y-8092357D01*
X5283114Y-8063786D01*
X5297400Y-8049500D01*
X5325971Y-8035214D01*
X5554543Y-8306643D02*
X5568829Y-8320929D01*
X5554543Y-8335214D01*
X5540257Y-8320929D01*
X5554543Y-8306643D01*
X5554543Y-8335214D01*
X5825971Y-8135214D02*
X5825971Y-8335214D01*
X5754543Y-8020929D02*
X5683114Y-8235214D01*
X5868828Y-8235214D01*
X6040257Y-8035214D02*
X6068828Y-8035214D01*
X6097400Y-8049500D01*
X6111686Y-8063786D01*
X6125971Y-8092357D01*
X6140257Y-8149500D01*
X6140257Y-8220929D01*
X6125971Y-8278071D01*
X6111686Y-8306643D01*
X6097400Y-8320929D01*
X6068828Y-8335214D01*
X6040257Y-8335214D01*
X6011686Y-8320929D01*
X5997400Y-8306643D01*
X5983114Y-8278071D01*
X5968828Y-8220929D01*
X5968828Y-8149500D01*
X5983114Y-8092357D01*
X5997400Y-8063786D01*
X6011686Y-8049500D01*
X6040257Y-8035214D01*
X6268828Y-8335214D02*
X6268828Y-8135214D01*
X6268828Y-8163786D02*
X6283114Y-8149500D01*
X6311686Y-8135214D01*
X6354543Y-8135214D01*
X6383114Y-8149500D01*
X6397400Y-8178071D01*
X6397400Y-8335214D01*
X6397400Y-8178071D02*
X6411686Y-8149500D01*
X6440257Y-8135214D01*
X6483114Y-8135214D01*
X6511686Y-8149500D01*
X6525971Y-8178071D01*
X6525971Y-8335214D01*
X6668828Y-8335214D02*
X6668828Y-8135214D01*
X6668828Y-8163786D02*
X6683114Y-8149500D01*
X6711686Y-8135214D01*
X6754543Y-8135214D01*
X6783114Y-8149500D01*
X6797400Y-8178071D01*
X6797400Y-8335214D01*
X6797400Y-8178071D02*
X6811686Y-8149500D01*
X6840257Y-8135214D01*
X6883114Y-8135214D01*
X6911686Y-8149500D01*
X6925971Y-8178071D01*
X6925971Y-8335214D01*
X7511686Y-8020929D02*
X7254543Y-8406643D01*
X7897400Y-8035214D02*
X7925971Y-8035214D01*
X7954543Y-8049500D01*
X7968828Y-8063786D01*
X7983114Y-8092357D01*
X7997400Y-8149500D01*
X7997400Y-8220929D01*
X7983114Y-8278071D01*
X7968828Y-8306643D01*
X7954543Y-8320929D01*
X7925971Y-8335214D01*
X7897400Y-8335214D01*
X7868828Y-8320929D01*
X7854543Y-8306643D01*
X7840257Y-8278071D01*
X7825971Y-8220929D01*
X7825971Y-8149500D01*
X7840257Y-8092357D01*
X7854543Y-8063786D01*
X7868828Y-8049500D01*
X7897400Y-8035214D01*
X8125971Y-8306643D02*
X8140257Y-8320929D01*
X8125971Y-8335214D01*
X8111686Y-8320929D01*
X8125971Y-8306643D01*
X8125971Y-8335214D01*
X8325971Y-8035214D02*
X8354543Y-8035214D01*
X8383114Y-8049500D01*
X8397400Y-8063786D01*
X8411686Y-8092357D01*
X8425971Y-8149500D01*
X8425971Y-8220929D01*
X8411686Y-8278071D01*
X8397400Y-8306643D01*
X8383114Y-8320929D01*
X8354543Y-8335214D01*
X8325971Y-8335214D01*
X8297400Y-8320929D01*
X8283114Y-8306643D01*
X8268828Y-8278071D01*
X8254543Y-8220929D01*
X8254543Y-8149500D01*
X8268828Y-8092357D01*
X8283114Y-8063786D01*
X8297400Y-8049500D01*
X8325971Y-8035214D01*
X8711686Y-8335214D02*
X8540257Y-8335214D01*
X8625971Y-8335214D02*
X8625971Y-8035214D01*
X8597400Y-8078071D01*
X8568829Y-8106643D01*
X8540257Y-8120929D01*
X8968829Y-8035214D02*
X8911686Y-8035214D01*
X8883114Y-8049500D01*
X8868829Y-8063786D01*
X8840257Y-8106643D01*
X8825971Y-8163786D01*
X8825971Y-8278071D01*
X8840257Y-8306643D01*
X8854543Y-8320929D01*
X8883114Y-8335214D01*
X8940257Y-8335214D01*
X8968829Y-8320929D01*
X8983114Y-8306643D01*
X8997400Y-8278071D01*
X8997400Y-8206643D01*
X8983114Y-8178071D01*
X8968829Y-8163786D01*
X8940257Y-8149500D01*
X8883114Y-8149500D01*
X8854543Y-8163786D01*
X8840257Y-8178071D01*
X8825971Y-8206643D01*
X9111686Y-8035214D02*
X9111686Y-8092357D01*
X9225971Y-8035214D02*
X9225971Y-8092357D01*
X9668829Y-8449500D02*
X9654543Y-8435214D01*
X9625971Y-8392357D01*
X9611686Y-8363786D01*
X9597400Y-8320929D01*
X9583114Y-8249500D01*
X9583114Y-8192357D01*
X9597400Y-8120929D01*
X9611686Y-8078071D01*
X9625971Y-8049500D01*
X9654543Y-8006643D01*
X9668829Y-7992357D01*
X9911686Y-8135214D02*
X9911686Y-8335214D01*
X9840257Y-8020929D02*
X9768829Y-8235214D01*
X9954543Y-8235214D01*
X10297400Y-8335214D02*
X10297400Y-8035214D01*
X10425971Y-8335214D02*
X10425971Y-8178071D01*
X10411686Y-8149500D01*
X10383114Y-8135214D01*
X10340257Y-8135214D01*
X10311686Y-8149500D01*
X10297400Y-8163786D01*
X10611686Y-8335214D02*
X10583114Y-8320929D01*
X10568829Y-8306643D01*
X10554543Y-8278071D01*
X10554543Y-8192357D01*
X10568829Y-8163786D01*
X10583114Y-8149500D01*
X10611686Y-8135214D01*
X10654543Y-8135214D01*
X10683114Y-8149500D01*
X10697400Y-8163786D01*
X10711686Y-8192357D01*
X10711686Y-8278071D01*
X10697400Y-8306643D01*
X10683114Y-8320929D01*
X10654543Y-8335214D01*
X10611686Y-8335214D01*
X10883114Y-8335214D02*
X10854543Y-8320929D01*
X10840257Y-8292357D01*
X10840257Y-8035214D01*
X11111686Y-8320929D02*
X11083114Y-8335214D01*
X11025971Y-8335214D01*
X10997400Y-8320929D01*
X10983114Y-8292357D01*
X10983114Y-8178071D01*
X10997400Y-8149500D01*
X11025971Y-8135214D01*
X11083114Y-8135214D01*
X11111686Y-8149500D01*
X11125971Y-8178071D01*
X11125971Y-8206643D01*
X10983114Y-8235214D01*
X11240257Y-8320929D02*
X11268828Y-8335214D01*
X11325971Y-8335214D01*
X11354543Y-8320929D01*
X11368828Y-8292357D01*
X11368828Y-8278071D01*
X11354543Y-8249500D01*
X11325971Y-8235214D01*
X11283114Y-8235214D01*
X11254543Y-8220929D01*
X11240257Y-8192357D01*
X11240257Y-8178071D01*
X11254543Y-8149500D01*
X11283114Y-8135214D01*
X11325971Y-8135214D01*
X11354543Y-8149500D01*
X11468828Y-8449500D02*
X11483114Y-8435214D01*
X11511686Y-8392357D01*
X11525971Y-8363786D01*
X11540257Y-8320929D01*
X11554543Y-8249500D01*
X11554543Y-8192357D01*
X11540257Y-8120929D01*
X11525971Y-8078071D01*
X11511686Y-8049500D01*
X11483114Y-8006643D01*
X11468828Y-7992357D01*
X4982400Y-8595500D02*
G75*
G03X4982400Y-8595500I-40000J0D01*
G01*
X5325971Y-8431214D02*
X5354543Y-8431214D01*
X5383114Y-8445500D01*
X5397400Y-8459786D01*
X5411686Y-8488357D01*
X5425971Y-8545500D01*
X5425971Y-8616929D01*
X5411686Y-8674072D01*
X5397400Y-8702643D01*
X5383114Y-8716929D01*
X5354543Y-8731214D01*
X5325971Y-8731214D01*
X5297400Y-8716929D01*
X5283114Y-8702643D01*
X5268829Y-8674072D01*
X5254543Y-8616929D01*
X5254543Y-8545500D01*
X5268829Y-8488357D01*
X5283114Y-8459786D01*
X5297400Y-8445500D01*
X5325971Y-8431214D01*
X5554543Y-8702643D02*
X5568829Y-8716929D01*
X5554543Y-8731214D01*
X5540257Y-8716929D01*
X5554543Y-8702643D01*
X5554543Y-8731214D01*
X5740257Y-8559786D02*
X5711686Y-8545500D01*
X5697400Y-8531214D01*
X5683114Y-8502643D01*
X5683114Y-8488357D01*
X5697400Y-8459786D01*
X5711686Y-8445500D01*
X5740257Y-8431214D01*
X5797400Y-8431214D01*
X5825971Y-8445500D01*
X5840257Y-8459786D01*
X5854543Y-8488357D01*
X5854543Y-8502643D01*
X5840257Y-8531214D01*
X5825971Y-8545500D01*
X5797400Y-8559786D01*
X5740257Y-8559786D01*
X5711686Y-8574072D01*
X5697400Y-8588357D01*
X5683114Y-8616929D01*
X5683114Y-8674072D01*
X5697400Y-8702643D01*
X5711686Y-8716929D01*
X5740257Y-8731214D01*
X5797400Y-8731214D01*
X5825971Y-8716929D01*
X5840257Y-8702643D01*
X5854543Y-8674072D01*
X5854543Y-8616929D01*
X5840257Y-8588357D01*
X5825971Y-8574072D01*
X5797400Y-8559786D01*
X6040257Y-8431214D02*
X6068828Y-8431214D01*
X6097400Y-8445500D01*
X6111686Y-8459786D01*
X6125971Y-8488357D01*
X6140257Y-8545500D01*
X6140257Y-8616929D01*
X6125971Y-8674072D01*
X6111686Y-8702643D01*
X6097400Y-8716929D01*
X6068828Y-8731214D01*
X6040257Y-8731214D01*
X6011686Y-8716929D01*
X5997400Y-8702643D01*
X5983114Y-8674072D01*
X5968828Y-8616929D01*
X5968828Y-8545500D01*
X5983114Y-8488357D01*
X5997400Y-8459786D01*
X6011686Y-8445500D01*
X6040257Y-8431214D01*
X6268828Y-8731214D02*
X6268828Y-8531214D01*
X6268828Y-8559786D02*
X6283114Y-8545500D01*
X6311686Y-8531214D01*
X6354543Y-8531214D01*
X6383114Y-8545500D01*
X6397400Y-8574072D01*
X6397400Y-8731214D01*
X6397400Y-8574072D02*
X6411686Y-8545500D01*
X6440257Y-8531214D01*
X6483114Y-8531214D01*
X6511686Y-8545500D01*
X6525971Y-8574072D01*
X6525971Y-8731214D01*
X6668828Y-8731214D02*
X6668828Y-8531214D01*
X6668828Y-8559786D02*
X6683114Y-8545500D01*
X6711686Y-8531214D01*
X6754543Y-8531214D01*
X6783114Y-8545500D01*
X6797400Y-8574072D01*
X6797400Y-8731214D01*
X6797400Y-8574072D02*
X6811686Y-8545500D01*
X6840257Y-8531214D01*
X6883114Y-8531214D01*
X6911686Y-8545500D01*
X6925971Y-8574072D01*
X6925971Y-8731214D01*
X7511686Y-8416929D02*
X7254543Y-8802643D01*
X7897400Y-8431214D02*
X7925971Y-8431214D01*
X7954543Y-8445500D01*
X7968828Y-8459786D01*
X7983114Y-8488357D01*
X7997400Y-8545500D01*
X7997400Y-8616929D01*
X7983114Y-8674072D01*
X7968828Y-8702643D01*
X7954543Y-8716929D01*
X7925971Y-8731214D01*
X7897400Y-8731214D01*
X7868828Y-8716929D01*
X7854543Y-8702643D01*
X7840257Y-8674072D01*
X7825971Y-8616929D01*
X7825971Y-8545500D01*
X7840257Y-8488357D01*
X7854543Y-8459786D01*
X7868828Y-8445500D01*
X7897400Y-8431214D01*
X8125971Y-8702643D02*
X8140257Y-8716929D01*
X8125971Y-8731214D01*
X8111686Y-8716929D01*
X8125971Y-8702643D01*
X8125971Y-8731214D01*
X8325971Y-8431214D02*
X8354543Y-8431214D01*
X8383114Y-8445500D01*
X8397400Y-8459786D01*
X8411686Y-8488357D01*
X8425971Y-8545500D01*
X8425971Y-8616929D01*
X8411686Y-8674072D01*
X8397400Y-8702643D01*
X8383114Y-8716929D01*
X8354543Y-8731214D01*
X8325971Y-8731214D01*
X8297400Y-8716929D01*
X8283114Y-8702643D01*
X8268828Y-8674072D01*
X8254543Y-8616929D01*
X8254543Y-8545500D01*
X8268828Y-8488357D01*
X8283114Y-8459786D01*
X8297400Y-8445500D01*
X8325971Y-8431214D01*
X8525971Y-8431214D02*
X8711686Y-8431214D01*
X8611686Y-8545500D01*
X8654543Y-8545500D01*
X8683114Y-8559786D01*
X8697400Y-8574072D01*
X8711686Y-8602643D01*
X8711686Y-8674072D01*
X8697400Y-8702643D01*
X8683114Y-8716929D01*
X8654543Y-8731214D01*
X8568829Y-8731214D01*
X8540257Y-8716929D01*
X8525971Y-8702643D01*
X8997400Y-8731214D02*
X8825971Y-8731214D01*
X8911686Y-8731214D02*
X8911686Y-8431214D01*
X8883114Y-8474072D01*
X8854543Y-8502643D01*
X8825971Y-8516929D01*
X9111686Y-8431214D02*
X9111686Y-8488357D01*
X9225971Y-8431214D02*
X9225971Y-8488357D01*
X9668829Y-8845500D02*
X9654543Y-8831214D01*
X9625971Y-8788357D01*
X9611686Y-8759786D01*
X9597400Y-8716929D01*
X9583114Y-8645500D01*
X9583114Y-8588357D01*
X9597400Y-8516929D01*
X9611686Y-8474072D01*
X9625971Y-8445500D01*
X9654543Y-8402643D01*
X9668829Y-8388357D01*
X9825971Y-8559786D02*
X9797400Y-8545500D01*
X9783114Y-8531214D01*
X9768829Y-8502643D01*
X9768829Y-8488357D01*
X9783114Y-8459786D01*
X9797400Y-8445500D01*
X9825971Y-8431214D01*
X9883114Y-8431214D01*
X9911686Y-8445500D01*
X9925971Y-8459786D01*
X9940257Y-8488357D01*
X9940257Y-8502643D01*
X9925971Y-8531214D01*
X9911686Y-8545500D01*
X9883114Y-8559786D01*
X9825971Y-8559786D01*
X9797400Y-8574072D01*
X9783114Y-8588357D01*
X9768829Y-8616929D01*
X9768829Y-8674072D01*
X9783114Y-8702643D01*
X9797400Y-8716929D01*
X9825971Y-8731214D01*
X9883114Y-8731214D01*
X9911686Y-8716929D01*
X9925971Y-8702643D01*
X9940257Y-8674072D01*
X9940257Y-8616929D01*
X9925971Y-8588357D01*
X9911686Y-8574072D01*
X9883114Y-8559786D01*
X10040257Y-8431214D02*
X10240257Y-8431214D01*
X10111686Y-8731214D01*
X10583114Y-8731214D02*
X10583114Y-8431214D01*
X10711686Y-8731214D02*
X10711686Y-8574072D01*
X10697400Y-8545500D01*
X10668829Y-8531214D01*
X10625971Y-8531214D01*
X10597400Y-8545500D01*
X10583114Y-8559786D01*
X10897400Y-8731214D02*
X10868829Y-8716929D01*
X10854543Y-8702643D01*
X10840257Y-8674072D01*
X10840257Y-8588357D01*
X10854543Y-8559786D01*
X10868829Y-8545500D01*
X10897400Y-8531214D01*
X10940257Y-8531214D01*
X10968829Y-8545500D01*
X10983114Y-8559786D01*
X10997400Y-8588357D01*
X10997400Y-8674072D01*
X10983114Y-8702643D01*
X10968829Y-8716929D01*
X10940257Y-8731214D01*
X10897400Y-8731214D01*
X11168829Y-8731214D02*
X11140257Y-8716929D01*
X11125971Y-8688357D01*
X11125971Y-8431214D01*
X11397400Y-8716929D02*
X11368828Y-8731214D01*
X11311686Y-8731214D01*
X11283114Y-8716929D01*
X11268828Y-8688357D01*
X11268828Y-8574072D01*
X11283114Y-8545500D01*
X11311686Y-8531214D01*
X11368828Y-8531214D01*
X11397400Y-8545500D01*
X11411686Y-8574072D01*
X11411686Y-8602643D01*
X11268828Y-8631214D01*
X11525971Y-8716929D02*
X11554543Y-8731214D01*
X11611686Y-8731214D01*
X11640257Y-8716929D01*
X11654543Y-8688357D01*
X11654543Y-8674072D01*
X11640257Y-8645500D01*
X11611686Y-8631214D01*
X11568828Y-8631214D01*
X11540257Y-8616929D01*
X11525971Y-8588357D01*
X11525971Y-8574072D01*
X11540257Y-8545500D01*
X11568828Y-8531214D01*
X11611686Y-8531214D01*
X11640257Y-8545500D01*
X12011686Y-8616929D02*
X12240257Y-8616929D01*
X12125971Y-8731214D02*
X12125971Y-8502643D01*
X12597400Y-8459786D02*
X12611686Y-8445500D01*
X12640257Y-8431214D01*
X12711686Y-8431214D01*
X12740257Y-8445500D01*
X12754543Y-8459786D01*
X12768828Y-8488357D01*
X12768828Y-8516929D01*
X12754543Y-8559786D01*
X12583114Y-8731214D01*
X12768828Y-8731214D01*
X13111686Y-8716929D02*
X13140257Y-8731214D01*
X13197400Y-8731214D01*
X13225971Y-8716929D01*
X13240257Y-8688357D01*
X13240257Y-8674072D01*
X13225971Y-8645500D01*
X13197400Y-8631214D01*
X13154543Y-8631214D01*
X13125971Y-8616929D01*
X13111686Y-8588357D01*
X13111686Y-8574072D01*
X13125971Y-8545500D01*
X13154543Y-8531214D01*
X13197400Y-8531214D01*
X13225971Y-8545500D01*
X13411686Y-8731214D02*
X13383114Y-8716929D01*
X13368828Y-8688357D01*
X13368828Y-8431214D01*
X13568828Y-8731214D02*
X13540257Y-8716929D01*
X13525971Y-8702643D01*
X13511686Y-8674072D01*
X13511686Y-8588357D01*
X13525971Y-8559786D01*
X13540257Y-8545500D01*
X13568828Y-8531214D01*
X13611686Y-8531214D01*
X13640257Y-8545500D01*
X13654543Y-8559786D01*
X13668828Y-8588357D01*
X13668828Y-8674072D01*
X13654543Y-8702643D01*
X13640257Y-8716929D01*
X13611686Y-8731214D01*
X13568828Y-8731214D01*
X13754543Y-8531214D02*
X13868828Y-8531214D01*
X13797400Y-8431214D02*
X13797400Y-8688357D01*
X13811686Y-8716929D01*
X13840257Y-8731214D01*
X13868828Y-8731214D01*
X13954543Y-8716929D02*
X13983114Y-8731214D01*
X14040257Y-8731214D01*
X14068828Y-8716929D01*
X14083114Y-8688357D01*
X14083114Y-8674072D01*
X14068828Y-8645500D01*
X14040257Y-8631214D01*
X13997400Y-8631214D01*
X13968828Y-8616929D01*
X13954543Y-8588357D01*
X13954543Y-8574072D01*
X13968828Y-8545500D01*
X13997400Y-8531214D01*
X14040257Y-8531214D01*
X14068828Y-8545500D01*
X14183114Y-8845500D02*
X14197400Y-8831214D01*
X14225971Y-8788357D01*
X14240257Y-8759786D01*
X14254543Y-8716929D01*
X14268828Y-8645500D01*
X14268828Y-8588357D01*
X14254543Y-8516929D01*
X14240257Y-8474072D01*
X14225971Y-8445500D01*
X14197400Y-8402643D01*
X14183114Y-8388357D01*
X4932400Y-8941500D02*
X4932400Y-9041500D01*
X4882400Y-8991500D02*
X4982400Y-8991500D01*
X5425971Y-9127214D02*
X5254543Y-9127214D01*
X5340257Y-9127214D02*
X5340257Y-8827214D01*
X5311686Y-8870072D01*
X5283114Y-8898643D01*
X5254543Y-8912929D01*
X5554543Y-9098643D02*
X5568829Y-9112929D01*
X5554543Y-9127214D01*
X5540257Y-9112929D01*
X5554543Y-9098643D01*
X5554543Y-9127214D01*
X5754543Y-8827214D02*
X5783114Y-8827214D01*
X5811686Y-8841500D01*
X5825971Y-8855786D01*
X5840257Y-8884357D01*
X5854543Y-8941500D01*
X5854543Y-9012929D01*
X5840257Y-9070072D01*
X5825971Y-9098643D01*
X5811686Y-9112929D01*
X5783114Y-9127214D01*
X5754543Y-9127214D01*
X5725971Y-9112929D01*
X5711686Y-9098643D01*
X5697400Y-9070072D01*
X5683114Y-9012929D01*
X5683114Y-8941500D01*
X5697400Y-8884357D01*
X5711686Y-8855786D01*
X5725971Y-8841500D01*
X5754543Y-8827214D01*
X6040257Y-8827214D02*
X6068828Y-8827214D01*
X6097400Y-8841500D01*
X6111686Y-8855786D01*
X6125971Y-8884357D01*
X6140257Y-8941500D01*
X6140257Y-9012929D01*
X6125971Y-9070072D01*
X6111686Y-9098643D01*
X6097400Y-9112929D01*
X6068828Y-9127214D01*
X6040257Y-9127214D01*
X6011686Y-9112929D01*
X5997400Y-9098643D01*
X5983114Y-9070072D01*
X5968828Y-9012929D01*
X5968828Y-8941500D01*
X5983114Y-8884357D01*
X5997400Y-8855786D01*
X6011686Y-8841500D01*
X6040257Y-8827214D01*
X6268828Y-9127214D02*
X6268828Y-8927214D01*
X6268828Y-8955786D02*
X6283114Y-8941500D01*
X6311686Y-8927214D01*
X6354543Y-8927214D01*
X6383114Y-8941500D01*
X6397400Y-8970072D01*
X6397400Y-9127214D01*
X6397400Y-8970072D02*
X6411686Y-8941500D01*
X6440257Y-8927214D01*
X6483114Y-8927214D01*
X6511686Y-8941500D01*
X6525971Y-8970072D01*
X6525971Y-9127214D01*
X6668828Y-9127214D02*
X6668828Y-8927214D01*
X6668828Y-8955786D02*
X6683114Y-8941500D01*
X6711686Y-8927214D01*
X6754543Y-8927214D01*
X6783114Y-8941500D01*
X6797400Y-8970072D01*
X6797400Y-9127214D01*
X6797400Y-8970072D02*
X6811686Y-8941500D01*
X6840257Y-8927214D01*
X6883114Y-8927214D01*
X6911686Y-8941500D01*
X6925971Y-8970072D01*
X6925971Y-9127214D01*
X7511686Y-8812929D02*
X7254543Y-9198643D01*
X7897400Y-8827214D02*
X7925971Y-8827214D01*
X7954543Y-8841500D01*
X7968828Y-8855786D01*
X7983114Y-8884357D01*
X7997400Y-8941500D01*
X7997400Y-9012929D01*
X7983114Y-9070072D01*
X7968828Y-9098643D01*
X7954543Y-9112929D01*
X7925971Y-9127214D01*
X7897400Y-9127214D01*
X7868828Y-9112929D01*
X7854543Y-9098643D01*
X7840257Y-9070072D01*
X7825971Y-9012929D01*
X7825971Y-8941500D01*
X7840257Y-8884357D01*
X7854543Y-8855786D01*
X7868828Y-8841500D01*
X7897400Y-8827214D01*
X8125971Y-9098643D02*
X8140257Y-9112929D01*
X8125971Y-9127214D01*
X8111686Y-9112929D01*
X8125971Y-9098643D01*
X8125971Y-9127214D01*
X8325971Y-8827214D02*
X8354543Y-8827214D01*
X8383114Y-8841500D01*
X8397400Y-8855786D01*
X8411686Y-8884357D01*
X8425971Y-8941500D01*
X8425971Y-9012929D01*
X8411686Y-9070072D01*
X8397400Y-9098643D01*
X8383114Y-9112929D01*
X8354543Y-9127214D01*
X8325971Y-9127214D01*
X8297400Y-9112929D01*
X8283114Y-9098643D01*
X8268828Y-9070072D01*
X8254543Y-9012929D01*
X8254543Y-8941500D01*
X8268828Y-8884357D01*
X8283114Y-8855786D01*
X8297400Y-8841500D01*
X8325971Y-8827214D01*
X8525971Y-8827214D02*
X8711686Y-8827214D01*
X8611686Y-8941500D01*
X8654543Y-8941500D01*
X8683114Y-8955786D01*
X8697400Y-8970072D01*
X8711686Y-8998643D01*
X8711686Y-9070072D01*
X8697400Y-9098643D01*
X8683114Y-9112929D01*
X8654543Y-9127214D01*
X8568829Y-9127214D01*
X8540257Y-9112929D01*
X8525971Y-9098643D01*
X8854543Y-9127214D02*
X8911686Y-9127214D01*
X8940257Y-9112929D01*
X8954543Y-9098643D01*
X8983114Y-9055786D01*
X8997400Y-8998643D01*
X8997400Y-8884357D01*
X8983114Y-8855786D01*
X8968829Y-8841500D01*
X8940257Y-8827214D01*
X8883114Y-8827214D01*
X8854543Y-8841500D01*
X8840257Y-8855786D01*
X8825971Y-8884357D01*
X8825971Y-8955786D01*
X8840257Y-8984357D01*
X8854543Y-8998643D01*
X8883114Y-9012929D01*
X8940257Y-9012929D01*
X8968829Y-8998643D01*
X8983114Y-8984357D01*
X8997400Y-8955786D01*
X9111686Y-8827214D02*
X9111686Y-8884357D01*
X9225971Y-8827214D02*
X9225971Y-8884357D01*
X9668829Y-9241500D02*
X9654543Y-9227214D01*
X9625971Y-9184357D01*
X9611686Y-9155786D01*
X9597400Y-9112929D01*
X9583114Y-9041500D01*
X9583114Y-8984357D01*
X9597400Y-8912929D01*
X9611686Y-8870072D01*
X9625971Y-8841500D01*
X9654543Y-8798643D01*
X9668829Y-8784357D01*
X9911686Y-8927214D02*
X9911686Y-9127214D01*
X9840257Y-8812929D02*
X9768829Y-9027214D01*
X9954543Y-9027214D01*
X10297400Y-9127214D02*
X10297400Y-8827214D01*
X10425971Y-9127214D02*
X10425971Y-8970072D01*
X10411686Y-8941500D01*
X10383114Y-8927214D01*
X10340257Y-8927214D01*
X10311686Y-8941500D01*
X10297400Y-8955786D01*
X10611686Y-9127214D02*
X10583114Y-9112929D01*
X10568829Y-9098643D01*
X10554543Y-9070072D01*
X10554543Y-8984357D01*
X10568829Y-8955786D01*
X10583114Y-8941500D01*
X10611686Y-8927214D01*
X10654543Y-8927214D01*
X10683114Y-8941500D01*
X10697400Y-8955786D01*
X10711686Y-8984357D01*
X10711686Y-9070072D01*
X10697400Y-9098643D01*
X10683114Y-9112929D01*
X10654543Y-9127214D01*
X10611686Y-9127214D01*
X10883114Y-9127214D02*
X10854543Y-9112929D01*
X10840257Y-9084357D01*
X10840257Y-8827214D01*
X11111686Y-9112929D02*
X11083114Y-9127214D01*
X11025971Y-9127214D01*
X10997400Y-9112929D01*
X10983114Y-9084357D01*
X10983114Y-8970072D01*
X10997400Y-8941500D01*
X11025971Y-8927214D01*
X11083114Y-8927214D01*
X11111686Y-8941500D01*
X11125971Y-8970072D01*
X11125971Y-8998643D01*
X10983114Y-9027214D01*
X11240257Y-9112929D02*
X11268828Y-9127214D01*
X11325971Y-9127214D01*
X11354543Y-9112929D01*
X11368828Y-9084357D01*
X11368828Y-9070072D01*
X11354543Y-9041500D01*
X11325971Y-9027214D01*
X11283114Y-9027214D01*
X11254543Y-9012929D01*
X11240257Y-8984357D01*
X11240257Y-8970072D01*
X11254543Y-8941500D01*
X11283114Y-8927214D01*
X11325971Y-8927214D01*
X11354543Y-8941500D01*
X11468828Y-9241500D02*
X11483114Y-9227214D01*
X11511686Y-9184357D01*
X11525971Y-9155786D01*
X11540257Y-9112929D01*
X11554543Y-9041500D01*
X11554543Y-8984357D01*
X11540257Y-8912929D01*
X11525971Y-8870072D01*
X11511686Y-8841500D01*
X11483114Y-8798643D01*
X11468828Y-8784357D01*
M02*
