%FSLAX45Y45*%
G04 Gerber Fmt 4.5, Leading zero omitted, Abs format (unit mm)*
G04 Created by KiCad (PCBNEW (5.1.5)-3) date 2020-08-12 10:23:54*
%MOMM*%
%LPD*%
G04 APERTURE LIST*
%TA.AperFunction,Profile*%
%ADD10C,0.010000*%
%TD*%
%ADD11C,0.200000*%
%ADD12C,0.300000*%
G04 APERTURE END LIST*
D10*
X5232400Y-7239000D02*
X5257800Y-7239000D01*
X5232400Y-2108200D02*
X5232400Y-7239000D01*
X7810500Y-2108200D02*
X5232400Y-2108200D01*
X5257800Y-7239000D02*
X7810500Y-7239000D01*
X7810500Y-2108200D02*
X7810500Y-7239000D01*
D11*
D12*
X5268829Y-7705214D02*
X5268829Y-7405214D01*
X5340257Y-7405214D01*
X5383114Y-7419500D01*
X5411686Y-7448071D01*
X5425971Y-7476643D01*
X5440257Y-7533786D01*
X5440257Y-7576643D01*
X5425971Y-7633786D01*
X5411686Y-7662357D01*
X5383114Y-7690929D01*
X5340257Y-7705214D01*
X5268829Y-7705214D01*
X5568829Y-7705214D02*
X5568829Y-7505214D01*
X5568829Y-7562357D02*
X5583114Y-7533786D01*
X5597400Y-7519500D01*
X5625971Y-7505214D01*
X5654543Y-7505214D01*
X5754543Y-7705214D02*
X5754543Y-7505214D01*
X5754543Y-7405214D02*
X5740257Y-7419500D01*
X5754543Y-7433786D01*
X5768828Y-7419500D01*
X5754543Y-7405214D01*
X5754543Y-7433786D01*
X5940257Y-7705214D02*
X5911686Y-7690929D01*
X5897400Y-7662357D01*
X5897400Y-7405214D01*
X6097400Y-7705214D02*
X6068828Y-7690929D01*
X6054543Y-7662357D01*
X6054543Y-7405214D01*
X6440257Y-7705214D02*
X6440257Y-7405214D01*
X6540257Y-7619500D01*
X6640257Y-7405214D01*
X6640257Y-7705214D01*
X6911686Y-7705214D02*
X6911686Y-7548071D01*
X6897400Y-7519500D01*
X6868828Y-7505214D01*
X6811686Y-7505214D01*
X6783114Y-7519500D01*
X6911686Y-7690929D02*
X6883114Y-7705214D01*
X6811686Y-7705214D01*
X6783114Y-7690929D01*
X6768828Y-7662357D01*
X6768828Y-7633786D01*
X6783114Y-7605214D01*
X6811686Y-7590929D01*
X6883114Y-7590929D01*
X6911686Y-7576643D01*
X7054543Y-7505214D02*
X7054543Y-7805214D01*
X7054543Y-7519500D02*
X7083114Y-7505214D01*
X7140257Y-7505214D01*
X7168828Y-7519500D01*
X7183114Y-7533786D01*
X7197400Y-7562357D01*
X7197400Y-7648071D01*
X7183114Y-7676643D01*
X7168828Y-7690929D01*
X7140257Y-7705214D01*
X7083114Y-7705214D01*
X7054543Y-7690929D01*
X7325971Y-7676643D02*
X7340257Y-7690929D01*
X7325971Y-7705214D01*
X7311686Y-7690929D01*
X7325971Y-7676643D01*
X7325971Y-7705214D01*
X7325971Y-7519500D02*
X7340257Y-7533786D01*
X7325971Y-7548071D01*
X7311686Y-7533786D01*
X7325971Y-7519500D01*
X7325971Y-7548071D01*
M02*
