G04 #@! TF.GenerationSoftware,KiCad,Pcbnew,(5.1.5)-3*
G04 #@! TF.CreationDate,2020-08-12T10:23:50-04:00*
G04 #@! TF.ProjectId,vic20-svideoLHM,76696332-302d-4737-9669-64656f4c484d,rev?*
G04 #@! TF.SameCoordinates,Original*
G04 #@! TF.FileFunction,Soldermask,Top*
G04 #@! TF.FilePolarity,Negative*
%FSLAX46Y46*%
G04 Gerber Fmt 4.6, Leading zero omitted, Abs format (unit mm)*
G04 Created by KiCad (PCBNEW (5.1.5)-3) date 2020-08-12 10:23:50*
%MOMM*%
%LPD*%
G04 APERTURE LIST*
%ADD10C,0.100000*%
G04 APERTURE END LIST*
D10*
G36*
X77269229Y-70098704D02*
G01*
X77424101Y-70162854D01*
X77563482Y-70255986D01*
X77682016Y-70374520D01*
X77775148Y-70513901D01*
X77839298Y-70668773D01*
X77872001Y-70833185D01*
X77872001Y-71000817D01*
X77839298Y-71165229D01*
X77775148Y-71320101D01*
X77682016Y-71459482D01*
X77563482Y-71578016D01*
X77424101Y-71671148D01*
X77269229Y-71735298D01*
X77104817Y-71768001D01*
X76937185Y-71768001D01*
X76772773Y-71735298D01*
X76617901Y-71671148D01*
X76478520Y-71578016D01*
X76359986Y-71459482D01*
X76266854Y-71320101D01*
X76202704Y-71165229D01*
X76170001Y-71000817D01*
X76170001Y-70833185D01*
X76202704Y-70668773D01*
X76266854Y-70513901D01*
X76359986Y-70374520D01*
X76478520Y-70255986D01*
X76617901Y-70162854D01*
X76772773Y-70098704D01*
X76937185Y-70066001D01*
X77104817Y-70066001D01*
X77269229Y-70098704D01*
G37*
G36*
X74543228Y-70098704D02*
G01*
X74698100Y-70162854D01*
X74837481Y-70255986D01*
X74956015Y-70374520D01*
X75049147Y-70513901D01*
X75113297Y-70668773D01*
X75146000Y-70833185D01*
X75146000Y-71000817D01*
X75113297Y-71165229D01*
X75049147Y-71320101D01*
X74956015Y-71459482D01*
X74837481Y-71578016D01*
X74698100Y-71671148D01*
X74543228Y-71735298D01*
X74378816Y-71768001D01*
X74211184Y-71768001D01*
X74046772Y-71735298D01*
X73891900Y-71671148D01*
X73752519Y-71578016D01*
X73633985Y-71459482D01*
X73540853Y-71320101D01*
X73476703Y-71165229D01*
X73444000Y-71000817D01*
X73444000Y-70833185D01*
X73476703Y-70668773D01*
X73540853Y-70513901D01*
X73633985Y-70374520D01*
X73752519Y-70255986D01*
X73891900Y-70162854D01*
X74046772Y-70098704D01*
X74211184Y-70066001D01*
X74378816Y-70066001D01*
X74543228Y-70098704D01*
G37*
G36*
X62029229Y-70098704D02*
G01*
X62184101Y-70162854D01*
X62323482Y-70255986D01*
X62442016Y-70374520D01*
X62535148Y-70513901D01*
X62599298Y-70668773D01*
X62632001Y-70833185D01*
X62632001Y-71000817D01*
X62599298Y-71165229D01*
X62535148Y-71320101D01*
X62442016Y-71459482D01*
X62323482Y-71578016D01*
X62184101Y-71671148D01*
X62029229Y-71735298D01*
X61864817Y-71768001D01*
X61697185Y-71768001D01*
X61532773Y-71735298D01*
X61377901Y-71671148D01*
X61238520Y-71578016D01*
X61119986Y-71459482D01*
X61026854Y-71320101D01*
X60962704Y-71165229D01*
X60930001Y-71000817D01*
X60930001Y-70833185D01*
X60962704Y-70668773D01*
X61026854Y-70513901D01*
X61119986Y-70374520D01*
X61238520Y-70255986D01*
X61377901Y-70162854D01*
X61532773Y-70098704D01*
X61697185Y-70066001D01*
X61864817Y-70066001D01*
X62029229Y-70098704D01*
G37*
G36*
X59303228Y-70098704D02*
G01*
X59458100Y-70162854D01*
X59597481Y-70255986D01*
X59716015Y-70374520D01*
X59809147Y-70513901D01*
X59873297Y-70668773D01*
X59906000Y-70833185D01*
X59906000Y-71000817D01*
X59873297Y-71165229D01*
X59809147Y-71320101D01*
X59716015Y-71459482D01*
X59597481Y-71578016D01*
X59458100Y-71671148D01*
X59303228Y-71735298D01*
X59138816Y-71768001D01*
X58971184Y-71768001D01*
X58806772Y-71735298D01*
X58651900Y-71671148D01*
X58512519Y-71578016D01*
X58393985Y-71459482D01*
X58300853Y-71320101D01*
X58236703Y-71165229D01*
X58204000Y-71000817D01*
X58204000Y-70833185D01*
X58236703Y-70668773D01*
X58300853Y-70513901D01*
X58393985Y-70374520D01*
X58512519Y-70255986D01*
X58651900Y-70162854D01*
X58806772Y-70098704D01*
X58971184Y-70066001D01*
X59138816Y-70066001D01*
X59303228Y-70098704D01*
G37*
G36*
X59303228Y-67558704D02*
G01*
X59458100Y-67622854D01*
X59597481Y-67715986D01*
X59716015Y-67834520D01*
X59809147Y-67973901D01*
X59873297Y-68128773D01*
X59906000Y-68293185D01*
X59906000Y-68460817D01*
X59873297Y-68625229D01*
X59809147Y-68780101D01*
X59716015Y-68919482D01*
X59597481Y-69038016D01*
X59458100Y-69131148D01*
X59303228Y-69195298D01*
X59138816Y-69228001D01*
X58971184Y-69228001D01*
X58806772Y-69195298D01*
X58651900Y-69131148D01*
X58512519Y-69038016D01*
X58393985Y-68919482D01*
X58300853Y-68780101D01*
X58236703Y-68625229D01*
X58204000Y-68460817D01*
X58204000Y-68293185D01*
X58236703Y-68128773D01*
X58300853Y-67973901D01*
X58393985Y-67834520D01*
X58512519Y-67715986D01*
X58651900Y-67622854D01*
X58806772Y-67558704D01*
X58971184Y-67526001D01*
X59138816Y-67526001D01*
X59303228Y-67558704D01*
G37*
G36*
X62029229Y-67558704D02*
G01*
X62184101Y-67622854D01*
X62323482Y-67715986D01*
X62442016Y-67834520D01*
X62535148Y-67973901D01*
X62599298Y-68128773D01*
X62632001Y-68293185D01*
X62632001Y-68460817D01*
X62599298Y-68625229D01*
X62535148Y-68780101D01*
X62442016Y-68919482D01*
X62323482Y-69038016D01*
X62184101Y-69131148D01*
X62029229Y-69195298D01*
X61864817Y-69228001D01*
X61697185Y-69228001D01*
X61532773Y-69195298D01*
X61377901Y-69131148D01*
X61238520Y-69038016D01*
X61119986Y-68919482D01*
X61026854Y-68780101D01*
X60962704Y-68625229D01*
X60930001Y-68460817D01*
X60930001Y-68293185D01*
X60962704Y-68128773D01*
X61026854Y-67973901D01*
X61119986Y-67834520D01*
X61238520Y-67715986D01*
X61377901Y-67622854D01*
X61532773Y-67558704D01*
X61697185Y-67526001D01*
X61864817Y-67526001D01*
X62029229Y-67558704D01*
G37*
G36*
X77269229Y-67558704D02*
G01*
X77424101Y-67622854D01*
X77563482Y-67715986D01*
X77682016Y-67834520D01*
X77775148Y-67973901D01*
X77839298Y-68128773D01*
X77872001Y-68293185D01*
X77872001Y-68460817D01*
X77839298Y-68625229D01*
X77775148Y-68780101D01*
X77682016Y-68919482D01*
X77563482Y-69038016D01*
X77424101Y-69131148D01*
X77269229Y-69195298D01*
X77104817Y-69228001D01*
X76937185Y-69228001D01*
X76772773Y-69195298D01*
X76617901Y-69131148D01*
X76478520Y-69038016D01*
X76359986Y-68919482D01*
X76266854Y-68780101D01*
X76202704Y-68625229D01*
X76170001Y-68460817D01*
X76170001Y-68293185D01*
X76202704Y-68128773D01*
X76266854Y-67973901D01*
X76359986Y-67834520D01*
X76478520Y-67715986D01*
X76617901Y-67622854D01*
X76772773Y-67558704D01*
X76937185Y-67526001D01*
X77104817Y-67526001D01*
X77269229Y-67558704D01*
G37*
G36*
X74543228Y-67558704D02*
G01*
X74698100Y-67622854D01*
X74837481Y-67715986D01*
X74956015Y-67834520D01*
X75049147Y-67973901D01*
X75113297Y-68128773D01*
X75146000Y-68293185D01*
X75146000Y-68460817D01*
X75113297Y-68625229D01*
X75049147Y-68780101D01*
X74956015Y-68919482D01*
X74837481Y-69038016D01*
X74698100Y-69131148D01*
X74543228Y-69195298D01*
X74378816Y-69228001D01*
X74211184Y-69228001D01*
X74046772Y-69195298D01*
X73891900Y-69131148D01*
X73752519Y-69038016D01*
X73633985Y-68919482D01*
X73540853Y-68780101D01*
X73476703Y-68625229D01*
X73444000Y-68460817D01*
X73444000Y-68293185D01*
X73476703Y-68128773D01*
X73540853Y-67973901D01*
X73633985Y-67834520D01*
X73752519Y-67715986D01*
X73891900Y-67622854D01*
X74046772Y-67558704D01*
X74211184Y-67526001D01*
X74378816Y-67526001D01*
X74543228Y-67558704D01*
G37*
G36*
X70846928Y-68231764D02*
G01*
X70868009Y-68238160D01*
X70887445Y-68248548D01*
X70904476Y-68262524D01*
X70918452Y-68279555D01*
X70928840Y-68298991D01*
X70935236Y-68320072D01*
X70938000Y-68348140D01*
X70938000Y-68811860D01*
X70935236Y-68839928D01*
X70928840Y-68861009D01*
X70918452Y-68880445D01*
X70904476Y-68897476D01*
X70887445Y-68911452D01*
X70868009Y-68921840D01*
X70846928Y-68928236D01*
X70818860Y-68931000D01*
X69205140Y-68931000D01*
X69177072Y-68928236D01*
X69155991Y-68921840D01*
X69136555Y-68911452D01*
X69119524Y-68897476D01*
X69105548Y-68880445D01*
X69095160Y-68861009D01*
X69088764Y-68839928D01*
X69086000Y-68811860D01*
X69086000Y-68348140D01*
X69088764Y-68320072D01*
X69095160Y-68298991D01*
X69105548Y-68279555D01*
X69119524Y-68262524D01*
X69136555Y-68248548D01*
X69155991Y-68238160D01*
X69177072Y-68231764D01*
X69205140Y-68229000D01*
X70818860Y-68229000D01*
X70846928Y-68231764D01*
G37*
G36*
X65696928Y-68231764D02*
G01*
X65718009Y-68238160D01*
X65737445Y-68248548D01*
X65754476Y-68262524D01*
X65768452Y-68279555D01*
X65778840Y-68298991D01*
X65785236Y-68320072D01*
X65788000Y-68348140D01*
X65788000Y-68811860D01*
X65785236Y-68839928D01*
X65778840Y-68861009D01*
X65768452Y-68880445D01*
X65754476Y-68897476D01*
X65737445Y-68911452D01*
X65718009Y-68921840D01*
X65696928Y-68928236D01*
X65668860Y-68931000D01*
X64055140Y-68931000D01*
X64027072Y-68928236D01*
X64005991Y-68921840D01*
X63986555Y-68911452D01*
X63969524Y-68897476D01*
X63955548Y-68880445D01*
X63945160Y-68861009D01*
X63938764Y-68839928D01*
X63936000Y-68811860D01*
X63936000Y-68348140D01*
X63938764Y-68320072D01*
X63945160Y-68298991D01*
X63955548Y-68279555D01*
X63969524Y-68262524D01*
X63986555Y-68248548D01*
X64005991Y-68238160D01*
X64027072Y-68231764D01*
X64055140Y-68229000D01*
X65668860Y-68229000D01*
X65696928Y-68231764D01*
G37*
G36*
X70846928Y-66961764D02*
G01*
X70868009Y-66968160D01*
X70887445Y-66978548D01*
X70904476Y-66992524D01*
X70918452Y-67009555D01*
X70928840Y-67028991D01*
X70935236Y-67050072D01*
X70938000Y-67078140D01*
X70938000Y-67541860D01*
X70935236Y-67569928D01*
X70928840Y-67591009D01*
X70918452Y-67610445D01*
X70904476Y-67627476D01*
X70887445Y-67641452D01*
X70868009Y-67651840D01*
X70846928Y-67658236D01*
X70818860Y-67661000D01*
X69205140Y-67661000D01*
X69177072Y-67658236D01*
X69155991Y-67651840D01*
X69136555Y-67641452D01*
X69119524Y-67627476D01*
X69105548Y-67610445D01*
X69095160Y-67591009D01*
X69088764Y-67569928D01*
X69086000Y-67541860D01*
X69086000Y-67078140D01*
X69088764Y-67050072D01*
X69095160Y-67028991D01*
X69105548Y-67009555D01*
X69119524Y-66992524D01*
X69136555Y-66978548D01*
X69155991Y-66968160D01*
X69177072Y-66961764D01*
X69205140Y-66959000D01*
X70818860Y-66959000D01*
X70846928Y-66961764D01*
G37*
G36*
X65696928Y-66961764D02*
G01*
X65718009Y-66968160D01*
X65737445Y-66978548D01*
X65754476Y-66992524D01*
X65768452Y-67009555D01*
X65778840Y-67028991D01*
X65785236Y-67050072D01*
X65788000Y-67078140D01*
X65788000Y-67541860D01*
X65785236Y-67569928D01*
X65778840Y-67591009D01*
X65768452Y-67610445D01*
X65754476Y-67627476D01*
X65737445Y-67641452D01*
X65718009Y-67651840D01*
X65696928Y-67658236D01*
X65668860Y-67661000D01*
X64055140Y-67661000D01*
X64027072Y-67658236D01*
X64005991Y-67651840D01*
X63986555Y-67641452D01*
X63969524Y-67627476D01*
X63955548Y-67610445D01*
X63945160Y-67591009D01*
X63938764Y-67569928D01*
X63936000Y-67541860D01*
X63936000Y-67078140D01*
X63938764Y-67050072D01*
X63945160Y-67028991D01*
X63955548Y-67009555D01*
X63969524Y-66992524D01*
X63986555Y-66978548D01*
X64005991Y-66968160D01*
X64027072Y-66961764D01*
X64055140Y-66959000D01*
X65668860Y-66959000D01*
X65696928Y-66961764D01*
G37*
G36*
X72851674Y-66316465D02*
G01*
X72889367Y-66327899D01*
X72924103Y-66346466D01*
X72954548Y-66371452D01*
X72979534Y-66401897D01*
X72998101Y-66436633D01*
X73009535Y-66474326D01*
X73014000Y-66519661D01*
X73014000Y-67356339D01*
X73009535Y-67401674D01*
X72998101Y-67439367D01*
X72979534Y-67474103D01*
X72954548Y-67504548D01*
X72924103Y-67529534D01*
X72889367Y-67548101D01*
X72851674Y-67559535D01*
X72806339Y-67564000D01*
X71719661Y-67564000D01*
X71674326Y-67559535D01*
X71636633Y-67548101D01*
X71601897Y-67529534D01*
X71571452Y-67504548D01*
X71546466Y-67474103D01*
X71527899Y-67439367D01*
X71516465Y-67401674D01*
X71512000Y-67356339D01*
X71512000Y-66519661D01*
X71516465Y-66474326D01*
X71527899Y-66436633D01*
X71546466Y-66401897D01*
X71571452Y-66371452D01*
X71601897Y-66346466D01*
X71636633Y-66327899D01*
X71674326Y-66316465D01*
X71719661Y-66312000D01*
X72806339Y-66312000D01*
X72851674Y-66316465D01*
G37*
G36*
X74543228Y-65018704D02*
G01*
X74698100Y-65082854D01*
X74837481Y-65175986D01*
X74956015Y-65294520D01*
X75049147Y-65433901D01*
X75113297Y-65588773D01*
X75146000Y-65753185D01*
X75146000Y-65920817D01*
X75113297Y-66085229D01*
X75049147Y-66240101D01*
X74956015Y-66379482D01*
X74837481Y-66498016D01*
X74698100Y-66591148D01*
X74543228Y-66655298D01*
X74378816Y-66688001D01*
X74211184Y-66688001D01*
X74046772Y-66655298D01*
X73891900Y-66591148D01*
X73752519Y-66498016D01*
X73633985Y-66379482D01*
X73540853Y-66240101D01*
X73476703Y-66085229D01*
X73444000Y-65920817D01*
X73444000Y-65753185D01*
X73476703Y-65588773D01*
X73540853Y-65433901D01*
X73633985Y-65294520D01*
X73752519Y-65175986D01*
X73891900Y-65082854D01*
X74046772Y-65018704D01*
X74211184Y-64986001D01*
X74378816Y-64986001D01*
X74543228Y-65018704D01*
G37*
G36*
X59303228Y-65018704D02*
G01*
X59458100Y-65082854D01*
X59597481Y-65175986D01*
X59716015Y-65294520D01*
X59809147Y-65433901D01*
X59873297Y-65588773D01*
X59906000Y-65753185D01*
X59906000Y-65920817D01*
X59873297Y-66085229D01*
X59809147Y-66240101D01*
X59716015Y-66379482D01*
X59597481Y-66498016D01*
X59458100Y-66591148D01*
X59303228Y-66655298D01*
X59138816Y-66688001D01*
X58971184Y-66688001D01*
X58806772Y-66655298D01*
X58651900Y-66591148D01*
X58512519Y-66498016D01*
X58393985Y-66379482D01*
X58300853Y-66240101D01*
X58236703Y-66085229D01*
X58204000Y-65920817D01*
X58204000Y-65753185D01*
X58236703Y-65588773D01*
X58300853Y-65433901D01*
X58393985Y-65294520D01*
X58512519Y-65175986D01*
X58651900Y-65082854D01*
X58806772Y-65018704D01*
X58971184Y-64986001D01*
X59138816Y-64986001D01*
X59303228Y-65018704D01*
G37*
G36*
X77269229Y-65018704D02*
G01*
X77424101Y-65082854D01*
X77563482Y-65175986D01*
X77682016Y-65294520D01*
X77775148Y-65433901D01*
X77839298Y-65588773D01*
X77872001Y-65753185D01*
X77872001Y-65920817D01*
X77839298Y-66085229D01*
X77775148Y-66240101D01*
X77682016Y-66379482D01*
X77563482Y-66498016D01*
X77424101Y-66591148D01*
X77269229Y-66655298D01*
X77104817Y-66688001D01*
X76937185Y-66688001D01*
X76772773Y-66655298D01*
X76617901Y-66591148D01*
X76478520Y-66498016D01*
X76359986Y-66379482D01*
X76266854Y-66240101D01*
X76202704Y-66085229D01*
X76170001Y-65920817D01*
X76170001Y-65753185D01*
X76202704Y-65588773D01*
X76266854Y-65433901D01*
X76359986Y-65294520D01*
X76478520Y-65175986D01*
X76617901Y-65082854D01*
X76772773Y-65018704D01*
X76937185Y-64986001D01*
X77104817Y-64986001D01*
X77269229Y-65018704D01*
G37*
G36*
X62029229Y-65018704D02*
G01*
X62184101Y-65082854D01*
X62323482Y-65175986D01*
X62442016Y-65294520D01*
X62535148Y-65433901D01*
X62599298Y-65588773D01*
X62632001Y-65753185D01*
X62632001Y-65920817D01*
X62599298Y-66085229D01*
X62535148Y-66240101D01*
X62442016Y-66379482D01*
X62323482Y-66498016D01*
X62184101Y-66591148D01*
X62029229Y-66655298D01*
X61864817Y-66688001D01*
X61697185Y-66688001D01*
X61532773Y-66655298D01*
X61377901Y-66591148D01*
X61238520Y-66498016D01*
X61119986Y-66379482D01*
X61026854Y-66240101D01*
X60962704Y-66085229D01*
X60930001Y-65920817D01*
X60930001Y-65753185D01*
X60962704Y-65588773D01*
X61026854Y-65433901D01*
X61119986Y-65294520D01*
X61238520Y-65175986D01*
X61377901Y-65082854D01*
X61532773Y-65018704D01*
X61697185Y-64986001D01*
X61864817Y-64986001D01*
X62029229Y-65018704D01*
G37*
G36*
X65696928Y-65691764D02*
G01*
X65718009Y-65698160D01*
X65737445Y-65708548D01*
X65754476Y-65722524D01*
X65768452Y-65739555D01*
X65778840Y-65758991D01*
X65785236Y-65780072D01*
X65788000Y-65808140D01*
X65788000Y-66271860D01*
X65785236Y-66299928D01*
X65778840Y-66321009D01*
X65768452Y-66340445D01*
X65754476Y-66357476D01*
X65737445Y-66371452D01*
X65718009Y-66381840D01*
X65696928Y-66388236D01*
X65668860Y-66391000D01*
X64055140Y-66391000D01*
X64027072Y-66388236D01*
X64005991Y-66381840D01*
X63986555Y-66371452D01*
X63969524Y-66357476D01*
X63955548Y-66340445D01*
X63945160Y-66321009D01*
X63938764Y-66299928D01*
X63936000Y-66271860D01*
X63936000Y-65808140D01*
X63938764Y-65780072D01*
X63945160Y-65758991D01*
X63955548Y-65739555D01*
X63969524Y-65722524D01*
X63986555Y-65708548D01*
X64005991Y-65698160D01*
X64027072Y-65691764D01*
X64055140Y-65689000D01*
X65668860Y-65689000D01*
X65696928Y-65691764D01*
G37*
G36*
X70846928Y-65691764D02*
G01*
X70868009Y-65698160D01*
X70887445Y-65708548D01*
X70904476Y-65722524D01*
X70918452Y-65739555D01*
X70928840Y-65758991D01*
X70935236Y-65780072D01*
X70938000Y-65808140D01*
X70938000Y-66271860D01*
X70935236Y-66299928D01*
X70928840Y-66321009D01*
X70918452Y-66340445D01*
X70904476Y-66357476D01*
X70887445Y-66371452D01*
X70868009Y-66381840D01*
X70846928Y-66388236D01*
X70818860Y-66391000D01*
X69205140Y-66391000D01*
X69177072Y-66388236D01*
X69155991Y-66381840D01*
X69136555Y-66371452D01*
X69119524Y-66357476D01*
X69105548Y-66340445D01*
X69095160Y-66321009D01*
X69088764Y-66299928D01*
X69086000Y-66271860D01*
X69086000Y-65808140D01*
X69088764Y-65780072D01*
X69095160Y-65758991D01*
X69105548Y-65739555D01*
X69119524Y-65722524D01*
X69136555Y-65708548D01*
X69155991Y-65698160D01*
X69177072Y-65691764D01*
X69205140Y-65689000D01*
X70818860Y-65689000D01*
X70846928Y-65691764D01*
G37*
G36*
X72851674Y-64266465D02*
G01*
X72889367Y-64277899D01*
X72924103Y-64296466D01*
X72954548Y-64321452D01*
X72979534Y-64351897D01*
X72998101Y-64386633D01*
X73009535Y-64424326D01*
X73014000Y-64469661D01*
X73014000Y-65306339D01*
X73009535Y-65351674D01*
X72998101Y-65389367D01*
X72979534Y-65424103D01*
X72954548Y-65454548D01*
X72924103Y-65479534D01*
X72889367Y-65498101D01*
X72851674Y-65509535D01*
X72806339Y-65514000D01*
X71719661Y-65514000D01*
X71674326Y-65509535D01*
X71636633Y-65498101D01*
X71601897Y-65479534D01*
X71571452Y-65454548D01*
X71546466Y-65424103D01*
X71527899Y-65389367D01*
X71516465Y-65351674D01*
X71512000Y-65306339D01*
X71512000Y-64469661D01*
X71516465Y-64424326D01*
X71527899Y-64386633D01*
X71546466Y-64351897D01*
X71571452Y-64321452D01*
X71601897Y-64296466D01*
X71636633Y-64277899D01*
X71674326Y-64266465D01*
X71719661Y-64262000D01*
X72806339Y-64262000D01*
X72851674Y-64266465D01*
G37*
G36*
X70846928Y-64421764D02*
G01*
X70868009Y-64428160D01*
X70887445Y-64438548D01*
X70904476Y-64452524D01*
X70918452Y-64469555D01*
X70928840Y-64488991D01*
X70935236Y-64510072D01*
X70938000Y-64538140D01*
X70938000Y-65001860D01*
X70935236Y-65029928D01*
X70928840Y-65051009D01*
X70918452Y-65070445D01*
X70904476Y-65087476D01*
X70887445Y-65101452D01*
X70868009Y-65111840D01*
X70846928Y-65118236D01*
X70818860Y-65121000D01*
X69205140Y-65121000D01*
X69177072Y-65118236D01*
X69155991Y-65111840D01*
X69136555Y-65101452D01*
X69119524Y-65087476D01*
X69105548Y-65070445D01*
X69095160Y-65051009D01*
X69088764Y-65029928D01*
X69086000Y-65001860D01*
X69086000Y-64538140D01*
X69088764Y-64510072D01*
X69095160Y-64488991D01*
X69105548Y-64469555D01*
X69119524Y-64452524D01*
X69136555Y-64438548D01*
X69155991Y-64428160D01*
X69177072Y-64421764D01*
X69205140Y-64419000D01*
X70818860Y-64419000D01*
X70846928Y-64421764D01*
G37*
G36*
X65696928Y-64421764D02*
G01*
X65718009Y-64428160D01*
X65737445Y-64438548D01*
X65754476Y-64452524D01*
X65768452Y-64469555D01*
X65778840Y-64488991D01*
X65785236Y-64510072D01*
X65788000Y-64538140D01*
X65788000Y-65001860D01*
X65785236Y-65029928D01*
X65778840Y-65051009D01*
X65768452Y-65070445D01*
X65754476Y-65087476D01*
X65737445Y-65101452D01*
X65718009Y-65111840D01*
X65696928Y-65118236D01*
X65668860Y-65121000D01*
X64055140Y-65121000D01*
X64027072Y-65118236D01*
X64005991Y-65111840D01*
X63986555Y-65101452D01*
X63969524Y-65087476D01*
X63955548Y-65070445D01*
X63945160Y-65051009D01*
X63938764Y-65029928D01*
X63936000Y-65001860D01*
X63936000Y-64538140D01*
X63938764Y-64510072D01*
X63945160Y-64488991D01*
X63955548Y-64469555D01*
X63969524Y-64452524D01*
X63986555Y-64438548D01*
X64005991Y-64428160D01*
X64027072Y-64421764D01*
X64055140Y-64419000D01*
X65668860Y-64419000D01*
X65696928Y-64421764D01*
G37*
G36*
X77269229Y-62478704D02*
G01*
X77424101Y-62542854D01*
X77563482Y-62635986D01*
X77682016Y-62754520D01*
X77775148Y-62893901D01*
X77839298Y-63048773D01*
X77872001Y-63213185D01*
X77872001Y-63380817D01*
X77839298Y-63545229D01*
X77775148Y-63700101D01*
X77682016Y-63839482D01*
X77563482Y-63958016D01*
X77424101Y-64051148D01*
X77269229Y-64115298D01*
X77104817Y-64148001D01*
X76937185Y-64148001D01*
X76772773Y-64115298D01*
X76617901Y-64051148D01*
X76478520Y-63958016D01*
X76359986Y-63839482D01*
X76266854Y-63700101D01*
X76202704Y-63545229D01*
X76170001Y-63380817D01*
X76170001Y-63213185D01*
X76202704Y-63048773D01*
X76266854Y-62893901D01*
X76359986Y-62754520D01*
X76478520Y-62635986D01*
X76617901Y-62542854D01*
X76772773Y-62478704D01*
X76937185Y-62446001D01*
X77104817Y-62446001D01*
X77269229Y-62478704D01*
G37*
G36*
X74543228Y-62478704D02*
G01*
X74698100Y-62542854D01*
X74837481Y-62635986D01*
X74956015Y-62754520D01*
X75049147Y-62893901D01*
X75113297Y-63048773D01*
X75146000Y-63213185D01*
X75146000Y-63380817D01*
X75113297Y-63545229D01*
X75049147Y-63700101D01*
X74956015Y-63839482D01*
X74837481Y-63958016D01*
X74698100Y-64051148D01*
X74543228Y-64115298D01*
X74378816Y-64148001D01*
X74211184Y-64148001D01*
X74046772Y-64115298D01*
X73891900Y-64051148D01*
X73752519Y-63958016D01*
X73633985Y-63839482D01*
X73540853Y-63700101D01*
X73476703Y-63545229D01*
X73444000Y-63380817D01*
X73444000Y-63213185D01*
X73476703Y-63048773D01*
X73540853Y-62893901D01*
X73633985Y-62754520D01*
X73752519Y-62635986D01*
X73891900Y-62542854D01*
X74046772Y-62478704D01*
X74211184Y-62446001D01*
X74378816Y-62446001D01*
X74543228Y-62478704D01*
G37*
G36*
X59303228Y-62478704D02*
G01*
X59458100Y-62542854D01*
X59597481Y-62635986D01*
X59716015Y-62754520D01*
X59809147Y-62893901D01*
X59873297Y-63048773D01*
X59906000Y-63213185D01*
X59906000Y-63380817D01*
X59873297Y-63545229D01*
X59809147Y-63700101D01*
X59716015Y-63839482D01*
X59597481Y-63958016D01*
X59458100Y-64051148D01*
X59303228Y-64115298D01*
X59138816Y-64148001D01*
X58971184Y-64148001D01*
X58806772Y-64115298D01*
X58651900Y-64051148D01*
X58512519Y-63958016D01*
X58393985Y-63839482D01*
X58300853Y-63700101D01*
X58236703Y-63545229D01*
X58204000Y-63380817D01*
X58204000Y-63213185D01*
X58236703Y-63048773D01*
X58300853Y-62893901D01*
X58393985Y-62754520D01*
X58512519Y-62635986D01*
X58651900Y-62542854D01*
X58806772Y-62478704D01*
X58971184Y-62446001D01*
X59138816Y-62446001D01*
X59303228Y-62478704D01*
G37*
G36*
X62029229Y-62478704D02*
G01*
X62184101Y-62542854D01*
X62323482Y-62635986D01*
X62442016Y-62754520D01*
X62535148Y-62893901D01*
X62599298Y-63048773D01*
X62632001Y-63213185D01*
X62632001Y-63380817D01*
X62599298Y-63545229D01*
X62535148Y-63700101D01*
X62442016Y-63839482D01*
X62323482Y-63958016D01*
X62184101Y-64051148D01*
X62029229Y-64115298D01*
X61864817Y-64148001D01*
X61697185Y-64148001D01*
X61532773Y-64115298D01*
X61377901Y-64051148D01*
X61238520Y-63958016D01*
X61119986Y-63839482D01*
X61026854Y-63700101D01*
X60962704Y-63545229D01*
X60930001Y-63380817D01*
X60930001Y-63213185D01*
X60962704Y-63048773D01*
X61026854Y-62893901D01*
X61119986Y-62754520D01*
X61238520Y-62635986D01*
X61377901Y-62542854D01*
X61532773Y-62478704D01*
X61697185Y-62446001D01*
X61864817Y-62446001D01*
X62029229Y-62478704D01*
G37*
G36*
X54723512Y-61333927D02*
G01*
X54872812Y-61363624D01*
X55036784Y-61431544D01*
X55184354Y-61530147D01*
X55309853Y-61655646D01*
X55408456Y-61803216D01*
X55476376Y-61967188D01*
X55511000Y-62141259D01*
X55511000Y-62318741D01*
X55476376Y-62492812D01*
X55408456Y-62656784D01*
X55309853Y-62804354D01*
X55184354Y-62929853D01*
X55036784Y-63028456D01*
X54872812Y-63096376D01*
X54723512Y-63126073D01*
X54698742Y-63131000D01*
X54521258Y-63131000D01*
X54496488Y-63126073D01*
X54347188Y-63096376D01*
X54183216Y-63028456D01*
X54035646Y-62929853D01*
X53910147Y-62804354D01*
X53811544Y-62656784D01*
X53743624Y-62492812D01*
X53709000Y-62318741D01*
X53709000Y-62141259D01*
X53743624Y-61967188D01*
X53811544Y-61803216D01*
X53910147Y-61655646D01*
X54035646Y-61530147D01*
X54183216Y-61431544D01*
X54347188Y-61363624D01*
X54496488Y-61333927D01*
X54521258Y-61329000D01*
X54698742Y-61329000D01*
X54723512Y-61333927D01*
G37*
G36*
X67898674Y-60728465D02*
G01*
X67936367Y-60739899D01*
X67971103Y-60758466D01*
X68001548Y-60783452D01*
X68026534Y-60813897D01*
X68045101Y-60848633D01*
X68056535Y-60886326D01*
X68061000Y-60931661D01*
X68061000Y-61768339D01*
X68056535Y-61813674D01*
X68045101Y-61851367D01*
X68026534Y-61886103D01*
X68001548Y-61916548D01*
X67971103Y-61941534D01*
X67936367Y-61960101D01*
X67898674Y-61971535D01*
X67853339Y-61976000D01*
X66766661Y-61976000D01*
X66721326Y-61971535D01*
X66683633Y-61960101D01*
X66648897Y-61941534D01*
X66618452Y-61916548D01*
X66593466Y-61886103D01*
X66574899Y-61851367D01*
X66563465Y-61813674D01*
X66559000Y-61768339D01*
X66559000Y-60931661D01*
X66563465Y-60886326D01*
X66574899Y-60848633D01*
X66593466Y-60813897D01*
X66618452Y-60783452D01*
X66648897Y-60758466D01*
X66683633Y-60739899D01*
X66721326Y-60728465D01*
X66766661Y-60724000D01*
X67853339Y-60724000D01*
X67898674Y-60728465D01*
G37*
G36*
X77269229Y-59938704D02*
G01*
X77424101Y-60002854D01*
X77563482Y-60095986D01*
X77682016Y-60214520D01*
X77775148Y-60353901D01*
X77839298Y-60508773D01*
X77872001Y-60673185D01*
X77872001Y-60840817D01*
X77839298Y-61005229D01*
X77775148Y-61160101D01*
X77682016Y-61299482D01*
X77563482Y-61418016D01*
X77424101Y-61511148D01*
X77269229Y-61575298D01*
X77104817Y-61608001D01*
X76937185Y-61608001D01*
X76772773Y-61575298D01*
X76617901Y-61511148D01*
X76478520Y-61418016D01*
X76359986Y-61299482D01*
X76266854Y-61160101D01*
X76202704Y-61005229D01*
X76170001Y-60840817D01*
X76170001Y-60673185D01*
X76202704Y-60508773D01*
X76266854Y-60353901D01*
X76359986Y-60214520D01*
X76478520Y-60095986D01*
X76617901Y-60002854D01*
X76772773Y-59938704D01*
X76937185Y-59906001D01*
X77104817Y-59906001D01*
X77269229Y-59938704D01*
G37*
G36*
X74543228Y-59938704D02*
G01*
X74698100Y-60002854D01*
X74837481Y-60095986D01*
X74956015Y-60214520D01*
X75049147Y-60353901D01*
X75113297Y-60508773D01*
X75146000Y-60673185D01*
X75146000Y-60840817D01*
X75113297Y-61005229D01*
X75049147Y-61160101D01*
X74956015Y-61299482D01*
X74837481Y-61418016D01*
X74698100Y-61511148D01*
X74543228Y-61575298D01*
X74378816Y-61608001D01*
X74211184Y-61608001D01*
X74046772Y-61575298D01*
X73891900Y-61511148D01*
X73752519Y-61418016D01*
X73633985Y-61299482D01*
X73540853Y-61160101D01*
X73476703Y-61005229D01*
X73444000Y-60840817D01*
X73444000Y-60673185D01*
X73476703Y-60508773D01*
X73540853Y-60353901D01*
X73633985Y-60214520D01*
X73752519Y-60095986D01*
X73891900Y-60002854D01*
X74046772Y-59938704D01*
X74211184Y-59906001D01*
X74378816Y-59906001D01*
X74543228Y-59938704D01*
G37*
G36*
X59303228Y-59938704D02*
G01*
X59458100Y-60002854D01*
X59597481Y-60095986D01*
X59716015Y-60214520D01*
X59809147Y-60353901D01*
X59873297Y-60508773D01*
X59906000Y-60673185D01*
X59906000Y-60840817D01*
X59873297Y-61005229D01*
X59809147Y-61160101D01*
X59716015Y-61299482D01*
X59597481Y-61418016D01*
X59458100Y-61511148D01*
X59303228Y-61575298D01*
X59138816Y-61608001D01*
X58971184Y-61608001D01*
X58806772Y-61575298D01*
X58651900Y-61511148D01*
X58512519Y-61418016D01*
X58393985Y-61299482D01*
X58300853Y-61160101D01*
X58236703Y-61005229D01*
X58204000Y-60840817D01*
X58204000Y-60673185D01*
X58236703Y-60508773D01*
X58300853Y-60353901D01*
X58393985Y-60214520D01*
X58512519Y-60095986D01*
X58651900Y-60002854D01*
X58806772Y-59938704D01*
X58971184Y-59906001D01*
X59138816Y-59906001D01*
X59303228Y-59938704D01*
G37*
G36*
X62029229Y-59938704D02*
G01*
X62184101Y-60002854D01*
X62323482Y-60095986D01*
X62442016Y-60214520D01*
X62535148Y-60353901D01*
X62599298Y-60508773D01*
X62632001Y-60673185D01*
X62632001Y-60840817D01*
X62599298Y-61005229D01*
X62535148Y-61160101D01*
X62442016Y-61299482D01*
X62323482Y-61418016D01*
X62184101Y-61511148D01*
X62029229Y-61575298D01*
X61864817Y-61608001D01*
X61697185Y-61608001D01*
X61532773Y-61575298D01*
X61377901Y-61511148D01*
X61238520Y-61418016D01*
X61119986Y-61299482D01*
X61026854Y-61160101D01*
X60962704Y-61005229D01*
X60930001Y-60840817D01*
X60930001Y-60673185D01*
X60962704Y-60508773D01*
X61026854Y-60353901D01*
X61119986Y-60214520D01*
X61238520Y-60095986D01*
X61377901Y-60002854D01*
X61532773Y-59938704D01*
X61697185Y-59906001D01*
X61864817Y-59906001D01*
X62029229Y-59938704D01*
G37*
G36*
X55511000Y-60591000D02*
G01*
X53709000Y-60591000D01*
X53709000Y-58789000D01*
X55511000Y-58789000D01*
X55511000Y-60591000D01*
G37*
G36*
X67898674Y-58678465D02*
G01*
X67936367Y-58689899D01*
X67971103Y-58708466D01*
X68001548Y-58733452D01*
X68026534Y-58763897D01*
X68045101Y-58798633D01*
X68056535Y-58836326D01*
X68061000Y-58881661D01*
X68061000Y-59718339D01*
X68056535Y-59763674D01*
X68045101Y-59801367D01*
X68026534Y-59836103D01*
X68001548Y-59866548D01*
X67971103Y-59891534D01*
X67936367Y-59910101D01*
X67898674Y-59921535D01*
X67853339Y-59926000D01*
X66766661Y-59926000D01*
X66721326Y-59921535D01*
X66683633Y-59910101D01*
X66648897Y-59891534D01*
X66618452Y-59866548D01*
X66593466Y-59836103D01*
X66574899Y-59801367D01*
X66563465Y-59763674D01*
X66559000Y-59718339D01*
X66559000Y-58881661D01*
X66563465Y-58836326D01*
X66574899Y-58798633D01*
X66593466Y-58763897D01*
X66618452Y-58733452D01*
X66648897Y-58708466D01*
X66683633Y-58689899D01*
X66721326Y-58678465D01*
X66766661Y-58674000D01*
X67853339Y-58674000D01*
X67898674Y-58678465D01*
G37*
G36*
X77269229Y-57398704D02*
G01*
X77424101Y-57462854D01*
X77563482Y-57555986D01*
X77682016Y-57674520D01*
X77775148Y-57813901D01*
X77839298Y-57968773D01*
X77872001Y-58133185D01*
X77872001Y-58300817D01*
X77839298Y-58465229D01*
X77775148Y-58620101D01*
X77682016Y-58759482D01*
X77563482Y-58878016D01*
X77424101Y-58971148D01*
X77269229Y-59035298D01*
X77104817Y-59068001D01*
X76937185Y-59068001D01*
X76772773Y-59035298D01*
X76617901Y-58971148D01*
X76478520Y-58878016D01*
X76359986Y-58759482D01*
X76266854Y-58620101D01*
X76202704Y-58465229D01*
X76170001Y-58300817D01*
X76170001Y-58133185D01*
X76202704Y-57968773D01*
X76266854Y-57813901D01*
X76359986Y-57674520D01*
X76478520Y-57555986D01*
X76617901Y-57462854D01*
X76772773Y-57398704D01*
X76937185Y-57366001D01*
X77104817Y-57366001D01*
X77269229Y-57398704D01*
G37*
G36*
X74543228Y-57398704D02*
G01*
X74698100Y-57462854D01*
X74837481Y-57555986D01*
X74956015Y-57674520D01*
X75049147Y-57813901D01*
X75113297Y-57968773D01*
X75146000Y-58133185D01*
X75146000Y-58300817D01*
X75113297Y-58465229D01*
X75049147Y-58620101D01*
X74956015Y-58759482D01*
X74837481Y-58878016D01*
X74698100Y-58971148D01*
X74543228Y-59035298D01*
X74378816Y-59068001D01*
X74211184Y-59068001D01*
X74046772Y-59035298D01*
X73891900Y-58971148D01*
X73752519Y-58878016D01*
X73633985Y-58759482D01*
X73540853Y-58620101D01*
X73476703Y-58465229D01*
X73444000Y-58300817D01*
X73444000Y-58133185D01*
X73476703Y-57968773D01*
X73540853Y-57813901D01*
X73633985Y-57674520D01*
X73752519Y-57555986D01*
X73891900Y-57462854D01*
X74046772Y-57398704D01*
X74211184Y-57366001D01*
X74378816Y-57366001D01*
X74543228Y-57398704D01*
G37*
G36*
X62029229Y-57398704D02*
G01*
X62184101Y-57462854D01*
X62323482Y-57555986D01*
X62442016Y-57674520D01*
X62535148Y-57813901D01*
X62599298Y-57968773D01*
X62632001Y-58133185D01*
X62632001Y-58300817D01*
X62599298Y-58465229D01*
X62535148Y-58620101D01*
X62442016Y-58759482D01*
X62323482Y-58878016D01*
X62184101Y-58971148D01*
X62029229Y-59035298D01*
X61864817Y-59068001D01*
X61697185Y-59068001D01*
X61532773Y-59035298D01*
X61377901Y-58971148D01*
X61238520Y-58878016D01*
X61119986Y-58759482D01*
X61026854Y-58620101D01*
X60962704Y-58465229D01*
X60930001Y-58300817D01*
X60930001Y-58133185D01*
X60962704Y-57968773D01*
X61026854Y-57813901D01*
X61119986Y-57674520D01*
X61238520Y-57555986D01*
X61377901Y-57462854D01*
X61532773Y-57398704D01*
X61697185Y-57366001D01*
X61864817Y-57366001D01*
X62029229Y-57398704D01*
G37*
G36*
X59303228Y-57398704D02*
G01*
X59458100Y-57462854D01*
X59597481Y-57555986D01*
X59716015Y-57674520D01*
X59809147Y-57813901D01*
X59873297Y-57968773D01*
X59906000Y-58133185D01*
X59906000Y-58300817D01*
X59873297Y-58465229D01*
X59809147Y-58620101D01*
X59716015Y-58759482D01*
X59597481Y-58878016D01*
X59458100Y-58971148D01*
X59303228Y-59035298D01*
X59138816Y-59068001D01*
X58971184Y-59068001D01*
X58806772Y-59035298D01*
X58651900Y-58971148D01*
X58512519Y-58878016D01*
X58393985Y-58759482D01*
X58300853Y-58620101D01*
X58236703Y-58465229D01*
X58204000Y-58300817D01*
X58204000Y-58133185D01*
X58236703Y-57968773D01*
X58300853Y-57813901D01*
X58393985Y-57674520D01*
X58512519Y-57555986D01*
X58651900Y-57462854D01*
X58806772Y-57398704D01*
X58971184Y-57366001D01*
X59138816Y-57366001D01*
X59303228Y-57398704D01*
G37*
G36*
X70098228Y-55061703D02*
G01*
X70253100Y-55125853D01*
X70392481Y-55218985D01*
X70511015Y-55337519D01*
X70604147Y-55476900D01*
X70668297Y-55631772D01*
X70701000Y-55796184D01*
X70701000Y-55963816D01*
X70668297Y-56128228D01*
X70604147Y-56283100D01*
X70511015Y-56422481D01*
X70392481Y-56541015D01*
X70253100Y-56634147D01*
X70098228Y-56698297D01*
X69933816Y-56731000D01*
X69766184Y-56731000D01*
X69601772Y-56698297D01*
X69446900Y-56634147D01*
X69307519Y-56541015D01*
X69188985Y-56422481D01*
X69095853Y-56283100D01*
X69031703Y-56128228D01*
X68999000Y-55963816D01*
X68999000Y-55796184D01*
X69031703Y-55631772D01*
X69095853Y-55476900D01*
X69188985Y-55337519D01*
X69307519Y-55218985D01*
X69446900Y-55125853D01*
X69601772Y-55061703D01*
X69766184Y-55029000D01*
X69933816Y-55029000D01*
X70098228Y-55061703D01*
G37*
G36*
X66288228Y-55061703D02*
G01*
X66443100Y-55125853D01*
X66582481Y-55218985D01*
X66701015Y-55337519D01*
X66794147Y-55476900D01*
X66858297Y-55631772D01*
X66891000Y-55796184D01*
X66891000Y-55963816D01*
X66858297Y-56128228D01*
X66794147Y-56283100D01*
X66701015Y-56422481D01*
X66582481Y-56541015D01*
X66443100Y-56634147D01*
X66288228Y-56698297D01*
X66123816Y-56731000D01*
X65956184Y-56731000D01*
X65791772Y-56698297D01*
X65636900Y-56634147D01*
X65497519Y-56541015D01*
X65378985Y-56422481D01*
X65285853Y-56283100D01*
X65221703Y-56128228D01*
X65189000Y-55963816D01*
X65189000Y-55796184D01*
X65221703Y-55631772D01*
X65285853Y-55476900D01*
X65378985Y-55337519D01*
X65497519Y-55218985D01*
X65636900Y-55125853D01*
X65791772Y-55061703D01*
X65956184Y-55029000D01*
X66123816Y-55029000D01*
X66288228Y-55061703D01*
G37*
G36*
X59303228Y-54858704D02*
G01*
X59458100Y-54922854D01*
X59597481Y-55015986D01*
X59716015Y-55134520D01*
X59809147Y-55273901D01*
X59873297Y-55428773D01*
X59906000Y-55593185D01*
X59906000Y-55760817D01*
X59873297Y-55925229D01*
X59809147Y-56080101D01*
X59716015Y-56219482D01*
X59597481Y-56338016D01*
X59458100Y-56431148D01*
X59303228Y-56495298D01*
X59138816Y-56528001D01*
X58971184Y-56528001D01*
X58806772Y-56495298D01*
X58651900Y-56431148D01*
X58512519Y-56338016D01*
X58393985Y-56219482D01*
X58300853Y-56080101D01*
X58236703Y-55925229D01*
X58204000Y-55760817D01*
X58204000Y-55593185D01*
X58236703Y-55428773D01*
X58300853Y-55273901D01*
X58393985Y-55134520D01*
X58512519Y-55015986D01*
X58651900Y-54922854D01*
X58806772Y-54858704D01*
X58971184Y-54826001D01*
X59138816Y-54826001D01*
X59303228Y-54858704D01*
G37*
G36*
X77269229Y-54858704D02*
G01*
X77424101Y-54922854D01*
X77563482Y-55015986D01*
X77682016Y-55134520D01*
X77775148Y-55273901D01*
X77839298Y-55428773D01*
X77872001Y-55593185D01*
X77872001Y-55760817D01*
X77839298Y-55925229D01*
X77775148Y-56080101D01*
X77682016Y-56219482D01*
X77563482Y-56338016D01*
X77424101Y-56431148D01*
X77269229Y-56495298D01*
X77104817Y-56528001D01*
X76937185Y-56528001D01*
X76772773Y-56495298D01*
X76617901Y-56431148D01*
X76478520Y-56338016D01*
X76359986Y-56219482D01*
X76266854Y-56080101D01*
X76202704Y-55925229D01*
X76170001Y-55760817D01*
X76170001Y-55593185D01*
X76202704Y-55428773D01*
X76266854Y-55273901D01*
X76359986Y-55134520D01*
X76478520Y-55015986D01*
X76617901Y-54922854D01*
X76772773Y-54858704D01*
X76937185Y-54826001D01*
X77104817Y-54826001D01*
X77269229Y-54858704D01*
G37*
G36*
X74543228Y-54858704D02*
G01*
X74698100Y-54922854D01*
X74837481Y-55015986D01*
X74956015Y-55134520D01*
X75049147Y-55273901D01*
X75113297Y-55428773D01*
X75146000Y-55593185D01*
X75146000Y-55760817D01*
X75113297Y-55925229D01*
X75049147Y-56080101D01*
X74956015Y-56219482D01*
X74837481Y-56338016D01*
X74698100Y-56431148D01*
X74543228Y-56495298D01*
X74378816Y-56528001D01*
X74211184Y-56528001D01*
X74046772Y-56495298D01*
X73891900Y-56431148D01*
X73752519Y-56338016D01*
X73633985Y-56219482D01*
X73540853Y-56080101D01*
X73476703Y-55925229D01*
X73444000Y-55760817D01*
X73444000Y-55593185D01*
X73476703Y-55428773D01*
X73540853Y-55273901D01*
X73633985Y-55134520D01*
X73752519Y-55015986D01*
X73891900Y-54922854D01*
X74046772Y-54858704D01*
X74211184Y-54826001D01*
X74378816Y-54826001D01*
X74543228Y-54858704D01*
G37*
G36*
X62029229Y-54858704D02*
G01*
X62184101Y-54922854D01*
X62323482Y-55015986D01*
X62442016Y-55134520D01*
X62535148Y-55273901D01*
X62599298Y-55428773D01*
X62632001Y-55593185D01*
X62632001Y-55760817D01*
X62599298Y-55925229D01*
X62535148Y-56080101D01*
X62442016Y-56219482D01*
X62323482Y-56338016D01*
X62184101Y-56431148D01*
X62029229Y-56495298D01*
X61864817Y-56528001D01*
X61697185Y-56528001D01*
X61532773Y-56495298D01*
X61377901Y-56431148D01*
X61238520Y-56338016D01*
X61119986Y-56219482D01*
X61026854Y-56080101D01*
X60962704Y-55925229D01*
X60930001Y-55760817D01*
X60930001Y-55593185D01*
X60962704Y-55428773D01*
X61026854Y-55273901D01*
X61119986Y-55134520D01*
X61238520Y-55015986D01*
X61377901Y-54922854D01*
X61532773Y-54858704D01*
X61697185Y-54826001D01*
X61864817Y-54826001D01*
X62029229Y-54858704D01*
G37*
G36*
X55511000Y-54241000D02*
G01*
X53709000Y-54241000D01*
X53709000Y-52439000D01*
X55511000Y-52439000D01*
X55511000Y-54241000D01*
G37*
G36*
X62029229Y-52318704D02*
G01*
X62184101Y-52382854D01*
X62323482Y-52475986D01*
X62442016Y-52594520D01*
X62535148Y-52733901D01*
X62599298Y-52888773D01*
X62632001Y-53053185D01*
X62632001Y-53220817D01*
X62599298Y-53385229D01*
X62535148Y-53540101D01*
X62442016Y-53679482D01*
X62323482Y-53798016D01*
X62184101Y-53891148D01*
X62029229Y-53955298D01*
X61864817Y-53988001D01*
X61697185Y-53988001D01*
X61532773Y-53955298D01*
X61377901Y-53891148D01*
X61238520Y-53798016D01*
X61119986Y-53679482D01*
X61026854Y-53540101D01*
X60962704Y-53385229D01*
X60930001Y-53220817D01*
X60930001Y-53053185D01*
X60962704Y-52888773D01*
X61026854Y-52733901D01*
X61119986Y-52594520D01*
X61238520Y-52475986D01*
X61377901Y-52382854D01*
X61532773Y-52318704D01*
X61697185Y-52286001D01*
X61864817Y-52286001D01*
X62029229Y-52318704D01*
G37*
G36*
X77269229Y-52318704D02*
G01*
X77424101Y-52382854D01*
X77563482Y-52475986D01*
X77682016Y-52594520D01*
X77775148Y-52733901D01*
X77839298Y-52888773D01*
X77872001Y-53053185D01*
X77872001Y-53220817D01*
X77839298Y-53385229D01*
X77775148Y-53540101D01*
X77682016Y-53679482D01*
X77563482Y-53798016D01*
X77424101Y-53891148D01*
X77269229Y-53955298D01*
X77104817Y-53988001D01*
X76937185Y-53988001D01*
X76772773Y-53955298D01*
X76617901Y-53891148D01*
X76478520Y-53798016D01*
X76359986Y-53679482D01*
X76266854Y-53540101D01*
X76202704Y-53385229D01*
X76170001Y-53220817D01*
X76170001Y-53053185D01*
X76202704Y-52888773D01*
X76266854Y-52733901D01*
X76359986Y-52594520D01*
X76478520Y-52475986D01*
X76617901Y-52382854D01*
X76772773Y-52318704D01*
X76937185Y-52286001D01*
X77104817Y-52286001D01*
X77269229Y-52318704D01*
G37*
G36*
X74543228Y-52318704D02*
G01*
X74698100Y-52382854D01*
X74837481Y-52475986D01*
X74956015Y-52594520D01*
X75049147Y-52733901D01*
X75113297Y-52888773D01*
X75146000Y-53053185D01*
X75146000Y-53220817D01*
X75113297Y-53385229D01*
X75049147Y-53540101D01*
X74956015Y-53679482D01*
X74837481Y-53798016D01*
X74698100Y-53891148D01*
X74543228Y-53955298D01*
X74378816Y-53988001D01*
X74211184Y-53988001D01*
X74046772Y-53955298D01*
X73891900Y-53891148D01*
X73752519Y-53798016D01*
X73633985Y-53679482D01*
X73540853Y-53540101D01*
X73476703Y-53385229D01*
X73444000Y-53220817D01*
X73444000Y-53053185D01*
X73476703Y-52888773D01*
X73540853Y-52733901D01*
X73633985Y-52594520D01*
X73752519Y-52475986D01*
X73891900Y-52382854D01*
X74046772Y-52318704D01*
X74211184Y-52286001D01*
X74378816Y-52286001D01*
X74543228Y-52318704D01*
G37*
G36*
X59303228Y-52318704D02*
G01*
X59458100Y-52382854D01*
X59597481Y-52475986D01*
X59716015Y-52594520D01*
X59809147Y-52733901D01*
X59873297Y-52888773D01*
X59906000Y-53053185D01*
X59906000Y-53220817D01*
X59873297Y-53385229D01*
X59809147Y-53540101D01*
X59716015Y-53679482D01*
X59597481Y-53798016D01*
X59458100Y-53891148D01*
X59303228Y-53955298D01*
X59138816Y-53988001D01*
X58971184Y-53988001D01*
X58806772Y-53955298D01*
X58651900Y-53891148D01*
X58512519Y-53798016D01*
X58393985Y-53679482D01*
X58300853Y-53540101D01*
X58236703Y-53385229D01*
X58204000Y-53220817D01*
X58204000Y-53053185D01*
X58236703Y-52888773D01*
X58300853Y-52733901D01*
X58393985Y-52594520D01*
X58512519Y-52475986D01*
X58651900Y-52382854D01*
X58806772Y-52318704D01*
X58971184Y-52286001D01*
X59138816Y-52286001D01*
X59303228Y-52318704D01*
G37*
G36*
X54723512Y-49903927D02*
G01*
X54872812Y-49933624D01*
X55036784Y-50001544D01*
X55184354Y-50100147D01*
X55309853Y-50225646D01*
X55408456Y-50373216D01*
X55476376Y-50537188D01*
X55511000Y-50711259D01*
X55511000Y-50888741D01*
X55476376Y-51062812D01*
X55408456Y-51226784D01*
X55309853Y-51374354D01*
X55184354Y-51499853D01*
X55036784Y-51598456D01*
X54872812Y-51666376D01*
X54723512Y-51696073D01*
X54698742Y-51701000D01*
X54521258Y-51701000D01*
X54496488Y-51696073D01*
X54347188Y-51666376D01*
X54183216Y-51598456D01*
X54035646Y-51499853D01*
X53910147Y-51374354D01*
X53811544Y-51226784D01*
X53743624Y-51062812D01*
X53709000Y-50888741D01*
X53709000Y-50711259D01*
X53743624Y-50537188D01*
X53811544Y-50373216D01*
X53910147Y-50225646D01*
X54035646Y-50100147D01*
X54183216Y-50001544D01*
X54347188Y-49933624D01*
X54496488Y-49903927D01*
X54521258Y-49899000D01*
X54698742Y-49899000D01*
X54723512Y-49903927D01*
G37*
G36*
X74543228Y-49778704D02*
G01*
X74698100Y-49842854D01*
X74837481Y-49935986D01*
X74956015Y-50054520D01*
X75049147Y-50193901D01*
X75113297Y-50348773D01*
X75146000Y-50513185D01*
X75146000Y-50680817D01*
X75113297Y-50845229D01*
X75049147Y-51000101D01*
X74956015Y-51139482D01*
X74837481Y-51258016D01*
X74698100Y-51351148D01*
X74543228Y-51415298D01*
X74378816Y-51448001D01*
X74211184Y-51448001D01*
X74046772Y-51415298D01*
X73891900Y-51351148D01*
X73752519Y-51258016D01*
X73633985Y-51139482D01*
X73540853Y-51000101D01*
X73476703Y-50845229D01*
X73444000Y-50680817D01*
X73444000Y-50513185D01*
X73476703Y-50348773D01*
X73540853Y-50193901D01*
X73633985Y-50054520D01*
X73752519Y-49935986D01*
X73891900Y-49842854D01*
X74046772Y-49778704D01*
X74211184Y-49746001D01*
X74378816Y-49746001D01*
X74543228Y-49778704D01*
G37*
G36*
X59303228Y-49778704D02*
G01*
X59458100Y-49842854D01*
X59597481Y-49935986D01*
X59716015Y-50054520D01*
X59809147Y-50193901D01*
X59873297Y-50348773D01*
X59906000Y-50513185D01*
X59906000Y-50680817D01*
X59873297Y-50845229D01*
X59809147Y-51000101D01*
X59716015Y-51139482D01*
X59597481Y-51258016D01*
X59458100Y-51351148D01*
X59303228Y-51415298D01*
X59138816Y-51448001D01*
X58971184Y-51448001D01*
X58806772Y-51415298D01*
X58651900Y-51351148D01*
X58512519Y-51258016D01*
X58393985Y-51139482D01*
X58300853Y-51000101D01*
X58236703Y-50845229D01*
X58204000Y-50680817D01*
X58204000Y-50513185D01*
X58236703Y-50348773D01*
X58300853Y-50193901D01*
X58393985Y-50054520D01*
X58512519Y-49935986D01*
X58651900Y-49842854D01*
X58806772Y-49778704D01*
X58971184Y-49746001D01*
X59138816Y-49746001D01*
X59303228Y-49778704D01*
G37*
G36*
X77269229Y-49778704D02*
G01*
X77424101Y-49842854D01*
X77563482Y-49935986D01*
X77682016Y-50054520D01*
X77775148Y-50193901D01*
X77839298Y-50348773D01*
X77872001Y-50513185D01*
X77872001Y-50680817D01*
X77839298Y-50845229D01*
X77775148Y-51000101D01*
X77682016Y-51139482D01*
X77563482Y-51258016D01*
X77424101Y-51351148D01*
X77269229Y-51415298D01*
X77104817Y-51448001D01*
X76937185Y-51448001D01*
X76772773Y-51415298D01*
X76617901Y-51351148D01*
X76478520Y-51258016D01*
X76359986Y-51139482D01*
X76266854Y-51000101D01*
X76202704Y-50845229D01*
X76170001Y-50680817D01*
X76170001Y-50513185D01*
X76202704Y-50348773D01*
X76266854Y-50193901D01*
X76359986Y-50054520D01*
X76478520Y-49935986D01*
X76617901Y-49842854D01*
X76772773Y-49778704D01*
X76937185Y-49746001D01*
X77104817Y-49746001D01*
X77269229Y-49778704D01*
G37*
G36*
X62029229Y-49778704D02*
G01*
X62184101Y-49842854D01*
X62323482Y-49935986D01*
X62442016Y-50054520D01*
X62535148Y-50193901D01*
X62599298Y-50348773D01*
X62632001Y-50513185D01*
X62632001Y-50680817D01*
X62599298Y-50845229D01*
X62535148Y-51000101D01*
X62442016Y-51139482D01*
X62323482Y-51258016D01*
X62184101Y-51351148D01*
X62029229Y-51415298D01*
X61864817Y-51448001D01*
X61697185Y-51448001D01*
X61532773Y-51415298D01*
X61377901Y-51351148D01*
X61238520Y-51258016D01*
X61119986Y-51139482D01*
X61026854Y-51000101D01*
X60962704Y-50845229D01*
X60930001Y-50680817D01*
X60930001Y-50513185D01*
X60962704Y-50348773D01*
X61026854Y-50193901D01*
X61119986Y-50054520D01*
X61238520Y-49935986D01*
X61377901Y-49842854D01*
X61532773Y-49778704D01*
X61697185Y-49746001D01*
X61864817Y-49746001D01*
X62029229Y-49778704D01*
G37*
G36*
X66206822Y-47221313D02*
G01*
X66367241Y-47269976D01*
X66515077Y-47348995D01*
X66572335Y-47395986D01*
X66644659Y-47455341D01*
X66751004Y-47584922D01*
X66751005Y-47584924D01*
X66830024Y-47732758D01*
X66878687Y-47893177D01*
X66891000Y-48018196D01*
X66891000Y-48501803D01*
X66878687Y-48626822D01*
X66830024Y-48787242D01*
X66817245Y-48811149D01*
X66751004Y-48935078D01*
X66644659Y-49064659D01*
X66515078Y-49171004D01*
X66515076Y-49171005D01*
X66367242Y-49250024D01*
X66206823Y-49298687D01*
X66040000Y-49315117D01*
X65873178Y-49298687D01*
X65712759Y-49250024D01*
X65564925Y-49171005D01*
X65564923Y-49171004D01*
X65435342Y-49064659D01*
X65328996Y-48935078D01*
X65262755Y-48811149D01*
X65249976Y-48787242D01*
X65201313Y-48626823D01*
X65189000Y-48501804D01*
X65189000Y-48018197D01*
X65201313Y-47893178D01*
X65249976Y-47732759D01*
X65328995Y-47584923D01*
X65435341Y-47455341D01*
X65507665Y-47395986D01*
X65564922Y-47348996D01*
X65651250Y-47302853D01*
X65712758Y-47269976D01*
X65873177Y-47221313D01*
X66040000Y-47204883D01*
X66206822Y-47221313D01*
G37*
G36*
X70016822Y-47221313D02*
G01*
X70177241Y-47269976D01*
X70325077Y-47348995D01*
X70382335Y-47395986D01*
X70454659Y-47455341D01*
X70561004Y-47584922D01*
X70561005Y-47584924D01*
X70640024Y-47732758D01*
X70688687Y-47893177D01*
X70701000Y-48018196D01*
X70701000Y-48501803D01*
X70688687Y-48626822D01*
X70640024Y-48787242D01*
X70627245Y-48811149D01*
X70561004Y-48935078D01*
X70454659Y-49064659D01*
X70325078Y-49171004D01*
X70325076Y-49171005D01*
X70177242Y-49250024D01*
X70016823Y-49298687D01*
X69850000Y-49315117D01*
X69683178Y-49298687D01*
X69522759Y-49250024D01*
X69374925Y-49171005D01*
X69374923Y-49171004D01*
X69245342Y-49064659D01*
X69138996Y-48935078D01*
X69072755Y-48811149D01*
X69059976Y-48787242D01*
X69011313Y-48626823D01*
X68999000Y-48501804D01*
X68999000Y-48018197D01*
X69011313Y-47893178D01*
X69059976Y-47732759D01*
X69138995Y-47584923D01*
X69245341Y-47455341D01*
X69317665Y-47395986D01*
X69374922Y-47348996D01*
X69461250Y-47302853D01*
X69522758Y-47269976D01*
X69683177Y-47221313D01*
X69850000Y-47204883D01*
X70016822Y-47221313D01*
G37*
G36*
X77269229Y-47238704D02*
G01*
X77424101Y-47302854D01*
X77563482Y-47395986D01*
X77682016Y-47514520D01*
X77775148Y-47653901D01*
X77839298Y-47808773D01*
X77872001Y-47973185D01*
X77872001Y-48140817D01*
X77839298Y-48305229D01*
X77775148Y-48460101D01*
X77682016Y-48599482D01*
X77563482Y-48718016D01*
X77424101Y-48811148D01*
X77269229Y-48875298D01*
X77104817Y-48908001D01*
X76937185Y-48908001D01*
X76772773Y-48875298D01*
X76617901Y-48811148D01*
X76478520Y-48718016D01*
X76359986Y-48599482D01*
X76266854Y-48460101D01*
X76202704Y-48305229D01*
X76170001Y-48140817D01*
X76170001Y-47973185D01*
X76202704Y-47808773D01*
X76266854Y-47653901D01*
X76359986Y-47514520D01*
X76478520Y-47395986D01*
X76617901Y-47302854D01*
X76772773Y-47238704D01*
X76937185Y-47206001D01*
X77104817Y-47206001D01*
X77269229Y-47238704D01*
G37*
G36*
X59303228Y-47238704D02*
G01*
X59458100Y-47302854D01*
X59597481Y-47395986D01*
X59716015Y-47514520D01*
X59809147Y-47653901D01*
X59873297Y-47808773D01*
X59906000Y-47973185D01*
X59906000Y-48140817D01*
X59873297Y-48305229D01*
X59809147Y-48460101D01*
X59716015Y-48599482D01*
X59597481Y-48718016D01*
X59458100Y-48811148D01*
X59303228Y-48875298D01*
X59138816Y-48908001D01*
X58971184Y-48908001D01*
X58806772Y-48875298D01*
X58651900Y-48811148D01*
X58512519Y-48718016D01*
X58393985Y-48599482D01*
X58300853Y-48460101D01*
X58236703Y-48305229D01*
X58204000Y-48140817D01*
X58204000Y-47973185D01*
X58236703Y-47808773D01*
X58300853Y-47653901D01*
X58393985Y-47514520D01*
X58512519Y-47395986D01*
X58651900Y-47302854D01*
X58806772Y-47238704D01*
X58971184Y-47206001D01*
X59138816Y-47206001D01*
X59303228Y-47238704D01*
G37*
G36*
X62029229Y-47238704D02*
G01*
X62184101Y-47302854D01*
X62323482Y-47395986D01*
X62442016Y-47514520D01*
X62535148Y-47653901D01*
X62599298Y-47808773D01*
X62632001Y-47973185D01*
X62632001Y-48140817D01*
X62599298Y-48305229D01*
X62535148Y-48460101D01*
X62442016Y-48599482D01*
X62323482Y-48718016D01*
X62184101Y-48811148D01*
X62029229Y-48875298D01*
X61864817Y-48908001D01*
X61697185Y-48908001D01*
X61532773Y-48875298D01*
X61377901Y-48811148D01*
X61238520Y-48718016D01*
X61119986Y-48599482D01*
X61026854Y-48460101D01*
X60962704Y-48305229D01*
X60930001Y-48140817D01*
X60930001Y-47973185D01*
X60962704Y-47808773D01*
X61026854Y-47653901D01*
X61119986Y-47514520D01*
X61238520Y-47395986D01*
X61377901Y-47302854D01*
X61532773Y-47238704D01*
X61697185Y-47206001D01*
X61864817Y-47206001D01*
X62029229Y-47238704D01*
G37*
G36*
X74543228Y-47238704D02*
G01*
X74698100Y-47302854D01*
X74837481Y-47395986D01*
X74956015Y-47514520D01*
X75049147Y-47653901D01*
X75113297Y-47808773D01*
X75146000Y-47973185D01*
X75146000Y-48140817D01*
X75113297Y-48305229D01*
X75049147Y-48460101D01*
X74956015Y-48599482D01*
X74837481Y-48718016D01*
X74698100Y-48811148D01*
X74543228Y-48875298D01*
X74378816Y-48908001D01*
X74211184Y-48908001D01*
X74046772Y-48875298D01*
X73891900Y-48811148D01*
X73752519Y-48718016D01*
X73633985Y-48599482D01*
X73540853Y-48460101D01*
X73476703Y-48305229D01*
X73444000Y-48140817D01*
X73444000Y-47973185D01*
X73476703Y-47808773D01*
X73540853Y-47653901D01*
X73633985Y-47514520D01*
X73752519Y-47395986D01*
X73891900Y-47302854D01*
X74046772Y-47238704D01*
X74211184Y-47206001D01*
X74378816Y-47206001D01*
X74543228Y-47238704D01*
G37*
G36*
X59303228Y-44698704D02*
G01*
X59458100Y-44762854D01*
X59597481Y-44855986D01*
X59716015Y-44974520D01*
X59809147Y-45113901D01*
X59873297Y-45268773D01*
X59906000Y-45433185D01*
X59906000Y-45600817D01*
X59873297Y-45765229D01*
X59809147Y-45920101D01*
X59716015Y-46059482D01*
X59597481Y-46178016D01*
X59458100Y-46271148D01*
X59303228Y-46335298D01*
X59138816Y-46368001D01*
X58971184Y-46368001D01*
X58806772Y-46335298D01*
X58651900Y-46271148D01*
X58512519Y-46178016D01*
X58393985Y-46059482D01*
X58300853Y-45920101D01*
X58236703Y-45765229D01*
X58204000Y-45600817D01*
X58204000Y-45433185D01*
X58236703Y-45268773D01*
X58300853Y-45113901D01*
X58393985Y-44974520D01*
X58512519Y-44855986D01*
X58651900Y-44762854D01*
X58806772Y-44698704D01*
X58971184Y-44666001D01*
X59138816Y-44666001D01*
X59303228Y-44698704D01*
G37*
G36*
X62029229Y-44698704D02*
G01*
X62184101Y-44762854D01*
X62323482Y-44855986D01*
X62442016Y-44974520D01*
X62535148Y-45113901D01*
X62599298Y-45268773D01*
X62632001Y-45433185D01*
X62632001Y-45600817D01*
X62599298Y-45765229D01*
X62535148Y-45920101D01*
X62442016Y-46059482D01*
X62323482Y-46178016D01*
X62184101Y-46271148D01*
X62029229Y-46335298D01*
X61864817Y-46368001D01*
X61697185Y-46368001D01*
X61532773Y-46335298D01*
X61377901Y-46271148D01*
X61238520Y-46178016D01*
X61119986Y-46059482D01*
X61026854Y-45920101D01*
X60962704Y-45765229D01*
X60930001Y-45600817D01*
X60930001Y-45433185D01*
X60962704Y-45268773D01*
X61026854Y-45113901D01*
X61119986Y-44974520D01*
X61238520Y-44855986D01*
X61377901Y-44762854D01*
X61532773Y-44698704D01*
X61697185Y-44666001D01*
X61864817Y-44666001D01*
X62029229Y-44698704D01*
G37*
G36*
X77269229Y-44698704D02*
G01*
X77424101Y-44762854D01*
X77563482Y-44855986D01*
X77682016Y-44974520D01*
X77775148Y-45113901D01*
X77839298Y-45268773D01*
X77872001Y-45433185D01*
X77872001Y-45600817D01*
X77839298Y-45765229D01*
X77775148Y-45920101D01*
X77682016Y-46059482D01*
X77563482Y-46178016D01*
X77424101Y-46271148D01*
X77269229Y-46335298D01*
X77104817Y-46368001D01*
X76937185Y-46368001D01*
X76772773Y-46335298D01*
X76617901Y-46271148D01*
X76478520Y-46178016D01*
X76359986Y-46059482D01*
X76266854Y-45920101D01*
X76202704Y-45765229D01*
X76170001Y-45600817D01*
X76170001Y-45433185D01*
X76202704Y-45268773D01*
X76266854Y-45113901D01*
X76359986Y-44974520D01*
X76478520Y-44855986D01*
X76617901Y-44762854D01*
X76772773Y-44698704D01*
X76937185Y-44666001D01*
X77104817Y-44666001D01*
X77269229Y-44698704D01*
G37*
G36*
X74543228Y-44698704D02*
G01*
X74698100Y-44762854D01*
X74837481Y-44855986D01*
X74956015Y-44974520D01*
X75049147Y-45113901D01*
X75113297Y-45268773D01*
X75146000Y-45433185D01*
X75146000Y-45600817D01*
X75113297Y-45765229D01*
X75049147Y-45920101D01*
X74956015Y-46059482D01*
X74837481Y-46178016D01*
X74698100Y-46271148D01*
X74543228Y-46335298D01*
X74378816Y-46368001D01*
X74211184Y-46368001D01*
X74046772Y-46335298D01*
X73891900Y-46271148D01*
X73752519Y-46178016D01*
X73633985Y-46059482D01*
X73540853Y-45920101D01*
X73476703Y-45765229D01*
X73444000Y-45600817D01*
X73444000Y-45433185D01*
X73476703Y-45268773D01*
X73540853Y-45113901D01*
X73633985Y-44974520D01*
X73752519Y-44855986D01*
X73891900Y-44762854D01*
X74046772Y-44698704D01*
X74211184Y-44666001D01*
X74378816Y-44666001D01*
X74543228Y-44698704D01*
G37*
G36*
X56128228Y-43631703D02*
G01*
X56283100Y-43695853D01*
X56422481Y-43788985D01*
X56541015Y-43907519D01*
X56634147Y-44046900D01*
X56698297Y-44201772D01*
X56731000Y-44366184D01*
X56731000Y-44533816D01*
X56698297Y-44698228D01*
X56634147Y-44853100D01*
X56541015Y-44992481D01*
X56422481Y-45111015D01*
X56283100Y-45204147D01*
X56128228Y-45268297D01*
X55963816Y-45301000D01*
X55796184Y-45301000D01*
X55631772Y-45268297D01*
X55476900Y-45204147D01*
X55337519Y-45111015D01*
X55218985Y-44992481D01*
X55125853Y-44853100D01*
X55061703Y-44698228D01*
X55029000Y-44533816D01*
X55029000Y-44366184D01*
X55061703Y-44201772D01*
X55125853Y-44046900D01*
X55218985Y-43907519D01*
X55337519Y-43788985D01*
X55476900Y-43695853D01*
X55631772Y-43631703D01*
X55796184Y-43599000D01*
X55963816Y-43599000D01*
X56128228Y-43631703D01*
G37*
G36*
X74543228Y-42158704D02*
G01*
X74698100Y-42222854D01*
X74837481Y-42315986D01*
X74956015Y-42434520D01*
X75049147Y-42573901D01*
X75113297Y-42728773D01*
X75146000Y-42893185D01*
X75146000Y-43060817D01*
X75113297Y-43225229D01*
X75049147Y-43380101D01*
X74956015Y-43519482D01*
X74837481Y-43638016D01*
X74698100Y-43731148D01*
X74543228Y-43795298D01*
X74378816Y-43828001D01*
X74211184Y-43828001D01*
X74046772Y-43795298D01*
X73891900Y-43731148D01*
X73752519Y-43638016D01*
X73633985Y-43519482D01*
X73540853Y-43380101D01*
X73476703Y-43225229D01*
X73444000Y-43060817D01*
X73444000Y-42893185D01*
X73476703Y-42728773D01*
X73540853Y-42573901D01*
X73633985Y-42434520D01*
X73752519Y-42315986D01*
X73891900Y-42222854D01*
X74046772Y-42158704D01*
X74211184Y-42126001D01*
X74378816Y-42126001D01*
X74543228Y-42158704D01*
G37*
G36*
X77269229Y-42158704D02*
G01*
X77424101Y-42222854D01*
X77563482Y-42315986D01*
X77682016Y-42434520D01*
X77775148Y-42573901D01*
X77839298Y-42728773D01*
X77872001Y-42893185D01*
X77872001Y-43060817D01*
X77839298Y-43225229D01*
X77775148Y-43380101D01*
X77682016Y-43519482D01*
X77563482Y-43638016D01*
X77424101Y-43731148D01*
X77269229Y-43795298D01*
X77104817Y-43828001D01*
X76937185Y-43828001D01*
X76772773Y-43795298D01*
X76617901Y-43731148D01*
X76478520Y-43638016D01*
X76359986Y-43519482D01*
X76266854Y-43380101D01*
X76202704Y-43225229D01*
X76170001Y-43060817D01*
X76170001Y-42893185D01*
X76202704Y-42728773D01*
X76266854Y-42573901D01*
X76359986Y-42434520D01*
X76478520Y-42315986D01*
X76617901Y-42222854D01*
X76772773Y-42158704D01*
X76937185Y-42126001D01*
X77104817Y-42126001D01*
X77269229Y-42158704D01*
G37*
G36*
X59303228Y-42158704D02*
G01*
X59458100Y-42222854D01*
X59597481Y-42315986D01*
X59716015Y-42434520D01*
X59809147Y-42573901D01*
X59873297Y-42728773D01*
X59906000Y-42893185D01*
X59906000Y-43060817D01*
X59873297Y-43225229D01*
X59809147Y-43380101D01*
X59716015Y-43519482D01*
X59597481Y-43638016D01*
X59458100Y-43731148D01*
X59303228Y-43795298D01*
X59138816Y-43828001D01*
X58971184Y-43828001D01*
X58806772Y-43795298D01*
X58651900Y-43731148D01*
X58512519Y-43638016D01*
X58393985Y-43519482D01*
X58300853Y-43380101D01*
X58236703Y-43225229D01*
X58204000Y-43060817D01*
X58204000Y-42893185D01*
X58236703Y-42728773D01*
X58300853Y-42573901D01*
X58393985Y-42434520D01*
X58512519Y-42315986D01*
X58651900Y-42222854D01*
X58806772Y-42158704D01*
X58971184Y-42126001D01*
X59138816Y-42126001D01*
X59303228Y-42158704D01*
G37*
G36*
X62029229Y-42158704D02*
G01*
X62184101Y-42222854D01*
X62323482Y-42315986D01*
X62442016Y-42434520D01*
X62535148Y-42573901D01*
X62599298Y-42728773D01*
X62632001Y-42893185D01*
X62632001Y-43060817D01*
X62599298Y-43225229D01*
X62535148Y-43380101D01*
X62442016Y-43519482D01*
X62323482Y-43638016D01*
X62184101Y-43731148D01*
X62029229Y-43795298D01*
X61864817Y-43828001D01*
X61697185Y-43828001D01*
X61532773Y-43795298D01*
X61377901Y-43731148D01*
X61238520Y-43638016D01*
X61119986Y-43519482D01*
X61026854Y-43380101D01*
X60962704Y-43225229D01*
X60930001Y-43060817D01*
X60930001Y-42893185D01*
X60962704Y-42728773D01*
X61026854Y-42573901D01*
X61119986Y-42434520D01*
X61238520Y-42315986D01*
X61377901Y-42222854D01*
X61532773Y-42158704D01*
X61697185Y-42126001D01*
X61864817Y-42126001D01*
X62029229Y-42158704D01*
G37*
G36*
X67768786Y-41382746D02*
G01*
X67799461Y-41392051D01*
X67827729Y-41407161D01*
X67852506Y-41427494D01*
X67872839Y-41452271D01*
X67887949Y-41480539D01*
X67897254Y-41511214D01*
X67901000Y-41549251D01*
X67901000Y-43560749D01*
X67897254Y-43598786D01*
X67887949Y-43629461D01*
X67872839Y-43657729D01*
X67852506Y-43682506D01*
X67827729Y-43702839D01*
X67799461Y-43717949D01*
X67768786Y-43727254D01*
X67730749Y-43731000D01*
X65619251Y-43731000D01*
X65581214Y-43727254D01*
X65550539Y-43717949D01*
X65522271Y-43702839D01*
X65497494Y-43682506D01*
X65477161Y-43657729D01*
X65462051Y-43629461D01*
X65452746Y-43598786D01*
X65449000Y-43560749D01*
X65449000Y-41549251D01*
X65452746Y-41511214D01*
X65462051Y-41480539D01*
X65477161Y-41452271D01*
X65497494Y-41427494D01*
X65522271Y-41407161D01*
X65550539Y-41392051D01*
X65581214Y-41382746D01*
X65619251Y-41379000D01*
X67730749Y-41379000D01*
X67768786Y-41382746D01*
G37*
G36*
X74543228Y-39618704D02*
G01*
X74698100Y-39682854D01*
X74837481Y-39775986D01*
X74956015Y-39894520D01*
X75049147Y-40033901D01*
X75113297Y-40188773D01*
X75146000Y-40353185D01*
X75146000Y-40520817D01*
X75113297Y-40685229D01*
X75049147Y-40840101D01*
X74956015Y-40979482D01*
X74837481Y-41098016D01*
X74698100Y-41191148D01*
X74543228Y-41255298D01*
X74378816Y-41288001D01*
X74211184Y-41288001D01*
X74046772Y-41255298D01*
X73891900Y-41191148D01*
X73752519Y-41098016D01*
X73633985Y-40979482D01*
X73540853Y-40840101D01*
X73476703Y-40685229D01*
X73444000Y-40520817D01*
X73444000Y-40353185D01*
X73476703Y-40188773D01*
X73540853Y-40033901D01*
X73633985Y-39894520D01*
X73752519Y-39775986D01*
X73891900Y-39682854D01*
X74046772Y-39618704D01*
X74211184Y-39586001D01*
X74378816Y-39586001D01*
X74543228Y-39618704D01*
G37*
G36*
X77269229Y-39618704D02*
G01*
X77424101Y-39682854D01*
X77563482Y-39775986D01*
X77682016Y-39894520D01*
X77775148Y-40033901D01*
X77839298Y-40188773D01*
X77872001Y-40353185D01*
X77872001Y-40520817D01*
X77839298Y-40685229D01*
X77775148Y-40840101D01*
X77682016Y-40979482D01*
X77563482Y-41098016D01*
X77424101Y-41191148D01*
X77269229Y-41255298D01*
X77104817Y-41288001D01*
X76937185Y-41288001D01*
X76772773Y-41255298D01*
X76617901Y-41191148D01*
X76478520Y-41098016D01*
X76359986Y-40979482D01*
X76266854Y-40840101D01*
X76202704Y-40685229D01*
X76170001Y-40520817D01*
X76170001Y-40353185D01*
X76202704Y-40188773D01*
X76266854Y-40033901D01*
X76359986Y-39894520D01*
X76478520Y-39775986D01*
X76617901Y-39682854D01*
X76772773Y-39618704D01*
X76937185Y-39586001D01*
X77104817Y-39586001D01*
X77269229Y-39618704D01*
G37*
G36*
X62029229Y-39618704D02*
G01*
X62184101Y-39682854D01*
X62323482Y-39775986D01*
X62442016Y-39894520D01*
X62535148Y-40033901D01*
X62599298Y-40188773D01*
X62632001Y-40353185D01*
X62632001Y-40520817D01*
X62599298Y-40685229D01*
X62535148Y-40840101D01*
X62442016Y-40979482D01*
X62323482Y-41098016D01*
X62184101Y-41191148D01*
X62029229Y-41255298D01*
X61864817Y-41288001D01*
X61697185Y-41288001D01*
X61532773Y-41255298D01*
X61377901Y-41191148D01*
X61238520Y-41098016D01*
X61119986Y-40979482D01*
X61026854Y-40840101D01*
X60962704Y-40685229D01*
X60930001Y-40520817D01*
X60930001Y-40353185D01*
X60962704Y-40188773D01*
X61026854Y-40033901D01*
X61119986Y-39894520D01*
X61238520Y-39775986D01*
X61377901Y-39682854D01*
X61532773Y-39618704D01*
X61697185Y-39586001D01*
X61864817Y-39586001D01*
X62029229Y-39618704D01*
G37*
G36*
X59303228Y-39618704D02*
G01*
X59458100Y-39682854D01*
X59597481Y-39775986D01*
X59716015Y-39894520D01*
X59809147Y-40033901D01*
X59873297Y-40188773D01*
X59906000Y-40353185D01*
X59906000Y-40520817D01*
X59873297Y-40685229D01*
X59809147Y-40840101D01*
X59716015Y-40979482D01*
X59597481Y-41098016D01*
X59458100Y-41191148D01*
X59303228Y-41255298D01*
X59138816Y-41288001D01*
X58971184Y-41288001D01*
X58806772Y-41255298D01*
X58651900Y-41191148D01*
X58512519Y-41098016D01*
X58393985Y-40979482D01*
X58300853Y-40840101D01*
X58236703Y-40685229D01*
X58204000Y-40520817D01*
X58204000Y-40353185D01*
X58236703Y-40188773D01*
X58300853Y-40033901D01*
X58393985Y-39894520D01*
X58512519Y-39775986D01*
X58651900Y-39682854D01*
X58806772Y-39618704D01*
X58971184Y-39586001D01*
X59138816Y-39586001D01*
X59303228Y-39618704D01*
G37*
G36*
X62029229Y-37078704D02*
G01*
X62184101Y-37142854D01*
X62323482Y-37235986D01*
X62442016Y-37354520D01*
X62535148Y-37493901D01*
X62599298Y-37648773D01*
X62632001Y-37813185D01*
X62632001Y-37980817D01*
X62599298Y-38145229D01*
X62535148Y-38300101D01*
X62442016Y-38439482D01*
X62323482Y-38558016D01*
X62184101Y-38651148D01*
X62029229Y-38715298D01*
X61864817Y-38748001D01*
X61697185Y-38748001D01*
X61532773Y-38715298D01*
X61377901Y-38651148D01*
X61238520Y-38558016D01*
X61119986Y-38439482D01*
X61026854Y-38300101D01*
X60962704Y-38145229D01*
X60930001Y-37980817D01*
X60930001Y-37813185D01*
X60962704Y-37648773D01*
X61026854Y-37493901D01*
X61119986Y-37354520D01*
X61238520Y-37235986D01*
X61377901Y-37142854D01*
X61532773Y-37078704D01*
X61697185Y-37046001D01*
X61864817Y-37046001D01*
X62029229Y-37078704D01*
G37*
G36*
X59303228Y-37078704D02*
G01*
X59458100Y-37142854D01*
X59597481Y-37235986D01*
X59716015Y-37354520D01*
X59809147Y-37493901D01*
X59873297Y-37648773D01*
X59906000Y-37813185D01*
X59906000Y-37980817D01*
X59873297Y-38145229D01*
X59809147Y-38300101D01*
X59716015Y-38439482D01*
X59597481Y-38558016D01*
X59458100Y-38651148D01*
X59303228Y-38715298D01*
X59138816Y-38748001D01*
X58971184Y-38748001D01*
X58806772Y-38715298D01*
X58651900Y-38651148D01*
X58512519Y-38558016D01*
X58393985Y-38439482D01*
X58300853Y-38300101D01*
X58236703Y-38145229D01*
X58204000Y-37980817D01*
X58204000Y-37813185D01*
X58236703Y-37648773D01*
X58300853Y-37493901D01*
X58393985Y-37354520D01*
X58512519Y-37235986D01*
X58651900Y-37142854D01*
X58806772Y-37078704D01*
X58971184Y-37046001D01*
X59138816Y-37046001D01*
X59303228Y-37078704D01*
G37*
G36*
X77269229Y-37078704D02*
G01*
X77424101Y-37142854D01*
X77563482Y-37235986D01*
X77682016Y-37354520D01*
X77775148Y-37493901D01*
X77839298Y-37648773D01*
X77872001Y-37813185D01*
X77872001Y-37980817D01*
X77839298Y-38145229D01*
X77775148Y-38300101D01*
X77682016Y-38439482D01*
X77563482Y-38558016D01*
X77424101Y-38651148D01*
X77269229Y-38715298D01*
X77104817Y-38748001D01*
X76937185Y-38748001D01*
X76772773Y-38715298D01*
X76617901Y-38651148D01*
X76478520Y-38558016D01*
X76359986Y-38439482D01*
X76266854Y-38300101D01*
X76202704Y-38145229D01*
X76170001Y-37980817D01*
X76170001Y-37813185D01*
X76202704Y-37648773D01*
X76266854Y-37493901D01*
X76359986Y-37354520D01*
X76478520Y-37235986D01*
X76617901Y-37142854D01*
X76772773Y-37078704D01*
X76937185Y-37046001D01*
X77104817Y-37046001D01*
X77269229Y-37078704D01*
G37*
G36*
X74543228Y-37078704D02*
G01*
X74698100Y-37142854D01*
X74837481Y-37235986D01*
X74956015Y-37354520D01*
X75049147Y-37493901D01*
X75113297Y-37648773D01*
X75146000Y-37813185D01*
X75146000Y-37980817D01*
X75113297Y-38145229D01*
X75049147Y-38300101D01*
X74956015Y-38439482D01*
X74837481Y-38558016D01*
X74698100Y-38651148D01*
X74543228Y-38715298D01*
X74378816Y-38748001D01*
X74211184Y-38748001D01*
X74046772Y-38715298D01*
X73891900Y-38651148D01*
X73752519Y-38558016D01*
X73633985Y-38439482D01*
X73540853Y-38300101D01*
X73476703Y-38145229D01*
X73444000Y-37980817D01*
X73444000Y-37813185D01*
X73476703Y-37648773D01*
X73540853Y-37493901D01*
X73633985Y-37354520D01*
X73752519Y-37235986D01*
X73891900Y-37142854D01*
X74046772Y-37078704D01*
X74211184Y-37046001D01*
X74378816Y-37046001D01*
X74543228Y-37078704D01*
G37*
G36*
X67768786Y-36282746D02*
G01*
X67799461Y-36292051D01*
X67827729Y-36307161D01*
X67852506Y-36327494D01*
X67872839Y-36352271D01*
X67887949Y-36380539D01*
X67897254Y-36411214D01*
X67901000Y-36449251D01*
X67901000Y-38460749D01*
X67897254Y-38498786D01*
X67887949Y-38529461D01*
X67872839Y-38557729D01*
X67852506Y-38582506D01*
X67827729Y-38602839D01*
X67799461Y-38617949D01*
X67768786Y-38627254D01*
X67730749Y-38631000D01*
X65619251Y-38631000D01*
X65581214Y-38627254D01*
X65550539Y-38617949D01*
X65522271Y-38602839D01*
X65497494Y-38582506D01*
X65477161Y-38557729D01*
X65462051Y-38529461D01*
X65452746Y-38498786D01*
X65449000Y-38460749D01*
X65449000Y-36449251D01*
X65452746Y-36411214D01*
X65462051Y-36380539D01*
X65477161Y-36352271D01*
X65497494Y-36327494D01*
X65522271Y-36307161D01*
X65550539Y-36292051D01*
X65581214Y-36282746D01*
X65619251Y-36279000D01*
X67730749Y-36279000D01*
X67768786Y-36282746D01*
G37*
G36*
X56128228Y-36011703D02*
G01*
X56283100Y-36075853D01*
X56422481Y-36168985D01*
X56541015Y-36287519D01*
X56634147Y-36426900D01*
X56698297Y-36581772D01*
X56731000Y-36746184D01*
X56731000Y-36913816D01*
X56698297Y-37078228D01*
X56634147Y-37233100D01*
X56541015Y-37372481D01*
X56422481Y-37491015D01*
X56283100Y-37584147D01*
X56128228Y-37648297D01*
X55963816Y-37681000D01*
X55796184Y-37681000D01*
X55631772Y-37648297D01*
X55476900Y-37584147D01*
X55337519Y-37491015D01*
X55218985Y-37372481D01*
X55125853Y-37233100D01*
X55061703Y-37078228D01*
X55029000Y-36913816D01*
X55029000Y-36746184D01*
X55061703Y-36581772D01*
X55125853Y-36426900D01*
X55218985Y-36287519D01*
X55337519Y-36168985D01*
X55476900Y-36075853D01*
X55631772Y-36011703D01*
X55796184Y-35979000D01*
X55963816Y-35979000D01*
X56128228Y-36011703D01*
G37*
G36*
X77269229Y-34538704D02*
G01*
X77424101Y-34602854D01*
X77563482Y-34695986D01*
X77682016Y-34814520D01*
X77775148Y-34953901D01*
X77839298Y-35108773D01*
X77872001Y-35273185D01*
X77872001Y-35440817D01*
X77839298Y-35605229D01*
X77775148Y-35760101D01*
X77682016Y-35899482D01*
X77563482Y-36018016D01*
X77424101Y-36111148D01*
X77269229Y-36175298D01*
X77104817Y-36208001D01*
X76937185Y-36208001D01*
X76772773Y-36175298D01*
X76617901Y-36111148D01*
X76478520Y-36018016D01*
X76359986Y-35899482D01*
X76266854Y-35760101D01*
X76202704Y-35605229D01*
X76170001Y-35440817D01*
X76170001Y-35273185D01*
X76202704Y-35108773D01*
X76266854Y-34953901D01*
X76359986Y-34814520D01*
X76478520Y-34695986D01*
X76617901Y-34602854D01*
X76772773Y-34538704D01*
X76937185Y-34506001D01*
X77104817Y-34506001D01*
X77269229Y-34538704D01*
G37*
G36*
X74543228Y-34538704D02*
G01*
X74698100Y-34602854D01*
X74837481Y-34695986D01*
X74956015Y-34814520D01*
X75049147Y-34953901D01*
X75113297Y-35108773D01*
X75146000Y-35273185D01*
X75146000Y-35440817D01*
X75113297Y-35605229D01*
X75049147Y-35760101D01*
X74956015Y-35899482D01*
X74837481Y-36018016D01*
X74698100Y-36111148D01*
X74543228Y-36175298D01*
X74378816Y-36208001D01*
X74211184Y-36208001D01*
X74046772Y-36175298D01*
X73891900Y-36111148D01*
X73752519Y-36018016D01*
X73633985Y-35899482D01*
X73540853Y-35760101D01*
X73476703Y-35605229D01*
X73444000Y-35440817D01*
X73444000Y-35273185D01*
X73476703Y-35108773D01*
X73540853Y-34953901D01*
X73633985Y-34814520D01*
X73752519Y-34695986D01*
X73891900Y-34602854D01*
X74046772Y-34538704D01*
X74211184Y-34506001D01*
X74378816Y-34506001D01*
X74543228Y-34538704D01*
G37*
G36*
X59303228Y-34538704D02*
G01*
X59458100Y-34602854D01*
X59597481Y-34695986D01*
X59716015Y-34814520D01*
X59809147Y-34953901D01*
X59873297Y-35108773D01*
X59906000Y-35273185D01*
X59906000Y-35440817D01*
X59873297Y-35605229D01*
X59809147Y-35760101D01*
X59716015Y-35899482D01*
X59597481Y-36018016D01*
X59458100Y-36111148D01*
X59303228Y-36175298D01*
X59138816Y-36208001D01*
X58971184Y-36208001D01*
X58806772Y-36175298D01*
X58651900Y-36111148D01*
X58512519Y-36018016D01*
X58393985Y-35899482D01*
X58300853Y-35760101D01*
X58236703Y-35605229D01*
X58204000Y-35440817D01*
X58204000Y-35273185D01*
X58236703Y-35108773D01*
X58300853Y-34953901D01*
X58393985Y-34814520D01*
X58512519Y-34695986D01*
X58651900Y-34602854D01*
X58806772Y-34538704D01*
X58971184Y-34506001D01*
X59138816Y-34506001D01*
X59303228Y-34538704D01*
G37*
G36*
X62029229Y-34538704D02*
G01*
X62184101Y-34602854D01*
X62323482Y-34695986D01*
X62442016Y-34814520D01*
X62535148Y-34953901D01*
X62599298Y-35108773D01*
X62632001Y-35273185D01*
X62632001Y-35440817D01*
X62599298Y-35605229D01*
X62535148Y-35760101D01*
X62442016Y-35899482D01*
X62323482Y-36018016D01*
X62184101Y-36111148D01*
X62029229Y-36175298D01*
X61864817Y-36208001D01*
X61697185Y-36208001D01*
X61532773Y-36175298D01*
X61377901Y-36111148D01*
X61238520Y-36018016D01*
X61119986Y-35899482D01*
X61026854Y-35760101D01*
X60962704Y-35605229D01*
X60930001Y-35440817D01*
X60930001Y-35273185D01*
X60962704Y-35108773D01*
X61026854Y-34953901D01*
X61119986Y-34814520D01*
X61238520Y-34695986D01*
X61377901Y-34602854D01*
X61532773Y-34538704D01*
X61697185Y-34506001D01*
X61864817Y-34506001D01*
X62029229Y-34538704D01*
G37*
G36*
X65993674Y-33423465D02*
G01*
X66031367Y-33434899D01*
X66066103Y-33453466D01*
X66096548Y-33478452D01*
X66121534Y-33508897D01*
X66140101Y-33543633D01*
X66151535Y-33581326D01*
X66156000Y-33626661D01*
X66156000Y-34463339D01*
X66151535Y-34508674D01*
X66140101Y-34546367D01*
X66121534Y-34581103D01*
X66096548Y-34611548D01*
X66066103Y-34636534D01*
X66031367Y-34655101D01*
X65993674Y-34666535D01*
X65948339Y-34671000D01*
X64861661Y-34671000D01*
X64816326Y-34666535D01*
X64778633Y-34655101D01*
X64743897Y-34636534D01*
X64713452Y-34611548D01*
X64688466Y-34581103D01*
X64669899Y-34546367D01*
X64658465Y-34508674D01*
X64654000Y-34463339D01*
X64654000Y-33626661D01*
X64658465Y-33581326D01*
X64669899Y-33543633D01*
X64688466Y-33508897D01*
X64713452Y-33478452D01*
X64743897Y-33453466D01*
X64778633Y-33434899D01*
X64816326Y-33423465D01*
X64861661Y-33419000D01*
X65948339Y-33419000D01*
X65993674Y-33423465D01*
G37*
G36*
X70438674Y-33423465D02*
G01*
X70476367Y-33434899D01*
X70511103Y-33453466D01*
X70541548Y-33478452D01*
X70566534Y-33508897D01*
X70585101Y-33543633D01*
X70596535Y-33581326D01*
X70601000Y-33626661D01*
X70601000Y-34463339D01*
X70596535Y-34508674D01*
X70585101Y-34546367D01*
X70566534Y-34581103D01*
X70541548Y-34611548D01*
X70511103Y-34636534D01*
X70476367Y-34655101D01*
X70438674Y-34666535D01*
X70393339Y-34671000D01*
X69306661Y-34671000D01*
X69261326Y-34666535D01*
X69223633Y-34655101D01*
X69188897Y-34636534D01*
X69158452Y-34611548D01*
X69133466Y-34581103D01*
X69114899Y-34546367D01*
X69103465Y-34508674D01*
X69099000Y-34463339D01*
X69099000Y-33626661D01*
X69103465Y-33581326D01*
X69114899Y-33543633D01*
X69133466Y-33508897D01*
X69158452Y-33478452D01*
X69188897Y-33453466D01*
X69223633Y-33434899D01*
X69261326Y-33423465D01*
X69306661Y-33419000D01*
X70393339Y-33419000D01*
X70438674Y-33423465D01*
G37*
G36*
X59303228Y-31998704D02*
G01*
X59458100Y-32062854D01*
X59597481Y-32155986D01*
X59716015Y-32274520D01*
X59809147Y-32413901D01*
X59873297Y-32568773D01*
X59906000Y-32733185D01*
X59906000Y-32900817D01*
X59873297Y-33065229D01*
X59809147Y-33220101D01*
X59716015Y-33359482D01*
X59597481Y-33478016D01*
X59458100Y-33571148D01*
X59303228Y-33635298D01*
X59138816Y-33668001D01*
X58971184Y-33668001D01*
X58806772Y-33635298D01*
X58651900Y-33571148D01*
X58512519Y-33478016D01*
X58393985Y-33359482D01*
X58300853Y-33220101D01*
X58236703Y-33065229D01*
X58204000Y-32900817D01*
X58204000Y-32733185D01*
X58236703Y-32568773D01*
X58300853Y-32413901D01*
X58393985Y-32274520D01*
X58512519Y-32155986D01*
X58651900Y-32062854D01*
X58806772Y-31998704D01*
X58971184Y-31966001D01*
X59138816Y-31966001D01*
X59303228Y-31998704D01*
G37*
G36*
X77269229Y-31998704D02*
G01*
X77424101Y-32062854D01*
X77563482Y-32155986D01*
X77682016Y-32274520D01*
X77775148Y-32413901D01*
X77839298Y-32568773D01*
X77872001Y-32733185D01*
X77872001Y-32900817D01*
X77839298Y-33065229D01*
X77775148Y-33220101D01*
X77682016Y-33359482D01*
X77563482Y-33478016D01*
X77424101Y-33571148D01*
X77269229Y-33635298D01*
X77104817Y-33668001D01*
X76937185Y-33668001D01*
X76772773Y-33635298D01*
X76617901Y-33571148D01*
X76478520Y-33478016D01*
X76359986Y-33359482D01*
X76266854Y-33220101D01*
X76202704Y-33065229D01*
X76170001Y-32900817D01*
X76170001Y-32733185D01*
X76202704Y-32568773D01*
X76266854Y-32413901D01*
X76359986Y-32274520D01*
X76478520Y-32155986D01*
X76617901Y-32062854D01*
X76772773Y-31998704D01*
X76937185Y-31966001D01*
X77104817Y-31966001D01*
X77269229Y-31998704D01*
G37*
G36*
X62029229Y-31998704D02*
G01*
X62184101Y-32062854D01*
X62323482Y-32155986D01*
X62442016Y-32274520D01*
X62535148Y-32413901D01*
X62599298Y-32568773D01*
X62632001Y-32733185D01*
X62632001Y-32900817D01*
X62599298Y-33065229D01*
X62535148Y-33220101D01*
X62442016Y-33359482D01*
X62323482Y-33478016D01*
X62184101Y-33571148D01*
X62029229Y-33635298D01*
X61864817Y-33668001D01*
X61697185Y-33668001D01*
X61532773Y-33635298D01*
X61377901Y-33571148D01*
X61238520Y-33478016D01*
X61119986Y-33359482D01*
X61026854Y-33220101D01*
X60962704Y-33065229D01*
X60930001Y-32900817D01*
X60930001Y-32733185D01*
X60962704Y-32568773D01*
X61026854Y-32413901D01*
X61119986Y-32274520D01*
X61238520Y-32155986D01*
X61377901Y-32062854D01*
X61532773Y-31998704D01*
X61697185Y-31966001D01*
X61864817Y-31966001D01*
X62029229Y-31998704D01*
G37*
G36*
X74543228Y-31998704D02*
G01*
X74698100Y-32062854D01*
X74837481Y-32155986D01*
X74956015Y-32274520D01*
X75049147Y-32413901D01*
X75113297Y-32568773D01*
X75146000Y-32733185D01*
X75146000Y-32900817D01*
X75113297Y-33065229D01*
X75049147Y-33220101D01*
X74956015Y-33359482D01*
X74837481Y-33478016D01*
X74698100Y-33571148D01*
X74543228Y-33635298D01*
X74378816Y-33668001D01*
X74211184Y-33668001D01*
X74046772Y-33635298D01*
X73891900Y-33571148D01*
X73752519Y-33478016D01*
X73633985Y-33359482D01*
X73540853Y-33220101D01*
X73476703Y-33065229D01*
X73444000Y-32900817D01*
X73444000Y-32733185D01*
X73476703Y-32568773D01*
X73540853Y-32413901D01*
X73633985Y-32274520D01*
X73752519Y-32155986D01*
X73891900Y-32062854D01*
X74046772Y-31998704D01*
X74211184Y-31966001D01*
X74378816Y-31966001D01*
X74543228Y-31998704D01*
G37*
G36*
X65993674Y-31373465D02*
G01*
X66031367Y-31384899D01*
X66066103Y-31403466D01*
X66096548Y-31428452D01*
X66121534Y-31458897D01*
X66140101Y-31493633D01*
X66151535Y-31531326D01*
X66156000Y-31576661D01*
X66156000Y-32413339D01*
X66151535Y-32458674D01*
X66140101Y-32496367D01*
X66121534Y-32531103D01*
X66096548Y-32561548D01*
X66066103Y-32586534D01*
X66031367Y-32605101D01*
X65993674Y-32616535D01*
X65948339Y-32621000D01*
X64861661Y-32621000D01*
X64816326Y-32616535D01*
X64778633Y-32605101D01*
X64743897Y-32586534D01*
X64713452Y-32561548D01*
X64688466Y-32531103D01*
X64669899Y-32496367D01*
X64658465Y-32458674D01*
X64654000Y-32413339D01*
X64654000Y-31576661D01*
X64658465Y-31531326D01*
X64669899Y-31493633D01*
X64688466Y-31458897D01*
X64713452Y-31428452D01*
X64743897Y-31403466D01*
X64778633Y-31384899D01*
X64816326Y-31373465D01*
X64861661Y-31369000D01*
X65948339Y-31369000D01*
X65993674Y-31373465D01*
G37*
G36*
X70438674Y-31373465D02*
G01*
X70476367Y-31384899D01*
X70511103Y-31403466D01*
X70541548Y-31428452D01*
X70566534Y-31458897D01*
X70585101Y-31493633D01*
X70596535Y-31531326D01*
X70601000Y-31576661D01*
X70601000Y-32413339D01*
X70596535Y-32458674D01*
X70585101Y-32496367D01*
X70566534Y-32531103D01*
X70541548Y-32561548D01*
X70511103Y-32586534D01*
X70476367Y-32605101D01*
X70438674Y-32616535D01*
X70393339Y-32621000D01*
X69306661Y-32621000D01*
X69261326Y-32616535D01*
X69223633Y-32605101D01*
X69188897Y-32586534D01*
X69158452Y-32561548D01*
X69133466Y-32531103D01*
X69114899Y-32496367D01*
X69103465Y-32458674D01*
X69099000Y-32413339D01*
X69099000Y-31576661D01*
X69103465Y-31531326D01*
X69114899Y-31493633D01*
X69133466Y-31458897D01*
X69158452Y-31428452D01*
X69188897Y-31403466D01*
X69223633Y-31384899D01*
X69261326Y-31373465D01*
X69306661Y-31369000D01*
X70393339Y-31369000D01*
X70438674Y-31373465D01*
G37*
G36*
X62029229Y-29458704D02*
G01*
X62184101Y-29522854D01*
X62323482Y-29615986D01*
X62442016Y-29734520D01*
X62535148Y-29873901D01*
X62599298Y-30028773D01*
X62632001Y-30193185D01*
X62632001Y-30360817D01*
X62599298Y-30525229D01*
X62535148Y-30680101D01*
X62442016Y-30819482D01*
X62323482Y-30938016D01*
X62184101Y-31031148D01*
X62029229Y-31095298D01*
X61864817Y-31128001D01*
X61697185Y-31128001D01*
X61532773Y-31095298D01*
X61377901Y-31031148D01*
X61238520Y-30938016D01*
X61119986Y-30819482D01*
X61026854Y-30680101D01*
X60962704Y-30525229D01*
X60930001Y-30360817D01*
X60930001Y-30193185D01*
X60962704Y-30028773D01*
X61026854Y-29873901D01*
X61119986Y-29734520D01*
X61238520Y-29615986D01*
X61377901Y-29522854D01*
X61532773Y-29458704D01*
X61697185Y-29426001D01*
X61864817Y-29426001D01*
X62029229Y-29458704D01*
G37*
G36*
X59303228Y-29458704D02*
G01*
X59458100Y-29522854D01*
X59597481Y-29615986D01*
X59716015Y-29734520D01*
X59809147Y-29873901D01*
X59873297Y-30028773D01*
X59906000Y-30193185D01*
X59906000Y-30360817D01*
X59873297Y-30525229D01*
X59809147Y-30680101D01*
X59716015Y-30819482D01*
X59597481Y-30938016D01*
X59458100Y-31031148D01*
X59303228Y-31095298D01*
X59138816Y-31128001D01*
X58971184Y-31128001D01*
X58806772Y-31095298D01*
X58651900Y-31031148D01*
X58512519Y-30938016D01*
X58393985Y-30819482D01*
X58300853Y-30680101D01*
X58236703Y-30525229D01*
X58204000Y-30360817D01*
X58204000Y-30193185D01*
X58236703Y-30028773D01*
X58300853Y-29873901D01*
X58393985Y-29734520D01*
X58512519Y-29615986D01*
X58651900Y-29522854D01*
X58806772Y-29458704D01*
X58971184Y-29426001D01*
X59138816Y-29426001D01*
X59303228Y-29458704D01*
G37*
G36*
X74543228Y-29458704D02*
G01*
X74698100Y-29522854D01*
X74837481Y-29615986D01*
X74956015Y-29734520D01*
X75049147Y-29873901D01*
X75113297Y-30028773D01*
X75146000Y-30193185D01*
X75146000Y-30360817D01*
X75113297Y-30525229D01*
X75049147Y-30680101D01*
X74956015Y-30819482D01*
X74837481Y-30938016D01*
X74698100Y-31031148D01*
X74543228Y-31095298D01*
X74378816Y-31128001D01*
X74211184Y-31128001D01*
X74046772Y-31095298D01*
X73891900Y-31031148D01*
X73752519Y-30938016D01*
X73633985Y-30819482D01*
X73540853Y-30680101D01*
X73476703Y-30525229D01*
X73444000Y-30360817D01*
X73444000Y-30193185D01*
X73476703Y-30028773D01*
X73540853Y-29873901D01*
X73633985Y-29734520D01*
X73752519Y-29615986D01*
X73891900Y-29522854D01*
X74046772Y-29458704D01*
X74211184Y-29426001D01*
X74378816Y-29426001D01*
X74543228Y-29458704D01*
G37*
G36*
X77269229Y-29458704D02*
G01*
X77424101Y-29522854D01*
X77563482Y-29615986D01*
X77682016Y-29734520D01*
X77775148Y-29873901D01*
X77839298Y-30028773D01*
X77872001Y-30193185D01*
X77872001Y-30360817D01*
X77839298Y-30525229D01*
X77775148Y-30680101D01*
X77682016Y-30819482D01*
X77563482Y-30938016D01*
X77424101Y-31031148D01*
X77269229Y-31095298D01*
X77104817Y-31128001D01*
X76937185Y-31128001D01*
X76772773Y-31095298D01*
X76617901Y-31031148D01*
X76478520Y-30938016D01*
X76359986Y-30819482D01*
X76266854Y-30680101D01*
X76202704Y-30525229D01*
X76170001Y-30360817D01*
X76170001Y-30193185D01*
X76202704Y-30028773D01*
X76266854Y-29873901D01*
X76359986Y-29734520D01*
X76478520Y-29615986D01*
X76617901Y-29522854D01*
X76772773Y-29458704D01*
X76937185Y-29426001D01*
X77104817Y-29426001D01*
X77269229Y-29458704D01*
G37*
G36*
X65993674Y-28978465D02*
G01*
X66031367Y-28989899D01*
X66066103Y-29008466D01*
X66096548Y-29033452D01*
X66121534Y-29063897D01*
X66140101Y-29098633D01*
X66151535Y-29136326D01*
X66156000Y-29181661D01*
X66156000Y-30018339D01*
X66151535Y-30063674D01*
X66140101Y-30101367D01*
X66121534Y-30136103D01*
X66096548Y-30166548D01*
X66066103Y-30191534D01*
X66031367Y-30210101D01*
X65993674Y-30221535D01*
X65948339Y-30226000D01*
X64861661Y-30226000D01*
X64816326Y-30221535D01*
X64778633Y-30210101D01*
X64743897Y-30191534D01*
X64713452Y-30166548D01*
X64688466Y-30136103D01*
X64669899Y-30101367D01*
X64658465Y-30063674D01*
X64654000Y-30018339D01*
X64654000Y-29181661D01*
X64658465Y-29136326D01*
X64669899Y-29098633D01*
X64688466Y-29063897D01*
X64713452Y-29033452D01*
X64743897Y-29008466D01*
X64778633Y-28989899D01*
X64816326Y-28978465D01*
X64861661Y-28974000D01*
X65948339Y-28974000D01*
X65993674Y-28978465D01*
G37*
G36*
X70438674Y-28978465D02*
G01*
X70476367Y-28989899D01*
X70511103Y-29008466D01*
X70541548Y-29033452D01*
X70566534Y-29063897D01*
X70585101Y-29098633D01*
X70596535Y-29136326D01*
X70601000Y-29181661D01*
X70601000Y-30018339D01*
X70596535Y-30063674D01*
X70585101Y-30101367D01*
X70566534Y-30136103D01*
X70541548Y-30166548D01*
X70511103Y-30191534D01*
X70476367Y-30210101D01*
X70438674Y-30221535D01*
X70393339Y-30226000D01*
X69306661Y-30226000D01*
X69261326Y-30221535D01*
X69223633Y-30210101D01*
X69188897Y-30191534D01*
X69158452Y-30166548D01*
X69133466Y-30136103D01*
X69114899Y-30101367D01*
X69103465Y-30063674D01*
X69099000Y-30018339D01*
X69099000Y-29181661D01*
X69103465Y-29136326D01*
X69114899Y-29098633D01*
X69133466Y-29063897D01*
X69158452Y-29033452D01*
X69188897Y-29008466D01*
X69223633Y-28989899D01*
X69261326Y-28978465D01*
X69306661Y-28974000D01*
X70393339Y-28974000D01*
X70438674Y-28978465D01*
G37*
G36*
X54735589Y-28448876D02*
G01*
X54834893Y-28468629D01*
X54975206Y-28526748D01*
X55101484Y-28611125D01*
X55208875Y-28718516D01*
X55293252Y-28844794D01*
X55351371Y-28985107D01*
X55381000Y-29134063D01*
X55381000Y-29285937D01*
X55351371Y-29434893D01*
X55293252Y-29575206D01*
X55208875Y-29701484D01*
X55101484Y-29808875D01*
X54975206Y-29893252D01*
X54834893Y-29951371D01*
X54735589Y-29971124D01*
X54685938Y-29981000D01*
X54534062Y-29981000D01*
X54484411Y-29971124D01*
X54385107Y-29951371D01*
X54244794Y-29893252D01*
X54118516Y-29808875D01*
X54011125Y-29701484D01*
X53926748Y-29575206D01*
X53868629Y-29434893D01*
X53839000Y-29285937D01*
X53839000Y-29134063D01*
X53868629Y-28985107D01*
X53926748Y-28844794D01*
X54011125Y-28718516D01*
X54118516Y-28611125D01*
X54244794Y-28526748D01*
X54385107Y-28468629D01*
X54484411Y-28448876D01*
X54534062Y-28439000D01*
X54685938Y-28439000D01*
X54735589Y-28448876D01*
G37*
G36*
X74543228Y-26918704D02*
G01*
X74698100Y-26982854D01*
X74837481Y-27075986D01*
X74956015Y-27194520D01*
X75049147Y-27333901D01*
X75113297Y-27488773D01*
X75146000Y-27653185D01*
X75146000Y-27820817D01*
X75113297Y-27985229D01*
X75049147Y-28140101D01*
X74956015Y-28279482D01*
X74837481Y-28398016D01*
X74698100Y-28491148D01*
X74543228Y-28555298D01*
X74378816Y-28588001D01*
X74211184Y-28588001D01*
X74046772Y-28555298D01*
X73891900Y-28491148D01*
X73752519Y-28398016D01*
X73633985Y-28279482D01*
X73540853Y-28140101D01*
X73476703Y-27985229D01*
X73444000Y-27820817D01*
X73444000Y-27653185D01*
X73476703Y-27488773D01*
X73540853Y-27333901D01*
X73633985Y-27194520D01*
X73752519Y-27075986D01*
X73891900Y-26982854D01*
X74046772Y-26918704D01*
X74211184Y-26886001D01*
X74378816Y-26886001D01*
X74543228Y-26918704D01*
G37*
G36*
X62029229Y-26918704D02*
G01*
X62184101Y-26982854D01*
X62323482Y-27075986D01*
X62442016Y-27194520D01*
X62535148Y-27333901D01*
X62599298Y-27488773D01*
X62632001Y-27653185D01*
X62632001Y-27820817D01*
X62599298Y-27985229D01*
X62535148Y-28140101D01*
X62442016Y-28279482D01*
X62323482Y-28398016D01*
X62184101Y-28491148D01*
X62029229Y-28555298D01*
X61864817Y-28588001D01*
X61697185Y-28588001D01*
X61532773Y-28555298D01*
X61377901Y-28491148D01*
X61238520Y-28398016D01*
X61119986Y-28279482D01*
X61026854Y-28140101D01*
X60962704Y-27985229D01*
X60930001Y-27820817D01*
X60930001Y-27653185D01*
X60962704Y-27488773D01*
X61026854Y-27333901D01*
X61119986Y-27194520D01*
X61238520Y-27075986D01*
X61377901Y-26982854D01*
X61532773Y-26918704D01*
X61697185Y-26886001D01*
X61864817Y-26886001D01*
X62029229Y-26918704D01*
G37*
G36*
X77269229Y-26918704D02*
G01*
X77424101Y-26982854D01*
X77563482Y-27075986D01*
X77682016Y-27194520D01*
X77775148Y-27333901D01*
X77839298Y-27488773D01*
X77872001Y-27653185D01*
X77872001Y-27820817D01*
X77839298Y-27985229D01*
X77775148Y-28140101D01*
X77682016Y-28279482D01*
X77563482Y-28398016D01*
X77424101Y-28491148D01*
X77269229Y-28555298D01*
X77104817Y-28588001D01*
X76937185Y-28588001D01*
X76772773Y-28555298D01*
X76617901Y-28491148D01*
X76478520Y-28398016D01*
X76359986Y-28279482D01*
X76266854Y-28140101D01*
X76202704Y-27985229D01*
X76170001Y-27820817D01*
X76170001Y-27653185D01*
X76202704Y-27488773D01*
X76266854Y-27333901D01*
X76359986Y-27194520D01*
X76478520Y-27075986D01*
X76617901Y-26982854D01*
X76772773Y-26918704D01*
X76937185Y-26886001D01*
X77104817Y-26886001D01*
X77269229Y-26918704D01*
G37*
G36*
X59215721Y-27207175D02*
G01*
X59315995Y-27248710D01*
X59315996Y-27248711D01*
X59406242Y-27309011D01*
X59482990Y-27385759D01*
X59482991Y-27385761D01*
X59543291Y-27476006D01*
X59584826Y-27576280D01*
X59606000Y-27682731D01*
X59606000Y-27791271D01*
X59584826Y-27897722D01*
X59543291Y-27997996D01*
X59543290Y-27997997D01*
X59482990Y-28088243D01*
X59406242Y-28164991D01*
X59360812Y-28195346D01*
X59315995Y-28225292D01*
X59215721Y-28266827D01*
X59109270Y-28288001D01*
X59000730Y-28288001D01*
X58894279Y-28266827D01*
X58794005Y-28225292D01*
X58749188Y-28195346D01*
X58703758Y-28164991D01*
X58627010Y-28088243D01*
X58566710Y-27997997D01*
X58566709Y-27997996D01*
X58525174Y-27897722D01*
X58504000Y-27791271D01*
X58504000Y-27682731D01*
X58525174Y-27576280D01*
X58566709Y-27476006D01*
X58627009Y-27385761D01*
X58627010Y-27385759D01*
X58703758Y-27309011D01*
X58794004Y-27248711D01*
X58794005Y-27248710D01*
X58894279Y-27207175D01*
X59000730Y-27186001D01*
X59109270Y-27186001D01*
X59215721Y-27207175D01*
G37*
G36*
X70438674Y-26928465D02*
G01*
X70476367Y-26939899D01*
X70511103Y-26958466D01*
X70541548Y-26983452D01*
X70566534Y-27013897D01*
X70585101Y-27048633D01*
X70596535Y-27086326D01*
X70601000Y-27131661D01*
X70601000Y-27968339D01*
X70596535Y-28013674D01*
X70585101Y-28051367D01*
X70566534Y-28086103D01*
X70541548Y-28116548D01*
X70511103Y-28141534D01*
X70476367Y-28160101D01*
X70438674Y-28171535D01*
X70393339Y-28176000D01*
X69306661Y-28176000D01*
X69261326Y-28171535D01*
X69223633Y-28160101D01*
X69188897Y-28141534D01*
X69158452Y-28116548D01*
X69133466Y-28086103D01*
X69114899Y-28051367D01*
X69103465Y-28013674D01*
X69099000Y-27968339D01*
X69099000Y-27131661D01*
X69103465Y-27086326D01*
X69114899Y-27048633D01*
X69133466Y-27013897D01*
X69158452Y-26983452D01*
X69188897Y-26958466D01*
X69223633Y-26939899D01*
X69261326Y-26928465D01*
X69306661Y-26924000D01*
X70393339Y-26924000D01*
X70438674Y-26928465D01*
G37*
G36*
X65993674Y-26928465D02*
G01*
X66031367Y-26939899D01*
X66066103Y-26958466D01*
X66096548Y-26983452D01*
X66121534Y-27013897D01*
X66140101Y-27048633D01*
X66151535Y-27086326D01*
X66156000Y-27131661D01*
X66156000Y-27968339D01*
X66151535Y-28013674D01*
X66140101Y-28051367D01*
X66121534Y-28086103D01*
X66096548Y-28116548D01*
X66066103Y-28141534D01*
X66031367Y-28160101D01*
X65993674Y-28171535D01*
X65948339Y-28176000D01*
X64861661Y-28176000D01*
X64816326Y-28171535D01*
X64778633Y-28160101D01*
X64743897Y-28141534D01*
X64713452Y-28116548D01*
X64688466Y-28086103D01*
X64669899Y-28051367D01*
X64658465Y-28013674D01*
X64654000Y-27968339D01*
X64654000Y-27131661D01*
X64658465Y-27086326D01*
X64669899Y-27048633D01*
X64688466Y-27013897D01*
X64713452Y-26983452D01*
X64743897Y-26958466D01*
X64778633Y-26939899D01*
X64816326Y-26928465D01*
X64861661Y-26924000D01*
X65948339Y-26924000D01*
X65993674Y-26928465D01*
G37*
G36*
X54735589Y-25908876D02*
G01*
X54834893Y-25928629D01*
X54975206Y-25986748D01*
X55101484Y-26071125D01*
X55208875Y-26178516D01*
X55293252Y-26304794D01*
X55351371Y-26445107D01*
X55381000Y-26594063D01*
X55381000Y-26745937D01*
X55351371Y-26894893D01*
X55293252Y-27035206D01*
X55208875Y-27161484D01*
X55101484Y-27268875D01*
X54975206Y-27353252D01*
X54834893Y-27411371D01*
X54735589Y-27431124D01*
X54685938Y-27441000D01*
X54534062Y-27441000D01*
X54484411Y-27431124D01*
X54385107Y-27411371D01*
X54244794Y-27353252D01*
X54118516Y-27268875D01*
X54011125Y-27161484D01*
X53926748Y-27035206D01*
X53868629Y-26894893D01*
X53839000Y-26745937D01*
X53839000Y-26594063D01*
X53868629Y-26445107D01*
X53926748Y-26304794D01*
X54011125Y-26178516D01*
X54118516Y-26071125D01*
X54244794Y-25986748D01*
X54385107Y-25928629D01*
X54484411Y-25908876D01*
X54534062Y-25899000D01*
X54685938Y-25899000D01*
X54735589Y-25908876D01*
G37*
G36*
X77269229Y-24378704D02*
G01*
X77424101Y-24442854D01*
X77563482Y-24535986D01*
X77682016Y-24654520D01*
X77775148Y-24793901D01*
X77839298Y-24948773D01*
X77872001Y-25113185D01*
X77872001Y-25280817D01*
X77839298Y-25445229D01*
X77775148Y-25600101D01*
X77682016Y-25739482D01*
X77563482Y-25858016D01*
X77424101Y-25951148D01*
X77269229Y-26015298D01*
X77104817Y-26048001D01*
X76937185Y-26048001D01*
X76772773Y-26015298D01*
X76617901Y-25951148D01*
X76478520Y-25858016D01*
X76359986Y-25739482D01*
X76266854Y-25600101D01*
X76202704Y-25445229D01*
X76170001Y-25280817D01*
X76170001Y-25113185D01*
X76202704Y-24948773D01*
X76266854Y-24793901D01*
X76359986Y-24654520D01*
X76478520Y-24535986D01*
X76617901Y-24442854D01*
X76772773Y-24378704D01*
X76937185Y-24346001D01*
X77104817Y-24346001D01*
X77269229Y-24378704D01*
G37*
G36*
X62029229Y-24378704D02*
G01*
X62184101Y-24442854D01*
X62323482Y-24535986D01*
X62442016Y-24654520D01*
X62535148Y-24793901D01*
X62599298Y-24948773D01*
X62632001Y-25113185D01*
X62632001Y-25280817D01*
X62599298Y-25445229D01*
X62535148Y-25600101D01*
X62442016Y-25739482D01*
X62323482Y-25858016D01*
X62184101Y-25951148D01*
X62029229Y-26015298D01*
X61864817Y-26048001D01*
X61697185Y-26048001D01*
X61532773Y-26015298D01*
X61377901Y-25951148D01*
X61238520Y-25858016D01*
X61119986Y-25739482D01*
X61026854Y-25600101D01*
X60962704Y-25445229D01*
X60930001Y-25280817D01*
X60930001Y-25113185D01*
X60962704Y-24948773D01*
X61026854Y-24793901D01*
X61119986Y-24654520D01*
X61238520Y-24535986D01*
X61377901Y-24442854D01*
X61532773Y-24378704D01*
X61697185Y-24346001D01*
X61864817Y-24346001D01*
X62029229Y-24378704D01*
G37*
G36*
X74543228Y-24378704D02*
G01*
X74698100Y-24442854D01*
X74837481Y-24535986D01*
X74956015Y-24654520D01*
X75049147Y-24793901D01*
X75113297Y-24948773D01*
X75146000Y-25113185D01*
X75146000Y-25280817D01*
X75113297Y-25445229D01*
X75049147Y-25600101D01*
X74956015Y-25739482D01*
X74837481Y-25858016D01*
X74698100Y-25951148D01*
X74543228Y-26015298D01*
X74378816Y-26048001D01*
X74211184Y-26048001D01*
X74046772Y-26015298D01*
X73891900Y-25951148D01*
X73752519Y-25858016D01*
X73633985Y-25739482D01*
X73540853Y-25600101D01*
X73476703Y-25445229D01*
X73444000Y-25280817D01*
X73444000Y-25113185D01*
X73476703Y-24948773D01*
X73540853Y-24793901D01*
X73633985Y-24654520D01*
X73752519Y-24535986D01*
X73891900Y-24442854D01*
X74046772Y-24378704D01*
X74211184Y-24346001D01*
X74378816Y-24346001D01*
X74543228Y-24378704D01*
G37*
G36*
X59215721Y-24667175D02*
G01*
X59315995Y-24708710D01*
X59315996Y-24708711D01*
X59406242Y-24769011D01*
X59482990Y-24845759D01*
X59482991Y-24845761D01*
X59543291Y-24936006D01*
X59584826Y-25036280D01*
X59606000Y-25142731D01*
X59606000Y-25251271D01*
X59584826Y-25357722D01*
X59543291Y-25457996D01*
X59543290Y-25457997D01*
X59482990Y-25548243D01*
X59406242Y-25624991D01*
X59360812Y-25655346D01*
X59315995Y-25685292D01*
X59215721Y-25726827D01*
X59109270Y-25748001D01*
X59000730Y-25748001D01*
X58894279Y-25726827D01*
X58794005Y-25685292D01*
X58749188Y-25655346D01*
X58703758Y-25624991D01*
X58627010Y-25548243D01*
X58566710Y-25457997D01*
X58566709Y-25457996D01*
X58525174Y-25357722D01*
X58504000Y-25251271D01*
X58504000Y-25142731D01*
X58525174Y-25036280D01*
X58566709Y-24936006D01*
X58627009Y-24845761D01*
X58627010Y-24845759D01*
X58703758Y-24769011D01*
X58794004Y-24708711D01*
X58794005Y-24708710D01*
X58894279Y-24667175D01*
X59000730Y-24646001D01*
X59109270Y-24646001D01*
X59215721Y-24667175D01*
G37*
G36*
X54735589Y-23368876D02*
G01*
X54834893Y-23388629D01*
X54975206Y-23446748D01*
X55101484Y-23531125D01*
X55208875Y-23638516D01*
X55293252Y-23764794D01*
X55351371Y-23905107D01*
X55381000Y-24054063D01*
X55381000Y-24205937D01*
X55351371Y-24354893D01*
X55293252Y-24495206D01*
X55208875Y-24621484D01*
X55101484Y-24728875D01*
X54975206Y-24813252D01*
X54834893Y-24871371D01*
X54735589Y-24891124D01*
X54685938Y-24901000D01*
X54534062Y-24901000D01*
X54484411Y-24891124D01*
X54385107Y-24871371D01*
X54244794Y-24813252D01*
X54118516Y-24728875D01*
X54011125Y-24621484D01*
X53926748Y-24495206D01*
X53868629Y-24354893D01*
X53839000Y-24205937D01*
X53839000Y-24054063D01*
X53868629Y-23905107D01*
X53926748Y-23764794D01*
X54011125Y-23638516D01*
X54118516Y-23531125D01*
X54244794Y-23446748D01*
X54385107Y-23388629D01*
X54484411Y-23368876D01*
X54534062Y-23359000D01*
X54685938Y-23359000D01*
X54735589Y-23368876D01*
G37*
G36*
X77269229Y-21838704D02*
G01*
X77424101Y-21902854D01*
X77563482Y-21995986D01*
X77682016Y-22114520D01*
X77775148Y-22253901D01*
X77839298Y-22408773D01*
X77872001Y-22573185D01*
X77872001Y-22740817D01*
X77839298Y-22905229D01*
X77775148Y-23060101D01*
X77682016Y-23199482D01*
X77563482Y-23318016D01*
X77424101Y-23411148D01*
X77269229Y-23475298D01*
X77104817Y-23508001D01*
X76937185Y-23508001D01*
X76772773Y-23475298D01*
X76617901Y-23411148D01*
X76478520Y-23318016D01*
X76359986Y-23199482D01*
X76266854Y-23060101D01*
X76202704Y-22905229D01*
X76170001Y-22740817D01*
X76170001Y-22573185D01*
X76202704Y-22408773D01*
X76266854Y-22253901D01*
X76359986Y-22114520D01*
X76478520Y-21995986D01*
X76617901Y-21902854D01*
X76772773Y-21838704D01*
X76937185Y-21806001D01*
X77104817Y-21806001D01*
X77269229Y-21838704D01*
G37*
G36*
X62632001Y-23508001D02*
G01*
X60930001Y-23508001D01*
X60930001Y-21806001D01*
X62632001Y-21806001D01*
X62632001Y-23508001D01*
G37*
G36*
X59906000Y-23508001D02*
G01*
X58204000Y-23508001D01*
X58204000Y-21806001D01*
X59906000Y-21806001D01*
X59906000Y-23508001D01*
G37*
G36*
X74543228Y-21838704D02*
G01*
X74698100Y-21902854D01*
X74837481Y-21995986D01*
X74956015Y-22114520D01*
X75049147Y-22253901D01*
X75113297Y-22408773D01*
X75146000Y-22573185D01*
X75146000Y-22740817D01*
X75113297Y-22905229D01*
X75049147Y-23060101D01*
X74956015Y-23199482D01*
X74837481Y-23318016D01*
X74698100Y-23411148D01*
X74543228Y-23475298D01*
X74378816Y-23508001D01*
X74211184Y-23508001D01*
X74046772Y-23475298D01*
X73891900Y-23411148D01*
X73752519Y-23318016D01*
X73633985Y-23199482D01*
X73540853Y-23060101D01*
X73476703Y-22905229D01*
X73444000Y-22740817D01*
X73444000Y-22573185D01*
X73476703Y-22408773D01*
X73540853Y-22253901D01*
X73633985Y-22114520D01*
X73752519Y-21995986D01*
X73891900Y-21902854D01*
X74046772Y-21838704D01*
X74211184Y-21806001D01*
X74378816Y-21806001D01*
X74543228Y-21838704D01*
G37*
M02*
