G04 #@! TF.GenerationSoftware,KiCad,Pcbnew,(5.1.2)-1*
G04 #@! TF.CreationDate,2020-03-30T19:36:04-04:00*
G04 #@! TF.ProjectId,vic20-svideoLHM,76696332-302d-4737-9669-64656f4c484d,rev?*
G04 #@! TF.SameCoordinates,Original*
G04 #@! TF.FileFunction,Legend,Top*
G04 #@! TF.FilePolarity,Positive*
%FSLAX46Y46*%
G04 Gerber Fmt 4.6, Leading zero omitted, Abs format (unit mm)*
G04 Created by KiCad (PCBNEW (5.1.2)-1) date 2020-03-30 19:36:04*
%MOMM*%
%LPD*%
G04 APERTURE LIST*
%ADD10C,0.437500*%
%ADD11C,0.120000*%
%ADD12C,0.150000*%
G04 APERTURE END LIST*
D10*
X54098142Y-66832000D02*
X53979095Y-66748666D01*
X53860047Y-66498666D01*
X53860047Y-66332000D01*
X53979095Y-66082000D01*
X54217190Y-65915333D01*
X54455285Y-65832000D01*
X54931476Y-65748666D01*
X55288619Y-65748666D01*
X55764809Y-65832000D01*
X56002904Y-65915333D01*
X56241000Y-66082000D01*
X56360047Y-66332000D01*
X56360047Y-66498666D01*
X56241000Y-66748666D01*
X56121952Y-66832000D01*
X56360047Y-67332000D02*
X53860047Y-67915333D01*
X56360047Y-68498666D01*
X56121952Y-68998666D02*
X56241000Y-69082000D01*
X56360047Y-69248666D01*
X56360047Y-69665333D01*
X56241000Y-69832000D01*
X56121952Y-69915333D01*
X55883857Y-69998666D01*
X55645761Y-69998666D01*
X55288619Y-69915333D01*
X53860047Y-68915333D01*
X53860047Y-69998666D01*
X56360047Y-71082000D02*
X56360047Y-71248666D01*
X56241000Y-71415333D01*
X56121952Y-71498666D01*
X55883857Y-71582000D01*
X55407666Y-71665333D01*
X54812428Y-71665333D01*
X54336238Y-71582000D01*
X54098142Y-71498666D01*
X53979095Y-71415333D01*
X53860047Y-71248666D01*
X53860047Y-71082000D01*
X53979095Y-70915333D01*
X54098142Y-70832000D01*
X54336238Y-70748666D01*
X54812428Y-70665333D01*
X55407666Y-70665333D01*
X55883857Y-70748666D01*
X56121952Y-70832000D01*
X56241000Y-70915333D01*
X56360047Y-71082000D01*
D11*
X73135000Y-21327001D02*
X67675000Y-21327001D01*
X73135000Y-72247001D02*
X73135000Y-21327001D01*
X60215000Y-72247001D02*
X73135000Y-72247001D01*
X60215000Y-21327001D02*
X60215000Y-72247001D01*
X65675000Y-21327001D02*
X60215000Y-21327001D01*
X67675000Y-21327001D02*
G75*
G02X65675000Y-21327001I-1000000J0D01*
G01*
X68385000Y-43005000D02*
X68385000Y-36070000D01*
X68385000Y-36070000D02*
X64965000Y-36070000D01*
X64965000Y-36070000D02*
X64965000Y-43005000D01*
X66600000Y-60586252D02*
X66600000Y-60063748D01*
X68020000Y-60586252D02*
X68020000Y-60063748D01*
X70560000Y-33281252D02*
X70560000Y-32758748D01*
X69140000Y-33281252D02*
X69140000Y-32758748D01*
X72973000Y-65651748D02*
X72973000Y-66174252D01*
X71553000Y-65651748D02*
X71553000Y-66174252D01*
X53280000Y-63560000D02*
X55940000Y-63560000D01*
X53280000Y-60960000D02*
X53280000Y-63560000D01*
X55940000Y-60960000D02*
X55940000Y-63560000D01*
X53280000Y-60960000D02*
X55940000Y-60960000D01*
X53280000Y-59690000D02*
X53280000Y-58360000D01*
X53280000Y-58360000D02*
X54610000Y-58360000D01*
X55940000Y-54670000D02*
X54610000Y-54670000D01*
X55940000Y-53340000D02*
X55940000Y-54670000D01*
X55940000Y-52070000D02*
X53280000Y-52070000D01*
X53280000Y-52070000D02*
X53280000Y-49470000D01*
X55940000Y-52070000D02*
X55940000Y-49470000D01*
X55940000Y-49470000D02*
X53280000Y-49470000D01*
X57100000Y-37870000D02*
X54660000Y-37870000D01*
X54660000Y-37870000D02*
X54660000Y-43410000D01*
X54660000Y-43410000D02*
X57100000Y-43410000D01*
X57100000Y-43410000D02*
X57100000Y-37870000D01*
X52080000Y-31555000D02*
X52080000Y-21785000D01*
X57150000Y-31555000D02*
X57150000Y-21785000D01*
X52080000Y-31555000D02*
X57150000Y-31555000D01*
X52080000Y-21785000D02*
X57150000Y-21785000D01*
X54545000Y-33075000D02*
X54545000Y-31556000D01*
X56975000Y-33075000D02*
X56975000Y-31556000D01*
X54545000Y-33075000D02*
X56975000Y-33075000D01*
X54545000Y-31556000D02*
X56975000Y-31556000D01*
X55760000Y-33075000D02*
X55760000Y-32316000D01*
X64695000Y-28836252D02*
X64695000Y-28313748D01*
X66115000Y-28836252D02*
X66115000Y-28313748D01*
X70560000Y-28313748D02*
X70560000Y-28836252D01*
X69140000Y-28313748D02*
X69140000Y-28836252D01*
X64695000Y-32758748D02*
X64695000Y-33281252D01*
X66115000Y-32758748D02*
X66115000Y-33281252D01*
X65000000Y-55340000D02*
X64670000Y-55340000D01*
X64670000Y-55340000D02*
X64670000Y-48800000D01*
X64670000Y-48800000D02*
X65000000Y-48800000D01*
X67080000Y-55340000D02*
X67410000Y-55340000D01*
X67410000Y-55340000D02*
X67410000Y-48800000D01*
X67410000Y-48800000D02*
X67080000Y-48800000D01*
X71220000Y-48800000D02*
X70890000Y-48800000D01*
X71220000Y-55340000D02*
X71220000Y-48800000D01*
X70890000Y-55340000D02*
X71220000Y-55340000D01*
X68480000Y-48800000D02*
X68810000Y-48800000D01*
X68480000Y-55340000D02*
X68480000Y-48800000D01*
X68810000Y-55340000D02*
X68480000Y-55340000D01*
X67437000Y-64115000D02*
X65487000Y-64115000D01*
X67437000Y-64115000D02*
X69387000Y-64115000D01*
X67437000Y-69235000D02*
X65487000Y-69235000D01*
X67437000Y-69235000D02*
X70887000Y-69235000D01*
X70401001Y-21327001D02*
G75*
G02X68401001Y-21327001I-1000000J0D01*
G01*
X68401001Y-21327001D02*
X62941001Y-21327001D01*
X62941001Y-21327001D02*
X62941001Y-72247001D01*
X62941001Y-72247001D02*
X75861001Y-72247001D01*
X75861001Y-72247001D02*
X75861001Y-21327001D01*
X75861001Y-21327001D02*
X70401001Y-21327001D01*
D12*
X67032142Y-40171666D02*
X67079761Y-40219285D01*
X67127380Y-40362142D01*
X67127380Y-40457380D01*
X67079761Y-40600238D01*
X66984523Y-40695476D01*
X66889285Y-40743095D01*
X66698809Y-40790714D01*
X66555952Y-40790714D01*
X66365476Y-40743095D01*
X66270238Y-40695476D01*
X66175000Y-40600238D01*
X66127380Y-40457380D01*
X66127380Y-40362142D01*
X66175000Y-40219285D01*
X66222619Y-40171666D01*
X67127380Y-39219285D02*
X67127380Y-39790714D01*
X67127380Y-39505000D02*
X66127380Y-39505000D01*
X66270238Y-39600238D01*
X66365476Y-39695476D01*
X66413095Y-39790714D01*
X66017142Y-60491666D02*
X66064761Y-60539285D01*
X66112380Y-60682142D01*
X66112380Y-60777380D01*
X66064761Y-60920238D01*
X65969523Y-61015476D01*
X65874285Y-61063095D01*
X65683809Y-61110714D01*
X65540952Y-61110714D01*
X65350476Y-61063095D01*
X65255238Y-61015476D01*
X65160000Y-60920238D01*
X65112380Y-60777380D01*
X65112380Y-60682142D01*
X65160000Y-60539285D01*
X65207619Y-60491666D01*
X65207619Y-60110714D02*
X65160000Y-60063095D01*
X65112380Y-59967857D01*
X65112380Y-59729761D01*
X65160000Y-59634523D01*
X65207619Y-59586904D01*
X65302857Y-59539285D01*
X65398095Y-59539285D01*
X65540952Y-59586904D01*
X66112380Y-60158333D01*
X66112380Y-59539285D01*
X70207142Y-33186666D02*
X70254761Y-33234285D01*
X70302380Y-33377142D01*
X70302380Y-33472380D01*
X70254761Y-33615238D01*
X70159523Y-33710476D01*
X70064285Y-33758095D01*
X69873809Y-33805714D01*
X69730952Y-33805714D01*
X69540476Y-33758095D01*
X69445238Y-33710476D01*
X69350000Y-33615238D01*
X69302380Y-33472380D01*
X69302380Y-33377142D01*
X69350000Y-33234285D01*
X69397619Y-33186666D01*
X69302380Y-32853333D02*
X69302380Y-32234285D01*
X69683333Y-32567619D01*
X69683333Y-32424761D01*
X69730952Y-32329523D01*
X69778571Y-32281904D01*
X69873809Y-32234285D01*
X70111904Y-32234285D01*
X70207142Y-32281904D01*
X70254761Y-32329523D01*
X70302380Y-32424761D01*
X70302380Y-32710476D01*
X70254761Y-32805714D01*
X70207142Y-32853333D01*
X74270142Y-66079666D02*
X74317761Y-66127285D01*
X74365380Y-66270142D01*
X74365380Y-66365380D01*
X74317761Y-66508238D01*
X74222523Y-66603476D01*
X74127285Y-66651095D01*
X73936809Y-66698714D01*
X73793952Y-66698714D01*
X73603476Y-66651095D01*
X73508238Y-66603476D01*
X73413000Y-66508238D01*
X73365380Y-66365380D01*
X73365380Y-66270142D01*
X73413000Y-66127285D01*
X73460619Y-66079666D01*
X73698714Y-65222523D02*
X74365380Y-65222523D01*
X73317761Y-65460619D02*
X74032047Y-65698714D01*
X74032047Y-65079666D01*
X53848095Y-56860000D02*
X53752857Y-56812380D01*
X53610000Y-56812380D01*
X53467142Y-56860000D01*
X53371904Y-56955238D01*
X53324285Y-57050476D01*
X53276666Y-57240952D01*
X53276666Y-57383809D01*
X53324285Y-57574285D01*
X53371904Y-57669523D01*
X53467142Y-57764761D01*
X53610000Y-57812380D01*
X53705238Y-57812380D01*
X53848095Y-57764761D01*
X53895714Y-57717142D01*
X53895714Y-57383809D01*
X53705238Y-57383809D01*
X54324285Y-57812380D02*
X54324285Y-56812380D01*
X54895714Y-57812380D01*
X54895714Y-56812380D01*
X55371904Y-57812380D02*
X55371904Y-56812380D01*
X55610000Y-56812380D01*
X55752857Y-56860000D01*
X55848095Y-56955238D01*
X55895714Y-57050476D01*
X55943333Y-57240952D01*
X55943333Y-57383809D01*
X55895714Y-57574285D01*
X55848095Y-57669523D01*
X55752857Y-57764761D01*
X55610000Y-57812380D01*
X55371904Y-57812380D01*
X53443333Y-64917142D02*
X53395714Y-64964761D01*
X53252857Y-65012380D01*
X53157619Y-65012380D01*
X53014761Y-64964761D01*
X52919523Y-64869523D01*
X52871904Y-64774285D01*
X52824285Y-64583809D01*
X52824285Y-64440952D01*
X52871904Y-64250476D01*
X52919523Y-64155238D01*
X53014761Y-64060000D01*
X53157619Y-64012380D01*
X53252857Y-64012380D01*
X53395714Y-64060000D01*
X53443333Y-64107619D01*
X54014761Y-65012380D02*
X53919523Y-64964761D01*
X53871904Y-64917142D01*
X53824285Y-64821904D01*
X53824285Y-64536190D01*
X53871904Y-64440952D01*
X53919523Y-64393333D01*
X54014761Y-64345714D01*
X54157619Y-64345714D01*
X54252857Y-64393333D01*
X54300476Y-64440952D01*
X54348095Y-64536190D01*
X54348095Y-64821904D01*
X54300476Y-64917142D01*
X54252857Y-64964761D01*
X54157619Y-65012380D01*
X54014761Y-65012380D01*
X54919523Y-65012380D02*
X54824285Y-64964761D01*
X54776666Y-64869523D01*
X54776666Y-64012380D01*
X55443333Y-65012380D02*
X55348095Y-64964761D01*
X55300476Y-64917142D01*
X55252857Y-64821904D01*
X55252857Y-64536190D01*
X55300476Y-64440952D01*
X55348095Y-64393333D01*
X55443333Y-64345714D01*
X55586190Y-64345714D01*
X55681428Y-64393333D01*
X55729047Y-64440952D01*
X55776666Y-64536190D01*
X55776666Y-64821904D01*
X55729047Y-64917142D01*
X55681428Y-64964761D01*
X55586190Y-65012380D01*
X55443333Y-65012380D01*
X56205238Y-65012380D02*
X56205238Y-64345714D01*
X56205238Y-64536190D02*
X56252857Y-64440952D01*
X56300476Y-64393333D01*
X56395714Y-64345714D01*
X56490952Y-64345714D01*
X53848095Y-55170000D02*
X53752857Y-55122380D01*
X53610000Y-55122380D01*
X53467142Y-55170000D01*
X53371904Y-55265238D01*
X53324285Y-55360476D01*
X53276666Y-55550952D01*
X53276666Y-55693809D01*
X53324285Y-55884285D01*
X53371904Y-55979523D01*
X53467142Y-56074761D01*
X53610000Y-56122380D01*
X53705238Y-56122380D01*
X53848095Y-56074761D01*
X53895714Y-56027142D01*
X53895714Y-55693809D01*
X53705238Y-55693809D01*
X54324285Y-56122380D02*
X54324285Y-55122380D01*
X54895714Y-56122380D01*
X54895714Y-55122380D01*
X55371904Y-56122380D02*
X55371904Y-55122380D01*
X55610000Y-55122380D01*
X55752857Y-55170000D01*
X55848095Y-55265238D01*
X55895714Y-55360476D01*
X55943333Y-55550952D01*
X55943333Y-55693809D01*
X55895714Y-55884285D01*
X55848095Y-55979523D01*
X55752857Y-56074761D01*
X55610000Y-56122380D01*
X55371904Y-56122380D01*
X53348095Y-48922380D02*
X52871904Y-48922380D01*
X52871904Y-47922380D01*
X54110000Y-48255714D02*
X54110000Y-48922380D01*
X53681428Y-48255714D02*
X53681428Y-48779523D01*
X53729047Y-48874761D01*
X53824285Y-48922380D01*
X53967142Y-48922380D01*
X54062380Y-48874761D01*
X54110000Y-48827142D01*
X54586190Y-48922380D02*
X54586190Y-48255714D01*
X54586190Y-48350952D02*
X54633809Y-48303333D01*
X54729047Y-48255714D01*
X54871904Y-48255714D01*
X54967142Y-48303333D01*
X55014761Y-48398571D01*
X55014761Y-48922380D01*
X55014761Y-48398571D02*
X55062380Y-48303333D01*
X55157619Y-48255714D01*
X55300476Y-48255714D01*
X55395714Y-48303333D01*
X55443333Y-48398571D01*
X55443333Y-48922380D01*
X56348095Y-48922380D02*
X56348095Y-48398571D01*
X56300476Y-48303333D01*
X56205238Y-48255714D01*
X56014761Y-48255714D01*
X55919523Y-48303333D01*
X56348095Y-48874761D02*
X56252857Y-48922380D01*
X56014761Y-48922380D01*
X55919523Y-48874761D01*
X55871904Y-48779523D01*
X55871904Y-48684285D01*
X55919523Y-48589047D01*
X56014761Y-48541428D01*
X56252857Y-48541428D01*
X56348095Y-48493809D01*
X56332380Y-40806666D02*
X56332380Y-41282857D01*
X55332380Y-41282857D01*
X56332380Y-39949523D02*
X56332380Y-40520952D01*
X56332380Y-40235238D02*
X55332380Y-40235238D01*
X55475238Y-40330476D01*
X55570476Y-40425714D01*
X55618095Y-40520952D01*
X51402380Y-27596666D02*
X50926190Y-27930000D01*
X51402380Y-28168095D02*
X50402380Y-28168095D01*
X50402380Y-27787142D01*
X50450000Y-27691904D01*
X50497619Y-27644285D01*
X50592857Y-27596666D01*
X50735714Y-27596666D01*
X50830952Y-27644285D01*
X50878571Y-27691904D01*
X50926190Y-27787142D01*
X50926190Y-28168095D01*
X51402380Y-26644285D02*
X51402380Y-27215714D01*
X51402380Y-26930000D02*
X50402380Y-26930000D01*
X50545238Y-27025238D01*
X50640476Y-27120476D01*
X50688095Y-27215714D01*
X65857380Y-28741666D02*
X65381190Y-29075000D01*
X65857380Y-29313095D02*
X64857380Y-29313095D01*
X64857380Y-28932142D01*
X64905000Y-28836904D01*
X64952619Y-28789285D01*
X65047857Y-28741666D01*
X65190714Y-28741666D01*
X65285952Y-28789285D01*
X65333571Y-28836904D01*
X65381190Y-28932142D01*
X65381190Y-29313095D01*
X64952619Y-28360714D02*
X64905000Y-28313095D01*
X64857380Y-28217857D01*
X64857380Y-27979761D01*
X64905000Y-27884523D01*
X64952619Y-27836904D01*
X65047857Y-27789285D01*
X65143095Y-27789285D01*
X65285952Y-27836904D01*
X65857380Y-28408333D01*
X65857380Y-27789285D01*
X71952380Y-28741666D02*
X71476190Y-29075000D01*
X71952380Y-29313095D02*
X70952380Y-29313095D01*
X70952380Y-28932142D01*
X71000000Y-28836904D01*
X71047619Y-28789285D01*
X71142857Y-28741666D01*
X71285714Y-28741666D01*
X71380952Y-28789285D01*
X71428571Y-28836904D01*
X71476190Y-28932142D01*
X71476190Y-29313095D01*
X70952380Y-28408333D02*
X70952380Y-27789285D01*
X71333333Y-28122619D01*
X71333333Y-27979761D01*
X71380952Y-27884523D01*
X71428571Y-27836904D01*
X71523809Y-27789285D01*
X71761904Y-27789285D01*
X71857142Y-27836904D01*
X71904761Y-27884523D01*
X71952380Y-27979761D01*
X71952380Y-28265476D01*
X71904761Y-28360714D01*
X71857142Y-28408333D01*
X65857380Y-33186666D02*
X65381190Y-33520000D01*
X65857380Y-33758095D02*
X64857380Y-33758095D01*
X64857380Y-33377142D01*
X64905000Y-33281904D01*
X64952619Y-33234285D01*
X65047857Y-33186666D01*
X65190714Y-33186666D01*
X65285952Y-33234285D01*
X65333571Y-33281904D01*
X65381190Y-33377142D01*
X65381190Y-33758095D01*
X65190714Y-32329523D02*
X65857380Y-32329523D01*
X64809761Y-32567619D02*
X65524047Y-32805714D01*
X65524047Y-32186666D01*
X66492380Y-52236666D02*
X66016190Y-52570000D01*
X66492380Y-52808095D02*
X65492380Y-52808095D01*
X65492380Y-52427142D01*
X65540000Y-52331904D01*
X65587619Y-52284285D01*
X65682857Y-52236666D01*
X65825714Y-52236666D01*
X65920952Y-52284285D01*
X65968571Y-52331904D01*
X66016190Y-52427142D01*
X66016190Y-52808095D01*
X65492380Y-51331904D02*
X65492380Y-51808095D01*
X65968571Y-51855714D01*
X65920952Y-51808095D01*
X65873333Y-51712857D01*
X65873333Y-51474761D01*
X65920952Y-51379523D01*
X65968571Y-51331904D01*
X66063809Y-51284285D01*
X66301904Y-51284285D01*
X66397142Y-51331904D01*
X66444761Y-51379523D01*
X66492380Y-51474761D01*
X66492380Y-51712857D01*
X66444761Y-51808095D01*
X66397142Y-51855714D01*
X70302380Y-52236666D02*
X69826190Y-52570000D01*
X70302380Y-52808095D02*
X69302380Y-52808095D01*
X69302380Y-52427142D01*
X69350000Y-52331904D01*
X69397619Y-52284285D01*
X69492857Y-52236666D01*
X69635714Y-52236666D01*
X69730952Y-52284285D01*
X69778571Y-52331904D01*
X69826190Y-52427142D01*
X69826190Y-52808095D01*
X69302380Y-51379523D02*
X69302380Y-51570000D01*
X69350000Y-51665238D01*
X69397619Y-51712857D01*
X69540476Y-51808095D01*
X69730952Y-51855714D01*
X70111904Y-51855714D01*
X70207142Y-51808095D01*
X70254761Y-51760476D01*
X70302380Y-51665238D01*
X70302380Y-51474761D01*
X70254761Y-51379523D01*
X70207142Y-51331904D01*
X70111904Y-51284285D01*
X69873809Y-51284285D01*
X69778571Y-51331904D01*
X69730952Y-51379523D01*
X69683333Y-51474761D01*
X69683333Y-51665238D01*
X69730952Y-51760476D01*
X69778571Y-51808095D01*
X69873809Y-51855714D01*
X66675095Y-66127380D02*
X66675095Y-66936904D01*
X66722714Y-67032142D01*
X66770333Y-67079761D01*
X66865571Y-67127380D01*
X67056047Y-67127380D01*
X67151285Y-67079761D01*
X67198904Y-67032142D01*
X67246523Y-66936904D01*
X67246523Y-66127380D01*
X68246523Y-67127380D02*
X67675095Y-67127380D01*
X67960809Y-67127380D02*
X67960809Y-66127380D01*
X67865571Y-66270238D01*
X67770333Y-66365476D01*
X67675095Y-66413095D01*
X68453095Y-22947380D02*
X68453095Y-23756904D01*
X68500714Y-23852142D01*
X68548333Y-23899761D01*
X68643571Y-23947380D01*
X68834047Y-23947380D01*
X68929285Y-23899761D01*
X68976904Y-23852142D01*
X69024523Y-23756904D01*
X69024523Y-22947380D01*
X70024523Y-23947380D02*
X69453095Y-23947380D01*
X69738809Y-23947380D02*
X69738809Y-22947380D01*
X69643571Y-23090238D01*
X69548333Y-23185476D01*
X69453095Y-23233095D01*
M02*
