G04 #@! TF.GenerationSoftware,KiCad,Pcbnew,(5.1.5)-3*
G04 #@! TF.CreationDate,2020-08-12T10:23:50-04:00*
G04 #@! TF.ProjectId,vic20-svideoLHM,76696332-302d-4737-9669-64656f4c484d,rev?*
G04 #@! TF.SameCoordinates,Original*
G04 #@! TF.FileFunction,Copper,L1,Top*
G04 #@! TF.FilePolarity,Positive*
%FSLAX46Y46*%
G04 Gerber Fmt 4.6, Leading zero omitted, Abs format (unit mm)*
G04 Created by KiCad (PCBNEW (5.1.5)-3) date 2020-08-12 10:23:50*
%MOMM*%
%LPD*%
G04 APERTURE LIST*
%ADD10O,1.600000X1.600000*%
%ADD11O,1.000000X1.000000*%
%ADD12R,1.600000X1.600000*%
%ADD13C,0.100000*%
%ADD14R,1.700000X1.700000*%
%ADD15O,1.700000X1.700000*%
%ADD16C,1.600000*%
%ADD17C,1.440000*%
%ADD18O,1.600000X2.000000*%
%ADD19C,0.500000*%
%ADD20C,1.500000*%
%ADD21C,0.750000*%
%ADD22C,0.533000*%
%ADD23C,0.254000*%
G04 APERTURE END LIST*
D10*
X74295000Y-22657001D03*
X59055000Y-70917001D03*
X74295000Y-25197001D03*
X59055000Y-68377001D03*
X74295000Y-27737001D03*
X59055000Y-65837001D03*
X74295000Y-30277001D03*
X59055000Y-63297001D03*
X74295000Y-32817001D03*
X59055000Y-60757001D03*
X74295000Y-35357001D03*
X59055000Y-58217001D03*
X74295000Y-37897001D03*
X59055000Y-55677001D03*
X74295000Y-40437001D03*
X59055000Y-53137001D03*
X74295000Y-42977001D03*
X59055000Y-50597001D03*
X74295000Y-45517001D03*
X59055000Y-48057001D03*
X74295000Y-48057001D03*
X59055000Y-45517001D03*
X74295000Y-50597001D03*
X59055000Y-42977001D03*
X74295000Y-53137001D03*
X59055000Y-40437001D03*
X74295000Y-55677001D03*
X59055000Y-37897001D03*
X74295000Y-58217001D03*
X59055000Y-35357001D03*
X74295000Y-60757001D03*
X59055000Y-32817001D03*
X74295000Y-63297001D03*
X59055000Y-30277001D03*
X74295000Y-65837001D03*
D11*
X59055000Y-27737001D03*
D10*
X74295000Y-68377001D03*
D11*
X59055000Y-25197001D03*
D10*
X74295000Y-70917001D03*
D12*
X59055000Y-22657001D03*
G04 #@! TA.AperFunction,SMDPad,CuDef*
D13*
G36*
X67624505Y-36331204D02*
G01*
X67648773Y-36334804D01*
X67672572Y-36340765D01*
X67695671Y-36349030D01*
X67717850Y-36359520D01*
X67738893Y-36372132D01*
X67758599Y-36386747D01*
X67776777Y-36403223D01*
X67793253Y-36421401D01*
X67807868Y-36441107D01*
X67820480Y-36462150D01*
X67830970Y-36484329D01*
X67839235Y-36507428D01*
X67845196Y-36531227D01*
X67848796Y-36555495D01*
X67850000Y-36579999D01*
X67850000Y-38330001D01*
X67848796Y-38354505D01*
X67845196Y-38378773D01*
X67839235Y-38402572D01*
X67830970Y-38425671D01*
X67820480Y-38447850D01*
X67807868Y-38468893D01*
X67793253Y-38488599D01*
X67776777Y-38506777D01*
X67758599Y-38523253D01*
X67738893Y-38537868D01*
X67717850Y-38550480D01*
X67695671Y-38560970D01*
X67672572Y-38569235D01*
X67648773Y-38575196D01*
X67624505Y-38578796D01*
X67600001Y-38580000D01*
X65749999Y-38580000D01*
X65725495Y-38578796D01*
X65701227Y-38575196D01*
X65677428Y-38569235D01*
X65654329Y-38560970D01*
X65632150Y-38550480D01*
X65611107Y-38537868D01*
X65591401Y-38523253D01*
X65573223Y-38506777D01*
X65556747Y-38488599D01*
X65542132Y-38468893D01*
X65529520Y-38447850D01*
X65519030Y-38425671D01*
X65510765Y-38402572D01*
X65504804Y-38378773D01*
X65501204Y-38354505D01*
X65500000Y-38330001D01*
X65500000Y-36579999D01*
X65501204Y-36555495D01*
X65504804Y-36531227D01*
X65510765Y-36507428D01*
X65519030Y-36484329D01*
X65529520Y-36462150D01*
X65542132Y-36441107D01*
X65556747Y-36421401D01*
X65573223Y-36403223D01*
X65591401Y-36386747D01*
X65611107Y-36372132D01*
X65632150Y-36359520D01*
X65654329Y-36349030D01*
X65677428Y-36340765D01*
X65701227Y-36334804D01*
X65725495Y-36331204D01*
X65749999Y-36330000D01*
X67600001Y-36330000D01*
X67624505Y-36331204D01*
G37*
G04 #@! TD.AperFunction*
G04 #@! TA.AperFunction,SMDPad,CuDef*
G36*
X67624505Y-41431204D02*
G01*
X67648773Y-41434804D01*
X67672572Y-41440765D01*
X67695671Y-41449030D01*
X67717850Y-41459520D01*
X67738893Y-41472132D01*
X67758599Y-41486747D01*
X67776777Y-41503223D01*
X67793253Y-41521401D01*
X67807868Y-41541107D01*
X67820480Y-41562150D01*
X67830970Y-41584329D01*
X67839235Y-41607428D01*
X67845196Y-41631227D01*
X67848796Y-41655495D01*
X67850000Y-41679999D01*
X67850000Y-43430001D01*
X67848796Y-43454505D01*
X67845196Y-43478773D01*
X67839235Y-43502572D01*
X67830970Y-43525671D01*
X67820480Y-43547850D01*
X67807868Y-43568893D01*
X67793253Y-43588599D01*
X67776777Y-43606777D01*
X67758599Y-43623253D01*
X67738893Y-43637868D01*
X67717850Y-43650480D01*
X67695671Y-43660970D01*
X67672572Y-43669235D01*
X67648773Y-43675196D01*
X67624505Y-43678796D01*
X67600001Y-43680000D01*
X65749999Y-43680000D01*
X65725495Y-43678796D01*
X65701227Y-43675196D01*
X65677428Y-43669235D01*
X65654329Y-43660970D01*
X65632150Y-43650480D01*
X65611107Y-43637868D01*
X65591401Y-43623253D01*
X65573223Y-43606777D01*
X65556747Y-43588599D01*
X65542132Y-43568893D01*
X65529520Y-43547850D01*
X65519030Y-43525671D01*
X65510765Y-43502572D01*
X65504804Y-43478773D01*
X65501204Y-43454505D01*
X65500000Y-43430001D01*
X65500000Y-41679999D01*
X65501204Y-41655495D01*
X65504804Y-41631227D01*
X65510765Y-41607428D01*
X65519030Y-41584329D01*
X65529520Y-41562150D01*
X65542132Y-41541107D01*
X65556747Y-41521401D01*
X65573223Y-41503223D01*
X65591401Y-41486747D01*
X65611107Y-41472132D01*
X65632150Y-41459520D01*
X65654329Y-41449030D01*
X65677428Y-41440765D01*
X65701227Y-41434804D01*
X65725495Y-41431204D01*
X65749999Y-41430000D01*
X67600001Y-41430000D01*
X67624505Y-41431204D01*
G37*
G04 #@! TD.AperFunction*
G04 #@! TA.AperFunction,SMDPad,CuDef*
G36*
X67784505Y-60776204D02*
G01*
X67808773Y-60779804D01*
X67832572Y-60785765D01*
X67855671Y-60794030D01*
X67877850Y-60804520D01*
X67898893Y-60817132D01*
X67918599Y-60831747D01*
X67936777Y-60848223D01*
X67953253Y-60866401D01*
X67967868Y-60886107D01*
X67980480Y-60907150D01*
X67990970Y-60929329D01*
X67999235Y-60952428D01*
X68005196Y-60976227D01*
X68008796Y-61000495D01*
X68010000Y-61024999D01*
X68010000Y-61675001D01*
X68008796Y-61699505D01*
X68005196Y-61723773D01*
X67999235Y-61747572D01*
X67990970Y-61770671D01*
X67980480Y-61792850D01*
X67967868Y-61813893D01*
X67953253Y-61833599D01*
X67936777Y-61851777D01*
X67918599Y-61868253D01*
X67898893Y-61882868D01*
X67877850Y-61895480D01*
X67855671Y-61905970D01*
X67832572Y-61914235D01*
X67808773Y-61920196D01*
X67784505Y-61923796D01*
X67760001Y-61925000D01*
X66859999Y-61925000D01*
X66835495Y-61923796D01*
X66811227Y-61920196D01*
X66787428Y-61914235D01*
X66764329Y-61905970D01*
X66742150Y-61895480D01*
X66721107Y-61882868D01*
X66701401Y-61868253D01*
X66683223Y-61851777D01*
X66666747Y-61833599D01*
X66652132Y-61813893D01*
X66639520Y-61792850D01*
X66629030Y-61770671D01*
X66620765Y-61747572D01*
X66614804Y-61723773D01*
X66611204Y-61699505D01*
X66610000Y-61675001D01*
X66610000Y-61024999D01*
X66611204Y-61000495D01*
X66614804Y-60976227D01*
X66620765Y-60952428D01*
X66629030Y-60929329D01*
X66639520Y-60907150D01*
X66652132Y-60886107D01*
X66666747Y-60866401D01*
X66683223Y-60848223D01*
X66701401Y-60831747D01*
X66721107Y-60817132D01*
X66742150Y-60804520D01*
X66764329Y-60794030D01*
X66787428Y-60785765D01*
X66811227Y-60779804D01*
X66835495Y-60776204D01*
X66859999Y-60775000D01*
X67760001Y-60775000D01*
X67784505Y-60776204D01*
G37*
G04 #@! TD.AperFunction*
G04 #@! TA.AperFunction,SMDPad,CuDef*
G36*
X67784505Y-58726204D02*
G01*
X67808773Y-58729804D01*
X67832572Y-58735765D01*
X67855671Y-58744030D01*
X67877850Y-58754520D01*
X67898893Y-58767132D01*
X67918599Y-58781747D01*
X67936777Y-58798223D01*
X67953253Y-58816401D01*
X67967868Y-58836107D01*
X67980480Y-58857150D01*
X67990970Y-58879329D01*
X67999235Y-58902428D01*
X68005196Y-58926227D01*
X68008796Y-58950495D01*
X68010000Y-58974999D01*
X68010000Y-59625001D01*
X68008796Y-59649505D01*
X68005196Y-59673773D01*
X67999235Y-59697572D01*
X67990970Y-59720671D01*
X67980480Y-59742850D01*
X67967868Y-59763893D01*
X67953253Y-59783599D01*
X67936777Y-59801777D01*
X67918599Y-59818253D01*
X67898893Y-59832868D01*
X67877850Y-59845480D01*
X67855671Y-59855970D01*
X67832572Y-59864235D01*
X67808773Y-59870196D01*
X67784505Y-59873796D01*
X67760001Y-59875000D01*
X66859999Y-59875000D01*
X66835495Y-59873796D01*
X66811227Y-59870196D01*
X66787428Y-59864235D01*
X66764329Y-59855970D01*
X66742150Y-59845480D01*
X66721107Y-59832868D01*
X66701401Y-59818253D01*
X66683223Y-59801777D01*
X66666747Y-59783599D01*
X66652132Y-59763893D01*
X66639520Y-59742850D01*
X66629030Y-59720671D01*
X66620765Y-59697572D01*
X66614804Y-59673773D01*
X66611204Y-59649505D01*
X66610000Y-59625001D01*
X66610000Y-58974999D01*
X66611204Y-58950495D01*
X66614804Y-58926227D01*
X66620765Y-58902428D01*
X66629030Y-58879329D01*
X66639520Y-58857150D01*
X66652132Y-58836107D01*
X66666747Y-58816401D01*
X66683223Y-58798223D01*
X66701401Y-58781747D01*
X66721107Y-58767132D01*
X66742150Y-58754520D01*
X66764329Y-58744030D01*
X66787428Y-58735765D01*
X66811227Y-58729804D01*
X66835495Y-58726204D01*
X66859999Y-58725000D01*
X67760001Y-58725000D01*
X67784505Y-58726204D01*
G37*
G04 #@! TD.AperFunction*
G04 #@! TA.AperFunction,SMDPad,CuDef*
G36*
X70324505Y-31421204D02*
G01*
X70348773Y-31424804D01*
X70372572Y-31430765D01*
X70395671Y-31439030D01*
X70417850Y-31449520D01*
X70438893Y-31462132D01*
X70458599Y-31476747D01*
X70476777Y-31493223D01*
X70493253Y-31511401D01*
X70507868Y-31531107D01*
X70520480Y-31552150D01*
X70530970Y-31574329D01*
X70539235Y-31597428D01*
X70545196Y-31621227D01*
X70548796Y-31645495D01*
X70550000Y-31669999D01*
X70550000Y-32320001D01*
X70548796Y-32344505D01*
X70545196Y-32368773D01*
X70539235Y-32392572D01*
X70530970Y-32415671D01*
X70520480Y-32437850D01*
X70507868Y-32458893D01*
X70493253Y-32478599D01*
X70476777Y-32496777D01*
X70458599Y-32513253D01*
X70438893Y-32527868D01*
X70417850Y-32540480D01*
X70395671Y-32550970D01*
X70372572Y-32559235D01*
X70348773Y-32565196D01*
X70324505Y-32568796D01*
X70300001Y-32570000D01*
X69399999Y-32570000D01*
X69375495Y-32568796D01*
X69351227Y-32565196D01*
X69327428Y-32559235D01*
X69304329Y-32550970D01*
X69282150Y-32540480D01*
X69261107Y-32527868D01*
X69241401Y-32513253D01*
X69223223Y-32496777D01*
X69206747Y-32478599D01*
X69192132Y-32458893D01*
X69179520Y-32437850D01*
X69169030Y-32415671D01*
X69160765Y-32392572D01*
X69154804Y-32368773D01*
X69151204Y-32344505D01*
X69150000Y-32320001D01*
X69150000Y-31669999D01*
X69151204Y-31645495D01*
X69154804Y-31621227D01*
X69160765Y-31597428D01*
X69169030Y-31574329D01*
X69179520Y-31552150D01*
X69192132Y-31531107D01*
X69206747Y-31511401D01*
X69223223Y-31493223D01*
X69241401Y-31476747D01*
X69261107Y-31462132D01*
X69282150Y-31449520D01*
X69304329Y-31439030D01*
X69327428Y-31430765D01*
X69351227Y-31424804D01*
X69375495Y-31421204D01*
X69399999Y-31420000D01*
X70300001Y-31420000D01*
X70324505Y-31421204D01*
G37*
G04 #@! TD.AperFunction*
G04 #@! TA.AperFunction,SMDPad,CuDef*
G36*
X70324505Y-33471204D02*
G01*
X70348773Y-33474804D01*
X70372572Y-33480765D01*
X70395671Y-33489030D01*
X70417850Y-33499520D01*
X70438893Y-33512132D01*
X70458599Y-33526747D01*
X70476777Y-33543223D01*
X70493253Y-33561401D01*
X70507868Y-33581107D01*
X70520480Y-33602150D01*
X70530970Y-33624329D01*
X70539235Y-33647428D01*
X70545196Y-33671227D01*
X70548796Y-33695495D01*
X70550000Y-33719999D01*
X70550000Y-34370001D01*
X70548796Y-34394505D01*
X70545196Y-34418773D01*
X70539235Y-34442572D01*
X70530970Y-34465671D01*
X70520480Y-34487850D01*
X70507868Y-34508893D01*
X70493253Y-34528599D01*
X70476777Y-34546777D01*
X70458599Y-34563253D01*
X70438893Y-34577868D01*
X70417850Y-34590480D01*
X70395671Y-34600970D01*
X70372572Y-34609235D01*
X70348773Y-34615196D01*
X70324505Y-34618796D01*
X70300001Y-34620000D01*
X69399999Y-34620000D01*
X69375495Y-34618796D01*
X69351227Y-34615196D01*
X69327428Y-34609235D01*
X69304329Y-34600970D01*
X69282150Y-34590480D01*
X69261107Y-34577868D01*
X69241401Y-34563253D01*
X69223223Y-34546777D01*
X69206747Y-34528599D01*
X69192132Y-34508893D01*
X69179520Y-34487850D01*
X69169030Y-34465671D01*
X69160765Y-34442572D01*
X69154804Y-34418773D01*
X69151204Y-34394505D01*
X69150000Y-34370001D01*
X69150000Y-33719999D01*
X69151204Y-33695495D01*
X69154804Y-33671227D01*
X69160765Y-33647428D01*
X69169030Y-33624329D01*
X69179520Y-33602150D01*
X69192132Y-33581107D01*
X69206747Y-33561401D01*
X69223223Y-33543223D01*
X69241401Y-33526747D01*
X69261107Y-33512132D01*
X69282150Y-33499520D01*
X69304329Y-33489030D01*
X69327428Y-33480765D01*
X69351227Y-33474804D01*
X69375495Y-33471204D01*
X69399999Y-33470000D01*
X70300001Y-33470000D01*
X70324505Y-33471204D01*
G37*
G04 #@! TD.AperFunction*
G04 #@! TA.AperFunction,SMDPad,CuDef*
G36*
X72737505Y-64314204D02*
G01*
X72761773Y-64317804D01*
X72785572Y-64323765D01*
X72808671Y-64332030D01*
X72830850Y-64342520D01*
X72851893Y-64355132D01*
X72871599Y-64369747D01*
X72889777Y-64386223D01*
X72906253Y-64404401D01*
X72920868Y-64424107D01*
X72933480Y-64445150D01*
X72943970Y-64467329D01*
X72952235Y-64490428D01*
X72958196Y-64514227D01*
X72961796Y-64538495D01*
X72963000Y-64562999D01*
X72963000Y-65213001D01*
X72961796Y-65237505D01*
X72958196Y-65261773D01*
X72952235Y-65285572D01*
X72943970Y-65308671D01*
X72933480Y-65330850D01*
X72920868Y-65351893D01*
X72906253Y-65371599D01*
X72889777Y-65389777D01*
X72871599Y-65406253D01*
X72851893Y-65420868D01*
X72830850Y-65433480D01*
X72808671Y-65443970D01*
X72785572Y-65452235D01*
X72761773Y-65458196D01*
X72737505Y-65461796D01*
X72713001Y-65463000D01*
X71812999Y-65463000D01*
X71788495Y-65461796D01*
X71764227Y-65458196D01*
X71740428Y-65452235D01*
X71717329Y-65443970D01*
X71695150Y-65433480D01*
X71674107Y-65420868D01*
X71654401Y-65406253D01*
X71636223Y-65389777D01*
X71619747Y-65371599D01*
X71605132Y-65351893D01*
X71592520Y-65330850D01*
X71582030Y-65308671D01*
X71573765Y-65285572D01*
X71567804Y-65261773D01*
X71564204Y-65237505D01*
X71563000Y-65213001D01*
X71563000Y-64562999D01*
X71564204Y-64538495D01*
X71567804Y-64514227D01*
X71573765Y-64490428D01*
X71582030Y-64467329D01*
X71592520Y-64445150D01*
X71605132Y-64424107D01*
X71619747Y-64404401D01*
X71636223Y-64386223D01*
X71654401Y-64369747D01*
X71674107Y-64355132D01*
X71695150Y-64342520D01*
X71717329Y-64332030D01*
X71740428Y-64323765D01*
X71764227Y-64317804D01*
X71788495Y-64314204D01*
X71812999Y-64313000D01*
X72713001Y-64313000D01*
X72737505Y-64314204D01*
G37*
G04 #@! TD.AperFunction*
G04 #@! TA.AperFunction,SMDPad,CuDef*
G36*
X72737505Y-66364204D02*
G01*
X72761773Y-66367804D01*
X72785572Y-66373765D01*
X72808671Y-66382030D01*
X72830850Y-66392520D01*
X72851893Y-66405132D01*
X72871599Y-66419747D01*
X72889777Y-66436223D01*
X72906253Y-66454401D01*
X72920868Y-66474107D01*
X72933480Y-66495150D01*
X72943970Y-66517329D01*
X72952235Y-66540428D01*
X72958196Y-66564227D01*
X72961796Y-66588495D01*
X72963000Y-66612999D01*
X72963000Y-67263001D01*
X72961796Y-67287505D01*
X72958196Y-67311773D01*
X72952235Y-67335572D01*
X72943970Y-67358671D01*
X72933480Y-67380850D01*
X72920868Y-67401893D01*
X72906253Y-67421599D01*
X72889777Y-67439777D01*
X72871599Y-67456253D01*
X72851893Y-67470868D01*
X72830850Y-67483480D01*
X72808671Y-67493970D01*
X72785572Y-67502235D01*
X72761773Y-67508196D01*
X72737505Y-67511796D01*
X72713001Y-67513000D01*
X71812999Y-67513000D01*
X71788495Y-67511796D01*
X71764227Y-67508196D01*
X71740428Y-67502235D01*
X71717329Y-67493970D01*
X71695150Y-67483480D01*
X71674107Y-67470868D01*
X71654401Y-67456253D01*
X71636223Y-67439777D01*
X71619747Y-67421599D01*
X71605132Y-67401893D01*
X71592520Y-67380850D01*
X71582030Y-67358671D01*
X71573765Y-67335572D01*
X71567804Y-67311773D01*
X71564204Y-67287505D01*
X71563000Y-67263001D01*
X71563000Y-66612999D01*
X71564204Y-66588495D01*
X71567804Y-66564227D01*
X71573765Y-66540428D01*
X71582030Y-66517329D01*
X71592520Y-66495150D01*
X71605132Y-66474107D01*
X71619747Y-66454401D01*
X71636223Y-66436223D01*
X71654401Y-66419747D01*
X71674107Y-66405132D01*
X71695150Y-66392520D01*
X71717329Y-66382030D01*
X71740428Y-66373765D01*
X71764227Y-66367804D01*
X71788495Y-66364204D01*
X71812999Y-66363000D01*
X72713001Y-66363000D01*
X72737505Y-66364204D01*
G37*
G04 #@! TD.AperFunction*
D14*
X54610000Y-59690000D03*
D15*
X54610000Y-62230000D03*
X54610000Y-50800000D03*
D14*
X54610000Y-53340000D03*
D16*
X55880000Y-36830000D03*
D10*
X55880000Y-44450000D03*
D17*
X54610000Y-24130000D03*
X54610000Y-26670000D03*
X54610000Y-29210000D03*
G04 #@! TA.AperFunction,SMDPad,CuDef*
D13*
G36*
X65879505Y-29026204D02*
G01*
X65903773Y-29029804D01*
X65927572Y-29035765D01*
X65950671Y-29044030D01*
X65972850Y-29054520D01*
X65993893Y-29067132D01*
X66013599Y-29081747D01*
X66031777Y-29098223D01*
X66048253Y-29116401D01*
X66062868Y-29136107D01*
X66075480Y-29157150D01*
X66085970Y-29179329D01*
X66094235Y-29202428D01*
X66100196Y-29226227D01*
X66103796Y-29250495D01*
X66105000Y-29274999D01*
X66105000Y-29925001D01*
X66103796Y-29949505D01*
X66100196Y-29973773D01*
X66094235Y-29997572D01*
X66085970Y-30020671D01*
X66075480Y-30042850D01*
X66062868Y-30063893D01*
X66048253Y-30083599D01*
X66031777Y-30101777D01*
X66013599Y-30118253D01*
X65993893Y-30132868D01*
X65972850Y-30145480D01*
X65950671Y-30155970D01*
X65927572Y-30164235D01*
X65903773Y-30170196D01*
X65879505Y-30173796D01*
X65855001Y-30175000D01*
X64954999Y-30175000D01*
X64930495Y-30173796D01*
X64906227Y-30170196D01*
X64882428Y-30164235D01*
X64859329Y-30155970D01*
X64837150Y-30145480D01*
X64816107Y-30132868D01*
X64796401Y-30118253D01*
X64778223Y-30101777D01*
X64761747Y-30083599D01*
X64747132Y-30063893D01*
X64734520Y-30042850D01*
X64724030Y-30020671D01*
X64715765Y-29997572D01*
X64709804Y-29973773D01*
X64706204Y-29949505D01*
X64705000Y-29925001D01*
X64705000Y-29274999D01*
X64706204Y-29250495D01*
X64709804Y-29226227D01*
X64715765Y-29202428D01*
X64724030Y-29179329D01*
X64734520Y-29157150D01*
X64747132Y-29136107D01*
X64761747Y-29116401D01*
X64778223Y-29098223D01*
X64796401Y-29081747D01*
X64816107Y-29067132D01*
X64837150Y-29054520D01*
X64859329Y-29044030D01*
X64882428Y-29035765D01*
X64906227Y-29029804D01*
X64930495Y-29026204D01*
X64954999Y-29025000D01*
X65855001Y-29025000D01*
X65879505Y-29026204D01*
G37*
G04 #@! TD.AperFunction*
G04 #@! TA.AperFunction,SMDPad,CuDef*
G36*
X65879505Y-26976204D02*
G01*
X65903773Y-26979804D01*
X65927572Y-26985765D01*
X65950671Y-26994030D01*
X65972850Y-27004520D01*
X65993893Y-27017132D01*
X66013599Y-27031747D01*
X66031777Y-27048223D01*
X66048253Y-27066401D01*
X66062868Y-27086107D01*
X66075480Y-27107150D01*
X66085970Y-27129329D01*
X66094235Y-27152428D01*
X66100196Y-27176227D01*
X66103796Y-27200495D01*
X66105000Y-27224999D01*
X66105000Y-27875001D01*
X66103796Y-27899505D01*
X66100196Y-27923773D01*
X66094235Y-27947572D01*
X66085970Y-27970671D01*
X66075480Y-27992850D01*
X66062868Y-28013893D01*
X66048253Y-28033599D01*
X66031777Y-28051777D01*
X66013599Y-28068253D01*
X65993893Y-28082868D01*
X65972850Y-28095480D01*
X65950671Y-28105970D01*
X65927572Y-28114235D01*
X65903773Y-28120196D01*
X65879505Y-28123796D01*
X65855001Y-28125000D01*
X64954999Y-28125000D01*
X64930495Y-28123796D01*
X64906227Y-28120196D01*
X64882428Y-28114235D01*
X64859329Y-28105970D01*
X64837150Y-28095480D01*
X64816107Y-28082868D01*
X64796401Y-28068253D01*
X64778223Y-28051777D01*
X64761747Y-28033599D01*
X64747132Y-28013893D01*
X64734520Y-27992850D01*
X64724030Y-27970671D01*
X64715765Y-27947572D01*
X64709804Y-27923773D01*
X64706204Y-27899505D01*
X64705000Y-27875001D01*
X64705000Y-27224999D01*
X64706204Y-27200495D01*
X64709804Y-27176227D01*
X64715765Y-27152428D01*
X64724030Y-27129329D01*
X64734520Y-27107150D01*
X64747132Y-27086107D01*
X64761747Y-27066401D01*
X64778223Y-27048223D01*
X64796401Y-27031747D01*
X64816107Y-27017132D01*
X64837150Y-27004520D01*
X64859329Y-26994030D01*
X64882428Y-26985765D01*
X64906227Y-26979804D01*
X64930495Y-26976204D01*
X64954999Y-26975000D01*
X65855001Y-26975000D01*
X65879505Y-26976204D01*
G37*
G04 #@! TD.AperFunction*
G04 #@! TA.AperFunction,SMDPad,CuDef*
G36*
X70324505Y-26976204D02*
G01*
X70348773Y-26979804D01*
X70372572Y-26985765D01*
X70395671Y-26994030D01*
X70417850Y-27004520D01*
X70438893Y-27017132D01*
X70458599Y-27031747D01*
X70476777Y-27048223D01*
X70493253Y-27066401D01*
X70507868Y-27086107D01*
X70520480Y-27107150D01*
X70530970Y-27129329D01*
X70539235Y-27152428D01*
X70545196Y-27176227D01*
X70548796Y-27200495D01*
X70550000Y-27224999D01*
X70550000Y-27875001D01*
X70548796Y-27899505D01*
X70545196Y-27923773D01*
X70539235Y-27947572D01*
X70530970Y-27970671D01*
X70520480Y-27992850D01*
X70507868Y-28013893D01*
X70493253Y-28033599D01*
X70476777Y-28051777D01*
X70458599Y-28068253D01*
X70438893Y-28082868D01*
X70417850Y-28095480D01*
X70395671Y-28105970D01*
X70372572Y-28114235D01*
X70348773Y-28120196D01*
X70324505Y-28123796D01*
X70300001Y-28125000D01*
X69399999Y-28125000D01*
X69375495Y-28123796D01*
X69351227Y-28120196D01*
X69327428Y-28114235D01*
X69304329Y-28105970D01*
X69282150Y-28095480D01*
X69261107Y-28082868D01*
X69241401Y-28068253D01*
X69223223Y-28051777D01*
X69206747Y-28033599D01*
X69192132Y-28013893D01*
X69179520Y-27992850D01*
X69169030Y-27970671D01*
X69160765Y-27947572D01*
X69154804Y-27923773D01*
X69151204Y-27899505D01*
X69150000Y-27875001D01*
X69150000Y-27224999D01*
X69151204Y-27200495D01*
X69154804Y-27176227D01*
X69160765Y-27152428D01*
X69169030Y-27129329D01*
X69179520Y-27107150D01*
X69192132Y-27086107D01*
X69206747Y-27066401D01*
X69223223Y-27048223D01*
X69241401Y-27031747D01*
X69261107Y-27017132D01*
X69282150Y-27004520D01*
X69304329Y-26994030D01*
X69327428Y-26985765D01*
X69351227Y-26979804D01*
X69375495Y-26976204D01*
X69399999Y-26975000D01*
X70300001Y-26975000D01*
X70324505Y-26976204D01*
G37*
G04 #@! TD.AperFunction*
G04 #@! TA.AperFunction,SMDPad,CuDef*
G36*
X70324505Y-29026204D02*
G01*
X70348773Y-29029804D01*
X70372572Y-29035765D01*
X70395671Y-29044030D01*
X70417850Y-29054520D01*
X70438893Y-29067132D01*
X70458599Y-29081747D01*
X70476777Y-29098223D01*
X70493253Y-29116401D01*
X70507868Y-29136107D01*
X70520480Y-29157150D01*
X70530970Y-29179329D01*
X70539235Y-29202428D01*
X70545196Y-29226227D01*
X70548796Y-29250495D01*
X70550000Y-29274999D01*
X70550000Y-29925001D01*
X70548796Y-29949505D01*
X70545196Y-29973773D01*
X70539235Y-29997572D01*
X70530970Y-30020671D01*
X70520480Y-30042850D01*
X70507868Y-30063893D01*
X70493253Y-30083599D01*
X70476777Y-30101777D01*
X70458599Y-30118253D01*
X70438893Y-30132868D01*
X70417850Y-30145480D01*
X70395671Y-30155970D01*
X70372572Y-30164235D01*
X70348773Y-30170196D01*
X70324505Y-30173796D01*
X70300001Y-30175000D01*
X69399999Y-30175000D01*
X69375495Y-30173796D01*
X69351227Y-30170196D01*
X69327428Y-30164235D01*
X69304329Y-30155970D01*
X69282150Y-30145480D01*
X69261107Y-30132868D01*
X69241401Y-30118253D01*
X69223223Y-30101777D01*
X69206747Y-30083599D01*
X69192132Y-30063893D01*
X69179520Y-30042850D01*
X69169030Y-30020671D01*
X69160765Y-29997572D01*
X69154804Y-29973773D01*
X69151204Y-29949505D01*
X69150000Y-29925001D01*
X69150000Y-29274999D01*
X69151204Y-29250495D01*
X69154804Y-29226227D01*
X69160765Y-29202428D01*
X69169030Y-29179329D01*
X69179520Y-29157150D01*
X69192132Y-29136107D01*
X69206747Y-29116401D01*
X69223223Y-29098223D01*
X69241401Y-29081747D01*
X69261107Y-29067132D01*
X69282150Y-29054520D01*
X69304329Y-29044030D01*
X69327428Y-29035765D01*
X69351227Y-29029804D01*
X69375495Y-29026204D01*
X69399999Y-29025000D01*
X70300001Y-29025000D01*
X70324505Y-29026204D01*
G37*
G04 #@! TD.AperFunction*
G04 #@! TA.AperFunction,SMDPad,CuDef*
G36*
X65879505Y-33471204D02*
G01*
X65903773Y-33474804D01*
X65927572Y-33480765D01*
X65950671Y-33489030D01*
X65972850Y-33499520D01*
X65993893Y-33512132D01*
X66013599Y-33526747D01*
X66031777Y-33543223D01*
X66048253Y-33561401D01*
X66062868Y-33581107D01*
X66075480Y-33602150D01*
X66085970Y-33624329D01*
X66094235Y-33647428D01*
X66100196Y-33671227D01*
X66103796Y-33695495D01*
X66105000Y-33719999D01*
X66105000Y-34370001D01*
X66103796Y-34394505D01*
X66100196Y-34418773D01*
X66094235Y-34442572D01*
X66085970Y-34465671D01*
X66075480Y-34487850D01*
X66062868Y-34508893D01*
X66048253Y-34528599D01*
X66031777Y-34546777D01*
X66013599Y-34563253D01*
X65993893Y-34577868D01*
X65972850Y-34590480D01*
X65950671Y-34600970D01*
X65927572Y-34609235D01*
X65903773Y-34615196D01*
X65879505Y-34618796D01*
X65855001Y-34620000D01*
X64954999Y-34620000D01*
X64930495Y-34618796D01*
X64906227Y-34615196D01*
X64882428Y-34609235D01*
X64859329Y-34600970D01*
X64837150Y-34590480D01*
X64816107Y-34577868D01*
X64796401Y-34563253D01*
X64778223Y-34546777D01*
X64761747Y-34528599D01*
X64747132Y-34508893D01*
X64734520Y-34487850D01*
X64724030Y-34465671D01*
X64715765Y-34442572D01*
X64709804Y-34418773D01*
X64706204Y-34394505D01*
X64705000Y-34370001D01*
X64705000Y-33719999D01*
X64706204Y-33695495D01*
X64709804Y-33671227D01*
X64715765Y-33647428D01*
X64724030Y-33624329D01*
X64734520Y-33602150D01*
X64747132Y-33581107D01*
X64761747Y-33561401D01*
X64778223Y-33543223D01*
X64796401Y-33526747D01*
X64816107Y-33512132D01*
X64837150Y-33499520D01*
X64859329Y-33489030D01*
X64882428Y-33480765D01*
X64906227Y-33474804D01*
X64930495Y-33471204D01*
X64954999Y-33470000D01*
X65855001Y-33470000D01*
X65879505Y-33471204D01*
G37*
G04 #@! TD.AperFunction*
G04 #@! TA.AperFunction,SMDPad,CuDef*
G36*
X65879505Y-31421204D02*
G01*
X65903773Y-31424804D01*
X65927572Y-31430765D01*
X65950671Y-31439030D01*
X65972850Y-31449520D01*
X65993893Y-31462132D01*
X66013599Y-31476747D01*
X66031777Y-31493223D01*
X66048253Y-31511401D01*
X66062868Y-31531107D01*
X66075480Y-31552150D01*
X66085970Y-31574329D01*
X66094235Y-31597428D01*
X66100196Y-31621227D01*
X66103796Y-31645495D01*
X66105000Y-31669999D01*
X66105000Y-32320001D01*
X66103796Y-32344505D01*
X66100196Y-32368773D01*
X66094235Y-32392572D01*
X66085970Y-32415671D01*
X66075480Y-32437850D01*
X66062868Y-32458893D01*
X66048253Y-32478599D01*
X66031777Y-32496777D01*
X66013599Y-32513253D01*
X65993893Y-32527868D01*
X65972850Y-32540480D01*
X65950671Y-32550970D01*
X65927572Y-32559235D01*
X65903773Y-32565196D01*
X65879505Y-32568796D01*
X65855001Y-32570000D01*
X64954999Y-32570000D01*
X64930495Y-32568796D01*
X64906227Y-32565196D01*
X64882428Y-32559235D01*
X64859329Y-32550970D01*
X64837150Y-32540480D01*
X64816107Y-32527868D01*
X64796401Y-32513253D01*
X64778223Y-32496777D01*
X64761747Y-32478599D01*
X64747132Y-32458893D01*
X64734520Y-32437850D01*
X64724030Y-32415671D01*
X64715765Y-32392572D01*
X64709804Y-32368773D01*
X64706204Y-32344505D01*
X64705000Y-32320001D01*
X64705000Y-31669999D01*
X64706204Y-31645495D01*
X64709804Y-31621227D01*
X64715765Y-31597428D01*
X64724030Y-31574329D01*
X64734520Y-31552150D01*
X64747132Y-31531107D01*
X64761747Y-31511401D01*
X64778223Y-31493223D01*
X64796401Y-31476747D01*
X64816107Y-31462132D01*
X64837150Y-31449520D01*
X64859329Y-31439030D01*
X64882428Y-31430765D01*
X64906227Y-31424804D01*
X64930495Y-31421204D01*
X64954999Y-31420000D01*
X65855001Y-31420000D01*
X65879505Y-31421204D01*
G37*
G04 #@! TD.AperFunction*
D16*
X66040000Y-55880000D03*
D18*
X66040000Y-48260000D03*
X69850000Y-48260000D03*
D16*
X69850000Y-55880000D03*
G04 #@! TA.AperFunction,SMDPad,CuDef*
D13*
G36*
X70751703Y-68280722D02*
G01*
X70766264Y-68282882D01*
X70780543Y-68286459D01*
X70794403Y-68291418D01*
X70807710Y-68297712D01*
X70820336Y-68305280D01*
X70832159Y-68314048D01*
X70843066Y-68323934D01*
X70852952Y-68334841D01*
X70861720Y-68346664D01*
X70869288Y-68359290D01*
X70875582Y-68372597D01*
X70880541Y-68386457D01*
X70884118Y-68400736D01*
X70886278Y-68415297D01*
X70887000Y-68430000D01*
X70887000Y-68730000D01*
X70886278Y-68744703D01*
X70884118Y-68759264D01*
X70880541Y-68773543D01*
X70875582Y-68787403D01*
X70869288Y-68800710D01*
X70861720Y-68813336D01*
X70852952Y-68825159D01*
X70843066Y-68836066D01*
X70832159Y-68845952D01*
X70820336Y-68854720D01*
X70807710Y-68862288D01*
X70794403Y-68868582D01*
X70780543Y-68873541D01*
X70766264Y-68877118D01*
X70751703Y-68879278D01*
X70737000Y-68880000D01*
X69287000Y-68880000D01*
X69272297Y-68879278D01*
X69257736Y-68877118D01*
X69243457Y-68873541D01*
X69229597Y-68868582D01*
X69216290Y-68862288D01*
X69203664Y-68854720D01*
X69191841Y-68845952D01*
X69180934Y-68836066D01*
X69171048Y-68825159D01*
X69162280Y-68813336D01*
X69154712Y-68800710D01*
X69148418Y-68787403D01*
X69143459Y-68773543D01*
X69139882Y-68759264D01*
X69137722Y-68744703D01*
X69137000Y-68730000D01*
X69137000Y-68430000D01*
X69137722Y-68415297D01*
X69139882Y-68400736D01*
X69143459Y-68386457D01*
X69148418Y-68372597D01*
X69154712Y-68359290D01*
X69162280Y-68346664D01*
X69171048Y-68334841D01*
X69180934Y-68323934D01*
X69191841Y-68314048D01*
X69203664Y-68305280D01*
X69216290Y-68297712D01*
X69229597Y-68291418D01*
X69243457Y-68286459D01*
X69257736Y-68282882D01*
X69272297Y-68280722D01*
X69287000Y-68280000D01*
X70737000Y-68280000D01*
X70751703Y-68280722D01*
G37*
G04 #@! TD.AperFunction*
G04 #@! TA.AperFunction,SMDPad,CuDef*
G36*
X70751703Y-67010722D02*
G01*
X70766264Y-67012882D01*
X70780543Y-67016459D01*
X70794403Y-67021418D01*
X70807710Y-67027712D01*
X70820336Y-67035280D01*
X70832159Y-67044048D01*
X70843066Y-67053934D01*
X70852952Y-67064841D01*
X70861720Y-67076664D01*
X70869288Y-67089290D01*
X70875582Y-67102597D01*
X70880541Y-67116457D01*
X70884118Y-67130736D01*
X70886278Y-67145297D01*
X70887000Y-67160000D01*
X70887000Y-67460000D01*
X70886278Y-67474703D01*
X70884118Y-67489264D01*
X70880541Y-67503543D01*
X70875582Y-67517403D01*
X70869288Y-67530710D01*
X70861720Y-67543336D01*
X70852952Y-67555159D01*
X70843066Y-67566066D01*
X70832159Y-67575952D01*
X70820336Y-67584720D01*
X70807710Y-67592288D01*
X70794403Y-67598582D01*
X70780543Y-67603541D01*
X70766264Y-67607118D01*
X70751703Y-67609278D01*
X70737000Y-67610000D01*
X69287000Y-67610000D01*
X69272297Y-67609278D01*
X69257736Y-67607118D01*
X69243457Y-67603541D01*
X69229597Y-67598582D01*
X69216290Y-67592288D01*
X69203664Y-67584720D01*
X69191841Y-67575952D01*
X69180934Y-67566066D01*
X69171048Y-67555159D01*
X69162280Y-67543336D01*
X69154712Y-67530710D01*
X69148418Y-67517403D01*
X69143459Y-67503543D01*
X69139882Y-67489264D01*
X69137722Y-67474703D01*
X69137000Y-67460000D01*
X69137000Y-67160000D01*
X69137722Y-67145297D01*
X69139882Y-67130736D01*
X69143459Y-67116457D01*
X69148418Y-67102597D01*
X69154712Y-67089290D01*
X69162280Y-67076664D01*
X69171048Y-67064841D01*
X69180934Y-67053934D01*
X69191841Y-67044048D01*
X69203664Y-67035280D01*
X69216290Y-67027712D01*
X69229597Y-67021418D01*
X69243457Y-67016459D01*
X69257736Y-67012882D01*
X69272297Y-67010722D01*
X69287000Y-67010000D01*
X70737000Y-67010000D01*
X70751703Y-67010722D01*
G37*
G04 #@! TD.AperFunction*
G04 #@! TA.AperFunction,SMDPad,CuDef*
G36*
X70751703Y-65740722D02*
G01*
X70766264Y-65742882D01*
X70780543Y-65746459D01*
X70794403Y-65751418D01*
X70807710Y-65757712D01*
X70820336Y-65765280D01*
X70832159Y-65774048D01*
X70843066Y-65783934D01*
X70852952Y-65794841D01*
X70861720Y-65806664D01*
X70869288Y-65819290D01*
X70875582Y-65832597D01*
X70880541Y-65846457D01*
X70884118Y-65860736D01*
X70886278Y-65875297D01*
X70887000Y-65890000D01*
X70887000Y-66190000D01*
X70886278Y-66204703D01*
X70884118Y-66219264D01*
X70880541Y-66233543D01*
X70875582Y-66247403D01*
X70869288Y-66260710D01*
X70861720Y-66273336D01*
X70852952Y-66285159D01*
X70843066Y-66296066D01*
X70832159Y-66305952D01*
X70820336Y-66314720D01*
X70807710Y-66322288D01*
X70794403Y-66328582D01*
X70780543Y-66333541D01*
X70766264Y-66337118D01*
X70751703Y-66339278D01*
X70737000Y-66340000D01*
X69287000Y-66340000D01*
X69272297Y-66339278D01*
X69257736Y-66337118D01*
X69243457Y-66333541D01*
X69229597Y-66328582D01*
X69216290Y-66322288D01*
X69203664Y-66314720D01*
X69191841Y-66305952D01*
X69180934Y-66296066D01*
X69171048Y-66285159D01*
X69162280Y-66273336D01*
X69154712Y-66260710D01*
X69148418Y-66247403D01*
X69143459Y-66233543D01*
X69139882Y-66219264D01*
X69137722Y-66204703D01*
X69137000Y-66190000D01*
X69137000Y-65890000D01*
X69137722Y-65875297D01*
X69139882Y-65860736D01*
X69143459Y-65846457D01*
X69148418Y-65832597D01*
X69154712Y-65819290D01*
X69162280Y-65806664D01*
X69171048Y-65794841D01*
X69180934Y-65783934D01*
X69191841Y-65774048D01*
X69203664Y-65765280D01*
X69216290Y-65757712D01*
X69229597Y-65751418D01*
X69243457Y-65746459D01*
X69257736Y-65742882D01*
X69272297Y-65740722D01*
X69287000Y-65740000D01*
X70737000Y-65740000D01*
X70751703Y-65740722D01*
G37*
G04 #@! TD.AperFunction*
G04 #@! TA.AperFunction,SMDPad,CuDef*
G36*
X70751703Y-64470722D02*
G01*
X70766264Y-64472882D01*
X70780543Y-64476459D01*
X70794403Y-64481418D01*
X70807710Y-64487712D01*
X70820336Y-64495280D01*
X70832159Y-64504048D01*
X70843066Y-64513934D01*
X70852952Y-64524841D01*
X70861720Y-64536664D01*
X70869288Y-64549290D01*
X70875582Y-64562597D01*
X70880541Y-64576457D01*
X70884118Y-64590736D01*
X70886278Y-64605297D01*
X70887000Y-64620000D01*
X70887000Y-64920000D01*
X70886278Y-64934703D01*
X70884118Y-64949264D01*
X70880541Y-64963543D01*
X70875582Y-64977403D01*
X70869288Y-64990710D01*
X70861720Y-65003336D01*
X70852952Y-65015159D01*
X70843066Y-65026066D01*
X70832159Y-65035952D01*
X70820336Y-65044720D01*
X70807710Y-65052288D01*
X70794403Y-65058582D01*
X70780543Y-65063541D01*
X70766264Y-65067118D01*
X70751703Y-65069278D01*
X70737000Y-65070000D01*
X69287000Y-65070000D01*
X69272297Y-65069278D01*
X69257736Y-65067118D01*
X69243457Y-65063541D01*
X69229597Y-65058582D01*
X69216290Y-65052288D01*
X69203664Y-65044720D01*
X69191841Y-65035952D01*
X69180934Y-65026066D01*
X69171048Y-65015159D01*
X69162280Y-65003336D01*
X69154712Y-64990710D01*
X69148418Y-64977403D01*
X69143459Y-64963543D01*
X69139882Y-64949264D01*
X69137722Y-64934703D01*
X69137000Y-64920000D01*
X69137000Y-64620000D01*
X69137722Y-64605297D01*
X69139882Y-64590736D01*
X69143459Y-64576457D01*
X69148418Y-64562597D01*
X69154712Y-64549290D01*
X69162280Y-64536664D01*
X69171048Y-64524841D01*
X69180934Y-64513934D01*
X69191841Y-64504048D01*
X69203664Y-64495280D01*
X69216290Y-64487712D01*
X69229597Y-64481418D01*
X69243457Y-64476459D01*
X69257736Y-64472882D01*
X69272297Y-64470722D01*
X69287000Y-64470000D01*
X70737000Y-64470000D01*
X70751703Y-64470722D01*
G37*
G04 #@! TD.AperFunction*
G04 #@! TA.AperFunction,SMDPad,CuDef*
G36*
X65601703Y-64470722D02*
G01*
X65616264Y-64472882D01*
X65630543Y-64476459D01*
X65644403Y-64481418D01*
X65657710Y-64487712D01*
X65670336Y-64495280D01*
X65682159Y-64504048D01*
X65693066Y-64513934D01*
X65702952Y-64524841D01*
X65711720Y-64536664D01*
X65719288Y-64549290D01*
X65725582Y-64562597D01*
X65730541Y-64576457D01*
X65734118Y-64590736D01*
X65736278Y-64605297D01*
X65737000Y-64620000D01*
X65737000Y-64920000D01*
X65736278Y-64934703D01*
X65734118Y-64949264D01*
X65730541Y-64963543D01*
X65725582Y-64977403D01*
X65719288Y-64990710D01*
X65711720Y-65003336D01*
X65702952Y-65015159D01*
X65693066Y-65026066D01*
X65682159Y-65035952D01*
X65670336Y-65044720D01*
X65657710Y-65052288D01*
X65644403Y-65058582D01*
X65630543Y-65063541D01*
X65616264Y-65067118D01*
X65601703Y-65069278D01*
X65587000Y-65070000D01*
X64137000Y-65070000D01*
X64122297Y-65069278D01*
X64107736Y-65067118D01*
X64093457Y-65063541D01*
X64079597Y-65058582D01*
X64066290Y-65052288D01*
X64053664Y-65044720D01*
X64041841Y-65035952D01*
X64030934Y-65026066D01*
X64021048Y-65015159D01*
X64012280Y-65003336D01*
X64004712Y-64990710D01*
X63998418Y-64977403D01*
X63993459Y-64963543D01*
X63989882Y-64949264D01*
X63987722Y-64934703D01*
X63987000Y-64920000D01*
X63987000Y-64620000D01*
X63987722Y-64605297D01*
X63989882Y-64590736D01*
X63993459Y-64576457D01*
X63998418Y-64562597D01*
X64004712Y-64549290D01*
X64012280Y-64536664D01*
X64021048Y-64524841D01*
X64030934Y-64513934D01*
X64041841Y-64504048D01*
X64053664Y-64495280D01*
X64066290Y-64487712D01*
X64079597Y-64481418D01*
X64093457Y-64476459D01*
X64107736Y-64472882D01*
X64122297Y-64470722D01*
X64137000Y-64470000D01*
X65587000Y-64470000D01*
X65601703Y-64470722D01*
G37*
G04 #@! TD.AperFunction*
G04 #@! TA.AperFunction,SMDPad,CuDef*
G36*
X65601703Y-65740722D02*
G01*
X65616264Y-65742882D01*
X65630543Y-65746459D01*
X65644403Y-65751418D01*
X65657710Y-65757712D01*
X65670336Y-65765280D01*
X65682159Y-65774048D01*
X65693066Y-65783934D01*
X65702952Y-65794841D01*
X65711720Y-65806664D01*
X65719288Y-65819290D01*
X65725582Y-65832597D01*
X65730541Y-65846457D01*
X65734118Y-65860736D01*
X65736278Y-65875297D01*
X65737000Y-65890000D01*
X65737000Y-66190000D01*
X65736278Y-66204703D01*
X65734118Y-66219264D01*
X65730541Y-66233543D01*
X65725582Y-66247403D01*
X65719288Y-66260710D01*
X65711720Y-66273336D01*
X65702952Y-66285159D01*
X65693066Y-66296066D01*
X65682159Y-66305952D01*
X65670336Y-66314720D01*
X65657710Y-66322288D01*
X65644403Y-66328582D01*
X65630543Y-66333541D01*
X65616264Y-66337118D01*
X65601703Y-66339278D01*
X65587000Y-66340000D01*
X64137000Y-66340000D01*
X64122297Y-66339278D01*
X64107736Y-66337118D01*
X64093457Y-66333541D01*
X64079597Y-66328582D01*
X64066290Y-66322288D01*
X64053664Y-66314720D01*
X64041841Y-66305952D01*
X64030934Y-66296066D01*
X64021048Y-66285159D01*
X64012280Y-66273336D01*
X64004712Y-66260710D01*
X63998418Y-66247403D01*
X63993459Y-66233543D01*
X63989882Y-66219264D01*
X63987722Y-66204703D01*
X63987000Y-66190000D01*
X63987000Y-65890000D01*
X63987722Y-65875297D01*
X63989882Y-65860736D01*
X63993459Y-65846457D01*
X63998418Y-65832597D01*
X64004712Y-65819290D01*
X64012280Y-65806664D01*
X64021048Y-65794841D01*
X64030934Y-65783934D01*
X64041841Y-65774048D01*
X64053664Y-65765280D01*
X64066290Y-65757712D01*
X64079597Y-65751418D01*
X64093457Y-65746459D01*
X64107736Y-65742882D01*
X64122297Y-65740722D01*
X64137000Y-65740000D01*
X65587000Y-65740000D01*
X65601703Y-65740722D01*
G37*
G04 #@! TD.AperFunction*
G04 #@! TA.AperFunction,SMDPad,CuDef*
G36*
X65601703Y-67010722D02*
G01*
X65616264Y-67012882D01*
X65630543Y-67016459D01*
X65644403Y-67021418D01*
X65657710Y-67027712D01*
X65670336Y-67035280D01*
X65682159Y-67044048D01*
X65693066Y-67053934D01*
X65702952Y-67064841D01*
X65711720Y-67076664D01*
X65719288Y-67089290D01*
X65725582Y-67102597D01*
X65730541Y-67116457D01*
X65734118Y-67130736D01*
X65736278Y-67145297D01*
X65737000Y-67160000D01*
X65737000Y-67460000D01*
X65736278Y-67474703D01*
X65734118Y-67489264D01*
X65730541Y-67503543D01*
X65725582Y-67517403D01*
X65719288Y-67530710D01*
X65711720Y-67543336D01*
X65702952Y-67555159D01*
X65693066Y-67566066D01*
X65682159Y-67575952D01*
X65670336Y-67584720D01*
X65657710Y-67592288D01*
X65644403Y-67598582D01*
X65630543Y-67603541D01*
X65616264Y-67607118D01*
X65601703Y-67609278D01*
X65587000Y-67610000D01*
X64137000Y-67610000D01*
X64122297Y-67609278D01*
X64107736Y-67607118D01*
X64093457Y-67603541D01*
X64079597Y-67598582D01*
X64066290Y-67592288D01*
X64053664Y-67584720D01*
X64041841Y-67575952D01*
X64030934Y-67566066D01*
X64021048Y-67555159D01*
X64012280Y-67543336D01*
X64004712Y-67530710D01*
X63998418Y-67517403D01*
X63993459Y-67503543D01*
X63989882Y-67489264D01*
X63987722Y-67474703D01*
X63987000Y-67460000D01*
X63987000Y-67160000D01*
X63987722Y-67145297D01*
X63989882Y-67130736D01*
X63993459Y-67116457D01*
X63998418Y-67102597D01*
X64004712Y-67089290D01*
X64012280Y-67076664D01*
X64021048Y-67064841D01*
X64030934Y-67053934D01*
X64041841Y-67044048D01*
X64053664Y-67035280D01*
X64066290Y-67027712D01*
X64079597Y-67021418D01*
X64093457Y-67016459D01*
X64107736Y-67012882D01*
X64122297Y-67010722D01*
X64137000Y-67010000D01*
X65587000Y-67010000D01*
X65601703Y-67010722D01*
G37*
G04 #@! TD.AperFunction*
G04 #@! TA.AperFunction,SMDPad,CuDef*
G36*
X65601703Y-68280722D02*
G01*
X65616264Y-68282882D01*
X65630543Y-68286459D01*
X65644403Y-68291418D01*
X65657710Y-68297712D01*
X65670336Y-68305280D01*
X65682159Y-68314048D01*
X65693066Y-68323934D01*
X65702952Y-68334841D01*
X65711720Y-68346664D01*
X65719288Y-68359290D01*
X65725582Y-68372597D01*
X65730541Y-68386457D01*
X65734118Y-68400736D01*
X65736278Y-68415297D01*
X65737000Y-68430000D01*
X65737000Y-68730000D01*
X65736278Y-68744703D01*
X65734118Y-68759264D01*
X65730541Y-68773543D01*
X65725582Y-68787403D01*
X65719288Y-68800710D01*
X65711720Y-68813336D01*
X65702952Y-68825159D01*
X65693066Y-68836066D01*
X65682159Y-68845952D01*
X65670336Y-68854720D01*
X65657710Y-68862288D01*
X65644403Y-68868582D01*
X65630543Y-68873541D01*
X65616264Y-68877118D01*
X65601703Y-68879278D01*
X65587000Y-68880000D01*
X64137000Y-68880000D01*
X64122297Y-68879278D01*
X64107736Y-68877118D01*
X64093457Y-68873541D01*
X64079597Y-68868582D01*
X64066290Y-68862288D01*
X64053664Y-68854720D01*
X64041841Y-68845952D01*
X64030934Y-68836066D01*
X64021048Y-68825159D01*
X64012280Y-68813336D01*
X64004712Y-68800710D01*
X63998418Y-68787403D01*
X63993459Y-68773543D01*
X63989882Y-68759264D01*
X63987722Y-68744703D01*
X63987000Y-68730000D01*
X63987000Y-68430000D01*
X63987722Y-68415297D01*
X63989882Y-68400736D01*
X63993459Y-68386457D01*
X63998418Y-68372597D01*
X64004712Y-68359290D01*
X64012280Y-68346664D01*
X64021048Y-68334841D01*
X64030934Y-68323934D01*
X64041841Y-68314048D01*
X64053664Y-68305280D01*
X64066290Y-68297712D01*
X64079597Y-68291418D01*
X64093457Y-68286459D01*
X64107736Y-68282882D01*
X64122297Y-68280722D01*
X64137000Y-68280000D01*
X65587000Y-68280000D01*
X65601703Y-68280722D01*
G37*
G04 #@! TD.AperFunction*
D12*
X61781001Y-22657001D03*
D10*
X77021001Y-70917001D03*
X61781001Y-25197001D03*
X77021001Y-68377001D03*
X61781001Y-27737001D03*
X77021001Y-65837001D03*
X61781001Y-30277001D03*
X77021001Y-63297001D03*
X61781001Y-32817001D03*
X77021001Y-60757001D03*
X61781001Y-35357001D03*
X77021001Y-58217001D03*
X61781001Y-37897001D03*
X77021001Y-55677001D03*
X61781001Y-40437001D03*
X77021001Y-53137001D03*
X61781001Y-42977001D03*
X77021001Y-50597001D03*
X61781001Y-45517001D03*
X77021001Y-48057001D03*
X61781001Y-48057001D03*
X77021001Y-45517001D03*
X61781001Y-50597001D03*
X77021001Y-42977001D03*
X61781001Y-53137001D03*
X77021001Y-40437001D03*
X61781001Y-55677001D03*
X77021001Y-37897001D03*
X61781001Y-58217001D03*
X77021001Y-35357001D03*
X61781001Y-60757001D03*
X77021001Y-32817001D03*
X61781001Y-63297001D03*
X77021001Y-30277001D03*
X61781001Y-65837001D03*
X77021001Y-27737001D03*
X61781001Y-68377001D03*
X77021001Y-25197001D03*
X61781001Y-70917001D03*
X77021001Y-22657001D03*
D19*
X69850000Y-29210000D03*
X65405000Y-34290000D03*
X65659000Y-68580000D03*
X65659000Y-66040000D03*
D20*
X65405000Y-36185000D02*
X66675000Y-37455000D01*
X65405000Y-34290000D02*
X65405000Y-36185000D01*
X59055000Y-70917001D02*
X61781001Y-70917001D01*
D21*
X71891000Y-67310000D02*
X72263000Y-66938000D01*
X70012000Y-67310000D02*
X71891000Y-67310000D01*
D20*
X61781001Y-70917001D02*
X70687999Y-70917001D01*
X72263000Y-69342000D02*
X72263000Y-66938000D01*
X70687999Y-70917001D02*
X72263000Y-69342000D01*
D21*
X63887000Y-64770000D02*
X63373000Y-65284000D01*
X64862000Y-64770000D02*
X63887000Y-64770000D01*
X63373000Y-69325002D02*
X61781001Y-70917001D01*
X63373000Y-65284000D02*
X63373000Y-69325002D01*
D20*
X54610000Y-55690000D02*
X54610000Y-53340000D01*
X57301799Y-58381799D02*
X54610000Y-55690000D01*
X57923630Y-70917001D02*
X57301799Y-70295170D01*
X59055000Y-70917001D02*
X57923630Y-70917001D01*
X57301799Y-62253061D02*
X57301799Y-63778799D01*
X54738738Y-59690000D02*
X57301799Y-62253061D01*
X54610000Y-59690000D02*
X54738738Y-59690000D01*
X57301799Y-70295170D02*
X57301799Y-63778799D01*
X57301799Y-63778799D02*
X57301799Y-58381799D01*
X54610000Y-59690000D02*
X54610000Y-53340000D01*
D21*
X53890001Y-29929999D02*
X54610000Y-29210000D01*
X53086000Y-30734000D02*
X53890001Y-29929999D01*
X54610000Y-53340000D02*
X53086000Y-51816000D01*
D22*
X53542700Y-41707300D02*
X53086000Y-42164000D01*
X62390458Y-41707300D02*
X53542700Y-41707300D01*
X63238158Y-42555000D02*
X62390458Y-41707300D01*
X66675000Y-42555000D02*
X63238158Y-42555000D01*
D21*
X53086000Y-51816000D02*
X53086000Y-42164000D01*
X53086000Y-42164000D02*
X53086000Y-30734000D01*
X68961000Y-68580000D02*
X70012000Y-68580000D01*
X67372791Y-66991791D02*
X68961000Y-68580000D01*
X67372790Y-62087790D02*
X67372791Y-66991791D01*
X67310000Y-62025000D02*
X67372790Y-62087790D01*
X67310000Y-61350000D02*
X67310000Y-62025000D01*
D22*
X62389860Y-44246702D02*
X63754000Y-45610842D01*
X55880000Y-44450000D02*
X56083298Y-44246702D01*
X56083298Y-44246702D02*
X62389860Y-44246702D01*
D20*
X64008000Y-45864842D02*
X63754000Y-45610842D01*
X65026628Y-58676628D02*
X64008000Y-57658000D01*
X66686628Y-58676628D02*
X65026628Y-58676628D01*
X67310000Y-59300000D02*
X66686628Y-58676628D01*
X57527263Y-44450000D02*
X57730262Y-44247001D01*
X55880000Y-44450000D02*
X57527263Y-44450000D01*
X63534202Y-44675464D02*
X63105739Y-44247001D01*
X63534202Y-44992202D02*
X63534202Y-44675464D01*
X64008000Y-45864842D02*
X64008000Y-45466000D01*
X64008000Y-45466000D02*
X63534202Y-44992202D01*
D22*
X58445543Y-46786702D02*
X57277000Y-45618159D01*
X62389860Y-46786702D02*
X58445543Y-46786702D01*
X64008000Y-48404842D02*
X62389860Y-46786702D01*
X64008000Y-48768000D02*
X64008000Y-48404842D01*
D20*
X64008000Y-48768000D02*
X64008000Y-45864842D01*
D22*
X57277000Y-45618159D02*
X57048159Y-45618159D01*
X57048159Y-45618159D02*
X56642000Y-45212000D01*
X58445543Y-49326702D02*
X57658000Y-48539159D01*
X62389860Y-49326702D02*
X58445543Y-49326702D01*
X63228158Y-50165000D02*
X62389860Y-49326702D01*
X64008000Y-50165000D02*
X63228158Y-50165000D01*
D20*
X64008000Y-50165000D02*
X64008000Y-48768000D01*
X64008000Y-57658000D02*
X64008000Y-50165000D01*
D22*
X57658000Y-48539159D02*
X57658000Y-46609000D01*
X57658000Y-46609000D02*
X56515000Y-45466000D01*
X56515000Y-45466000D02*
X56261000Y-45212000D01*
X56261000Y-45212000D02*
X57150000Y-45212000D01*
D20*
X65405000Y-29600000D02*
X65405000Y-31995000D01*
X65405000Y-31995000D02*
X69850000Y-31995000D01*
D21*
X68471799Y-35423201D02*
X69226628Y-34668372D01*
X68471799Y-56541537D02*
X68471799Y-35423201D01*
X70012000Y-66040000D02*
X68961000Y-66040000D01*
X68961000Y-66040000D02*
X68326000Y-65405000D01*
X68326000Y-65405000D02*
X68326000Y-64551154D01*
X69226628Y-34668372D02*
X69850000Y-34045000D01*
X68326000Y-64551154D02*
X68834000Y-64043154D01*
X68834000Y-64043154D02*
X68834000Y-56903738D01*
X68834000Y-56903738D02*
X68471799Y-56541537D01*
D20*
X74295000Y-22657001D02*
X77021001Y-22657001D01*
X73163630Y-22657001D02*
X72390000Y-23430631D01*
X74295000Y-22657001D02*
X73163630Y-22657001D01*
X72263000Y-63627000D02*
X72263000Y-64888000D01*
X72390000Y-63500000D02*
X72263000Y-63627000D01*
D21*
X71120000Y-64770000D02*
X72390000Y-63500000D01*
X70012000Y-64770000D02*
X71120000Y-64770000D01*
X72145000Y-64770000D02*
X72263000Y-64888000D01*
X70012000Y-64770000D02*
X72145000Y-64770000D01*
D20*
X71891000Y-27550000D02*
X72390000Y-27051000D01*
X69850000Y-27550000D02*
X71891000Y-27550000D01*
X72390000Y-23430631D02*
X72390000Y-27051000D01*
X72390000Y-27051000D02*
X72390000Y-63500000D01*
X55329999Y-27389999D02*
X54610000Y-26670000D01*
X56515000Y-28575000D02*
X55329999Y-27389999D01*
X56515000Y-36195000D02*
X56515000Y-28575000D01*
X55880000Y-36830000D02*
X56515000Y-36195000D01*
D21*
X61781001Y-25197001D02*
X60702800Y-24118800D01*
X60702800Y-26275202D02*
X58383342Y-26275202D01*
X61781001Y-25197001D02*
X60702800Y-26275202D01*
X58383342Y-26275202D02*
X57045860Y-24937720D01*
X57045860Y-24937720D02*
X55559960Y-24937720D01*
X55417720Y-24937720D02*
X55224680Y-24744680D01*
X55559960Y-24937720D02*
X55417720Y-24937720D01*
D20*
X57531000Y-24130000D02*
X57542200Y-24118800D01*
X54610000Y-24130000D02*
X57531000Y-24130000D01*
D21*
X60702800Y-24118800D02*
X57542200Y-24118800D01*
D20*
X65217999Y-27737001D02*
X65405000Y-27550000D01*
X61781001Y-27737001D02*
X65217999Y-27737001D01*
D21*
X64862000Y-68580000D02*
X65659000Y-68580000D01*
X64862000Y-66040000D02*
X65659000Y-66040000D01*
X61781001Y-22657001D02*
X59055000Y-22657001D01*
D20*
X74295000Y-70917001D02*
X77021001Y-70917001D01*
X74295000Y-68377001D02*
X77021001Y-68377001D01*
X74295000Y-65837001D02*
X77021001Y-65837001D01*
X59055000Y-30277001D02*
X61781001Y-30277001D01*
X74295000Y-63297001D02*
X77021001Y-63297001D01*
X59055000Y-32817001D02*
X61781001Y-32817001D01*
X74295000Y-60757001D02*
X77021001Y-60757001D01*
X59055000Y-35357001D02*
X61781001Y-35357001D01*
X74295000Y-58217001D02*
X77021001Y-58217001D01*
X59055000Y-37897001D02*
X61781001Y-37897001D01*
X74295000Y-55677001D02*
X77021001Y-55677001D01*
X59055000Y-40437001D02*
X61781001Y-40437001D01*
X74295000Y-53137001D02*
X77021001Y-53137001D01*
X59055000Y-42977001D02*
X61781001Y-42977001D01*
X74295000Y-50597001D02*
X77021001Y-50597001D01*
X59055000Y-45517001D02*
X61781001Y-45517001D01*
X74295000Y-48057001D02*
X77021001Y-48057001D01*
X59055000Y-48057001D02*
X61781001Y-48057001D01*
X74295000Y-45517001D02*
X77021001Y-45517001D01*
X59055000Y-50597001D02*
X61781001Y-50597001D01*
X74295000Y-42977001D02*
X77021001Y-42977001D01*
X59055000Y-53137001D02*
X61781001Y-53137001D01*
X74295000Y-40437001D02*
X77021001Y-40437001D01*
X59055000Y-55677001D02*
X61781001Y-55677001D01*
X74295000Y-37897001D02*
X77021001Y-37897001D01*
X59055000Y-58217001D02*
X61781001Y-58217001D01*
X74295000Y-35357001D02*
X77021001Y-35357001D01*
X59055000Y-60757001D02*
X61781001Y-60757001D01*
X74295000Y-32817001D02*
X77021001Y-32817001D01*
X59055000Y-63297001D02*
X61781001Y-63297001D01*
X74295000Y-30277001D02*
X77021001Y-30277001D01*
X59055000Y-65837001D02*
X61781001Y-65837001D01*
X74295000Y-27737001D02*
X77021001Y-27737001D01*
X59055000Y-68377001D02*
X61781001Y-68377001D01*
X74295000Y-25197001D02*
X77021001Y-25197001D01*
D23*
G36*
X77769700Y-21807215D02*
G01*
X77741525Y-21779040D01*
X77556399Y-21655342D01*
X77350697Y-21570138D01*
X77132326Y-21526701D01*
X76909676Y-21526701D01*
X76691305Y-21570138D01*
X76675460Y-21576701D01*
X74640541Y-21576701D01*
X74624696Y-21570138D01*
X74406325Y-21526701D01*
X74183675Y-21526701D01*
X73965304Y-21570138D01*
X73949459Y-21576701D01*
X73216698Y-21576701D01*
X73163629Y-21571474D01*
X73110561Y-21576701D01*
X73110559Y-21576701D01*
X72951854Y-21592332D01*
X72748217Y-21654105D01*
X72560544Y-21754418D01*
X72396046Y-21889417D01*
X72362212Y-21930644D01*
X71663647Y-22629210D01*
X71622416Y-22663047D01*
X71487417Y-22827545D01*
X71387104Y-23015219D01*
X71325331Y-23218856D01*
X71315943Y-23314179D01*
X71304473Y-23430631D01*
X71309700Y-23483700D01*
X71309701Y-26469700D01*
X69796929Y-26469700D01*
X69638224Y-26485331D01*
X69434587Y-26547104D01*
X69246914Y-26647417D01*
X69210444Y-26677347D01*
X69177317Y-26687396D01*
X69076714Y-26741169D01*
X68988536Y-26813536D01*
X68916169Y-26901714D01*
X68862396Y-27002317D01*
X68829283Y-27111477D01*
X68818102Y-27224999D01*
X68818102Y-27230193D01*
X68785331Y-27338224D01*
X68764473Y-27550000D01*
X68785331Y-27761776D01*
X68818102Y-27869807D01*
X68818102Y-27875001D01*
X68829283Y-27988523D01*
X68862396Y-28097683D01*
X68916169Y-28198286D01*
X68988536Y-28286464D01*
X69076714Y-28358831D01*
X69177317Y-28412604D01*
X69210444Y-28422653D01*
X69246914Y-28452583D01*
X69434587Y-28552896D01*
X69638224Y-28614669D01*
X69792180Y-28629832D01*
X69680733Y-28652000D01*
X69581506Y-28693102D01*
X69399999Y-28693102D01*
X69286477Y-28704283D01*
X69177317Y-28737396D01*
X69076714Y-28791169D01*
X68988536Y-28863536D01*
X68916169Y-28951714D01*
X68862396Y-29052317D01*
X68829283Y-29161477D01*
X68818102Y-29274999D01*
X68818102Y-29925001D01*
X68829283Y-30038523D01*
X68862396Y-30147683D01*
X68916169Y-30248286D01*
X68988536Y-30336464D01*
X69076714Y-30408831D01*
X69177317Y-30462604D01*
X69286477Y-30495717D01*
X69399999Y-30506898D01*
X70300001Y-30506898D01*
X70413523Y-30495717D01*
X70522683Y-30462604D01*
X70623286Y-30408831D01*
X70711464Y-30336464D01*
X70783831Y-30248286D01*
X70837604Y-30147683D01*
X70870717Y-30038523D01*
X70881898Y-29925001D01*
X70881898Y-29274999D01*
X70870717Y-29161477D01*
X70837604Y-29052317D01*
X70783831Y-28951714D01*
X70711464Y-28863536D01*
X70623286Y-28791169D01*
X70522683Y-28737396D01*
X70413523Y-28704283D01*
X70300001Y-28693102D01*
X70118494Y-28693102D01*
X70019267Y-28652000D01*
X69910171Y-28630300D01*
X71309700Y-28630300D01*
X71309701Y-63118798D01*
X71260104Y-63211588D01*
X71198331Y-63415225D01*
X71182700Y-63573929D01*
X71177473Y-63627000D01*
X71182700Y-63680068D01*
X71182700Y-63709856D01*
X70827856Y-64064700D01*
X69977358Y-64064700D01*
X69873737Y-64074906D01*
X69740788Y-64115235D01*
X69698007Y-64138102D01*
X69533360Y-64138102D01*
X69539300Y-64077796D01*
X69539300Y-64077787D01*
X69542711Y-64043155D01*
X69539300Y-64008523D01*
X69539300Y-56970642D01*
X69738675Y-57010300D01*
X69961325Y-57010300D01*
X70179696Y-56966863D01*
X70385398Y-56881659D01*
X70570524Y-56757961D01*
X70727961Y-56600524D01*
X70851659Y-56415398D01*
X70936863Y-56209696D01*
X70980300Y-55991325D01*
X70980300Y-55768675D01*
X70936863Y-55550304D01*
X70851659Y-55344602D01*
X70727961Y-55159476D01*
X70570524Y-55002039D01*
X70385398Y-54878341D01*
X70179696Y-54793137D01*
X69961325Y-54749700D01*
X69738675Y-54749700D01*
X69520304Y-54793137D01*
X69314602Y-54878341D01*
X69177099Y-54970218D01*
X69177099Y-49369968D01*
X69219002Y-49404357D01*
X69415361Y-49509314D01*
X69628423Y-49573946D01*
X69850000Y-49595769D01*
X70071578Y-49573946D01*
X70284640Y-49509314D01*
X70480999Y-49404357D01*
X70653110Y-49263110D01*
X70794357Y-49090999D01*
X70899314Y-48894639D01*
X70963946Y-48681577D01*
X70980300Y-48515528D01*
X70980300Y-48004471D01*
X70963946Y-47838422D01*
X70899314Y-47625360D01*
X70794357Y-47429001D01*
X70653110Y-47256890D01*
X70480999Y-47115643D01*
X70284639Y-47010686D01*
X70071577Y-46946054D01*
X69850000Y-46924231D01*
X69628422Y-46946054D01*
X69415360Y-47010686D01*
X69219001Y-47115643D01*
X69177099Y-47150031D01*
X69177099Y-35715345D01*
X69749845Y-35142600D01*
X69749850Y-35142594D01*
X69940546Y-34951898D01*
X70300001Y-34951898D01*
X70413523Y-34940717D01*
X70522683Y-34907604D01*
X70623286Y-34853831D01*
X70711464Y-34781464D01*
X70783831Y-34693286D01*
X70837604Y-34592683D01*
X70870717Y-34483523D01*
X70881898Y-34370001D01*
X70881898Y-33719999D01*
X70870717Y-33606477D01*
X70837604Y-33497317D01*
X70783831Y-33396714D01*
X70711464Y-33308536D01*
X70623286Y-33236169D01*
X70522683Y-33182396D01*
X70413523Y-33149283D01*
X70300001Y-33138102D01*
X69399999Y-33138102D01*
X69286477Y-33149283D01*
X69177317Y-33182396D01*
X69076714Y-33236169D01*
X68988536Y-33308536D01*
X68916169Y-33396714D01*
X68862396Y-33497317D01*
X68829283Y-33606477D01*
X68818102Y-33719999D01*
X68818102Y-34079454D01*
X68752406Y-34145150D01*
X68752400Y-34145155D01*
X67997571Y-34899985D01*
X67970665Y-34922066D01*
X67948584Y-34948972D01*
X67948581Y-34948975D01*
X67882527Y-35029463D01*
X67833956Y-35120332D01*
X67817035Y-35151989D01*
X67777471Y-35282418D01*
X67776706Y-35284939D01*
X67763088Y-35423201D01*
X67766500Y-35457843D01*
X67766500Y-36025353D01*
X67713523Y-36009283D01*
X67600001Y-35998102D01*
X66745876Y-35998102D01*
X66485300Y-35737526D01*
X66485300Y-34236929D01*
X66469669Y-34078224D01*
X66436898Y-33970193D01*
X66436898Y-33719999D01*
X66425717Y-33606477D01*
X66392604Y-33497317D01*
X66338831Y-33396714D01*
X66266464Y-33308536D01*
X66178286Y-33236169D01*
X66077683Y-33182396D01*
X65968523Y-33149283D01*
X65855001Y-33138102D01*
X64954999Y-33138102D01*
X64841477Y-33149283D01*
X64732317Y-33182396D01*
X64631714Y-33236169D01*
X64543536Y-33308536D01*
X64471169Y-33396714D01*
X64417396Y-33497317D01*
X64384283Y-33606477D01*
X64373102Y-33719999D01*
X64373102Y-33970194D01*
X64340331Y-34078225D01*
X64324700Y-34236930D01*
X64324701Y-36131922D01*
X64319473Y-36185000D01*
X64336578Y-36358660D01*
X64340332Y-36396776D01*
X64402105Y-36600413D01*
X64502418Y-36788086D01*
X64637417Y-36952584D01*
X64678643Y-36986417D01*
X65168102Y-37475876D01*
X65168102Y-38330001D01*
X65179283Y-38443523D01*
X65212396Y-38552683D01*
X65266169Y-38653286D01*
X65338536Y-38741464D01*
X65426714Y-38813831D01*
X65527317Y-38867604D01*
X65636477Y-38900717D01*
X65749999Y-38911898D01*
X67600001Y-38911898D01*
X67713523Y-38900717D01*
X67766500Y-38884647D01*
X67766500Y-40792216D01*
X66960750Y-40795000D01*
X66802000Y-40953750D01*
X66802000Y-42428000D01*
X66822000Y-42428000D01*
X66822000Y-42682000D01*
X66802000Y-42682000D01*
X66802000Y-44156250D01*
X66960750Y-44315000D01*
X67766500Y-44317784D01*
X67766499Y-56506905D01*
X67763088Y-56541537D01*
X67766499Y-56576168D01*
X67766499Y-56576178D01*
X67776705Y-56679799D01*
X67817034Y-56812748D01*
X67882527Y-56935275D01*
X67970664Y-57042671D01*
X67997572Y-57064754D01*
X68128701Y-57195883D01*
X68128701Y-58528441D01*
X68083286Y-58491169D01*
X67982683Y-58437396D01*
X67971899Y-58434125D01*
X67488050Y-57950276D01*
X67454212Y-57909044D01*
X67289714Y-57774045D01*
X67102041Y-57673732D01*
X66898404Y-57611959D01*
X66739699Y-57596328D01*
X66739696Y-57596328D01*
X66686628Y-57591101D01*
X66633560Y-57596328D01*
X65474103Y-57596328D01*
X65088300Y-57210526D01*
X65088300Y-56490166D01*
X65162039Y-56600524D01*
X65319476Y-56757961D01*
X65504602Y-56881659D01*
X65710304Y-56966863D01*
X65928675Y-57010300D01*
X66151325Y-57010300D01*
X66369696Y-56966863D01*
X66575398Y-56881659D01*
X66760524Y-56757961D01*
X66917961Y-56600524D01*
X67041659Y-56415398D01*
X67126863Y-56209696D01*
X67170300Y-55991325D01*
X67170300Y-55768675D01*
X67126863Y-55550304D01*
X67041659Y-55344602D01*
X66917961Y-55159476D01*
X66760524Y-55002039D01*
X66575398Y-54878341D01*
X66369696Y-54793137D01*
X66151325Y-54749700D01*
X65928675Y-54749700D01*
X65710304Y-54793137D01*
X65504602Y-54878341D01*
X65319476Y-55002039D01*
X65162039Y-55159476D01*
X65088300Y-55269834D01*
X65088300Y-49077260D01*
X65095644Y-49090999D01*
X65236891Y-49263110D01*
X65409002Y-49404357D01*
X65605361Y-49509314D01*
X65818423Y-49573946D01*
X66040000Y-49595769D01*
X66261578Y-49573946D01*
X66474640Y-49509314D01*
X66670999Y-49404357D01*
X66843110Y-49263110D01*
X66984357Y-49090999D01*
X67089314Y-48894639D01*
X67153946Y-48681577D01*
X67170300Y-48515528D01*
X67170300Y-48004471D01*
X67153946Y-47838422D01*
X67089314Y-47625360D01*
X66984357Y-47429001D01*
X66843110Y-47256890D01*
X66670999Y-47115643D01*
X66474639Y-47010686D01*
X66261577Y-46946054D01*
X66040000Y-46924231D01*
X65818422Y-46946054D01*
X65605360Y-47010686D01*
X65409001Y-47115643D01*
X65236890Y-47256890D01*
X65095643Y-47429001D01*
X65088300Y-47442739D01*
X65088300Y-45917910D01*
X65093527Y-45864841D01*
X65088300Y-45811771D01*
X65088300Y-45519079D01*
X65093528Y-45466000D01*
X65072669Y-45254223D01*
X65010896Y-45050587D01*
X64910583Y-44862914D01*
X64894652Y-44843502D01*
X64775584Y-44698416D01*
X64734352Y-44664578D01*
X64606017Y-44536243D01*
X64598871Y-44463689D01*
X64537098Y-44260052D01*
X64436785Y-44072378D01*
X64301786Y-43907880D01*
X64260554Y-43874042D01*
X64066512Y-43680000D01*
X64861928Y-43680000D01*
X64874188Y-43804482D01*
X64910498Y-43924180D01*
X64969463Y-44034494D01*
X65048815Y-44131185D01*
X65145506Y-44210537D01*
X65255820Y-44269502D01*
X65375518Y-44305812D01*
X65500000Y-44318072D01*
X66389250Y-44315000D01*
X66548000Y-44156250D01*
X66548000Y-42682000D01*
X65023750Y-42682000D01*
X64865000Y-42840750D01*
X64861928Y-43680000D01*
X64066512Y-43680000D01*
X63832099Y-43445587D01*
X63708825Y-43344419D01*
X63521152Y-43244106D01*
X63317515Y-43182333D01*
X63105739Y-43161474D01*
X62893963Y-43182333D01*
X62892514Y-43182772D01*
X62911301Y-43088326D01*
X62911301Y-42865676D01*
X62867864Y-42647305D01*
X62782660Y-42441603D01*
X62658962Y-42256477D01*
X62501525Y-42099040D01*
X62316399Y-41975342D01*
X62110697Y-41890138D01*
X61892326Y-41846701D01*
X61669676Y-41846701D01*
X61451305Y-41890138D01*
X61435460Y-41896701D01*
X59400541Y-41896701D01*
X59384696Y-41890138D01*
X59166325Y-41846701D01*
X58943675Y-41846701D01*
X58725304Y-41890138D01*
X58519602Y-41975342D01*
X58334476Y-42099040D01*
X58177039Y-42256477D01*
X58053341Y-42441603D01*
X57968137Y-42647305D01*
X57924700Y-42865676D01*
X57924700Y-43088326D01*
X57943487Y-43182772D01*
X57942038Y-43182333D01*
X57730262Y-43161474D01*
X57518486Y-43182333D01*
X57314849Y-43244106D01*
X57127176Y-43344419D01*
X57096371Y-43369700D01*
X56225541Y-43369700D01*
X56209696Y-43363137D01*
X55991325Y-43319700D01*
X55768675Y-43319700D01*
X55550304Y-43363137D01*
X55344602Y-43448341D01*
X55159476Y-43572039D01*
X55002039Y-43729476D01*
X54878341Y-43914602D01*
X54793137Y-44120304D01*
X54749700Y-44338675D01*
X54749700Y-44561325D01*
X54793137Y-44779696D01*
X54878341Y-44985398D01*
X55002039Y-45170524D01*
X55159476Y-45327961D01*
X55344602Y-45451659D01*
X55550304Y-45536863D01*
X55768675Y-45580300D01*
X55791210Y-45580300D01*
X55836957Y-45636043D01*
X55859732Y-45654734D01*
X56072268Y-45867269D01*
X56072272Y-45867274D01*
X57061201Y-46856203D01*
X57061200Y-48509847D01*
X57058313Y-48539159D01*
X57061200Y-48568470D01*
X57069836Y-48656151D01*
X57103961Y-48768648D01*
X57159378Y-48872326D01*
X57233957Y-48963202D01*
X57256731Y-48981892D01*
X58002814Y-49727976D01*
X58021500Y-49750745D01*
X58112375Y-49825324D01*
X58187850Y-49865666D01*
X58177039Y-49876477D01*
X58053341Y-50061603D01*
X57968137Y-50267305D01*
X57924700Y-50485676D01*
X57924700Y-50708326D01*
X57968137Y-50926697D01*
X58053341Y-51132399D01*
X58177039Y-51317525D01*
X58334476Y-51474962D01*
X58519602Y-51598660D01*
X58725304Y-51683864D01*
X58943675Y-51727301D01*
X59166325Y-51727301D01*
X59384696Y-51683864D01*
X59400541Y-51677301D01*
X61435460Y-51677301D01*
X61451305Y-51683864D01*
X61669676Y-51727301D01*
X61892326Y-51727301D01*
X62110697Y-51683864D01*
X62316399Y-51598660D01*
X62501525Y-51474962D01*
X62658962Y-51317525D01*
X62782660Y-51132399D01*
X62867864Y-50926697D01*
X62911301Y-50708326D01*
X62911301Y-50672340D01*
X62927701Y-50681106D01*
X62927700Y-57604931D01*
X62922473Y-57658000D01*
X62927700Y-57711068D01*
X62927700Y-57711070D01*
X62943331Y-57869775D01*
X63005104Y-58073412D01*
X63105417Y-58261086D01*
X63240416Y-58425584D01*
X63281647Y-58459422D01*
X64225210Y-59402985D01*
X64259044Y-59444212D01*
X64341372Y-59511776D01*
X64423541Y-59579211D01*
X64611215Y-59679524D01*
X64814851Y-59741297D01*
X65026628Y-59762156D01*
X65079707Y-59756928D01*
X66239154Y-59756928D01*
X66319125Y-59836899D01*
X66322396Y-59847683D01*
X66376169Y-59948286D01*
X66448536Y-60036464D01*
X66536714Y-60108831D01*
X66637317Y-60162604D01*
X66670445Y-60172653D01*
X66706913Y-60202582D01*
X66894586Y-60302895D01*
X67098223Y-60364668D01*
X67309999Y-60385527D01*
X67521776Y-60364668D01*
X67725413Y-60302895D01*
X67913086Y-60202582D01*
X67949554Y-60172653D01*
X67982683Y-60162604D01*
X68083286Y-60108831D01*
X68128701Y-60071560D01*
X68128700Y-60578440D01*
X68083286Y-60541169D01*
X67982683Y-60487396D01*
X67873523Y-60454283D01*
X67760001Y-60443102D01*
X66859999Y-60443102D01*
X66746477Y-60454283D01*
X66637317Y-60487396D01*
X66536714Y-60541169D01*
X66448536Y-60613536D01*
X66376169Y-60701714D01*
X66322396Y-60802317D01*
X66289283Y-60911477D01*
X66278102Y-61024999D01*
X66278102Y-61675001D01*
X66289283Y-61788523D01*
X66322396Y-61897683D01*
X66376169Y-61998286D01*
X66448536Y-62086464D01*
X66536714Y-62158831D01*
X66628433Y-62207855D01*
X66655235Y-62296212D01*
X66667490Y-62319139D01*
X66667492Y-66957150D01*
X66664080Y-66991791D01*
X66677698Y-67130053D01*
X66718027Y-67263003D01*
X66783519Y-67385529D01*
X66849573Y-67466017D01*
X66849576Y-67466020D01*
X66871657Y-67492926D01*
X66898563Y-67515007D01*
X68437784Y-69054229D01*
X68459865Y-69081135D01*
X68486771Y-69103216D01*
X68486773Y-69103218D01*
X68567261Y-69169272D01*
X68689788Y-69234765D01*
X68822737Y-69275094D01*
X68926358Y-69285300D01*
X68926361Y-69285300D01*
X68961000Y-69288712D01*
X68995639Y-69285300D01*
X70046642Y-69285300D01*
X70150263Y-69275094D01*
X70283212Y-69234765D01*
X70325993Y-69211898D01*
X70737000Y-69211898D01*
X70831014Y-69202638D01*
X70921414Y-69175216D01*
X71004728Y-69130684D01*
X71077753Y-69070753D01*
X71137684Y-68997728D01*
X71182216Y-68914414D01*
X71209638Y-68824014D01*
X71218898Y-68730000D01*
X71218898Y-68430000D01*
X71209638Y-68335986D01*
X71182216Y-68245586D01*
X71151716Y-68188525D01*
X71241494Y-68140537D01*
X71300059Y-68092474D01*
X71318820Y-68102502D01*
X71438518Y-68138812D01*
X71563000Y-68151072D01*
X71977250Y-68148000D01*
X72136000Y-67989250D01*
X72136000Y-67065000D01*
X72116000Y-67065000D01*
X72116000Y-66811000D01*
X72136000Y-66811000D01*
X72136000Y-66791000D01*
X72390000Y-66791000D01*
X72390000Y-66811000D01*
X73439250Y-66811000D01*
X73554882Y-66695368D01*
X73574476Y-66714962D01*
X73759602Y-66838660D01*
X73965304Y-66923864D01*
X74183675Y-66967301D01*
X74406325Y-66967301D01*
X74624696Y-66923864D01*
X74640541Y-66917301D01*
X76675460Y-66917301D01*
X76691305Y-66923864D01*
X76909676Y-66967301D01*
X77132326Y-66967301D01*
X77350697Y-66923864D01*
X77556399Y-66838660D01*
X77741525Y-66714962D01*
X77769701Y-66686786D01*
X77769701Y-67527216D01*
X77741525Y-67499040D01*
X77556399Y-67375342D01*
X77350697Y-67290138D01*
X77132326Y-67246701D01*
X76909676Y-67246701D01*
X76691305Y-67290138D01*
X76675460Y-67296701D01*
X74640541Y-67296701D01*
X74624696Y-67290138D01*
X74406325Y-67246701D01*
X74183675Y-67246701D01*
X73965304Y-67290138D01*
X73759602Y-67375342D01*
X73600737Y-67481493D01*
X73598000Y-67223750D01*
X73439250Y-67065000D01*
X72390000Y-67065000D01*
X72390000Y-67989250D01*
X72548750Y-68148000D01*
X72963000Y-68151072D01*
X73087482Y-68138812D01*
X73196514Y-68105738D01*
X73164700Y-68265676D01*
X73164700Y-68488326D01*
X73208137Y-68706697D01*
X73293341Y-68912399D01*
X73417039Y-69097525D01*
X73574476Y-69254962D01*
X73759602Y-69378660D01*
X73965304Y-69463864D01*
X74183675Y-69507301D01*
X74406325Y-69507301D01*
X74624696Y-69463864D01*
X74640541Y-69457301D01*
X76675460Y-69457301D01*
X76691305Y-69463864D01*
X76909676Y-69507301D01*
X77132326Y-69507301D01*
X77350697Y-69463864D01*
X77556399Y-69378660D01*
X77741525Y-69254962D01*
X77769701Y-69226786D01*
X77769701Y-70067216D01*
X77741525Y-70039040D01*
X77556399Y-69915342D01*
X77350697Y-69830138D01*
X77132326Y-69786701D01*
X76909676Y-69786701D01*
X76691305Y-69830138D01*
X76675460Y-69836701D01*
X74640541Y-69836701D01*
X74624696Y-69830138D01*
X74406325Y-69786701D01*
X74183675Y-69786701D01*
X73965304Y-69830138D01*
X73759602Y-69915342D01*
X73574476Y-70039040D01*
X73417039Y-70196477D01*
X73293341Y-70381603D01*
X73208137Y-70587305D01*
X73164700Y-70805676D01*
X73164700Y-71028326D01*
X73208137Y-71246697D01*
X73293341Y-71452399D01*
X73417039Y-71637525D01*
X73574476Y-71794962D01*
X73759602Y-71918660D01*
X73965304Y-72003864D01*
X74183675Y-72047301D01*
X74406325Y-72047301D01*
X74624696Y-72003864D01*
X74640541Y-71997301D01*
X76675460Y-71997301D01*
X76691305Y-72003864D01*
X76909676Y-72047301D01*
X77132326Y-72047301D01*
X77350697Y-72003864D01*
X77556399Y-71918660D01*
X77741525Y-71794962D01*
X77769701Y-71766786D01*
X77769701Y-72054700D01*
X62652327Y-72054700D01*
X62844520Y-71880415D01*
X63012038Y-71654421D01*
X63132247Y-71400088D01*
X63172905Y-71266040D01*
X63050916Y-71044001D01*
X61908001Y-71044001D01*
X61908001Y-71064001D01*
X61654001Y-71064001D01*
X61654001Y-71044001D01*
X60511086Y-71044001D01*
X60418001Y-71213431D01*
X60324915Y-71044001D01*
X59182000Y-71044001D01*
X59182000Y-71064001D01*
X58928000Y-71064001D01*
X58928000Y-71044001D01*
X57785085Y-71044001D01*
X57663096Y-71266040D01*
X57703754Y-71400088D01*
X57823963Y-71654421D01*
X57991481Y-71880415D01*
X58183674Y-72054700D01*
X52659300Y-72054700D01*
X52659300Y-70567962D01*
X57663096Y-70567962D01*
X57785085Y-70790001D01*
X58928000Y-70790001D01*
X58928000Y-70770001D01*
X59182000Y-70770001D01*
X59182000Y-70790001D01*
X60324915Y-70790001D01*
X60418001Y-70620571D01*
X60511086Y-70790001D01*
X61654001Y-70790001D01*
X61654001Y-70770001D01*
X61908001Y-70770001D01*
X61908001Y-70790001D01*
X63050916Y-70790001D01*
X63172905Y-70567962D01*
X63132247Y-70433914D01*
X63012038Y-70179581D01*
X62844520Y-69953587D01*
X62636132Y-69764616D01*
X62394882Y-69619931D01*
X62130041Y-69525092D01*
X61908003Y-69646376D01*
X61908003Y-69504183D01*
X62110697Y-69463864D01*
X62316399Y-69378660D01*
X62501525Y-69254962D01*
X62658962Y-69097525D01*
X62782660Y-68912399D01*
X62867864Y-68706697D01*
X62911301Y-68488326D01*
X62911301Y-68265676D01*
X62867864Y-68047305D01*
X62782660Y-67841603D01*
X62658962Y-67656477D01*
X62501525Y-67499040D01*
X62316399Y-67375342D01*
X62110697Y-67290138D01*
X61892326Y-67246701D01*
X61669676Y-67246701D01*
X61451305Y-67290138D01*
X61435460Y-67296701D01*
X59400541Y-67296701D01*
X59384696Y-67290138D01*
X59166325Y-67246701D01*
X58943675Y-67246701D01*
X58725304Y-67290138D01*
X58519602Y-67375342D01*
X58334476Y-67499040D01*
X58177039Y-67656477D01*
X58053341Y-67841603D01*
X57968137Y-68047305D01*
X57924700Y-68265676D01*
X57924700Y-68488326D01*
X57968137Y-68706697D01*
X58053341Y-68912399D01*
X58177039Y-69097525D01*
X58334476Y-69254962D01*
X58519602Y-69378660D01*
X58725304Y-69463864D01*
X58927998Y-69504183D01*
X58927998Y-69646376D01*
X58705960Y-69525092D01*
X58441119Y-69619931D01*
X58199869Y-69764616D01*
X57991481Y-69953587D01*
X57823963Y-70179581D01*
X57703754Y-70433914D01*
X57663096Y-70567962D01*
X52659300Y-70567962D01*
X52659300Y-65725676D01*
X57924700Y-65725676D01*
X57924700Y-65948326D01*
X57968137Y-66166697D01*
X58053341Y-66372399D01*
X58177039Y-66557525D01*
X58334476Y-66714962D01*
X58519602Y-66838660D01*
X58725304Y-66923864D01*
X58943675Y-66967301D01*
X59166325Y-66967301D01*
X59384696Y-66923864D01*
X59400541Y-66917301D01*
X61435460Y-66917301D01*
X61451305Y-66923864D01*
X61669676Y-66967301D01*
X61892326Y-66967301D01*
X62110697Y-66923864D01*
X62316399Y-66838660D01*
X62501525Y-66714962D01*
X62658962Y-66557525D01*
X62782660Y-66372399D01*
X62867864Y-66166697D01*
X62911301Y-65948326D01*
X62911301Y-65725676D01*
X62867864Y-65507305D01*
X62782660Y-65301603D01*
X62658962Y-65116477D01*
X62612485Y-65070000D01*
X63348928Y-65070000D01*
X63361188Y-65194482D01*
X63397498Y-65314180D01*
X63456463Y-65424494D01*
X63535815Y-65521185D01*
X63632506Y-65600537D01*
X63722284Y-65648525D01*
X63691784Y-65705586D01*
X63664362Y-65795986D01*
X63655102Y-65890000D01*
X63655102Y-66190000D01*
X63664362Y-66284014D01*
X63691784Y-66374414D01*
X63736316Y-66457728D01*
X63796247Y-66530753D01*
X63869272Y-66590684D01*
X63952586Y-66635216D01*
X64042986Y-66662638D01*
X64137000Y-66671898D01*
X64548007Y-66671898D01*
X64559614Y-66678102D01*
X64137000Y-66678102D01*
X64042986Y-66687362D01*
X63952586Y-66714784D01*
X63869272Y-66759316D01*
X63796247Y-66819247D01*
X63736316Y-66892272D01*
X63691784Y-66975586D01*
X63664362Y-67065986D01*
X63655102Y-67160000D01*
X63655102Y-67460000D01*
X63664362Y-67554014D01*
X63691784Y-67644414D01*
X63736316Y-67727728D01*
X63796247Y-67800753D01*
X63869272Y-67860684D01*
X63952586Y-67905216D01*
X64042986Y-67932638D01*
X64137000Y-67941898D01*
X64559614Y-67941898D01*
X64548007Y-67948102D01*
X64137000Y-67948102D01*
X64042986Y-67957362D01*
X63952586Y-67984784D01*
X63869272Y-68029316D01*
X63796247Y-68089247D01*
X63736316Y-68162272D01*
X63691784Y-68245586D01*
X63664362Y-68335986D01*
X63655102Y-68430000D01*
X63655102Y-68730000D01*
X63664362Y-68824014D01*
X63691784Y-68914414D01*
X63736316Y-68997728D01*
X63796247Y-69070753D01*
X63869272Y-69130684D01*
X63952586Y-69175216D01*
X64042986Y-69202638D01*
X64137000Y-69211898D01*
X64548007Y-69211898D01*
X64590788Y-69234765D01*
X64723737Y-69275094D01*
X64827358Y-69285300D01*
X65693642Y-69285300D01*
X65797263Y-69275094D01*
X65930212Y-69234765D01*
X66052739Y-69169272D01*
X66160135Y-69081135D01*
X66248272Y-68973739D01*
X66313765Y-68851212D01*
X66354094Y-68718263D01*
X66367712Y-68580000D01*
X66354094Y-68441737D01*
X66313765Y-68308788D01*
X66248272Y-68186261D01*
X66160135Y-68078865D01*
X66052739Y-67990728D01*
X65930212Y-67925235D01*
X65805013Y-67887257D01*
X65854728Y-67860684D01*
X65927753Y-67800753D01*
X65987684Y-67727728D01*
X66032216Y-67644414D01*
X66059638Y-67554014D01*
X66068898Y-67460000D01*
X66068898Y-67160000D01*
X66059638Y-67065986D01*
X66032216Y-66975586D01*
X65987684Y-66892272D01*
X65927753Y-66819247D01*
X65854728Y-66759316D01*
X65805013Y-66732743D01*
X65930212Y-66694765D01*
X66052739Y-66629272D01*
X66160135Y-66541135D01*
X66248272Y-66433739D01*
X66313765Y-66311212D01*
X66354094Y-66178263D01*
X66367712Y-66040000D01*
X66354094Y-65901737D01*
X66313765Y-65768788D01*
X66248272Y-65646261D01*
X66162754Y-65542056D01*
X66188185Y-65521185D01*
X66267537Y-65424494D01*
X66326502Y-65314180D01*
X66362812Y-65194482D01*
X66375072Y-65070000D01*
X66372000Y-65055750D01*
X66213250Y-64897000D01*
X64989000Y-64897000D01*
X64989000Y-64917000D01*
X64735000Y-64917000D01*
X64735000Y-64897000D01*
X63510750Y-64897000D01*
X63352000Y-65055750D01*
X63348928Y-65070000D01*
X62612485Y-65070000D01*
X62501525Y-64959040D01*
X62316399Y-64835342D01*
X62110697Y-64750138D01*
X61892326Y-64706701D01*
X61669676Y-64706701D01*
X61451305Y-64750138D01*
X61435460Y-64756701D01*
X59400541Y-64756701D01*
X59384696Y-64750138D01*
X59166325Y-64706701D01*
X58943675Y-64706701D01*
X58725304Y-64750138D01*
X58519602Y-64835342D01*
X58334476Y-64959040D01*
X58177039Y-65116477D01*
X58053341Y-65301603D01*
X57968137Y-65507305D01*
X57924700Y-65725676D01*
X52659300Y-65725676D01*
X52659300Y-64470000D01*
X63348928Y-64470000D01*
X63352000Y-64484250D01*
X63510750Y-64643000D01*
X64735000Y-64643000D01*
X64735000Y-63993750D01*
X64989000Y-63993750D01*
X64989000Y-64643000D01*
X66213250Y-64643000D01*
X66372000Y-64484250D01*
X66375072Y-64470000D01*
X66362812Y-64345518D01*
X66326502Y-64225820D01*
X66267537Y-64115506D01*
X66188185Y-64018815D01*
X66091494Y-63939463D01*
X65981180Y-63880498D01*
X65861482Y-63844188D01*
X65737000Y-63831928D01*
X65147750Y-63835000D01*
X64989000Y-63993750D01*
X64735000Y-63993750D01*
X64576250Y-63835000D01*
X63987000Y-63831928D01*
X63862518Y-63844188D01*
X63742820Y-63880498D01*
X63632506Y-63939463D01*
X63535815Y-64018815D01*
X63456463Y-64115506D01*
X63397498Y-64225820D01*
X63361188Y-64345518D01*
X63348928Y-64470000D01*
X52659300Y-64470000D01*
X52659300Y-60540000D01*
X53121928Y-60540000D01*
X53134188Y-60664482D01*
X53170498Y-60784180D01*
X53229463Y-60894494D01*
X53308815Y-60991185D01*
X53405506Y-61070537D01*
X53515820Y-61129502D01*
X53635518Y-61165812D01*
X53760000Y-61178072D01*
X54069373Y-61176388D01*
X54050918Y-61184032D01*
X53857603Y-61313201D01*
X53693201Y-61477603D01*
X53564032Y-61670918D01*
X53475058Y-61885719D01*
X53429700Y-62113751D01*
X53429700Y-62346249D01*
X53475058Y-62574281D01*
X53564032Y-62789082D01*
X53693201Y-62982397D01*
X53857603Y-63146799D01*
X54050918Y-63275968D01*
X54265719Y-63364942D01*
X54493751Y-63410300D01*
X54726249Y-63410300D01*
X54954281Y-63364942D01*
X55169082Y-63275968D01*
X55304213Y-63185676D01*
X57924700Y-63185676D01*
X57924700Y-63408326D01*
X57968137Y-63626697D01*
X58053341Y-63832399D01*
X58177039Y-64017525D01*
X58334476Y-64174962D01*
X58519602Y-64298660D01*
X58725304Y-64383864D01*
X58943675Y-64427301D01*
X59166325Y-64427301D01*
X59384696Y-64383864D01*
X59400541Y-64377301D01*
X61435460Y-64377301D01*
X61451305Y-64383864D01*
X61669676Y-64427301D01*
X61892326Y-64427301D01*
X62110697Y-64383864D01*
X62316399Y-64298660D01*
X62501525Y-64174962D01*
X62658962Y-64017525D01*
X62782660Y-63832399D01*
X62867864Y-63626697D01*
X62911301Y-63408326D01*
X62911301Y-63185676D01*
X62867864Y-62967305D01*
X62782660Y-62761603D01*
X62658962Y-62576477D01*
X62501525Y-62419040D01*
X62316399Y-62295342D01*
X62110697Y-62210138D01*
X61892326Y-62166701D01*
X61669676Y-62166701D01*
X61451305Y-62210138D01*
X61435460Y-62216701D01*
X59400541Y-62216701D01*
X59384696Y-62210138D01*
X59166325Y-62166701D01*
X58943675Y-62166701D01*
X58725304Y-62210138D01*
X58519602Y-62295342D01*
X58334476Y-62419040D01*
X58177039Y-62576477D01*
X58053341Y-62761603D01*
X57968137Y-62967305D01*
X57924700Y-63185676D01*
X55304213Y-63185676D01*
X55362397Y-63146799D01*
X55526799Y-62982397D01*
X55655968Y-62789082D01*
X55744942Y-62574281D01*
X55790300Y-62346249D01*
X55790300Y-62113751D01*
X55744942Y-61885719D01*
X55655968Y-61670918D01*
X55526799Y-61477603D01*
X55362397Y-61313201D01*
X55169082Y-61184032D01*
X55150627Y-61176388D01*
X55460000Y-61178072D01*
X55584482Y-61165812D01*
X55704180Y-61129502D01*
X55814494Y-61070537D01*
X55911185Y-60991185D01*
X55990537Y-60894494D01*
X56049502Y-60784180D01*
X56085812Y-60664482D01*
X56087664Y-60645676D01*
X57924700Y-60645676D01*
X57924700Y-60868326D01*
X57968137Y-61086697D01*
X58053341Y-61292399D01*
X58177039Y-61477525D01*
X58334476Y-61634962D01*
X58519602Y-61758660D01*
X58725304Y-61843864D01*
X58943675Y-61887301D01*
X59166325Y-61887301D01*
X59384696Y-61843864D01*
X59400541Y-61837301D01*
X61435460Y-61837301D01*
X61451305Y-61843864D01*
X61669676Y-61887301D01*
X61892326Y-61887301D01*
X62110697Y-61843864D01*
X62316399Y-61758660D01*
X62501525Y-61634962D01*
X62658962Y-61477525D01*
X62782660Y-61292399D01*
X62867864Y-61086697D01*
X62911301Y-60868326D01*
X62911301Y-60645676D01*
X62867864Y-60427305D01*
X62782660Y-60221603D01*
X62658962Y-60036477D01*
X62501525Y-59879040D01*
X62316399Y-59755342D01*
X62110697Y-59670138D01*
X61892326Y-59626701D01*
X61669676Y-59626701D01*
X61451305Y-59670138D01*
X61435460Y-59676701D01*
X59400541Y-59676701D01*
X59384696Y-59670138D01*
X59166325Y-59626701D01*
X58943675Y-59626701D01*
X58725304Y-59670138D01*
X58519602Y-59755342D01*
X58334476Y-59879040D01*
X58177039Y-60036477D01*
X58053341Y-60221603D01*
X57968137Y-60427305D01*
X57924700Y-60645676D01*
X56087664Y-60645676D01*
X56098072Y-60540000D01*
X56095000Y-59975750D01*
X55936250Y-59817000D01*
X54737000Y-59817000D01*
X54737000Y-59837000D01*
X54483000Y-59837000D01*
X54483000Y-59817000D01*
X53283750Y-59817000D01*
X53125000Y-59975750D01*
X53121928Y-60540000D01*
X52659300Y-60540000D01*
X52659300Y-58840000D01*
X53121928Y-58840000D01*
X53125000Y-59404250D01*
X53283750Y-59563000D01*
X54483000Y-59563000D01*
X54483000Y-58363750D01*
X54737000Y-58363750D01*
X54737000Y-59563000D01*
X55936250Y-59563000D01*
X56095000Y-59404250D01*
X56098072Y-58840000D01*
X56085812Y-58715518D01*
X56049502Y-58595820D01*
X55990537Y-58485506D01*
X55911185Y-58388815D01*
X55814494Y-58309463D01*
X55704180Y-58250498D01*
X55584482Y-58214188D01*
X55460000Y-58201928D01*
X54895750Y-58205000D01*
X54737000Y-58363750D01*
X54483000Y-58363750D01*
X54324250Y-58205000D01*
X53760000Y-58201928D01*
X53635518Y-58214188D01*
X53515820Y-58250498D01*
X53405506Y-58309463D01*
X53308815Y-58388815D01*
X53229463Y-58485506D01*
X53170498Y-58595820D01*
X53134188Y-58715518D01*
X53121928Y-58840000D01*
X52659300Y-58840000D01*
X52659300Y-58105676D01*
X57924700Y-58105676D01*
X57924700Y-58328326D01*
X57968137Y-58546697D01*
X58053341Y-58752399D01*
X58177039Y-58937525D01*
X58334476Y-59094962D01*
X58519602Y-59218660D01*
X58725304Y-59303864D01*
X58943675Y-59347301D01*
X59166325Y-59347301D01*
X59384696Y-59303864D01*
X59400541Y-59297301D01*
X61435460Y-59297301D01*
X61451305Y-59303864D01*
X61669676Y-59347301D01*
X61892326Y-59347301D01*
X62110697Y-59303864D01*
X62316399Y-59218660D01*
X62501525Y-59094962D01*
X62658962Y-58937525D01*
X62782660Y-58752399D01*
X62867864Y-58546697D01*
X62911301Y-58328326D01*
X62911301Y-58105676D01*
X62867864Y-57887305D01*
X62782660Y-57681603D01*
X62658962Y-57496477D01*
X62501525Y-57339040D01*
X62316399Y-57215342D01*
X62110697Y-57130138D01*
X61892326Y-57086701D01*
X61669676Y-57086701D01*
X61451305Y-57130138D01*
X61435460Y-57136701D01*
X59400541Y-57136701D01*
X59384696Y-57130138D01*
X59166325Y-57086701D01*
X58943675Y-57086701D01*
X58725304Y-57130138D01*
X58519602Y-57215342D01*
X58334476Y-57339040D01*
X58177039Y-57496477D01*
X58053341Y-57681603D01*
X57968137Y-57887305D01*
X57924700Y-58105676D01*
X52659300Y-58105676D01*
X52659300Y-55565676D01*
X57924700Y-55565676D01*
X57924700Y-55788326D01*
X57968137Y-56006697D01*
X58053341Y-56212399D01*
X58177039Y-56397525D01*
X58334476Y-56554962D01*
X58519602Y-56678660D01*
X58725304Y-56763864D01*
X58943675Y-56807301D01*
X59166325Y-56807301D01*
X59384696Y-56763864D01*
X59400541Y-56757301D01*
X61435460Y-56757301D01*
X61451305Y-56763864D01*
X61669676Y-56807301D01*
X61892326Y-56807301D01*
X62110697Y-56763864D01*
X62316399Y-56678660D01*
X62501525Y-56554962D01*
X62658962Y-56397525D01*
X62782660Y-56212399D01*
X62867864Y-56006697D01*
X62911301Y-55788326D01*
X62911301Y-55565676D01*
X62867864Y-55347305D01*
X62782660Y-55141603D01*
X62658962Y-54956477D01*
X62501525Y-54799040D01*
X62316399Y-54675342D01*
X62110697Y-54590138D01*
X61892326Y-54546701D01*
X61669676Y-54546701D01*
X61451305Y-54590138D01*
X61435460Y-54596701D01*
X59400541Y-54596701D01*
X59384696Y-54590138D01*
X59166325Y-54546701D01*
X58943675Y-54546701D01*
X58725304Y-54590138D01*
X58519602Y-54675342D01*
X58334476Y-54799040D01*
X58177039Y-54956477D01*
X58053341Y-55141603D01*
X57968137Y-55347305D01*
X57924700Y-55565676D01*
X52659300Y-55565676D01*
X52659300Y-54190000D01*
X53121928Y-54190000D01*
X53134188Y-54314482D01*
X53170498Y-54434180D01*
X53229463Y-54544494D01*
X53308815Y-54641185D01*
X53405506Y-54720537D01*
X53515820Y-54779502D01*
X53635518Y-54815812D01*
X53760000Y-54828072D01*
X54324250Y-54825000D01*
X54483000Y-54666250D01*
X54483000Y-53467000D01*
X54737000Y-53467000D01*
X54737000Y-54666250D01*
X54895750Y-54825000D01*
X55460000Y-54828072D01*
X55584482Y-54815812D01*
X55704180Y-54779502D01*
X55814494Y-54720537D01*
X55911185Y-54641185D01*
X55990537Y-54544494D01*
X56049502Y-54434180D01*
X56085812Y-54314482D01*
X56098072Y-54190000D01*
X56095000Y-53625750D01*
X55936250Y-53467000D01*
X54737000Y-53467000D01*
X54483000Y-53467000D01*
X53283750Y-53467000D01*
X53125000Y-53625750D01*
X53121928Y-54190000D01*
X52659300Y-54190000D01*
X52659300Y-52490000D01*
X53121928Y-52490000D01*
X53125000Y-53054250D01*
X53283750Y-53213000D01*
X54483000Y-53213000D01*
X54483000Y-53193000D01*
X54737000Y-53193000D01*
X54737000Y-53213000D01*
X55936250Y-53213000D01*
X56095000Y-53054250D01*
X56095155Y-53025676D01*
X57924700Y-53025676D01*
X57924700Y-53248326D01*
X57968137Y-53466697D01*
X58053341Y-53672399D01*
X58177039Y-53857525D01*
X58334476Y-54014962D01*
X58519602Y-54138660D01*
X58725304Y-54223864D01*
X58943675Y-54267301D01*
X59166325Y-54267301D01*
X59384696Y-54223864D01*
X59400541Y-54217301D01*
X61435460Y-54217301D01*
X61451305Y-54223864D01*
X61669676Y-54267301D01*
X61892326Y-54267301D01*
X62110697Y-54223864D01*
X62316399Y-54138660D01*
X62501525Y-54014962D01*
X62658962Y-53857525D01*
X62782660Y-53672399D01*
X62867864Y-53466697D01*
X62911301Y-53248326D01*
X62911301Y-53025676D01*
X62867864Y-52807305D01*
X62782660Y-52601603D01*
X62658962Y-52416477D01*
X62501525Y-52259040D01*
X62316399Y-52135342D01*
X62110697Y-52050138D01*
X61892326Y-52006701D01*
X61669676Y-52006701D01*
X61451305Y-52050138D01*
X61435460Y-52056701D01*
X59400541Y-52056701D01*
X59384696Y-52050138D01*
X59166325Y-52006701D01*
X58943675Y-52006701D01*
X58725304Y-52050138D01*
X58519602Y-52135342D01*
X58334476Y-52259040D01*
X58177039Y-52416477D01*
X58053341Y-52601603D01*
X57968137Y-52807305D01*
X57924700Y-53025676D01*
X56095155Y-53025676D01*
X56098072Y-52490000D01*
X56085812Y-52365518D01*
X56049502Y-52245820D01*
X55990537Y-52135506D01*
X55911185Y-52038815D01*
X55814494Y-51959463D01*
X55704180Y-51900498D01*
X55584482Y-51864188D01*
X55460000Y-51851928D01*
X55150627Y-51853612D01*
X55169082Y-51845968D01*
X55362397Y-51716799D01*
X55526799Y-51552397D01*
X55655968Y-51359082D01*
X55744942Y-51144281D01*
X55790300Y-50916249D01*
X55790300Y-50683751D01*
X55744942Y-50455719D01*
X55655968Y-50240918D01*
X55526799Y-50047603D01*
X55362397Y-49883201D01*
X55169082Y-49754032D01*
X54954281Y-49665058D01*
X54726249Y-49619700D01*
X54493751Y-49619700D01*
X54265719Y-49665058D01*
X54050918Y-49754032D01*
X53857603Y-49883201D01*
X53693201Y-50047603D01*
X53564032Y-50240918D01*
X53475058Y-50455719D01*
X53429700Y-50683751D01*
X53429700Y-50916249D01*
X53475058Y-51144281D01*
X53564032Y-51359082D01*
X53693201Y-51552397D01*
X53857603Y-51716799D01*
X54050918Y-51845968D01*
X54069373Y-51853612D01*
X53760000Y-51851928D01*
X53635518Y-51864188D01*
X53515820Y-51900498D01*
X53405506Y-51959463D01*
X53308815Y-52038815D01*
X53229463Y-52135506D01*
X53170498Y-52245820D01*
X53134188Y-52365518D01*
X53121928Y-52490000D01*
X52659300Y-52490000D01*
X52659300Y-40325676D01*
X57924700Y-40325676D01*
X57924700Y-40548326D01*
X57968137Y-40766697D01*
X58053341Y-40972399D01*
X58177039Y-41157525D01*
X58334476Y-41314962D01*
X58519602Y-41438660D01*
X58725304Y-41523864D01*
X58943675Y-41567301D01*
X59166325Y-41567301D01*
X59384696Y-41523864D01*
X59400541Y-41517301D01*
X61435460Y-41517301D01*
X61451305Y-41523864D01*
X61669676Y-41567301D01*
X61892326Y-41567301D01*
X62110697Y-41523864D01*
X62316399Y-41438660D01*
X62329359Y-41430000D01*
X64861928Y-41430000D01*
X64865000Y-42269250D01*
X65023750Y-42428000D01*
X66548000Y-42428000D01*
X66548000Y-40953750D01*
X66389250Y-40795000D01*
X65500000Y-40791928D01*
X65375518Y-40804188D01*
X65255820Y-40840498D01*
X65145506Y-40899463D01*
X65048815Y-40978815D01*
X64969463Y-41075506D01*
X64910498Y-41185820D01*
X64874188Y-41305518D01*
X64861928Y-41430000D01*
X62329359Y-41430000D01*
X62501525Y-41314962D01*
X62658962Y-41157525D01*
X62782660Y-40972399D01*
X62867864Y-40766697D01*
X62911301Y-40548326D01*
X62911301Y-40325676D01*
X62867864Y-40107305D01*
X62782660Y-39901603D01*
X62658962Y-39716477D01*
X62501525Y-39559040D01*
X62316399Y-39435342D01*
X62110697Y-39350138D01*
X61892326Y-39306701D01*
X61669676Y-39306701D01*
X61451305Y-39350138D01*
X61435460Y-39356701D01*
X59400541Y-39356701D01*
X59384696Y-39350138D01*
X59166325Y-39306701D01*
X58943675Y-39306701D01*
X58725304Y-39350138D01*
X58519602Y-39435342D01*
X58334476Y-39559040D01*
X58177039Y-39716477D01*
X58053341Y-39901603D01*
X57968137Y-40107305D01*
X57924700Y-40325676D01*
X52659300Y-40325676D01*
X52659300Y-29283680D01*
X53250439Y-29283680D01*
X53290937Y-29547501D01*
X53382125Y-29798353D01*
X53438632Y-29904068D01*
X53674440Y-29965955D01*
X54430395Y-29210000D01*
X53674440Y-28454045D01*
X53438632Y-28515932D01*
X53325734Y-28757790D01*
X53262189Y-29017027D01*
X53250439Y-29283680D01*
X52659300Y-29283680D01*
X52659300Y-26670000D01*
X53524473Y-26670000D01*
X53545332Y-26881776D01*
X53607105Y-27085413D01*
X53707418Y-27273086D01*
X53808586Y-27396360D01*
X54299082Y-27886856D01*
X54272499Y-27890937D01*
X54021647Y-27982125D01*
X53915932Y-28038632D01*
X53854045Y-28274440D01*
X54610000Y-29030395D01*
X54624143Y-29016253D01*
X54803748Y-29195858D01*
X54789605Y-29210000D01*
X54803748Y-29224143D01*
X54624143Y-29403748D01*
X54610000Y-29389605D01*
X53854045Y-30145560D01*
X53915932Y-30381368D01*
X54157790Y-30494266D01*
X54417027Y-30557811D01*
X54683680Y-30569561D01*
X54947501Y-30529063D01*
X55198353Y-30437875D01*
X55304068Y-30381368D01*
X55365954Y-30145562D01*
X55434701Y-30214309D01*
X55434700Y-35747526D01*
X55360449Y-35821777D01*
X55344602Y-35828341D01*
X55159476Y-35952039D01*
X55002039Y-36109476D01*
X54878341Y-36294602D01*
X54793137Y-36500304D01*
X54749700Y-36718675D01*
X54749700Y-36941325D01*
X54793137Y-37159696D01*
X54878341Y-37365398D01*
X55002039Y-37550524D01*
X55159476Y-37707961D01*
X55344602Y-37831659D01*
X55550304Y-37916863D01*
X55768675Y-37960300D01*
X55991325Y-37960300D01*
X56209696Y-37916863D01*
X56415398Y-37831659D01*
X56484215Y-37785676D01*
X57924700Y-37785676D01*
X57924700Y-38008326D01*
X57968137Y-38226697D01*
X58053341Y-38432399D01*
X58177039Y-38617525D01*
X58334476Y-38774962D01*
X58519602Y-38898660D01*
X58725304Y-38983864D01*
X58943675Y-39027301D01*
X59166325Y-39027301D01*
X59384696Y-38983864D01*
X59400541Y-38977301D01*
X61435460Y-38977301D01*
X61451305Y-38983864D01*
X61669676Y-39027301D01*
X61892326Y-39027301D01*
X62110697Y-38983864D01*
X62316399Y-38898660D01*
X62501525Y-38774962D01*
X62658962Y-38617525D01*
X62782660Y-38432399D01*
X62867864Y-38226697D01*
X62911301Y-38008326D01*
X62911301Y-37785676D01*
X62867864Y-37567305D01*
X62782660Y-37361603D01*
X62658962Y-37176477D01*
X62501525Y-37019040D01*
X62316399Y-36895342D01*
X62110697Y-36810138D01*
X61892326Y-36766701D01*
X61669676Y-36766701D01*
X61451305Y-36810138D01*
X61435460Y-36816701D01*
X59400541Y-36816701D01*
X59384696Y-36810138D01*
X59166325Y-36766701D01*
X58943675Y-36766701D01*
X58725304Y-36810138D01*
X58519602Y-36895342D01*
X58334476Y-37019040D01*
X58177039Y-37176477D01*
X58053341Y-37361603D01*
X57968137Y-37567305D01*
X57924700Y-37785676D01*
X56484215Y-37785676D01*
X56600524Y-37707961D01*
X56757961Y-37550524D01*
X56881659Y-37365398D01*
X56888223Y-37349551D01*
X57241352Y-36996422D01*
X57282584Y-36962584D01*
X57391392Y-36830000D01*
X57417583Y-36798087D01*
X57517896Y-36610413D01*
X57579669Y-36406777D01*
X57600527Y-36195000D01*
X57595300Y-36141929D01*
X57595300Y-35245676D01*
X57924700Y-35245676D01*
X57924700Y-35468326D01*
X57968137Y-35686697D01*
X58053341Y-35892399D01*
X58177039Y-36077525D01*
X58334476Y-36234962D01*
X58519602Y-36358660D01*
X58725304Y-36443864D01*
X58943675Y-36487301D01*
X59166325Y-36487301D01*
X59384696Y-36443864D01*
X59400541Y-36437301D01*
X61435460Y-36437301D01*
X61451305Y-36443864D01*
X61669676Y-36487301D01*
X61892326Y-36487301D01*
X62110697Y-36443864D01*
X62316399Y-36358660D01*
X62501525Y-36234962D01*
X62658962Y-36077525D01*
X62782660Y-35892399D01*
X62867864Y-35686697D01*
X62911301Y-35468326D01*
X62911301Y-35245676D01*
X62867864Y-35027305D01*
X62782660Y-34821603D01*
X62658962Y-34636477D01*
X62501525Y-34479040D01*
X62316399Y-34355342D01*
X62110697Y-34270138D01*
X61892326Y-34226701D01*
X61669676Y-34226701D01*
X61451305Y-34270138D01*
X61435460Y-34276701D01*
X59400541Y-34276701D01*
X59384696Y-34270138D01*
X59166325Y-34226701D01*
X58943675Y-34226701D01*
X58725304Y-34270138D01*
X58519602Y-34355342D01*
X58334476Y-34479040D01*
X58177039Y-34636477D01*
X58053341Y-34821603D01*
X57968137Y-35027305D01*
X57924700Y-35245676D01*
X57595300Y-35245676D01*
X57595300Y-32705676D01*
X57924700Y-32705676D01*
X57924700Y-32928326D01*
X57968137Y-33146697D01*
X58053341Y-33352399D01*
X58177039Y-33537525D01*
X58334476Y-33694962D01*
X58519602Y-33818660D01*
X58725304Y-33903864D01*
X58943675Y-33947301D01*
X59166325Y-33947301D01*
X59384696Y-33903864D01*
X59400541Y-33897301D01*
X61435460Y-33897301D01*
X61451305Y-33903864D01*
X61669676Y-33947301D01*
X61892326Y-33947301D01*
X62110697Y-33903864D01*
X62316399Y-33818660D01*
X62501525Y-33694962D01*
X62658962Y-33537525D01*
X62782660Y-33352399D01*
X62867864Y-33146697D01*
X62911301Y-32928326D01*
X62911301Y-32705676D01*
X62867864Y-32487305D01*
X62782660Y-32281603D01*
X62658962Y-32096477D01*
X62501525Y-31939040D01*
X62316399Y-31815342D01*
X62110697Y-31730138D01*
X61892326Y-31686701D01*
X61669676Y-31686701D01*
X61451305Y-31730138D01*
X61435460Y-31736701D01*
X59400541Y-31736701D01*
X59384696Y-31730138D01*
X59166325Y-31686701D01*
X58943675Y-31686701D01*
X58725304Y-31730138D01*
X58519602Y-31815342D01*
X58334476Y-31939040D01*
X58177039Y-32096477D01*
X58053341Y-32281603D01*
X57968137Y-32487305D01*
X57924700Y-32705676D01*
X57595300Y-32705676D01*
X57595300Y-30165676D01*
X57924700Y-30165676D01*
X57924700Y-30388326D01*
X57968137Y-30606697D01*
X58053341Y-30812399D01*
X58177039Y-30997525D01*
X58334476Y-31154962D01*
X58519602Y-31278660D01*
X58725304Y-31363864D01*
X58943675Y-31407301D01*
X59166325Y-31407301D01*
X59384696Y-31363864D01*
X59400541Y-31357301D01*
X61435460Y-31357301D01*
X61451305Y-31363864D01*
X61669676Y-31407301D01*
X61892326Y-31407301D01*
X62110697Y-31363864D01*
X62316399Y-31278660D01*
X62501525Y-31154962D01*
X62658962Y-30997525D01*
X62782660Y-30812399D01*
X62867864Y-30606697D01*
X62911301Y-30388326D01*
X62911301Y-30165676D01*
X62867864Y-29947305D01*
X62782660Y-29741603D01*
X62658962Y-29556477D01*
X62501525Y-29399040D01*
X62316399Y-29275342D01*
X62110697Y-29190138D01*
X61892326Y-29146701D01*
X61669676Y-29146701D01*
X61451305Y-29190138D01*
X61435460Y-29196701D01*
X59400541Y-29196701D01*
X59384696Y-29190138D01*
X59166325Y-29146701D01*
X58943675Y-29146701D01*
X58725304Y-29190138D01*
X58519602Y-29275342D01*
X58334476Y-29399040D01*
X58177039Y-29556477D01*
X58053341Y-29741603D01*
X57968137Y-29947305D01*
X57924700Y-30165676D01*
X57595300Y-30165676D01*
X57595300Y-28628068D01*
X57600527Y-28574999D01*
X57594709Y-28515932D01*
X57579669Y-28363224D01*
X57517896Y-28159587D01*
X57417583Y-27971914D01*
X57282584Y-27807416D01*
X57241352Y-27773578D01*
X55336360Y-25868586D01*
X55213086Y-25767418D01*
X55025413Y-25667105D01*
X54821776Y-25605332D01*
X54610000Y-25584473D01*
X54398224Y-25605332D01*
X54194587Y-25667105D01*
X54006914Y-25767418D01*
X53842417Y-25902417D01*
X53707418Y-26066914D01*
X53607105Y-26254587D01*
X53545332Y-26458224D01*
X53524473Y-26670000D01*
X52659300Y-26670000D01*
X52659300Y-24130000D01*
X53524473Y-24130000D01*
X53545331Y-24341776D01*
X53607104Y-24545413D01*
X53707417Y-24733086D01*
X53842416Y-24897584D01*
X54006914Y-25032583D01*
X54194587Y-25132896D01*
X54398224Y-25194669D01*
X54556929Y-25210300D01*
X54694399Y-25210300D01*
X54701462Y-25218906D01*
X54894499Y-25411943D01*
X54916585Y-25438855D01*
X55023981Y-25526992D01*
X55146508Y-25592485D01*
X55279457Y-25632814D01*
X55383078Y-25643020D01*
X55383081Y-25643020D01*
X55417720Y-25646432D01*
X55452359Y-25643020D01*
X56753716Y-25643020D01*
X57860121Y-26749425D01*
X57882207Y-26776337D01*
X57939846Y-26823640D01*
X57989602Y-26864474D01*
X58021972Y-26881776D01*
X58112130Y-26929967D01*
X58245079Y-26970296D01*
X58348700Y-26980502D01*
X58348710Y-26980502D01*
X58383341Y-26983913D01*
X58417973Y-26980502D01*
X58711673Y-26980502D01*
X58661706Y-27001199D01*
X58525715Y-27092065D01*
X58410064Y-27207716D01*
X58319198Y-27343707D01*
X58256608Y-27494812D01*
X58224700Y-27655224D01*
X58224700Y-27818778D01*
X58256608Y-27979190D01*
X58319198Y-28130295D01*
X58410064Y-28266286D01*
X58525715Y-28381937D01*
X58661706Y-28472803D01*
X58812811Y-28535393D01*
X58973223Y-28567301D01*
X59136777Y-28567301D01*
X59297189Y-28535393D01*
X59448294Y-28472803D01*
X59584285Y-28381937D01*
X59699936Y-28266286D01*
X59790802Y-28130295D01*
X59853392Y-27979190D01*
X59885300Y-27818778D01*
X59885300Y-27655224D01*
X59853392Y-27494812D01*
X59790802Y-27343707D01*
X59699936Y-27207716D01*
X59584285Y-27092065D01*
X59448294Y-27001199D01*
X59398327Y-26980502D01*
X60668169Y-26980502D01*
X60702800Y-26983913D01*
X60737431Y-26980502D01*
X60737442Y-26980502D01*
X60841063Y-26970296D01*
X60974012Y-26929967D01*
X61007393Y-26912124D01*
X60903040Y-27016477D01*
X60779342Y-27201603D01*
X60694138Y-27407305D01*
X60650701Y-27625676D01*
X60650701Y-27848326D01*
X60694138Y-28066697D01*
X60779342Y-28272399D01*
X60903040Y-28457525D01*
X61060477Y-28614962D01*
X61245603Y-28738660D01*
X61451305Y-28823864D01*
X61669676Y-28867301D01*
X61892326Y-28867301D01*
X62110697Y-28823864D01*
X62126542Y-28817301D01*
X64599873Y-28817301D01*
X64543536Y-28863536D01*
X64471169Y-28951714D01*
X64417396Y-29052317D01*
X64384283Y-29161477D01*
X64373102Y-29274999D01*
X64373102Y-29280194D01*
X64340331Y-29388225D01*
X64324700Y-29546930D01*
X64324701Y-31941919D01*
X64319473Y-31995000D01*
X64340331Y-32206776D01*
X64373102Y-32314807D01*
X64373102Y-32320001D01*
X64384283Y-32433523D01*
X64417396Y-32542683D01*
X64471169Y-32643286D01*
X64543536Y-32731464D01*
X64631714Y-32803831D01*
X64732317Y-32857604D01*
X64765444Y-32867653D01*
X64801914Y-32897583D01*
X64989587Y-32997896D01*
X65193224Y-33059669D01*
X65351929Y-33075300D01*
X65405000Y-33080527D01*
X65458071Y-33075300D01*
X69903071Y-33075300D01*
X70061776Y-33059669D01*
X70265413Y-32997896D01*
X70453086Y-32897583D01*
X70489556Y-32867653D01*
X70522683Y-32857604D01*
X70623286Y-32803831D01*
X70711464Y-32731464D01*
X70783831Y-32643286D01*
X70837604Y-32542683D01*
X70870717Y-32433523D01*
X70881898Y-32320001D01*
X70881898Y-32314807D01*
X70914669Y-32206776D01*
X70935527Y-31995000D01*
X70914669Y-31783224D01*
X70881898Y-31675193D01*
X70881898Y-31669999D01*
X70870717Y-31556477D01*
X70837604Y-31447317D01*
X70783831Y-31346714D01*
X70711464Y-31258536D01*
X70623286Y-31186169D01*
X70522683Y-31132396D01*
X70489556Y-31122347D01*
X70453086Y-31092417D01*
X70265413Y-30992104D01*
X70061776Y-30930331D01*
X69903071Y-30914700D01*
X66485300Y-30914700D01*
X66485300Y-29546929D01*
X66469669Y-29388224D01*
X66436898Y-29280193D01*
X66436898Y-29274999D01*
X66425717Y-29161477D01*
X66392604Y-29052317D01*
X66338831Y-28951714D01*
X66266464Y-28863536D01*
X66178286Y-28791169D01*
X66077683Y-28737396D01*
X66044556Y-28727347D01*
X66008086Y-28697417D01*
X65852166Y-28614077D01*
X65985583Y-28504585D01*
X66019421Y-28463353D01*
X66066899Y-28415875D01*
X66077683Y-28412604D01*
X66178286Y-28358831D01*
X66266464Y-28286464D01*
X66338831Y-28198286D01*
X66392604Y-28097683D01*
X66425717Y-27988523D01*
X66436898Y-27875001D01*
X66436898Y-27869804D01*
X66469668Y-27761776D01*
X66490527Y-27550001D01*
X66469668Y-27338224D01*
X66436898Y-27230197D01*
X66436898Y-27224999D01*
X66425717Y-27111477D01*
X66392604Y-27002317D01*
X66338831Y-26901714D01*
X66266464Y-26813536D01*
X66178286Y-26741169D01*
X66077683Y-26687396D01*
X66044554Y-26677347D01*
X66008086Y-26647418D01*
X65820412Y-26547105D01*
X65616776Y-26485332D01*
X65404999Y-26464473D01*
X65193224Y-26485332D01*
X64989587Y-26547105D01*
X64801914Y-26647418D01*
X64790603Y-26656701D01*
X62126542Y-26656701D01*
X62110697Y-26650138D01*
X61892326Y-26606701D01*
X61669676Y-26606701D01*
X61451305Y-26650138D01*
X61245603Y-26735342D01*
X61229031Y-26746415D01*
X61651718Y-26323729D01*
X61669676Y-26327301D01*
X61892326Y-26327301D01*
X62110697Y-26283864D01*
X62316399Y-26198660D01*
X62501525Y-26074962D01*
X62658962Y-25917525D01*
X62782660Y-25732399D01*
X62867864Y-25526697D01*
X62911301Y-25308326D01*
X62911301Y-25085676D01*
X62867864Y-24867305D01*
X62782660Y-24661603D01*
X62658962Y-24476477D01*
X62501525Y-24319040D01*
X62316399Y-24195342D01*
X62110697Y-24110138D01*
X61892326Y-24066701D01*
X61669676Y-24066701D01*
X61651718Y-24070273D01*
X61370343Y-23788899D01*
X62581001Y-23788899D01*
X62645751Y-23782522D01*
X62708013Y-23763635D01*
X62765394Y-23732964D01*
X62815688Y-23691688D01*
X62856964Y-23641394D01*
X62887635Y-23584013D01*
X62906522Y-23521751D01*
X62912899Y-23457001D01*
X62912899Y-21857001D01*
X62906522Y-21792251D01*
X62887635Y-21729989D01*
X62856964Y-21672608D01*
X62815688Y-21622314D01*
X62765394Y-21581038D01*
X62708013Y-21550367D01*
X62645751Y-21531480D01*
X62581001Y-21525103D01*
X60981001Y-21525103D01*
X60916251Y-21531480D01*
X60853989Y-21550367D01*
X60796608Y-21581038D01*
X60746314Y-21622314D01*
X60705038Y-21672608D01*
X60674367Y-21729989D01*
X60655480Y-21792251D01*
X60649103Y-21857001D01*
X60649103Y-21951701D01*
X60186898Y-21951701D01*
X60186898Y-21857001D01*
X60180521Y-21792251D01*
X60161634Y-21729989D01*
X60130963Y-21672608D01*
X60089687Y-21622314D01*
X60039393Y-21581038D01*
X59982012Y-21550367D01*
X59919750Y-21531480D01*
X59855000Y-21525103D01*
X58255000Y-21525103D01*
X58190250Y-21531480D01*
X58127988Y-21550367D01*
X58070607Y-21581038D01*
X58020313Y-21622314D01*
X57979037Y-21672608D01*
X57948366Y-21729989D01*
X57929479Y-21792251D01*
X57923102Y-21857001D01*
X57923102Y-23105436D01*
X57753976Y-23054132D01*
X57542199Y-23033273D01*
X57375421Y-23049700D01*
X54556929Y-23049700D01*
X54398224Y-23065331D01*
X54194587Y-23127104D01*
X54006914Y-23227417D01*
X53842416Y-23362416D01*
X53707417Y-23526914D01*
X53607104Y-23714587D01*
X53545331Y-23918224D01*
X53524473Y-24130000D01*
X52659300Y-24130000D01*
X52659300Y-21417300D01*
X77769700Y-21417300D01*
X77769700Y-21807215D01*
G37*
X77769700Y-21807215D02*
X77741525Y-21779040D01*
X77556399Y-21655342D01*
X77350697Y-21570138D01*
X77132326Y-21526701D01*
X76909676Y-21526701D01*
X76691305Y-21570138D01*
X76675460Y-21576701D01*
X74640541Y-21576701D01*
X74624696Y-21570138D01*
X74406325Y-21526701D01*
X74183675Y-21526701D01*
X73965304Y-21570138D01*
X73949459Y-21576701D01*
X73216698Y-21576701D01*
X73163629Y-21571474D01*
X73110561Y-21576701D01*
X73110559Y-21576701D01*
X72951854Y-21592332D01*
X72748217Y-21654105D01*
X72560544Y-21754418D01*
X72396046Y-21889417D01*
X72362212Y-21930644D01*
X71663647Y-22629210D01*
X71622416Y-22663047D01*
X71487417Y-22827545D01*
X71387104Y-23015219D01*
X71325331Y-23218856D01*
X71315943Y-23314179D01*
X71304473Y-23430631D01*
X71309700Y-23483700D01*
X71309701Y-26469700D01*
X69796929Y-26469700D01*
X69638224Y-26485331D01*
X69434587Y-26547104D01*
X69246914Y-26647417D01*
X69210444Y-26677347D01*
X69177317Y-26687396D01*
X69076714Y-26741169D01*
X68988536Y-26813536D01*
X68916169Y-26901714D01*
X68862396Y-27002317D01*
X68829283Y-27111477D01*
X68818102Y-27224999D01*
X68818102Y-27230193D01*
X68785331Y-27338224D01*
X68764473Y-27550000D01*
X68785331Y-27761776D01*
X68818102Y-27869807D01*
X68818102Y-27875001D01*
X68829283Y-27988523D01*
X68862396Y-28097683D01*
X68916169Y-28198286D01*
X68988536Y-28286464D01*
X69076714Y-28358831D01*
X69177317Y-28412604D01*
X69210444Y-28422653D01*
X69246914Y-28452583D01*
X69434587Y-28552896D01*
X69638224Y-28614669D01*
X69792180Y-28629832D01*
X69680733Y-28652000D01*
X69581506Y-28693102D01*
X69399999Y-28693102D01*
X69286477Y-28704283D01*
X69177317Y-28737396D01*
X69076714Y-28791169D01*
X68988536Y-28863536D01*
X68916169Y-28951714D01*
X68862396Y-29052317D01*
X68829283Y-29161477D01*
X68818102Y-29274999D01*
X68818102Y-29925001D01*
X68829283Y-30038523D01*
X68862396Y-30147683D01*
X68916169Y-30248286D01*
X68988536Y-30336464D01*
X69076714Y-30408831D01*
X69177317Y-30462604D01*
X69286477Y-30495717D01*
X69399999Y-30506898D01*
X70300001Y-30506898D01*
X70413523Y-30495717D01*
X70522683Y-30462604D01*
X70623286Y-30408831D01*
X70711464Y-30336464D01*
X70783831Y-30248286D01*
X70837604Y-30147683D01*
X70870717Y-30038523D01*
X70881898Y-29925001D01*
X70881898Y-29274999D01*
X70870717Y-29161477D01*
X70837604Y-29052317D01*
X70783831Y-28951714D01*
X70711464Y-28863536D01*
X70623286Y-28791169D01*
X70522683Y-28737396D01*
X70413523Y-28704283D01*
X70300001Y-28693102D01*
X70118494Y-28693102D01*
X70019267Y-28652000D01*
X69910171Y-28630300D01*
X71309700Y-28630300D01*
X71309701Y-63118798D01*
X71260104Y-63211588D01*
X71198331Y-63415225D01*
X71182700Y-63573929D01*
X71177473Y-63627000D01*
X71182700Y-63680068D01*
X71182700Y-63709856D01*
X70827856Y-64064700D01*
X69977358Y-64064700D01*
X69873737Y-64074906D01*
X69740788Y-64115235D01*
X69698007Y-64138102D01*
X69533360Y-64138102D01*
X69539300Y-64077796D01*
X69539300Y-64077787D01*
X69542711Y-64043155D01*
X69539300Y-64008523D01*
X69539300Y-56970642D01*
X69738675Y-57010300D01*
X69961325Y-57010300D01*
X70179696Y-56966863D01*
X70385398Y-56881659D01*
X70570524Y-56757961D01*
X70727961Y-56600524D01*
X70851659Y-56415398D01*
X70936863Y-56209696D01*
X70980300Y-55991325D01*
X70980300Y-55768675D01*
X70936863Y-55550304D01*
X70851659Y-55344602D01*
X70727961Y-55159476D01*
X70570524Y-55002039D01*
X70385398Y-54878341D01*
X70179696Y-54793137D01*
X69961325Y-54749700D01*
X69738675Y-54749700D01*
X69520304Y-54793137D01*
X69314602Y-54878341D01*
X69177099Y-54970218D01*
X69177099Y-49369968D01*
X69219002Y-49404357D01*
X69415361Y-49509314D01*
X69628423Y-49573946D01*
X69850000Y-49595769D01*
X70071578Y-49573946D01*
X70284640Y-49509314D01*
X70480999Y-49404357D01*
X70653110Y-49263110D01*
X70794357Y-49090999D01*
X70899314Y-48894639D01*
X70963946Y-48681577D01*
X70980300Y-48515528D01*
X70980300Y-48004471D01*
X70963946Y-47838422D01*
X70899314Y-47625360D01*
X70794357Y-47429001D01*
X70653110Y-47256890D01*
X70480999Y-47115643D01*
X70284639Y-47010686D01*
X70071577Y-46946054D01*
X69850000Y-46924231D01*
X69628422Y-46946054D01*
X69415360Y-47010686D01*
X69219001Y-47115643D01*
X69177099Y-47150031D01*
X69177099Y-35715345D01*
X69749845Y-35142600D01*
X69749850Y-35142594D01*
X69940546Y-34951898D01*
X70300001Y-34951898D01*
X70413523Y-34940717D01*
X70522683Y-34907604D01*
X70623286Y-34853831D01*
X70711464Y-34781464D01*
X70783831Y-34693286D01*
X70837604Y-34592683D01*
X70870717Y-34483523D01*
X70881898Y-34370001D01*
X70881898Y-33719999D01*
X70870717Y-33606477D01*
X70837604Y-33497317D01*
X70783831Y-33396714D01*
X70711464Y-33308536D01*
X70623286Y-33236169D01*
X70522683Y-33182396D01*
X70413523Y-33149283D01*
X70300001Y-33138102D01*
X69399999Y-33138102D01*
X69286477Y-33149283D01*
X69177317Y-33182396D01*
X69076714Y-33236169D01*
X68988536Y-33308536D01*
X68916169Y-33396714D01*
X68862396Y-33497317D01*
X68829283Y-33606477D01*
X68818102Y-33719999D01*
X68818102Y-34079454D01*
X68752406Y-34145150D01*
X68752400Y-34145155D01*
X67997571Y-34899985D01*
X67970665Y-34922066D01*
X67948584Y-34948972D01*
X67948581Y-34948975D01*
X67882527Y-35029463D01*
X67833956Y-35120332D01*
X67817035Y-35151989D01*
X67777471Y-35282418D01*
X67776706Y-35284939D01*
X67763088Y-35423201D01*
X67766500Y-35457843D01*
X67766500Y-36025353D01*
X67713523Y-36009283D01*
X67600001Y-35998102D01*
X66745876Y-35998102D01*
X66485300Y-35737526D01*
X66485300Y-34236929D01*
X66469669Y-34078224D01*
X66436898Y-33970193D01*
X66436898Y-33719999D01*
X66425717Y-33606477D01*
X66392604Y-33497317D01*
X66338831Y-33396714D01*
X66266464Y-33308536D01*
X66178286Y-33236169D01*
X66077683Y-33182396D01*
X65968523Y-33149283D01*
X65855001Y-33138102D01*
X64954999Y-33138102D01*
X64841477Y-33149283D01*
X64732317Y-33182396D01*
X64631714Y-33236169D01*
X64543536Y-33308536D01*
X64471169Y-33396714D01*
X64417396Y-33497317D01*
X64384283Y-33606477D01*
X64373102Y-33719999D01*
X64373102Y-33970194D01*
X64340331Y-34078225D01*
X64324700Y-34236930D01*
X64324701Y-36131922D01*
X64319473Y-36185000D01*
X64336578Y-36358660D01*
X64340332Y-36396776D01*
X64402105Y-36600413D01*
X64502418Y-36788086D01*
X64637417Y-36952584D01*
X64678643Y-36986417D01*
X65168102Y-37475876D01*
X65168102Y-38330001D01*
X65179283Y-38443523D01*
X65212396Y-38552683D01*
X65266169Y-38653286D01*
X65338536Y-38741464D01*
X65426714Y-38813831D01*
X65527317Y-38867604D01*
X65636477Y-38900717D01*
X65749999Y-38911898D01*
X67600001Y-38911898D01*
X67713523Y-38900717D01*
X67766500Y-38884647D01*
X67766500Y-40792216D01*
X66960750Y-40795000D01*
X66802000Y-40953750D01*
X66802000Y-42428000D01*
X66822000Y-42428000D01*
X66822000Y-42682000D01*
X66802000Y-42682000D01*
X66802000Y-44156250D01*
X66960750Y-44315000D01*
X67766500Y-44317784D01*
X67766499Y-56506905D01*
X67763088Y-56541537D01*
X67766499Y-56576168D01*
X67766499Y-56576178D01*
X67776705Y-56679799D01*
X67817034Y-56812748D01*
X67882527Y-56935275D01*
X67970664Y-57042671D01*
X67997572Y-57064754D01*
X68128701Y-57195883D01*
X68128701Y-58528441D01*
X68083286Y-58491169D01*
X67982683Y-58437396D01*
X67971899Y-58434125D01*
X67488050Y-57950276D01*
X67454212Y-57909044D01*
X67289714Y-57774045D01*
X67102041Y-57673732D01*
X66898404Y-57611959D01*
X66739699Y-57596328D01*
X66739696Y-57596328D01*
X66686628Y-57591101D01*
X66633560Y-57596328D01*
X65474103Y-57596328D01*
X65088300Y-57210526D01*
X65088300Y-56490166D01*
X65162039Y-56600524D01*
X65319476Y-56757961D01*
X65504602Y-56881659D01*
X65710304Y-56966863D01*
X65928675Y-57010300D01*
X66151325Y-57010300D01*
X66369696Y-56966863D01*
X66575398Y-56881659D01*
X66760524Y-56757961D01*
X66917961Y-56600524D01*
X67041659Y-56415398D01*
X67126863Y-56209696D01*
X67170300Y-55991325D01*
X67170300Y-55768675D01*
X67126863Y-55550304D01*
X67041659Y-55344602D01*
X66917961Y-55159476D01*
X66760524Y-55002039D01*
X66575398Y-54878341D01*
X66369696Y-54793137D01*
X66151325Y-54749700D01*
X65928675Y-54749700D01*
X65710304Y-54793137D01*
X65504602Y-54878341D01*
X65319476Y-55002039D01*
X65162039Y-55159476D01*
X65088300Y-55269834D01*
X65088300Y-49077260D01*
X65095644Y-49090999D01*
X65236891Y-49263110D01*
X65409002Y-49404357D01*
X65605361Y-49509314D01*
X65818423Y-49573946D01*
X66040000Y-49595769D01*
X66261578Y-49573946D01*
X66474640Y-49509314D01*
X66670999Y-49404357D01*
X66843110Y-49263110D01*
X66984357Y-49090999D01*
X67089314Y-48894639D01*
X67153946Y-48681577D01*
X67170300Y-48515528D01*
X67170300Y-48004471D01*
X67153946Y-47838422D01*
X67089314Y-47625360D01*
X66984357Y-47429001D01*
X66843110Y-47256890D01*
X66670999Y-47115643D01*
X66474639Y-47010686D01*
X66261577Y-46946054D01*
X66040000Y-46924231D01*
X65818422Y-46946054D01*
X65605360Y-47010686D01*
X65409001Y-47115643D01*
X65236890Y-47256890D01*
X65095643Y-47429001D01*
X65088300Y-47442739D01*
X65088300Y-45917910D01*
X65093527Y-45864841D01*
X65088300Y-45811771D01*
X65088300Y-45519079D01*
X65093528Y-45466000D01*
X65072669Y-45254223D01*
X65010896Y-45050587D01*
X64910583Y-44862914D01*
X64894652Y-44843502D01*
X64775584Y-44698416D01*
X64734352Y-44664578D01*
X64606017Y-44536243D01*
X64598871Y-44463689D01*
X64537098Y-44260052D01*
X64436785Y-44072378D01*
X64301786Y-43907880D01*
X64260554Y-43874042D01*
X64066512Y-43680000D01*
X64861928Y-43680000D01*
X64874188Y-43804482D01*
X64910498Y-43924180D01*
X64969463Y-44034494D01*
X65048815Y-44131185D01*
X65145506Y-44210537D01*
X65255820Y-44269502D01*
X65375518Y-44305812D01*
X65500000Y-44318072D01*
X66389250Y-44315000D01*
X66548000Y-44156250D01*
X66548000Y-42682000D01*
X65023750Y-42682000D01*
X64865000Y-42840750D01*
X64861928Y-43680000D01*
X64066512Y-43680000D01*
X63832099Y-43445587D01*
X63708825Y-43344419D01*
X63521152Y-43244106D01*
X63317515Y-43182333D01*
X63105739Y-43161474D01*
X62893963Y-43182333D01*
X62892514Y-43182772D01*
X62911301Y-43088326D01*
X62911301Y-42865676D01*
X62867864Y-42647305D01*
X62782660Y-42441603D01*
X62658962Y-42256477D01*
X62501525Y-42099040D01*
X62316399Y-41975342D01*
X62110697Y-41890138D01*
X61892326Y-41846701D01*
X61669676Y-41846701D01*
X61451305Y-41890138D01*
X61435460Y-41896701D01*
X59400541Y-41896701D01*
X59384696Y-41890138D01*
X59166325Y-41846701D01*
X58943675Y-41846701D01*
X58725304Y-41890138D01*
X58519602Y-41975342D01*
X58334476Y-42099040D01*
X58177039Y-42256477D01*
X58053341Y-42441603D01*
X57968137Y-42647305D01*
X57924700Y-42865676D01*
X57924700Y-43088326D01*
X57943487Y-43182772D01*
X57942038Y-43182333D01*
X57730262Y-43161474D01*
X57518486Y-43182333D01*
X57314849Y-43244106D01*
X57127176Y-43344419D01*
X57096371Y-43369700D01*
X56225541Y-43369700D01*
X56209696Y-43363137D01*
X55991325Y-43319700D01*
X55768675Y-43319700D01*
X55550304Y-43363137D01*
X55344602Y-43448341D01*
X55159476Y-43572039D01*
X55002039Y-43729476D01*
X54878341Y-43914602D01*
X54793137Y-44120304D01*
X54749700Y-44338675D01*
X54749700Y-44561325D01*
X54793137Y-44779696D01*
X54878341Y-44985398D01*
X55002039Y-45170524D01*
X55159476Y-45327961D01*
X55344602Y-45451659D01*
X55550304Y-45536863D01*
X55768675Y-45580300D01*
X55791210Y-45580300D01*
X55836957Y-45636043D01*
X55859732Y-45654734D01*
X56072268Y-45867269D01*
X56072272Y-45867274D01*
X57061201Y-46856203D01*
X57061200Y-48509847D01*
X57058313Y-48539159D01*
X57061200Y-48568470D01*
X57069836Y-48656151D01*
X57103961Y-48768648D01*
X57159378Y-48872326D01*
X57233957Y-48963202D01*
X57256731Y-48981892D01*
X58002814Y-49727976D01*
X58021500Y-49750745D01*
X58112375Y-49825324D01*
X58187850Y-49865666D01*
X58177039Y-49876477D01*
X58053341Y-50061603D01*
X57968137Y-50267305D01*
X57924700Y-50485676D01*
X57924700Y-50708326D01*
X57968137Y-50926697D01*
X58053341Y-51132399D01*
X58177039Y-51317525D01*
X58334476Y-51474962D01*
X58519602Y-51598660D01*
X58725304Y-51683864D01*
X58943675Y-51727301D01*
X59166325Y-51727301D01*
X59384696Y-51683864D01*
X59400541Y-51677301D01*
X61435460Y-51677301D01*
X61451305Y-51683864D01*
X61669676Y-51727301D01*
X61892326Y-51727301D01*
X62110697Y-51683864D01*
X62316399Y-51598660D01*
X62501525Y-51474962D01*
X62658962Y-51317525D01*
X62782660Y-51132399D01*
X62867864Y-50926697D01*
X62911301Y-50708326D01*
X62911301Y-50672340D01*
X62927701Y-50681106D01*
X62927700Y-57604931D01*
X62922473Y-57658000D01*
X62927700Y-57711068D01*
X62927700Y-57711070D01*
X62943331Y-57869775D01*
X63005104Y-58073412D01*
X63105417Y-58261086D01*
X63240416Y-58425584D01*
X63281647Y-58459422D01*
X64225210Y-59402985D01*
X64259044Y-59444212D01*
X64341372Y-59511776D01*
X64423541Y-59579211D01*
X64611215Y-59679524D01*
X64814851Y-59741297D01*
X65026628Y-59762156D01*
X65079707Y-59756928D01*
X66239154Y-59756928D01*
X66319125Y-59836899D01*
X66322396Y-59847683D01*
X66376169Y-59948286D01*
X66448536Y-60036464D01*
X66536714Y-60108831D01*
X66637317Y-60162604D01*
X66670445Y-60172653D01*
X66706913Y-60202582D01*
X66894586Y-60302895D01*
X67098223Y-60364668D01*
X67309999Y-60385527D01*
X67521776Y-60364668D01*
X67725413Y-60302895D01*
X67913086Y-60202582D01*
X67949554Y-60172653D01*
X67982683Y-60162604D01*
X68083286Y-60108831D01*
X68128701Y-60071560D01*
X68128700Y-60578440D01*
X68083286Y-60541169D01*
X67982683Y-60487396D01*
X67873523Y-60454283D01*
X67760001Y-60443102D01*
X66859999Y-60443102D01*
X66746477Y-60454283D01*
X66637317Y-60487396D01*
X66536714Y-60541169D01*
X66448536Y-60613536D01*
X66376169Y-60701714D01*
X66322396Y-60802317D01*
X66289283Y-60911477D01*
X66278102Y-61024999D01*
X66278102Y-61675001D01*
X66289283Y-61788523D01*
X66322396Y-61897683D01*
X66376169Y-61998286D01*
X66448536Y-62086464D01*
X66536714Y-62158831D01*
X66628433Y-62207855D01*
X66655235Y-62296212D01*
X66667490Y-62319139D01*
X66667492Y-66957150D01*
X66664080Y-66991791D01*
X66677698Y-67130053D01*
X66718027Y-67263003D01*
X66783519Y-67385529D01*
X66849573Y-67466017D01*
X66849576Y-67466020D01*
X66871657Y-67492926D01*
X66898563Y-67515007D01*
X68437784Y-69054229D01*
X68459865Y-69081135D01*
X68486771Y-69103216D01*
X68486773Y-69103218D01*
X68567261Y-69169272D01*
X68689788Y-69234765D01*
X68822737Y-69275094D01*
X68926358Y-69285300D01*
X68926361Y-69285300D01*
X68961000Y-69288712D01*
X68995639Y-69285300D01*
X70046642Y-69285300D01*
X70150263Y-69275094D01*
X70283212Y-69234765D01*
X70325993Y-69211898D01*
X70737000Y-69211898D01*
X70831014Y-69202638D01*
X70921414Y-69175216D01*
X71004728Y-69130684D01*
X71077753Y-69070753D01*
X71137684Y-68997728D01*
X71182216Y-68914414D01*
X71209638Y-68824014D01*
X71218898Y-68730000D01*
X71218898Y-68430000D01*
X71209638Y-68335986D01*
X71182216Y-68245586D01*
X71151716Y-68188525D01*
X71241494Y-68140537D01*
X71300059Y-68092474D01*
X71318820Y-68102502D01*
X71438518Y-68138812D01*
X71563000Y-68151072D01*
X71977250Y-68148000D01*
X72136000Y-67989250D01*
X72136000Y-67065000D01*
X72116000Y-67065000D01*
X72116000Y-66811000D01*
X72136000Y-66811000D01*
X72136000Y-66791000D01*
X72390000Y-66791000D01*
X72390000Y-66811000D01*
X73439250Y-66811000D01*
X73554882Y-66695368D01*
X73574476Y-66714962D01*
X73759602Y-66838660D01*
X73965304Y-66923864D01*
X74183675Y-66967301D01*
X74406325Y-66967301D01*
X74624696Y-66923864D01*
X74640541Y-66917301D01*
X76675460Y-66917301D01*
X76691305Y-66923864D01*
X76909676Y-66967301D01*
X77132326Y-66967301D01*
X77350697Y-66923864D01*
X77556399Y-66838660D01*
X77741525Y-66714962D01*
X77769701Y-66686786D01*
X77769701Y-67527216D01*
X77741525Y-67499040D01*
X77556399Y-67375342D01*
X77350697Y-67290138D01*
X77132326Y-67246701D01*
X76909676Y-67246701D01*
X76691305Y-67290138D01*
X76675460Y-67296701D01*
X74640541Y-67296701D01*
X74624696Y-67290138D01*
X74406325Y-67246701D01*
X74183675Y-67246701D01*
X73965304Y-67290138D01*
X73759602Y-67375342D01*
X73600737Y-67481493D01*
X73598000Y-67223750D01*
X73439250Y-67065000D01*
X72390000Y-67065000D01*
X72390000Y-67989250D01*
X72548750Y-68148000D01*
X72963000Y-68151072D01*
X73087482Y-68138812D01*
X73196514Y-68105738D01*
X73164700Y-68265676D01*
X73164700Y-68488326D01*
X73208137Y-68706697D01*
X73293341Y-68912399D01*
X73417039Y-69097525D01*
X73574476Y-69254962D01*
X73759602Y-69378660D01*
X73965304Y-69463864D01*
X74183675Y-69507301D01*
X74406325Y-69507301D01*
X74624696Y-69463864D01*
X74640541Y-69457301D01*
X76675460Y-69457301D01*
X76691305Y-69463864D01*
X76909676Y-69507301D01*
X77132326Y-69507301D01*
X77350697Y-69463864D01*
X77556399Y-69378660D01*
X77741525Y-69254962D01*
X77769701Y-69226786D01*
X77769701Y-70067216D01*
X77741525Y-70039040D01*
X77556399Y-69915342D01*
X77350697Y-69830138D01*
X77132326Y-69786701D01*
X76909676Y-69786701D01*
X76691305Y-69830138D01*
X76675460Y-69836701D01*
X74640541Y-69836701D01*
X74624696Y-69830138D01*
X74406325Y-69786701D01*
X74183675Y-69786701D01*
X73965304Y-69830138D01*
X73759602Y-69915342D01*
X73574476Y-70039040D01*
X73417039Y-70196477D01*
X73293341Y-70381603D01*
X73208137Y-70587305D01*
X73164700Y-70805676D01*
X73164700Y-71028326D01*
X73208137Y-71246697D01*
X73293341Y-71452399D01*
X73417039Y-71637525D01*
X73574476Y-71794962D01*
X73759602Y-71918660D01*
X73965304Y-72003864D01*
X74183675Y-72047301D01*
X74406325Y-72047301D01*
X74624696Y-72003864D01*
X74640541Y-71997301D01*
X76675460Y-71997301D01*
X76691305Y-72003864D01*
X76909676Y-72047301D01*
X77132326Y-72047301D01*
X77350697Y-72003864D01*
X77556399Y-71918660D01*
X77741525Y-71794962D01*
X77769701Y-71766786D01*
X77769701Y-72054700D01*
X62652327Y-72054700D01*
X62844520Y-71880415D01*
X63012038Y-71654421D01*
X63132247Y-71400088D01*
X63172905Y-71266040D01*
X63050916Y-71044001D01*
X61908001Y-71044001D01*
X61908001Y-71064001D01*
X61654001Y-71064001D01*
X61654001Y-71044001D01*
X60511086Y-71044001D01*
X60418001Y-71213431D01*
X60324915Y-71044001D01*
X59182000Y-71044001D01*
X59182000Y-71064001D01*
X58928000Y-71064001D01*
X58928000Y-71044001D01*
X57785085Y-71044001D01*
X57663096Y-71266040D01*
X57703754Y-71400088D01*
X57823963Y-71654421D01*
X57991481Y-71880415D01*
X58183674Y-72054700D01*
X52659300Y-72054700D01*
X52659300Y-70567962D01*
X57663096Y-70567962D01*
X57785085Y-70790001D01*
X58928000Y-70790001D01*
X58928000Y-70770001D01*
X59182000Y-70770001D01*
X59182000Y-70790001D01*
X60324915Y-70790001D01*
X60418001Y-70620571D01*
X60511086Y-70790001D01*
X61654001Y-70790001D01*
X61654001Y-70770001D01*
X61908001Y-70770001D01*
X61908001Y-70790001D01*
X63050916Y-70790001D01*
X63172905Y-70567962D01*
X63132247Y-70433914D01*
X63012038Y-70179581D01*
X62844520Y-69953587D01*
X62636132Y-69764616D01*
X62394882Y-69619931D01*
X62130041Y-69525092D01*
X61908003Y-69646376D01*
X61908003Y-69504183D01*
X62110697Y-69463864D01*
X62316399Y-69378660D01*
X62501525Y-69254962D01*
X62658962Y-69097525D01*
X62782660Y-68912399D01*
X62867864Y-68706697D01*
X62911301Y-68488326D01*
X62911301Y-68265676D01*
X62867864Y-68047305D01*
X62782660Y-67841603D01*
X62658962Y-67656477D01*
X62501525Y-67499040D01*
X62316399Y-67375342D01*
X62110697Y-67290138D01*
X61892326Y-67246701D01*
X61669676Y-67246701D01*
X61451305Y-67290138D01*
X61435460Y-67296701D01*
X59400541Y-67296701D01*
X59384696Y-67290138D01*
X59166325Y-67246701D01*
X58943675Y-67246701D01*
X58725304Y-67290138D01*
X58519602Y-67375342D01*
X58334476Y-67499040D01*
X58177039Y-67656477D01*
X58053341Y-67841603D01*
X57968137Y-68047305D01*
X57924700Y-68265676D01*
X57924700Y-68488326D01*
X57968137Y-68706697D01*
X58053341Y-68912399D01*
X58177039Y-69097525D01*
X58334476Y-69254962D01*
X58519602Y-69378660D01*
X58725304Y-69463864D01*
X58927998Y-69504183D01*
X58927998Y-69646376D01*
X58705960Y-69525092D01*
X58441119Y-69619931D01*
X58199869Y-69764616D01*
X57991481Y-69953587D01*
X57823963Y-70179581D01*
X57703754Y-70433914D01*
X57663096Y-70567962D01*
X52659300Y-70567962D01*
X52659300Y-65725676D01*
X57924700Y-65725676D01*
X57924700Y-65948326D01*
X57968137Y-66166697D01*
X58053341Y-66372399D01*
X58177039Y-66557525D01*
X58334476Y-66714962D01*
X58519602Y-66838660D01*
X58725304Y-66923864D01*
X58943675Y-66967301D01*
X59166325Y-66967301D01*
X59384696Y-66923864D01*
X59400541Y-66917301D01*
X61435460Y-66917301D01*
X61451305Y-66923864D01*
X61669676Y-66967301D01*
X61892326Y-66967301D01*
X62110697Y-66923864D01*
X62316399Y-66838660D01*
X62501525Y-66714962D01*
X62658962Y-66557525D01*
X62782660Y-66372399D01*
X62867864Y-66166697D01*
X62911301Y-65948326D01*
X62911301Y-65725676D01*
X62867864Y-65507305D01*
X62782660Y-65301603D01*
X62658962Y-65116477D01*
X62612485Y-65070000D01*
X63348928Y-65070000D01*
X63361188Y-65194482D01*
X63397498Y-65314180D01*
X63456463Y-65424494D01*
X63535815Y-65521185D01*
X63632506Y-65600537D01*
X63722284Y-65648525D01*
X63691784Y-65705586D01*
X63664362Y-65795986D01*
X63655102Y-65890000D01*
X63655102Y-66190000D01*
X63664362Y-66284014D01*
X63691784Y-66374414D01*
X63736316Y-66457728D01*
X63796247Y-66530753D01*
X63869272Y-66590684D01*
X63952586Y-66635216D01*
X64042986Y-66662638D01*
X64137000Y-66671898D01*
X64548007Y-66671898D01*
X64559614Y-66678102D01*
X64137000Y-66678102D01*
X64042986Y-66687362D01*
X63952586Y-66714784D01*
X63869272Y-66759316D01*
X63796247Y-66819247D01*
X63736316Y-66892272D01*
X63691784Y-66975586D01*
X63664362Y-67065986D01*
X63655102Y-67160000D01*
X63655102Y-67460000D01*
X63664362Y-67554014D01*
X63691784Y-67644414D01*
X63736316Y-67727728D01*
X63796247Y-67800753D01*
X63869272Y-67860684D01*
X63952586Y-67905216D01*
X64042986Y-67932638D01*
X64137000Y-67941898D01*
X64559614Y-67941898D01*
X64548007Y-67948102D01*
X64137000Y-67948102D01*
X64042986Y-67957362D01*
X63952586Y-67984784D01*
X63869272Y-68029316D01*
X63796247Y-68089247D01*
X63736316Y-68162272D01*
X63691784Y-68245586D01*
X63664362Y-68335986D01*
X63655102Y-68430000D01*
X63655102Y-68730000D01*
X63664362Y-68824014D01*
X63691784Y-68914414D01*
X63736316Y-68997728D01*
X63796247Y-69070753D01*
X63869272Y-69130684D01*
X63952586Y-69175216D01*
X64042986Y-69202638D01*
X64137000Y-69211898D01*
X64548007Y-69211898D01*
X64590788Y-69234765D01*
X64723737Y-69275094D01*
X64827358Y-69285300D01*
X65693642Y-69285300D01*
X65797263Y-69275094D01*
X65930212Y-69234765D01*
X66052739Y-69169272D01*
X66160135Y-69081135D01*
X66248272Y-68973739D01*
X66313765Y-68851212D01*
X66354094Y-68718263D01*
X66367712Y-68580000D01*
X66354094Y-68441737D01*
X66313765Y-68308788D01*
X66248272Y-68186261D01*
X66160135Y-68078865D01*
X66052739Y-67990728D01*
X65930212Y-67925235D01*
X65805013Y-67887257D01*
X65854728Y-67860684D01*
X65927753Y-67800753D01*
X65987684Y-67727728D01*
X66032216Y-67644414D01*
X66059638Y-67554014D01*
X66068898Y-67460000D01*
X66068898Y-67160000D01*
X66059638Y-67065986D01*
X66032216Y-66975586D01*
X65987684Y-66892272D01*
X65927753Y-66819247D01*
X65854728Y-66759316D01*
X65805013Y-66732743D01*
X65930212Y-66694765D01*
X66052739Y-66629272D01*
X66160135Y-66541135D01*
X66248272Y-66433739D01*
X66313765Y-66311212D01*
X66354094Y-66178263D01*
X66367712Y-66040000D01*
X66354094Y-65901737D01*
X66313765Y-65768788D01*
X66248272Y-65646261D01*
X66162754Y-65542056D01*
X66188185Y-65521185D01*
X66267537Y-65424494D01*
X66326502Y-65314180D01*
X66362812Y-65194482D01*
X66375072Y-65070000D01*
X66372000Y-65055750D01*
X66213250Y-64897000D01*
X64989000Y-64897000D01*
X64989000Y-64917000D01*
X64735000Y-64917000D01*
X64735000Y-64897000D01*
X63510750Y-64897000D01*
X63352000Y-65055750D01*
X63348928Y-65070000D01*
X62612485Y-65070000D01*
X62501525Y-64959040D01*
X62316399Y-64835342D01*
X62110697Y-64750138D01*
X61892326Y-64706701D01*
X61669676Y-64706701D01*
X61451305Y-64750138D01*
X61435460Y-64756701D01*
X59400541Y-64756701D01*
X59384696Y-64750138D01*
X59166325Y-64706701D01*
X58943675Y-64706701D01*
X58725304Y-64750138D01*
X58519602Y-64835342D01*
X58334476Y-64959040D01*
X58177039Y-65116477D01*
X58053341Y-65301603D01*
X57968137Y-65507305D01*
X57924700Y-65725676D01*
X52659300Y-65725676D01*
X52659300Y-64470000D01*
X63348928Y-64470000D01*
X63352000Y-64484250D01*
X63510750Y-64643000D01*
X64735000Y-64643000D01*
X64735000Y-63993750D01*
X64989000Y-63993750D01*
X64989000Y-64643000D01*
X66213250Y-64643000D01*
X66372000Y-64484250D01*
X66375072Y-64470000D01*
X66362812Y-64345518D01*
X66326502Y-64225820D01*
X66267537Y-64115506D01*
X66188185Y-64018815D01*
X66091494Y-63939463D01*
X65981180Y-63880498D01*
X65861482Y-63844188D01*
X65737000Y-63831928D01*
X65147750Y-63835000D01*
X64989000Y-63993750D01*
X64735000Y-63993750D01*
X64576250Y-63835000D01*
X63987000Y-63831928D01*
X63862518Y-63844188D01*
X63742820Y-63880498D01*
X63632506Y-63939463D01*
X63535815Y-64018815D01*
X63456463Y-64115506D01*
X63397498Y-64225820D01*
X63361188Y-64345518D01*
X63348928Y-64470000D01*
X52659300Y-64470000D01*
X52659300Y-60540000D01*
X53121928Y-60540000D01*
X53134188Y-60664482D01*
X53170498Y-60784180D01*
X53229463Y-60894494D01*
X53308815Y-60991185D01*
X53405506Y-61070537D01*
X53515820Y-61129502D01*
X53635518Y-61165812D01*
X53760000Y-61178072D01*
X54069373Y-61176388D01*
X54050918Y-61184032D01*
X53857603Y-61313201D01*
X53693201Y-61477603D01*
X53564032Y-61670918D01*
X53475058Y-61885719D01*
X53429700Y-62113751D01*
X53429700Y-62346249D01*
X53475058Y-62574281D01*
X53564032Y-62789082D01*
X53693201Y-62982397D01*
X53857603Y-63146799D01*
X54050918Y-63275968D01*
X54265719Y-63364942D01*
X54493751Y-63410300D01*
X54726249Y-63410300D01*
X54954281Y-63364942D01*
X55169082Y-63275968D01*
X55304213Y-63185676D01*
X57924700Y-63185676D01*
X57924700Y-63408326D01*
X57968137Y-63626697D01*
X58053341Y-63832399D01*
X58177039Y-64017525D01*
X58334476Y-64174962D01*
X58519602Y-64298660D01*
X58725304Y-64383864D01*
X58943675Y-64427301D01*
X59166325Y-64427301D01*
X59384696Y-64383864D01*
X59400541Y-64377301D01*
X61435460Y-64377301D01*
X61451305Y-64383864D01*
X61669676Y-64427301D01*
X61892326Y-64427301D01*
X62110697Y-64383864D01*
X62316399Y-64298660D01*
X62501525Y-64174962D01*
X62658962Y-64017525D01*
X62782660Y-63832399D01*
X62867864Y-63626697D01*
X62911301Y-63408326D01*
X62911301Y-63185676D01*
X62867864Y-62967305D01*
X62782660Y-62761603D01*
X62658962Y-62576477D01*
X62501525Y-62419040D01*
X62316399Y-62295342D01*
X62110697Y-62210138D01*
X61892326Y-62166701D01*
X61669676Y-62166701D01*
X61451305Y-62210138D01*
X61435460Y-62216701D01*
X59400541Y-62216701D01*
X59384696Y-62210138D01*
X59166325Y-62166701D01*
X58943675Y-62166701D01*
X58725304Y-62210138D01*
X58519602Y-62295342D01*
X58334476Y-62419040D01*
X58177039Y-62576477D01*
X58053341Y-62761603D01*
X57968137Y-62967305D01*
X57924700Y-63185676D01*
X55304213Y-63185676D01*
X55362397Y-63146799D01*
X55526799Y-62982397D01*
X55655968Y-62789082D01*
X55744942Y-62574281D01*
X55790300Y-62346249D01*
X55790300Y-62113751D01*
X55744942Y-61885719D01*
X55655968Y-61670918D01*
X55526799Y-61477603D01*
X55362397Y-61313201D01*
X55169082Y-61184032D01*
X55150627Y-61176388D01*
X55460000Y-61178072D01*
X55584482Y-61165812D01*
X55704180Y-61129502D01*
X55814494Y-61070537D01*
X55911185Y-60991185D01*
X55990537Y-60894494D01*
X56049502Y-60784180D01*
X56085812Y-60664482D01*
X56087664Y-60645676D01*
X57924700Y-60645676D01*
X57924700Y-60868326D01*
X57968137Y-61086697D01*
X58053341Y-61292399D01*
X58177039Y-61477525D01*
X58334476Y-61634962D01*
X58519602Y-61758660D01*
X58725304Y-61843864D01*
X58943675Y-61887301D01*
X59166325Y-61887301D01*
X59384696Y-61843864D01*
X59400541Y-61837301D01*
X61435460Y-61837301D01*
X61451305Y-61843864D01*
X61669676Y-61887301D01*
X61892326Y-61887301D01*
X62110697Y-61843864D01*
X62316399Y-61758660D01*
X62501525Y-61634962D01*
X62658962Y-61477525D01*
X62782660Y-61292399D01*
X62867864Y-61086697D01*
X62911301Y-60868326D01*
X62911301Y-60645676D01*
X62867864Y-60427305D01*
X62782660Y-60221603D01*
X62658962Y-60036477D01*
X62501525Y-59879040D01*
X62316399Y-59755342D01*
X62110697Y-59670138D01*
X61892326Y-59626701D01*
X61669676Y-59626701D01*
X61451305Y-59670138D01*
X61435460Y-59676701D01*
X59400541Y-59676701D01*
X59384696Y-59670138D01*
X59166325Y-59626701D01*
X58943675Y-59626701D01*
X58725304Y-59670138D01*
X58519602Y-59755342D01*
X58334476Y-59879040D01*
X58177039Y-60036477D01*
X58053341Y-60221603D01*
X57968137Y-60427305D01*
X57924700Y-60645676D01*
X56087664Y-60645676D01*
X56098072Y-60540000D01*
X56095000Y-59975750D01*
X55936250Y-59817000D01*
X54737000Y-59817000D01*
X54737000Y-59837000D01*
X54483000Y-59837000D01*
X54483000Y-59817000D01*
X53283750Y-59817000D01*
X53125000Y-59975750D01*
X53121928Y-60540000D01*
X52659300Y-60540000D01*
X52659300Y-58840000D01*
X53121928Y-58840000D01*
X53125000Y-59404250D01*
X53283750Y-59563000D01*
X54483000Y-59563000D01*
X54483000Y-58363750D01*
X54737000Y-58363750D01*
X54737000Y-59563000D01*
X55936250Y-59563000D01*
X56095000Y-59404250D01*
X56098072Y-58840000D01*
X56085812Y-58715518D01*
X56049502Y-58595820D01*
X55990537Y-58485506D01*
X55911185Y-58388815D01*
X55814494Y-58309463D01*
X55704180Y-58250498D01*
X55584482Y-58214188D01*
X55460000Y-58201928D01*
X54895750Y-58205000D01*
X54737000Y-58363750D01*
X54483000Y-58363750D01*
X54324250Y-58205000D01*
X53760000Y-58201928D01*
X53635518Y-58214188D01*
X53515820Y-58250498D01*
X53405506Y-58309463D01*
X53308815Y-58388815D01*
X53229463Y-58485506D01*
X53170498Y-58595820D01*
X53134188Y-58715518D01*
X53121928Y-58840000D01*
X52659300Y-58840000D01*
X52659300Y-58105676D01*
X57924700Y-58105676D01*
X57924700Y-58328326D01*
X57968137Y-58546697D01*
X58053341Y-58752399D01*
X58177039Y-58937525D01*
X58334476Y-59094962D01*
X58519602Y-59218660D01*
X58725304Y-59303864D01*
X58943675Y-59347301D01*
X59166325Y-59347301D01*
X59384696Y-59303864D01*
X59400541Y-59297301D01*
X61435460Y-59297301D01*
X61451305Y-59303864D01*
X61669676Y-59347301D01*
X61892326Y-59347301D01*
X62110697Y-59303864D01*
X62316399Y-59218660D01*
X62501525Y-59094962D01*
X62658962Y-58937525D01*
X62782660Y-58752399D01*
X62867864Y-58546697D01*
X62911301Y-58328326D01*
X62911301Y-58105676D01*
X62867864Y-57887305D01*
X62782660Y-57681603D01*
X62658962Y-57496477D01*
X62501525Y-57339040D01*
X62316399Y-57215342D01*
X62110697Y-57130138D01*
X61892326Y-57086701D01*
X61669676Y-57086701D01*
X61451305Y-57130138D01*
X61435460Y-57136701D01*
X59400541Y-57136701D01*
X59384696Y-57130138D01*
X59166325Y-57086701D01*
X58943675Y-57086701D01*
X58725304Y-57130138D01*
X58519602Y-57215342D01*
X58334476Y-57339040D01*
X58177039Y-57496477D01*
X58053341Y-57681603D01*
X57968137Y-57887305D01*
X57924700Y-58105676D01*
X52659300Y-58105676D01*
X52659300Y-55565676D01*
X57924700Y-55565676D01*
X57924700Y-55788326D01*
X57968137Y-56006697D01*
X58053341Y-56212399D01*
X58177039Y-56397525D01*
X58334476Y-56554962D01*
X58519602Y-56678660D01*
X58725304Y-56763864D01*
X58943675Y-56807301D01*
X59166325Y-56807301D01*
X59384696Y-56763864D01*
X59400541Y-56757301D01*
X61435460Y-56757301D01*
X61451305Y-56763864D01*
X61669676Y-56807301D01*
X61892326Y-56807301D01*
X62110697Y-56763864D01*
X62316399Y-56678660D01*
X62501525Y-56554962D01*
X62658962Y-56397525D01*
X62782660Y-56212399D01*
X62867864Y-56006697D01*
X62911301Y-55788326D01*
X62911301Y-55565676D01*
X62867864Y-55347305D01*
X62782660Y-55141603D01*
X62658962Y-54956477D01*
X62501525Y-54799040D01*
X62316399Y-54675342D01*
X62110697Y-54590138D01*
X61892326Y-54546701D01*
X61669676Y-54546701D01*
X61451305Y-54590138D01*
X61435460Y-54596701D01*
X59400541Y-54596701D01*
X59384696Y-54590138D01*
X59166325Y-54546701D01*
X58943675Y-54546701D01*
X58725304Y-54590138D01*
X58519602Y-54675342D01*
X58334476Y-54799040D01*
X58177039Y-54956477D01*
X58053341Y-55141603D01*
X57968137Y-55347305D01*
X57924700Y-55565676D01*
X52659300Y-55565676D01*
X52659300Y-54190000D01*
X53121928Y-54190000D01*
X53134188Y-54314482D01*
X53170498Y-54434180D01*
X53229463Y-54544494D01*
X53308815Y-54641185D01*
X53405506Y-54720537D01*
X53515820Y-54779502D01*
X53635518Y-54815812D01*
X53760000Y-54828072D01*
X54324250Y-54825000D01*
X54483000Y-54666250D01*
X54483000Y-53467000D01*
X54737000Y-53467000D01*
X54737000Y-54666250D01*
X54895750Y-54825000D01*
X55460000Y-54828072D01*
X55584482Y-54815812D01*
X55704180Y-54779502D01*
X55814494Y-54720537D01*
X55911185Y-54641185D01*
X55990537Y-54544494D01*
X56049502Y-54434180D01*
X56085812Y-54314482D01*
X56098072Y-54190000D01*
X56095000Y-53625750D01*
X55936250Y-53467000D01*
X54737000Y-53467000D01*
X54483000Y-53467000D01*
X53283750Y-53467000D01*
X53125000Y-53625750D01*
X53121928Y-54190000D01*
X52659300Y-54190000D01*
X52659300Y-52490000D01*
X53121928Y-52490000D01*
X53125000Y-53054250D01*
X53283750Y-53213000D01*
X54483000Y-53213000D01*
X54483000Y-53193000D01*
X54737000Y-53193000D01*
X54737000Y-53213000D01*
X55936250Y-53213000D01*
X56095000Y-53054250D01*
X56095155Y-53025676D01*
X57924700Y-53025676D01*
X57924700Y-53248326D01*
X57968137Y-53466697D01*
X58053341Y-53672399D01*
X58177039Y-53857525D01*
X58334476Y-54014962D01*
X58519602Y-54138660D01*
X58725304Y-54223864D01*
X58943675Y-54267301D01*
X59166325Y-54267301D01*
X59384696Y-54223864D01*
X59400541Y-54217301D01*
X61435460Y-54217301D01*
X61451305Y-54223864D01*
X61669676Y-54267301D01*
X61892326Y-54267301D01*
X62110697Y-54223864D01*
X62316399Y-54138660D01*
X62501525Y-54014962D01*
X62658962Y-53857525D01*
X62782660Y-53672399D01*
X62867864Y-53466697D01*
X62911301Y-53248326D01*
X62911301Y-53025676D01*
X62867864Y-52807305D01*
X62782660Y-52601603D01*
X62658962Y-52416477D01*
X62501525Y-52259040D01*
X62316399Y-52135342D01*
X62110697Y-52050138D01*
X61892326Y-52006701D01*
X61669676Y-52006701D01*
X61451305Y-52050138D01*
X61435460Y-52056701D01*
X59400541Y-52056701D01*
X59384696Y-52050138D01*
X59166325Y-52006701D01*
X58943675Y-52006701D01*
X58725304Y-52050138D01*
X58519602Y-52135342D01*
X58334476Y-52259040D01*
X58177039Y-52416477D01*
X58053341Y-52601603D01*
X57968137Y-52807305D01*
X57924700Y-53025676D01*
X56095155Y-53025676D01*
X56098072Y-52490000D01*
X56085812Y-52365518D01*
X56049502Y-52245820D01*
X55990537Y-52135506D01*
X55911185Y-52038815D01*
X55814494Y-51959463D01*
X55704180Y-51900498D01*
X55584482Y-51864188D01*
X55460000Y-51851928D01*
X55150627Y-51853612D01*
X55169082Y-51845968D01*
X55362397Y-51716799D01*
X55526799Y-51552397D01*
X55655968Y-51359082D01*
X55744942Y-51144281D01*
X55790300Y-50916249D01*
X55790300Y-50683751D01*
X55744942Y-50455719D01*
X55655968Y-50240918D01*
X55526799Y-50047603D01*
X55362397Y-49883201D01*
X55169082Y-49754032D01*
X54954281Y-49665058D01*
X54726249Y-49619700D01*
X54493751Y-49619700D01*
X54265719Y-49665058D01*
X54050918Y-49754032D01*
X53857603Y-49883201D01*
X53693201Y-50047603D01*
X53564032Y-50240918D01*
X53475058Y-50455719D01*
X53429700Y-50683751D01*
X53429700Y-50916249D01*
X53475058Y-51144281D01*
X53564032Y-51359082D01*
X53693201Y-51552397D01*
X53857603Y-51716799D01*
X54050918Y-51845968D01*
X54069373Y-51853612D01*
X53760000Y-51851928D01*
X53635518Y-51864188D01*
X53515820Y-51900498D01*
X53405506Y-51959463D01*
X53308815Y-52038815D01*
X53229463Y-52135506D01*
X53170498Y-52245820D01*
X53134188Y-52365518D01*
X53121928Y-52490000D01*
X52659300Y-52490000D01*
X52659300Y-40325676D01*
X57924700Y-40325676D01*
X57924700Y-40548326D01*
X57968137Y-40766697D01*
X58053341Y-40972399D01*
X58177039Y-41157525D01*
X58334476Y-41314962D01*
X58519602Y-41438660D01*
X58725304Y-41523864D01*
X58943675Y-41567301D01*
X59166325Y-41567301D01*
X59384696Y-41523864D01*
X59400541Y-41517301D01*
X61435460Y-41517301D01*
X61451305Y-41523864D01*
X61669676Y-41567301D01*
X61892326Y-41567301D01*
X62110697Y-41523864D01*
X62316399Y-41438660D01*
X62329359Y-41430000D01*
X64861928Y-41430000D01*
X64865000Y-42269250D01*
X65023750Y-42428000D01*
X66548000Y-42428000D01*
X66548000Y-40953750D01*
X66389250Y-40795000D01*
X65500000Y-40791928D01*
X65375518Y-40804188D01*
X65255820Y-40840498D01*
X65145506Y-40899463D01*
X65048815Y-40978815D01*
X64969463Y-41075506D01*
X64910498Y-41185820D01*
X64874188Y-41305518D01*
X64861928Y-41430000D01*
X62329359Y-41430000D01*
X62501525Y-41314962D01*
X62658962Y-41157525D01*
X62782660Y-40972399D01*
X62867864Y-40766697D01*
X62911301Y-40548326D01*
X62911301Y-40325676D01*
X62867864Y-40107305D01*
X62782660Y-39901603D01*
X62658962Y-39716477D01*
X62501525Y-39559040D01*
X62316399Y-39435342D01*
X62110697Y-39350138D01*
X61892326Y-39306701D01*
X61669676Y-39306701D01*
X61451305Y-39350138D01*
X61435460Y-39356701D01*
X59400541Y-39356701D01*
X59384696Y-39350138D01*
X59166325Y-39306701D01*
X58943675Y-39306701D01*
X58725304Y-39350138D01*
X58519602Y-39435342D01*
X58334476Y-39559040D01*
X58177039Y-39716477D01*
X58053341Y-39901603D01*
X57968137Y-40107305D01*
X57924700Y-40325676D01*
X52659300Y-40325676D01*
X52659300Y-29283680D01*
X53250439Y-29283680D01*
X53290937Y-29547501D01*
X53382125Y-29798353D01*
X53438632Y-29904068D01*
X53674440Y-29965955D01*
X54430395Y-29210000D01*
X53674440Y-28454045D01*
X53438632Y-28515932D01*
X53325734Y-28757790D01*
X53262189Y-29017027D01*
X53250439Y-29283680D01*
X52659300Y-29283680D01*
X52659300Y-26670000D01*
X53524473Y-26670000D01*
X53545332Y-26881776D01*
X53607105Y-27085413D01*
X53707418Y-27273086D01*
X53808586Y-27396360D01*
X54299082Y-27886856D01*
X54272499Y-27890937D01*
X54021647Y-27982125D01*
X53915932Y-28038632D01*
X53854045Y-28274440D01*
X54610000Y-29030395D01*
X54624143Y-29016253D01*
X54803748Y-29195858D01*
X54789605Y-29210000D01*
X54803748Y-29224143D01*
X54624143Y-29403748D01*
X54610000Y-29389605D01*
X53854045Y-30145560D01*
X53915932Y-30381368D01*
X54157790Y-30494266D01*
X54417027Y-30557811D01*
X54683680Y-30569561D01*
X54947501Y-30529063D01*
X55198353Y-30437875D01*
X55304068Y-30381368D01*
X55365954Y-30145562D01*
X55434701Y-30214309D01*
X55434700Y-35747526D01*
X55360449Y-35821777D01*
X55344602Y-35828341D01*
X55159476Y-35952039D01*
X55002039Y-36109476D01*
X54878341Y-36294602D01*
X54793137Y-36500304D01*
X54749700Y-36718675D01*
X54749700Y-36941325D01*
X54793137Y-37159696D01*
X54878341Y-37365398D01*
X55002039Y-37550524D01*
X55159476Y-37707961D01*
X55344602Y-37831659D01*
X55550304Y-37916863D01*
X55768675Y-37960300D01*
X55991325Y-37960300D01*
X56209696Y-37916863D01*
X56415398Y-37831659D01*
X56484215Y-37785676D01*
X57924700Y-37785676D01*
X57924700Y-38008326D01*
X57968137Y-38226697D01*
X58053341Y-38432399D01*
X58177039Y-38617525D01*
X58334476Y-38774962D01*
X58519602Y-38898660D01*
X58725304Y-38983864D01*
X58943675Y-39027301D01*
X59166325Y-39027301D01*
X59384696Y-38983864D01*
X59400541Y-38977301D01*
X61435460Y-38977301D01*
X61451305Y-38983864D01*
X61669676Y-39027301D01*
X61892326Y-39027301D01*
X62110697Y-38983864D01*
X62316399Y-38898660D01*
X62501525Y-38774962D01*
X62658962Y-38617525D01*
X62782660Y-38432399D01*
X62867864Y-38226697D01*
X62911301Y-38008326D01*
X62911301Y-37785676D01*
X62867864Y-37567305D01*
X62782660Y-37361603D01*
X62658962Y-37176477D01*
X62501525Y-37019040D01*
X62316399Y-36895342D01*
X62110697Y-36810138D01*
X61892326Y-36766701D01*
X61669676Y-36766701D01*
X61451305Y-36810138D01*
X61435460Y-36816701D01*
X59400541Y-36816701D01*
X59384696Y-36810138D01*
X59166325Y-36766701D01*
X58943675Y-36766701D01*
X58725304Y-36810138D01*
X58519602Y-36895342D01*
X58334476Y-37019040D01*
X58177039Y-37176477D01*
X58053341Y-37361603D01*
X57968137Y-37567305D01*
X57924700Y-37785676D01*
X56484215Y-37785676D01*
X56600524Y-37707961D01*
X56757961Y-37550524D01*
X56881659Y-37365398D01*
X56888223Y-37349551D01*
X57241352Y-36996422D01*
X57282584Y-36962584D01*
X57391392Y-36830000D01*
X57417583Y-36798087D01*
X57517896Y-36610413D01*
X57579669Y-36406777D01*
X57600527Y-36195000D01*
X57595300Y-36141929D01*
X57595300Y-35245676D01*
X57924700Y-35245676D01*
X57924700Y-35468326D01*
X57968137Y-35686697D01*
X58053341Y-35892399D01*
X58177039Y-36077525D01*
X58334476Y-36234962D01*
X58519602Y-36358660D01*
X58725304Y-36443864D01*
X58943675Y-36487301D01*
X59166325Y-36487301D01*
X59384696Y-36443864D01*
X59400541Y-36437301D01*
X61435460Y-36437301D01*
X61451305Y-36443864D01*
X61669676Y-36487301D01*
X61892326Y-36487301D01*
X62110697Y-36443864D01*
X62316399Y-36358660D01*
X62501525Y-36234962D01*
X62658962Y-36077525D01*
X62782660Y-35892399D01*
X62867864Y-35686697D01*
X62911301Y-35468326D01*
X62911301Y-35245676D01*
X62867864Y-35027305D01*
X62782660Y-34821603D01*
X62658962Y-34636477D01*
X62501525Y-34479040D01*
X62316399Y-34355342D01*
X62110697Y-34270138D01*
X61892326Y-34226701D01*
X61669676Y-34226701D01*
X61451305Y-34270138D01*
X61435460Y-34276701D01*
X59400541Y-34276701D01*
X59384696Y-34270138D01*
X59166325Y-34226701D01*
X58943675Y-34226701D01*
X58725304Y-34270138D01*
X58519602Y-34355342D01*
X58334476Y-34479040D01*
X58177039Y-34636477D01*
X58053341Y-34821603D01*
X57968137Y-35027305D01*
X57924700Y-35245676D01*
X57595300Y-35245676D01*
X57595300Y-32705676D01*
X57924700Y-32705676D01*
X57924700Y-32928326D01*
X57968137Y-33146697D01*
X58053341Y-33352399D01*
X58177039Y-33537525D01*
X58334476Y-33694962D01*
X58519602Y-33818660D01*
X58725304Y-33903864D01*
X58943675Y-33947301D01*
X59166325Y-33947301D01*
X59384696Y-33903864D01*
X59400541Y-33897301D01*
X61435460Y-33897301D01*
X61451305Y-33903864D01*
X61669676Y-33947301D01*
X61892326Y-33947301D01*
X62110697Y-33903864D01*
X62316399Y-33818660D01*
X62501525Y-33694962D01*
X62658962Y-33537525D01*
X62782660Y-33352399D01*
X62867864Y-33146697D01*
X62911301Y-32928326D01*
X62911301Y-32705676D01*
X62867864Y-32487305D01*
X62782660Y-32281603D01*
X62658962Y-32096477D01*
X62501525Y-31939040D01*
X62316399Y-31815342D01*
X62110697Y-31730138D01*
X61892326Y-31686701D01*
X61669676Y-31686701D01*
X61451305Y-31730138D01*
X61435460Y-31736701D01*
X59400541Y-31736701D01*
X59384696Y-31730138D01*
X59166325Y-31686701D01*
X58943675Y-31686701D01*
X58725304Y-31730138D01*
X58519602Y-31815342D01*
X58334476Y-31939040D01*
X58177039Y-32096477D01*
X58053341Y-32281603D01*
X57968137Y-32487305D01*
X57924700Y-32705676D01*
X57595300Y-32705676D01*
X57595300Y-30165676D01*
X57924700Y-30165676D01*
X57924700Y-30388326D01*
X57968137Y-30606697D01*
X58053341Y-30812399D01*
X58177039Y-30997525D01*
X58334476Y-31154962D01*
X58519602Y-31278660D01*
X58725304Y-31363864D01*
X58943675Y-31407301D01*
X59166325Y-31407301D01*
X59384696Y-31363864D01*
X59400541Y-31357301D01*
X61435460Y-31357301D01*
X61451305Y-31363864D01*
X61669676Y-31407301D01*
X61892326Y-31407301D01*
X62110697Y-31363864D01*
X62316399Y-31278660D01*
X62501525Y-31154962D01*
X62658962Y-30997525D01*
X62782660Y-30812399D01*
X62867864Y-30606697D01*
X62911301Y-30388326D01*
X62911301Y-30165676D01*
X62867864Y-29947305D01*
X62782660Y-29741603D01*
X62658962Y-29556477D01*
X62501525Y-29399040D01*
X62316399Y-29275342D01*
X62110697Y-29190138D01*
X61892326Y-29146701D01*
X61669676Y-29146701D01*
X61451305Y-29190138D01*
X61435460Y-29196701D01*
X59400541Y-29196701D01*
X59384696Y-29190138D01*
X59166325Y-29146701D01*
X58943675Y-29146701D01*
X58725304Y-29190138D01*
X58519602Y-29275342D01*
X58334476Y-29399040D01*
X58177039Y-29556477D01*
X58053341Y-29741603D01*
X57968137Y-29947305D01*
X57924700Y-30165676D01*
X57595300Y-30165676D01*
X57595300Y-28628068D01*
X57600527Y-28574999D01*
X57594709Y-28515932D01*
X57579669Y-28363224D01*
X57517896Y-28159587D01*
X57417583Y-27971914D01*
X57282584Y-27807416D01*
X57241352Y-27773578D01*
X55336360Y-25868586D01*
X55213086Y-25767418D01*
X55025413Y-25667105D01*
X54821776Y-25605332D01*
X54610000Y-25584473D01*
X54398224Y-25605332D01*
X54194587Y-25667105D01*
X54006914Y-25767418D01*
X53842417Y-25902417D01*
X53707418Y-26066914D01*
X53607105Y-26254587D01*
X53545332Y-26458224D01*
X53524473Y-26670000D01*
X52659300Y-26670000D01*
X52659300Y-24130000D01*
X53524473Y-24130000D01*
X53545331Y-24341776D01*
X53607104Y-24545413D01*
X53707417Y-24733086D01*
X53842416Y-24897584D01*
X54006914Y-25032583D01*
X54194587Y-25132896D01*
X54398224Y-25194669D01*
X54556929Y-25210300D01*
X54694399Y-25210300D01*
X54701462Y-25218906D01*
X54894499Y-25411943D01*
X54916585Y-25438855D01*
X55023981Y-25526992D01*
X55146508Y-25592485D01*
X55279457Y-25632814D01*
X55383078Y-25643020D01*
X55383081Y-25643020D01*
X55417720Y-25646432D01*
X55452359Y-25643020D01*
X56753716Y-25643020D01*
X57860121Y-26749425D01*
X57882207Y-26776337D01*
X57939846Y-26823640D01*
X57989602Y-26864474D01*
X58021972Y-26881776D01*
X58112130Y-26929967D01*
X58245079Y-26970296D01*
X58348700Y-26980502D01*
X58348710Y-26980502D01*
X58383341Y-26983913D01*
X58417973Y-26980502D01*
X58711673Y-26980502D01*
X58661706Y-27001199D01*
X58525715Y-27092065D01*
X58410064Y-27207716D01*
X58319198Y-27343707D01*
X58256608Y-27494812D01*
X58224700Y-27655224D01*
X58224700Y-27818778D01*
X58256608Y-27979190D01*
X58319198Y-28130295D01*
X58410064Y-28266286D01*
X58525715Y-28381937D01*
X58661706Y-28472803D01*
X58812811Y-28535393D01*
X58973223Y-28567301D01*
X59136777Y-28567301D01*
X59297189Y-28535393D01*
X59448294Y-28472803D01*
X59584285Y-28381937D01*
X59699936Y-28266286D01*
X59790802Y-28130295D01*
X59853392Y-27979190D01*
X59885300Y-27818778D01*
X59885300Y-27655224D01*
X59853392Y-27494812D01*
X59790802Y-27343707D01*
X59699936Y-27207716D01*
X59584285Y-27092065D01*
X59448294Y-27001199D01*
X59398327Y-26980502D01*
X60668169Y-26980502D01*
X60702800Y-26983913D01*
X60737431Y-26980502D01*
X60737442Y-26980502D01*
X60841063Y-26970296D01*
X60974012Y-26929967D01*
X61007393Y-26912124D01*
X60903040Y-27016477D01*
X60779342Y-27201603D01*
X60694138Y-27407305D01*
X60650701Y-27625676D01*
X60650701Y-27848326D01*
X60694138Y-28066697D01*
X60779342Y-28272399D01*
X60903040Y-28457525D01*
X61060477Y-28614962D01*
X61245603Y-28738660D01*
X61451305Y-28823864D01*
X61669676Y-28867301D01*
X61892326Y-28867301D01*
X62110697Y-28823864D01*
X62126542Y-28817301D01*
X64599873Y-28817301D01*
X64543536Y-28863536D01*
X64471169Y-28951714D01*
X64417396Y-29052317D01*
X64384283Y-29161477D01*
X64373102Y-29274999D01*
X64373102Y-29280194D01*
X64340331Y-29388225D01*
X64324700Y-29546930D01*
X64324701Y-31941919D01*
X64319473Y-31995000D01*
X64340331Y-32206776D01*
X64373102Y-32314807D01*
X64373102Y-32320001D01*
X64384283Y-32433523D01*
X64417396Y-32542683D01*
X64471169Y-32643286D01*
X64543536Y-32731464D01*
X64631714Y-32803831D01*
X64732317Y-32857604D01*
X64765444Y-32867653D01*
X64801914Y-32897583D01*
X64989587Y-32997896D01*
X65193224Y-33059669D01*
X65351929Y-33075300D01*
X65405000Y-33080527D01*
X65458071Y-33075300D01*
X69903071Y-33075300D01*
X70061776Y-33059669D01*
X70265413Y-32997896D01*
X70453086Y-32897583D01*
X70489556Y-32867653D01*
X70522683Y-32857604D01*
X70623286Y-32803831D01*
X70711464Y-32731464D01*
X70783831Y-32643286D01*
X70837604Y-32542683D01*
X70870717Y-32433523D01*
X70881898Y-32320001D01*
X70881898Y-32314807D01*
X70914669Y-32206776D01*
X70935527Y-31995000D01*
X70914669Y-31783224D01*
X70881898Y-31675193D01*
X70881898Y-31669999D01*
X70870717Y-31556477D01*
X70837604Y-31447317D01*
X70783831Y-31346714D01*
X70711464Y-31258536D01*
X70623286Y-31186169D01*
X70522683Y-31132396D01*
X70489556Y-31122347D01*
X70453086Y-31092417D01*
X70265413Y-30992104D01*
X70061776Y-30930331D01*
X69903071Y-30914700D01*
X66485300Y-30914700D01*
X66485300Y-29546929D01*
X66469669Y-29388224D01*
X66436898Y-29280193D01*
X66436898Y-29274999D01*
X66425717Y-29161477D01*
X66392604Y-29052317D01*
X66338831Y-28951714D01*
X66266464Y-28863536D01*
X66178286Y-28791169D01*
X66077683Y-28737396D01*
X66044556Y-28727347D01*
X66008086Y-28697417D01*
X65852166Y-28614077D01*
X65985583Y-28504585D01*
X66019421Y-28463353D01*
X66066899Y-28415875D01*
X66077683Y-28412604D01*
X66178286Y-28358831D01*
X66266464Y-28286464D01*
X66338831Y-28198286D01*
X66392604Y-28097683D01*
X66425717Y-27988523D01*
X66436898Y-27875001D01*
X66436898Y-27869804D01*
X66469668Y-27761776D01*
X66490527Y-27550001D01*
X66469668Y-27338224D01*
X66436898Y-27230197D01*
X66436898Y-27224999D01*
X66425717Y-27111477D01*
X66392604Y-27002317D01*
X66338831Y-26901714D01*
X66266464Y-26813536D01*
X66178286Y-26741169D01*
X66077683Y-26687396D01*
X66044554Y-26677347D01*
X66008086Y-26647418D01*
X65820412Y-26547105D01*
X65616776Y-26485332D01*
X65404999Y-26464473D01*
X65193224Y-26485332D01*
X64989587Y-26547105D01*
X64801914Y-26647418D01*
X64790603Y-26656701D01*
X62126542Y-26656701D01*
X62110697Y-26650138D01*
X61892326Y-26606701D01*
X61669676Y-26606701D01*
X61451305Y-26650138D01*
X61245603Y-26735342D01*
X61229031Y-26746415D01*
X61651718Y-26323729D01*
X61669676Y-26327301D01*
X61892326Y-26327301D01*
X62110697Y-26283864D01*
X62316399Y-26198660D01*
X62501525Y-26074962D01*
X62658962Y-25917525D01*
X62782660Y-25732399D01*
X62867864Y-25526697D01*
X62911301Y-25308326D01*
X62911301Y-25085676D01*
X62867864Y-24867305D01*
X62782660Y-24661603D01*
X62658962Y-24476477D01*
X62501525Y-24319040D01*
X62316399Y-24195342D01*
X62110697Y-24110138D01*
X61892326Y-24066701D01*
X61669676Y-24066701D01*
X61651718Y-24070273D01*
X61370343Y-23788899D01*
X62581001Y-23788899D01*
X62645751Y-23782522D01*
X62708013Y-23763635D01*
X62765394Y-23732964D01*
X62815688Y-23691688D01*
X62856964Y-23641394D01*
X62887635Y-23584013D01*
X62906522Y-23521751D01*
X62912899Y-23457001D01*
X62912899Y-21857001D01*
X62906522Y-21792251D01*
X62887635Y-21729989D01*
X62856964Y-21672608D01*
X62815688Y-21622314D01*
X62765394Y-21581038D01*
X62708013Y-21550367D01*
X62645751Y-21531480D01*
X62581001Y-21525103D01*
X60981001Y-21525103D01*
X60916251Y-21531480D01*
X60853989Y-21550367D01*
X60796608Y-21581038D01*
X60746314Y-21622314D01*
X60705038Y-21672608D01*
X60674367Y-21729989D01*
X60655480Y-21792251D01*
X60649103Y-21857001D01*
X60649103Y-21951701D01*
X60186898Y-21951701D01*
X60186898Y-21857001D01*
X60180521Y-21792251D01*
X60161634Y-21729989D01*
X60130963Y-21672608D01*
X60089687Y-21622314D01*
X60039393Y-21581038D01*
X59982012Y-21550367D01*
X59919750Y-21531480D01*
X59855000Y-21525103D01*
X58255000Y-21525103D01*
X58190250Y-21531480D01*
X58127988Y-21550367D01*
X58070607Y-21581038D01*
X58020313Y-21622314D01*
X57979037Y-21672608D01*
X57948366Y-21729989D01*
X57929479Y-21792251D01*
X57923102Y-21857001D01*
X57923102Y-23105436D01*
X57753976Y-23054132D01*
X57542199Y-23033273D01*
X57375421Y-23049700D01*
X54556929Y-23049700D01*
X54398224Y-23065331D01*
X54194587Y-23127104D01*
X54006914Y-23227417D01*
X53842416Y-23362416D01*
X53707417Y-23526914D01*
X53607104Y-23714587D01*
X53545331Y-23918224D01*
X53524473Y-24130000D01*
X52659300Y-24130000D01*
X52659300Y-21417300D01*
X77769700Y-21417300D01*
X77769700Y-21807215D01*
G36*
X70139000Y-67183000D02*
G01*
X70159000Y-67183000D01*
X70159000Y-67437000D01*
X70139000Y-67437000D01*
X70139000Y-67457000D01*
X69885000Y-67457000D01*
X69885000Y-67437000D01*
X69865000Y-67437000D01*
X69865000Y-67183000D01*
X69885000Y-67183000D01*
X69885000Y-67163000D01*
X70139000Y-67163000D01*
X70139000Y-67183000D01*
G37*
X70139000Y-67183000D02*
X70159000Y-67183000D01*
X70159000Y-67437000D01*
X70139000Y-67437000D01*
X70139000Y-67457000D01*
X69885000Y-67457000D01*
X69885000Y-67437000D01*
X69865000Y-67437000D01*
X69865000Y-67183000D01*
X69885000Y-67183000D01*
X69885000Y-67163000D01*
X70139000Y-67163000D01*
X70139000Y-67183000D01*
M02*
