M48
; DRILL file {KiCad (5.1.5)-3} date 8/12/2020 10:23:53 AM
; FORMAT={-:-/ absolute / inch / decimal}
; #@! TF.CreationDate,2020-08-12T10:23:53-04:00
; #@! TF.GenerationSoftware,Kicad,Pcbnew,(5.1.5)-3
; #@! TF.FileFunction,Plated,1,2,PTH
FMAT,2
INCH
T1C0.0157
T2C0.0315
T3C0.0394
%
G90
G05
T1
X2.575Y-1.35
X2.585Y-2.6
X2.585Y-2.7
X2.75Y-1.15
T2
X2.325Y-0.892
X2.325Y-0.992
X2.325Y-1.092
X2.325Y-1.192
X2.325Y-1.292
X2.325Y-1.392
X2.325Y-1.492
X2.325Y-1.592
X2.325Y-1.692
X2.325Y-1.792
X2.325Y-1.892
X2.325Y-1.992
X2.325Y-2.092
X2.325Y-2.192
X2.325Y-2.292
X2.325Y-2.392
X2.325Y-2.492
X2.325Y-2.592
X2.325Y-2.692
X2.325Y-2.792
X2.925Y-0.892
X2.925Y-0.992
X2.925Y-1.092
X2.925Y-1.192
X2.925Y-1.292
X2.925Y-1.392
X2.925Y-1.492
X2.925Y-1.592
X2.925Y-1.692
X2.925Y-1.792
X2.925Y-1.892
X2.925Y-1.992
X2.925Y-2.092
X2.925Y-2.192
X2.925Y-2.292
X2.925Y-2.392
X2.925Y-2.492
X2.925Y-2.592
X2.925Y-2.692
X2.925Y-2.792
X2.15Y-0.95
X2.15Y-1.05
X2.15Y-1.15
X2.2Y-1.45
X2.2Y-1.75
X2.4323Y-0.892
X2.4323Y-0.992
X2.4323Y-1.092
X2.4323Y-1.192
X2.4323Y-1.292
X2.4323Y-1.392
X2.4323Y-1.492
X2.4323Y-1.592
X2.4323Y-1.692
X2.4323Y-1.792
X2.4323Y-1.892
X2.4323Y-1.992
X2.4323Y-2.092
X2.4323Y-2.192
X2.4323Y-2.292
X2.4323Y-2.392
X2.4323Y-2.492
X2.4323Y-2.592
X2.4323Y-2.692
X2.4323Y-2.792
X3.0323Y-0.892
X3.0323Y-0.992
X3.0323Y-1.092
X3.0323Y-1.192
X3.0323Y-1.292
X3.0323Y-1.392
X3.0323Y-1.492
X3.0323Y-1.592
X3.0323Y-1.692
X3.0323Y-1.792
X3.0323Y-1.892
X3.0323Y-1.992
X3.0323Y-2.092
X3.0323Y-2.192
X3.0323Y-2.292
X3.0323Y-2.392
X3.0323Y-2.492
X3.0323Y-2.592
X3.0323Y-2.692
X3.0323Y-2.792
X2.6Y-2.2
X2.75Y-2.2
T3
X2.15Y-2.0
X2.15Y-2.1
X2.15Y-2.35
X2.15Y-2.45
T2
G00X2.6Y-1.9079
M15
G01X2.6Y-1.8921
M16
G05
G00X2.75Y-1.9079
M15
G01X2.75Y-1.8921
M16
G05
T0
M30
