G04 #@! TF.GenerationSoftware,KiCad,Pcbnew,(5.1.2)-1*
G04 #@! TF.CreationDate,2020-03-30T19:36:04-04:00*
G04 #@! TF.ProjectId,vic20-svideoLHM,76696332-302d-4737-9669-64656f4c484d,rev?*
G04 #@! TF.SameCoordinates,Original*
G04 #@! TF.FileFunction,Soldermask,Top*
G04 #@! TF.FilePolarity,Negative*
%FSLAX46Y46*%
G04 Gerber Fmt 4.6, Leading zero omitted, Abs format (unit mm)*
G04 Created by KiCad (PCBNEW (5.1.2)-1) date 2020-03-30 19:36:04*
%MOMM*%
%LPD*%
G04 APERTURE LIST*
%ADD10C,0.100000*%
G04 APERTURE END LIST*
D10*
G36*
X77187824Y-70078314D02*
G01*
X77348243Y-70126977D01*
X77480907Y-70197887D01*
X77496079Y-70205997D01*
X77625660Y-70312342D01*
X77732005Y-70441923D01*
X77732006Y-70441925D01*
X77811025Y-70589759D01*
X77859688Y-70750178D01*
X77876118Y-70917001D01*
X77859688Y-71083824D01*
X77811025Y-71244243D01*
X77740115Y-71376907D01*
X77732005Y-71392079D01*
X77625660Y-71521660D01*
X77496079Y-71628005D01*
X77496077Y-71628006D01*
X77348243Y-71707025D01*
X77187824Y-71755688D01*
X77062805Y-71768001D01*
X76979197Y-71768001D01*
X76854178Y-71755688D01*
X76693759Y-71707025D01*
X76545925Y-71628006D01*
X76545923Y-71628005D01*
X76416342Y-71521660D01*
X76309997Y-71392079D01*
X76301887Y-71376907D01*
X76230977Y-71244243D01*
X76182314Y-71083824D01*
X76165884Y-70917001D01*
X76182314Y-70750178D01*
X76230977Y-70589759D01*
X76309996Y-70441925D01*
X76309997Y-70441923D01*
X76416342Y-70312342D01*
X76545923Y-70205997D01*
X76561095Y-70197887D01*
X76693759Y-70126977D01*
X76854178Y-70078314D01*
X76979197Y-70066001D01*
X77062805Y-70066001D01*
X77187824Y-70078314D01*
X77187824Y-70078314D01*
G37*
G36*
X74461823Y-70078314D02*
G01*
X74622242Y-70126977D01*
X74754906Y-70197887D01*
X74770078Y-70205997D01*
X74899659Y-70312342D01*
X75006004Y-70441923D01*
X75006005Y-70441925D01*
X75085024Y-70589759D01*
X75133687Y-70750178D01*
X75150117Y-70917001D01*
X75133687Y-71083824D01*
X75085024Y-71244243D01*
X75014114Y-71376907D01*
X75006004Y-71392079D01*
X74899659Y-71521660D01*
X74770078Y-71628005D01*
X74770076Y-71628006D01*
X74622242Y-71707025D01*
X74461823Y-71755688D01*
X74336804Y-71768001D01*
X74253196Y-71768001D01*
X74128177Y-71755688D01*
X73967758Y-71707025D01*
X73819924Y-71628006D01*
X73819922Y-71628005D01*
X73690341Y-71521660D01*
X73583996Y-71392079D01*
X73575886Y-71376907D01*
X73504976Y-71244243D01*
X73456313Y-71083824D01*
X73439883Y-70917001D01*
X73456313Y-70750178D01*
X73504976Y-70589759D01*
X73583995Y-70441925D01*
X73583996Y-70441923D01*
X73690341Y-70312342D01*
X73819922Y-70205997D01*
X73835094Y-70197887D01*
X73967758Y-70126977D01*
X74128177Y-70078314D01*
X74253196Y-70066001D01*
X74336804Y-70066001D01*
X74461823Y-70078314D01*
X74461823Y-70078314D01*
G37*
G36*
X61947824Y-70078314D02*
G01*
X62108243Y-70126977D01*
X62240907Y-70197887D01*
X62256079Y-70205997D01*
X62385660Y-70312342D01*
X62492005Y-70441923D01*
X62492006Y-70441925D01*
X62571025Y-70589759D01*
X62619688Y-70750178D01*
X62636118Y-70917001D01*
X62619688Y-71083824D01*
X62571025Y-71244243D01*
X62500115Y-71376907D01*
X62492005Y-71392079D01*
X62385660Y-71521660D01*
X62256079Y-71628005D01*
X62256077Y-71628006D01*
X62108243Y-71707025D01*
X61947824Y-71755688D01*
X61822805Y-71768001D01*
X61739197Y-71768001D01*
X61614178Y-71755688D01*
X61453759Y-71707025D01*
X61305925Y-71628006D01*
X61305923Y-71628005D01*
X61176342Y-71521660D01*
X61069997Y-71392079D01*
X61061887Y-71376907D01*
X60990977Y-71244243D01*
X60942314Y-71083824D01*
X60925884Y-70917001D01*
X60942314Y-70750178D01*
X60990977Y-70589759D01*
X61069996Y-70441925D01*
X61069997Y-70441923D01*
X61176342Y-70312342D01*
X61305923Y-70205997D01*
X61321095Y-70197887D01*
X61453759Y-70126977D01*
X61614178Y-70078314D01*
X61739197Y-70066001D01*
X61822805Y-70066001D01*
X61947824Y-70078314D01*
X61947824Y-70078314D01*
G37*
G36*
X59221823Y-70078314D02*
G01*
X59382242Y-70126977D01*
X59514906Y-70197887D01*
X59530078Y-70205997D01*
X59659659Y-70312342D01*
X59766004Y-70441923D01*
X59766005Y-70441925D01*
X59845024Y-70589759D01*
X59893687Y-70750178D01*
X59910117Y-70917001D01*
X59893687Y-71083824D01*
X59845024Y-71244243D01*
X59774114Y-71376907D01*
X59766004Y-71392079D01*
X59659659Y-71521660D01*
X59530078Y-71628005D01*
X59530076Y-71628006D01*
X59382242Y-71707025D01*
X59221823Y-71755688D01*
X59096804Y-71768001D01*
X59013196Y-71768001D01*
X58888177Y-71755688D01*
X58727758Y-71707025D01*
X58579924Y-71628006D01*
X58579922Y-71628005D01*
X58450341Y-71521660D01*
X58343996Y-71392079D01*
X58335886Y-71376907D01*
X58264976Y-71244243D01*
X58216313Y-71083824D01*
X58199883Y-70917001D01*
X58216313Y-70750178D01*
X58264976Y-70589759D01*
X58343995Y-70441925D01*
X58343996Y-70441923D01*
X58450341Y-70312342D01*
X58579922Y-70205997D01*
X58595094Y-70197887D01*
X58727758Y-70126977D01*
X58888177Y-70078314D01*
X59013196Y-70066001D01*
X59096804Y-70066001D01*
X59221823Y-70078314D01*
X59221823Y-70078314D01*
G37*
G36*
X59221823Y-67538314D02*
G01*
X59382242Y-67586977D01*
X59484157Y-67641452D01*
X59530078Y-67665997D01*
X59659659Y-67772342D01*
X59766004Y-67901923D01*
X59766005Y-67901925D01*
X59845024Y-68049759D01*
X59893687Y-68210178D01*
X59910117Y-68377001D01*
X59893687Y-68543824D01*
X59845024Y-68704243D01*
X59799326Y-68789738D01*
X59766004Y-68852079D01*
X59659659Y-68981660D01*
X59530078Y-69088005D01*
X59530076Y-69088006D01*
X59382242Y-69167025D01*
X59221823Y-69215688D01*
X59096804Y-69228001D01*
X59013196Y-69228001D01*
X58888177Y-69215688D01*
X58727758Y-69167025D01*
X58579924Y-69088006D01*
X58579922Y-69088005D01*
X58450341Y-68981660D01*
X58343996Y-68852079D01*
X58310674Y-68789738D01*
X58264976Y-68704243D01*
X58216313Y-68543824D01*
X58199883Y-68377001D01*
X58216313Y-68210178D01*
X58264976Y-68049759D01*
X58343995Y-67901925D01*
X58343996Y-67901923D01*
X58450341Y-67772342D01*
X58579922Y-67665997D01*
X58625843Y-67641452D01*
X58727758Y-67586977D01*
X58888177Y-67538314D01*
X59013196Y-67526001D01*
X59096804Y-67526001D01*
X59221823Y-67538314D01*
X59221823Y-67538314D01*
G37*
G36*
X61947824Y-67538314D02*
G01*
X62108243Y-67586977D01*
X62210158Y-67641452D01*
X62256079Y-67665997D01*
X62385660Y-67772342D01*
X62492005Y-67901923D01*
X62492006Y-67901925D01*
X62571025Y-68049759D01*
X62619688Y-68210178D01*
X62636118Y-68377001D01*
X62619688Y-68543824D01*
X62571025Y-68704243D01*
X62525327Y-68789738D01*
X62492005Y-68852079D01*
X62385660Y-68981660D01*
X62256079Y-69088005D01*
X62256077Y-69088006D01*
X62108243Y-69167025D01*
X61947824Y-69215688D01*
X61822805Y-69228001D01*
X61739197Y-69228001D01*
X61614178Y-69215688D01*
X61453759Y-69167025D01*
X61305925Y-69088006D01*
X61305923Y-69088005D01*
X61176342Y-68981660D01*
X61069997Y-68852079D01*
X61036675Y-68789738D01*
X60990977Y-68704243D01*
X60942314Y-68543824D01*
X60925884Y-68377001D01*
X60942314Y-68210178D01*
X60990977Y-68049759D01*
X61069996Y-67901925D01*
X61069997Y-67901923D01*
X61176342Y-67772342D01*
X61305923Y-67665997D01*
X61351844Y-67641452D01*
X61453759Y-67586977D01*
X61614178Y-67538314D01*
X61739197Y-67526001D01*
X61822805Y-67526001D01*
X61947824Y-67538314D01*
X61947824Y-67538314D01*
G37*
G36*
X77187824Y-67538314D02*
G01*
X77348243Y-67586977D01*
X77450158Y-67641452D01*
X77496079Y-67665997D01*
X77625660Y-67772342D01*
X77732005Y-67901923D01*
X77732006Y-67901925D01*
X77811025Y-68049759D01*
X77859688Y-68210178D01*
X77876118Y-68377001D01*
X77859688Y-68543824D01*
X77811025Y-68704243D01*
X77765327Y-68789738D01*
X77732005Y-68852079D01*
X77625660Y-68981660D01*
X77496079Y-69088005D01*
X77496077Y-69088006D01*
X77348243Y-69167025D01*
X77187824Y-69215688D01*
X77062805Y-69228001D01*
X76979197Y-69228001D01*
X76854178Y-69215688D01*
X76693759Y-69167025D01*
X76545925Y-69088006D01*
X76545923Y-69088005D01*
X76416342Y-68981660D01*
X76309997Y-68852079D01*
X76276675Y-68789738D01*
X76230977Y-68704243D01*
X76182314Y-68543824D01*
X76165884Y-68377001D01*
X76182314Y-68210178D01*
X76230977Y-68049759D01*
X76309996Y-67901925D01*
X76309997Y-67901923D01*
X76416342Y-67772342D01*
X76545923Y-67665997D01*
X76591844Y-67641452D01*
X76693759Y-67586977D01*
X76854178Y-67538314D01*
X76979197Y-67526001D01*
X77062805Y-67526001D01*
X77187824Y-67538314D01*
X77187824Y-67538314D01*
G37*
G36*
X74461823Y-67538314D02*
G01*
X74622242Y-67586977D01*
X74724157Y-67641452D01*
X74770078Y-67665997D01*
X74899659Y-67772342D01*
X75006004Y-67901923D01*
X75006005Y-67901925D01*
X75085024Y-68049759D01*
X75133687Y-68210178D01*
X75150117Y-68377001D01*
X75133687Y-68543824D01*
X75085024Y-68704243D01*
X75039326Y-68789738D01*
X75006004Y-68852079D01*
X74899659Y-68981660D01*
X74770078Y-69088005D01*
X74770076Y-69088006D01*
X74622242Y-69167025D01*
X74461823Y-69215688D01*
X74336804Y-69228001D01*
X74253196Y-69228001D01*
X74128177Y-69215688D01*
X73967758Y-69167025D01*
X73819924Y-69088006D01*
X73819922Y-69088005D01*
X73690341Y-68981660D01*
X73583996Y-68852079D01*
X73550674Y-68789738D01*
X73504976Y-68704243D01*
X73456313Y-68543824D01*
X73439883Y-68377001D01*
X73456313Y-68210178D01*
X73504976Y-68049759D01*
X73583995Y-67901925D01*
X73583996Y-67901923D01*
X73690341Y-67772342D01*
X73819922Y-67665997D01*
X73865843Y-67641452D01*
X73967758Y-67586977D01*
X74128177Y-67538314D01*
X74253196Y-67526001D01*
X74336804Y-67526001D01*
X74461823Y-67538314D01*
X74461823Y-67538314D01*
G37*
G36*
X70846928Y-68231764D02*
G01*
X70868009Y-68238160D01*
X70887445Y-68248548D01*
X70904476Y-68262524D01*
X70918452Y-68279555D01*
X70928840Y-68298991D01*
X70935236Y-68320072D01*
X70938000Y-68348140D01*
X70938000Y-68811860D01*
X70935236Y-68839928D01*
X70928840Y-68861009D01*
X70918452Y-68880445D01*
X70904476Y-68897476D01*
X70887445Y-68911452D01*
X70868009Y-68921840D01*
X70846928Y-68928236D01*
X70818860Y-68931000D01*
X69205140Y-68931000D01*
X69177072Y-68928236D01*
X69155991Y-68921840D01*
X69136555Y-68911452D01*
X69119524Y-68897476D01*
X69105548Y-68880445D01*
X69095160Y-68861009D01*
X69088764Y-68839928D01*
X69086000Y-68811860D01*
X69086000Y-68348140D01*
X69088764Y-68320072D01*
X69095160Y-68298991D01*
X69105548Y-68279555D01*
X69119524Y-68262524D01*
X69136555Y-68248548D01*
X69155991Y-68238160D01*
X69177072Y-68231764D01*
X69205140Y-68229000D01*
X70818860Y-68229000D01*
X70846928Y-68231764D01*
X70846928Y-68231764D01*
G37*
G36*
X65696928Y-68231764D02*
G01*
X65718009Y-68238160D01*
X65737445Y-68248548D01*
X65754476Y-68262524D01*
X65768452Y-68279555D01*
X65778840Y-68298991D01*
X65785236Y-68320072D01*
X65788000Y-68348140D01*
X65788000Y-68811860D01*
X65785236Y-68839928D01*
X65778840Y-68861009D01*
X65768452Y-68880445D01*
X65754476Y-68897476D01*
X65737445Y-68911452D01*
X65718009Y-68921840D01*
X65696928Y-68928236D01*
X65668860Y-68931000D01*
X64055140Y-68931000D01*
X64027072Y-68928236D01*
X64005991Y-68921840D01*
X63986555Y-68911452D01*
X63969524Y-68897476D01*
X63955548Y-68880445D01*
X63945160Y-68861009D01*
X63938764Y-68839928D01*
X63936000Y-68811860D01*
X63936000Y-68348140D01*
X63938764Y-68320072D01*
X63945160Y-68298991D01*
X63955548Y-68279555D01*
X63969524Y-68262524D01*
X63986555Y-68248548D01*
X64005991Y-68238160D01*
X64027072Y-68231764D01*
X64055140Y-68229000D01*
X65668860Y-68229000D01*
X65696928Y-68231764D01*
X65696928Y-68231764D01*
G37*
G36*
X70846928Y-66961764D02*
G01*
X70868009Y-66968160D01*
X70887445Y-66978548D01*
X70904476Y-66992524D01*
X70918452Y-67009555D01*
X70928840Y-67028991D01*
X70935236Y-67050072D01*
X70938000Y-67078140D01*
X70938000Y-67541860D01*
X70935236Y-67569928D01*
X70928840Y-67591009D01*
X70918452Y-67610445D01*
X70904476Y-67627476D01*
X70887445Y-67641452D01*
X70868009Y-67651840D01*
X70846928Y-67658236D01*
X70818860Y-67661000D01*
X69205140Y-67661000D01*
X69177072Y-67658236D01*
X69155991Y-67651840D01*
X69136555Y-67641452D01*
X69119524Y-67627476D01*
X69105548Y-67610445D01*
X69095160Y-67591009D01*
X69088764Y-67569928D01*
X69086000Y-67541860D01*
X69086000Y-67078140D01*
X69088764Y-67050072D01*
X69095160Y-67028991D01*
X69105548Y-67009555D01*
X69119524Y-66992524D01*
X69136555Y-66978548D01*
X69155991Y-66968160D01*
X69177072Y-66961764D01*
X69205140Y-66959000D01*
X70818860Y-66959000D01*
X70846928Y-66961764D01*
X70846928Y-66961764D01*
G37*
G36*
X65696928Y-66961764D02*
G01*
X65718009Y-66968160D01*
X65737445Y-66978548D01*
X65754476Y-66992524D01*
X65768452Y-67009555D01*
X65778840Y-67028991D01*
X65785236Y-67050072D01*
X65788000Y-67078140D01*
X65788000Y-67541860D01*
X65785236Y-67569928D01*
X65778840Y-67591009D01*
X65768452Y-67610445D01*
X65754476Y-67627476D01*
X65737445Y-67641452D01*
X65718009Y-67651840D01*
X65696928Y-67658236D01*
X65668860Y-67661000D01*
X64055140Y-67661000D01*
X64027072Y-67658236D01*
X64005991Y-67651840D01*
X63986555Y-67641452D01*
X63969524Y-67627476D01*
X63955548Y-67610445D01*
X63945160Y-67591009D01*
X63938764Y-67569928D01*
X63936000Y-67541860D01*
X63936000Y-67078140D01*
X63938764Y-67050072D01*
X63945160Y-67028991D01*
X63955548Y-67009555D01*
X63969524Y-66992524D01*
X63986555Y-66978548D01*
X64005991Y-66968160D01*
X64027072Y-66961764D01*
X64055140Y-66959000D01*
X65668860Y-66959000D01*
X65696928Y-66961764D01*
X65696928Y-66961764D01*
G37*
G36*
X72851674Y-66316465D02*
G01*
X72889367Y-66327899D01*
X72924103Y-66346466D01*
X72954548Y-66371452D01*
X72979534Y-66401897D01*
X72998101Y-66436633D01*
X73009535Y-66474326D01*
X73014000Y-66519661D01*
X73014000Y-67356339D01*
X73009535Y-67401674D01*
X72998101Y-67439367D01*
X72979534Y-67474103D01*
X72954548Y-67504548D01*
X72924103Y-67529534D01*
X72889367Y-67548101D01*
X72851674Y-67559535D01*
X72806339Y-67564000D01*
X71719661Y-67564000D01*
X71674326Y-67559535D01*
X71636633Y-67548101D01*
X71601897Y-67529534D01*
X71571452Y-67504548D01*
X71546466Y-67474103D01*
X71527899Y-67439367D01*
X71516465Y-67401674D01*
X71512000Y-67356339D01*
X71512000Y-66519661D01*
X71516465Y-66474326D01*
X71527899Y-66436633D01*
X71546466Y-66401897D01*
X71571452Y-66371452D01*
X71601897Y-66346466D01*
X71636633Y-66327899D01*
X71674326Y-66316465D01*
X71719661Y-66312000D01*
X72806339Y-66312000D01*
X72851674Y-66316465D01*
X72851674Y-66316465D01*
G37*
G36*
X74461823Y-64998314D02*
G01*
X74622242Y-65046977D01*
X74724157Y-65101452D01*
X74770078Y-65125997D01*
X74899659Y-65232342D01*
X75006004Y-65361923D01*
X75006005Y-65361925D01*
X75085024Y-65509759D01*
X75133687Y-65670178D01*
X75150117Y-65837001D01*
X75133687Y-66003824D01*
X75085024Y-66164243D01*
X75039326Y-66249738D01*
X75006004Y-66312079D01*
X74899659Y-66441660D01*
X74770078Y-66548005D01*
X74770076Y-66548006D01*
X74622242Y-66627025D01*
X74461823Y-66675688D01*
X74336804Y-66688001D01*
X74253196Y-66688001D01*
X74128177Y-66675688D01*
X73967758Y-66627025D01*
X73819924Y-66548006D01*
X73819922Y-66548005D01*
X73690341Y-66441660D01*
X73583996Y-66312079D01*
X73550674Y-66249738D01*
X73504976Y-66164243D01*
X73456313Y-66003824D01*
X73439883Y-65837001D01*
X73456313Y-65670178D01*
X73504976Y-65509759D01*
X73583995Y-65361925D01*
X73583996Y-65361923D01*
X73690341Y-65232342D01*
X73819922Y-65125997D01*
X73865843Y-65101452D01*
X73967758Y-65046977D01*
X74128177Y-64998314D01*
X74253196Y-64986001D01*
X74336804Y-64986001D01*
X74461823Y-64998314D01*
X74461823Y-64998314D01*
G37*
G36*
X59221823Y-64998314D02*
G01*
X59382242Y-65046977D01*
X59484157Y-65101452D01*
X59530078Y-65125997D01*
X59659659Y-65232342D01*
X59766004Y-65361923D01*
X59766005Y-65361925D01*
X59845024Y-65509759D01*
X59893687Y-65670178D01*
X59910117Y-65837001D01*
X59893687Y-66003824D01*
X59845024Y-66164243D01*
X59799326Y-66249738D01*
X59766004Y-66312079D01*
X59659659Y-66441660D01*
X59530078Y-66548005D01*
X59530076Y-66548006D01*
X59382242Y-66627025D01*
X59221823Y-66675688D01*
X59096804Y-66688001D01*
X59013196Y-66688001D01*
X58888177Y-66675688D01*
X58727758Y-66627025D01*
X58579924Y-66548006D01*
X58579922Y-66548005D01*
X58450341Y-66441660D01*
X58343996Y-66312079D01*
X58310674Y-66249738D01*
X58264976Y-66164243D01*
X58216313Y-66003824D01*
X58199883Y-65837001D01*
X58216313Y-65670178D01*
X58264976Y-65509759D01*
X58343995Y-65361925D01*
X58343996Y-65361923D01*
X58450341Y-65232342D01*
X58579922Y-65125997D01*
X58625843Y-65101452D01*
X58727758Y-65046977D01*
X58888177Y-64998314D01*
X59013196Y-64986001D01*
X59096804Y-64986001D01*
X59221823Y-64998314D01*
X59221823Y-64998314D01*
G37*
G36*
X77187824Y-64998314D02*
G01*
X77348243Y-65046977D01*
X77450158Y-65101452D01*
X77496079Y-65125997D01*
X77625660Y-65232342D01*
X77732005Y-65361923D01*
X77732006Y-65361925D01*
X77811025Y-65509759D01*
X77859688Y-65670178D01*
X77876118Y-65837001D01*
X77859688Y-66003824D01*
X77811025Y-66164243D01*
X77765327Y-66249738D01*
X77732005Y-66312079D01*
X77625660Y-66441660D01*
X77496079Y-66548005D01*
X77496077Y-66548006D01*
X77348243Y-66627025D01*
X77187824Y-66675688D01*
X77062805Y-66688001D01*
X76979197Y-66688001D01*
X76854178Y-66675688D01*
X76693759Y-66627025D01*
X76545925Y-66548006D01*
X76545923Y-66548005D01*
X76416342Y-66441660D01*
X76309997Y-66312079D01*
X76276675Y-66249738D01*
X76230977Y-66164243D01*
X76182314Y-66003824D01*
X76165884Y-65837001D01*
X76182314Y-65670178D01*
X76230977Y-65509759D01*
X76309996Y-65361925D01*
X76309997Y-65361923D01*
X76416342Y-65232342D01*
X76545923Y-65125997D01*
X76591844Y-65101452D01*
X76693759Y-65046977D01*
X76854178Y-64998314D01*
X76979197Y-64986001D01*
X77062805Y-64986001D01*
X77187824Y-64998314D01*
X77187824Y-64998314D01*
G37*
G36*
X61947824Y-64998314D02*
G01*
X62108243Y-65046977D01*
X62210158Y-65101452D01*
X62256079Y-65125997D01*
X62385660Y-65232342D01*
X62492005Y-65361923D01*
X62492006Y-65361925D01*
X62571025Y-65509759D01*
X62619688Y-65670178D01*
X62636118Y-65837001D01*
X62619688Y-66003824D01*
X62571025Y-66164243D01*
X62525327Y-66249738D01*
X62492005Y-66312079D01*
X62385660Y-66441660D01*
X62256079Y-66548005D01*
X62256077Y-66548006D01*
X62108243Y-66627025D01*
X61947824Y-66675688D01*
X61822805Y-66688001D01*
X61739197Y-66688001D01*
X61614178Y-66675688D01*
X61453759Y-66627025D01*
X61305925Y-66548006D01*
X61305923Y-66548005D01*
X61176342Y-66441660D01*
X61069997Y-66312079D01*
X61036675Y-66249738D01*
X60990977Y-66164243D01*
X60942314Y-66003824D01*
X60925884Y-65837001D01*
X60942314Y-65670178D01*
X60990977Y-65509759D01*
X61069996Y-65361925D01*
X61069997Y-65361923D01*
X61176342Y-65232342D01*
X61305923Y-65125997D01*
X61351844Y-65101452D01*
X61453759Y-65046977D01*
X61614178Y-64998314D01*
X61739197Y-64986001D01*
X61822805Y-64986001D01*
X61947824Y-64998314D01*
X61947824Y-64998314D01*
G37*
G36*
X65696928Y-65691764D02*
G01*
X65718009Y-65698160D01*
X65737445Y-65708548D01*
X65754476Y-65722524D01*
X65768452Y-65739555D01*
X65778840Y-65758991D01*
X65785236Y-65780072D01*
X65788000Y-65808140D01*
X65788000Y-66271860D01*
X65785236Y-66299928D01*
X65778840Y-66321009D01*
X65768452Y-66340445D01*
X65754476Y-66357476D01*
X65737445Y-66371452D01*
X65718009Y-66381840D01*
X65696928Y-66388236D01*
X65668860Y-66391000D01*
X64055140Y-66391000D01*
X64027072Y-66388236D01*
X64005991Y-66381840D01*
X63986555Y-66371452D01*
X63969524Y-66357476D01*
X63955548Y-66340445D01*
X63945160Y-66321009D01*
X63938764Y-66299928D01*
X63936000Y-66271860D01*
X63936000Y-65808140D01*
X63938764Y-65780072D01*
X63945160Y-65758991D01*
X63955548Y-65739555D01*
X63969524Y-65722524D01*
X63986555Y-65708548D01*
X64005991Y-65698160D01*
X64027072Y-65691764D01*
X64055140Y-65689000D01*
X65668860Y-65689000D01*
X65696928Y-65691764D01*
X65696928Y-65691764D01*
G37*
G36*
X70846928Y-65691764D02*
G01*
X70868009Y-65698160D01*
X70887445Y-65708548D01*
X70904476Y-65722524D01*
X70918452Y-65739555D01*
X70928840Y-65758991D01*
X70935236Y-65780072D01*
X70938000Y-65808140D01*
X70938000Y-66271860D01*
X70935236Y-66299928D01*
X70928840Y-66321009D01*
X70918452Y-66340445D01*
X70904476Y-66357476D01*
X70887445Y-66371452D01*
X70868009Y-66381840D01*
X70846928Y-66388236D01*
X70818860Y-66391000D01*
X69205140Y-66391000D01*
X69177072Y-66388236D01*
X69155991Y-66381840D01*
X69136555Y-66371452D01*
X69119524Y-66357476D01*
X69105548Y-66340445D01*
X69095160Y-66321009D01*
X69088764Y-66299928D01*
X69086000Y-66271860D01*
X69086000Y-65808140D01*
X69088764Y-65780072D01*
X69095160Y-65758991D01*
X69105548Y-65739555D01*
X69119524Y-65722524D01*
X69136555Y-65708548D01*
X69155991Y-65698160D01*
X69177072Y-65691764D01*
X69205140Y-65689000D01*
X70818860Y-65689000D01*
X70846928Y-65691764D01*
X70846928Y-65691764D01*
G37*
G36*
X72851674Y-64266465D02*
G01*
X72889367Y-64277899D01*
X72924103Y-64296466D01*
X72954548Y-64321452D01*
X72979534Y-64351897D01*
X72998101Y-64386633D01*
X73009535Y-64424326D01*
X73014000Y-64469661D01*
X73014000Y-65306339D01*
X73009535Y-65351674D01*
X72998101Y-65389367D01*
X72979534Y-65424103D01*
X72954548Y-65454548D01*
X72924103Y-65479534D01*
X72889367Y-65498101D01*
X72851674Y-65509535D01*
X72806339Y-65514000D01*
X71719661Y-65514000D01*
X71674326Y-65509535D01*
X71636633Y-65498101D01*
X71601897Y-65479534D01*
X71571452Y-65454548D01*
X71546466Y-65424103D01*
X71527899Y-65389367D01*
X71516465Y-65351674D01*
X71512000Y-65306339D01*
X71512000Y-64469661D01*
X71516465Y-64424326D01*
X71527899Y-64386633D01*
X71546466Y-64351897D01*
X71571452Y-64321452D01*
X71601897Y-64296466D01*
X71636633Y-64277899D01*
X71674326Y-64266465D01*
X71719661Y-64262000D01*
X72806339Y-64262000D01*
X72851674Y-64266465D01*
X72851674Y-64266465D01*
G37*
G36*
X70846928Y-64421764D02*
G01*
X70868009Y-64428160D01*
X70887445Y-64438548D01*
X70904476Y-64452524D01*
X70918452Y-64469555D01*
X70928840Y-64488991D01*
X70935236Y-64510072D01*
X70938000Y-64538140D01*
X70938000Y-65001860D01*
X70935236Y-65029928D01*
X70928840Y-65051009D01*
X70918452Y-65070445D01*
X70904476Y-65087476D01*
X70887445Y-65101452D01*
X70868009Y-65111840D01*
X70846928Y-65118236D01*
X70818860Y-65121000D01*
X69205140Y-65121000D01*
X69177072Y-65118236D01*
X69155991Y-65111840D01*
X69136555Y-65101452D01*
X69119524Y-65087476D01*
X69105548Y-65070445D01*
X69095160Y-65051009D01*
X69088764Y-65029928D01*
X69086000Y-65001860D01*
X69086000Y-64538140D01*
X69088764Y-64510072D01*
X69095160Y-64488991D01*
X69105548Y-64469555D01*
X69119524Y-64452524D01*
X69136555Y-64438548D01*
X69155991Y-64428160D01*
X69177072Y-64421764D01*
X69205140Y-64419000D01*
X70818860Y-64419000D01*
X70846928Y-64421764D01*
X70846928Y-64421764D01*
G37*
G36*
X65696928Y-64421764D02*
G01*
X65718009Y-64428160D01*
X65737445Y-64438548D01*
X65754476Y-64452524D01*
X65768452Y-64469555D01*
X65778840Y-64488991D01*
X65785236Y-64510072D01*
X65788000Y-64538140D01*
X65788000Y-65001860D01*
X65785236Y-65029928D01*
X65778840Y-65051009D01*
X65768452Y-65070445D01*
X65754476Y-65087476D01*
X65737445Y-65101452D01*
X65718009Y-65111840D01*
X65696928Y-65118236D01*
X65668860Y-65121000D01*
X64055140Y-65121000D01*
X64027072Y-65118236D01*
X64005991Y-65111840D01*
X63986555Y-65101452D01*
X63969524Y-65087476D01*
X63955548Y-65070445D01*
X63945160Y-65051009D01*
X63938764Y-65029928D01*
X63936000Y-65001860D01*
X63936000Y-64538140D01*
X63938764Y-64510072D01*
X63945160Y-64488991D01*
X63955548Y-64469555D01*
X63969524Y-64452524D01*
X63986555Y-64438548D01*
X64005991Y-64428160D01*
X64027072Y-64421764D01*
X64055140Y-64419000D01*
X65668860Y-64419000D01*
X65696928Y-64421764D01*
X65696928Y-64421764D01*
G37*
G36*
X77187824Y-62458314D02*
G01*
X77348243Y-62506977D01*
X77478248Y-62576466D01*
X77496079Y-62585997D01*
X77625660Y-62692342D01*
X77732005Y-62821923D01*
X77732006Y-62821925D01*
X77811025Y-62969759D01*
X77859688Y-63130178D01*
X77876118Y-63297001D01*
X77859688Y-63463824D01*
X77811025Y-63624243D01*
X77740115Y-63756907D01*
X77732005Y-63772079D01*
X77625660Y-63901660D01*
X77496079Y-64008005D01*
X77496077Y-64008006D01*
X77348243Y-64087025D01*
X77187824Y-64135688D01*
X77062805Y-64148001D01*
X76979197Y-64148001D01*
X76854178Y-64135688D01*
X76693759Y-64087025D01*
X76545925Y-64008006D01*
X76545923Y-64008005D01*
X76416342Y-63901660D01*
X76309997Y-63772079D01*
X76301887Y-63756907D01*
X76230977Y-63624243D01*
X76182314Y-63463824D01*
X76165884Y-63297001D01*
X76182314Y-63130178D01*
X76230977Y-62969759D01*
X76309996Y-62821925D01*
X76309997Y-62821923D01*
X76416342Y-62692342D01*
X76545923Y-62585997D01*
X76563754Y-62576466D01*
X76693759Y-62506977D01*
X76854178Y-62458314D01*
X76979197Y-62446001D01*
X77062805Y-62446001D01*
X77187824Y-62458314D01*
X77187824Y-62458314D01*
G37*
G36*
X74461823Y-62458314D02*
G01*
X74622242Y-62506977D01*
X74752247Y-62576466D01*
X74770078Y-62585997D01*
X74899659Y-62692342D01*
X75006004Y-62821923D01*
X75006005Y-62821925D01*
X75085024Y-62969759D01*
X75133687Y-63130178D01*
X75150117Y-63297001D01*
X75133687Y-63463824D01*
X75085024Y-63624243D01*
X75014114Y-63756907D01*
X75006004Y-63772079D01*
X74899659Y-63901660D01*
X74770078Y-64008005D01*
X74770076Y-64008006D01*
X74622242Y-64087025D01*
X74461823Y-64135688D01*
X74336804Y-64148001D01*
X74253196Y-64148001D01*
X74128177Y-64135688D01*
X73967758Y-64087025D01*
X73819924Y-64008006D01*
X73819922Y-64008005D01*
X73690341Y-63901660D01*
X73583996Y-63772079D01*
X73575886Y-63756907D01*
X73504976Y-63624243D01*
X73456313Y-63463824D01*
X73439883Y-63297001D01*
X73456313Y-63130178D01*
X73504976Y-62969759D01*
X73583995Y-62821925D01*
X73583996Y-62821923D01*
X73690341Y-62692342D01*
X73819922Y-62585997D01*
X73837753Y-62576466D01*
X73967758Y-62506977D01*
X74128177Y-62458314D01*
X74253196Y-62446001D01*
X74336804Y-62446001D01*
X74461823Y-62458314D01*
X74461823Y-62458314D01*
G37*
G36*
X59221823Y-62458314D02*
G01*
X59382242Y-62506977D01*
X59512247Y-62576466D01*
X59530078Y-62585997D01*
X59659659Y-62692342D01*
X59766004Y-62821923D01*
X59766005Y-62821925D01*
X59845024Y-62969759D01*
X59893687Y-63130178D01*
X59910117Y-63297001D01*
X59893687Y-63463824D01*
X59845024Y-63624243D01*
X59774114Y-63756907D01*
X59766004Y-63772079D01*
X59659659Y-63901660D01*
X59530078Y-64008005D01*
X59530076Y-64008006D01*
X59382242Y-64087025D01*
X59221823Y-64135688D01*
X59096804Y-64148001D01*
X59013196Y-64148001D01*
X58888177Y-64135688D01*
X58727758Y-64087025D01*
X58579924Y-64008006D01*
X58579922Y-64008005D01*
X58450341Y-63901660D01*
X58343996Y-63772079D01*
X58335886Y-63756907D01*
X58264976Y-63624243D01*
X58216313Y-63463824D01*
X58199883Y-63297001D01*
X58216313Y-63130178D01*
X58264976Y-62969759D01*
X58343995Y-62821925D01*
X58343996Y-62821923D01*
X58450341Y-62692342D01*
X58579922Y-62585997D01*
X58597753Y-62576466D01*
X58727758Y-62506977D01*
X58888177Y-62458314D01*
X59013196Y-62446001D01*
X59096804Y-62446001D01*
X59221823Y-62458314D01*
X59221823Y-62458314D01*
G37*
G36*
X61947824Y-62458314D02*
G01*
X62108243Y-62506977D01*
X62238248Y-62576466D01*
X62256079Y-62585997D01*
X62385660Y-62692342D01*
X62492005Y-62821923D01*
X62492006Y-62821925D01*
X62571025Y-62969759D01*
X62619688Y-63130178D01*
X62636118Y-63297001D01*
X62619688Y-63463824D01*
X62571025Y-63624243D01*
X62500115Y-63756907D01*
X62492005Y-63772079D01*
X62385660Y-63901660D01*
X62256079Y-64008005D01*
X62256077Y-64008006D01*
X62108243Y-64087025D01*
X61947824Y-64135688D01*
X61822805Y-64148001D01*
X61739197Y-64148001D01*
X61614178Y-64135688D01*
X61453759Y-64087025D01*
X61305925Y-64008006D01*
X61305923Y-64008005D01*
X61176342Y-63901660D01*
X61069997Y-63772079D01*
X61061887Y-63756907D01*
X60990977Y-63624243D01*
X60942314Y-63463824D01*
X60925884Y-63297001D01*
X60942314Y-63130178D01*
X60990977Y-62969759D01*
X61069996Y-62821925D01*
X61069997Y-62821923D01*
X61176342Y-62692342D01*
X61305923Y-62585997D01*
X61323754Y-62576466D01*
X61453759Y-62506977D01*
X61614178Y-62458314D01*
X61739197Y-62446001D01*
X61822805Y-62446001D01*
X61947824Y-62458314D01*
X61947824Y-62458314D01*
G37*
G36*
X54720443Y-61335519D02*
G01*
X54786627Y-61342037D01*
X54956466Y-61393557D01*
X55112991Y-61477222D01*
X55148729Y-61506552D01*
X55250186Y-61589814D01*
X55333448Y-61691271D01*
X55362778Y-61727009D01*
X55446443Y-61883534D01*
X55497963Y-62053373D01*
X55515359Y-62230000D01*
X55497963Y-62406627D01*
X55446443Y-62576466D01*
X55362778Y-62732991D01*
X55333448Y-62768729D01*
X55250186Y-62870186D01*
X55148729Y-62953448D01*
X55112991Y-62982778D01*
X54956466Y-63066443D01*
X54786627Y-63117963D01*
X54720443Y-63124481D01*
X54654260Y-63131000D01*
X54565740Y-63131000D01*
X54499557Y-63124481D01*
X54433373Y-63117963D01*
X54263534Y-63066443D01*
X54107009Y-62982778D01*
X54071271Y-62953448D01*
X53969814Y-62870186D01*
X53886552Y-62768729D01*
X53857222Y-62732991D01*
X53773557Y-62576466D01*
X53722037Y-62406627D01*
X53704641Y-62230000D01*
X53722037Y-62053373D01*
X53773557Y-61883534D01*
X53857222Y-61727009D01*
X53886552Y-61691271D01*
X53969814Y-61589814D01*
X54071271Y-61506552D01*
X54107009Y-61477222D01*
X54263534Y-61393557D01*
X54433373Y-61342037D01*
X54499557Y-61335519D01*
X54565740Y-61329000D01*
X54654260Y-61329000D01*
X54720443Y-61335519D01*
X54720443Y-61335519D01*
G37*
G36*
X67898674Y-60728465D02*
G01*
X67936367Y-60739899D01*
X67971103Y-60758466D01*
X68001548Y-60783452D01*
X68026534Y-60813897D01*
X68045101Y-60848633D01*
X68056535Y-60886326D01*
X68061000Y-60931661D01*
X68061000Y-61768339D01*
X68056535Y-61813674D01*
X68045101Y-61851367D01*
X68026534Y-61886103D01*
X68001548Y-61916548D01*
X67971103Y-61941534D01*
X67936367Y-61960101D01*
X67898674Y-61971535D01*
X67853339Y-61976000D01*
X66766661Y-61976000D01*
X66721326Y-61971535D01*
X66683633Y-61960101D01*
X66648897Y-61941534D01*
X66618452Y-61916548D01*
X66593466Y-61886103D01*
X66574899Y-61851367D01*
X66563465Y-61813674D01*
X66559000Y-61768339D01*
X66559000Y-60931661D01*
X66563465Y-60886326D01*
X66574899Y-60848633D01*
X66593466Y-60813897D01*
X66618452Y-60783452D01*
X66648897Y-60758466D01*
X66683633Y-60739899D01*
X66721326Y-60728465D01*
X66766661Y-60724000D01*
X67853339Y-60724000D01*
X67898674Y-60728465D01*
X67898674Y-60728465D01*
G37*
G36*
X77187824Y-59918314D02*
G01*
X77348243Y-59966977D01*
X77480907Y-60037887D01*
X77496079Y-60045997D01*
X77625660Y-60152342D01*
X77732005Y-60281923D01*
X77732006Y-60281925D01*
X77811025Y-60429759D01*
X77859688Y-60590178D01*
X77876118Y-60757001D01*
X77859688Y-60923824D01*
X77811025Y-61084243D01*
X77740115Y-61216907D01*
X77732005Y-61232079D01*
X77625660Y-61361660D01*
X77496079Y-61468005D01*
X77496077Y-61468006D01*
X77348243Y-61547025D01*
X77187824Y-61595688D01*
X77062805Y-61608001D01*
X76979197Y-61608001D01*
X76854178Y-61595688D01*
X76693759Y-61547025D01*
X76545925Y-61468006D01*
X76545923Y-61468005D01*
X76416342Y-61361660D01*
X76309997Y-61232079D01*
X76301887Y-61216907D01*
X76230977Y-61084243D01*
X76182314Y-60923824D01*
X76165884Y-60757001D01*
X76182314Y-60590178D01*
X76230977Y-60429759D01*
X76309996Y-60281925D01*
X76309997Y-60281923D01*
X76416342Y-60152342D01*
X76545923Y-60045997D01*
X76561095Y-60037887D01*
X76693759Y-59966977D01*
X76854178Y-59918314D01*
X76979197Y-59906001D01*
X77062805Y-59906001D01*
X77187824Y-59918314D01*
X77187824Y-59918314D01*
G37*
G36*
X74461823Y-59918314D02*
G01*
X74622242Y-59966977D01*
X74754906Y-60037887D01*
X74770078Y-60045997D01*
X74899659Y-60152342D01*
X75006004Y-60281923D01*
X75006005Y-60281925D01*
X75085024Y-60429759D01*
X75133687Y-60590178D01*
X75150117Y-60757001D01*
X75133687Y-60923824D01*
X75085024Y-61084243D01*
X75014114Y-61216907D01*
X75006004Y-61232079D01*
X74899659Y-61361660D01*
X74770078Y-61468005D01*
X74770076Y-61468006D01*
X74622242Y-61547025D01*
X74461823Y-61595688D01*
X74336804Y-61608001D01*
X74253196Y-61608001D01*
X74128177Y-61595688D01*
X73967758Y-61547025D01*
X73819924Y-61468006D01*
X73819922Y-61468005D01*
X73690341Y-61361660D01*
X73583996Y-61232079D01*
X73575886Y-61216907D01*
X73504976Y-61084243D01*
X73456313Y-60923824D01*
X73439883Y-60757001D01*
X73456313Y-60590178D01*
X73504976Y-60429759D01*
X73583995Y-60281925D01*
X73583996Y-60281923D01*
X73690341Y-60152342D01*
X73819922Y-60045997D01*
X73835094Y-60037887D01*
X73967758Y-59966977D01*
X74128177Y-59918314D01*
X74253196Y-59906001D01*
X74336804Y-59906001D01*
X74461823Y-59918314D01*
X74461823Y-59918314D01*
G37*
G36*
X59221823Y-59918314D02*
G01*
X59382242Y-59966977D01*
X59514906Y-60037887D01*
X59530078Y-60045997D01*
X59659659Y-60152342D01*
X59766004Y-60281923D01*
X59766005Y-60281925D01*
X59845024Y-60429759D01*
X59893687Y-60590178D01*
X59910117Y-60757001D01*
X59893687Y-60923824D01*
X59845024Y-61084243D01*
X59774114Y-61216907D01*
X59766004Y-61232079D01*
X59659659Y-61361660D01*
X59530078Y-61468005D01*
X59530076Y-61468006D01*
X59382242Y-61547025D01*
X59221823Y-61595688D01*
X59096804Y-61608001D01*
X59013196Y-61608001D01*
X58888177Y-61595688D01*
X58727758Y-61547025D01*
X58579924Y-61468006D01*
X58579922Y-61468005D01*
X58450341Y-61361660D01*
X58343996Y-61232079D01*
X58335886Y-61216907D01*
X58264976Y-61084243D01*
X58216313Y-60923824D01*
X58199883Y-60757001D01*
X58216313Y-60590178D01*
X58264976Y-60429759D01*
X58343995Y-60281925D01*
X58343996Y-60281923D01*
X58450341Y-60152342D01*
X58579922Y-60045997D01*
X58595094Y-60037887D01*
X58727758Y-59966977D01*
X58888177Y-59918314D01*
X59013196Y-59906001D01*
X59096804Y-59906001D01*
X59221823Y-59918314D01*
X59221823Y-59918314D01*
G37*
G36*
X61947824Y-59918314D02*
G01*
X62108243Y-59966977D01*
X62240907Y-60037887D01*
X62256079Y-60045997D01*
X62385660Y-60152342D01*
X62492005Y-60281923D01*
X62492006Y-60281925D01*
X62571025Y-60429759D01*
X62619688Y-60590178D01*
X62636118Y-60757001D01*
X62619688Y-60923824D01*
X62571025Y-61084243D01*
X62500115Y-61216907D01*
X62492005Y-61232079D01*
X62385660Y-61361660D01*
X62256079Y-61468005D01*
X62256077Y-61468006D01*
X62108243Y-61547025D01*
X61947824Y-61595688D01*
X61822805Y-61608001D01*
X61739197Y-61608001D01*
X61614178Y-61595688D01*
X61453759Y-61547025D01*
X61305925Y-61468006D01*
X61305923Y-61468005D01*
X61176342Y-61361660D01*
X61069997Y-61232079D01*
X61061887Y-61216907D01*
X60990977Y-61084243D01*
X60942314Y-60923824D01*
X60925884Y-60757001D01*
X60942314Y-60590178D01*
X60990977Y-60429759D01*
X61069996Y-60281925D01*
X61069997Y-60281923D01*
X61176342Y-60152342D01*
X61305923Y-60045997D01*
X61321095Y-60037887D01*
X61453759Y-59966977D01*
X61614178Y-59918314D01*
X61739197Y-59906001D01*
X61822805Y-59906001D01*
X61947824Y-59918314D01*
X61947824Y-59918314D01*
G37*
G36*
X55511000Y-60591000D02*
G01*
X53709000Y-60591000D01*
X53709000Y-58789000D01*
X55511000Y-58789000D01*
X55511000Y-60591000D01*
X55511000Y-60591000D01*
G37*
G36*
X67898674Y-58678465D02*
G01*
X67936367Y-58689899D01*
X67971103Y-58708466D01*
X68001548Y-58733452D01*
X68026534Y-58763897D01*
X68045101Y-58798633D01*
X68056535Y-58836326D01*
X68061000Y-58881661D01*
X68061000Y-59718339D01*
X68056535Y-59763674D01*
X68045101Y-59801367D01*
X68026534Y-59836103D01*
X68001548Y-59866548D01*
X67971103Y-59891534D01*
X67936367Y-59910101D01*
X67898674Y-59921535D01*
X67853339Y-59926000D01*
X66766661Y-59926000D01*
X66721326Y-59921535D01*
X66683633Y-59910101D01*
X66648897Y-59891534D01*
X66618452Y-59866548D01*
X66593466Y-59836103D01*
X66574899Y-59801367D01*
X66563465Y-59763674D01*
X66559000Y-59718339D01*
X66559000Y-58881661D01*
X66563465Y-58836326D01*
X66574899Y-58798633D01*
X66593466Y-58763897D01*
X66618452Y-58733452D01*
X66648897Y-58708466D01*
X66683633Y-58689899D01*
X66721326Y-58678465D01*
X66766661Y-58674000D01*
X67853339Y-58674000D01*
X67898674Y-58678465D01*
X67898674Y-58678465D01*
G37*
G36*
X77187824Y-57378314D02*
G01*
X77348243Y-57426977D01*
X77480907Y-57497887D01*
X77496079Y-57505997D01*
X77625660Y-57612342D01*
X77732005Y-57741923D01*
X77732006Y-57741925D01*
X77811025Y-57889759D01*
X77859688Y-58050178D01*
X77876118Y-58217001D01*
X77859688Y-58383824D01*
X77811025Y-58544243D01*
X77741668Y-58674000D01*
X77732005Y-58692079D01*
X77625660Y-58821660D01*
X77496079Y-58928005D01*
X77496077Y-58928006D01*
X77348243Y-59007025D01*
X77187824Y-59055688D01*
X77062805Y-59068001D01*
X76979197Y-59068001D01*
X76854178Y-59055688D01*
X76693759Y-59007025D01*
X76545925Y-58928006D01*
X76545923Y-58928005D01*
X76416342Y-58821660D01*
X76309997Y-58692079D01*
X76300334Y-58674000D01*
X76230977Y-58544243D01*
X76182314Y-58383824D01*
X76165884Y-58217001D01*
X76182314Y-58050178D01*
X76230977Y-57889759D01*
X76309996Y-57741925D01*
X76309997Y-57741923D01*
X76416342Y-57612342D01*
X76545923Y-57505997D01*
X76561095Y-57497887D01*
X76693759Y-57426977D01*
X76854178Y-57378314D01*
X76979197Y-57366001D01*
X77062805Y-57366001D01*
X77187824Y-57378314D01*
X77187824Y-57378314D01*
G37*
G36*
X74461823Y-57378314D02*
G01*
X74622242Y-57426977D01*
X74754906Y-57497887D01*
X74770078Y-57505997D01*
X74899659Y-57612342D01*
X75006004Y-57741923D01*
X75006005Y-57741925D01*
X75085024Y-57889759D01*
X75133687Y-58050178D01*
X75150117Y-58217001D01*
X75133687Y-58383824D01*
X75085024Y-58544243D01*
X75015667Y-58674000D01*
X75006004Y-58692079D01*
X74899659Y-58821660D01*
X74770078Y-58928005D01*
X74770076Y-58928006D01*
X74622242Y-59007025D01*
X74461823Y-59055688D01*
X74336804Y-59068001D01*
X74253196Y-59068001D01*
X74128177Y-59055688D01*
X73967758Y-59007025D01*
X73819924Y-58928006D01*
X73819922Y-58928005D01*
X73690341Y-58821660D01*
X73583996Y-58692079D01*
X73574333Y-58674000D01*
X73504976Y-58544243D01*
X73456313Y-58383824D01*
X73439883Y-58217001D01*
X73456313Y-58050178D01*
X73504976Y-57889759D01*
X73583995Y-57741925D01*
X73583996Y-57741923D01*
X73690341Y-57612342D01*
X73819922Y-57505997D01*
X73835094Y-57497887D01*
X73967758Y-57426977D01*
X74128177Y-57378314D01*
X74253196Y-57366001D01*
X74336804Y-57366001D01*
X74461823Y-57378314D01*
X74461823Y-57378314D01*
G37*
G36*
X61947824Y-57378314D02*
G01*
X62108243Y-57426977D01*
X62240907Y-57497887D01*
X62256079Y-57505997D01*
X62385660Y-57612342D01*
X62492005Y-57741923D01*
X62492006Y-57741925D01*
X62571025Y-57889759D01*
X62619688Y-58050178D01*
X62636118Y-58217001D01*
X62619688Y-58383824D01*
X62571025Y-58544243D01*
X62501668Y-58674000D01*
X62492005Y-58692079D01*
X62385660Y-58821660D01*
X62256079Y-58928005D01*
X62256077Y-58928006D01*
X62108243Y-59007025D01*
X61947824Y-59055688D01*
X61822805Y-59068001D01*
X61739197Y-59068001D01*
X61614178Y-59055688D01*
X61453759Y-59007025D01*
X61305925Y-58928006D01*
X61305923Y-58928005D01*
X61176342Y-58821660D01*
X61069997Y-58692079D01*
X61060334Y-58674000D01*
X60990977Y-58544243D01*
X60942314Y-58383824D01*
X60925884Y-58217001D01*
X60942314Y-58050178D01*
X60990977Y-57889759D01*
X61069996Y-57741925D01*
X61069997Y-57741923D01*
X61176342Y-57612342D01*
X61305923Y-57505997D01*
X61321095Y-57497887D01*
X61453759Y-57426977D01*
X61614178Y-57378314D01*
X61739197Y-57366001D01*
X61822805Y-57366001D01*
X61947824Y-57378314D01*
X61947824Y-57378314D01*
G37*
G36*
X59221823Y-57378314D02*
G01*
X59382242Y-57426977D01*
X59514906Y-57497887D01*
X59530078Y-57505997D01*
X59659659Y-57612342D01*
X59766004Y-57741923D01*
X59766005Y-57741925D01*
X59845024Y-57889759D01*
X59893687Y-58050178D01*
X59910117Y-58217001D01*
X59893687Y-58383824D01*
X59845024Y-58544243D01*
X59775667Y-58674000D01*
X59766004Y-58692079D01*
X59659659Y-58821660D01*
X59530078Y-58928005D01*
X59530076Y-58928006D01*
X59382242Y-59007025D01*
X59221823Y-59055688D01*
X59096804Y-59068001D01*
X59013196Y-59068001D01*
X58888177Y-59055688D01*
X58727758Y-59007025D01*
X58579924Y-58928006D01*
X58579922Y-58928005D01*
X58450341Y-58821660D01*
X58343996Y-58692079D01*
X58334333Y-58674000D01*
X58264976Y-58544243D01*
X58216313Y-58383824D01*
X58199883Y-58217001D01*
X58216313Y-58050178D01*
X58264976Y-57889759D01*
X58343995Y-57741925D01*
X58343996Y-57741923D01*
X58450341Y-57612342D01*
X58579922Y-57505997D01*
X58595094Y-57497887D01*
X58727758Y-57426977D01*
X58888177Y-57378314D01*
X59013196Y-57366001D01*
X59096804Y-57366001D01*
X59221823Y-57378314D01*
X59221823Y-57378314D01*
G37*
G36*
X70098228Y-55061703D02*
G01*
X70253100Y-55125853D01*
X70392481Y-55218985D01*
X70511015Y-55337519D01*
X70604147Y-55476900D01*
X70668297Y-55631772D01*
X70701000Y-55796184D01*
X70701000Y-55963816D01*
X70668297Y-56128228D01*
X70604147Y-56283100D01*
X70511015Y-56422481D01*
X70392481Y-56541015D01*
X70253100Y-56634147D01*
X70098228Y-56698297D01*
X69933816Y-56731000D01*
X69766184Y-56731000D01*
X69601772Y-56698297D01*
X69446900Y-56634147D01*
X69307519Y-56541015D01*
X69188985Y-56422481D01*
X69095853Y-56283100D01*
X69031703Y-56128228D01*
X68999000Y-55963816D01*
X68999000Y-55796184D01*
X69031703Y-55631772D01*
X69095853Y-55476900D01*
X69188985Y-55337519D01*
X69307519Y-55218985D01*
X69446900Y-55125853D01*
X69601772Y-55061703D01*
X69766184Y-55029000D01*
X69933816Y-55029000D01*
X70098228Y-55061703D01*
X70098228Y-55061703D01*
G37*
G36*
X66288228Y-55061703D02*
G01*
X66443100Y-55125853D01*
X66582481Y-55218985D01*
X66701015Y-55337519D01*
X66794147Y-55476900D01*
X66858297Y-55631772D01*
X66891000Y-55796184D01*
X66891000Y-55963816D01*
X66858297Y-56128228D01*
X66794147Y-56283100D01*
X66701015Y-56422481D01*
X66582481Y-56541015D01*
X66443100Y-56634147D01*
X66288228Y-56698297D01*
X66123816Y-56731000D01*
X65956184Y-56731000D01*
X65791772Y-56698297D01*
X65636900Y-56634147D01*
X65497519Y-56541015D01*
X65378985Y-56422481D01*
X65285853Y-56283100D01*
X65221703Y-56128228D01*
X65189000Y-55963816D01*
X65189000Y-55796184D01*
X65221703Y-55631772D01*
X65285853Y-55476900D01*
X65378985Y-55337519D01*
X65497519Y-55218985D01*
X65636900Y-55125853D01*
X65791772Y-55061703D01*
X65956184Y-55029000D01*
X66123816Y-55029000D01*
X66288228Y-55061703D01*
X66288228Y-55061703D01*
G37*
G36*
X59221823Y-54838314D02*
G01*
X59382242Y-54886977D01*
X59514906Y-54957887D01*
X59530078Y-54965997D01*
X59659659Y-55072342D01*
X59766004Y-55201923D01*
X59766005Y-55201925D01*
X59845024Y-55349759D01*
X59893687Y-55510178D01*
X59910117Y-55677001D01*
X59893687Y-55843824D01*
X59845024Y-56004243D01*
X59778753Y-56128228D01*
X59766004Y-56152079D01*
X59659659Y-56281660D01*
X59530078Y-56388005D01*
X59530076Y-56388006D01*
X59382242Y-56467025D01*
X59221823Y-56515688D01*
X59096804Y-56528001D01*
X59013196Y-56528001D01*
X58888177Y-56515688D01*
X58727758Y-56467025D01*
X58579924Y-56388006D01*
X58579922Y-56388005D01*
X58450341Y-56281660D01*
X58343996Y-56152079D01*
X58331247Y-56128228D01*
X58264976Y-56004243D01*
X58216313Y-55843824D01*
X58199883Y-55677001D01*
X58216313Y-55510178D01*
X58264976Y-55349759D01*
X58343995Y-55201925D01*
X58343996Y-55201923D01*
X58450341Y-55072342D01*
X58579922Y-54965997D01*
X58595094Y-54957887D01*
X58727758Y-54886977D01*
X58888177Y-54838314D01*
X59013196Y-54826001D01*
X59096804Y-54826001D01*
X59221823Y-54838314D01*
X59221823Y-54838314D01*
G37*
G36*
X77187824Y-54838314D02*
G01*
X77348243Y-54886977D01*
X77480907Y-54957887D01*
X77496079Y-54965997D01*
X77625660Y-55072342D01*
X77732005Y-55201923D01*
X77732006Y-55201925D01*
X77811025Y-55349759D01*
X77859688Y-55510178D01*
X77876118Y-55677001D01*
X77859688Y-55843824D01*
X77811025Y-56004243D01*
X77744754Y-56128228D01*
X77732005Y-56152079D01*
X77625660Y-56281660D01*
X77496079Y-56388005D01*
X77496077Y-56388006D01*
X77348243Y-56467025D01*
X77187824Y-56515688D01*
X77062805Y-56528001D01*
X76979197Y-56528001D01*
X76854178Y-56515688D01*
X76693759Y-56467025D01*
X76545925Y-56388006D01*
X76545923Y-56388005D01*
X76416342Y-56281660D01*
X76309997Y-56152079D01*
X76297248Y-56128228D01*
X76230977Y-56004243D01*
X76182314Y-55843824D01*
X76165884Y-55677001D01*
X76182314Y-55510178D01*
X76230977Y-55349759D01*
X76309996Y-55201925D01*
X76309997Y-55201923D01*
X76416342Y-55072342D01*
X76545923Y-54965997D01*
X76561095Y-54957887D01*
X76693759Y-54886977D01*
X76854178Y-54838314D01*
X76979197Y-54826001D01*
X77062805Y-54826001D01*
X77187824Y-54838314D01*
X77187824Y-54838314D01*
G37*
G36*
X74461823Y-54838314D02*
G01*
X74622242Y-54886977D01*
X74754906Y-54957887D01*
X74770078Y-54965997D01*
X74899659Y-55072342D01*
X75006004Y-55201923D01*
X75006005Y-55201925D01*
X75085024Y-55349759D01*
X75133687Y-55510178D01*
X75150117Y-55677001D01*
X75133687Y-55843824D01*
X75085024Y-56004243D01*
X75018753Y-56128228D01*
X75006004Y-56152079D01*
X74899659Y-56281660D01*
X74770078Y-56388005D01*
X74770076Y-56388006D01*
X74622242Y-56467025D01*
X74461823Y-56515688D01*
X74336804Y-56528001D01*
X74253196Y-56528001D01*
X74128177Y-56515688D01*
X73967758Y-56467025D01*
X73819924Y-56388006D01*
X73819922Y-56388005D01*
X73690341Y-56281660D01*
X73583996Y-56152079D01*
X73571247Y-56128228D01*
X73504976Y-56004243D01*
X73456313Y-55843824D01*
X73439883Y-55677001D01*
X73456313Y-55510178D01*
X73504976Y-55349759D01*
X73583995Y-55201925D01*
X73583996Y-55201923D01*
X73690341Y-55072342D01*
X73819922Y-54965997D01*
X73835094Y-54957887D01*
X73967758Y-54886977D01*
X74128177Y-54838314D01*
X74253196Y-54826001D01*
X74336804Y-54826001D01*
X74461823Y-54838314D01*
X74461823Y-54838314D01*
G37*
G36*
X61947824Y-54838314D02*
G01*
X62108243Y-54886977D01*
X62240907Y-54957887D01*
X62256079Y-54965997D01*
X62385660Y-55072342D01*
X62492005Y-55201923D01*
X62492006Y-55201925D01*
X62571025Y-55349759D01*
X62619688Y-55510178D01*
X62636118Y-55677001D01*
X62619688Y-55843824D01*
X62571025Y-56004243D01*
X62504754Y-56128228D01*
X62492005Y-56152079D01*
X62385660Y-56281660D01*
X62256079Y-56388005D01*
X62256077Y-56388006D01*
X62108243Y-56467025D01*
X61947824Y-56515688D01*
X61822805Y-56528001D01*
X61739197Y-56528001D01*
X61614178Y-56515688D01*
X61453759Y-56467025D01*
X61305925Y-56388006D01*
X61305923Y-56388005D01*
X61176342Y-56281660D01*
X61069997Y-56152079D01*
X61057248Y-56128228D01*
X60990977Y-56004243D01*
X60942314Y-55843824D01*
X60925884Y-55677001D01*
X60942314Y-55510178D01*
X60990977Y-55349759D01*
X61069996Y-55201925D01*
X61069997Y-55201923D01*
X61176342Y-55072342D01*
X61305923Y-54965997D01*
X61321095Y-54957887D01*
X61453759Y-54886977D01*
X61614178Y-54838314D01*
X61739197Y-54826001D01*
X61822805Y-54826001D01*
X61947824Y-54838314D01*
X61947824Y-54838314D01*
G37*
G36*
X55511000Y-54241000D02*
G01*
X53709000Y-54241000D01*
X53709000Y-52439000D01*
X55511000Y-52439000D01*
X55511000Y-54241000D01*
X55511000Y-54241000D01*
G37*
G36*
X61947824Y-52298314D02*
G01*
X62108243Y-52346977D01*
X62240907Y-52417887D01*
X62256079Y-52425997D01*
X62385660Y-52532342D01*
X62492005Y-52661923D01*
X62492006Y-52661925D01*
X62571025Y-52809759D01*
X62619688Y-52970178D01*
X62636118Y-53137001D01*
X62619688Y-53303824D01*
X62571025Y-53464243D01*
X62500115Y-53596907D01*
X62492005Y-53612079D01*
X62385660Y-53741660D01*
X62256079Y-53848005D01*
X62256077Y-53848006D01*
X62108243Y-53927025D01*
X61947824Y-53975688D01*
X61822805Y-53988001D01*
X61739197Y-53988001D01*
X61614178Y-53975688D01*
X61453759Y-53927025D01*
X61305925Y-53848006D01*
X61305923Y-53848005D01*
X61176342Y-53741660D01*
X61069997Y-53612079D01*
X61061887Y-53596907D01*
X60990977Y-53464243D01*
X60942314Y-53303824D01*
X60925884Y-53137001D01*
X60942314Y-52970178D01*
X60990977Y-52809759D01*
X61069996Y-52661925D01*
X61069997Y-52661923D01*
X61176342Y-52532342D01*
X61305923Y-52425997D01*
X61321095Y-52417887D01*
X61453759Y-52346977D01*
X61614178Y-52298314D01*
X61739197Y-52286001D01*
X61822805Y-52286001D01*
X61947824Y-52298314D01*
X61947824Y-52298314D01*
G37*
G36*
X77187824Y-52298314D02*
G01*
X77348243Y-52346977D01*
X77480907Y-52417887D01*
X77496079Y-52425997D01*
X77625660Y-52532342D01*
X77732005Y-52661923D01*
X77732006Y-52661925D01*
X77811025Y-52809759D01*
X77859688Y-52970178D01*
X77876118Y-53137001D01*
X77859688Y-53303824D01*
X77811025Y-53464243D01*
X77740115Y-53596907D01*
X77732005Y-53612079D01*
X77625660Y-53741660D01*
X77496079Y-53848005D01*
X77496077Y-53848006D01*
X77348243Y-53927025D01*
X77187824Y-53975688D01*
X77062805Y-53988001D01*
X76979197Y-53988001D01*
X76854178Y-53975688D01*
X76693759Y-53927025D01*
X76545925Y-53848006D01*
X76545923Y-53848005D01*
X76416342Y-53741660D01*
X76309997Y-53612079D01*
X76301887Y-53596907D01*
X76230977Y-53464243D01*
X76182314Y-53303824D01*
X76165884Y-53137001D01*
X76182314Y-52970178D01*
X76230977Y-52809759D01*
X76309996Y-52661925D01*
X76309997Y-52661923D01*
X76416342Y-52532342D01*
X76545923Y-52425997D01*
X76561095Y-52417887D01*
X76693759Y-52346977D01*
X76854178Y-52298314D01*
X76979197Y-52286001D01*
X77062805Y-52286001D01*
X77187824Y-52298314D01*
X77187824Y-52298314D01*
G37*
G36*
X74461823Y-52298314D02*
G01*
X74622242Y-52346977D01*
X74754906Y-52417887D01*
X74770078Y-52425997D01*
X74899659Y-52532342D01*
X75006004Y-52661923D01*
X75006005Y-52661925D01*
X75085024Y-52809759D01*
X75133687Y-52970178D01*
X75150117Y-53137001D01*
X75133687Y-53303824D01*
X75085024Y-53464243D01*
X75014114Y-53596907D01*
X75006004Y-53612079D01*
X74899659Y-53741660D01*
X74770078Y-53848005D01*
X74770076Y-53848006D01*
X74622242Y-53927025D01*
X74461823Y-53975688D01*
X74336804Y-53988001D01*
X74253196Y-53988001D01*
X74128177Y-53975688D01*
X73967758Y-53927025D01*
X73819924Y-53848006D01*
X73819922Y-53848005D01*
X73690341Y-53741660D01*
X73583996Y-53612079D01*
X73575886Y-53596907D01*
X73504976Y-53464243D01*
X73456313Y-53303824D01*
X73439883Y-53137001D01*
X73456313Y-52970178D01*
X73504976Y-52809759D01*
X73583995Y-52661925D01*
X73583996Y-52661923D01*
X73690341Y-52532342D01*
X73819922Y-52425997D01*
X73835094Y-52417887D01*
X73967758Y-52346977D01*
X74128177Y-52298314D01*
X74253196Y-52286001D01*
X74336804Y-52286001D01*
X74461823Y-52298314D01*
X74461823Y-52298314D01*
G37*
G36*
X59221823Y-52298314D02*
G01*
X59382242Y-52346977D01*
X59514906Y-52417887D01*
X59530078Y-52425997D01*
X59659659Y-52532342D01*
X59766004Y-52661923D01*
X59766005Y-52661925D01*
X59845024Y-52809759D01*
X59893687Y-52970178D01*
X59910117Y-53137001D01*
X59893687Y-53303824D01*
X59845024Y-53464243D01*
X59774114Y-53596907D01*
X59766004Y-53612079D01*
X59659659Y-53741660D01*
X59530078Y-53848005D01*
X59530076Y-53848006D01*
X59382242Y-53927025D01*
X59221823Y-53975688D01*
X59096804Y-53988001D01*
X59013196Y-53988001D01*
X58888177Y-53975688D01*
X58727758Y-53927025D01*
X58579924Y-53848006D01*
X58579922Y-53848005D01*
X58450341Y-53741660D01*
X58343996Y-53612079D01*
X58335886Y-53596907D01*
X58264976Y-53464243D01*
X58216313Y-53303824D01*
X58199883Y-53137001D01*
X58216313Y-52970178D01*
X58264976Y-52809759D01*
X58343995Y-52661925D01*
X58343996Y-52661923D01*
X58450341Y-52532342D01*
X58579922Y-52425997D01*
X58595094Y-52417887D01*
X58727758Y-52346977D01*
X58888177Y-52298314D01*
X59013196Y-52286001D01*
X59096804Y-52286001D01*
X59221823Y-52298314D01*
X59221823Y-52298314D01*
G37*
G36*
X54720442Y-49905518D02*
G01*
X54786627Y-49912037D01*
X54956466Y-49963557D01*
X55112991Y-50047222D01*
X55148729Y-50076552D01*
X55250186Y-50159814D01*
X55333448Y-50261271D01*
X55362778Y-50297009D01*
X55446443Y-50453534D01*
X55497963Y-50623373D01*
X55515359Y-50800000D01*
X55497963Y-50976627D01*
X55446443Y-51146466D01*
X55362778Y-51302991D01*
X55358663Y-51308005D01*
X55250186Y-51440186D01*
X55148729Y-51523448D01*
X55112991Y-51552778D01*
X54956466Y-51636443D01*
X54786627Y-51687963D01*
X54720442Y-51694482D01*
X54654260Y-51701000D01*
X54565740Y-51701000D01*
X54499558Y-51694482D01*
X54433373Y-51687963D01*
X54263534Y-51636443D01*
X54107009Y-51552778D01*
X54071271Y-51523448D01*
X53969814Y-51440186D01*
X53861337Y-51308005D01*
X53857222Y-51302991D01*
X53773557Y-51146466D01*
X53722037Y-50976627D01*
X53704641Y-50800000D01*
X53722037Y-50623373D01*
X53773557Y-50453534D01*
X53857222Y-50297009D01*
X53886552Y-50261271D01*
X53969814Y-50159814D01*
X54071271Y-50076552D01*
X54107009Y-50047222D01*
X54263534Y-49963557D01*
X54433373Y-49912037D01*
X54499557Y-49905519D01*
X54565740Y-49899000D01*
X54654260Y-49899000D01*
X54720442Y-49905518D01*
X54720442Y-49905518D01*
G37*
G36*
X74461823Y-49758314D02*
G01*
X74622242Y-49806977D01*
X74754906Y-49877887D01*
X74770078Y-49885997D01*
X74899659Y-49992342D01*
X75006004Y-50121923D01*
X75006005Y-50121925D01*
X75085024Y-50269759D01*
X75133687Y-50430178D01*
X75150117Y-50597001D01*
X75133687Y-50763824D01*
X75085024Y-50924243D01*
X75057025Y-50976625D01*
X75006004Y-51072079D01*
X74899659Y-51201660D01*
X74770078Y-51308005D01*
X74770076Y-51308006D01*
X74622242Y-51387025D01*
X74461823Y-51435688D01*
X74336804Y-51448001D01*
X74253196Y-51448001D01*
X74128177Y-51435688D01*
X73967758Y-51387025D01*
X73819924Y-51308006D01*
X73819922Y-51308005D01*
X73690341Y-51201660D01*
X73583996Y-51072079D01*
X73532975Y-50976625D01*
X73504976Y-50924243D01*
X73456313Y-50763824D01*
X73439883Y-50597001D01*
X73456313Y-50430178D01*
X73504976Y-50269759D01*
X73583995Y-50121925D01*
X73583996Y-50121923D01*
X73690341Y-49992342D01*
X73819922Y-49885997D01*
X73835094Y-49877887D01*
X73967758Y-49806977D01*
X74128177Y-49758314D01*
X74253196Y-49746001D01*
X74336804Y-49746001D01*
X74461823Y-49758314D01*
X74461823Y-49758314D01*
G37*
G36*
X59221823Y-49758314D02*
G01*
X59382242Y-49806977D01*
X59514906Y-49877887D01*
X59530078Y-49885997D01*
X59659659Y-49992342D01*
X59766004Y-50121923D01*
X59766005Y-50121925D01*
X59845024Y-50269759D01*
X59893687Y-50430178D01*
X59910117Y-50597001D01*
X59893687Y-50763824D01*
X59845024Y-50924243D01*
X59817025Y-50976625D01*
X59766004Y-51072079D01*
X59659659Y-51201660D01*
X59530078Y-51308005D01*
X59530076Y-51308006D01*
X59382242Y-51387025D01*
X59221823Y-51435688D01*
X59096804Y-51448001D01*
X59013196Y-51448001D01*
X58888177Y-51435688D01*
X58727758Y-51387025D01*
X58579924Y-51308006D01*
X58579922Y-51308005D01*
X58450341Y-51201660D01*
X58343996Y-51072079D01*
X58292975Y-50976625D01*
X58264976Y-50924243D01*
X58216313Y-50763824D01*
X58199883Y-50597001D01*
X58216313Y-50430178D01*
X58264976Y-50269759D01*
X58343995Y-50121925D01*
X58343996Y-50121923D01*
X58450341Y-49992342D01*
X58579922Y-49885997D01*
X58595094Y-49877887D01*
X58727758Y-49806977D01*
X58888177Y-49758314D01*
X59013196Y-49746001D01*
X59096804Y-49746001D01*
X59221823Y-49758314D01*
X59221823Y-49758314D01*
G37*
G36*
X77187824Y-49758314D02*
G01*
X77348243Y-49806977D01*
X77480907Y-49877887D01*
X77496079Y-49885997D01*
X77625660Y-49992342D01*
X77732005Y-50121923D01*
X77732006Y-50121925D01*
X77811025Y-50269759D01*
X77859688Y-50430178D01*
X77876118Y-50597001D01*
X77859688Y-50763824D01*
X77811025Y-50924243D01*
X77783026Y-50976625D01*
X77732005Y-51072079D01*
X77625660Y-51201660D01*
X77496079Y-51308005D01*
X77496077Y-51308006D01*
X77348243Y-51387025D01*
X77187824Y-51435688D01*
X77062805Y-51448001D01*
X76979197Y-51448001D01*
X76854178Y-51435688D01*
X76693759Y-51387025D01*
X76545925Y-51308006D01*
X76545923Y-51308005D01*
X76416342Y-51201660D01*
X76309997Y-51072079D01*
X76258976Y-50976625D01*
X76230977Y-50924243D01*
X76182314Y-50763824D01*
X76165884Y-50597001D01*
X76182314Y-50430178D01*
X76230977Y-50269759D01*
X76309996Y-50121925D01*
X76309997Y-50121923D01*
X76416342Y-49992342D01*
X76545923Y-49885997D01*
X76561095Y-49877887D01*
X76693759Y-49806977D01*
X76854178Y-49758314D01*
X76979197Y-49746001D01*
X77062805Y-49746001D01*
X77187824Y-49758314D01*
X77187824Y-49758314D01*
G37*
G36*
X61947824Y-49758314D02*
G01*
X62108243Y-49806977D01*
X62240907Y-49877887D01*
X62256079Y-49885997D01*
X62385660Y-49992342D01*
X62492005Y-50121923D01*
X62492006Y-50121925D01*
X62571025Y-50269759D01*
X62619688Y-50430178D01*
X62636118Y-50597001D01*
X62619688Y-50763824D01*
X62571025Y-50924243D01*
X62543026Y-50976625D01*
X62492005Y-51072079D01*
X62385660Y-51201660D01*
X62256079Y-51308005D01*
X62256077Y-51308006D01*
X62108243Y-51387025D01*
X61947824Y-51435688D01*
X61822805Y-51448001D01*
X61739197Y-51448001D01*
X61614178Y-51435688D01*
X61453759Y-51387025D01*
X61305925Y-51308006D01*
X61305923Y-51308005D01*
X61176342Y-51201660D01*
X61069997Y-51072079D01*
X61018976Y-50976625D01*
X60990977Y-50924243D01*
X60942314Y-50763824D01*
X60925884Y-50597001D01*
X60942314Y-50430178D01*
X60990977Y-50269759D01*
X61069996Y-50121925D01*
X61069997Y-50121923D01*
X61176342Y-49992342D01*
X61305923Y-49885997D01*
X61321095Y-49877887D01*
X61453759Y-49806977D01*
X61614178Y-49758314D01*
X61739197Y-49746001D01*
X61822805Y-49746001D01*
X61947824Y-49758314D01*
X61947824Y-49758314D01*
G37*
G36*
X66206822Y-47221313D02*
G01*
X66337379Y-47260917D01*
X66357352Y-47266976D01*
X66367241Y-47269976D01*
X66515077Y-47348995D01*
X66641005Y-47452342D01*
X66644659Y-47455341D01*
X66751004Y-47584922D01*
X66751005Y-47584924D01*
X66830024Y-47732758D01*
X66878687Y-47893177D01*
X66891000Y-48018196D01*
X66891000Y-48501803D01*
X66878687Y-48626822D01*
X66878686Y-48626825D01*
X66835860Y-48768005D01*
X66830024Y-48787242D01*
X66772059Y-48895687D01*
X66751004Y-48935078D01*
X66644659Y-49064659D01*
X66515078Y-49171004D01*
X66515076Y-49171005D01*
X66367242Y-49250024D01*
X66206823Y-49298687D01*
X66040000Y-49315117D01*
X65873178Y-49298687D01*
X65712759Y-49250024D01*
X65564925Y-49171005D01*
X65564923Y-49171004D01*
X65435342Y-49064659D01*
X65328996Y-48935078D01*
X65307941Y-48895687D01*
X65249976Y-48787242D01*
X65201313Y-48626823D01*
X65189000Y-48501804D01*
X65189000Y-48018197D01*
X65201313Y-47893178D01*
X65249976Y-47732759D01*
X65328995Y-47584923D01*
X65435341Y-47455341D01*
X65438995Y-47452342D01*
X65564922Y-47348996D01*
X65580094Y-47340886D01*
X65712758Y-47269976D01*
X65722648Y-47266976D01*
X65742620Y-47260917D01*
X65873177Y-47221313D01*
X66040000Y-47204883D01*
X66206822Y-47221313D01*
X66206822Y-47221313D01*
G37*
G36*
X70016822Y-47221313D02*
G01*
X70147379Y-47260917D01*
X70167352Y-47266976D01*
X70177241Y-47269976D01*
X70325077Y-47348995D01*
X70451005Y-47452342D01*
X70454659Y-47455341D01*
X70561004Y-47584922D01*
X70561005Y-47584924D01*
X70640024Y-47732758D01*
X70688687Y-47893177D01*
X70701000Y-48018196D01*
X70701000Y-48501803D01*
X70688687Y-48626822D01*
X70688686Y-48626825D01*
X70645860Y-48768005D01*
X70640024Y-48787242D01*
X70582059Y-48895687D01*
X70561004Y-48935078D01*
X70454659Y-49064659D01*
X70325078Y-49171004D01*
X70325076Y-49171005D01*
X70177242Y-49250024D01*
X70016823Y-49298687D01*
X69850000Y-49315117D01*
X69683178Y-49298687D01*
X69522759Y-49250024D01*
X69374925Y-49171005D01*
X69374923Y-49171004D01*
X69245342Y-49064659D01*
X69138996Y-48935078D01*
X69117941Y-48895687D01*
X69059976Y-48787242D01*
X69011313Y-48626823D01*
X68999000Y-48501804D01*
X68999000Y-48018197D01*
X69011313Y-47893178D01*
X69059976Y-47732759D01*
X69138995Y-47584923D01*
X69245341Y-47455341D01*
X69248995Y-47452342D01*
X69374922Y-47348996D01*
X69390094Y-47340886D01*
X69522758Y-47269976D01*
X69532648Y-47266976D01*
X69552620Y-47260917D01*
X69683177Y-47221313D01*
X69850000Y-47204883D01*
X70016822Y-47221313D01*
X70016822Y-47221313D01*
G37*
G36*
X77187824Y-47218314D02*
G01*
X77348243Y-47266977D01*
X77480907Y-47337887D01*
X77496079Y-47345997D01*
X77625660Y-47452342D01*
X77732005Y-47581923D01*
X77733609Y-47584924D01*
X77811025Y-47729759D01*
X77859688Y-47890178D01*
X77876118Y-48057001D01*
X77859688Y-48223824D01*
X77811025Y-48384243D01*
X77748190Y-48501799D01*
X77732005Y-48532079D01*
X77625660Y-48661660D01*
X77496079Y-48768005D01*
X77496077Y-48768006D01*
X77348243Y-48847025D01*
X77187824Y-48895688D01*
X77062805Y-48908001D01*
X76979197Y-48908001D01*
X76854178Y-48895688D01*
X76693759Y-48847025D01*
X76545925Y-48768006D01*
X76545923Y-48768005D01*
X76416342Y-48661660D01*
X76309997Y-48532079D01*
X76293812Y-48501799D01*
X76230977Y-48384243D01*
X76182314Y-48223824D01*
X76165884Y-48057001D01*
X76182314Y-47890178D01*
X76230977Y-47729759D01*
X76308393Y-47584924D01*
X76309997Y-47581923D01*
X76416342Y-47452342D01*
X76545923Y-47345997D01*
X76561095Y-47337887D01*
X76693759Y-47266977D01*
X76854178Y-47218314D01*
X76979197Y-47206001D01*
X77062805Y-47206001D01*
X77187824Y-47218314D01*
X77187824Y-47218314D01*
G37*
G36*
X59221823Y-47218314D02*
G01*
X59382242Y-47266977D01*
X59514906Y-47337887D01*
X59530078Y-47345997D01*
X59659659Y-47452342D01*
X59766004Y-47581923D01*
X59767608Y-47584924D01*
X59845024Y-47729759D01*
X59893687Y-47890178D01*
X59910117Y-48057001D01*
X59893687Y-48223824D01*
X59845024Y-48384243D01*
X59782189Y-48501799D01*
X59766004Y-48532079D01*
X59659659Y-48661660D01*
X59530078Y-48768005D01*
X59530076Y-48768006D01*
X59382242Y-48847025D01*
X59221823Y-48895688D01*
X59096804Y-48908001D01*
X59013196Y-48908001D01*
X58888177Y-48895688D01*
X58727758Y-48847025D01*
X58579924Y-48768006D01*
X58579922Y-48768005D01*
X58450341Y-48661660D01*
X58343996Y-48532079D01*
X58327811Y-48501799D01*
X58264976Y-48384243D01*
X58216313Y-48223824D01*
X58199883Y-48057001D01*
X58216313Y-47890178D01*
X58264976Y-47729759D01*
X58342392Y-47584924D01*
X58343996Y-47581923D01*
X58450341Y-47452342D01*
X58579922Y-47345997D01*
X58595094Y-47337887D01*
X58727758Y-47266977D01*
X58888177Y-47218314D01*
X59013196Y-47206001D01*
X59096804Y-47206001D01*
X59221823Y-47218314D01*
X59221823Y-47218314D01*
G37*
G36*
X61947824Y-47218314D02*
G01*
X62108243Y-47266977D01*
X62240907Y-47337887D01*
X62256079Y-47345997D01*
X62385660Y-47452342D01*
X62492005Y-47581923D01*
X62493609Y-47584924D01*
X62571025Y-47729759D01*
X62619688Y-47890178D01*
X62636118Y-48057001D01*
X62619688Y-48223824D01*
X62571025Y-48384243D01*
X62508190Y-48501799D01*
X62492005Y-48532079D01*
X62385660Y-48661660D01*
X62256079Y-48768005D01*
X62256077Y-48768006D01*
X62108243Y-48847025D01*
X61947824Y-48895688D01*
X61822805Y-48908001D01*
X61739197Y-48908001D01*
X61614178Y-48895688D01*
X61453759Y-48847025D01*
X61305925Y-48768006D01*
X61305923Y-48768005D01*
X61176342Y-48661660D01*
X61069997Y-48532079D01*
X61053812Y-48501799D01*
X60990977Y-48384243D01*
X60942314Y-48223824D01*
X60925884Y-48057001D01*
X60942314Y-47890178D01*
X60990977Y-47729759D01*
X61068393Y-47584924D01*
X61069997Y-47581923D01*
X61176342Y-47452342D01*
X61305923Y-47345997D01*
X61321095Y-47337887D01*
X61453759Y-47266977D01*
X61614178Y-47218314D01*
X61739197Y-47206001D01*
X61822805Y-47206001D01*
X61947824Y-47218314D01*
X61947824Y-47218314D01*
G37*
G36*
X74461823Y-47218314D02*
G01*
X74622242Y-47266977D01*
X74754906Y-47337887D01*
X74770078Y-47345997D01*
X74899659Y-47452342D01*
X75006004Y-47581923D01*
X75007608Y-47584924D01*
X75085024Y-47729759D01*
X75133687Y-47890178D01*
X75150117Y-48057001D01*
X75133687Y-48223824D01*
X75085024Y-48384243D01*
X75022189Y-48501799D01*
X75006004Y-48532079D01*
X74899659Y-48661660D01*
X74770078Y-48768005D01*
X74770076Y-48768006D01*
X74622242Y-48847025D01*
X74461823Y-48895688D01*
X74336804Y-48908001D01*
X74253196Y-48908001D01*
X74128177Y-48895688D01*
X73967758Y-48847025D01*
X73819924Y-48768006D01*
X73819922Y-48768005D01*
X73690341Y-48661660D01*
X73583996Y-48532079D01*
X73567811Y-48501799D01*
X73504976Y-48384243D01*
X73456313Y-48223824D01*
X73439883Y-48057001D01*
X73456313Y-47890178D01*
X73504976Y-47729759D01*
X73582392Y-47584924D01*
X73583996Y-47581923D01*
X73690341Y-47452342D01*
X73819922Y-47345997D01*
X73835094Y-47337887D01*
X73967758Y-47266977D01*
X74128177Y-47218314D01*
X74253196Y-47206001D01*
X74336804Y-47206001D01*
X74461823Y-47218314D01*
X74461823Y-47218314D01*
G37*
G36*
X59221823Y-44678314D02*
G01*
X59382242Y-44726977D01*
X59476275Y-44777239D01*
X59530078Y-44805997D01*
X59659659Y-44912342D01*
X59766004Y-45041923D01*
X59766005Y-45041925D01*
X59845024Y-45189759D01*
X59893687Y-45350178D01*
X59910117Y-45517001D01*
X59893687Y-45683824D01*
X59845024Y-45844243D01*
X59774114Y-45976907D01*
X59766004Y-45992079D01*
X59659659Y-46121660D01*
X59530078Y-46228005D01*
X59530076Y-46228006D01*
X59382242Y-46307025D01*
X59221823Y-46355688D01*
X59096804Y-46368001D01*
X59013196Y-46368001D01*
X58888177Y-46355688D01*
X58727758Y-46307025D01*
X58579924Y-46228006D01*
X58579922Y-46228005D01*
X58450341Y-46121660D01*
X58343996Y-45992079D01*
X58335886Y-45976907D01*
X58264976Y-45844243D01*
X58216313Y-45683824D01*
X58199883Y-45517001D01*
X58216313Y-45350178D01*
X58264976Y-45189759D01*
X58343995Y-45041925D01*
X58343996Y-45041923D01*
X58450341Y-44912342D01*
X58579922Y-44805997D01*
X58633725Y-44777239D01*
X58727758Y-44726977D01*
X58888177Y-44678314D01*
X59013196Y-44666001D01*
X59096804Y-44666001D01*
X59221823Y-44678314D01*
X59221823Y-44678314D01*
G37*
G36*
X61947824Y-44678314D02*
G01*
X62108243Y-44726977D01*
X62202276Y-44777239D01*
X62256079Y-44805997D01*
X62385660Y-44912342D01*
X62492005Y-45041923D01*
X62492006Y-45041925D01*
X62571025Y-45189759D01*
X62619688Y-45350178D01*
X62636118Y-45517001D01*
X62619688Y-45683824D01*
X62571025Y-45844243D01*
X62500115Y-45976907D01*
X62492005Y-45992079D01*
X62385660Y-46121660D01*
X62256079Y-46228005D01*
X62256077Y-46228006D01*
X62108243Y-46307025D01*
X61947824Y-46355688D01*
X61822805Y-46368001D01*
X61739197Y-46368001D01*
X61614178Y-46355688D01*
X61453759Y-46307025D01*
X61305925Y-46228006D01*
X61305923Y-46228005D01*
X61176342Y-46121660D01*
X61069997Y-45992079D01*
X61061887Y-45976907D01*
X60990977Y-45844243D01*
X60942314Y-45683824D01*
X60925884Y-45517001D01*
X60942314Y-45350178D01*
X60990977Y-45189759D01*
X61069996Y-45041925D01*
X61069997Y-45041923D01*
X61176342Y-44912342D01*
X61305923Y-44805997D01*
X61359726Y-44777239D01*
X61453759Y-44726977D01*
X61614178Y-44678314D01*
X61739197Y-44666001D01*
X61822805Y-44666001D01*
X61947824Y-44678314D01*
X61947824Y-44678314D01*
G37*
G36*
X77187824Y-44678314D02*
G01*
X77348243Y-44726977D01*
X77442276Y-44777239D01*
X77496079Y-44805997D01*
X77625660Y-44912342D01*
X77732005Y-45041923D01*
X77732006Y-45041925D01*
X77811025Y-45189759D01*
X77859688Y-45350178D01*
X77876118Y-45517001D01*
X77859688Y-45683824D01*
X77811025Y-45844243D01*
X77740115Y-45976907D01*
X77732005Y-45992079D01*
X77625660Y-46121660D01*
X77496079Y-46228005D01*
X77496077Y-46228006D01*
X77348243Y-46307025D01*
X77187824Y-46355688D01*
X77062805Y-46368001D01*
X76979197Y-46368001D01*
X76854178Y-46355688D01*
X76693759Y-46307025D01*
X76545925Y-46228006D01*
X76545923Y-46228005D01*
X76416342Y-46121660D01*
X76309997Y-45992079D01*
X76301887Y-45976907D01*
X76230977Y-45844243D01*
X76182314Y-45683824D01*
X76165884Y-45517001D01*
X76182314Y-45350178D01*
X76230977Y-45189759D01*
X76309996Y-45041925D01*
X76309997Y-45041923D01*
X76416342Y-44912342D01*
X76545923Y-44805997D01*
X76599726Y-44777239D01*
X76693759Y-44726977D01*
X76854178Y-44678314D01*
X76979197Y-44666001D01*
X77062805Y-44666001D01*
X77187824Y-44678314D01*
X77187824Y-44678314D01*
G37*
G36*
X74461823Y-44678314D02*
G01*
X74622242Y-44726977D01*
X74716275Y-44777239D01*
X74770078Y-44805997D01*
X74899659Y-44912342D01*
X75006004Y-45041923D01*
X75006005Y-45041925D01*
X75085024Y-45189759D01*
X75133687Y-45350178D01*
X75150117Y-45517001D01*
X75133687Y-45683824D01*
X75085024Y-45844243D01*
X75014114Y-45976907D01*
X75006004Y-45992079D01*
X74899659Y-46121660D01*
X74770078Y-46228005D01*
X74770076Y-46228006D01*
X74622242Y-46307025D01*
X74461823Y-46355688D01*
X74336804Y-46368001D01*
X74253196Y-46368001D01*
X74128177Y-46355688D01*
X73967758Y-46307025D01*
X73819924Y-46228006D01*
X73819922Y-46228005D01*
X73690341Y-46121660D01*
X73583996Y-45992079D01*
X73575886Y-45976907D01*
X73504976Y-45844243D01*
X73456313Y-45683824D01*
X73439883Y-45517001D01*
X73456313Y-45350178D01*
X73504976Y-45189759D01*
X73583995Y-45041925D01*
X73583996Y-45041923D01*
X73690341Y-44912342D01*
X73819922Y-44805997D01*
X73873725Y-44777239D01*
X73967758Y-44726977D01*
X74128177Y-44678314D01*
X74253196Y-44666001D01*
X74336804Y-44666001D01*
X74461823Y-44678314D01*
X74461823Y-44678314D01*
G37*
G36*
X56046823Y-43611313D02*
G01*
X56106648Y-43629461D01*
X56189049Y-43654457D01*
X56207242Y-43659976D01*
X56259682Y-43688006D01*
X56355078Y-43738996D01*
X56484659Y-43845341D01*
X56591004Y-43974922D01*
X56591005Y-43974924D01*
X56670024Y-44122758D01*
X56718687Y-44283177D01*
X56735117Y-44450000D01*
X56718687Y-44616823D01*
X56670024Y-44777242D01*
X56654654Y-44805997D01*
X56591004Y-44925078D01*
X56484659Y-45054659D01*
X56355078Y-45161004D01*
X56355076Y-45161005D01*
X56207242Y-45240024D01*
X56046823Y-45288687D01*
X55921804Y-45301000D01*
X55838196Y-45301000D01*
X55713177Y-45288687D01*
X55552758Y-45240024D01*
X55404924Y-45161005D01*
X55404922Y-45161004D01*
X55275341Y-45054659D01*
X55168996Y-44925078D01*
X55105346Y-44805997D01*
X55089976Y-44777242D01*
X55041313Y-44616823D01*
X55024883Y-44450000D01*
X55041313Y-44283177D01*
X55089976Y-44122758D01*
X55168995Y-43974924D01*
X55168996Y-43974922D01*
X55275341Y-43845341D01*
X55404922Y-43738996D01*
X55500318Y-43688006D01*
X55552758Y-43659976D01*
X55570952Y-43654457D01*
X55653352Y-43629461D01*
X55713177Y-43611313D01*
X55838196Y-43599000D01*
X55921804Y-43599000D01*
X56046823Y-43611313D01*
X56046823Y-43611313D01*
G37*
G36*
X74461823Y-42138314D02*
G01*
X74622242Y-42186977D01*
X74754906Y-42257887D01*
X74770078Y-42265997D01*
X74899659Y-42372342D01*
X75006004Y-42501923D01*
X75006005Y-42501925D01*
X75085024Y-42649759D01*
X75133687Y-42810178D01*
X75150117Y-42977001D01*
X75133687Y-43143824D01*
X75085024Y-43304243D01*
X75014114Y-43436907D01*
X75006004Y-43452079D01*
X74899659Y-43581660D01*
X74770078Y-43688005D01*
X74770076Y-43688006D01*
X74622242Y-43767025D01*
X74461823Y-43815688D01*
X74336804Y-43828001D01*
X74253196Y-43828001D01*
X74128177Y-43815688D01*
X73967758Y-43767025D01*
X73819924Y-43688006D01*
X73819922Y-43688005D01*
X73690341Y-43581660D01*
X73583996Y-43452079D01*
X73575886Y-43436907D01*
X73504976Y-43304243D01*
X73456313Y-43143824D01*
X73439883Y-42977001D01*
X73456313Y-42810178D01*
X73504976Y-42649759D01*
X73583995Y-42501925D01*
X73583996Y-42501923D01*
X73690341Y-42372342D01*
X73819922Y-42265997D01*
X73835094Y-42257887D01*
X73967758Y-42186977D01*
X74128177Y-42138314D01*
X74253196Y-42126001D01*
X74336804Y-42126001D01*
X74461823Y-42138314D01*
X74461823Y-42138314D01*
G37*
G36*
X77187824Y-42138314D02*
G01*
X77348243Y-42186977D01*
X77480907Y-42257887D01*
X77496079Y-42265997D01*
X77625660Y-42372342D01*
X77732005Y-42501923D01*
X77732006Y-42501925D01*
X77811025Y-42649759D01*
X77859688Y-42810178D01*
X77876118Y-42977001D01*
X77859688Y-43143824D01*
X77811025Y-43304243D01*
X77740115Y-43436907D01*
X77732005Y-43452079D01*
X77625660Y-43581660D01*
X77496079Y-43688005D01*
X77496077Y-43688006D01*
X77348243Y-43767025D01*
X77187824Y-43815688D01*
X77062805Y-43828001D01*
X76979197Y-43828001D01*
X76854178Y-43815688D01*
X76693759Y-43767025D01*
X76545925Y-43688006D01*
X76545923Y-43688005D01*
X76416342Y-43581660D01*
X76309997Y-43452079D01*
X76301887Y-43436907D01*
X76230977Y-43304243D01*
X76182314Y-43143824D01*
X76165884Y-42977001D01*
X76182314Y-42810178D01*
X76230977Y-42649759D01*
X76309996Y-42501925D01*
X76309997Y-42501923D01*
X76416342Y-42372342D01*
X76545923Y-42265997D01*
X76561095Y-42257887D01*
X76693759Y-42186977D01*
X76854178Y-42138314D01*
X76979197Y-42126001D01*
X77062805Y-42126001D01*
X77187824Y-42138314D01*
X77187824Y-42138314D01*
G37*
G36*
X59221823Y-42138314D02*
G01*
X59382242Y-42186977D01*
X59514906Y-42257887D01*
X59530078Y-42265997D01*
X59659659Y-42372342D01*
X59766004Y-42501923D01*
X59766005Y-42501925D01*
X59845024Y-42649759D01*
X59893687Y-42810178D01*
X59910117Y-42977001D01*
X59893687Y-43143824D01*
X59845024Y-43304243D01*
X59774114Y-43436907D01*
X59766004Y-43452079D01*
X59659659Y-43581660D01*
X59530078Y-43688005D01*
X59530076Y-43688006D01*
X59382242Y-43767025D01*
X59221823Y-43815688D01*
X59096804Y-43828001D01*
X59013196Y-43828001D01*
X58888177Y-43815688D01*
X58727758Y-43767025D01*
X58579924Y-43688006D01*
X58579922Y-43688005D01*
X58450341Y-43581660D01*
X58343996Y-43452079D01*
X58335886Y-43436907D01*
X58264976Y-43304243D01*
X58216313Y-43143824D01*
X58199883Y-42977001D01*
X58216313Y-42810178D01*
X58264976Y-42649759D01*
X58343995Y-42501925D01*
X58343996Y-42501923D01*
X58450341Y-42372342D01*
X58579922Y-42265997D01*
X58595094Y-42257887D01*
X58727758Y-42186977D01*
X58888177Y-42138314D01*
X59013196Y-42126001D01*
X59096804Y-42126001D01*
X59221823Y-42138314D01*
X59221823Y-42138314D01*
G37*
G36*
X61947824Y-42138314D02*
G01*
X62108243Y-42186977D01*
X62240907Y-42257887D01*
X62256079Y-42265997D01*
X62385660Y-42372342D01*
X62492005Y-42501923D01*
X62492006Y-42501925D01*
X62571025Y-42649759D01*
X62619688Y-42810178D01*
X62636118Y-42977001D01*
X62619688Y-43143824D01*
X62571025Y-43304243D01*
X62500115Y-43436907D01*
X62492005Y-43452079D01*
X62385660Y-43581660D01*
X62256079Y-43688005D01*
X62256077Y-43688006D01*
X62108243Y-43767025D01*
X61947824Y-43815688D01*
X61822805Y-43828001D01*
X61739197Y-43828001D01*
X61614178Y-43815688D01*
X61453759Y-43767025D01*
X61305925Y-43688006D01*
X61305923Y-43688005D01*
X61176342Y-43581660D01*
X61069997Y-43452079D01*
X61061887Y-43436907D01*
X60990977Y-43304243D01*
X60942314Y-43143824D01*
X60925884Y-42977001D01*
X60942314Y-42810178D01*
X60990977Y-42649759D01*
X61069996Y-42501925D01*
X61069997Y-42501923D01*
X61176342Y-42372342D01*
X61305923Y-42265997D01*
X61321095Y-42257887D01*
X61453759Y-42186977D01*
X61614178Y-42138314D01*
X61739197Y-42126001D01*
X61822805Y-42126001D01*
X61947824Y-42138314D01*
X61947824Y-42138314D01*
G37*
G36*
X67768786Y-41382746D02*
G01*
X67799461Y-41392051D01*
X67827729Y-41407161D01*
X67852506Y-41427494D01*
X67872839Y-41452271D01*
X67887949Y-41480539D01*
X67897254Y-41511214D01*
X67901000Y-41549251D01*
X67901000Y-43560749D01*
X67897254Y-43598786D01*
X67887949Y-43629461D01*
X67872839Y-43657729D01*
X67852506Y-43682506D01*
X67827729Y-43702839D01*
X67799461Y-43717949D01*
X67768786Y-43727254D01*
X67730749Y-43731000D01*
X65619251Y-43731000D01*
X65581214Y-43727254D01*
X65550539Y-43717949D01*
X65522271Y-43702839D01*
X65497494Y-43682506D01*
X65477161Y-43657729D01*
X65462051Y-43629461D01*
X65452746Y-43598786D01*
X65449000Y-43560749D01*
X65449000Y-41549251D01*
X65452746Y-41511214D01*
X65462051Y-41480539D01*
X65477161Y-41452271D01*
X65497494Y-41427494D01*
X65522271Y-41407161D01*
X65550539Y-41392051D01*
X65581214Y-41382746D01*
X65619251Y-41379000D01*
X67730749Y-41379000D01*
X67768786Y-41382746D01*
X67768786Y-41382746D01*
G37*
G36*
X74461823Y-39598314D02*
G01*
X74622242Y-39646977D01*
X74754906Y-39717887D01*
X74770078Y-39725997D01*
X74899659Y-39832342D01*
X75006004Y-39961923D01*
X75006005Y-39961925D01*
X75085024Y-40109759D01*
X75133687Y-40270178D01*
X75150117Y-40437001D01*
X75133687Y-40603824D01*
X75085024Y-40764243D01*
X75014114Y-40896907D01*
X75006004Y-40912079D01*
X74899659Y-41041660D01*
X74770078Y-41148005D01*
X74770076Y-41148006D01*
X74622242Y-41227025D01*
X74461823Y-41275688D01*
X74336804Y-41288001D01*
X74253196Y-41288001D01*
X74128177Y-41275688D01*
X73967758Y-41227025D01*
X73819924Y-41148006D01*
X73819922Y-41148005D01*
X73690341Y-41041660D01*
X73583996Y-40912079D01*
X73575886Y-40896907D01*
X73504976Y-40764243D01*
X73456313Y-40603824D01*
X73439883Y-40437001D01*
X73456313Y-40270178D01*
X73504976Y-40109759D01*
X73583995Y-39961925D01*
X73583996Y-39961923D01*
X73690341Y-39832342D01*
X73819922Y-39725997D01*
X73835094Y-39717887D01*
X73967758Y-39646977D01*
X74128177Y-39598314D01*
X74253196Y-39586001D01*
X74336804Y-39586001D01*
X74461823Y-39598314D01*
X74461823Y-39598314D01*
G37*
G36*
X77187824Y-39598314D02*
G01*
X77348243Y-39646977D01*
X77480907Y-39717887D01*
X77496079Y-39725997D01*
X77625660Y-39832342D01*
X77732005Y-39961923D01*
X77732006Y-39961925D01*
X77811025Y-40109759D01*
X77859688Y-40270178D01*
X77876118Y-40437001D01*
X77859688Y-40603824D01*
X77811025Y-40764243D01*
X77740115Y-40896907D01*
X77732005Y-40912079D01*
X77625660Y-41041660D01*
X77496079Y-41148005D01*
X77496077Y-41148006D01*
X77348243Y-41227025D01*
X77187824Y-41275688D01*
X77062805Y-41288001D01*
X76979197Y-41288001D01*
X76854178Y-41275688D01*
X76693759Y-41227025D01*
X76545925Y-41148006D01*
X76545923Y-41148005D01*
X76416342Y-41041660D01*
X76309997Y-40912079D01*
X76301887Y-40896907D01*
X76230977Y-40764243D01*
X76182314Y-40603824D01*
X76165884Y-40437001D01*
X76182314Y-40270178D01*
X76230977Y-40109759D01*
X76309996Y-39961925D01*
X76309997Y-39961923D01*
X76416342Y-39832342D01*
X76545923Y-39725997D01*
X76561095Y-39717887D01*
X76693759Y-39646977D01*
X76854178Y-39598314D01*
X76979197Y-39586001D01*
X77062805Y-39586001D01*
X77187824Y-39598314D01*
X77187824Y-39598314D01*
G37*
G36*
X61947824Y-39598314D02*
G01*
X62108243Y-39646977D01*
X62240907Y-39717887D01*
X62256079Y-39725997D01*
X62385660Y-39832342D01*
X62492005Y-39961923D01*
X62492006Y-39961925D01*
X62571025Y-40109759D01*
X62619688Y-40270178D01*
X62636118Y-40437001D01*
X62619688Y-40603824D01*
X62571025Y-40764243D01*
X62500115Y-40896907D01*
X62492005Y-40912079D01*
X62385660Y-41041660D01*
X62256079Y-41148005D01*
X62256077Y-41148006D01*
X62108243Y-41227025D01*
X61947824Y-41275688D01*
X61822805Y-41288001D01*
X61739197Y-41288001D01*
X61614178Y-41275688D01*
X61453759Y-41227025D01*
X61305925Y-41148006D01*
X61305923Y-41148005D01*
X61176342Y-41041660D01*
X61069997Y-40912079D01*
X61061887Y-40896907D01*
X60990977Y-40764243D01*
X60942314Y-40603824D01*
X60925884Y-40437001D01*
X60942314Y-40270178D01*
X60990977Y-40109759D01*
X61069996Y-39961925D01*
X61069997Y-39961923D01*
X61176342Y-39832342D01*
X61305923Y-39725997D01*
X61321095Y-39717887D01*
X61453759Y-39646977D01*
X61614178Y-39598314D01*
X61739197Y-39586001D01*
X61822805Y-39586001D01*
X61947824Y-39598314D01*
X61947824Y-39598314D01*
G37*
G36*
X59221823Y-39598314D02*
G01*
X59382242Y-39646977D01*
X59514906Y-39717887D01*
X59530078Y-39725997D01*
X59659659Y-39832342D01*
X59766004Y-39961923D01*
X59766005Y-39961925D01*
X59845024Y-40109759D01*
X59893687Y-40270178D01*
X59910117Y-40437001D01*
X59893687Y-40603824D01*
X59845024Y-40764243D01*
X59774114Y-40896907D01*
X59766004Y-40912079D01*
X59659659Y-41041660D01*
X59530078Y-41148005D01*
X59530076Y-41148006D01*
X59382242Y-41227025D01*
X59221823Y-41275688D01*
X59096804Y-41288001D01*
X59013196Y-41288001D01*
X58888177Y-41275688D01*
X58727758Y-41227025D01*
X58579924Y-41148006D01*
X58579922Y-41148005D01*
X58450341Y-41041660D01*
X58343996Y-40912079D01*
X58335886Y-40896907D01*
X58264976Y-40764243D01*
X58216313Y-40603824D01*
X58199883Y-40437001D01*
X58216313Y-40270178D01*
X58264976Y-40109759D01*
X58343995Y-39961925D01*
X58343996Y-39961923D01*
X58450341Y-39832342D01*
X58579922Y-39725997D01*
X58595094Y-39717887D01*
X58727758Y-39646977D01*
X58888177Y-39598314D01*
X59013196Y-39586001D01*
X59096804Y-39586001D01*
X59221823Y-39598314D01*
X59221823Y-39598314D01*
G37*
G36*
X61947824Y-37058314D02*
G01*
X62108243Y-37106977D01*
X62240907Y-37177887D01*
X62256079Y-37185997D01*
X62385660Y-37292342D01*
X62492005Y-37421923D01*
X62492006Y-37421925D01*
X62571025Y-37569759D01*
X62619688Y-37730178D01*
X62636118Y-37897001D01*
X62619688Y-38063824D01*
X62571025Y-38224243D01*
X62500115Y-38356907D01*
X62492005Y-38372079D01*
X62385660Y-38501660D01*
X62256079Y-38608005D01*
X62240907Y-38616115D01*
X62108243Y-38687025D01*
X61947824Y-38735688D01*
X61822805Y-38748001D01*
X61739197Y-38748001D01*
X61614178Y-38735688D01*
X61453759Y-38687025D01*
X61321095Y-38616115D01*
X61305923Y-38608005D01*
X61176342Y-38501660D01*
X61069997Y-38372079D01*
X61061887Y-38356907D01*
X60990977Y-38224243D01*
X60942314Y-38063824D01*
X60925884Y-37897001D01*
X60942314Y-37730178D01*
X60990977Y-37569759D01*
X61069996Y-37421925D01*
X61069997Y-37421923D01*
X61176342Y-37292342D01*
X61305923Y-37185997D01*
X61321095Y-37177887D01*
X61453759Y-37106977D01*
X61614178Y-37058314D01*
X61739197Y-37046001D01*
X61822805Y-37046001D01*
X61947824Y-37058314D01*
X61947824Y-37058314D01*
G37*
G36*
X59221823Y-37058314D02*
G01*
X59382242Y-37106977D01*
X59514906Y-37177887D01*
X59530078Y-37185997D01*
X59659659Y-37292342D01*
X59766004Y-37421923D01*
X59766005Y-37421925D01*
X59845024Y-37569759D01*
X59893687Y-37730178D01*
X59910117Y-37897001D01*
X59893687Y-38063824D01*
X59845024Y-38224243D01*
X59774114Y-38356907D01*
X59766004Y-38372079D01*
X59659659Y-38501660D01*
X59530078Y-38608005D01*
X59514906Y-38616115D01*
X59382242Y-38687025D01*
X59221823Y-38735688D01*
X59096804Y-38748001D01*
X59013196Y-38748001D01*
X58888177Y-38735688D01*
X58727758Y-38687025D01*
X58595094Y-38616115D01*
X58579922Y-38608005D01*
X58450341Y-38501660D01*
X58343996Y-38372079D01*
X58335886Y-38356907D01*
X58264976Y-38224243D01*
X58216313Y-38063824D01*
X58199883Y-37897001D01*
X58216313Y-37730178D01*
X58264976Y-37569759D01*
X58343995Y-37421925D01*
X58343996Y-37421923D01*
X58450341Y-37292342D01*
X58579922Y-37185997D01*
X58595094Y-37177887D01*
X58727758Y-37106977D01*
X58888177Y-37058314D01*
X59013196Y-37046001D01*
X59096804Y-37046001D01*
X59221823Y-37058314D01*
X59221823Y-37058314D01*
G37*
G36*
X77187824Y-37058314D02*
G01*
X77348243Y-37106977D01*
X77480907Y-37177887D01*
X77496079Y-37185997D01*
X77625660Y-37292342D01*
X77732005Y-37421923D01*
X77732006Y-37421925D01*
X77811025Y-37569759D01*
X77859688Y-37730178D01*
X77876118Y-37897001D01*
X77859688Y-38063824D01*
X77811025Y-38224243D01*
X77740115Y-38356907D01*
X77732005Y-38372079D01*
X77625660Y-38501660D01*
X77496079Y-38608005D01*
X77480907Y-38616115D01*
X77348243Y-38687025D01*
X77187824Y-38735688D01*
X77062805Y-38748001D01*
X76979197Y-38748001D01*
X76854178Y-38735688D01*
X76693759Y-38687025D01*
X76561095Y-38616115D01*
X76545923Y-38608005D01*
X76416342Y-38501660D01*
X76309997Y-38372079D01*
X76301887Y-38356907D01*
X76230977Y-38224243D01*
X76182314Y-38063824D01*
X76165884Y-37897001D01*
X76182314Y-37730178D01*
X76230977Y-37569759D01*
X76309996Y-37421925D01*
X76309997Y-37421923D01*
X76416342Y-37292342D01*
X76545923Y-37185997D01*
X76561095Y-37177887D01*
X76693759Y-37106977D01*
X76854178Y-37058314D01*
X76979197Y-37046001D01*
X77062805Y-37046001D01*
X77187824Y-37058314D01*
X77187824Y-37058314D01*
G37*
G36*
X74461823Y-37058314D02*
G01*
X74622242Y-37106977D01*
X74754906Y-37177887D01*
X74770078Y-37185997D01*
X74899659Y-37292342D01*
X75006004Y-37421923D01*
X75006005Y-37421925D01*
X75085024Y-37569759D01*
X75133687Y-37730178D01*
X75150117Y-37897001D01*
X75133687Y-38063824D01*
X75085024Y-38224243D01*
X75014114Y-38356907D01*
X75006004Y-38372079D01*
X74899659Y-38501660D01*
X74770078Y-38608005D01*
X74754906Y-38616115D01*
X74622242Y-38687025D01*
X74461823Y-38735688D01*
X74336804Y-38748001D01*
X74253196Y-38748001D01*
X74128177Y-38735688D01*
X73967758Y-38687025D01*
X73835094Y-38616115D01*
X73819922Y-38608005D01*
X73690341Y-38501660D01*
X73583996Y-38372079D01*
X73575886Y-38356907D01*
X73504976Y-38224243D01*
X73456313Y-38063824D01*
X73439883Y-37897001D01*
X73456313Y-37730178D01*
X73504976Y-37569759D01*
X73583995Y-37421925D01*
X73583996Y-37421923D01*
X73690341Y-37292342D01*
X73819922Y-37185997D01*
X73835094Y-37177887D01*
X73967758Y-37106977D01*
X74128177Y-37058314D01*
X74253196Y-37046001D01*
X74336804Y-37046001D01*
X74461823Y-37058314D01*
X74461823Y-37058314D01*
G37*
G36*
X67768786Y-36282746D02*
G01*
X67799461Y-36292051D01*
X67827729Y-36307161D01*
X67852506Y-36327494D01*
X67872839Y-36352271D01*
X67887949Y-36380539D01*
X67897254Y-36411214D01*
X67901000Y-36449251D01*
X67901000Y-38460749D01*
X67897254Y-38498786D01*
X67887949Y-38529461D01*
X67872839Y-38557729D01*
X67852506Y-38582506D01*
X67827729Y-38602839D01*
X67799461Y-38617949D01*
X67768786Y-38627254D01*
X67730749Y-38631000D01*
X65619251Y-38631000D01*
X65581214Y-38627254D01*
X65550539Y-38617949D01*
X65522271Y-38602839D01*
X65497494Y-38582506D01*
X65477161Y-38557729D01*
X65462051Y-38529461D01*
X65452746Y-38498786D01*
X65449000Y-38460749D01*
X65449000Y-36449251D01*
X65452746Y-36411214D01*
X65462051Y-36380539D01*
X65477161Y-36352271D01*
X65497494Y-36327494D01*
X65522271Y-36307161D01*
X65550539Y-36292051D01*
X65581214Y-36282746D01*
X65619251Y-36279000D01*
X67730749Y-36279000D01*
X67768786Y-36282746D01*
X67768786Y-36282746D01*
G37*
G36*
X56128228Y-36011703D02*
G01*
X56283100Y-36075853D01*
X56422481Y-36168985D01*
X56541015Y-36287519D01*
X56634147Y-36426900D01*
X56698297Y-36581772D01*
X56731000Y-36746184D01*
X56731000Y-36913816D01*
X56698297Y-37078228D01*
X56634147Y-37233100D01*
X56541015Y-37372481D01*
X56422481Y-37491015D01*
X56283100Y-37584147D01*
X56128228Y-37648297D01*
X55963816Y-37681000D01*
X55796184Y-37681000D01*
X55631772Y-37648297D01*
X55476900Y-37584147D01*
X55337519Y-37491015D01*
X55218985Y-37372481D01*
X55125853Y-37233100D01*
X55061703Y-37078228D01*
X55029000Y-36913816D01*
X55029000Y-36746184D01*
X55061703Y-36581772D01*
X55125853Y-36426900D01*
X55218985Y-36287519D01*
X55337519Y-36168985D01*
X55476900Y-36075853D01*
X55631772Y-36011703D01*
X55796184Y-35979000D01*
X55963816Y-35979000D01*
X56128228Y-36011703D01*
X56128228Y-36011703D01*
G37*
G36*
X77187824Y-34518314D02*
G01*
X77348243Y-34566977D01*
X77393714Y-34591282D01*
X77496079Y-34645997D01*
X77625660Y-34752342D01*
X77732005Y-34881923D01*
X77732006Y-34881925D01*
X77811025Y-35029759D01*
X77859688Y-35190178D01*
X77876118Y-35357001D01*
X77859688Y-35523824D01*
X77811025Y-35684243D01*
X77740115Y-35816907D01*
X77732005Y-35832079D01*
X77625660Y-35961660D01*
X77496079Y-36068005D01*
X77496077Y-36068006D01*
X77348243Y-36147025D01*
X77187824Y-36195688D01*
X77062805Y-36208001D01*
X76979197Y-36208001D01*
X76854178Y-36195688D01*
X76693759Y-36147025D01*
X76545925Y-36068006D01*
X76545923Y-36068005D01*
X76416342Y-35961660D01*
X76309997Y-35832079D01*
X76301887Y-35816907D01*
X76230977Y-35684243D01*
X76182314Y-35523824D01*
X76165884Y-35357001D01*
X76182314Y-35190178D01*
X76230977Y-35029759D01*
X76309996Y-34881925D01*
X76309997Y-34881923D01*
X76416342Y-34752342D01*
X76545923Y-34645997D01*
X76648288Y-34591282D01*
X76693759Y-34566977D01*
X76854178Y-34518314D01*
X76979197Y-34506001D01*
X77062805Y-34506001D01*
X77187824Y-34518314D01*
X77187824Y-34518314D01*
G37*
G36*
X74461823Y-34518314D02*
G01*
X74622242Y-34566977D01*
X74667713Y-34591282D01*
X74770078Y-34645997D01*
X74899659Y-34752342D01*
X75006004Y-34881923D01*
X75006005Y-34881925D01*
X75085024Y-35029759D01*
X75133687Y-35190178D01*
X75150117Y-35357001D01*
X75133687Y-35523824D01*
X75085024Y-35684243D01*
X75014114Y-35816907D01*
X75006004Y-35832079D01*
X74899659Y-35961660D01*
X74770078Y-36068005D01*
X74770076Y-36068006D01*
X74622242Y-36147025D01*
X74461823Y-36195688D01*
X74336804Y-36208001D01*
X74253196Y-36208001D01*
X74128177Y-36195688D01*
X73967758Y-36147025D01*
X73819924Y-36068006D01*
X73819922Y-36068005D01*
X73690341Y-35961660D01*
X73583996Y-35832079D01*
X73575886Y-35816907D01*
X73504976Y-35684243D01*
X73456313Y-35523824D01*
X73439883Y-35357001D01*
X73456313Y-35190178D01*
X73504976Y-35029759D01*
X73583995Y-34881925D01*
X73583996Y-34881923D01*
X73690341Y-34752342D01*
X73819922Y-34645997D01*
X73922287Y-34591282D01*
X73967758Y-34566977D01*
X74128177Y-34518314D01*
X74253196Y-34506001D01*
X74336804Y-34506001D01*
X74461823Y-34518314D01*
X74461823Y-34518314D01*
G37*
G36*
X59221823Y-34518314D02*
G01*
X59382242Y-34566977D01*
X59427713Y-34591282D01*
X59530078Y-34645997D01*
X59659659Y-34752342D01*
X59766004Y-34881923D01*
X59766005Y-34881925D01*
X59845024Y-35029759D01*
X59893687Y-35190178D01*
X59910117Y-35357001D01*
X59893687Y-35523824D01*
X59845024Y-35684243D01*
X59774114Y-35816907D01*
X59766004Y-35832079D01*
X59659659Y-35961660D01*
X59530078Y-36068005D01*
X59530076Y-36068006D01*
X59382242Y-36147025D01*
X59221823Y-36195688D01*
X59096804Y-36208001D01*
X59013196Y-36208001D01*
X58888177Y-36195688D01*
X58727758Y-36147025D01*
X58579924Y-36068006D01*
X58579922Y-36068005D01*
X58450341Y-35961660D01*
X58343996Y-35832079D01*
X58335886Y-35816907D01*
X58264976Y-35684243D01*
X58216313Y-35523824D01*
X58199883Y-35357001D01*
X58216313Y-35190178D01*
X58264976Y-35029759D01*
X58343995Y-34881925D01*
X58343996Y-34881923D01*
X58450341Y-34752342D01*
X58579922Y-34645997D01*
X58682287Y-34591282D01*
X58727758Y-34566977D01*
X58888177Y-34518314D01*
X59013196Y-34506001D01*
X59096804Y-34506001D01*
X59221823Y-34518314D01*
X59221823Y-34518314D01*
G37*
G36*
X61947824Y-34518314D02*
G01*
X62108243Y-34566977D01*
X62153714Y-34591282D01*
X62256079Y-34645997D01*
X62385660Y-34752342D01*
X62492005Y-34881923D01*
X62492006Y-34881925D01*
X62571025Y-35029759D01*
X62619688Y-35190178D01*
X62636118Y-35357001D01*
X62619688Y-35523824D01*
X62571025Y-35684243D01*
X62500115Y-35816907D01*
X62492005Y-35832079D01*
X62385660Y-35961660D01*
X62256079Y-36068005D01*
X62256077Y-36068006D01*
X62108243Y-36147025D01*
X61947824Y-36195688D01*
X61822805Y-36208001D01*
X61739197Y-36208001D01*
X61614178Y-36195688D01*
X61453759Y-36147025D01*
X61305925Y-36068006D01*
X61305923Y-36068005D01*
X61176342Y-35961660D01*
X61069997Y-35832079D01*
X61061887Y-35816907D01*
X60990977Y-35684243D01*
X60942314Y-35523824D01*
X60925884Y-35357001D01*
X60942314Y-35190178D01*
X60990977Y-35029759D01*
X61069996Y-34881925D01*
X61069997Y-34881923D01*
X61176342Y-34752342D01*
X61305923Y-34645997D01*
X61408288Y-34591282D01*
X61453759Y-34566977D01*
X61614178Y-34518314D01*
X61739197Y-34506001D01*
X61822805Y-34506001D01*
X61947824Y-34518314D01*
X61947824Y-34518314D01*
G37*
G36*
X65993674Y-33423465D02*
G01*
X66031367Y-33434899D01*
X66066103Y-33453466D01*
X66096548Y-33478452D01*
X66121534Y-33508897D01*
X66140101Y-33543633D01*
X66151535Y-33581326D01*
X66156000Y-33626661D01*
X66156000Y-34463339D01*
X66151535Y-34508674D01*
X66140101Y-34546367D01*
X66121534Y-34581103D01*
X66096548Y-34611548D01*
X66066103Y-34636534D01*
X66031367Y-34655101D01*
X65993674Y-34666535D01*
X65948339Y-34671000D01*
X64861661Y-34671000D01*
X64816326Y-34666535D01*
X64778633Y-34655101D01*
X64743897Y-34636534D01*
X64713452Y-34611548D01*
X64688466Y-34581103D01*
X64669899Y-34546367D01*
X64658465Y-34508674D01*
X64654000Y-34463339D01*
X64654000Y-33626661D01*
X64658465Y-33581326D01*
X64669899Y-33543633D01*
X64688466Y-33508897D01*
X64713452Y-33478452D01*
X64743897Y-33453466D01*
X64778633Y-33434899D01*
X64816326Y-33423465D01*
X64861661Y-33419000D01*
X65948339Y-33419000D01*
X65993674Y-33423465D01*
X65993674Y-33423465D01*
G37*
G36*
X70438674Y-33423465D02*
G01*
X70476367Y-33434899D01*
X70511103Y-33453466D01*
X70541548Y-33478452D01*
X70566534Y-33508897D01*
X70585101Y-33543633D01*
X70596535Y-33581326D01*
X70601000Y-33626661D01*
X70601000Y-34463339D01*
X70596535Y-34508674D01*
X70585101Y-34546367D01*
X70566534Y-34581103D01*
X70541548Y-34611548D01*
X70511103Y-34636534D01*
X70476367Y-34655101D01*
X70438674Y-34666535D01*
X70393339Y-34671000D01*
X69306661Y-34671000D01*
X69261326Y-34666535D01*
X69223633Y-34655101D01*
X69188897Y-34636534D01*
X69158452Y-34611548D01*
X69133466Y-34581103D01*
X69114899Y-34546367D01*
X69103465Y-34508674D01*
X69099000Y-34463339D01*
X69099000Y-33626661D01*
X69103465Y-33581326D01*
X69114899Y-33543633D01*
X69133466Y-33508897D01*
X69158452Y-33478452D01*
X69188897Y-33453466D01*
X69223633Y-33434899D01*
X69261326Y-33423465D01*
X69306661Y-33419000D01*
X70393339Y-33419000D01*
X70438674Y-33423465D01*
X70438674Y-33423465D01*
G37*
G36*
X59221823Y-31978314D02*
G01*
X59382242Y-32026977D01*
X59514906Y-32097887D01*
X59530078Y-32105997D01*
X59659659Y-32212342D01*
X59766004Y-32341923D01*
X59766005Y-32341925D01*
X59845024Y-32489759D01*
X59893687Y-32650178D01*
X59910117Y-32817001D01*
X59893687Y-32983824D01*
X59845024Y-33144243D01*
X59774114Y-33276907D01*
X59766004Y-33292079D01*
X59659659Y-33421660D01*
X59530078Y-33528005D01*
X59530076Y-33528006D01*
X59382242Y-33607025D01*
X59221823Y-33655688D01*
X59096804Y-33668001D01*
X59013196Y-33668001D01*
X58888177Y-33655688D01*
X58727758Y-33607025D01*
X58579924Y-33528006D01*
X58579922Y-33528005D01*
X58450341Y-33421660D01*
X58343996Y-33292079D01*
X58335886Y-33276907D01*
X58264976Y-33144243D01*
X58216313Y-32983824D01*
X58199883Y-32817001D01*
X58216313Y-32650178D01*
X58264976Y-32489759D01*
X58343995Y-32341925D01*
X58343996Y-32341923D01*
X58450341Y-32212342D01*
X58579922Y-32105997D01*
X58595094Y-32097887D01*
X58727758Y-32026977D01*
X58888177Y-31978314D01*
X59013196Y-31966001D01*
X59096804Y-31966001D01*
X59221823Y-31978314D01*
X59221823Y-31978314D01*
G37*
G36*
X77187824Y-31978314D02*
G01*
X77348243Y-32026977D01*
X77480907Y-32097887D01*
X77496079Y-32105997D01*
X77625660Y-32212342D01*
X77732005Y-32341923D01*
X77732006Y-32341925D01*
X77811025Y-32489759D01*
X77859688Y-32650178D01*
X77876118Y-32817001D01*
X77859688Y-32983824D01*
X77811025Y-33144243D01*
X77740115Y-33276907D01*
X77732005Y-33292079D01*
X77625660Y-33421660D01*
X77496079Y-33528005D01*
X77496077Y-33528006D01*
X77348243Y-33607025D01*
X77187824Y-33655688D01*
X77062805Y-33668001D01*
X76979197Y-33668001D01*
X76854178Y-33655688D01*
X76693759Y-33607025D01*
X76545925Y-33528006D01*
X76545923Y-33528005D01*
X76416342Y-33421660D01*
X76309997Y-33292079D01*
X76301887Y-33276907D01*
X76230977Y-33144243D01*
X76182314Y-32983824D01*
X76165884Y-32817001D01*
X76182314Y-32650178D01*
X76230977Y-32489759D01*
X76309996Y-32341925D01*
X76309997Y-32341923D01*
X76416342Y-32212342D01*
X76545923Y-32105997D01*
X76561095Y-32097887D01*
X76693759Y-32026977D01*
X76854178Y-31978314D01*
X76979197Y-31966001D01*
X77062805Y-31966001D01*
X77187824Y-31978314D01*
X77187824Y-31978314D01*
G37*
G36*
X61947824Y-31978314D02*
G01*
X62108243Y-32026977D01*
X62240907Y-32097887D01*
X62256079Y-32105997D01*
X62385660Y-32212342D01*
X62492005Y-32341923D01*
X62492006Y-32341925D01*
X62571025Y-32489759D01*
X62619688Y-32650178D01*
X62636118Y-32817001D01*
X62619688Y-32983824D01*
X62571025Y-33144243D01*
X62500115Y-33276907D01*
X62492005Y-33292079D01*
X62385660Y-33421660D01*
X62256079Y-33528005D01*
X62256077Y-33528006D01*
X62108243Y-33607025D01*
X61947824Y-33655688D01*
X61822805Y-33668001D01*
X61739197Y-33668001D01*
X61614178Y-33655688D01*
X61453759Y-33607025D01*
X61305925Y-33528006D01*
X61305923Y-33528005D01*
X61176342Y-33421660D01*
X61069997Y-33292079D01*
X61061887Y-33276907D01*
X60990977Y-33144243D01*
X60942314Y-32983824D01*
X60925884Y-32817001D01*
X60942314Y-32650178D01*
X60990977Y-32489759D01*
X61069996Y-32341925D01*
X61069997Y-32341923D01*
X61176342Y-32212342D01*
X61305923Y-32105997D01*
X61321095Y-32097887D01*
X61453759Y-32026977D01*
X61614178Y-31978314D01*
X61739197Y-31966001D01*
X61822805Y-31966001D01*
X61947824Y-31978314D01*
X61947824Y-31978314D01*
G37*
G36*
X74461823Y-31978314D02*
G01*
X74622242Y-32026977D01*
X74754906Y-32097887D01*
X74770078Y-32105997D01*
X74899659Y-32212342D01*
X75006004Y-32341923D01*
X75006005Y-32341925D01*
X75085024Y-32489759D01*
X75133687Y-32650178D01*
X75150117Y-32817001D01*
X75133687Y-32983824D01*
X75085024Y-33144243D01*
X75014114Y-33276907D01*
X75006004Y-33292079D01*
X74899659Y-33421660D01*
X74770078Y-33528005D01*
X74770076Y-33528006D01*
X74622242Y-33607025D01*
X74461823Y-33655688D01*
X74336804Y-33668001D01*
X74253196Y-33668001D01*
X74128177Y-33655688D01*
X73967758Y-33607025D01*
X73819924Y-33528006D01*
X73819922Y-33528005D01*
X73690341Y-33421660D01*
X73583996Y-33292079D01*
X73575886Y-33276907D01*
X73504976Y-33144243D01*
X73456313Y-32983824D01*
X73439883Y-32817001D01*
X73456313Y-32650178D01*
X73504976Y-32489759D01*
X73583995Y-32341925D01*
X73583996Y-32341923D01*
X73690341Y-32212342D01*
X73819922Y-32105997D01*
X73835094Y-32097887D01*
X73967758Y-32026977D01*
X74128177Y-31978314D01*
X74253196Y-31966001D01*
X74336804Y-31966001D01*
X74461823Y-31978314D01*
X74461823Y-31978314D01*
G37*
G36*
X65993674Y-31373465D02*
G01*
X66031367Y-31384899D01*
X66066103Y-31403466D01*
X66096548Y-31428452D01*
X66121534Y-31458897D01*
X66140101Y-31493633D01*
X66151535Y-31531326D01*
X66156000Y-31576661D01*
X66156000Y-32413339D01*
X66151535Y-32458674D01*
X66140101Y-32496367D01*
X66121534Y-32531103D01*
X66096548Y-32561548D01*
X66066103Y-32586534D01*
X66031367Y-32605101D01*
X65993674Y-32616535D01*
X65948339Y-32621000D01*
X64861661Y-32621000D01*
X64816326Y-32616535D01*
X64778633Y-32605101D01*
X64743897Y-32586534D01*
X64713452Y-32561548D01*
X64688466Y-32531103D01*
X64669899Y-32496367D01*
X64658465Y-32458674D01*
X64654000Y-32413339D01*
X64654000Y-31576661D01*
X64658465Y-31531326D01*
X64669899Y-31493633D01*
X64688466Y-31458897D01*
X64713452Y-31428452D01*
X64743897Y-31403466D01*
X64778633Y-31384899D01*
X64816326Y-31373465D01*
X64861661Y-31369000D01*
X65948339Y-31369000D01*
X65993674Y-31373465D01*
X65993674Y-31373465D01*
G37*
G36*
X70438674Y-31373465D02*
G01*
X70476367Y-31384899D01*
X70511103Y-31403466D01*
X70541548Y-31428452D01*
X70566534Y-31458897D01*
X70585101Y-31493633D01*
X70596535Y-31531326D01*
X70601000Y-31576661D01*
X70601000Y-32413339D01*
X70596535Y-32458674D01*
X70585101Y-32496367D01*
X70566534Y-32531103D01*
X70541548Y-32561548D01*
X70511103Y-32586534D01*
X70476367Y-32605101D01*
X70438674Y-32616535D01*
X70393339Y-32621000D01*
X69306661Y-32621000D01*
X69261326Y-32616535D01*
X69223633Y-32605101D01*
X69188897Y-32586534D01*
X69158452Y-32561548D01*
X69133466Y-32531103D01*
X69114899Y-32496367D01*
X69103465Y-32458674D01*
X69099000Y-32413339D01*
X69099000Y-31576661D01*
X69103465Y-31531326D01*
X69114899Y-31493633D01*
X69133466Y-31458897D01*
X69158452Y-31428452D01*
X69188897Y-31403466D01*
X69223633Y-31384899D01*
X69261326Y-31373465D01*
X69306661Y-31369000D01*
X70393339Y-31369000D01*
X70438674Y-31373465D01*
X70438674Y-31373465D01*
G37*
G36*
X61947824Y-29438314D02*
G01*
X62108243Y-29486977D01*
X62240907Y-29557887D01*
X62256079Y-29565997D01*
X62385660Y-29672342D01*
X62492005Y-29801923D01*
X62492006Y-29801925D01*
X62571025Y-29949759D01*
X62619688Y-30110178D01*
X62636118Y-30277001D01*
X62619688Y-30443824D01*
X62571025Y-30604243D01*
X62500115Y-30736907D01*
X62492005Y-30752079D01*
X62385660Y-30881660D01*
X62256079Y-30988005D01*
X62256077Y-30988006D01*
X62108243Y-31067025D01*
X61947824Y-31115688D01*
X61822805Y-31128001D01*
X61739197Y-31128001D01*
X61614178Y-31115688D01*
X61453759Y-31067025D01*
X61305925Y-30988006D01*
X61305923Y-30988005D01*
X61176342Y-30881660D01*
X61069997Y-30752079D01*
X61061887Y-30736907D01*
X60990977Y-30604243D01*
X60942314Y-30443824D01*
X60925884Y-30277001D01*
X60942314Y-30110178D01*
X60990977Y-29949759D01*
X61069996Y-29801925D01*
X61069997Y-29801923D01*
X61176342Y-29672342D01*
X61305923Y-29565997D01*
X61321095Y-29557887D01*
X61453759Y-29486977D01*
X61614178Y-29438314D01*
X61739197Y-29426001D01*
X61822805Y-29426001D01*
X61947824Y-29438314D01*
X61947824Y-29438314D01*
G37*
G36*
X59221823Y-29438314D02*
G01*
X59382242Y-29486977D01*
X59514906Y-29557887D01*
X59530078Y-29565997D01*
X59659659Y-29672342D01*
X59766004Y-29801923D01*
X59766005Y-29801925D01*
X59845024Y-29949759D01*
X59893687Y-30110178D01*
X59910117Y-30277001D01*
X59893687Y-30443824D01*
X59845024Y-30604243D01*
X59774114Y-30736907D01*
X59766004Y-30752079D01*
X59659659Y-30881660D01*
X59530078Y-30988005D01*
X59530076Y-30988006D01*
X59382242Y-31067025D01*
X59221823Y-31115688D01*
X59096804Y-31128001D01*
X59013196Y-31128001D01*
X58888177Y-31115688D01*
X58727758Y-31067025D01*
X58579924Y-30988006D01*
X58579922Y-30988005D01*
X58450341Y-30881660D01*
X58343996Y-30752079D01*
X58335886Y-30736907D01*
X58264976Y-30604243D01*
X58216313Y-30443824D01*
X58199883Y-30277001D01*
X58216313Y-30110178D01*
X58264976Y-29949759D01*
X58343995Y-29801925D01*
X58343996Y-29801923D01*
X58450341Y-29672342D01*
X58579922Y-29565997D01*
X58595094Y-29557887D01*
X58727758Y-29486977D01*
X58888177Y-29438314D01*
X59013196Y-29426001D01*
X59096804Y-29426001D01*
X59221823Y-29438314D01*
X59221823Y-29438314D01*
G37*
G36*
X74461823Y-29438314D02*
G01*
X74622242Y-29486977D01*
X74754906Y-29557887D01*
X74770078Y-29565997D01*
X74899659Y-29672342D01*
X75006004Y-29801923D01*
X75006005Y-29801925D01*
X75085024Y-29949759D01*
X75133687Y-30110178D01*
X75150117Y-30277001D01*
X75133687Y-30443824D01*
X75085024Y-30604243D01*
X75014114Y-30736907D01*
X75006004Y-30752079D01*
X74899659Y-30881660D01*
X74770078Y-30988005D01*
X74770076Y-30988006D01*
X74622242Y-31067025D01*
X74461823Y-31115688D01*
X74336804Y-31128001D01*
X74253196Y-31128001D01*
X74128177Y-31115688D01*
X73967758Y-31067025D01*
X73819924Y-30988006D01*
X73819922Y-30988005D01*
X73690341Y-30881660D01*
X73583996Y-30752079D01*
X73575886Y-30736907D01*
X73504976Y-30604243D01*
X73456313Y-30443824D01*
X73439883Y-30277001D01*
X73456313Y-30110178D01*
X73504976Y-29949759D01*
X73583995Y-29801925D01*
X73583996Y-29801923D01*
X73690341Y-29672342D01*
X73819922Y-29565997D01*
X73835094Y-29557887D01*
X73967758Y-29486977D01*
X74128177Y-29438314D01*
X74253196Y-29426001D01*
X74336804Y-29426001D01*
X74461823Y-29438314D01*
X74461823Y-29438314D01*
G37*
G36*
X77187824Y-29438314D02*
G01*
X77348243Y-29486977D01*
X77480907Y-29557887D01*
X77496079Y-29565997D01*
X77625660Y-29672342D01*
X77732005Y-29801923D01*
X77732006Y-29801925D01*
X77811025Y-29949759D01*
X77859688Y-30110178D01*
X77876118Y-30277001D01*
X77859688Y-30443824D01*
X77811025Y-30604243D01*
X77740115Y-30736907D01*
X77732005Y-30752079D01*
X77625660Y-30881660D01*
X77496079Y-30988005D01*
X77496077Y-30988006D01*
X77348243Y-31067025D01*
X77187824Y-31115688D01*
X77062805Y-31128001D01*
X76979197Y-31128001D01*
X76854178Y-31115688D01*
X76693759Y-31067025D01*
X76545925Y-30988006D01*
X76545923Y-30988005D01*
X76416342Y-30881660D01*
X76309997Y-30752079D01*
X76301887Y-30736907D01*
X76230977Y-30604243D01*
X76182314Y-30443824D01*
X76165884Y-30277001D01*
X76182314Y-30110178D01*
X76230977Y-29949759D01*
X76309996Y-29801925D01*
X76309997Y-29801923D01*
X76416342Y-29672342D01*
X76545923Y-29565997D01*
X76561095Y-29557887D01*
X76693759Y-29486977D01*
X76854178Y-29438314D01*
X76979197Y-29426001D01*
X77062805Y-29426001D01*
X77187824Y-29438314D01*
X77187824Y-29438314D01*
G37*
G36*
X65993674Y-28978465D02*
G01*
X66031367Y-28989899D01*
X66066103Y-29008466D01*
X66096548Y-29033452D01*
X66121534Y-29063897D01*
X66140101Y-29098633D01*
X66151535Y-29136326D01*
X66156000Y-29181661D01*
X66156000Y-30018339D01*
X66151535Y-30063674D01*
X66140101Y-30101367D01*
X66121534Y-30136103D01*
X66096548Y-30166548D01*
X66066103Y-30191534D01*
X66031367Y-30210101D01*
X65993674Y-30221535D01*
X65948339Y-30226000D01*
X64861661Y-30226000D01*
X64816326Y-30221535D01*
X64778633Y-30210101D01*
X64743897Y-30191534D01*
X64713452Y-30166548D01*
X64688466Y-30136103D01*
X64669899Y-30101367D01*
X64658465Y-30063674D01*
X64654000Y-30018339D01*
X64654000Y-29181661D01*
X64658465Y-29136326D01*
X64669899Y-29098633D01*
X64688466Y-29063897D01*
X64713452Y-29033452D01*
X64743897Y-29008466D01*
X64778633Y-28989899D01*
X64816326Y-28978465D01*
X64861661Y-28974000D01*
X65948339Y-28974000D01*
X65993674Y-28978465D01*
X65993674Y-28978465D01*
G37*
G36*
X70438674Y-28978465D02*
G01*
X70476367Y-28989899D01*
X70511103Y-29008466D01*
X70541548Y-29033452D01*
X70566534Y-29063897D01*
X70585101Y-29098633D01*
X70596535Y-29136326D01*
X70601000Y-29181661D01*
X70601000Y-30018339D01*
X70596535Y-30063674D01*
X70585101Y-30101367D01*
X70566534Y-30136103D01*
X70541548Y-30166548D01*
X70511103Y-30191534D01*
X70476367Y-30210101D01*
X70438674Y-30221535D01*
X70393339Y-30226000D01*
X69306661Y-30226000D01*
X69261326Y-30221535D01*
X69223633Y-30210101D01*
X69188897Y-30191534D01*
X69158452Y-30166548D01*
X69133466Y-30136103D01*
X69114899Y-30101367D01*
X69103465Y-30063674D01*
X69099000Y-30018339D01*
X69099000Y-29181661D01*
X69103465Y-29136326D01*
X69114899Y-29098633D01*
X69133466Y-29063897D01*
X69158452Y-29033452D01*
X69188897Y-29008466D01*
X69223633Y-28989899D01*
X69261326Y-28978465D01*
X69306661Y-28974000D01*
X70393339Y-28974000D01*
X70438674Y-28978465D01*
X70438674Y-28978465D01*
G37*
G36*
X54731214Y-28448006D02*
G01*
X54834893Y-28468629D01*
X54975206Y-28526748D01*
X55101484Y-28611125D01*
X55208875Y-28718516D01*
X55293252Y-28844794D01*
X55351371Y-28985107D01*
X55381000Y-29134063D01*
X55381000Y-29285937D01*
X55351371Y-29434893D01*
X55293252Y-29575206D01*
X55208875Y-29701484D01*
X55101484Y-29808875D01*
X54975206Y-29893252D01*
X54834893Y-29951371D01*
X54735589Y-29971124D01*
X54685938Y-29981000D01*
X54534062Y-29981000D01*
X54484411Y-29971124D01*
X54385107Y-29951371D01*
X54244794Y-29893252D01*
X54118516Y-29808875D01*
X54011125Y-29701484D01*
X53926748Y-29575206D01*
X53868629Y-29434893D01*
X53839000Y-29285937D01*
X53839000Y-29134063D01*
X53868629Y-28985107D01*
X53926748Y-28844794D01*
X54011125Y-28718516D01*
X54118516Y-28611125D01*
X54244794Y-28526748D01*
X54385107Y-28468629D01*
X54488786Y-28448006D01*
X54534062Y-28439000D01*
X54685938Y-28439000D01*
X54731214Y-28448006D01*
X54731214Y-28448006D01*
G37*
G36*
X74461823Y-26898314D02*
G01*
X74622242Y-26946977D01*
X74728397Y-27003718D01*
X74770078Y-27025997D01*
X74899659Y-27132342D01*
X75006004Y-27261923D01*
X75006005Y-27261925D01*
X75085024Y-27409759D01*
X75133687Y-27570178D01*
X75150117Y-27737001D01*
X75133687Y-27903824D01*
X75085024Y-28064243D01*
X75014114Y-28196907D01*
X75006004Y-28212079D01*
X74899659Y-28341660D01*
X74770078Y-28448005D01*
X74770076Y-28448006D01*
X74622242Y-28527025D01*
X74461823Y-28575688D01*
X74336804Y-28588001D01*
X74253196Y-28588001D01*
X74128177Y-28575688D01*
X73967758Y-28527025D01*
X73819924Y-28448006D01*
X73819922Y-28448005D01*
X73690341Y-28341660D01*
X73583996Y-28212079D01*
X73575886Y-28196907D01*
X73504976Y-28064243D01*
X73456313Y-27903824D01*
X73439883Y-27737001D01*
X73456313Y-27570178D01*
X73504976Y-27409759D01*
X73583995Y-27261925D01*
X73583996Y-27261923D01*
X73690341Y-27132342D01*
X73819922Y-27025997D01*
X73861603Y-27003718D01*
X73967758Y-26946977D01*
X74128177Y-26898314D01*
X74253196Y-26886001D01*
X74336804Y-26886001D01*
X74461823Y-26898314D01*
X74461823Y-26898314D01*
G37*
G36*
X61947824Y-26898314D02*
G01*
X62108243Y-26946977D01*
X62214398Y-27003718D01*
X62256079Y-27025997D01*
X62385660Y-27132342D01*
X62492005Y-27261923D01*
X62492006Y-27261925D01*
X62571025Y-27409759D01*
X62619688Y-27570178D01*
X62636118Y-27737001D01*
X62619688Y-27903824D01*
X62571025Y-28064243D01*
X62500115Y-28196907D01*
X62492005Y-28212079D01*
X62385660Y-28341660D01*
X62256079Y-28448005D01*
X62256077Y-28448006D01*
X62108243Y-28527025D01*
X61947824Y-28575688D01*
X61822805Y-28588001D01*
X61739197Y-28588001D01*
X61614178Y-28575688D01*
X61453759Y-28527025D01*
X61305925Y-28448006D01*
X61305923Y-28448005D01*
X61176342Y-28341660D01*
X61069997Y-28212079D01*
X61061887Y-28196907D01*
X60990977Y-28064243D01*
X60942314Y-27903824D01*
X60925884Y-27737001D01*
X60942314Y-27570178D01*
X60990977Y-27409759D01*
X61069996Y-27261925D01*
X61069997Y-27261923D01*
X61176342Y-27132342D01*
X61305923Y-27025997D01*
X61347604Y-27003718D01*
X61453759Y-26946977D01*
X61614178Y-26898314D01*
X61739197Y-26886001D01*
X61822805Y-26886001D01*
X61947824Y-26898314D01*
X61947824Y-26898314D01*
G37*
G36*
X77187824Y-26898314D02*
G01*
X77348243Y-26946977D01*
X77454398Y-27003718D01*
X77496079Y-27025997D01*
X77625660Y-27132342D01*
X77732005Y-27261923D01*
X77732006Y-27261925D01*
X77811025Y-27409759D01*
X77859688Y-27570178D01*
X77876118Y-27737001D01*
X77859688Y-27903824D01*
X77811025Y-28064243D01*
X77740115Y-28196907D01*
X77732005Y-28212079D01*
X77625660Y-28341660D01*
X77496079Y-28448005D01*
X77496077Y-28448006D01*
X77348243Y-28527025D01*
X77187824Y-28575688D01*
X77062805Y-28588001D01*
X76979197Y-28588001D01*
X76854178Y-28575688D01*
X76693759Y-28527025D01*
X76545925Y-28448006D01*
X76545923Y-28448005D01*
X76416342Y-28341660D01*
X76309997Y-28212079D01*
X76301887Y-28196907D01*
X76230977Y-28064243D01*
X76182314Y-27903824D01*
X76165884Y-27737001D01*
X76182314Y-27570178D01*
X76230977Y-27409759D01*
X76309996Y-27261925D01*
X76309997Y-27261923D01*
X76416342Y-27132342D01*
X76545923Y-27025997D01*
X76587604Y-27003718D01*
X76693759Y-26946977D01*
X76854178Y-26898314D01*
X76979197Y-26886001D01*
X77062805Y-26886001D01*
X77187824Y-26898314D01*
X77187824Y-26898314D01*
G37*
G36*
X59163015Y-27193974D02*
G01*
X59266879Y-27225480D01*
X59294055Y-27240006D01*
X59362600Y-27276644D01*
X59446501Y-27345500D01*
X59515357Y-27429401D01*
X59551995Y-27497946D01*
X59566521Y-27525122D01*
X59598027Y-27628986D01*
X59608666Y-27737001D01*
X59598027Y-27845016D01*
X59566521Y-27948880D01*
X59556120Y-27968339D01*
X59515357Y-28044601D01*
X59446501Y-28128502D01*
X59362600Y-28197358D01*
X59294055Y-28233996D01*
X59266879Y-28248522D01*
X59163015Y-28280028D01*
X59082067Y-28288001D01*
X59027933Y-28288001D01*
X58946985Y-28280028D01*
X58843121Y-28248522D01*
X58815945Y-28233996D01*
X58747400Y-28197358D01*
X58663499Y-28128502D01*
X58594643Y-28044601D01*
X58553880Y-27968339D01*
X58543479Y-27948880D01*
X58511973Y-27845016D01*
X58501334Y-27737001D01*
X58511973Y-27628986D01*
X58543479Y-27525122D01*
X58558005Y-27497946D01*
X58594643Y-27429401D01*
X58663499Y-27345500D01*
X58747400Y-27276644D01*
X58815945Y-27240006D01*
X58843121Y-27225480D01*
X58946985Y-27193974D01*
X59027933Y-27186001D01*
X59082067Y-27186001D01*
X59163015Y-27193974D01*
X59163015Y-27193974D01*
G37*
G36*
X70438674Y-26928465D02*
G01*
X70476367Y-26939899D01*
X70511103Y-26958466D01*
X70541548Y-26983452D01*
X70566534Y-27013897D01*
X70585101Y-27048633D01*
X70596535Y-27086326D01*
X70601000Y-27131661D01*
X70601000Y-27968339D01*
X70596535Y-28013674D01*
X70585101Y-28051367D01*
X70566534Y-28086103D01*
X70541548Y-28116548D01*
X70511103Y-28141534D01*
X70476367Y-28160101D01*
X70438674Y-28171535D01*
X70393339Y-28176000D01*
X69306661Y-28176000D01*
X69261326Y-28171535D01*
X69223633Y-28160101D01*
X69188897Y-28141534D01*
X69158452Y-28116548D01*
X69133466Y-28086103D01*
X69114899Y-28051367D01*
X69103465Y-28013674D01*
X69099000Y-27968339D01*
X69099000Y-27131661D01*
X69103465Y-27086326D01*
X69114899Y-27048633D01*
X69133466Y-27013897D01*
X69158452Y-26983452D01*
X69188897Y-26958466D01*
X69223633Y-26939899D01*
X69261326Y-26928465D01*
X69306661Y-26924000D01*
X70393339Y-26924000D01*
X70438674Y-26928465D01*
X70438674Y-26928465D01*
G37*
G36*
X65993674Y-26928465D02*
G01*
X66031367Y-26939899D01*
X66066103Y-26958466D01*
X66096548Y-26983452D01*
X66121534Y-27013897D01*
X66140101Y-27048633D01*
X66151535Y-27086326D01*
X66156000Y-27131661D01*
X66156000Y-27968339D01*
X66151535Y-28013674D01*
X66140101Y-28051367D01*
X66121534Y-28086103D01*
X66096548Y-28116548D01*
X66066103Y-28141534D01*
X66031367Y-28160101D01*
X65993674Y-28171535D01*
X65948339Y-28176000D01*
X64861661Y-28176000D01*
X64816326Y-28171535D01*
X64778633Y-28160101D01*
X64743897Y-28141534D01*
X64713452Y-28116548D01*
X64688466Y-28086103D01*
X64669899Y-28051367D01*
X64658465Y-28013674D01*
X64654000Y-27968339D01*
X64654000Y-27131661D01*
X64658465Y-27086326D01*
X64669899Y-27048633D01*
X64688466Y-27013897D01*
X64713452Y-26983452D01*
X64743897Y-26958466D01*
X64778633Y-26939899D01*
X64816326Y-26928465D01*
X64861661Y-26924000D01*
X65948339Y-26924000D01*
X65993674Y-26928465D01*
X65993674Y-26928465D01*
G37*
G36*
X54731214Y-25908006D02*
G01*
X54834893Y-25928629D01*
X54975206Y-25986748D01*
X55101484Y-26071125D01*
X55208875Y-26178516D01*
X55293252Y-26304794D01*
X55351371Y-26445107D01*
X55381000Y-26594063D01*
X55381000Y-26745937D01*
X55351371Y-26894893D01*
X55293252Y-27035206D01*
X55208875Y-27161484D01*
X55101484Y-27268875D01*
X54975206Y-27353252D01*
X54834893Y-27411371D01*
X54744249Y-27429401D01*
X54685938Y-27441000D01*
X54534062Y-27441000D01*
X54475751Y-27429401D01*
X54385107Y-27411371D01*
X54244794Y-27353252D01*
X54118516Y-27268875D01*
X54011125Y-27161484D01*
X53926748Y-27035206D01*
X53868629Y-26894893D01*
X53839000Y-26745937D01*
X53839000Y-26594063D01*
X53868629Y-26445107D01*
X53926748Y-26304794D01*
X54011125Y-26178516D01*
X54118516Y-26071125D01*
X54244794Y-25986748D01*
X54385107Y-25928629D01*
X54488786Y-25908006D01*
X54534062Y-25899000D01*
X54685938Y-25899000D01*
X54731214Y-25908006D01*
X54731214Y-25908006D01*
G37*
G36*
X77187824Y-24358314D02*
G01*
X77348243Y-24406977D01*
X77480907Y-24477887D01*
X77496079Y-24485997D01*
X77625660Y-24592342D01*
X77732005Y-24721923D01*
X77732006Y-24721925D01*
X77811025Y-24869759D01*
X77859688Y-25030178D01*
X77876118Y-25197001D01*
X77859688Y-25363824D01*
X77811025Y-25524243D01*
X77776678Y-25588502D01*
X77732005Y-25672079D01*
X77625660Y-25801660D01*
X77496079Y-25908005D01*
X77496077Y-25908006D01*
X77348243Y-25987025D01*
X77187824Y-26035688D01*
X77062805Y-26048001D01*
X76979197Y-26048001D01*
X76854178Y-26035688D01*
X76693759Y-25987025D01*
X76545925Y-25908006D01*
X76545923Y-25908005D01*
X76416342Y-25801660D01*
X76309997Y-25672079D01*
X76265324Y-25588502D01*
X76230977Y-25524243D01*
X76182314Y-25363824D01*
X76165884Y-25197001D01*
X76182314Y-25030178D01*
X76230977Y-24869759D01*
X76309996Y-24721925D01*
X76309997Y-24721923D01*
X76416342Y-24592342D01*
X76545923Y-24485997D01*
X76561095Y-24477887D01*
X76693759Y-24406977D01*
X76854178Y-24358314D01*
X76979197Y-24346001D01*
X77062805Y-24346001D01*
X77187824Y-24358314D01*
X77187824Y-24358314D01*
G37*
G36*
X61947824Y-24358314D02*
G01*
X62108243Y-24406977D01*
X62240907Y-24477887D01*
X62256079Y-24485997D01*
X62385660Y-24592342D01*
X62492005Y-24721923D01*
X62492006Y-24721925D01*
X62571025Y-24869759D01*
X62619688Y-25030178D01*
X62636118Y-25197001D01*
X62619688Y-25363824D01*
X62571025Y-25524243D01*
X62536678Y-25588502D01*
X62492005Y-25672079D01*
X62385660Y-25801660D01*
X62256079Y-25908005D01*
X62256077Y-25908006D01*
X62108243Y-25987025D01*
X61947824Y-26035688D01*
X61822805Y-26048001D01*
X61739197Y-26048001D01*
X61614178Y-26035688D01*
X61453759Y-25987025D01*
X61305925Y-25908006D01*
X61305923Y-25908005D01*
X61176342Y-25801660D01*
X61069997Y-25672079D01*
X61025324Y-25588502D01*
X60990977Y-25524243D01*
X60942314Y-25363824D01*
X60925884Y-25197001D01*
X60942314Y-25030178D01*
X60990977Y-24869759D01*
X61069996Y-24721925D01*
X61069997Y-24721923D01*
X61176342Y-24592342D01*
X61305923Y-24485997D01*
X61321095Y-24477887D01*
X61453759Y-24406977D01*
X61614178Y-24358314D01*
X61739197Y-24346001D01*
X61822805Y-24346001D01*
X61947824Y-24358314D01*
X61947824Y-24358314D01*
G37*
G36*
X74461823Y-24358314D02*
G01*
X74622242Y-24406977D01*
X74754906Y-24477887D01*
X74770078Y-24485997D01*
X74899659Y-24592342D01*
X75006004Y-24721923D01*
X75006005Y-24721925D01*
X75085024Y-24869759D01*
X75133687Y-25030178D01*
X75150117Y-25197001D01*
X75133687Y-25363824D01*
X75085024Y-25524243D01*
X75050677Y-25588502D01*
X75006004Y-25672079D01*
X74899659Y-25801660D01*
X74770078Y-25908005D01*
X74770076Y-25908006D01*
X74622242Y-25987025D01*
X74461823Y-26035688D01*
X74336804Y-26048001D01*
X74253196Y-26048001D01*
X74128177Y-26035688D01*
X73967758Y-25987025D01*
X73819924Y-25908006D01*
X73819922Y-25908005D01*
X73690341Y-25801660D01*
X73583996Y-25672079D01*
X73539323Y-25588502D01*
X73504976Y-25524243D01*
X73456313Y-25363824D01*
X73439883Y-25197001D01*
X73456313Y-25030178D01*
X73504976Y-24869759D01*
X73583995Y-24721925D01*
X73583996Y-24721923D01*
X73690341Y-24592342D01*
X73819922Y-24485997D01*
X73835094Y-24477887D01*
X73967758Y-24406977D01*
X74128177Y-24358314D01*
X74253196Y-24346001D01*
X74336804Y-24346001D01*
X74461823Y-24358314D01*
X74461823Y-24358314D01*
G37*
G36*
X59163015Y-24653974D02*
G01*
X59266879Y-24685480D01*
X59294055Y-24700006D01*
X59362600Y-24736644D01*
X59446501Y-24805500D01*
X59515357Y-24889401D01*
X59551995Y-24957946D01*
X59566521Y-24985122D01*
X59598027Y-25088986D01*
X59608666Y-25197001D01*
X59598027Y-25305016D01*
X59566521Y-25408880D01*
X59566519Y-25408883D01*
X59515357Y-25504601D01*
X59446501Y-25588502D01*
X59362600Y-25657358D01*
X59294055Y-25693996D01*
X59266879Y-25708522D01*
X59163015Y-25740028D01*
X59082067Y-25748001D01*
X59027933Y-25748001D01*
X58946985Y-25740028D01*
X58843121Y-25708522D01*
X58815945Y-25693996D01*
X58747400Y-25657358D01*
X58663499Y-25588502D01*
X58594643Y-25504601D01*
X58543481Y-25408883D01*
X58543479Y-25408880D01*
X58511973Y-25305016D01*
X58501334Y-25197001D01*
X58511973Y-25088986D01*
X58543479Y-24985122D01*
X58558005Y-24957946D01*
X58594643Y-24889401D01*
X58663499Y-24805500D01*
X58747400Y-24736644D01*
X58815945Y-24700006D01*
X58843121Y-24685480D01*
X58946985Y-24653974D01*
X59027933Y-24646001D01*
X59082067Y-24646001D01*
X59163015Y-24653974D01*
X59163015Y-24653974D01*
G37*
G36*
X54731214Y-23368006D02*
G01*
X54834893Y-23388629D01*
X54975206Y-23446748D01*
X55101484Y-23531125D01*
X55208875Y-23638516D01*
X55293252Y-23764794D01*
X55351371Y-23905107D01*
X55381000Y-24054063D01*
X55381000Y-24205937D01*
X55351371Y-24354893D01*
X55293252Y-24495206D01*
X55208875Y-24621484D01*
X55101484Y-24728875D01*
X54975206Y-24813252D01*
X54834893Y-24871371D01*
X54744249Y-24889401D01*
X54685938Y-24901000D01*
X54534062Y-24901000D01*
X54475751Y-24889401D01*
X54385107Y-24871371D01*
X54244794Y-24813252D01*
X54118516Y-24728875D01*
X54011125Y-24621484D01*
X53926748Y-24495206D01*
X53868629Y-24354893D01*
X53839000Y-24205937D01*
X53839000Y-24054063D01*
X53868629Y-23905107D01*
X53926748Y-23764794D01*
X54011125Y-23638516D01*
X54118516Y-23531125D01*
X54244794Y-23446748D01*
X54385107Y-23388629D01*
X54488786Y-23368006D01*
X54534062Y-23359000D01*
X54685938Y-23359000D01*
X54731214Y-23368006D01*
X54731214Y-23368006D01*
G37*
G36*
X77187824Y-21818314D02*
G01*
X77348243Y-21866977D01*
X77480907Y-21937887D01*
X77496079Y-21945997D01*
X77625660Y-22052342D01*
X77732005Y-22181923D01*
X77732006Y-22181925D01*
X77811025Y-22329759D01*
X77859688Y-22490178D01*
X77876118Y-22657001D01*
X77859688Y-22823824D01*
X77811025Y-22984243D01*
X77740115Y-23116907D01*
X77732005Y-23132079D01*
X77625660Y-23261660D01*
X77496079Y-23368005D01*
X77496077Y-23368006D01*
X77348243Y-23447025D01*
X77187824Y-23495688D01*
X77062805Y-23508001D01*
X76979197Y-23508001D01*
X76854178Y-23495688D01*
X76693759Y-23447025D01*
X76545925Y-23368006D01*
X76545923Y-23368005D01*
X76416342Y-23261660D01*
X76309997Y-23132079D01*
X76301887Y-23116907D01*
X76230977Y-22984243D01*
X76182314Y-22823824D01*
X76165884Y-22657001D01*
X76182314Y-22490178D01*
X76230977Y-22329759D01*
X76309996Y-22181925D01*
X76309997Y-22181923D01*
X76416342Y-22052342D01*
X76545923Y-21945997D01*
X76561095Y-21937887D01*
X76693759Y-21866977D01*
X76854178Y-21818314D01*
X76979197Y-21806001D01*
X77062805Y-21806001D01*
X77187824Y-21818314D01*
X77187824Y-21818314D01*
G37*
G36*
X62632001Y-23508001D02*
G01*
X60930001Y-23508001D01*
X60930001Y-21806001D01*
X62632001Y-21806001D01*
X62632001Y-23508001D01*
X62632001Y-23508001D01*
G37*
G36*
X74461823Y-21818314D02*
G01*
X74622242Y-21866977D01*
X74754906Y-21937887D01*
X74770078Y-21945997D01*
X74899659Y-22052342D01*
X75006004Y-22181923D01*
X75006005Y-22181925D01*
X75085024Y-22329759D01*
X75133687Y-22490178D01*
X75150117Y-22657001D01*
X75133687Y-22823824D01*
X75085024Y-22984243D01*
X75014114Y-23116907D01*
X75006004Y-23132079D01*
X74899659Y-23261660D01*
X74770078Y-23368005D01*
X74770076Y-23368006D01*
X74622242Y-23447025D01*
X74461823Y-23495688D01*
X74336804Y-23508001D01*
X74253196Y-23508001D01*
X74128177Y-23495688D01*
X73967758Y-23447025D01*
X73819924Y-23368006D01*
X73819922Y-23368005D01*
X73690341Y-23261660D01*
X73583996Y-23132079D01*
X73575886Y-23116907D01*
X73504976Y-22984243D01*
X73456313Y-22823824D01*
X73439883Y-22657001D01*
X73456313Y-22490178D01*
X73504976Y-22329759D01*
X73583995Y-22181925D01*
X73583996Y-22181923D01*
X73690341Y-22052342D01*
X73819922Y-21945997D01*
X73835094Y-21937887D01*
X73967758Y-21866977D01*
X74128177Y-21818314D01*
X74253196Y-21806001D01*
X74336804Y-21806001D01*
X74461823Y-21818314D01*
X74461823Y-21818314D01*
G37*
G36*
X59606000Y-23208001D02*
G01*
X58504000Y-23208001D01*
X58504000Y-22106001D01*
X59606000Y-22106001D01*
X59606000Y-23208001D01*
X59606000Y-23208001D01*
G37*
M02*
