G04 #@! TF.GenerationSoftware,KiCad,Pcbnew,(5.1.2)-1*
G04 #@! TF.CreationDate,2020-02-06T13:28:49-05:00*
G04 #@! TF.ProjectId,clearvideo128,636c6561-7276-4696-9465-6f3132382e6b,rev?*
G04 #@! TF.SameCoordinates,Original*
G04 #@! TF.FileFunction,Soldermask,Top*
G04 #@! TF.FilePolarity,Negative*
%FSLAX46Y46*%
G04 Gerber Fmt 4.6, Leading zero omitted, Abs format (unit mm)*
G04 Created by KiCad (PCBNEW (5.1.2)-1) date 2020-02-06 13:28:49*
%MOMM*%
%LPD*%
G04 APERTURE LIST*
%ADD10C,0.100000*%
G04 APERTURE END LIST*
D10*
G36*
X114081000Y-76616000D02*
G01*
X111979000Y-76616000D01*
X111979000Y-74514000D01*
X114081000Y-74514000D01*
X114081000Y-76616000D01*
X114081000Y-76616000D01*
G37*
G36*
X110593097Y-74519069D02*
G01*
X110696032Y-74529207D01*
X110894146Y-74589305D01*
X110894149Y-74589306D01*
X110990975Y-74641061D01*
X111076729Y-74686897D01*
X111236765Y-74818235D01*
X111368103Y-74978271D01*
X111413939Y-75064025D01*
X111465694Y-75160851D01*
X111465695Y-75160854D01*
X111525793Y-75358968D01*
X111546085Y-75565000D01*
X111525793Y-75771032D01*
X111465695Y-75969146D01*
X111465694Y-75969149D01*
X111419898Y-76054827D01*
X111368103Y-76151729D01*
X111236765Y-76311765D01*
X111076729Y-76443103D01*
X110990975Y-76488939D01*
X110894149Y-76540694D01*
X110894146Y-76540695D01*
X110696032Y-76600793D01*
X110593097Y-76610931D01*
X110541631Y-76616000D01*
X110438369Y-76616000D01*
X110386903Y-76610931D01*
X110283968Y-76600793D01*
X110085854Y-76540695D01*
X110085851Y-76540694D01*
X109989025Y-76488939D01*
X109903271Y-76443103D01*
X109743235Y-76311765D01*
X109611897Y-76151729D01*
X109560102Y-76054827D01*
X109514306Y-75969149D01*
X109514305Y-75969146D01*
X109454207Y-75771032D01*
X109433915Y-75565000D01*
X109454207Y-75358968D01*
X109514305Y-75160854D01*
X109514306Y-75160851D01*
X109566061Y-75064025D01*
X109611897Y-74978271D01*
X109743235Y-74818235D01*
X109903271Y-74686897D01*
X109989025Y-74641061D01*
X110085851Y-74589306D01*
X110085854Y-74589305D01*
X110283968Y-74529207D01*
X110386903Y-74519069D01*
X110438369Y-74514000D01*
X110541631Y-74514000D01*
X110593097Y-74519069D01*
X110593097Y-74519069D01*
G37*
G36*
X61548674Y-75079465D02*
G01*
X61586367Y-75090899D01*
X61621103Y-75109466D01*
X61651548Y-75134452D01*
X61676534Y-75164897D01*
X61695101Y-75199633D01*
X61706535Y-75237326D01*
X61711000Y-75282661D01*
X61711000Y-76119339D01*
X61706535Y-76164674D01*
X61695101Y-76202367D01*
X61676534Y-76237103D01*
X61651548Y-76267548D01*
X61621103Y-76292534D01*
X61586367Y-76311101D01*
X61548674Y-76322535D01*
X61503339Y-76327000D01*
X60416661Y-76327000D01*
X60371326Y-76322535D01*
X60333633Y-76311101D01*
X60298897Y-76292534D01*
X60268452Y-76267548D01*
X60243466Y-76237103D01*
X60224899Y-76202367D01*
X60213465Y-76164674D01*
X60209000Y-76119339D01*
X60209000Y-75282661D01*
X60213465Y-75237326D01*
X60224899Y-75199633D01*
X60243466Y-75164897D01*
X60268452Y-75134452D01*
X60298897Y-75109466D01*
X60333633Y-75090899D01*
X60371326Y-75079465D01*
X60416661Y-75075000D01*
X61503339Y-75075000D01*
X61548674Y-75079465D01*
X61548674Y-75079465D01*
G37*
G36*
X63834674Y-75079465D02*
G01*
X63872367Y-75090899D01*
X63907103Y-75109466D01*
X63937548Y-75134452D01*
X63962534Y-75164897D01*
X63981101Y-75199633D01*
X63992535Y-75237326D01*
X63997000Y-75282661D01*
X63997000Y-76119339D01*
X63992535Y-76164674D01*
X63981101Y-76202367D01*
X63962534Y-76237103D01*
X63937548Y-76267548D01*
X63907103Y-76292534D01*
X63872367Y-76311101D01*
X63834674Y-76322535D01*
X63789339Y-76327000D01*
X62702661Y-76327000D01*
X62657326Y-76322535D01*
X62619633Y-76311101D01*
X62584897Y-76292534D01*
X62554452Y-76267548D01*
X62529466Y-76237103D01*
X62510899Y-76202367D01*
X62499465Y-76164674D01*
X62495000Y-76119339D01*
X62495000Y-75282661D01*
X62499465Y-75237326D01*
X62510899Y-75199633D01*
X62529466Y-75164897D01*
X62554452Y-75134452D01*
X62584897Y-75109466D01*
X62619633Y-75090899D01*
X62657326Y-75079465D01*
X62702661Y-75075000D01*
X63789339Y-75075000D01*
X63834674Y-75079465D01*
X63834674Y-75079465D01*
G37*
G36*
X63834674Y-73029465D02*
G01*
X63872367Y-73040899D01*
X63907103Y-73059466D01*
X63937548Y-73084452D01*
X63962534Y-73114897D01*
X63981101Y-73149633D01*
X63992535Y-73187326D01*
X63997000Y-73232661D01*
X63997000Y-74069339D01*
X63992535Y-74114674D01*
X63981101Y-74152367D01*
X63962534Y-74187103D01*
X63937548Y-74217548D01*
X63907103Y-74242534D01*
X63872367Y-74261101D01*
X63834674Y-74272535D01*
X63789339Y-74277000D01*
X62702661Y-74277000D01*
X62657326Y-74272535D01*
X62619633Y-74261101D01*
X62584897Y-74242534D01*
X62554452Y-74217548D01*
X62529466Y-74187103D01*
X62510899Y-74152367D01*
X62499465Y-74114674D01*
X62495000Y-74069339D01*
X62495000Y-73232661D01*
X62499465Y-73187326D01*
X62510899Y-73149633D01*
X62529466Y-73114897D01*
X62554452Y-73084452D01*
X62584897Y-73059466D01*
X62619633Y-73040899D01*
X62657326Y-73029465D01*
X62702661Y-73025000D01*
X63789339Y-73025000D01*
X63834674Y-73029465D01*
X63834674Y-73029465D01*
G37*
G36*
X61548674Y-73029465D02*
G01*
X61586367Y-73040899D01*
X61621103Y-73059466D01*
X61651548Y-73084452D01*
X61676534Y-73114897D01*
X61695101Y-73149633D01*
X61706535Y-73187326D01*
X61711000Y-73232661D01*
X61711000Y-74069339D01*
X61706535Y-74114674D01*
X61695101Y-74152367D01*
X61676534Y-74187103D01*
X61651548Y-74217548D01*
X61621103Y-74242534D01*
X61586367Y-74261101D01*
X61548674Y-74272535D01*
X61503339Y-74277000D01*
X60416661Y-74277000D01*
X60371326Y-74272535D01*
X60333633Y-74261101D01*
X60298897Y-74242534D01*
X60268452Y-74217548D01*
X60243466Y-74187103D01*
X60224899Y-74152367D01*
X60213465Y-74114674D01*
X60209000Y-74069339D01*
X60209000Y-73232661D01*
X60213465Y-73187326D01*
X60224899Y-73149633D01*
X60243466Y-73114897D01*
X60268452Y-73084452D01*
X60298897Y-73059466D01*
X60333633Y-73040899D01*
X60371326Y-73029465D01*
X60416661Y-73025000D01*
X61503339Y-73025000D01*
X61548674Y-73029465D01*
X61548674Y-73029465D01*
G37*
G36*
X113620674Y-71008465D02*
G01*
X113658367Y-71019899D01*
X113693103Y-71038466D01*
X113723548Y-71063452D01*
X113748534Y-71093897D01*
X113767101Y-71128633D01*
X113778535Y-71166326D01*
X113783000Y-71211661D01*
X113783000Y-72298339D01*
X113778535Y-72343674D01*
X113767101Y-72381367D01*
X113748534Y-72416103D01*
X113723548Y-72446548D01*
X113693103Y-72471534D01*
X113658367Y-72490101D01*
X113620674Y-72501535D01*
X113575339Y-72506000D01*
X112738661Y-72506000D01*
X112693326Y-72501535D01*
X112655633Y-72490101D01*
X112620897Y-72471534D01*
X112590452Y-72446548D01*
X112565466Y-72416103D01*
X112546899Y-72381367D01*
X112535465Y-72343674D01*
X112531000Y-72298339D01*
X112531000Y-71211661D01*
X112535465Y-71166326D01*
X112546899Y-71128633D01*
X112565466Y-71093897D01*
X112590452Y-71063452D01*
X112620897Y-71038466D01*
X112655633Y-71019899D01*
X112693326Y-71008465D01*
X112738661Y-71004000D01*
X113575339Y-71004000D01*
X113620674Y-71008465D01*
X113620674Y-71008465D01*
G37*
G36*
X111570674Y-71008465D02*
G01*
X111608367Y-71019899D01*
X111643103Y-71038466D01*
X111673548Y-71063452D01*
X111698534Y-71093897D01*
X111717101Y-71128633D01*
X111728535Y-71166326D01*
X111733000Y-71211661D01*
X111733000Y-72298339D01*
X111728535Y-72343674D01*
X111717101Y-72381367D01*
X111698534Y-72416103D01*
X111673548Y-72446548D01*
X111643103Y-72471534D01*
X111608367Y-72490101D01*
X111570674Y-72501535D01*
X111525339Y-72506000D01*
X110688661Y-72506000D01*
X110643326Y-72501535D01*
X110605633Y-72490101D01*
X110570897Y-72471534D01*
X110540452Y-72446548D01*
X110515466Y-72416103D01*
X110496899Y-72381367D01*
X110485465Y-72343674D01*
X110481000Y-72298339D01*
X110481000Y-71211661D01*
X110485465Y-71166326D01*
X110496899Y-71128633D01*
X110515466Y-71093897D01*
X110540452Y-71063452D01*
X110570897Y-71038466D01*
X110605633Y-71019899D01*
X110643326Y-71008465D01*
X110688661Y-71004000D01*
X111525339Y-71004000D01*
X111570674Y-71008465D01*
X111570674Y-71008465D01*
G37*
G36*
X63834674Y-71015465D02*
G01*
X63872367Y-71026899D01*
X63907103Y-71045466D01*
X63937548Y-71070452D01*
X63962534Y-71100897D01*
X63981101Y-71135633D01*
X63992535Y-71173326D01*
X63997000Y-71218661D01*
X63997000Y-72055339D01*
X63992535Y-72100674D01*
X63981101Y-72138367D01*
X63962534Y-72173103D01*
X63937548Y-72203548D01*
X63907103Y-72228534D01*
X63872367Y-72247101D01*
X63834674Y-72258535D01*
X63789339Y-72263000D01*
X62702661Y-72263000D01*
X62657326Y-72258535D01*
X62619633Y-72247101D01*
X62584897Y-72228534D01*
X62554452Y-72203548D01*
X62529466Y-72173103D01*
X62510899Y-72138367D01*
X62499465Y-72100674D01*
X62495000Y-72055339D01*
X62495000Y-71218661D01*
X62499465Y-71173326D01*
X62510899Y-71135633D01*
X62529466Y-71100897D01*
X62554452Y-71070452D01*
X62584897Y-71045466D01*
X62619633Y-71026899D01*
X62657326Y-71015465D01*
X62702661Y-71011000D01*
X63789339Y-71011000D01*
X63834674Y-71015465D01*
X63834674Y-71015465D01*
G37*
G36*
X61548674Y-71006465D02*
G01*
X61586367Y-71017899D01*
X61621103Y-71036466D01*
X61651548Y-71061452D01*
X61676534Y-71091897D01*
X61695101Y-71126633D01*
X61706535Y-71164326D01*
X61711000Y-71209661D01*
X61711000Y-72046339D01*
X61706535Y-72091674D01*
X61695101Y-72129367D01*
X61676534Y-72164103D01*
X61651548Y-72194548D01*
X61621103Y-72219534D01*
X61586367Y-72238101D01*
X61548674Y-72249535D01*
X61503339Y-72254000D01*
X60416661Y-72254000D01*
X60371326Y-72249535D01*
X60333633Y-72238101D01*
X60298897Y-72219534D01*
X60268452Y-72194548D01*
X60243466Y-72164103D01*
X60224899Y-72129367D01*
X60213465Y-72091674D01*
X60209000Y-72046339D01*
X60209000Y-71209661D01*
X60213465Y-71164326D01*
X60224899Y-71126633D01*
X60243466Y-71091897D01*
X60268452Y-71061452D01*
X60298897Y-71036466D01*
X60333633Y-71017899D01*
X60371326Y-71006465D01*
X60416661Y-71002000D01*
X61503339Y-71002000D01*
X61548674Y-71006465D01*
X61548674Y-71006465D01*
G37*
G36*
X99665313Y-69775928D02*
G01*
X99814613Y-69805625D01*
X99978585Y-69873545D01*
X100126155Y-69972148D01*
X100251654Y-70097647D01*
X100350257Y-70245217D01*
X100418177Y-70409189D01*
X100452801Y-70583260D01*
X100452801Y-70760742D01*
X100418177Y-70934813D01*
X100350257Y-71098785D01*
X100251654Y-71246355D01*
X100126155Y-71371854D01*
X99978585Y-71470457D01*
X99814613Y-71538377D01*
X99665313Y-71568074D01*
X99640543Y-71573001D01*
X99463059Y-71573001D01*
X99438289Y-71568074D01*
X99288989Y-71538377D01*
X99125017Y-71470457D01*
X98977447Y-71371854D01*
X98851948Y-71246355D01*
X98753345Y-71098785D01*
X98685425Y-70934813D01*
X98650801Y-70760742D01*
X98650801Y-70583260D01*
X98685425Y-70409189D01*
X98753345Y-70245217D01*
X98851948Y-70097647D01*
X98977447Y-69972148D01*
X99125017Y-69873545D01*
X99288989Y-69805625D01*
X99438289Y-69775928D01*
X99463059Y-69771001D01*
X99640543Y-69771001D01*
X99665313Y-69775928D01*
X99665313Y-69775928D01*
G37*
G36*
X75481444Y-69777520D02*
G01*
X75547628Y-69784038D01*
X75717467Y-69835558D01*
X75873992Y-69919223D01*
X75900316Y-69940827D01*
X76011187Y-70031815D01*
X76094449Y-70133272D01*
X76123779Y-70169010D01*
X76207444Y-70325535D01*
X76258964Y-70495374D01*
X76276360Y-70672001D01*
X76258964Y-70848628D01*
X76207444Y-71018467D01*
X76123779Y-71174992D01*
X76095327Y-71209661D01*
X76011187Y-71312187D01*
X75938481Y-71371854D01*
X75873992Y-71424779D01*
X75717467Y-71508444D01*
X75547628Y-71559964D01*
X75481443Y-71566483D01*
X75415261Y-71573001D01*
X75326741Y-71573001D01*
X75260559Y-71566483D01*
X75194374Y-71559964D01*
X75024535Y-71508444D01*
X74868010Y-71424779D01*
X74803521Y-71371854D01*
X74730815Y-71312187D01*
X74646675Y-71209661D01*
X74618223Y-71174992D01*
X74534558Y-71018467D01*
X74483038Y-70848628D01*
X74465642Y-70672001D01*
X74483038Y-70495374D01*
X74534558Y-70325535D01*
X74618223Y-70169010D01*
X74647553Y-70133272D01*
X74730815Y-70031815D01*
X74841686Y-69940827D01*
X74868010Y-69919223D01*
X75024535Y-69835558D01*
X75194374Y-69784038D01*
X75260558Y-69777520D01*
X75326741Y-69771001D01*
X75415261Y-69771001D01*
X75481444Y-69777520D01*
X75481444Y-69777520D01*
G37*
G36*
X70401444Y-69777520D02*
G01*
X70467628Y-69784038D01*
X70637467Y-69835558D01*
X70793992Y-69919223D01*
X70820316Y-69940827D01*
X70931187Y-70031815D01*
X71014449Y-70133272D01*
X71043779Y-70169010D01*
X71127444Y-70325535D01*
X71178964Y-70495374D01*
X71196360Y-70672001D01*
X71178964Y-70848628D01*
X71127444Y-71018467D01*
X71043779Y-71174992D01*
X71015327Y-71209661D01*
X70931187Y-71312187D01*
X70858481Y-71371854D01*
X70793992Y-71424779D01*
X70637467Y-71508444D01*
X70467628Y-71559964D01*
X70401443Y-71566483D01*
X70335261Y-71573001D01*
X70246741Y-71573001D01*
X70180559Y-71566483D01*
X70114374Y-71559964D01*
X69944535Y-71508444D01*
X69788010Y-71424779D01*
X69723521Y-71371854D01*
X69650815Y-71312187D01*
X69566675Y-71209661D01*
X69538223Y-71174992D01*
X69454558Y-71018467D01*
X69403038Y-70848628D01*
X69385642Y-70672001D01*
X69403038Y-70495374D01*
X69454558Y-70325535D01*
X69538223Y-70169010D01*
X69567553Y-70133272D01*
X69650815Y-70031815D01*
X69761686Y-69940827D01*
X69788010Y-69919223D01*
X69944535Y-69835558D01*
X70114374Y-69784038D01*
X70180558Y-69777520D01*
X70246741Y-69771001D01*
X70335261Y-69771001D01*
X70401444Y-69777520D01*
X70401444Y-69777520D01*
G37*
G36*
X67864513Y-69775928D02*
G01*
X68013813Y-69805625D01*
X68177785Y-69873545D01*
X68325355Y-69972148D01*
X68450854Y-70097647D01*
X68549457Y-70245217D01*
X68617377Y-70409189D01*
X68652001Y-70583260D01*
X68652001Y-70760742D01*
X68617377Y-70934813D01*
X68549457Y-71098785D01*
X68450854Y-71246355D01*
X68325355Y-71371854D01*
X68177785Y-71470457D01*
X68013813Y-71538377D01*
X67864513Y-71568074D01*
X67839743Y-71573001D01*
X67662259Y-71573001D01*
X67637489Y-71568074D01*
X67488189Y-71538377D01*
X67324217Y-71470457D01*
X67176647Y-71371854D01*
X67051148Y-71246355D01*
X66952545Y-71098785D01*
X66884625Y-70934813D01*
X66850001Y-70760742D01*
X66850001Y-70583260D01*
X66884625Y-70409189D01*
X66952545Y-70245217D01*
X67051148Y-70097647D01*
X67176647Y-69972148D01*
X67324217Y-69873545D01*
X67488189Y-69805625D01*
X67637489Y-69775928D01*
X67662259Y-69771001D01*
X67839743Y-69771001D01*
X67864513Y-69775928D01*
X67864513Y-69775928D01*
G37*
G36*
X107285313Y-69775928D02*
G01*
X107434613Y-69805625D01*
X107598585Y-69873545D01*
X107746155Y-69972148D01*
X107871654Y-70097647D01*
X107970257Y-70245217D01*
X108038177Y-70409189D01*
X108072801Y-70583260D01*
X108072801Y-70760742D01*
X108038177Y-70934813D01*
X107970257Y-71098785D01*
X107871654Y-71246355D01*
X107746155Y-71371854D01*
X107598585Y-71470457D01*
X107434613Y-71538377D01*
X107285313Y-71568074D01*
X107260543Y-71573001D01*
X107083059Y-71573001D01*
X107058289Y-71568074D01*
X106908989Y-71538377D01*
X106745017Y-71470457D01*
X106597447Y-71371854D01*
X106471948Y-71246355D01*
X106373345Y-71098785D01*
X106305425Y-70934813D01*
X106270801Y-70760742D01*
X106270801Y-70583260D01*
X106305425Y-70409189D01*
X106373345Y-70245217D01*
X106471948Y-70097647D01*
X106597447Y-69972148D01*
X106745017Y-69873545D01*
X106908989Y-69805625D01*
X107058289Y-69775928D01*
X107083059Y-69771001D01*
X107260543Y-69771001D01*
X107285313Y-69775928D01*
X107285313Y-69775928D01*
G37*
G36*
X104745313Y-69775928D02*
G01*
X104894613Y-69805625D01*
X105058585Y-69873545D01*
X105206155Y-69972148D01*
X105331654Y-70097647D01*
X105430257Y-70245217D01*
X105498177Y-70409189D01*
X105532801Y-70583260D01*
X105532801Y-70760742D01*
X105498177Y-70934813D01*
X105430257Y-71098785D01*
X105331654Y-71246355D01*
X105206155Y-71371854D01*
X105058585Y-71470457D01*
X104894613Y-71538377D01*
X104745313Y-71568074D01*
X104720543Y-71573001D01*
X104543059Y-71573001D01*
X104518289Y-71568074D01*
X104368989Y-71538377D01*
X104205017Y-71470457D01*
X104057447Y-71371854D01*
X103931948Y-71246355D01*
X103833345Y-71098785D01*
X103765425Y-70934813D01*
X103730801Y-70760742D01*
X103730801Y-70583260D01*
X103765425Y-70409189D01*
X103833345Y-70245217D01*
X103931948Y-70097647D01*
X104057447Y-69972148D01*
X104205017Y-69873545D01*
X104368989Y-69805625D01*
X104518289Y-69775928D01*
X104543059Y-69771001D01*
X104720543Y-69771001D01*
X104745313Y-69775928D01*
X104745313Y-69775928D01*
G37*
G36*
X102992801Y-71573001D02*
G01*
X101190801Y-71573001D01*
X101190801Y-69771001D01*
X102992801Y-69771001D01*
X102992801Y-71573001D01*
X102992801Y-71573001D01*
G37*
G36*
X72941444Y-69777520D02*
G01*
X73007628Y-69784038D01*
X73177467Y-69835558D01*
X73333992Y-69919223D01*
X73360316Y-69940827D01*
X73471187Y-70031815D01*
X73554449Y-70133272D01*
X73583779Y-70169010D01*
X73667444Y-70325535D01*
X73718964Y-70495374D01*
X73736360Y-70672001D01*
X73718964Y-70848628D01*
X73667444Y-71018467D01*
X73583779Y-71174992D01*
X73555327Y-71209661D01*
X73471187Y-71312187D01*
X73398481Y-71371854D01*
X73333992Y-71424779D01*
X73177467Y-71508444D01*
X73007628Y-71559964D01*
X72941443Y-71566483D01*
X72875261Y-71573001D01*
X72786741Y-71573001D01*
X72720559Y-71566483D01*
X72654374Y-71559964D01*
X72484535Y-71508444D01*
X72328010Y-71424779D01*
X72263521Y-71371854D01*
X72190815Y-71312187D01*
X72106675Y-71209661D01*
X72078223Y-71174992D01*
X71994558Y-71018467D01*
X71943038Y-70848628D01*
X71925642Y-70672001D01*
X71943038Y-70495374D01*
X71994558Y-70325535D01*
X72078223Y-70169010D01*
X72107553Y-70133272D01*
X72190815Y-70031815D01*
X72301686Y-69940827D01*
X72328010Y-69919223D01*
X72484535Y-69835558D01*
X72654374Y-69784038D01*
X72720558Y-69777520D01*
X72786741Y-69771001D01*
X72875261Y-69771001D01*
X72941444Y-69777520D01*
X72941444Y-69777520D01*
G37*
G36*
X63834674Y-68965465D02*
G01*
X63872367Y-68976899D01*
X63907103Y-68995466D01*
X63937548Y-69020452D01*
X63962534Y-69050897D01*
X63981101Y-69085633D01*
X63992535Y-69123326D01*
X63997000Y-69168661D01*
X63997000Y-70005339D01*
X63992535Y-70050674D01*
X63981101Y-70088367D01*
X63962534Y-70123103D01*
X63937548Y-70153548D01*
X63907103Y-70178534D01*
X63872367Y-70197101D01*
X63834674Y-70208535D01*
X63789339Y-70213000D01*
X62702661Y-70213000D01*
X62657326Y-70208535D01*
X62619633Y-70197101D01*
X62584897Y-70178534D01*
X62554452Y-70153548D01*
X62529466Y-70123103D01*
X62510899Y-70088367D01*
X62499465Y-70050674D01*
X62495000Y-70005339D01*
X62495000Y-69168661D01*
X62499465Y-69123326D01*
X62510899Y-69085633D01*
X62529466Y-69050897D01*
X62554452Y-69020452D01*
X62584897Y-68995466D01*
X62619633Y-68976899D01*
X62657326Y-68965465D01*
X62702661Y-68961000D01*
X63789339Y-68961000D01*
X63834674Y-68965465D01*
X63834674Y-68965465D01*
G37*
G36*
X61548674Y-68956465D02*
G01*
X61586367Y-68967899D01*
X61621103Y-68986466D01*
X61651548Y-69011452D01*
X61676534Y-69041897D01*
X61695101Y-69076633D01*
X61706535Y-69114326D01*
X61711000Y-69159661D01*
X61711000Y-69996339D01*
X61706535Y-70041674D01*
X61695101Y-70079367D01*
X61676534Y-70114103D01*
X61651548Y-70144548D01*
X61621103Y-70169534D01*
X61586367Y-70188101D01*
X61548674Y-70199535D01*
X61503339Y-70204000D01*
X60416661Y-70204000D01*
X60371326Y-70199535D01*
X60333633Y-70188101D01*
X60298897Y-70169534D01*
X60268452Y-70144548D01*
X60243466Y-70114103D01*
X60224899Y-70079367D01*
X60213465Y-70041674D01*
X60209000Y-69996339D01*
X60209000Y-69159661D01*
X60213465Y-69114326D01*
X60224899Y-69076633D01*
X60243466Y-69041897D01*
X60268452Y-69011452D01*
X60298897Y-68986466D01*
X60333633Y-68967899D01*
X60371326Y-68956465D01*
X60416661Y-68952000D01*
X61503339Y-68952000D01*
X61548674Y-68956465D01*
X61548674Y-68956465D01*
G37*
G36*
X113446000Y-68694500D02*
G01*
X111344000Y-68694500D01*
X111344000Y-68206999D01*
X111341598Y-68182613D01*
X111334485Y-68159164D01*
X111322934Y-68137553D01*
X111307389Y-68118611D01*
X111288447Y-68103066D01*
X111266836Y-68091515D01*
X111243387Y-68084402D01*
X111219001Y-68082000D01*
X109602000Y-68082000D01*
X109602000Y-66780000D01*
X111219001Y-66780000D01*
X111243387Y-66777598D01*
X111266836Y-66770485D01*
X111288447Y-66758934D01*
X111307389Y-66743389D01*
X111322934Y-66724447D01*
X111334485Y-66702836D01*
X111339137Y-66687500D01*
X113446000Y-66687500D01*
X113446000Y-68694500D01*
X113446000Y-68694500D01*
G37*
G36*
X107704000Y-68102000D02*
G01*
X101202000Y-68102000D01*
X101202000Y-62200000D01*
X107704000Y-62200000D01*
X107704000Y-68102000D01*
X107704000Y-68102000D01*
G37*
G36*
X89485786Y-65639746D02*
G01*
X89516461Y-65649051D01*
X89544729Y-65664161D01*
X89569506Y-65684494D01*
X89589839Y-65709271D01*
X89604949Y-65737539D01*
X89614254Y-65768214D01*
X89618000Y-65806251D01*
X89618000Y-67817749D01*
X89614254Y-67855786D01*
X89604949Y-67886461D01*
X89589839Y-67914729D01*
X89569506Y-67939506D01*
X89544729Y-67959839D01*
X89516461Y-67974949D01*
X89485786Y-67984254D01*
X89447749Y-67988000D01*
X87336251Y-67988000D01*
X87298214Y-67984254D01*
X87267539Y-67974949D01*
X87239271Y-67959839D01*
X87214494Y-67939506D01*
X87194161Y-67914729D01*
X87179051Y-67886461D01*
X87169746Y-67855786D01*
X87166000Y-67817749D01*
X87166000Y-65806251D01*
X87169746Y-65768214D01*
X87179051Y-65737539D01*
X87194161Y-65709271D01*
X87214494Y-65684494D01*
X87239271Y-65664161D01*
X87267539Y-65649051D01*
X87298214Y-65639746D01*
X87336251Y-65636000D01*
X89447749Y-65636000D01*
X89485786Y-65639746D01*
X89485786Y-65639746D01*
G37*
G36*
X94246000Y-67576000D02*
G01*
X92444000Y-67576000D01*
X92444000Y-65774000D01*
X94246000Y-65774000D01*
X94246000Y-67576000D01*
X94246000Y-67576000D01*
G37*
G36*
X99326000Y-67576000D02*
G01*
X97524000Y-67576000D01*
X97524000Y-65774000D01*
X99326000Y-65774000D01*
X99326000Y-67576000D01*
X99326000Y-67576000D01*
G37*
G36*
X112540936Y-64152340D02*
G01*
X112639220Y-64162020D01*
X112828381Y-64219401D01*
X113002712Y-64312583D01*
X113155515Y-64437985D01*
X113280917Y-64590788D01*
X113374099Y-64765119D01*
X113431480Y-64954280D01*
X113450855Y-65151000D01*
X113431480Y-65347720D01*
X113374099Y-65536881D01*
X113280917Y-65711212D01*
X113155515Y-65864015D01*
X113002712Y-65989417D01*
X112828381Y-66082599D01*
X112639220Y-66139980D01*
X112540936Y-66149660D01*
X112491795Y-66154500D01*
X112298205Y-66154500D01*
X112249064Y-66149660D01*
X112150780Y-66139980D01*
X111961619Y-66082599D01*
X111787288Y-65989417D01*
X111634485Y-65864015D01*
X111621094Y-65847698D01*
X111603769Y-65830373D01*
X111583395Y-65816760D01*
X111560756Y-65807382D01*
X111524471Y-65802000D01*
X109602000Y-65802000D01*
X109602000Y-64500000D01*
X111524471Y-64500000D01*
X111548857Y-64497598D01*
X111572306Y-64490485D01*
X111593917Y-64478934D01*
X111621096Y-64454300D01*
X111634485Y-64437985D01*
X111787288Y-64312583D01*
X111961619Y-64219401D01*
X112150780Y-64162020D01*
X112249064Y-64152340D01*
X112298205Y-64147500D01*
X112491795Y-64147500D01*
X112540936Y-64152340D01*
X112540936Y-64152340D01*
G37*
G36*
X93455443Y-63240519D02*
G01*
X93521627Y-63247037D01*
X93691466Y-63298557D01*
X93847991Y-63382222D01*
X93861890Y-63393629D01*
X93985186Y-63494814D01*
X94068448Y-63596271D01*
X94097778Y-63632009D01*
X94181443Y-63788534D01*
X94232963Y-63958373D01*
X94250359Y-64135000D01*
X94232963Y-64311627D01*
X94181443Y-64481466D01*
X94097778Y-64637991D01*
X94068448Y-64673729D01*
X93985186Y-64775186D01*
X93883729Y-64858448D01*
X93847991Y-64887778D01*
X93847989Y-64887779D01*
X93723576Y-64954280D01*
X93691466Y-64971443D01*
X93521627Y-65022963D01*
X93455442Y-65029482D01*
X93389260Y-65036000D01*
X93300740Y-65036000D01*
X93234558Y-65029482D01*
X93168373Y-65022963D01*
X92998534Y-64971443D01*
X92966425Y-64954280D01*
X92842011Y-64887779D01*
X92842009Y-64887778D01*
X92806271Y-64858448D01*
X92704814Y-64775186D01*
X92621552Y-64673729D01*
X92592222Y-64637991D01*
X92508557Y-64481466D01*
X92457037Y-64311627D01*
X92439641Y-64135000D01*
X92457037Y-63958373D01*
X92508557Y-63788534D01*
X92592222Y-63632009D01*
X92621552Y-63596271D01*
X92704814Y-63494814D01*
X92828110Y-63393629D01*
X92842009Y-63382222D01*
X92998534Y-63298557D01*
X93168373Y-63247037D01*
X93234557Y-63240519D01*
X93300740Y-63234000D01*
X93389260Y-63234000D01*
X93455443Y-63240519D01*
X93455443Y-63240519D01*
G37*
G36*
X98535443Y-63240519D02*
G01*
X98601627Y-63247037D01*
X98771466Y-63298557D01*
X98927991Y-63382222D01*
X98941890Y-63393629D01*
X99065186Y-63494814D01*
X99148448Y-63596271D01*
X99177778Y-63632009D01*
X99261443Y-63788534D01*
X99312963Y-63958373D01*
X99330359Y-64135000D01*
X99312963Y-64311627D01*
X99261443Y-64481466D01*
X99177778Y-64637991D01*
X99148448Y-64673729D01*
X99065186Y-64775186D01*
X98963729Y-64858448D01*
X98927991Y-64887778D01*
X98927989Y-64887779D01*
X98803576Y-64954280D01*
X98771466Y-64971443D01*
X98601627Y-65022963D01*
X98535442Y-65029482D01*
X98469260Y-65036000D01*
X98380740Y-65036000D01*
X98314558Y-65029482D01*
X98248373Y-65022963D01*
X98078534Y-64971443D01*
X98046425Y-64954280D01*
X97922011Y-64887779D01*
X97922009Y-64887778D01*
X97886271Y-64858448D01*
X97784814Y-64775186D01*
X97701552Y-64673729D01*
X97672222Y-64637991D01*
X97588557Y-64481466D01*
X97537037Y-64311627D01*
X97519641Y-64135000D01*
X97537037Y-63958373D01*
X97588557Y-63788534D01*
X97672222Y-63632009D01*
X97701552Y-63596271D01*
X97784814Y-63494814D01*
X97908110Y-63393629D01*
X97922009Y-63382222D01*
X98078534Y-63298557D01*
X98248373Y-63247037D01*
X98314557Y-63240519D01*
X98380740Y-63234000D01*
X98469260Y-63234000D01*
X98535443Y-63240519D01*
X98535443Y-63240519D01*
G37*
G36*
X72388589Y-63373876D02*
G01*
X72487893Y-63393629D01*
X72628206Y-63451748D01*
X72754484Y-63536125D01*
X72861875Y-63643516D01*
X72946252Y-63769794D01*
X73004371Y-63910107D01*
X73013972Y-63958375D01*
X73034000Y-64059062D01*
X73034000Y-64210938D01*
X73032316Y-64219402D01*
X73004371Y-64359893D01*
X72946252Y-64500206D01*
X72861875Y-64626484D01*
X72754484Y-64733875D01*
X72628206Y-64818252D01*
X72487893Y-64876371D01*
X72388589Y-64896124D01*
X72338938Y-64906000D01*
X72187062Y-64906000D01*
X72137411Y-64896124D01*
X72038107Y-64876371D01*
X71897794Y-64818252D01*
X71771516Y-64733875D01*
X71664125Y-64626484D01*
X71579748Y-64500206D01*
X71521629Y-64359893D01*
X71493684Y-64219402D01*
X71492000Y-64210938D01*
X71492000Y-64059062D01*
X71512028Y-63958375D01*
X71521629Y-63910107D01*
X71579748Y-63769794D01*
X71664125Y-63643516D01*
X71771516Y-63536125D01*
X71897794Y-63451748D01*
X72038107Y-63393629D01*
X72137411Y-63373876D01*
X72187062Y-63364000D01*
X72338938Y-63364000D01*
X72388589Y-63373876D01*
X72388589Y-63373876D01*
G37*
G36*
X77976589Y-63373876D02*
G01*
X78075893Y-63393629D01*
X78216206Y-63451748D01*
X78342484Y-63536125D01*
X78449875Y-63643516D01*
X78534252Y-63769794D01*
X78592371Y-63910107D01*
X78601972Y-63958375D01*
X78622000Y-64059062D01*
X78622000Y-64210938D01*
X78620316Y-64219402D01*
X78592371Y-64359893D01*
X78534252Y-64500206D01*
X78449875Y-64626484D01*
X78342484Y-64733875D01*
X78216206Y-64818252D01*
X78075893Y-64876371D01*
X77976589Y-64896124D01*
X77926938Y-64906000D01*
X77775062Y-64906000D01*
X77725411Y-64896124D01*
X77626107Y-64876371D01*
X77485794Y-64818252D01*
X77359516Y-64733875D01*
X77252125Y-64626484D01*
X77167748Y-64500206D01*
X77109629Y-64359893D01*
X77081684Y-64219402D01*
X77080000Y-64210938D01*
X77080000Y-64059062D01*
X77100028Y-63958375D01*
X77109629Y-63910107D01*
X77167748Y-63769794D01*
X77252125Y-63643516D01*
X77359516Y-63536125D01*
X77485794Y-63451748D01*
X77626107Y-63393629D01*
X77725411Y-63373876D01*
X77775062Y-63364000D01*
X77926938Y-63364000D01*
X77976589Y-63373876D01*
X77976589Y-63373876D01*
G37*
G36*
X66800589Y-63373876D02*
G01*
X66899893Y-63393629D01*
X67040206Y-63451748D01*
X67166484Y-63536125D01*
X67273875Y-63643516D01*
X67358252Y-63769794D01*
X67416371Y-63910107D01*
X67425972Y-63958375D01*
X67446000Y-64059062D01*
X67446000Y-64210938D01*
X67444316Y-64219402D01*
X67416371Y-64359893D01*
X67358252Y-64500206D01*
X67273875Y-64626484D01*
X67166484Y-64733875D01*
X67040206Y-64818252D01*
X66899893Y-64876371D01*
X66800589Y-64896124D01*
X66750938Y-64906000D01*
X66599062Y-64906000D01*
X66549411Y-64896124D01*
X66450107Y-64876371D01*
X66309794Y-64818252D01*
X66183516Y-64733875D01*
X66076125Y-64626484D01*
X65991748Y-64500206D01*
X65933629Y-64359893D01*
X65905684Y-64219402D01*
X65904000Y-64210938D01*
X65904000Y-64059062D01*
X65924028Y-63958375D01*
X65933629Y-63910107D01*
X65991748Y-63769794D01*
X66076125Y-63643516D01*
X66183516Y-63536125D01*
X66309794Y-63451748D01*
X66450107Y-63393629D01*
X66549411Y-63373876D01*
X66599062Y-63364000D01*
X66750938Y-63364000D01*
X66800589Y-63373876D01*
X66800589Y-63373876D01*
G37*
G36*
X83564589Y-63373876D02*
G01*
X83663893Y-63393629D01*
X83804206Y-63451748D01*
X83930484Y-63536125D01*
X84037875Y-63643516D01*
X84122252Y-63769794D01*
X84180371Y-63910107D01*
X84189972Y-63958375D01*
X84210000Y-64059062D01*
X84210000Y-64210938D01*
X84208316Y-64219402D01*
X84180371Y-64359893D01*
X84122252Y-64500206D01*
X84037875Y-64626484D01*
X83930484Y-64733875D01*
X83804206Y-64818252D01*
X83663893Y-64876371D01*
X83564589Y-64896124D01*
X83514938Y-64906000D01*
X83363062Y-64906000D01*
X83313411Y-64896124D01*
X83214107Y-64876371D01*
X83073794Y-64818252D01*
X82947516Y-64733875D01*
X82840125Y-64626484D01*
X82755748Y-64500206D01*
X82697629Y-64359893D01*
X82669684Y-64219402D01*
X82668000Y-64210938D01*
X82668000Y-64059062D01*
X82688028Y-63958375D01*
X82697629Y-63910107D01*
X82755748Y-63769794D01*
X82840125Y-63643516D01*
X82947516Y-63536125D01*
X83073794Y-63451748D01*
X83214107Y-63393629D01*
X83313411Y-63373876D01*
X83363062Y-63364000D01*
X83514938Y-63364000D01*
X83564589Y-63373876D01*
X83564589Y-63373876D01*
G37*
G36*
X112540936Y-61612340D02*
G01*
X112639220Y-61622020D01*
X112828381Y-61679401D01*
X113002712Y-61772583D01*
X113155515Y-61897985D01*
X113280917Y-62050788D01*
X113374099Y-62225119D01*
X113431480Y-62414280D01*
X113450855Y-62611000D01*
X113431480Y-62807720D01*
X113374099Y-62996881D01*
X113280917Y-63171212D01*
X113155515Y-63324015D01*
X113002712Y-63449417D01*
X112828381Y-63542599D01*
X112639220Y-63599980D01*
X112540936Y-63609660D01*
X112491795Y-63614500D01*
X112298205Y-63614500D01*
X112249064Y-63609660D01*
X112150780Y-63599980D01*
X111961619Y-63542599D01*
X111950692Y-63536758D01*
X111928057Y-63527383D01*
X111904024Y-63522602D01*
X111891771Y-63522000D01*
X109602000Y-63522000D01*
X109602000Y-62220000D01*
X111343716Y-62220000D01*
X111368102Y-62217598D01*
X111391551Y-62210485D01*
X111413162Y-62198934D01*
X111432104Y-62183389D01*
X111453955Y-62153925D01*
X111490004Y-62086483D01*
X111509083Y-62050788D01*
X111634485Y-61897985D01*
X111787288Y-61772583D01*
X111961619Y-61679401D01*
X112150780Y-61622020D01*
X112249064Y-61612340D01*
X112298205Y-61607500D01*
X112491795Y-61607500D01*
X112540936Y-61612340D01*
X112540936Y-61612340D01*
G37*
G36*
X89485786Y-60539746D02*
G01*
X89516461Y-60549051D01*
X89544729Y-60564161D01*
X89569506Y-60584494D01*
X89589839Y-60609271D01*
X89604949Y-60637539D01*
X89614254Y-60668214D01*
X89618000Y-60706251D01*
X89618000Y-62717749D01*
X89614254Y-62755786D01*
X89604949Y-62786461D01*
X89589839Y-62814729D01*
X89569506Y-62839506D01*
X89544729Y-62859839D01*
X89516461Y-62874949D01*
X89485786Y-62884254D01*
X89447749Y-62888000D01*
X87336251Y-62888000D01*
X87298214Y-62884254D01*
X87267539Y-62874949D01*
X87239271Y-62859839D01*
X87214494Y-62839506D01*
X87194161Y-62814729D01*
X87179051Y-62786461D01*
X87169746Y-62755786D01*
X87166000Y-62717749D01*
X87166000Y-60706251D01*
X87169746Y-60668214D01*
X87179051Y-60637539D01*
X87194161Y-60609271D01*
X87214494Y-60584494D01*
X87239271Y-60564161D01*
X87267539Y-60549051D01*
X87298214Y-60539746D01*
X87336251Y-60536000D01*
X89447749Y-60536000D01*
X89485786Y-60539746D01*
X89485786Y-60539746D01*
G37*
G36*
X83564589Y-60833876D02*
G01*
X83663893Y-60853629D01*
X83804206Y-60911748D01*
X83930484Y-60996125D01*
X84037875Y-61103516D01*
X84122252Y-61229794D01*
X84180371Y-61370107D01*
X84180371Y-61370109D01*
X84210000Y-61519062D01*
X84210000Y-61670938D01*
X84208316Y-61679402D01*
X84180371Y-61819893D01*
X84122252Y-61960206D01*
X84037875Y-62086484D01*
X83930484Y-62193875D01*
X83804206Y-62278252D01*
X83663893Y-62336371D01*
X83564589Y-62356124D01*
X83514938Y-62366000D01*
X83363062Y-62366000D01*
X83313411Y-62356124D01*
X83214107Y-62336371D01*
X83073794Y-62278252D01*
X82947516Y-62193875D01*
X82840125Y-62086484D01*
X82755748Y-61960206D01*
X82697629Y-61819893D01*
X82669684Y-61679402D01*
X82668000Y-61670938D01*
X82668000Y-61519062D01*
X82697629Y-61370109D01*
X82697629Y-61370107D01*
X82755748Y-61229794D01*
X82840125Y-61103516D01*
X82947516Y-60996125D01*
X83073794Y-60911748D01*
X83214107Y-60853629D01*
X83313411Y-60833876D01*
X83363062Y-60824000D01*
X83514938Y-60824000D01*
X83564589Y-60833876D01*
X83564589Y-60833876D01*
G37*
G36*
X77976589Y-60833876D02*
G01*
X78075893Y-60853629D01*
X78216206Y-60911748D01*
X78342484Y-60996125D01*
X78449875Y-61103516D01*
X78534252Y-61229794D01*
X78592371Y-61370107D01*
X78592371Y-61370109D01*
X78622000Y-61519062D01*
X78622000Y-61670938D01*
X78620316Y-61679402D01*
X78592371Y-61819893D01*
X78534252Y-61960206D01*
X78449875Y-62086484D01*
X78342484Y-62193875D01*
X78216206Y-62278252D01*
X78075893Y-62336371D01*
X77976589Y-62356124D01*
X77926938Y-62366000D01*
X77775062Y-62366000D01*
X77725411Y-62356124D01*
X77626107Y-62336371D01*
X77485794Y-62278252D01*
X77359516Y-62193875D01*
X77252125Y-62086484D01*
X77167748Y-61960206D01*
X77109629Y-61819893D01*
X77081684Y-61679402D01*
X77080000Y-61670938D01*
X77080000Y-61519062D01*
X77109629Y-61370109D01*
X77109629Y-61370107D01*
X77167748Y-61229794D01*
X77252125Y-61103516D01*
X77359516Y-60996125D01*
X77485794Y-60911748D01*
X77626107Y-60853629D01*
X77725411Y-60833876D01*
X77775062Y-60824000D01*
X77926938Y-60824000D01*
X77976589Y-60833876D01*
X77976589Y-60833876D01*
G37*
G36*
X66800589Y-60833876D02*
G01*
X66899893Y-60853629D01*
X67040206Y-60911748D01*
X67166484Y-60996125D01*
X67273875Y-61103516D01*
X67358252Y-61229794D01*
X67416371Y-61370107D01*
X67416371Y-61370109D01*
X67446000Y-61519062D01*
X67446000Y-61670938D01*
X67444316Y-61679402D01*
X67416371Y-61819893D01*
X67358252Y-61960206D01*
X67273875Y-62086484D01*
X67166484Y-62193875D01*
X67040206Y-62278252D01*
X66899893Y-62336371D01*
X66800589Y-62356124D01*
X66750938Y-62366000D01*
X66599062Y-62366000D01*
X66549411Y-62356124D01*
X66450107Y-62336371D01*
X66309794Y-62278252D01*
X66183516Y-62193875D01*
X66076125Y-62086484D01*
X65991748Y-61960206D01*
X65933629Y-61819893D01*
X65905684Y-61679402D01*
X65904000Y-61670938D01*
X65904000Y-61519062D01*
X65933629Y-61370109D01*
X65933629Y-61370107D01*
X65991748Y-61229794D01*
X66076125Y-61103516D01*
X66183516Y-60996125D01*
X66309794Y-60911748D01*
X66450107Y-60853629D01*
X66549411Y-60833876D01*
X66599062Y-60824000D01*
X66750938Y-60824000D01*
X66800589Y-60833876D01*
X66800589Y-60833876D01*
G37*
G36*
X72388589Y-60833876D02*
G01*
X72487893Y-60853629D01*
X72628206Y-60911748D01*
X72754484Y-60996125D01*
X72861875Y-61103516D01*
X72946252Y-61229794D01*
X73004371Y-61370107D01*
X73004371Y-61370109D01*
X73034000Y-61519062D01*
X73034000Y-61670938D01*
X73032316Y-61679402D01*
X73004371Y-61819893D01*
X72946252Y-61960206D01*
X72861875Y-62086484D01*
X72754484Y-62193875D01*
X72628206Y-62278252D01*
X72487893Y-62336371D01*
X72388589Y-62356124D01*
X72338938Y-62366000D01*
X72187062Y-62366000D01*
X72137411Y-62356124D01*
X72038107Y-62336371D01*
X71897794Y-62278252D01*
X71771516Y-62193875D01*
X71664125Y-62086484D01*
X71579748Y-61960206D01*
X71521629Y-61819893D01*
X71493684Y-61679402D01*
X71492000Y-61670938D01*
X71492000Y-61519062D01*
X71521629Y-61370109D01*
X71521629Y-61370107D01*
X71579748Y-61229794D01*
X71664125Y-61103516D01*
X71771516Y-60996125D01*
X71897794Y-60911748D01*
X72038107Y-60853629D01*
X72137411Y-60833876D01*
X72187062Y-60824000D01*
X72338938Y-60824000D01*
X72388589Y-60833876D01*
X72388589Y-60833876D01*
G37*
G36*
X77976589Y-58293876D02*
G01*
X78075893Y-58313629D01*
X78216206Y-58371748D01*
X78342484Y-58456125D01*
X78449875Y-58563516D01*
X78534252Y-58689794D01*
X78592371Y-58830107D01*
X78622000Y-58979063D01*
X78622000Y-59130937D01*
X78592371Y-59279893D01*
X78534252Y-59420206D01*
X78449875Y-59546484D01*
X78342484Y-59653875D01*
X78216206Y-59738252D01*
X78075893Y-59796371D01*
X77976589Y-59816124D01*
X77926938Y-59826000D01*
X77775062Y-59826000D01*
X77725411Y-59816124D01*
X77626107Y-59796371D01*
X77485794Y-59738252D01*
X77359516Y-59653875D01*
X77252125Y-59546484D01*
X77167748Y-59420206D01*
X77109629Y-59279893D01*
X77080000Y-59130937D01*
X77080000Y-58979063D01*
X77109629Y-58830107D01*
X77167748Y-58689794D01*
X77252125Y-58563516D01*
X77359516Y-58456125D01*
X77485794Y-58371748D01*
X77626107Y-58313629D01*
X77725411Y-58293876D01*
X77775062Y-58284000D01*
X77926938Y-58284000D01*
X77976589Y-58293876D01*
X77976589Y-58293876D01*
G37*
G36*
X83564589Y-58293876D02*
G01*
X83663893Y-58313629D01*
X83804206Y-58371748D01*
X83930484Y-58456125D01*
X84037875Y-58563516D01*
X84122252Y-58689794D01*
X84180371Y-58830107D01*
X84210000Y-58979063D01*
X84210000Y-59130937D01*
X84180371Y-59279893D01*
X84122252Y-59420206D01*
X84037875Y-59546484D01*
X83930484Y-59653875D01*
X83804206Y-59738252D01*
X83663893Y-59796371D01*
X83564589Y-59816124D01*
X83514938Y-59826000D01*
X83363062Y-59826000D01*
X83313411Y-59816124D01*
X83214107Y-59796371D01*
X83073794Y-59738252D01*
X82947516Y-59653875D01*
X82840125Y-59546484D01*
X82755748Y-59420206D01*
X82697629Y-59279893D01*
X82668000Y-59130937D01*
X82668000Y-58979063D01*
X82697629Y-58830107D01*
X82755748Y-58689794D01*
X82840125Y-58563516D01*
X82947516Y-58456125D01*
X83073794Y-58371748D01*
X83214107Y-58313629D01*
X83313411Y-58293876D01*
X83363062Y-58284000D01*
X83514938Y-58284000D01*
X83564589Y-58293876D01*
X83564589Y-58293876D01*
G37*
G36*
X72388589Y-58293876D02*
G01*
X72487893Y-58313629D01*
X72628206Y-58371748D01*
X72754484Y-58456125D01*
X72861875Y-58563516D01*
X72946252Y-58689794D01*
X73004371Y-58830107D01*
X73034000Y-58979063D01*
X73034000Y-59130937D01*
X73004371Y-59279893D01*
X72946252Y-59420206D01*
X72861875Y-59546484D01*
X72754484Y-59653875D01*
X72628206Y-59738252D01*
X72487893Y-59796371D01*
X72388589Y-59816124D01*
X72338938Y-59826000D01*
X72187062Y-59826000D01*
X72137411Y-59816124D01*
X72038107Y-59796371D01*
X71897794Y-59738252D01*
X71771516Y-59653875D01*
X71664125Y-59546484D01*
X71579748Y-59420206D01*
X71521629Y-59279893D01*
X71492000Y-59130937D01*
X71492000Y-58979063D01*
X71521629Y-58830107D01*
X71579748Y-58689794D01*
X71664125Y-58563516D01*
X71771516Y-58456125D01*
X71897794Y-58371748D01*
X72038107Y-58313629D01*
X72137411Y-58293876D01*
X72187062Y-58284000D01*
X72338938Y-58284000D01*
X72388589Y-58293876D01*
X72388589Y-58293876D01*
G37*
G36*
X66800589Y-58293876D02*
G01*
X66899893Y-58313629D01*
X67040206Y-58371748D01*
X67166484Y-58456125D01*
X67273875Y-58563516D01*
X67358252Y-58689794D01*
X67416371Y-58830107D01*
X67446000Y-58979063D01*
X67446000Y-59130937D01*
X67416371Y-59279893D01*
X67358252Y-59420206D01*
X67273875Y-59546484D01*
X67166484Y-59653875D01*
X67040206Y-59738252D01*
X66899893Y-59796371D01*
X66800589Y-59816124D01*
X66750938Y-59826000D01*
X66599062Y-59826000D01*
X66549411Y-59816124D01*
X66450107Y-59796371D01*
X66309794Y-59738252D01*
X66183516Y-59653875D01*
X66076125Y-59546484D01*
X65991748Y-59420206D01*
X65933629Y-59279893D01*
X65904000Y-59130937D01*
X65904000Y-58979063D01*
X65933629Y-58830107D01*
X65991748Y-58689794D01*
X66076125Y-58563516D01*
X66183516Y-58456125D01*
X66309794Y-58371748D01*
X66450107Y-58313629D01*
X66549411Y-58293876D01*
X66599062Y-58284000D01*
X66750938Y-58284000D01*
X66800589Y-58293876D01*
X66800589Y-58293876D01*
G37*
G36*
X108538674Y-58188465D02*
G01*
X108576367Y-58199899D01*
X108611103Y-58218466D01*
X108641548Y-58243452D01*
X108666534Y-58273897D01*
X108685101Y-58308633D01*
X108696535Y-58346326D01*
X108701000Y-58391661D01*
X108701000Y-59228339D01*
X108696535Y-59273674D01*
X108685101Y-59311367D01*
X108666534Y-59346103D01*
X108641548Y-59376548D01*
X108611103Y-59401534D01*
X108576367Y-59420101D01*
X108538674Y-59431535D01*
X108493339Y-59436000D01*
X107406661Y-59436000D01*
X107361326Y-59431535D01*
X107323633Y-59420101D01*
X107288897Y-59401534D01*
X107258452Y-59376548D01*
X107233466Y-59346103D01*
X107214899Y-59311367D01*
X107203465Y-59273674D01*
X107199000Y-59228339D01*
X107199000Y-58391661D01*
X107203465Y-58346326D01*
X107214899Y-58308633D01*
X107233466Y-58273897D01*
X107258452Y-58243452D01*
X107288897Y-58218466D01*
X107323633Y-58199899D01*
X107361326Y-58188465D01*
X107406661Y-58184000D01*
X108493339Y-58184000D01*
X108538674Y-58188465D01*
X108538674Y-58188465D01*
G37*
G36*
X88719674Y-57546465D02*
G01*
X88757367Y-57557899D01*
X88792103Y-57576466D01*
X88822548Y-57601452D01*
X88847534Y-57631897D01*
X88866101Y-57666633D01*
X88877535Y-57704326D01*
X88882000Y-57749661D01*
X88882000Y-58836339D01*
X88877535Y-58881674D01*
X88866101Y-58919367D01*
X88847534Y-58954103D01*
X88822548Y-58984548D01*
X88792103Y-59009534D01*
X88757367Y-59028101D01*
X88719674Y-59039535D01*
X88674339Y-59044000D01*
X87837661Y-59044000D01*
X87792326Y-59039535D01*
X87754633Y-59028101D01*
X87719897Y-59009534D01*
X87689452Y-58984548D01*
X87664466Y-58954103D01*
X87645899Y-58919367D01*
X87634465Y-58881674D01*
X87630000Y-58836339D01*
X87630000Y-57749661D01*
X87634465Y-57704326D01*
X87645899Y-57666633D01*
X87664466Y-57631897D01*
X87689452Y-57601452D01*
X87719897Y-57576466D01*
X87754633Y-57557899D01*
X87792326Y-57546465D01*
X87837661Y-57542000D01*
X88674339Y-57542000D01*
X88719674Y-57546465D01*
X88719674Y-57546465D01*
G37*
G36*
X90769674Y-57546465D02*
G01*
X90807367Y-57557899D01*
X90842103Y-57576466D01*
X90872548Y-57601452D01*
X90897534Y-57631897D01*
X90916101Y-57666633D01*
X90927535Y-57704326D01*
X90932000Y-57749661D01*
X90932000Y-58836339D01*
X90927535Y-58881674D01*
X90916101Y-58919367D01*
X90897534Y-58954103D01*
X90872548Y-58984548D01*
X90842103Y-59009534D01*
X90807367Y-59028101D01*
X90769674Y-59039535D01*
X90724339Y-59044000D01*
X89887661Y-59044000D01*
X89842326Y-59039535D01*
X89804633Y-59028101D01*
X89769897Y-59009534D01*
X89739452Y-58984548D01*
X89714466Y-58954103D01*
X89695899Y-58919367D01*
X89684465Y-58881674D01*
X89680000Y-58836339D01*
X89680000Y-57749661D01*
X89684465Y-57704326D01*
X89695899Y-57666633D01*
X89714466Y-57631897D01*
X89739452Y-57601452D01*
X89769897Y-57576466D01*
X89804633Y-57557899D01*
X89842326Y-57546465D01*
X89887661Y-57542000D01*
X90724339Y-57542000D01*
X90769674Y-57546465D01*
X90769674Y-57546465D01*
G37*
G36*
X103002928Y-56188764D02*
G01*
X103024009Y-56195160D01*
X103043445Y-56205548D01*
X103060476Y-56219524D01*
X103074452Y-56236555D01*
X103084840Y-56255991D01*
X103091236Y-56277072D01*
X103094000Y-56305140D01*
X103094000Y-58118860D01*
X103091236Y-58146928D01*
X103084840Y-58168009D01*
X103074452Y-58187445D01*
X103060476Y-58204476D01*
X103043445Y-58218452D01*
X103024009Y-58228840D01*
X103002928Y-58235236D01*
X102974860Y-58238000D01*
X102511140Y-58238000D01*
X102483072Y-58235236D01*
X102461991Y-58228840D01*
X102442555Y-58218452D01*
X102425524Y-58204476D01*
X102411548Y-58187445D01*
X102401160Y-58168009D01*
X102394764Y-58146928D01*
X102392000Y-58118860D01*
X102392000Y-56305140D01*
X102394764Y-56277072D01*
X102401160Y-56255991D01*
X102411548Y-56236555D01*
X102425524Y-56219524D01*
X102442555Y-56205548D01*
X102461991Y-56195160D01*
X102483072Y-56188764D01*
X102511140Y-56186000D01*
X102974860Y-56186000D01*
X103002928Y-56188764D01*
X103002928Y-56188764D01*
G37*
G36*
X104272928Y-56188764D02*
G01*
X104294009Y-56195160D01*
X104313445Y-56205548D01*
X104330476Y-56219524D01*
X104344452Y-56236555D01*
X104354840Y-56255991D01*
X104361236Y-56277072D01*
X104364000Y-56305140D01*
X104364000Y-58118860D01*
X104361236Y-58146928D01*
X104354840Y-58168009D01*
X104344452Y-58187445D01*
X104330476Y-58204476D01*
X104313445Y-58218452D01*
X104294009Y-58228840D01*
X104272928Y-58235236D01*
X104244860Y-58238000D01*
X103781140Y-58238000D01*
X103753072Y-58235236D01*
X103731991Y-58228840D01*
X103712555Y-58218452D01*
X103695524Y-58204476D01*
X103681548Y-58187445D01*
X103671160Y-58168009D01*
X103664764Y-58146928D01*
X103662000Y-58118860D01*
X103662000Y-56305140D01*
X103664764Y-56277072D01*
X103671160Y-56255991D01*
X103681548Y-56236555D01*
X103695524Y-56219524D01*
X103712555Y-56205548D01*
X103731991Y-56195160D01*
X103753072Y-56188764D01*
X103781140Y-56186000D01*
X104244860Y-56186000D01*
X104272928Y-56188764D01*
X104272928Y-56188764D01*
G37*
G36*
X101732928Y-56188764D02*
G01*
X101754009Y-56195160D01*
X101773445Y-56205548D01*
X101790476Y-56219524D01*
X101804452Y-56236555D01*
X101814840Y-56255991D01*
X101821236Y-56277072D01*
X101824000Y-56305140D01*
X101824000Y-58118860D01*
X101821236Y-58146928D01*
X101814840Y-58168009D01*
X101804452Y-58187445D01*
X101790476Y-58204476D01*
X101773445Y-58218452D01*
X101754009Y-58228840D01*
X101732928Y-58235236D01*
X101704860Y-58238000D01*
X101241140Y-58238000D01*
X101213072Y-58235236D01*
X101191991Y-58228840D01*
X101172555Y-58218452D01*
X101155524Y-58204476D01*
X101141548Y-58187445D01*
X101131160Y-58168009D01*
X101124764Y-58146928D01*
X101122000Y-58118860D01*
X101122000Y-56305140D01*
X101124764Y-56277072D01*
X101131160Y-56255991D01*
X101141548Y-56236555D01*
X101155524Y-56219524D01*
X101172555Y-56205548D01*
X101191991Y-56195160D01*
X101213072Y-56188764D01*
X101241140Y-56186000D01*
X101704860Y-56186000D01*
X101732928Y-56188764D01*
X101732928Y-56188764D01*
G37*
G36*
X100462928Y-56188764D02*
G01*
X100484009Y-56195160D01*
X100503445Y-56205548D01*
X100520476Y-56219524D01*
X100534452Y-56236555D01*
X100544840Y-56255991D01*
X100551236Y-56277072D01*
X100554000Y-56305140D01*
X100554000Y-58118860D01*
X100551236Y-58146928D01*
X100544840Y-58168009D01*
X100534452Y-58187445D01*
X100520476Y-58204476D01*
X100503445Y-58218452D01*
X100484009Y-58228840D01*
X100462928Y-58235236D01*
X100434860Y-58238000D01*
X99971140Y-58238000D01*
X99943072Y-58235236D01*
X99921991Y-58228840D01*
X99902555Y-58218452D01*
X99885524Y-58204476D01*
X99871548Y-58187445D01*
X99861160Y-58168009D01*
X99854764Y-58146928D01*
X99852000Y-58118860D01*
X99852000Y-56305140D01*
X99854764Y-56277072D01*
X99861160Y-56255991D01*
X99871548Y-56236555D01*
X99885524Y-56219524D01*
X99902555Y-56205548D01*
X99921991Y-56195160D01*
X99943072Y-56188764D01*
X99971140Y-56186000D01*
X100434860Y-56186000D01*
X100462928Y-56188764D01*
X100462928Y-56188764D01*
G37*
G36*
X99192928Y-56188764D02*
G01*
X99214009Y-56195160D01*
X99233445Y-56205548D01*
X99250476Y-56219524D01*
X99264452Y-56236555D01*
X99274840Y-56255991D01*
X99281236Y-56277072D01*
X99284000Y-56305140D01*
X99284000Y-58118860D01*
X99281236Y-58146928D01*
X99274840Y-58168009D01*
X99264452Y-58187445D01*
X99250476Y-58204476D01*
X99233445Y-58218452D01*
X99214009Y-58228840D01*
X99192928Y-58235236D01*
X99164860Y-58238000D01*
X98701140Y-58238000D01*
X98673072Y-58235236D01*
X98651991Y-58228840D01*
X98632555Y-58218452D01*
X98615524Y-58204476D01*
X98601548Y-58187445D01*
X98591160Y-58168009D01*
X98584764Y-58146928D01*
X98582000Y-58118860D01*
X98582000Y-56305140D01*
X98584764Y-56277072D01*
X98591160Y-56255991D01*
X98601548Y-56236555D01*
X98615524Y-56219524D01*
X98632555Y-56205548D01*
X98651991Y-56195160D01*
X98673072Y-56188764D01*
X98701140Y-56186000D01*
X99164860Y-56186000D01*
X99192928Y-56188764D01*
X99192928Y-56188764D01*
G37*
G36*
X97922928Y-56188764D02*
G01*
X97944009Y-56195160D01*
X97963445Y-56205548D01*
X97980476Y-56219524D01*
X97994452Y-56236555D01*
X98004840Y-56255991D01*
X98011236Y-56277072D01*
X98014000Y-56305140D01*
X98014000Y-58118860D01*
X98011236Y-58146928D01*
X98004840Y-58168009D01*
X97994452Y-58187445D01*
X97980476Y-58204476D01*
X97963445Y-58218452D01*
X97944009Y-58228840D01*
X97922928Y-58235236D01*
X97894860Y-58238000D01*
X97431140Y-58238000D01*
X97403072Y-58235236D01*
X97381991Y-58228840D01*
X97362555Y-58218452D01*
X97345524Y-58204476D01*
X97331548Y-58187445D01*
X97321160Y-58168009D01*
X97314764Y-58146928D01*
X97312000Y-58118860D01*
X97312000Y-56305140D01*
X97314764Y-56277072D01*
X97321160Y-56255991D01*
X97331548Y-56236555D01*
X97345524Y-56219524D01*
X97362555Y-56205548D01*
X97381991Y-56195160D01*
X97403072Y-56188764D01*
X97431140Y-56186000D01*
X97894860Y-56186000D01*
X97922928Y-56188764D01*
X97922928Y-56188764D01*
G37*
G36*
X96652928Y-56188764D02*
G01*
X96674009Y-56195160D01*
X96693445Y-56205548D01*
X96710476Y-56219524D01*
X96724452Y-56236555D01*
X96734840Y-56255991D01*
X96741236Y-56277072D01*
X96744000Y-56305140D01*
X96744000Y-58118860D01*
X96741236Y-58146928D01*
X96734840Y-58168009D01*
X96724452Y-58187445D01*
X96710476Y-58204476D01*
X96693445Y-58218452D01*
X96674009Y-58228840D01*
X96652928Y-58235236D01*
X96624860Y-58238000D01*
X96161140Y-58238000D01*
X96133072Y-58235236D01*
X96111991Y-58228840D01*
X96092555Y-58218452D01*
X96075524Y-58204476D01*
X96061548Y-58187445D01*
X96051160Y-58168009D01*
X96044764Y-58146928D01*
X96042000Y-58118860D01*
X96042000Y-56305140D01*
X96044764Y-56277072D01*
X96051160Y-56255991D01*
X96061548Y-56236555D01*
X96075524Y-56219524D01*
X96092555Y-56205548D01*
X96111991Y-56195160D01*
X96133072Y-56188764D01*
X96161140Y-56186000D01*
X96624860Y-56186000D01*
X96652928Y-56188764D01*
X96652928Y-56188764D01*
G37*
G36*
X108538674Y-56138465D02*
G01*
X108576367Y-56149899D01*
X108611103Y-56168466D01*
X108641548Y-56193452D01*
X108666534Y-56223897D01*
X108685101Y-56258633D01*
X108696535Y-56296326D01*
X108701000Y-56341661D01*
X108701000Y-57178339D01*
X108696535Y-57223674D01*
X108685101Y-57261367D01*
X108666534Y-57296103D01*
X108641548Y-57326548D01*
X108611103Y-57351534D01*
X108576367Y-57370101D01*
X108538674Y-57381535D01*
X108493339Y-57386000D01*
X107406661Y-57386000D01*
X107361326Y-57381535D01*
X107323633Y-57370101D01*
X107288897Y-57351534D01*
X107258452Y-57326548D01*
X107233466Y-57296103D01*
X107214899Y-57261367D01*
X107203465Y-57223674D01*
X107199000Y-57178339D01*
X107199000Y-56341661D01*
X107203465Y-56296326D01*
X107214899Y-56258633D01*
X107233466Y-56223897D01*
X107258452Y-56193452D01*
X107288897Y-56168466D01*
X107323633Y-56149899D01*
X107361326Y-56138465D01*
X107406661Y-56134000D01*
X108493339Y-56134000D01*
X108538674Y-56138465D01*
X108538674Y-56138465D01*
G37*
G36*
X115588801Y-57348001D02*
G01*
X113676801Y-57348001D01*
X113676801Y-52246001D01*
X115588801Y-52246001D01*
X115588801Y-57348001D01*
X115588801Y-57348001D01*
G37*
G36*
X62001401Y-57348001D02*
G01*
X60089401Y-57348001D01*
X60089401Y-52246001D01*
X62001401Y-52246001D01*
X62001401Y-57348001D01*
X62001401Y-57348001D01*
G37*
G36*
X90769674Y-55387465D02*
G01*
X90807367Y-55398899D01*
X90842103Y-55417466D01*
X90872548Y-55442452D01*
X90897534Y-55472897D01*
X90916101Y-55507633D01*
X90927535Y-55545326D01*
X90932000Y-55590661D01*
X90932000Y-56677339D01*
X90927535Y-56722674D01*
X90916101Y-56760367D01*
X90897534Y-56795103D01*
X90872548Y-56825548D01*
X90842103Y-56850534D01*
X90807367Y-56869101D01*
X90769674Y-56880535D01*
X90724339Y-56885000D01*
X89887661Y-56885000D01*
X89842326Y-56880535D01*
X89804633Y-56869101D01*
X89769897Y-56850534D01*
X89739452Y-56825548D01*
X89714466Y-56795103D01*
X89695899Y-56760367D01*
X89684465Y-56722674D01*
X89680000Y-56677339D01*
X89680000Y-55590661D01*
X89684465Y-55545326D01*
X89695899Y-55507633D01*
X89714466Y-55472897D01*
X89739452Y-55442452D01*
X89769897Y-55417466D01*
X89804633Y-55398899D01*
X89842326Y-55387465D01*
X89887661Y-55383000D01*
X90724339Y-55383000D01*
X90769674Y-55387465D01*
X90769674Y-55387465D01*
G37*
G36*
X88719674Y-55387465D02*
G01*
X88757367Y-55398899D01*
X88792103Y-55417466D01*
X88822548Y-55442452D01*
X88847534Y-55472897D01*
X88866101Y-55507633D01*
X88877535Y-55545326D01*
X88882000Y-55590661D01*
X88882000Y-56677339D01*
X88877535Y-56722674D01*
X88866101Y-56760367D01*
X88847534Y-56795103D01*
X88822548Y-56825548D01*
X88792103Y-56850534D01*
X88757367Y-56869101D01*
X88719674Y-56880535D01*
X88674339Y-56885000D01*
X87837661Y-56885000D01*
X87792326Y-56880535D01*
X87754633Y-56869101D01*
X87719897Y-56850534D01*
X87689452Y-56825548D01*
X87664466Y-56795103D01*
X87645899Y-56760367D01*
X87634465Y-56722674D01*
X87630000Y-56677339D01*
X87630000Y-55590661D01*
X87634465Y-55545326D01*
X87645899Y-55507633D01*
X87664466Y-55472897D01*
X87689452Y-55442452D01*
X87719897Y-55417466D01*
X87754633Y-55398899D01*
X87792326Y-55387465D01*
X87837661Y-55383000D01*
X88674339Y-55383000D01*
X88719674Y-55387465D01*
X88719674Y-55387465D01*
G37*
G36*
X69960442Y-53715518D02*
G01*
X70026627Y-53722037D01*
X70196466Y-53773557D01*
X70352991Y-53857222D01*
X70388729Y-53886552D01*
X70490186Y-53969814D01*
X70570369Y-54067519D01*
X70602778Y-54107009D01*
X70686443Y-54263534D01*
X70737963Y-54433373D01*
X70755359Y-54610000D01*
X70737963Y-54786627D01*
X70686443Y-54956466D01*
X70602778Y-55112991D01*
X70573448Y-55148729D01*
X70490186Y-55250186D01*
X70388729Y-55333448D01*
X70352991Y-55362778D01*
X70196466Y-55446443D01*
X70026627Y-55497963D01*
X69965717Y-55503962D01*
X69894260Y-55511000D01*
X69805740Y-55511000D01*
X69734283Y-55503962D01*
X69673373Y-55497963D01*
X69503534Y-55446443D01*
X69347009Y-55362778D01*
X69311271Y-55333448D01*
X69209814Y-55250186D01*
X69126552Y-55148729D01*
X69097222Y-55112991D01*
X69013557Y-54956466D01*
X68962037Y-54786627D01*
X68944641Y-54610000D01*
X68962037Y-54433373D01*
X69013557Y-54263534D01*
X69097222Y-54107009D01*
X69129631Y-54067519D01*
X69209814Y-53969814D01*
X69311271Y-53886552D01*
X69347009Y-53857222D01*
X69503534Y-53773557D01*
X69673373Y-53722037D01*
X69739558Y-53715518D01*
X69805740Y-53709000D01*
X69894260Y-53709000D01*
X69960442Y-53715518D01*
X69960442Y-53715518D01*
G37*
G36*
X66150442Y-53715518D02*
G01*
X66216627Y-53722037D01*
X66386466Y-53773557D01*
X66542991Y-53857222D01*
X66578729Y-53886552D01*
X66680186Y-53969814D01*
X66760369Y-54067519D01*
X66792778Y-54107009D01*
X66876443Y-54263534D01*
X66927963Y-54433373D01*
X66945359Y-54610000D01*
X66927963Y-54786627D01*
X66876443Y-54956466D01*
X66792778Y-55112991D01*
X66763448Y-55148729D01*
X66680186Y-55250186D01*
X66578729Y-55333448D01*
X66542991Y-55362778D01*
X66386466Y-55446443D01*
X66216627Y-55497963D01*
X66155717Y-55503962D01*
X66084260Y-55511000D01*
X65995740Y-55511000D01*
X65924283Y-55503962D01*
X65863373Y-55497963D01*
X65693534Y-55446443D01*
X65537009Y-55362778D01*
X65501271Y-55333448D01*
X65399814Y-55250186D01*
X65316552Y-55148729D01*
X65287222Y-55112991D01*
X65203557Y-54956466D01*
X65152037Y-54786627D01*
X65134641Y-54610000D01*
X65152037Y-54433373D01*
X65203557Y-54263534D01*
X65287222Y-54107009D01*
X65319631Y-54067519D01*
X65399814Y-53969814D01*
X65501271Y-53886552D01*
X65537009Y-53857222D01*
X65693534Y-53773557D01*
X65863373Y-53722037D01*
X65929558Y-53715518D01*
X65995740Y-53709000D01*
X66084260Y-53709000D01*
X66150442Y-53715518D01*
X66150442Y-53715518D01*
G37*
G36*
X82081823Y-53771313D02*
G01*
X82242242Y-53819976D01*
X82309361Y-53855852D01*
X82390078Y-53898996D01*
X82519659Y-54005341D01*
X82626004Y-54134922D01*
X82626005Y-54134924D01*
X82705024Y-54282758D01*
X82753687Y-54443177D01*
X82770117Y-54610000D01*
X82753687Y-54776823D01*
X82705024Y-54937242D01*
X82664477Y-55013100D01*
X82626004Y-55085078D01*
X82519659Y-55214659D01*
X82390078Y-55321004D01*
X82390076Y-55321005D01*
X82242242Y-55400024D01*
X82081823Y-55448687D01*
X81956804Y-55461000D01*
X81873196Y-55461000D01*
X81748177Y-55448687D01*
X81587758Y-55400024D01*
X81439924Y-55321005D01*
X81439922Y-55321004D01*
X81310341Y-55214659D01*
X81203996Y-55085078D01*
X81165523Y-55013100D01*
X81124976Y-54937242D01*
X81076313Y-54776823D01*
X81059883Y-54610000D01*
X81076313Y-54443177D01*
X81124976Y-54282758D01*
X81203995Y-54134924D01*
X81203996Y-54134922D01*
X81310341Y-54005341D01*
X81439922Y-53898996D01*
X81520639Y-53855852D01*
X81587758Y-53819976D01*
X81748177Y-53771313D01*
X81873196Y-53759000D01*
X81956804Y-53759000D01*
X82081823Y-53771313D01*
X82081823Y-53771313D01*
G37*
G36*
X74543228Y-53791703D02*
G01*
X74698100Y-53855853D01*
X74837481Y-53948985D01*
X74956015Y-54067519D01*
X75049147Y-54206900D01*
X75113297Y-54361772D01*
X75146000Y-54526184D01*
X75146000Y-54693816D01*
X75113297Y-54858228D01*
X75049147Y-55013100D01*
X74956015Y-55152481D01*
X74837481Y-55271015D01*
X74698100Y-55364147D01*
X74543228Y-55428297D01*
X74378816Y-55461000D01*
X74211184Y-55461000D01*
X74046772Y-55428297D01*
X73891900Y-55364147D01*
X73752519Y-55271015D01*
X73633985Y-55152481D01*
X73540853Y-55013100D01*
X73476703Y-54858228D01*
X73444000Y-54693816D01*
X73444000Y-54526184D01*
X73476703Y-54361772D01*
X73540853Y-54206900D01*
X73633985Y-54067519D01*
X73752519Y-53948985D01*
X73891900Y-53855853D01*
X74046772Y-53791703D01*
X74211184Y-53759000D01*
X74378816Y-53759000D01*
X74543228Y-53791703D01*
X74543228Y-53791703D01*
G37*
G36*
X88719674Y-53228465D02*
G01*
X88757367Y-53239899D01*
X88792103Y-53258466D01*
X88822548Y-53283452D01*
X88847534Y-53313897D01*
X88866101Y-53348633D01*
X88877535Y-53386326D01*
X88882000Y-53431661D01*
X88882000Y-54518339D01*
X88877535Y-54563674D01*
X88866101Y-54601367D01*
X88847534Y-54636103D01*
X88822548Y-54666548D01*
X88792103Y-54691534D01*
X88757367Y-54710101D01*
X88719674Y-54721535D01*
X88674339Y-54726000D01*
X87837661Y-54726000D01*
X87792326Y-54721535D01*
X87754633Y-54710101D01*
X87719897Y-54691534D01*
X87689452Y-54666548D01*
X87664466Y-54636103D01*
X87645899Y-54601367D01*
X87634465Y-54563674D01*
X87630000Y-54518339D01*
X87630000Y-53431661D01*
X87634465Y-53386326D01*
X87645899Y-53348633D01*
X87664466Y-53313897D01*
X87689452Y-53283452D01*
X87719897Y-53258466D01*
X87754633Y-53239899D01*
X87792326Y-53228465D01*
X87837661Y-53224000D01*
X88674339Y-53224000D01*
X88719674Y-53228465D01*
X88719674Y-53228465D01*
G37*
G36*
X94833674Y-53228465D02*
G01*
X94871367Y-53239899D01*
X94906103Y-53258466D01*
X94936548Y-53283452D01*
X94961534Y-53313897D01*
X94980101Y-53348633D01*
X94991535Y-53386326D01*
X94996000Y-53431661D01*
X94996000Y-54518339D01*
X94991535Y-54563674D01*
X94980101Y-54601367D01*
X94961534Y-54636103D01*
X94936548Y-54666548D01*
X94906103Y-54691534D01*
X94871367Y-54710101D01*
X94833674Y-54721535D01*
X94788339Y-54726000D01*
X93951661Y-54726000D01*
X93906326Y-54721535D01*
X93868633Y-54710101D01*
X93833897Y-54691534D01*
X93803452Y-54666548D01*
X93778466Y-54636103D01*
X93759899Y-54601367D01*
X93748465Y-54563674D01*
X93744000Y-54518339D01*
X93744000Y-53431661D01*
X93748465Y-53386326D01*
X93759899Y-53348633D01*
X93778466Y-53313897D01*
X93803452Y-53283452D01*
X93833897Y-53258466D01*
X93868633Y-53239899D01*
X93906326Y-53228465D01*
X93951661Y-53224000D01*
X94788339Y-53224000D01*
X94833674Y-53228465D01*
X94833674Y-53228465D01*
G37*
G36*
X92783674Y-53228465D02*
G01*
X92821367Y-53239899D01*
X92856103Y-53258466D01*
X92886548Y-53283452D01*
X92911534Y-53313897D01*
X92930101Y-53348633D01*
X92941535Y-53386326D01*
X92946000Y-53431661D01*
X92946000Y-54518339D01*
X92941535Y-54563674D01*
X92930101Y-54601367D01*
X92911534Y-54636103D01*
X92886548Y-54666548D01*
X92856103Y-54691534D01*
X92821367Y-54710101D01*
X92783674Y-54721535D01*
X92738339Y-54726000D01*
X91901661Y-54726000D01*
X91856326Y-54721535D01*
X91818633Y-54710101D01*
X91783897Y-54691534D01*
X91753452Y-54666548D01*
X91728466Y-54636103D01*
X91709899Y-54601367D01*
X91698465Y-54563674D01*
X91694000Y-54518339D01*
X91694000Y-53431661D01*
X91698465Y-53386326D01*
X91709899Y-53348633D01*
X91728466Y-53313897D01*
X91753452Y-53283452D01*
X91783897Y-53258466D01*
X91818633Y-53239899D01*
X91856326Y-53228465D01*
X91901661Y-53224000D01*
X92738339Y-53224000D01*
X92783674Y-53228465D01*
X92783674Y-53228465D01*
G37*
G36*
X84655674Y-53228465D02*
G01*
X84693367Y-53239899D01*
X84728103Y-53258466D01*
X84758548Y-53283452D01*
X84783534Y-53313897D01*
X84802101Y-53348633D01*
X84813535Y-53386326D01*
X84818000Y-53431661D01*
X84818000Y-54518339D01*
X84813535Y-54563674D01*
X84802101Y-54601367D01*
X84783534Y-54636103D01*
X84758548Y-54666548D01*
X84728103Y-54691534D01*
X84693367Y-54710101D01*
X84655674Y-54721535D01*
X84610339Y-54726000D01*
X83773661Y-54726000D01*
X83728326Y-54721535D01*
X83690633Y-54710101D01*
X83655897Y-54691534D01*
X83625452Y-54666548D01*
X83600466Y-54636103D01*
X83581899Y-54601367D01*
X83570465Y-54563674D01*
X83566000Y-54518339D01*
X83566000Y-53431661D01*
X83570465Y-53386326D01*
X83581899Y-53348633D01*
X83600466Y-53313897D01*
X83625452Y-53283452D01*
X83655897Y-53258466D01*
X83690633Y-53239899D01*
X83728326Y-53228465D01*
X83773661Y-53224000D01*
X84610339Y-53224000D01*
X84655674Y-53228465D01*
X84655674Y-53228465D01*
G37*
G36*
X86705674Y-53228465D02*
G01*
X86743367Y-53239899D01*
X86778103Y-53258466D01*
X86808548Y-53283452D01*
X86833534Y-53313897D01*
X86852101Y-53348633D01*
X86863535Y-53386326D01*
X86868000Y-53431661D01*
X86868000Y-54518339D01*
X86863535Y-54563674D01*
X86852101Y-54601367D01*
X86833534Y-54636103D01*
X86808548Y-54666548D01*
X86778103Y-54691534D01*
X86743367Y-54710101D01*
X86705674Y-54721535D01*
X86660339Y-54726000D01*
X85823661Y-54726000D01*
X85778326Y-54721535D01*
X85740633Y-54710101D01*
X85705897Y-54691534D01*
X85675452Y-54666548D01*
X85650466Y-54636103D01*
X85631899Y-54601367D01*
X85620465Y-54563674D01*
X85616000Y-54518339D01*
X85616000Y-53431661D01*
X85620465Y-53386326D01*
X85631899Y-53348633D01*
X85650466Y-53313897D01*
X85675452Y-53283452D01*
X85705897Y-53258466D01*
X85740633Y-53239899D01*
X85778326Y-53228465D01*
X85823661Y-53224000D01*
X86660339Y-53224000D01*
X86705674Y-53228465D01*
X86705674Y-53228465D01*
G37*
G36*
X90769674Y-53228465D02*
G01*
X90807367Y-53239899D01*
X90842103Y-53258466D01*
X90872548Y-53283452D01*
X90897534Y-53313897D01*
X90916101Y-53348633D01*
X90927535Y-53386326D01*
X90932000Y-53431661D01*
X90932000Y-54518339D01*
X90927535Y-54563674D01*
X90916101Y-54601367D01*
X90897534Y-54636103D01*
X90872548Y-54666548D01*
X90842103Y-54691534D01*
X90807367Y-54710101D01*
X90769674Y-54721535D01*
X90724339Y-54726000D01*
X89887661Y-54726000D01*
X89842326Y-54721535D01*
X89804633Y-54710101D01*
X89769897Y-54691534D01*
X89739452Y-54666548D01*
X89714466Y-54636103D01*
X89695899Y-54601367D01*
X89684465Y-54563674D01*
X89680000Y-54518339D01*
X89680000Y-53431661D01*
X89684465Y-53386326D01*
X89695899Y-53348633D01*
X89714466Y-53313897D01*
X89739452Y-53283452D01*
X89769897Y-53258466D01*
X89804633Y-53239899D01*
X89842326Y-53228465D01*
X89887661Y-53224000D01*
X90724339Y-53224000D01*
X90769674Y-53228465D01*
X90769674Y-53228465D01*
G37*
G36*
X101732928Y-51238764D02*
G01*
X101754009Y-51245160D01*
X101773445Y-51255548D01*
X101790476Y-51269524D01*
X101804452Y-51286555D01*
X101814840Y-51305991D01*
X101821236Y-51327072D01*
X101824000Y-51355140D01*
X101824000Y-53168860D01*
X101821236Y-53196928D01*
X101814840Y-53218009D01*
X101804452Y-53237445D01*
X101790476Y-53254476D01*
X101773445Y-53268452D01*
X101754009Y-53278840D01*
X101732928Y-53285236D01*
X101704860Y-53288000D01*
X101241140Y-53288000D01*
X101213072Y-53285236D01*
X101191991Y-53278840D01*
X101172555Y-53268452D01*
X101155524Y-53254476D01*
X101141548Y-53237445D01*
X101131160Y-53218009D01*
X101124764Y-53196928D01*
X101122000Y-53168860D01*
X101122000Y-51355140D01*
X101124764Y-51327072D01*
X101131160Y-51305991D01*
X101141548Y-51286555D01*
X101155524Y-51269524D01*
X101172555Y-51255548D01*
X101191991Y-51245160D01*
X101213072Y-51238764D01*
X101241140Y-51236000D01*
X101704860Y-51236000D01*
X101732928Y-51238764D01*
X101732928Y-51238764D01*
G37*
G36*
X103002928Y-51238764D02*
G01*
X103024009Y-51245160D01*
X103043445Y-51255548D01*
X103060476Y-51269524D01*
X103074452Y-51286555D01*
X103084840Y-51305991D01*
X103091236Y-51327072D01*
X103094000Y-51355140D01*
X103094000Y-53168860D01*
X103091236Y-53196928D01*
X103084840Y-53218009D01*
X103074452Y-53237445D01*
X103060476Y-53254476D01*
X103043445Y-53268452D01*
X103024009Y-53278840D01*
X103002928Y-53285236D01*
X102974860Y-53288000D01*
X102511140Y-53288000D01*
X102483072Y-53285236D01*
X102461991Y-53278840D01*
X102442555Y-53268452D01*
X102425524Y-53254476D01*
X102411548Y-53237445D01*
X102401160Y-53218009D01*
X102394764Y-53196928D01*
X102392000Y-53168860D01*
X102392000Y-51355140D01*
X102394764Y-51327072D01*
X102401160Y-51305991D01*
X102411548Y-51286555D01*
X102425524Y-51269524D01*
X102442555Y-51255548D01*
X102461991Y-51245160D01*
X102483072Y-51238764D01*
X102511140Y-51236000D01*
X102974860Y-51236000D01*
X103002928Y-51238764D01*
X103002928Y-51238764D01*
G37*
G36*
X104272928Y-51238764D02*
G01*
X104294009Y-51245160D01*
X104313445Y-51255548D01*
X104330476Y-51269524D01*
X104344452Y-51286555D01*
X104354840Y-51305991D01*
X104361236Y-51327072D01*
X104364000Y-51355140D01*
X104364000Y-53168860D01*
X104361236Y-53196928D01*
X104354840Y-53218009D01*
X104344452Y-53237445D01*
X104330476Y-53254476D01*
X104313445Y-53268452D01*
X104294009Y-53278840D01*
X104272928Y-53285236D01*
X104244860Y-53288000D01*
X103781140Y-53288000D01*
X103753072Y-53285236D01*
X103731991Y-53278840D01*
X103712555Y-53268452D01*
X103695524Y-53254476D01*
X103681548Y-53237445D01*
X103671160Y-53218009D01*
X103664764Y-53196928D01*
X103662000Y-53168860D01*
X103662000Y-51355140D01*
X103664764Y-51327072D01*
X103671160Y-51305991D01*
X103681548Y-51286555D01*
X103695524Y-51269524D01*
X103712555Y-51255548D01*
X103731991Y-51245160D01*
X103753072Y-51238764D01*
X103781140Y-51236000D01*
X104244860Y-51236000D01*
X104272928Y-51238764D01*
X104272928Y-51238764D01*
G37*
G36*
X96652928Y-51238764D02*
G01*
X96674009Y-51245160D01*
X96693445Y-51255548D01*
X96710476Y-51269524D01*
X96724452Y-51286555D01*
X96734840Y-51305991D01*
X96741236Y-51327072D01*
X96744000Y-51355140D01*
X96744000Y-53168860D01*
X96741236Y-53196928D01*
X96734840Y-53218009D01*
X96724452Y-53237445D01*
X96710476Y-53254476D01*
X96693445Y-53268452D01*
X96674009Y-53278840D01*
X96652928Y-53285236D01*
X96624860Y-53288000D01*
X96161140Y-53288000D01*
X96133072Y-53285236D01*
X96111991Y-53278840D01*
X96092555Y-53268452D01*
X96075524Y-53254476D01*
X96061548Y-53237445D01*
X96051160Y-53218009D01*
X96044764Y-53196928D01*
X96042000Y-53168860D01*
X96042000Y-51355140D01*
X96044764Y-51327072D01*
X96051160Y-51305991D01*
X96061548Y-51286555D01*
X96075524Y-51269524D01*
X96092555Y-51255548D01*
X96111991Y-51245160D01*
X96133072Y-51238764D01*
X96161140Y-51236000D01*
X96624860Y-51236000D01*
X96652928Y-51238764D01*
X96652928Y-51238764D01*
G37*
G36*
X100462928Y-51238764D02*
G01*
X100484009Y-51245160D01*
X100503445Y-51255548D01*
X100520476Y-51269524D01*
X100534452Y-51286555D01*
X100544840Y-51305991D01*
X100551236Y-51327072D01*
X100554000Y-51355140D01*
X100554000Y-53168860D01*
X100551236Y-53196928D01*
X100544840Y-53218009D01*
X100534452Y-53237445D01*
X100520476Y-53254476D01*
X100503445Y-53268452D01*
X100484009Y-53278840D01*
X100462928Y-53285236D01*
X100434860Y-53288000D01*
X99971140Y-53288000D01*
X99943072Y-53285236D01*
X99921991Y-53278840D01*
X99902555Y-53268452D01*
X99885524Y-53254476D01*
X99871548Y-53237445D01*
X99861160Y-53218009D01*
X99854764Y-53196928D01*
X99852000Y-53168860D01*
X99852000Y-51355140D01*
X99854764Y-51327072D01*
X99861160Y-51305991D01*
X99871548Y-51286555D01*
X99885524Y-51269524D01*
X99902555Y-51255548D01*
X99921991Y-51245160D01*
X99943072Y-51238764D01*
X99971140Y-51236000D01*
X100434860Y-51236000D01*
X100462928Y-51238764D01*
X100462928Y-51238764D01*
G37*
G36*
X97922928Y-51238764D02*
G01*
X97944009Y-51245160D01*
X97963445Y-51255548D01*
X97980476Y-51269524D01*
X97994452Y-51286555D01*
X98004840Y-51305991D01*
X98011236Y-51327072D01*
X98014000Y-51355140D01*
X98014000Y-53168860D01*
X98011236Y-53196928D01*
X98004840Y-53218009D01*
X97994452Y-53237445D01*
X97980476Y-53254476D01*
X97963445Y-53268452D01*
X97944009Y-53278840D01*
X97922928Y-53285236D01*
X97894860Y-53288000D01*
X97431140Y-53288000D01*
X97403072Y-53285236D01*
X97381991Y-53278840D01*
X97362555Y-53268452D01*
X97345524Y-53254476D01*
X97331548Y-53237445D01*
X97321160Y-53218009D01*
X97314764Y-53196928D01*
X97312000Y-53168860D01*
X97312000Y-51355140D01*
X97314764Y-51327072D01*
X97321160Y-51305991D01*
X97331548Y-51286555D01*
X97345524Y-51269524D01*
X97362555Y-51255548D01*
X97381991Y-51245160D01*
X97403072Y-51238764D01*
X97431140Y-51236000D01*
X97894860Y-51236000D01*
X97922928Y-51238764D01*
X97922928Y-51238764D01*
G37*
G36*
X99192928Y-51238764D02*
G01*
X99214009Y-51245160D01*
X99233445Y-51255548D01*
X99250476Y-51269524D01*
X99264452Y-51286555D01*
X99274840Y-51305991D01*
X99281236Y-51327072D01*
X99284000Y-51355140D01*
X99284000Y-53168860D01*
X99281236Y-53196928D01*
X99274840Y-53218009D01*
X99264452Y-53237445D01*
X99250476Y-53254476D01*
X99233445Y-53268452D01*
X99214009Y-53278840D01*
X99192928Y-53285236D01*
X99164860Y-53288000D01*
X98701140Y-53288000D01*
X98673072Y-53285236D01*
X98651991Y-53278840D01*
X98632555Y-53268452D01*
X98615524Y-53254476D01*
X98601548Y-53237445D01*
X98591160Y-53218009D01*
X98584764Y-53196928D01*
X98582000Y-53168860D01*
X98582000Y-51355140D01*
X98584764Y-51327072D01*
X98591160Y-51305991D01*
X98601548Y-51286555D01*
X98615524Y-51269524D01*
X98632555Y-51255548D01*
X98651991Y-51245160D01*
X98673072Y-51238764D01*
X98701140Y-51236000D01*
X99164860Y-51236000D01*
X99192928Y-51238764D01*
X99192928Y-51238764D01*
G37*
G36*
X66150443Y-51175519D02*
G01*
X66216627Y-51182037D01*
X66386466Y-51233557D01*
X66386468Y-51233558D01*
X66396208Y-51238764D01*
X66542991Y-51317222D01*
X66554993Y-51327072D01*
X66680186Y-51429814D01*
X66763448Y-51531271D01*
X66792778Y-51567009D01*
X66876443Y-51723534D01*
X66927963Y-51893373D01*
X66945359Y-52070000D01*
X66927963Y-52246627D01*
X66876443Y-52416466D01*
X66792778Y-52572991D01*
X66763448Y-52608729D01*
X66680186Y-52710186D01*
X66578729Y-52793448D01*
X66542991Y-52822778D01*
X66386466Y-52906443D01*
X66216627Y-52957963D01*
X66150442Y-52964482D01*
X66084260Y-52971000D01*
X65995740Y-52971000D01*
X65929558Y-52964482D01*
X65863373Y-52957963D01*
X65693534Y-52906443D01*
X65537009Y-52822778D01*
X65501271Y-52793448D01*
X65399814Y-52710186D01*
X65316552Y-52608729D01*
X65287222Y-52572991D01*
X65203557Y-52416466D01*
X65152037Y-52246627D01*
X65134641Y-52070000D01*
X65152037Y-51893373D01*
X65203557Y-51723534D01*
X65287222Y-51567009D01*
X65316552Y-51531271D01*
X65399814Y-51429814D01*
X65525007Y-51327072D01*
X65537009Y-51317222D01*
X65683792Y-51238764D01*
X65693532Y-51233558D01*
X65693534Y-51233557D01*
X65863373Y-51182037D01*
X65929557Y-51175519D01*
X65995740Y-51169000D01*
X66084260Y-51169000D01*
X66150443Y-51175519D01*
X66150443Y-51175519D01*
G37*
G36*
X69960443Y-51175519D02*
G01*
X70026627Y-51182037D01*
X70196466Y-51233557D01*
X70196468Y-51233558D01*
X70206208Y-51238764D01*
X70352991Y-51317222D01*
X70364993Y-51327072D01*
X70490186Y-51429814D01*
X70573448Y-51531271D01*
X70602778Y-51567009D01*
X70686443Y-51723534D01*
X70737963Y-51893373D01*
X70755359Y-52070000D01*
X70737963Y-52246627D01*
X70686443Y-52416466D01*
X70602778Y-52572991D01*
X70573448Y-52608729D01*
X70490186Y-52710186D01*
X70388729Y-52793448D01*
X70352991Y-52822778D01*
X70196466Y-52906443D01*
X70026627Y-52957963D01*
X69960442Y-52964482D01*
X69894260Y-52971000D01*
X69805740Y-52971000D01*
X69739558Y-52964482D01*
X69673373Y-52957963D01*
X69503534Y-52906443D01*
X69347009Y-52822778D01*
X69311271Y-52793448D01*
X69209814Y-52710186D01*
X69126552Y-52608729D01*
X69097222Y-52572991D01*
X69013557Y-52416466D01*
X68962037Y-52246627D01*
X68944641Y-52070000D01*
X68962037Y-51893373D01*
X69013557Y-51723534D01*
X69097222Y-51567009D01*
X69126552Y-51531271D01*
X69209814Y-51429814D01*
X69335007Y-51327072D01*
X69347009Y-51317222D01*
X69493792Y-51238764D01*
X69503532Y-51233558D01*
X69503534Y-51233557D01*
X69673373Y-51182037D01*
X69739557Y-51175519D01*
X69805740Y-51169000D01*
X69894260Y-51169000D01*
X69960443Y-51175519D01*
X69960443Y-51175519D01*
G37*
G36*
X76527674Y-51069465D02*
G01*
X76565367Y-51080899D01*
X76600103Y-51099466D01*
X76630548Y-51124452D01*
X76655534Y-51154897D01*
X76674101Y-51189633D01*
X76685535Y-51227326D01*
X76690000Y-51272661D01*
X76690000Y-52359339D01*
X76685535Y-52404674D01*
X76674101Y-52442367D01*
X76655534Y-52477103D01*
X76630548Y-52507548D01*
X76600103Y-52532534D01*
X76565367Y-52551101D01*
X76527674Y-52562535D01*
X76482339Y-52567000D01*
X75645661Y-52567000D01*
X75600326Y-52562535D01*
X75562633Y-52551101D01*
X75527897Y-52532534D01*
X75497452Y-52507548D01*
X75472466Y-52477103D01*
X75453899Y-52442367D01*
X75442465Y-52404674D01*
X75438000Y-52359339D01*
X75438000Y-51272661D01*
X75442465Y-51227326D01*
X75453899Y-51189633D01*
X75472466Y-51154897D01*
X75497452Y-51124452D01*
X75527897Y-51099466D01*
X75562633Y-51080899D01*
X75600326Y-51069465D01*
X75645661Y-51065000D01*
X76482339Y-51065000D01*
X76527674Y-51069465D01*
X76527674Y-51069465D01*
G37*
G36*
X78577674Y-51069465D02*
G01*
X78615367Y-51080899D01*
X78650103Y-51099466D01*
X78680548Y-51124452D01*
X78705534Y-51154897D01*
X78724101Y-51189633D01*
X78735535Y-51227326D01*
X78740000Y-51272661D01*
X78740000Y-52359339D01*
X78735535Y-52404674D01*
X78724101Y-52442367D01*
X78705534Y-52477103D01*
X78680548Y-52507548D01*
X78650103Y-52532534D01*
X78615367Y-52551101D01*
X78577674Y-52562535D01*
X78532339Y-52567000D01*
X77695661Y-52567000D01*
X77650326Y-52562535D01*
X77612633Y-52551101D01*
X77577897Y-52532534D01*
X77547452Y-52507548D01*
X77522466Y-52477103D01*
X77503899Y-52442367D01*
X77492465Y-52404674D01*
X77488000Y-52359339D01*
X77488000Y-51272661D01*
X77492465Y-51227326D01*
X77503899Y-51189633D01*
X77522466Y-51154897D01*
X77547452Y-51124452D01*
X77577897Y-51099466D01*
X77612633Y-51080899D01*
X77650326Y-51069465D01*
X77695661Y-51065000D01*
X78532339Y-51065000D01*
X78577674Y-51069465D01*
X78577674Y-51069465D01*
G37*
G36*
X80591674Y-51069465D02*
G01*
X80629367Y-51080899D01*
X80664103Y-51099466D01*
X80694548Y-51124452D01*
X80719534Y-51154897D01*
X80738101Y-51189633D01*
X80749535Y-51227326D01*
X80754000Y-51272661D01*
X80754000Y-52359339D01*
X80749535Y-52404674D01*
X80738101Y-52442367D01*
X80719534Y-52477103D01*
X80694548Y-52507548D01*
X80664103Y-52532534D01*
X80629367Y-52551101D01*
X80591674Y-52562535D01*
X80546339Y-52567000D01*
X79709661Y-52567000D01*
X79664326Y-52562535D01*
X79626633Y-52551101D01*
X79591897Y-52532534D01*
X79561452Y-52507548D01*
X79536466Y-52477103D01*
X79517899Y-52442367D01*
X79506465Y-52404674D01*
X79502000Y-52359339D01*
X79502000Y-51272661D01*
X79506465Y-51227326D01*
X79517899Y-51189633D01*
X79536466Y-51154897D01*
X79561452Y-51124452D01*
X79591897Y-51099466D01*
X79626633Y-51080899D01*
X79664326Y-51069465D01*
X79709661Y-51065000D01*
X80546339Y-51065000D01*
X80591674Y-51069465D01*
X80591674Y-51069465D01*
G37*
G36*
X86705674Y-51069465D02*
G01*
X86743367Y-51080899D01*
X86778103Y-51099466D01*
X86808548Y-51124452D01*
X86833534Y-51154897D01*
X86852101Y-51189633D01*
X86863535Y-51227326D01*
X86868000Y-51272661D01*
X86868000Y-52359339D01*
X86863535Y-52404674D01*
X86852101Y-52442367D01*
X86833534Y-52477103D01*
X86808548Y-52507548D01*
X86778103Y-52532534D01*
X86743367Y-52551101D01*
X86705674Y-52562535D01*
X86660339Y-52567000D01*
X85823661Y-52567000D01*
X85778326Y-52562535D01*
X85740633Y-52551101D01*
X85705897Y-52532534D01*
X85675452Y-52507548D01*
X85650466Y-52477103D01*
X85631899Y-52442367D01*
X85620465Y-52404674D01*
X85616000Y-52359339D01*
X85616000Y-51272661D01*
X85620465Y-51227326D01*
X85631899Y-51189633D01*
X85650466Y-51154897D01*
X85675452Y-51124452D01*
X85705897Y-51099466D01*
X85740633Y-51080899D01*
X85778326Y-51069465D01*
X85823661Y-51065000D01*
X86660339Y-51065000D01*
X86705674Y-51069465D01*
X86705674Y-51069465D01*
G37*
G36*
X84655674Y-51069465D02*
G01*
X84693367Y-51080899D01*
X84728103Y-51099466D01*
X84758548Y-51124452D01*
X84783534Y-51154897D01*
X84802101Y-51189633D01*
X84813535Y-51227326D01*
X84818000Y-51272661D01*
X84818000Y-52359339D01*
X84813535Y-52404674D01*
X84802101Y-52442367D01*
X84783534Y-52477103D01*
X84758548Y-52507548D01*
X84728103Y-52532534D01*
X84693367Y-52551101D01*
X84655674Y-52562535D01*
X84610339Y-52567000D01*
X83773661Y-52567000D01*
X83728326Y-52562535D01*
X83690633Y-52551101D01*
X83655897Y-52532534D01*
X83625452Y-52507548D01*
X83600466Y-52477103D01*
X83581899Y-52442367D01*
X83570465Y-52404674D01*
X83566000Y-52359339D01*
X83566000Y-51272661D01*
X83570465Y-51227326D01*
X83581899Y-51189633D01*
X83600466Y-51154897D01*
X83625452Y-51124452D01*
X83655897Y-51099466D01*
X83690633Y-51080899D01*
X83728326Y-51069465D01*
X83773661Y-51065000D01*
X84610339Y-51065000D01*
X84655674Y-51069465D01*
X84655674Y-51069465D01*
G37*
G36*
X92783674Y-51069465D02*
G01*
X92821367Y-51080899D01*
X92856103Y-51099466D01*
X92886548Y-51124452D01*
X92911534Y-51154897D01*
X92930101Y-51189633D01*
X92941535Y-51227326D01*
X92946000Y-51272661D01*
X92946000Y-52359339D01*
X92941535Y-52404674D01*
X92930101Y-52442367D01*
X92911534Y-52477103D01*
X92886548Y-52507548D01*
X92856103Y-52532534D01*
X92821367Y-52551101D01*
X92783674Y-52562535D01*
X92738339Y-52567000D01*
X91901661Y-52567000D01*
X91856326Y-52562535D01*
X91818633Y-52551101D01*
X91783897Y-52532534D01*
X91753452Y-52507548D01*
X91728466Y-52477103D01*
X91709899Y-52442367D01*
X91698465Y-52404674D01*
X91694000Y-52359339D01*
X91694000Y-51272661D01*
X91698465Y-51227326D01*
X91709899Y-51189633D01*
X91728466Y-51154897D01*
X91753452Y-51124452D01*
X91783897Y-51099466D01*
X91818633Y-51080899D01*
X91856326Y-51069465D01*
X91901661Y-51065000D01*
X92738339Y-51065000D01*
X92783674Y-51069465D01*
X92783674Y-51069465D01*
G37*
G36*
X82641674Y-51069465D02*
G01*
X82679367Y-51080899D01*
X82714103Y-51099466D01*
X82744548Y-51124452D01*
X82769534Y-51154897D01*
X82788101Y-51189633D01*
X82799535Y-51227326D01*
X82804000Y-51272661D01*
X82804000Y-52359339D01*
X82799535Y-52404674D01*
X82788101Y-52442367D01*
X82769534Y-52477103D01*
X82744548Y-52507548D01*
X82714103Y-52532534D01*
X82679367Y-52551101D01*
X82641674Y-52562535D01*
X82596339Y-52567000D01*
X81759661Y-52567000D01*
X81714326Y-52562535D01*
X81676633Y-52551101D01*
X81641897Y-52532534D01*
X81611452Y-52507548D01*
X81586466Y-52477103D01*
X81567899Y-52442367D01*
X81556465Y-52404674D01*
X81552000Y-52359339D01*
X81552000Y-51272661D01*
X81556465Y-51227326D01*
X81567899Y-51189633D01*
X81586466Y-51154897D01*
X81611452Y-51124452D01*
X81641897Y-51099466D01*
X81676633Y-51080899D01*
X81714326Y-51069465D01*
X81759661Y-51065000D01*
X82596339Y-51065000D01*
X82641674Y-51069465D01*
X82641674Y-51069465D01*
G37*
G36*
X88719674Y-51069465D02*
G01*
X88757367Y-51080899D01*
X88792103Y-51099466D01*
X88822548Y-51124452D01*
X88847534Y-51154897D01*
X88866101Y-51189633D01*
X88877535Y-51227326D01*
X88882000Y-51272661D01*
X88882000Y-52359339D01*
X88877535Y-52404674D01*
X88866101Y-52442367D01*
X88847534Y-52477103D01*
X88822548Y-52507548D01*
X88792103Y-52532534D01*
X88757367Y-52551101D01*
X88719674Y-52562535D01*
X88674339Y-52567000D01*
X87837661Y-52567000D01*
X87792326Y-52562535D01*
X87754633Y-52551101D01*
X87719897Y-52532534D01*
X87689452Y-52507548D01*
X87664466Y-52477103D01*
X87645899Y-52442367D01*
X87634465Y-52404674D01*
X87630000Y-52359339D01*
X87630000Y-51272661D01*
X87634465Y-51227326D01*
X87645899Y-51189633D01*
X87664466Y-51154897D01*
X87689452Y-51124452D01*
X87719897Y-51099466D01*
X87754633Y-51080899D01*
X87792326Y-51069465D01*
X87837661Y-51065000D01*
X88674339Y-51065000D01*
X88719674Y-51069465D01*
X88719674Y-51069465D01*
G37*
G36*
X94833674Y-51069465D02*
G01*
X94871367Y-51080899D01*
X94906103Y-51099466D01*
X94936548Y-51124452D01*
X94961534Y-51154897D01*
X94980101Y-51189633D01*
X94991535Y-51227326D01*
X94996000Y-51272661D01*
X94996000Y-52359339D01*
X94991535Y-52404674D01*
X94980101Y-52442367D01*
X94961534Y-52477103D01*
X94936548Y-52507548D01*
X94906103Y-52532534D01*
X94871367Y-52551101D01*
X94833674Y-52562535D01*
X94788339Y-52567000D01*
X93951661Y-52567000D01*
X93906326Y-52562535D01*
X93868633Y-52551101D01*
X93833897Y-52532534D01*
X93803452Y-52507548D01*
X93778466Y-52477103D01*
X93759899Y-52442367D01*
X93748465Y-52404674D01*
X93744000Y-52359339D01*
X93744000Y-51272661D01*
X93748465Y-51227326D01*
X93759899Y-51189633D01*
X93778466Y-51154897D01*
X93803452Y-51124452D01*
X93833897Y-51099466D01*
X93868633Y-51080899D01*
X93906326Y-51069465D01*
X93951661Y-51065000D01*
X94788339Y-51065000D01*
X94833674Y-51069465D01*
X94833674Y-51069465D01*
G37*
G36*
X90769674Y-51069465D02*
G01*
X90807367Y-51080899D01*
X90842103Y-51099466D01*
X90872548Y-51124452D01*
X90897534Y-51154897D01*
X90916101Y-51189633D01*
X90927535Y-51227326D01*
X90932000Y-51272661D01*
X90932000Y-52359339D01*
X90927535Y-52404674D01*
X90916101Y-52442367D01*
X90897534Y-52477103D01*
X90872548Y-52507548D01*
X90842103Y-52532534D01*
X90807367Y-52551101D01*
X90769674Y-52562535D01*
X90724339Y-52567000D01*
X89887661Y-52567000D01*
X89842326Y-52562535D01*
X89804633Y-52551101D01*
X89769897Y-52532534D01*
X89739452Y-52507548D01*
X89714466Y-52477103D01*
X89695899Y-52442367D01*
X89684465Y-52404674D01*
X89680000Y-52359339D01*
X89680000Y-51272661D01*
X89684465Y-51227326D01*
X89695899Y-51189633D01*
X89714466Y-51154897D01*
X89739452Y-51124452D01*
X89769897Y-51099466D01*
X89804633Y-51080899D01*
X89842326Y-51069465D01*
X89887661Y-51065000D01*
X90724339Y-51065000D01*
X90769674Y-51069465D01*
X90769674Y-51069465D01*
G37*
G36*
X61548674Y-49933465D02*
G01*
X61586367Y-49944899D01*
X61621103Y-49963466D01*
X61651548Y-49988452D01*
X61676534Y-50018897D01*
X61695101Y-50053633D01*
X61706535Y-50091326D01*
X61711000Y-50136661D01*
X61711000Y-50973339D01*
X61706535Y-51018674D01*
X61695101Y-51056367D01*
X61676534Y-51091103D01*
X61651548Y-51121548D01*
X61621103Y-51146534D01*
X61586367Y-51165101D01*
X61548674Y-51176535D01*
X61503339Y-51181000D01*
X60416661Y-51181000D01*
X60371326Y-51176535D01*
X60333633Y-51165101D01*
X60298897Y-51146534D01*
X60268452Y-51121548D01*
X60243466Y-51091103D01*
X60224899Y-51056367D01*
X60213465Y-51018674D01*
X60209000Y-50973339D01*
X60209000Y-50136661D01*
X60213465Y-50091326D01*
X60224899Y-50053633D01*
X60243466Y-50018897D01*
X60268452Y-49988452D01*
X60298897Y-49963466D01*
X60333633Y-49944899D01*
X60371326Y-49933465D01*
X60416661Y-49929000D01*
X61503339Y-49929000D01*
X61548674Y-49933465D01*
X61548674Y-49933465D01*
G37*
G36*
X89159928Y-48641764D02*
G01*
X89181009Y-48648160D01*
X89200445Y-48658548D01*
X89217476Y-48672524D01*
X89231452Y-48689555D01*
X89241840Y-48708991D01*
X89248236Y-48730072D01*
X89251000Y-48758140D01*
X89251000Y-50371860D01*
X89248236Y-50399928D01*
X89241840Y-50421009D01*
X89231452Y-50440445D01*
X89217476Y-50457476D01*
X89200445Y-50471452D01*
X89181009Y-50481840D01*
X89159928Y-50488236D01*
X89131860Y-50491000D01*
X88668140Y-50491000D01*
X88640072Y-50488236D01*
X88618991Y-50481840D01*
X88599555Y-50471452D01*
X88582524Y-50457476D01*
X88568548Y-50440445D01*
X88558160Y-50421009D01*
X88551764Y-50399928D01*
X88549000Y-50371860D01*
X88549000Y-48758140D01*
X88551764Y-48730072D01*
X88558160Y-48708991D01*
X88568548Y-48689555D01*
X88582524Y-48672524D01*
X88599555Y-48658548D01*
X88618991Y-48648160D01*
X88640072Y-48641764D01*
X88668140Y-48639000D01*
X89131860Y-48639000D01*
X89159928Y-48641764D01*
X89159928Y-48641764D01*
G37*
G36*
X85349928Y-48641764D02*
G01*
X85371009Y-48648160D01*
X85390445Y-48658548D01*
X85407476Y-48672524D01*
X85421452Y-48689555D01*
X85431840Y-48708991D01*
X85438236Y-48730072D01*
X85441000Y-48758140D01*
X85441000Y-50371860D01*
X85438236Y-50399928D01*
X85431840Y-50421009D01*
X85421452Y-50440445D01*
X85407476Y-50457476D01*
X85390445Y-50471452D01*
X85371009Y-50481840D01*
X85349928Y-50488236D01*
X85321860Y-50491000D01*
X84858140Y-50491000D01*
X84830072Y-50488236D01*
X84808991Y-50481840D01*
X84789555Y-50471452D01*
X84772524Y-50457476D01*
X84758548Y-50440445D01*
X84748160Y-50421009D01*
X84741764Y-50399928D01*
X84739000Y-50371860D01*
X84739000Y-48758140D01*
X84741764Y-48730072D01*
X84748160Y-48708991D01*
X84758548Y-48689555D01*
X84772524Y-48672524D01*
X84789555Y-48658548D01*
X84808991Y-48648160D01*
X84830072Y-48641764D01*
X84858140Y-48639000D01*
X85321860Y-48639000D01*
X85349928Y-48641764D01*
X85349928Y-48641764D01*
G37*
G36*
X87889928Y-48641764D02*
G01*
X87911009Y-48648160D01*
X87930445Y-48658548D01*
X87947476Y-48672524D01*
X87961452Y-48689555D01*
X87971840Y-48708991D01*
X87978236Y-48730072D01*
X87981000Y-48758140D01*
X87981000Y-50371860D01*
X87978236Y-50399928D01*
X87971840Y-50421009D01*
X87961452Y-50440445D01*
X87947476Y-50457476D01*
X87930445Y-50471452D01*
X87911009Y-50481840D01*
X87889928Y-50488236D01*
X87861860Y-50491000D01*
X87398140Y-50491000D01*
X87370072Y-50488236D01*
X87348991Y-50481840D01*
X87329555Y-50471452D01*
X87312524Y-50457476D01*
X87298548Y-50440445D01*
X87288160Y-50421009D01*
X87281764Y-50399928D01*
X87279000Y-50371860D01*
X87279000Y-48758140D01*
X87281764Y-48730072D01*
X87288160Y-48708991D01*
X87298548Y-48689555D01*
X87312524Y-48672524D01*
X87329555Y-48658548D01*
X87348991Y-48648160D01*
X87370072Y-48641764D01*
X87398140Y-48639000D01*
X87861860Y-48639000D01*
X87889928Y-48641764D01*
X87889928Y-48641764D01*
G37*
G36*
X86619928Y-48641764D02*
G01*
X86641009Y-48648160D01*
X86660445Y-48658548D01*
X86677476Y-48672524D01*
X86691452Y-48689555D01*
X86701840Y-48708991D01*
X86708236Y-48730072D01*
X86711000Y-48758140D01*
X86711000Y-50371860D01*
X86708236Y-50399928D01*
X86701840Y-50421009D01*
X86691452Y-50440445D01*
X86677476Y-50457476D01*
X86660445Y-50471452D01*
X86641009Y-50481840D01*
X86619928Y-50488236D01*
X86591860Y-50491000D01*
X86128140Y-50491000D01*
X86100072Y-50488236D01*
X86078991Y-50481840D01*
X86059555Y-50471452D01*
X86042524Y-50457476D01*
X86028548Y-50440445D01*
X86018160Y-50421009D01*
X86011764Y-50399928D01*
X86009000Y-50371860D01*
X86009000Y-48758140D01*
X86011764Y-48730072D01*
X86018160Y-48708991D01*
X86028548Y-48689555D01*
X86042524Y-48672524D01*
X86059555Y-48658548D01*
X86078991Y-48648160D01*
X86100072Y-48641764D01*
X86128140Y-48639000D01*
X86591860Y-48639000D01*
X86619928Y-48641764D01*
X86619928Y-48641764D01*
G37*
G36*
X66941000Y-50431000D02*
G01*
X65139000Y-50431000D01*
X65139000Y-48629000D01*
X66941000Y-48629000D01*
X66941000Y-50431000D01*
X66941000Y-50431000D01*
G37*
G36*
X70751000Y-50431000D02*
G01*
X68949000Y-50431000D01*
X68949000Y-48629000D01*
X70751000Y-48629000D01*
X70751000Y-50431000D01*
X70751000Y-50431000D01*
G37*
G36*
X91647674Y-49171465D02*
G01*
X91685367Y-49182899D01*
X91720103Y-49201466D01*
X91750548Y-49226452D01*
X91775534Y-49256897D01*
X91794101Y-49291633D01*
X91805535Y-49329326D01*
X91810000Y-49374661D01*
X91810000Y-50211339D01*
X91805535Y-50256674D01*
X91794101Y-50294367D01*
X91775534Y-50329103D01*
X91750548Y-50359548D01*
X91720103Y-50384534D01*
X91685367Y-50403101D01*
X91647674Y-50414535D01*
X91602339Y-50419000D01*
X90515661Y-50419000D01*
X90470326Y-50414535D01*
X90432633Y-50403101D01*
X90397897Y-50384534D01*
X90367452Y-50359548D01*
X90342466Y-50329103D01*
X90323899Y-50294367D01*
X90312465Y-50256674D01*
X90308000Y-50211339D01*
X90308000Y-49374661D01*
X90312465Y-49329326D01*
X90323899Y-49291633D01*
X90342466Y-49256897D01*
X90367452Y-49226452D01*
X90397897Y-49201466D01*
X90432633Y-49182899D01*
X90470326Y-49171465D01*
X90515661Y-49167000D01*
X91602339Y-49167000D01*
X91647674Y-49171465D01*
X91647674Y-49171465D01*
G37*
G36*
X93806674Y-49171465D02*
G01*
X93844367Y-49182899D01*
X93879103Y-49201466D01*
X93909548Y-49226452D01*
X93934534Y-49256897D01*
X93953101Y-49291633D01*
X93964535Y-49329326D01*
X93969000Y-49374661D01*
X93969000Y-50211339D01*
X93964535Y-50256674D01*
X93953101Y-50294367D01*
X93934534Y-50329103D01*
X93909548Y-50359548D01*
X93879103Y-50384534D01*
X93844367Y-50403101D01*
X93806674Y-50414535D01*
X93761339Y-50419000D01*
X92674661Y-50419000D01*
X92629326Y-50414535D01*
X92591633Y-50403101D01*
X92556897Y-50384534D01*
X92526452Y-50359548D01*
X92501466Y-50329103D01*
X92482899Y-50294367D01*
X92471465Y-50256674D01*
X92467000Y-50211339D01*
X92467000Y-49374661D01*
X92471465Y-49329326D01*
X92482899Y-49291633D01*
X92501466Y-49256897D01*
X92526452Y-49226452D01*
X92556897Y-49201466D01*
X92591633Y-49182899D01*
X92629326Y-49171465D01*
X92674661Y-49167000D01*
X93761339Y-49167000D01*
X93806674Y-49171465D01*
X93806674Y-49171465D01*
G37*
G36*
X82641674Y-48783465D02*
G01*
X82679367Y-48794899D01*
X82714103Y-48813466D01*
X82744548Y-48838452D01*
X82769534Y-48868897D01*
X82788101Y-48903633D01*
X82799535Y-48941326D01*
X82804000Y-48986661D01*
X82804000Y-50073339D01*
X82799535Y-50118674D01*
X82788101Y-50156367D01*
X82769534Y-50191103D01*
X82744548Y-50221548D01*
X82714103Y-50246534D01*
X82679367Y-50265101D01*
X82641674Y-50276535D01*
X82596339Y-50281000D01*
X81759661Y-50281000D01*
X81714326Y-50276535D01*
X81676633Y-50265101D01*
X81641897Y-50246534D01*
X81611452Y-50221548D01*
X81586466Y-50191103D01*
X81567899Y-50156367D01*
X81556465Y-50118674D01*
X81552000Y-50073339D01*
X81552000Y-48986661D01*
X81556465Y-48941326D01*
X81567899Y-48903633D01*
X81586466Y-48868897D01*
X81611452Y-48838452D01*
X81641897Y-48813466D01*
X81676633Y-48794899D01*
X81714326Y-48783465D01*
X81759661Y-48779000D01*
X82596339Y-48779000D01*
X82641674Y-48783465D01*
X82641674Y-48783465D01*
G37*
G36*
X76527674Y-48783465D02*
G01*
X76565367Y-48794899D01*
X76600103Y-48813466D01*
X76630548Y-48838452D01*
X76655534Y-48868897D01*
X76674101Y-48903633D01*
X76685535Y-48941326D01*
X76690000Y-48986661D01*
X76690000Y-50073339D01*
X76685535Y-50118674D01*
X76674101Y-50156367D01*
X76655534Y-50191103D01*
X76630548Y-50221548D01*
X76600103Y-50246534D01*
X76565367Y-50265101D01*
X76527674Y-50276535D01*
X76482339Y-50281000D01*
X75645661Y-50281000D01*
X75600326Y-50276535D01*
X75562633Y-50265101D01*
X75527897Y-50246534D01*
X75497452Y-50221548D01*
X75472466Y-50191103D01*
X75453899Y-50156367D01*
X75442465Y-50118674D01*
X75438000Y-50073339D01*
X75438000Y-48986661D01*
X75442465Y-48941326D01*
X75453899Y-48903633D01*
X75472466Y-48868897D01*
X75497452Y-48838452D01*
X75527897Y-48813466D01*
X75562633Y-48794899D01*
X75600326Y-48783465D01*
X75645661Y-48779000D01*
X76482339Y-48779000D01*
X76527674Y-48783465D01*
X76527674Y-48783465D01*
G37*
G36*
X80591674Y-48783465D02*
G01*
X80629367Y-48794899D01*
X80664103Y-48813466D01*
X80694548Y-48838452D01*
X80719534Y-48868897D01*
X80738101Y-48903633D01*
X80749535Y-48941326D01*
X80754000Y-48986661D01*
X80754000Y-50073339D01*
X80749535Y-50118674D01*
X80738101Y-50156367D01*
X80719534Y-50191103D01*
X80694548Y-50221548D01*
X80664103Y-50246534D01*
X80629367Y-50265101D01*
X80591674Y-50276535D01*
X80546339Y-50281000D01*
X79709661Y-50281000D01*
X79664326Y-50276535D01*
X79626633Y-50265101D01*
X79591897Y-50246534D01*
X79561452Y-50221548D01*
X79536466Y-50191103D01*
X79517899Y-50156367D01*
X79506465Y-50118674D01*
X79502000Y-50073339D01*
X79502000Y-48986661D01*
X79506465Y-48941326D01*
X79517899Y-48903633D01*
X79536466Y-48868897D01*
X79561452Y-48838452D01*
X79591897Y-48813466D01*
X79626633Y-48794899D01*
X79664326Y-48783465D01*
X79709661Y-48779000D01*
X80546339Y-48779000D01*
X80591674Y-48783465D01*
X80591674Y-48783465D01*
G37*
G36*
X78577674Y-48783465D02*
G01*
X78615367Y-48794899D01*
X78650103Y-48813466D01*
X78680548Y-48838452D01*
X78705534Y-48868897D01*
X78724101Y-48903633D01*
X78735535Y-48941326D01*
X78740000Y-48986661D01*
X78740000Y-50073339D01*
X78735535Y-50118674D01*
X78724101Y-50156367D01*
X78705534Y-50191103D01*
X78680548Y-50221548D01*
X78650103Y-50246534D01*
X78615367Y-50265101D01*
X78577674Y-50276535D01*
X78532339Y-50281000D01*
X77695661Y-50281000D01*
X77650326Y-50276535D01*
X77612633Y-50265101D01*
X77577897Y-50246534D01*
X77547452Y-50221548D01*
X77522466Y-50191103D01*
X77503899Y-50156367D01*
X77492465Y-50118674D01*
X77488000Y-50073339D01*
X77488000Y-48986661D01*
X77492465Y-48941326D01*
X77503899Y-48903633D01*
X77522466Y-48868897D01*
X77547452Y-48838452D01*
X77577897Y-48813466D01*
X77612633Y-48794899D01*
X77650326Y-48783465D01*
X77695661Y-48779000D01*
X78532339Y-48779000D01*
X78577674Y-48783465D01*
X78577674Y-48783465D01*
G37*
G36*
X109182000Y-49873000D02*
G01*
X107480000Y-49873000D01*
X107480000Y-48171000D01*
X109182000Y-48171000D01*
X109182000Y-49873000D01*
X109182000Y-49873000D01*
G37*
G36*
X111079228Y-48203703D02*
G01*
X111234100Y-48267853D01*
X111373481Y-48360985D01*
X111492015Y-48479519D01*
X111585147Y-48618900D01*
X111649297Y-48773772D01*
X111682000Y-48938184D01*
X111682000Y-49105816D01*
X111649297Y-49270228D01*
X111585147Y-49425100D01*
X111492015Y-49564481D01*
X111373481Y-49683015D01*
X111234100Y-49776147D01*
X111079228Y-49840297D01*
X110914816Y-49873000D01*
X110747184Y-49873000D01*
X110582772Y-49840297D01*
X110427900Y-49776147D01*
X110288519Y-49683015D01*
X110169985Y-49564481D01*
X110076853Y-49425100D01*
X110012703Y-49270228D01*
X109980000Y-49105816D01*
X109980000Y-48938184D01*
X110012703Y-48773772D01*
X110076853Y-48618900D01*
X110169985Y-48479519D01*
X110288519Y-48360985D01*
X110427900Y-48267853D01*
X110582772Y-48203703D01*
X110747184Y-48171000D01*
X110914816Y-48171000D01*
X111079228Y-48203703D01*
X111079228Y-48203703D01*
G37*
G36*
X61548674Y-47883465D02*
G01*
X61586367Y-47894899D01*
X61621103Y-47913466D01*
X61651548Y-47938452D01*
X61676534Y-47968897D01*
X61695101Y-48003633D01*
X61706535Y-48041326D01*
X61711000Y-48086661D01*
X61711000Y-48923339D01*
X61706535Y-48968674D01*
X61695101Y-49006367D01*
X61676534Y-49041103D01*
X61651548Y-49071548D01*
X61621103Y-49096534D01*
X61586367Y-49115101D01*
X61548674Y-49126535D01*
X61503339Y-49131000D01*
X60416661Y-49131000D01*
X60371326Y-49126535D01*
X60333633Y-49115101D01*
X60298897Y-49096534D01*
X60268452Y-49071548D01*
X60243466Y-49041103D01*
X60224899Y-49006367D01*
X60213465Y-48968674D01*
X60209000Y-48923339D01*
X60209000Y-48086661D01*
X60213465Y-48041326D01*
X60224899Y-48003633D01*
X60243466Y-47968897D01*
X60268452Y-47938452D01*
X60298897Y-47913466D01*
X60333633Y-47894899D01*
X60371326Y-47883465D01*
X60416661Y-47879000D01*
X61503339Y-47879000D01*
X61548674Y-47883465D01*
X61548674Y-47883465D01*
G37*
G36*
X91647674Y-47121465D02*
G01*
X91685367Y-47132899D01*
X91720103Y-47151466D01*
X91750548Y-47176452D01*
X91775534Y-47206897D01*
X91794101Y-47241633D01*
X91805535Y-47279326D01*
X91810000Y-47324661D01*
X91810000Y-48161339D01*
X91805535Y-48206674D01*
X91794101Y-48244367D01*
X91775534Y-48279103D01*
X91750548Y-48309548D01*
X91720103Y-48334534D01*
X91685367Y-48353101D01*
X91647674Y-48364535D01*
X91602339Y-48369000D01*
X90515661Y-48369000D01*
X90470326Y-48364535D01*
X90432633Y-48353101D01*
X90397897Y-48334534D01*
X90367452Y-48309548D01*
X90342466Y-48279103D01*
X90323899Y-48244367D01*
X90312465Y-48206674D01*
X90308000Y-48161339D01*
X90308000Y-47324661D01*
X90312465Y-47279326D01*
X90323899Y-47241633D01*
X90342466Y-47206897D01*
X90367452Y-47176452D01*
X90397897Y-47151466D01*
X90432633Y-47132899D01*
X90470326Y-47121465D01*
X90515661Y-47117000D01*
X91602339Y-47117000D01*
X91647674Y-47121465D01*
X91647674Y-47121465D01*
G37*
G36*
X93806674Y-47121465D02*
G01*
X93844367Y-47132899D01*
X93879103Y-47151466D01*
X93909548Y-47176452D01*
X93934534Y-47206897D01*
X93953101Y-47241633D01*
X93964535Y-47279326D01*
X93969000Y-47324661D01*
X93969000Y-48161339D01*
X93964535Y-48206674D01*
X93953101Y-48244367D01*
X93934534Y-48279103D01*
X93909548Y-48309548D01*
X93879103Y-48334534D01*
X93844367Y-48353101D01*
X93806674Y-48364535D01*
X93761339Y-48369000D01*
X92674661Y-48369000D01*
X92629326Y-48364535D01*
X92591633Y-48353101D01*
X92556897Y-48334534D01*
X92526452Y-48309548D01*
X92501466Y-48279103D01*
X92482899Y-48244367D01*
X92471465Y-48206674D01*
X92467000Y-48161339D01*
X92467000Y-47324661D01*
X92471465Y-47279326D01*
X92482899Y-47241633D01*
X92501466Y-47206897D01*
X92526452Y-47176452D01*
X92556897Y-47151466D01*
X92591633Y-47132899D01*
X92629326Y-47121465D01*
X92674661Y-47117000D01*
X93761339Y-47117000D01*
X93806674Y-47121465D01*
X93806674Y-47121465D01*
G37*
G36*
X80591674Y-46497465D02*
G01*
X80629367Y-46508899D01*
X80664103Y-46527466D01*
X80694548Y-46552452D01*
X80719534Y-46582897D01*
X80738101Y-46617633D01*
X80749535Y-46655326D01*
X80754000Y-46700661D01*
X80754000Y-47787339D01*
X80749535Y-47832674D01*
X80738101Y-47870367D01*
X80719534Y-47905103D01*
X80694548Y-47935548D01*
X80664103Y-47960534D01*
X80629367Y-47979101D01*
X80591674Y-47990535D01*
X80546339Y-47995000D01*
X79709661Y-47995000D01*
X79664326Y-47990535D01*
X79626633Y-47979101D01*
X79591897Y-47960534D01*
X79561452Y-47935548D01*
X79536466Y-47905103D01*
X79517899Y-47870367D01*
X79506465Y-47832674D01*
X79502000Y-47787339D01*
X79502000Y-46700661D01*
X79506465Y-46655326D01*
X79517899Y-46617633D01*
X79536466Y-46582897D01*
X79561452Y-46552452D01*
X79591897Y-46527466D01*
X79626633Y-46508899D01*
X79664326Y-46497465D01*
X79709661Y-46493000D01*
X80546339Y-46493000D01*
X80591674Y-46497465D01*
X80591674Y-46497465D01*
G37*
G36*
X82641674Y-46497465D02*
G01*
X82679367Y-46508899D01*
X82714103Y-46527466D01*
X82744548Y-46552452D01*
X82769534Y-46582897D01*
X82788101Y-46617633D01*
X82799535Y-46655326D01*
X82804000Y-46700661D01*
X82804000Y-47787339D01*
X82799535Y-47832674D01*
X82788101Y-47870367D01*
X82769534Y-47905103D01*
X82744548Y-47935548D01*
X82714103Y-47960534D01*
X82679367Y-47979101D01*
X82641674Y-47990535D01*
X82596339Y-47995000D01*
X81759661Y-47995000D01*
X81714326Y-47990535D01*
X81676633Y-47979101D01*
X81641897Y-47960534D01*
X81611452Y-47935548D01*
X81586466Y-47905103D01*
X81567899Y-47870367D01*
X81556465Y-47832674D01*
X81552000Y-47787339D01*
X81552000Y-46700661D01*
X81556465Y-46655326D01*
X81567899Y-46617633D01*
X81586466Y-46582897D01*
X81611452Y-46552452D01*
X81641897Y-46527466D01*
X81676633Y-46508899D01*
X81714326Y-46497465D01*
X81759661Y-46493000D01*
X82596339Y-46493000D01*
X82641674Y-46497465D01*
X82641674Y-46497465D01*
G37*
G36*
X76518674Y-46497465D02*
G01*
X76556367Y-46508899D01*
X76591103Y-46527466D01*
X76621548Y-46552452D01*
X76646534Y-46582897D01*
X76665101Y-46617633D01*
X76676535Y-46655326D01*
X76681000Y-46700661D01*
X76681000Y-47787339D01*
X76676535Y-47832674D01*
X76665101Y-47870367D01*
X76646534Y-47905103D01*
X76621548Y-47935548D01*
X76591103Y-47960534D01*
X76556367Y-47979101D01*
X76518674Y-47990535D01*
X76473339Y-47995000D01*
X75636661Y-47995000D01*
X75591326Y-47990535D01*
X75553633Y-47979101D01*
X75518897Y-47960534D01*
X75488452Y-47935548D01*
X75463466Y-47905103D01*
X75444899Y-47870367D01*
X75433465Y-47832674D01*
X75429000Y-47787339D01*
X75429000Y-46700661D01*
X75433465Y-46655326D01*
X75444899Y-46617633D01*
X75463466Y-46582897D01*
X75488452Y-46552452D01*
X75518897Y-46527466D01*
X75553633Y-46508899D01*
X75591326Y-46497465D01*
X75636661Y-46493000D01*
X76473339Y-46493000D01*
X76518674Y-46497465D01*
X76518674Y-46497465D01*
G37*
G36*
X78568674Y-46497465D02*
G01*
X78606367Y-46508899D01*
X78641103Y-46527466D01*
X78671548Y-46552452D01*
X78696534Y-46582897D01*
X78715101Y-46617633D01*
X78726535Y-46655326D01*
X78731000Y-46700661D01*
X78731000Y-47787339D01*
X78726535Y-47832674D01*
X78715101Y-47870367D01*
X78696534Y-47905103D01*
X78671548Y-47935548D01*
X78641103Y-47960534D01*
X78606367Y-47979101D01*
X78568674Y-47990535D01*
X78523339Y-47995000D01*
X77686661Y-47995000D01*
X77641326Y-47990535D01*
X77603633Y-47979101D01*
X77568897Y-47960534D01*
X77538452Y-47935548D01*
X77513466Y-47905103D01*
X77494899Y-47870367D01*
X77483465Y-47832674D01*
X77479000Y-47787339D01*
X77479000Y-46700661D01*
X77483465Y-46655326D01*
X77494899Y-46617633D01*
X77513466Y-46582897D01*
X77538452Y-46552452D01*
X77568897Y-46527466D01*
X77603633Y-46508899D01*
X77641326Y-46497465D01*
X77686661Y-46493000D01*
X78523339Y-46493000D01*
X78568674Y-46497465D01*
X78568674Y-46497465D01*
G37*
G36*
X61548674Y-45869465D02*
G01*
X61586367Y-45880899D01*
X61621103Y-45899466D01*
X61651548Y-45924452D01*
X61676534Y-45954897D01*
X61695101Y-45989633D01*
X61706535Y-46027326D01*
X61711000Y-46072661D01*
X61711000Y-46909339D01*
X61706535Y-46954674D01*
X61695101Y-46992367D01*
X61676534Y-47027103D01*
X61651548Y-47057548D01*
X61621103Y-47082534D01*
X61586367Y-47101101D01*
X61548674Y-47112535D01*
X61503339Y-47117000D01*
X60416661Y-47117000D01*
X60371326Y-47112535D01*
X60333633Y-47101101D01*
X60298897Y-47082534D01*
X60268452Y-47057548D01*
X60243466Y-47027103D01*
X60224899Y-46992367D01*
X60213465Y-46954674D01*
X60209000Y-46909339D01*
X60209000Y-46072661D01*
X60213465Y-46027326D01*
X60224899Y-45989633D01*
X60243466Y-45954897D01*
X60268452Y-45924452D01*
X60298897Y-45899466D01*
X60333633Y-45880899D01*
X60371326Y-45869465D01*
X60416661Y-45865000D01*
X61503339Y-45865000D01*
X61548674Y-45869465D01*
X61548674Y-45869465D01*
G37*
G36*
X87889928Y-43491764D02*
G01*
X87911009Y-43498160D01*
X87930445Y-43508548D01*
X87947476Y-43522524D01*
X87961452Y-43539555D01*
X87971840Y-43558991D01*
X87978236Y-43580072D01*
X87981000Y-43608140D01*
X87981000Y-45221860D01*
X87978236Y-45249928D01*
X87971840Y-45271009D01*
X87961452Y-45290445D01*
X87947476Y-45307476D01*
X87930445Y-45321452D01*
X87911009Y-45331840D01*
X87889928Y-45338236D01*
X87861860Y-45341000D01*
X87398140Y-45341000D01*
X87370072Y-45338236D01*
X87348991Y-45331840D01*
X87329555Y-45321452D01*
X87312524Y-45307476D01*
X87298548Y-45290445D01*
X87288160Y-45271009D01*
X87281764Y-45249928D01*
X87279000Y-45221860D01*
X87279000Y-43608140D01*
X87281764Y-43580072D01*
X87288160Y-43558991D01*
X87298548Y-43539555D01*
X87312524Y-43522524D01*
X87329555Y-43508548D01*
X87348991Y-43498160D01*
X87370072Y-43491764D01*
X87398140Y-43489000D01*
X87861860Y-43489000D01*
X87889928Y-43491764D01*
X87889928Y-43491764D01*
G37*
G36*
X89159928Y-43491764D02*
G01*
X89181009Y-43498160D01*
X89200445Y-43508548D01*
X89217476Y-43522524D01*
X89231452Y-43539555D01*
X89241840Y-43558991D01*
X89248236Y-43580072D01*
X89251000Y-43608140D01*
X89251000Y-45221860D01*
X89248236Y-45249928D01*
X89241840Y-45271009D01*
X89231452Y-45290445D01*
X89217476Y-45307476D01*
X89200445Y-45321452D01*
X89181009Y-45331840D01*
X89159928Y-45338236D01*
X89131860Y-45341000D01*
X88668140Y-45341000D01*
X88640072Y-45338236D01*
X88618991Y-45331840D01*
X88599555Y-45321452D01*
X88582524Y-45307476D01*
X88568548Y-45290445D01*
X88558160Y-45271009D01*
X88551764Y-45249928D01*
X88549000Y-45221860D01*
X88549000Y-43608140D01*
X88551764Y-43580072D01*
X88558160Y-43558991D01*
X88568548Y-43539555D01*
X88582524Y-43522524D01*
X88599555Y-43508548D01*
X88618991Y-43498160D01*
X88640072Y-43491764D01*
X88668140Y-43489000D01*
X89131860Y-43489000D01*
X89159928Y-43491764D01*
X89159928Y-43491764D01*
G37*
G36*
X85349928Y-43491764D02*
G01*
X85371009Y-43498160D01*
X85390445Y-43508548D01*
X85407476Y-43522524D01*
X85421452Y-43539555D01*
X85431840Y-43558991D01*
X85438236Y-43580072D01*
X85441000Y-43608140D01*
X85441000Y-45221860D01*
X85438236Y-45249928D01*
X85431840Y-45271009D01*
X85421452Y-45290445D01*
X85407476Y-45307476D01*
X85390445Y-45321452D01*
X85371009Y-45331840D01*
X85349928Y-45338236D01*
X85321860Y-45341000D01*
X84858140Y-45341000D01*
X84830072Y-45338236D01*
X84808991Y-45331840D01*
X84789555Y-45321452D01*
X84772524Y-45307476D01*
X84758548Y-45290445D01*
X84748160Y-45271009D01*
X84741764Y-45249928D01*
X84739000Y-45221860D01*
X84739000Y-43608140D01*
X84741764Y-43580072D01*
X84748160Y-43558991D01*
X84758548Y-43539555D01*
X84772524Y-43522524D01*
X84789555Y-43508548D01*
X84808991Y-43498160D01*
X84830072Y-43491764D01*
X84858140Y-43489000D01*
X85321860Y-43489000D01*
X85349928Y-43491764D01*
X85349928Y-43491764D01*
G37*
G36*
X86619928Y-43491764D02*
G01*
X86641009Y-43498160D01*
X86660445Y-43508548D01*
X86677476Y-43522524D01*
X86691452Y-43539555D01*
X86701840Y-43558991D01*
X86708236Y-43580072D01*
X86711000Y-43608140D01*
X86711000Y-45221860D01*
X86708236Y-45249928D01*
X86701840Y-45271009D01*
X86691452Y-45290445D01*
X86677476Y-45307476D01*
X86660445Y-45321452D01*
X86641009Y-45331840D01*
X86619928Y-45338236D01*
X86591860Y-45341000D01*
X86128140Y-45341000D01*
X86100072Y-45338236D01*
X86078991Y-45331840D01*
X86059555Y-45321452D01*
X86042524Y-45307476D01*
X86028548Y-45290445D01*
X86018160Y-45271009D01*
X86011764Y-45249928D01*
X86009000Y-45221860D01*
X86009000Y-43608140D01*
X86011764Y-43580072D01*
X86018160Y-43558991D01*
X86028548Y-43539555D01*
X86042524Y-43522524D01*
X86059555Y-43508548D01*
X86078991Y-43498160D01*
X86100072Y-43491764D01*
X86128140Y-43489000D01*
X86591860Y-43489000D01*
X86619928Y-43491764D01*
X86619928Y-43491764D01*
G37*
G36*
X100227823Y-43699087D02*
G01*
X100291111Y-43718286D01*
X100349449Y-43749468D01*
X100400575Y-43791425D01*
X100442532Y-43842551D01*
X100473714Y-43900889D01*
X100492913Y-43964177D01*
X100500000Y-44036138D01*
X100500000Y-44949862D01*
X100492913Y-45021823D01*
X100473714Y-45085111D01*
X100442532Y-45143449D01*
X100400575Y-45194575D01*
X100349449Y-45236532D01*
X100291111Y-45267714D01*
X100227823Y-45286913D01*
X100155862Y-45294000D01*
X97742138Y-45294000D01*
X97670177Y-45286913D01*
X97606889Y-45267714D01*
X97548551Y-45236532D01*
X97497425Y-45194575D01*
X97455468Y-45143449D01*
X97424286Y-45085111D01*
X97405087Y-45021823D01*
X97398000Y-44949862D01*
X97398000Y-44036138D01*
X97405087Y-43964177D01*
X97424286Y-43900889D01*
X97455468Y-43842551D01*
X97497425Y-43791425D01*
X97548551Y-43749468D01*
X97606889Y-43718286D01*
X97670177Y-43699087D01*
X97742138Y-43692000D01*
X100155862Y-43692000D01*
X100227823Y-43699087D01*
X100227823Y-43699087D01*
G37*
G36*
X61548674Y-43819465D02*
G01*
X61586367Y-43830899D01*
X61621103Y-43849466D01*
X61651548Y-43874452D01*
X61676534Y-43904897D01*
X61695101Y-43939633D01*
X61706535Y-43977326D01*
X61711000Y-44022661D01*
X61711000Y-44859339D01*
X61706535Y-44904674D01*
X61695101Y-44942367D01*
X61676534Y-44977103D01*
X61651548Y-45007548D01*
X61621103Y-45032534D01*
X61586367Y-45051101D01*
X61548674Y-45062535D01*
X61503339Y-45067000D01*
X60416661Y-45067000D01*
X60371326Y-45062535D01*
X60333633Y-45051101D01*
X60298897Y-45032534D01*
X60268452Y-45007548D01*
X60243466Y-44977103D01*
X60224899Y-44942367D01*
X60213465Y-44904674D01*
X60209000Y-44859339D01*
X60209000Y-44022661D01*
X60213465Y-43977326D01*
X60224899Y-43939633D01*
X60243466Y-43904897D01*
X60268452Y-43874452D01*
X60298897Y-43849466D01*
X60333633Y-43830899D01*
X60371326Y-43819465D01*
X60416661Y-43815000D01*
X61503339Y-43815000D01*
X61548674Y-43819465D01*
X61548674Y-43819465D01*
G37*
G36*
X71655457Y-41729239D02*
G01*
X71796982Y-41757390D01*
X71983520Y-41834656D01*
X72151400Y-41946830D01*
X72294170Y-42089600D01*
X72406344Y-42257480D01*
X72483610Y-42444018D01*
X72523000Y-42642046D01*
X72523000Y-42843954D01*
X72483610Y-43041982D01*
X72406344Y-43228520D01*
X72294170Y-43396400D01*
X72151400Y-43539170D01*
X71983520Y-43651344D01*
X71796982Y-43728610D01*
X71692121Y-43749468D01*
X71598955Y-43768000D01*
X71397045Y-43768000D01*
X71303879Y-43749468D01*
X71199018Y-43728610D01*
X71012480Y-43651344D01*
X70844600Y-43539170D01*
X70701830Y-43396400D01*
X70589656Y-43228520D01*
X70512390Y-43041982D01*
X70473000Y-42843954D01*
X70473000Y-42642046D01*
X70512390Y-42444018D01*
X70589656Y-42257480D01*
X70701830Y-42089600D01*
X70844600Y-41946830D01*
X71012480Y-41834656D01*
X71199018Y-41757390D01*
X71340543Y-41729239D01*
X71397045Y-41718000D01*
X71598955Y-41718000D01*
X71655457Y-41729239D01*
X71655457Y-41729239D01*
G37*
G36*
X78455457Y-41729239D02*
G01*
X78596982Y-41757390D01*
X78783520Y-41834656D01*
X78951400Y-41946830D01*
X79094170Y-42089600D01*
X79206344Y-42257480D01*
X79283610Y-42444018D01*
X79323000Y-42642046D01*
X79323000Y-42843954D01*
X79283610Y-43041982D01*
X79206344Y-43228520D01*
X79094170Y-43396400D01*
X78951400Y-43539170D01*
X78783520Y-43651344D01*
X78596982Y-43728610D01*
X78492121Y-43749468D01*
X78398955Y-43768000D01*
X78197045Y-43768000D01*
X78103879Y-43749468D01*
X77999018Y-43728610D01*
X77812480Y-43651344D01*
X77644600Y-43539170D01*
X77501830Y-43396400D01*
X77389656Y-43228520D01*
X77312390Y-43041982D01*
X77273000Y-42843954D01*
X77273000Y-42642046D01*
X77312390Y-42444018D01*
X77389656Y-42257480D01*
X77501830Y-42089600D01*
X77644600Y-41946830D01*
X77812480Y-41834656D01*
X77999018Y-41757390D01*
X78140543Y-41729239D01*
X78197045Y-41718000D01*
X78398955Y-41718000D01*
X78455457Y-41729239D01*
X78455457Y-41729239D01*
G37*
G36*
X61548674Y-41796465D02*
G01*
X61586367Y-41807899D01*
X61621103Y-41826466D01*
X61651548Y-41851452D01*
X61676534Y-41881897D01*
X61695101Y-41916633D01*
X61706535Y-41954326D01*
X61711000Y-41999661D01*
X61711000Y-42836339D01*
X61706535Y-42881674D01*
X61695101Y-42919367D01*
X61676534Y-42954103D01*
X61651548Y-42984548D01*
X61621103Y-43009534D01*
X61586367Y-43028101D01*
X61548674Y-43039535D01*
X61503339Y-43044000D01*
X60416661Y-43044000D01*
X60371326Y-43039535D01*
X60333633Y-43028101D01*
X60298897Y-43009534D01*
X60268452Y-42984548D01*
X60243466Y-42954103D01*
X60224899Y-42919367D01*
X60213465Y-42881674D01*
X60209000Y-42836339D01*
X60209000Y-41999661D01*
X60213465Y-41954326D01*
X60224899Y-41916633D01*
X60243466Y-41881897D01*
X60268452Y-41851452D01*
X60298897Y-41826466D01*
X60333633Y-41807899D01*
X60371326Y-41796465D01*
X60416661Y-41792000D01*
X61503339Y-41792000D01*
X61548674Y-41796465D01*
X61548674Y-41796465D01*
G37*
G36*
X93085228Y-40583703D02*
G01*
X93240100Y-40647853D01*
X93379481Y-40740985D01*
X93498015Y-40859519D01*
X93591147Y-40998900D01*
X93655297Y-41153772D01*
X93688000Y-41318184D01*
X93688000Y-41485816D01*
X93655297Y-41650228D01*
X93591147Y-41805100D01*
X93498015Y-41944481D01*
X93379481Y-42063015D01*
X93240100Y-42156147D01*
X93085228Y-42220297D01*
X92920816Y-42253000D01*
X92753184Y-42253000D01*
X92588772Y-42220297D01*
X92433900Y-42156147D01*
X92294519Y-42063015D01*
X92175985Y-41944481D01*
X92082853Y-41805100D01*
X92018703Y-41650228D01*
X91986000Y-41485816D01*
X91986000Y-41318184D01*
X92018703Y-41153772D01*
X92082853Y-40998900D01*
X92175985Y-40859519D01*
X92294519Y-40740985D01*
X92433900Y-40647853D01*
X92588772Y-40583703D01*
X92753184Y-40551000D01*
X92920816Y-40551000D01*
X93085228Y-40583703D01*
X93085228Y-40583703D01*
G37*
G36*
X85383823Y-40563313D02*
G01*
X85544242Y-40611976D01*
X85611361Y-40647852D01*
X85692078Y-40690996D01*
X85821659Y-40797341D01*
X85928004Y-40926922D01*
X85928005Y-40926924D01*
X86007024Y-41074758D01*
X86055687Y-41235177D01*
X86072117Y-41402000D01*
X86055687Y-41568823D01*
X86007024Y-41729242D01*
X85941701Y-41851452D01*
X85928004Y-41877078D01*
X85821659Y-42006659D01*
X85692078Y-42113004D01*
X85692076Y-42113005D01*
X85544242Y-42192024D01*
X85383823Y-42240687D01*
X85258804Y-42253000D01*
X85175196Y-42253000D01*
X85050177Y-42240687D01*
X84889758Y-42192024D01*
X84741924Y-42113005D01*
X84741922Y-42113004D01*
X84612341Y-42006659D01*
X84505996Y-41877078D01*
X84492299Y-41851452D01*
X84426976Y-41729242D01*
X84378313Y-41568823D01*
X84361883Y-41402000D01*
X84378313Y-41235177D01*
X84426976Y-41074758D01*
X84505995Y-40926924D01*
X84505996Y-40926922D01*
X84612341Y-40797341D01*
X84741922Y-40690996D01*
X84822639Y-40647852D01*
X84889758Y-40611976D01*
X85050177Y-40563313D01*
X85175196Y-40551000D01*
X85258804Y-40551000D01*
X85383823Y-40563313D01*
X85383823Y-40563313D01*
G37*
G36*
X110977061Y-39999087D02*
G01*
X111047627Y-40006037D01*
X111217466Y-40057557D01*
X111373991Y-40141222D01*
X111375610Y-40142551D01*
X111511186Y-40253814D01*
X111585161Y-40343954D01*
X111623778Y-40391009D01*
X111707443Y-40547534D01*
X111758963Y-40717373D01*
X111776359Y-40894000D01*
X111758963Y-41070627D01*
X111707443Y-41240466D01*
X111623778Y-41396991D01*
X111594448Y-41432729D01*
X111511186Y-41534186D01*
X111438301Y-41594000D01*
X111373991Y-41646778D01*
X111217466Y-41730443D01*
X111047627Y-41781963D01*
X110981443Y-41788481D01*
X110915260Y-41795000D01*
X110826740Y-41795000D01*
X110760557Y-41788481D01*
X110694373Y-41781963D01*
X110524534Y-41730443D01*
X110368009Y-41646778D01*
X110303699Y-41594000D01*
X110230814Y-41534186D01*
X110147552Y-41432729D01*
X110118222Y-41396991D01*
X110034557Y-41240466D01*
X109983037Y-41070627D01*
X109965641Y-40894000D01*
X109983037Y-40717373D01*
X110034557Y-40547534D01*
X110118222Y-40391009D01*
X110156839Y-40343954D01*
X110230814Y-40253814D01*
X110366390Y-40142551D01*
X110368009Y-40141222D01*
X110524534Y-40057557D01*
X110694373Y-40006037D01*
X110764939Y-39999087D01*
X110826740Y-39993000D01*
X110915260Y-39993000D01*
X110977061Y-39999087D01*
X110977061Y-39999087D01*
G37*
G36*
X100227823Y-38199087D02*
G01*
X100291111Y-38218286D01*
X100349449Y-38249468D01*
X100400575Y-38291425D01*
X100442532Y-38342551D01*
X100473714Y-38400889D01*
X100492913Y-38464177D01*
X100500000Y-38536138D01*
X100500000Y-39449862D01*
X100492913Y-39521823D01*
X100473714Y-39585111D01*
X100442532Y-39643449D01*
X100400575Y-39694575D01*
X100349445Y-39736535D01*
X100311603Y-39756762D01*
X100291229Y-39770375D01*
X100273902Y-39787702D01*
X100260288Y-39808076D01*
X100250911Y-39830715D01*
X100246130Y-39854749D01*
X100246130Y-39879253D01*
X100250910Y-39903286D01*
X100260288Y-39925925D01*
X100273901Y-39946299D01*
X100291228Y-39963626D01*
X100311602Y-39977240D01*
X100334241Y-39986617D01*
X100358275Y-39991398D01*
X100370527Y-39992000D01*
X102155862Y-39992000D01*
X102227823Y-39999087D01*
X102291111Y-40018286D01*
X102349449Y-40049468D01*
X102400575Y-40091425D01*
X102442532Y-40142551D01*
X102473714Y-40200889D01*
X102492913Y-40264177D01*
X102500000Y-40336138D01*
X102500000Y-41249862D01*
X102492913Y-41321823D01*
X102473714Y-41385111D01*
X102442532Y-41443449D01*
X102400575Y-41494575D01*
X102349449Y-41536532D01*
X102291111Y-41567714D01*
X102227823Y-41586913D01*
X102155862Y-41594000D01*
X99742138Y-41594000D01*
X99670177Y-41586913D01*
X99606889Y-41567714D01*
X99548551Y-41536532D01*
X99497425Y-41494575D01*
X99455468Y-41443449D01*
X99424286Y-41385111D01*
X99405087Y-41321823D01*
X99398000Y-41249862D01*
X99398000Y-40336138D01*
X99405087Y-40264177D01*
X99424286Y-40200889D01*
X99455468Y-40142551D01*
X99497425Y-40091425D01*
X99548555Y-40049465D01*
X99586397Y-40029238D01*
X99606771Y-40015625D01*
X99624098Y-39998298D01*
X99637712Y-39977924D01*
X99647089Y-39955285D01*
X99651870Y-39931251D01*
X99651870Y-39906747D01*
X99647090Y-39882714D01*
X99637712Y-39860075D01*
X99624099Y-39839701D01*
X99606772Y-39822374D01*
X99586398Y-39808760D01*
X99563759Y-39799383D01*
X99539725Y-39794602D01*
X99527473Y-39794000D01*
X97742138Y-39794000D01*
X97670177Y-39786913D01*
X97606889Y-39767714D01*
X97548551Y-39736532D01*
X97497425Y-39694575D01*
X97455468Y-39643449D01*
X97424286Y-39585111D01*
X97405087Y-39521823D01*
X97398000Y-39449862D01*
X97398000Y-38536138D01*
X97405087Y-38464177D01*
X97424286Y-38400889D01*
X97455468Y-38342551D01*
X97497425Y-38291425D01*
X97548551Y-38249468D01*
X97606889Y-38218286D01*
X97670177Y-38199087D01*
X97742138Y-38192000D01*
X100155862Y-38192000D01*
X100227823Y-38199087D01*
X100227823Y-38199087D01*
G37*
G36*
X71664963Y-39231130D02*
G01*
X71796982Y-39257390D01*
X71983520Y-39334656D01*
X72151400Y-39446830D01*
X72294170Y-39589600D01*
X72406344Y-39757480D01*
X72483610Y-39944018D01*
X72523000Y-40142046D01*
X72523000Y-40343954D01*
X72483610Y-40541982D01*
X72406344Y-40728520D01*
X72294170Y-40896400D01*
X72151400Y-41039170D01*
X71983520Y-41151344D01*
X71796982Y-41228610D01*
X71690140Y-41249862D01*
X71598955Y-41268000D01*
X71397045Y-41268000D01*
X71305860Y-41249862D01*
X71199018Y-41228610D01*
X71012480Y-41151344D01*
X70844600Y-41039170D01*
X70701830Y-40896400D01*
X70589656Y-40728520D01*
X70512390Y-40541982D01*
X70473000Y-40343954D01*
X70473000Y-40142046D01*
X70512390Y-39944018D01*
X70589656Y-39757480D01*
X70701830Y-39589600D01*
X70844600Y-39446830D01*
X71012480Y-39334656D01*
X71199018Y-39257390D01*
X71331037Y-39231130D01*
X71397045Y-39218000D01*
X71598955Y-39218000D01*
X71664963Y-39231130D01*
X71664963Y-39231130D01*
G37*
G36*
X78464963Y-39231130D02*
G01*
X78596982Y-39257390D01*
X78783520Y-39334656D01*
X78951400Y-39446830D01*
X79094170Y-39589600D01*
X79206344Y-39757480D01*
X79283610Y-39944018D01*
X79323000Y-40142046D01*
X79323000Y-40343954D01*
X79283610Y-40541982D01*
X79206344Y-40728520D01*
X79094170Y-40896400D01*
X78951400Y-41039170D01*
X78783520Y-41151344D01*
X78596982Y-41228610D01*
X78490140Y-41249862D01*
X78398955Y-41268000D01*
X78197045Y-41268000D01*
X78105860Y-41249862D01*
X77999018Y-41228610D01*
X77812480Y-41151344D01*
X77644600Y-41039170D01*
X77501830Y-40896400D01*
X77389656Y-40728520D01*
X77312390Y-40541982D01*
X77273000Y-40343954D01*
X77273000Y-40142046D01*
X77312390Y-39944018D01*
X77389656Y-39757480D01*
X77501830Y-39589600D01*
X77644600Y-39446830D01*
X77812480Y-39334656D01*
X77999018Y-39257390D01*
X78131037Y-39231130D01*
X78197045Y-39218000D01*
X78398955Y-39218000D01*
X78464963Y-39231130D01*
X78464963Y-39231130D01*
G37*
G36*
X61548674Y-39746465D02*
G01*
X61586367Y-39757899D01*
X61621103Y-39776466D01*
X61651548Y-39801452D01*
X61676534Y-39831897D01*
X61695101Y-39866633D01*
X61706535Y-39904326D01*
X61711000Y-39949661D01*
X61711000Y-40786339D01*
X61706535Y-40831674D01*
X61695101Y-40869367D01*
X61676534Y-40904103D01*
X61651548Y-40934548D01*
X61621103Y-40959534D01*
X61586367Y-40978101D01*
X61548674Y-40989535D01*
X61503339Y-40994000D01*
X60416661Y-40994000D01*
X60371326Y-40989535D01*
X60333633Y-40978101D01*
X60298897Y-40959534D01*
X60268452Y-40934548D01*
X60243466Y-40904103D01*
X60224899Y-40869367D01*
X60213465Y-40831674D01*
X60209000Y-40786339D01*
X60209000Y-39949661D01*
X60213465Y-39904326D01*
X60224899Y-39866633D01*
X60243466Y-39831897D01*
X60268452Y-39801452D01*
X60298897Y-39776466D01*
X60333633Y-39757899D01*
X60371326Y-39746465D01*
X60416661Y-39742000D01*
X61503339Y-39742000D01*
X61548674Y-39746465D01*
X61548674Y-39746465D01*
G37*
G36*
X111772000Y-39255000D02*
G01*
X109970000Y-39255000D01*
X109970000Y-37453000D01*
X111772000Y-37453000D01*
X111772000Y-39255000D01*
X111772000Y-39255000D01*
G37*
G36*
X85465228Y-37281703D02*
G01*
X85620100Y-37345853D01*
X85759481Y-37438985D01*
X85878015Y-37557519D01*
X85971147Y-37696900D01*
X86035297Y-37851772D01*
X86068000Y-38016184D01*
X86068000Y-38183816D01*
X86035297Y-38348228D01*
X85971147Y-38503100D01*
X85878015Y-38642481D01*
X85759481Y-38761015D01*
X85620100Y-38854147D01*
X85465228Y-38918297D01*
X85300816Y-38951000D01*
X85133184Y-38951000D01*
X84968772Y-38918297D01*
X84813900Y-38854147D01*
X84674519Y-38761015D01*
X84555985Y-38642481D01*
X84462853Y-38503100D01*
X84398703Y-38348228D01*
X84366000Y-38183816D01*
X84366000Y-38016184D01*
X84398703Y-37851772D01*
X84462853Y-37696900D01*
X84555985Y-37557519D01*
X84674519Y-37438985D01*
X84813900Y-37345853D01*
X84968772Y-37281703D01*
X85133184Y-37249000D01*
X85300816Y-37249000D01*
X85465228Y-37281703D01*
X85465228Y-37281703D01*
G37*
G36*
X93003823Y-37261313D02*
G01*
X93164242Y-37309976D01*
X93231361Y-37345852D01*
X93312078Y-37388996D01*
X93441659Y-37495341D01*
X93548004Y-37624922D01*
X93548005Y-37624924D01*
X93627024Y-37772758D01*
X93675687Y-37933177D01*
X93692117Y-38100000D01*
X93675687Y-38266823D01*
X93627024Y-38427242D01*
X93586477Y-38503100D01*
X93548004Y-38575078D01*
X93441659Y-38704659D01*
X93312078Y-38811004D01*
X93312076Y-38811005D01*
X93164242Y-38890024D01*
X93003823Y-38938687D01*
X92878804Y-38951000D01*
X92795196Y-38951000D01*
X92670177Y-38938687D01*
X92509758Y-38890024D01*
X92361924Y-38811005D01*
X92361922Y-38811004D01*
X92232341Y-38704659D01*
X92125996Y-38575078D01*
X92087523Y-38503100D01*
X92046976Y-38427242D01*
X91998313Y-38266823D01*
X91981883Y-38100000D01*
X91998313Y-37933177D01*
X92046976Y-37772758D01*
X92125995Y-37624924D01*
X92125996Y-37624922D01*
X92232341Y-37495341D01*
X92361922Y-37388996D01*
X92442639Y-37345852D01*
X92509758Y-37309976D01*
X92670177Y-37261313D01*
X92795196Y-37249000D01*
X92878804Y-37249000D01*
X93003823Y-37261313D01*
X93003823Y-37261313D01*
G37*
G36*
X82020194Y-36016035D02*
G01*
X82116382Y-36055878D01*
X82252413Y-36112223D01*
X82461403Y-36251866D01*
X82639134Y-36429597D01*
X82778777Y-36638587D01*
X82835122Y-36774618D01*
X82874965Y-36870806D01*
X82924000Y-37117324D01*
X82924000Y-37368676D01*
X82874965Y-37615194D01*
X82852278Y-37669964D01*
X82778777Y-37847413D01*
X82639134Y-38056403D01*
X82461403Y-38234134D01*
X82252413Y-38373777D01*
X82123343Y-38427239D01*
X82020194Y-38469965D01*
X81773676Y-38519000D01*
X81522324Y-38519000D01*
X81275806Y-38469965D01*
X81172657Y-38427239D01*
X81043587Y-38373777D01*
X80834597Y-38234134D01*
X80656866Y-38056403D01*
X80517223Y-37847413D01*
X80443722Y-37669964D01*
X80421035Y-37615194D01*
X80372000Y-37368676D01*
X80372000Y-37117324D01*
X80421035Y-36870806D01*
X80460878Y-36774618D01*
X80517223Y-36638587D01*
X80656866Y-36429597D01*
X80834597Y-36251866D01*
X81043587Y-36112223D01*
X81179618Y-36055878D01*
X81275806Y-36016035D01*
X81522324Y-35967000D01*
X81773676Y-35967000D01*
X82020194Y-36016035D01*
X82020194Y-36016035D01*
G37*
G36*
X68520194Y-36016035D02*
G01*
X68616382Y-36055878D01*
X68752413Y-36112223D01*
X68961403Y-36251866D01*
X69139134Y-36429597D01*
X69278777Y-36638587D01*
X69335122Y-36774618D01*
X69374965Y-36870806D01*
X69424000Y-37117324D01*
X69424000Y-37368676D01*
X69374965Y-37615194D01*
X69352278Y-37669964D01*
X69278777Y-37847413D01*
X69139134Y-38056403D01*
X68961403Y-38234134D01*
X68752413Y-38373777D01*
X68623343Y-38427239D01*
X68520194Y-38469965D01*
X68273676Y-38519000D01*
X68022324Y-38519000D01*
X67775806Y-38469965D01*
X67672657Y-38427239D01*
X67543587Y-38373777D01*
X67334597Y-38234134D01*
X67156866Y-38056403D01*
X67017223Y-37847413D01*
X66943722Y-37669964D01*
X66921035Y-37615194D01*
X66872000Y-37368676D01*
X66872000Y-37117324D01*
X66921035Y-36870806D01*
X66960878Y-36774618D01*
X67017223Y-36638587D01*
X67156866Y-36429597D01*
X67334597Y-36251866D01*
X67543587Y-36112223D01*
X67679618Y-36055878D01*
X67775806Y-36016035D01*
X68022324Y-35967000D01*
X68273676Y-35967000D01*
X68520194Y-36016035D01*
X68520194Y-36016035D01*
G37*
G36*
X75270194Y-35216035D02*
G01*
X75366382Y-35255878D01*
X75502413Y-35312223D01*
X75711403Y-35451866D01*
X75889134Y-35629597D01*
X76028777Y-35838587D01*
X76072212Y-35943449D01*
X76124965Y-36070806D01*
X76174000Y-36317324D01*
X76174000Y-36568676D01*
X76124965Y-36815194D01*
X76085122Y-36911382D01*
X76028777Y-37047413D01*
X75889134Y-37256403D01*
X75711403Y-37434134D01*
X75502413Y-37573777D01*
X75402420Y-37615195D01*
X75270194Y-37669965D01*
X75023676Y-37719000D01*
X74772324Y-37719000D01*
X74525806Y-37669965D01*
X74393580Y-37615195D01*
X74293587Y-37573777D01*
X74084597Y-37434134D01*
X73906866Y-37256403D01*
X73767223Y-37047413D01*
X73710878Y-36911382D01*
X73671035Y-36815194D01*
X73622000Y-36568676D01*
X73622000Y-36317324D01*
X73671035Y-36070806D01*
X73723788Y-35943449D01*
X73767223Y-35838587D01*
X73906866Y-35629597D01*
X74084597Y-35451866D01*
X74293587Y-35312223D01*
X74429618Y-35255878D01*
X74525806Y-35216035D01*
X74772324Y-35167000D01*
X75023676Y-35167000D01*
X75270194Y-35216035D01*
X75270194Y-35216035D01*
G37*
G36*
X102227823Y-34499087D02*
G01*
X102291111Y-34518286D01*
X102349449Y-34549468D01*
X102400575Y-34591425D01*
X102442532Y-34642551D01*
X102473714Y-34700889D01*
X102492913Y-34764177D01*
X102500000Y-34836138D01*
X102500000Y-35749862D01*
X102492913Y-35821823D01*
X102473714Y-35885111D01*
X102442532Y-35943449D01*
X102400575Y-35994575D01*
X102349449Y-36036532D01*
X102291111Y-36067714D01*
X102227823Y-36086913D01*
X102155862Y-36094000D01*
X99742138Y-36094000D01*
X99670177Y-36086913D01*
X99606889Y-36067714D01*
X99548551Y-36036532D01*
X99497425Y-35994575D01*
X99455468Y-35943449D01*
X99424286Y-35885111D01*
X99405087Y-35821823D01*
X99398000Y-35749862D01*
X99398000Y-34836138D01*
X99405087Y-34764177D01*
X99424286Y-34700889D01*
X99455468Y-34642551D01*
X99497425Y-34591425D01*
X99548551Y-34549468D01*
X99606889Y-34518286D01*
X99670177Y-34499087D01*
X99742138Y-34492000D01*
X102155862Y-34492000D01*
X102227823Y-34499087D01*
X102227823Y-34499087D01*
G37*
G36*
X90368001Y-34417001D02*
G01*
X85266001Y-34417001D01*
X85266001Y-32505001D01*
X90368001Y-32505001D01*
X90368001Y-34417001D01*
X90368001Y-34417001D01*
G37*
G36*
X100227823Y-32099087D02*
G01*
X100291111Y-32118286D01*
X100349449Y-32149468D01*
X100400575Y-32191425D01*
X100442532Y-32242551D01*
X100473714Y-32300889D01*
X100492913Y-32364177D01*
X100500000Y-32436138D01*
X100500000Y-33349862D01*
X100492913Y-33421823D01*
X100473714Y-33485111D01*
X100442532Y-33543449D01*
X100400575Y-33594575D01*
X100349449Y-33636532D01*
X100291111Y-33667714D01*
X100227823Y-33686913D01*
X100155862Y-33694000D01*
X97742138Y-33694000D01*
X97670177Y-33686913D01*
X97606889Y-33667714D01*
X97548551Y-33636532D01*
X97497425Y-33594575D01*
X97455468Y-33543449D01*
X97424286Y-33485111D01*
X97405087Y-33421823D01*
X97398000Y-33349862D01*
X97398000Y-32436138D01*
X97405087Y-32364177D01*
X97424286Y-32300889D01*
X97455468Y-32242551D01*
X97497425Y-32191425D01*
X97548551Y-32149468D01*
X97606889Y-32118286D01*
X97670177Y-32099087D01*
X97742138Y-32092000D01*
X100155862Y-32092000D01*
X100227823Y-32099087D01*
X100227823Y-32099087D01*
G37*
M02*
