%FSLAX45Y45*%
G04 Gerber Fmt 4.5, Leading zero omitted, Abs format (unit mm)*
G04 Created by KiCad (PCBNEW (5.1.2)-1) date 2020-02-06 13:28:47*
%MOMM*%
%LPD*%
G04 APERTURE LIST*
%ADD10C,0.050000*%
%ADD11C,0.200000*%
%ADD12C,0.300000*%
G04 APERTURE END LIST*
D10*
X5892800Y-7734300D02*
X5892800Y-3162300D01*
X11468100Y-7734300D02*
X5892800Y-7734300D01*
X11671300Y-3162300D02*
X11671300Y-7734300D01*
X5892800Y-3162300D02*
X11671300Y-3162300D01*
D11*
X6081000Y-7579600D02*
X6111000Y-7609600D01*
X6111000Y-7579600D02*
X6081000Y-7609600D01*
X6104800Y-4009300D02*
X6134800Y-4039300D01*
X6134800Y-4009300D02*
X6104800Y-4039300D01*
X6385200Y-4610100D02*
G75*
G03X6385200Y-4610100I-22500J0D01*
G01*
X6410600Y-6400800D02*
G75*
G03X6410600Y-6400800I-22500J0D01*
G01*
X7528200Y-6184900D02*
G75*
G03X7528200Y-6184900I-22500J0D01*
G01*
X7629800Y-5181600D02*
G75*
G03X7629800Y-5181600I-22500J0D01*
G01*
X7833000Y-5181600D02*
G75*
G03X7833000Y-5181600I-22500J0D01*
G01*
X8036200Y-4724400D02*
G75*
G03X8036200Y-4724400I-22500J0D01*
G01*
X8061600Y-7315200D02*
G75*
G03X8061600Y-7315200I-22500J0D01*
G01*
X8099700Y-7061200D02*
G75*
G03X8099700Y-7061200I-22500J0D01*
G01*
X8239400Y-5181600D02*
G75*
G03X8239400Y-5181600I-22500J0D01*
G01*
X8531500Y-5575300D02*
G75*
G03X8531500Y-5575300I-22500J0D01*
G01*
X8671200Y-5740400D02*
G75*
G03X8671200Y-5740400I-22500J0D01*
G01*
X8734700Y-4622800D02*
G75*
G03X8734700Y-4622800I-22500J0D01*
G01*
X8849000Y-5181600D02*
G75*
G03X8849000Y-5181600I-22500J0D01*
G01*
X8970779Y-4782679D02*
G75*
G03X8970779Y-4782679I-22500J0D01*
G01*
X9039500Y-4622800D02*
G75*
G03X9039500Y-4622800I-22500J0D01*
G01*
X9053100Y-5397500D02*
G75*
G03X9053100Y-5397500I-22500J0D01*
G01*
X9172850Y-5022850D02*
G75*
G03X9172850Y-5022850I-22500J0D01*
G01*
X9255400Y-5181600D02*
G75*
G03X9255400Y-5181600I-22500J0D01*
G01*
X9255400Y-5397500D02*
G75*
G03X9255400Y-5397500I-22500J0D01*
G01*
X9611000Y-5245100D02*
G75*
G03X9611000Y-5245100I-22500J0D01*
G01*
X9788800Y-5346700D02*
G75*
G03X9788800Y-5346700I-22500J0D01*
G01*
X10296800Y-5321300D02*
G75*
G03X10296800Y-5321300I-22500J0D01*
G01*
X10467800Y-6166300D02*
G75*
G03X10467800Y-6166300I-22500J0D01*
G01*
X10741750Y-5956750D02*
G75*
G03X10741750Y-5956750I-22500J0D01*
G01*
X9894900Y-3264300D02*
X9894900Y-3314300D01*
X9869900Y-3289300D02*
X9919900Y-3289300D01*
X9832400Y-3304300D02*
X9957400Y-3304300D01*
X9832400Y-3274300D02*
X9957400Y-3274300D01*
X9957400Y-3304300D02*
G75*
G03X9957400Y-3274300I0J15000D01*
G01*
X9832400Y-3274300D02*
G75*
G03X9832400Y-3304300I0J-15000D01*
G01*
X9894900Y-3874300D02*
X9894900Y-3924300D01*
X9869900Y-3899300D02*
X9919900Y-3899300D01*
X9832400Y-3914300D02*
X9957400Y-3914300D01*
X9832400Y-3884300D02*
X9957400Y-3884300D01*
X9957400Y-3914300D02*
G75*
G03X9957400Y-3884300I0J15000D01*
G01*
X9832400Y-3884300D02*
G75*
G03X9832400Y-3914300I0J-15000D01*
G01*
X9894900Y-4424300D02*
X9894900Y-4474300D01*
X9869900Y-4449300D02*
X9919900Y-4449300D01*
X9832400Y-4464300D02*
X9957400Y-4464300D01*
X9832400Y-4434300D02*
X9957400Y-4434300D01*
X9957400Y-4464300D02*
G75*
G03X9957400Y-4434300I0J15000D01*
G01*
X9832400Y-4434300D02*
G75*
G03X9832400Y-4464300I0J-15000D01*
G01*
X10094900Y-3504300D02*
X10094900Y-3554300D01*
X10069900Y-3529300D02*
X10119900Y-3529300D01*
X10032400Y-3544300D02*
X10157400Y-3544300D01*
X10032400Y-3514300D02*
X10157400Y-3514300D01*
X10157400Y-3544300D02*
G75*
G03X10157400Y-3514300I0J15000D01*
G01*
X10032400Y-3514300D02*
G75*
G03X10032400Y-3544300I0J-15000D01*
G01*
X10094900Y-4054300D02*
X10094900Y-4104300D01*
X10069900Y-4079300D02*
X10119900Y-4079300D01*
X10032400Y-4094300D02*
X10157400Y-4094300D01*
X10032400Y-4064300D02*
X10157400Y-4064300D01*
X10157400Y-4094300D02*
G75*
G03X10157400Y-4064300I0J15000D01*
G01*
X10032400Y-4064300D02*
G75*
G03X10032400Y-4094300I0J-15000D01*
G01*
X8549985Y-3838284D02*
X8549985Y-3781715D01*
X8493416Y-3781715D01*
X8493416Y-3838284D01*
X8549985Y-3838284D01*
X9311985Y-3838284D02*
X9311985Y-3781715D01*
X9255416Y-3781715D01*
X9255416Y-3838284D01*
X9311985Y-3838284D01*
X6695784Y-5933784D02*
X6695784Y-5877215D01*
X6639215Y-5877215D01*
X6639215Y-5933784D01*
X6695784Y-5933784D01*
X6695784Y-6187784D02*
X6695784Y-6131215D01*
X6639215Y-6131215D01*
X6639215Y-6187784D01*
X6695784Y-6187784D01*
X6695784Y-6441784D02*
X6695784Y-6385215D01*
X6639215Y-6385215D01*
X6639215Y-6441784D01*
X6695784Y-6441784D01*
X8549985Y-4168484D02*
X8549985Y-4111915D01*
X8493416Y-4111915D01*
X8493416Y-4168484D01*
X8549985Y-4168484D01*
X9311985Y-4168484D02*
X9311985Y-4111915D01*
X9255416Y-4111915D01*
X9255416Y-4168484D01*
X9311985Y-4168484D01*
X8372184Y-5933784D02*
X8372184Y-5877215D01*
X8315615Y-5877215D01*
X8315615Y-5933784D01*
X8372184Y-5933784D01*
X8372184Y-6187784D02*
X8372184Y-6131215D01*
X8315615Y-6131215D01*
X8315615Y-6187784D01*
X8372184Y-6187784D01*
X8372184Y-6441784D02*
X8372184Y-6385215D01*
X8315615Y-6385215D01*
X8315615Y-6441784D01*
X8372184Y-6441784D01*
X7813384Y-5933784D02*
X7813384Y-5877215D01*
X7756815Y-5877215D01*
X7756815Y-5933784D01*
X7813384Y-5933784D01*
X7813384Y-6187784D02*
X7813384Y-6131215D01*
X7756815Y-6131215D01*
X7756815Y-6187784D01*
X7813384Y-6187784D01*
X7813384Y-6441784D02*
X7813384Y-6385215D01*
X7756815Y-6385215D01*
X7756815Y-6441784D01*
X7813384Y-6441784D01*
X7457784Y-5489285D02*
X7457784Y-5432716D01*
X7401215Y-5432716D01*
X7401215Y-5489285D01*
X7457784Y-5489285D01*
X8219784Y-5489285D02*
X8219784Y-5432716D01*
X8163215Y-5432716D01*
X8163215Y-5489285D01*
X8219784Y-5489285D01*
X7254584Y-5933784D02*
X7254584Y-5877215D01*
X7198015Y-5877215D01*
X7198015Y-5933784D01*
X7254584Y-5933784D01*
X7254584Y-6187784D02*
X7254584Y-6131215D01*
X7198015Y-6131215D01*
X7198015Y-6187784D01*
X7254584Y-6187784D01*
X7254584Y-6441784D02*
X7254584Y-6385215D01*
X7198015Y-6385215D01*
X7198015Y-6441784D01*
X7254584Y-6441784D01*
X10861385Y-4930485D02*
X10861385Y-4873916D01*
X10804816Y-4873916D01*
X10804816Y-4930485D01*
X10861385Y-4930485D01*
X11111385Y-4930485D02*
X11111385Y-4873916D01*
X11054816Y-4873916D01*
X11054816Y-4930485D01*
X11111385Y-4930485D01*
X6775100Y-7117200D02*
X6825100Y-7067200D01*
X6775100Y-7017200D01*
X6725100Y-7067200D01*
X6775100Y-7117200D01*
X7029100Y-7117200D02*
X7079100Y-7067200D01*
X7029100Y-7017200D01*
X6979100Y-7067200D01*
X7029100Y-7117200D01*
X7283100Y-7117200D02*
X7333100Y-7067200D01*
X7283100Y-7017200D01*
X7233100Y-7067200D01*
X7283100Y-7117200D01*
X7537100Y-7117200D02*
X7587100Y-7067200D01*
X7537100Y-7017200D01*
X7487100Y-7067200D01*
X7537100Y-7117200D01*
X9955180Y-7117200D02*
X10005180Y-7067200D01*
X9955180Y-7017200D01*
X9905180Y-7067200D01*
X9955180Y-7117200D01*
X10209180Y-7117200D02*
X10259180Y-7067200D01*
X10209180Y-7017200D01*
X10159180Y-7067200D01*
X10209180Y-7117200D01*
X10463180Y-7117200D02*
X10513180Y-7067200D01*
X10463180Y-7017200D01*
X10413180Y-7067200D01*
X10463180Y-7117200D01*
X10717180Y-7117200D02*
X10767180Y-7067200D01*
X10717180Y-7017200D01*
X10667180Y-7067200D01*
X10717180Y-7117200D01*
X6985000Y-5003000D02*
X7035000Y-4953000D01*
X6985000Y-4903000D01*
X6935000Y-4953000D01*
X6985000Y-5003000D01*
X6985000Y-5257000D02*
X7035000Y-5207000D01*
X6985000Y-5157000D01*
X6935000Y-5207000D01*
X6985000Y-5257000D01*
X6985000Y-5511000D02*
X7035000Y-5461000D01*
X6985000Y-5411000D01*
X6935000Y-5461000D01*
X6985000Y-5511000D01*
X9842500Y-6463500D02*
X9892500Y-6413500D01*
X9842500Y-6363500D01*
X9792500Y-6413500D01*
X9842500Y-6463500D01*
X9842500Y-6717500D02*
X9892500Y-6667500D01*
X9842500Y-6617500D01*
X9792500Y-6667500D01*
X9842500Y-6717500D01*
X6604000Y-5003000D02*
X6654000Y-4953000D01*
X6604000Y-4903000D01*
X6554000Y-4953000D01*
X6604000Y-5003000D01*
X6604000Y-5257000D02*
X6654000Y-5207000D01*
X6604000Y-5157000D01*
X6554000Y-5207000D01*
X6604000Y-5257000D01*
X6604000Y-5511000D02*
X6654000Y-5461000D01*
X6604000Y-5411000D01*
X6554000Y-5461000D01*
X6604000Y-5511000D01*
X9334500Y-6463500D02*
X9384500Y-6413500D01*
X9334500Y-6363500D01*
X9284500Y-6413500D01*
X9334500Y-6463500D01*
X9334500Y-6717500D02*
X9384500Y-6667500D01*
X9334500Y-6617500D01*
X9284500Y-6667500D01*
X9334500Y-6717500D01*
X11087100Y-3885400D02*
X11137100Y-3835400D01*
X11087100Y-3785400D01*
X11037100Y-3835400D01*
X11087100Y-3885400D01*
X11087100Y-4139400D02*
X11137100Y-4089400D01*
X11087100Y-4039400D01*
X11037100Y-4089400D01*
X11087100Y-4139400D01*
X7094800Y-3969300D02*
X7204800Y-4079300D01*
X7204800Y-3969300D02*
X7094800Y-4079300D01*
X7204800Y-4024300D02*
G75*
G03X7204800Y-4024300I-55000J0D01*
G01*
X7094800Y-4219300D02*
X7204800Y-4329300D01*
X7204800Y-4219300D02*
X7094800Y-4329300D01*
X7204800Y-4274300D02*
G75*
G03X7204800Y-4274300I-55000J0D01*
G01*
X7774800Y-3969300D02*
X7884800Y-4079300D01*
X7884800Y-3969300D02*
X7774800Y-4079300D01*
X7884800Y-4024300D02*
G75*
G03X7884800Y-4024300I-55000J0D01*
G01*
X7774800Y-4219300D02*
X7884800Y-4329300D01*
X7884800Y-4219300D02*
X7774800Y-4329300D01*
X7884800Y-4274300D02*
G75*
G03X7884800Y-4274300I-55000J0D01*
G01*
X11184500Y-6206100D02*
X11294500Y-6316100D01*
X11294500Y-6206100D02*
X11184500Y-6316100D01*
X11294500Y-6261100D02*
G75*
G03X11294500Y-6261100I-55000J0D01*
G01*
X11184500Y-6460100D02*
X11294500Y-6570100D01*
X11294500Y-6460100D02*
X11184500Y-6570100D01*
X11294500Y-6515100D02*
G75*
G03X11294500Y-6515100I-55000J0D01*
G01*
X11184500Y-6714100D02*
X11294500Y-6824100D01*
X11294500Y-6714100D02*
X11184500Y-6824100D01*
X11294500Y-6769100D02*
G75*
G03X11294500Y-6769100I-55000J0D01*
G01*
X10989000Y-7496500D02*
X11109000Y-7616500D01*
X11109000Y-7496500D02*
X10989000Y-7616500D01*
X11049000Y-7496500D02*
X11049000Y-7616500D01*
X10989000Y-7556500D02*
X11109000Y-7556500D01*
X11243000Y-7496500D02*
X11363000Y-7616500D01*
X11363000Y-7496500D02*
X11243000Y-7616500D01*
X11303000Y-7496500D02*
X11303000Y-7616500D01*
X11243000Y-7556500D02*
X11363000Y-7556500D01*
X6029540Y-5404700D02*
X6179540Y-5554700D01*
X6179540Y-5404700D02*
X6029540Y-5554700D01*
X6157574Y-5532734D02*
X6157574Y-5426667D01*
X6051507Y-5426667D01*
X6051507Y-5532734D01*
X6157574Y-5532734D01*
X8706700Y-3271100D02*
X8856700Y-3421100D01*
X8856700Y-3271100D02*
X8706700Y-3421100D01*
X8834734Y-3399134D02*
X8834734Y-3293067D01*
X8728667Y-3293067D01*
X8728667Y-3399134D01*
X8834734Y-3399134D01*
X11388280Y-5404700D02*
X11538280Y-5554700D01*
X11538280Y-5404700D02*
X11388280Y-5554700D01*
X11516314Y-5532734D02*
X11516314Y-5426667D01*
X11410247Y-5426667D01*
X11410247Y-5532734D01*
X11516314Y-5532734D01*
X6699800Y-3609300D02*
X6929800Y-3839300D01*
X6929800Y-3609300D02*
X6699800Y-3839300D01*
X6814800Y-3839300D02*
X6929800Y-3724300D01*
X6814800Y-3609300D01*
X6699800Y-3724300D01*
X6814800Y-3839300D01*
X7374800Y-3529300D02*
X7604800Y-3759300D01*
X7604800Y-3529300D02*
X7374800Y-3759300D01*
X7489800Y-3759300D02*
X7604800Y-3644300D01*
X7489800Y-3529300D01*
X7374800Y-3644300D01*
X7489800Y-3759300D01*
X8049800Y-3609300D02*
X8279800Y-3839300D01*
X8279800Y-3609300D02*
X8049800Y-3839300D01*
X8164800Y-3839300D02*
X8279800Y-3724300D01*
X8164800Y-3609300D01*
X8049800Y-3724300D01*
X8164800Y-3839300D01*
D12*
X6176728Y-8202514D02*
X6176728Y-7902514D01*
X6248157Y-7902514D01*
X6291014Y-7916800D01*
X6319586Y-7945371D01*
X6333871Y-7973943D01*
X6348157Y-8031086D01*
X6348157Y-8073943D01*
X6333871Y-8131086D01*
X6319586Y-8159657D01*
X6291014Y-8188229D01*
X6248157Y-8202514D01*
X6176728Y-8202514D01*
X6476728Y-8202514D02*
X6476728Y-8002514D01*
X6476728Y-8059657D02*
X6491014Y-8031086D01*
X6505300Y-8016800D01*
X6533871Y-8002514D01*
X6562443Y-8002514D01*
X6662443Y-8202514D02*
X6662443Y-8002514D01*
X6662443Y-7902514D02*
X6648157Y-7916800D01*
X6662443Y-7931086D01*
X6676728Y-7916800D01*
X6662443Y-7902514D01*
X6662443Y-7931086D01*
X6848157Y-8202514D02*
X6819586Y-8188229D01*
X6805300Y-8159657D01*
X6805300Y-7902514D01*
X7005300Y-8202514D02*
X6976728Y-8188229D01*
X6962443Y-8159657D01*
X6962443Y-7902514D01*
X7348157Y-8202514D02*
X7348157Y-7902514D01*
X7448157Y-8116800D01*
X7548157Y-7902514D01*
X7548157Y-8202514D01*
X7819586Y-8202514D02*
X7819586Y-8045371D01*
X7805300Y-8016800D01*
X7776728Y-8002514D01*
X7719586Y-8002514D01*
X7691014Y-8016800D01*
X7819586Y-8188229D02*
X7791014Y-8202514D01*
X7719586Y-8202514D01*
X7691014Y-8188229D01*
X7676728Y-8159657D01*
X7676728Y-8131086D01*
X7691014Y-8102514D01*
X7719586Y-8088229D01*
X7791014Y-8088229D01*
X7819586Y-8073943D01*
X7962443Y-8002514D02*
X7962443Y-8302514D01*
X7962443Y-8016800D02*
X7991014Y-8002514D01*
X8048157Y-8002514D01*
X8076728Y-8016800D01*
X8091014Y-8031086D01*
X8105300Y-8059657D01*
X8105300Y-8145371D01*
X8091014Y-8173943D01*
X8076728Y-8188229D01*
X8048157Y-8202514D01*
X7991014Y-8202514D01*
X7962443Y-8188229D01*
X8233871Y-8173943D02*
X8248157Y-8188229D01*
X8233871Y-8202514D01*
X8219586Y-8188229D01*
X8233871Y-8173943D01*
X8233871Y-8202514D01*
X8233871Y-8016800D02*
X8248157Y-8031086D01*
X8233871Y-8045371D01*
X8219586Y-8031086D01*
X8233871Y-8016800D01*
X8233871Y-8045371D01*
X5860300Y-8681800D02*
X5890300Y-8711800D01*
X5890300Y-8681800D02*
X5860300Y-8711800D01*
X6233871Y-8532514D02*
X6262443Y-8532514D01*
X6291014Y-8546800D01*
X6305300Y-8561086D01*
X6319586Y-8589657D01*
X6333871Y-8646800D01*
X6333871Y-8718229D01*
X6319586Y-8775372D01*
X6305300Y-8803943D01*
X6291014Y-8818229D01*
X6262443Y-8832514D01*
X6233871Y-8832514D01*
X6205300Y-8818229D01*
X6191014Y-8803943D01*
X6176728Y-8775372D01*
X6162443Y-8718229D01*
X6162443Y-8646800D01*
X6176728Y-8589657D01*
X6191014Y-8561086D01*
X6205300Y-8546800D01*
X6233871Y-8532514D01*
X6462443Y-8803943D02*
X6476728Y-8818229D01*
X6462443Y-8832514D01*
X6448157Y-8818229D01*
X6462443Y-8803943D01*
X6462443Y-8832514D01*
X6576728Y-8532514D02*
X6762443Y-8532514D01*
X6662443Y-8646800D01*
X6705300Y-8646800D01*
X6733871Y-8661086D01*
X6748157Y-8675372D01*
X6762443Y-8703943D01*
X6762443Y-8775372D01*
X6748157Y-8803943D01*
X6733871Y-8818229D01*
X6705300Y-8832514D01*
X6619586Y-8832514D01*
X6591014Y-8818229D01*
X6576728Y-8803943D01*
X6948157Y-8532514D02*
X6976728Y-8532514D01*
X7005300Y-8546800D01*
X7019586Y-8561086D01*
X7033871Y-8589657D01*
X7048157Y-8646800D01*
X7048157Y-8718229D01*
X7033871Y-8775372D01*
X7019586Y-8803943D01*
X7005300Y-8818229D01*
X6976728Y-8832514D01*
X6948157Y-8832514D01*
X6919586Y-8818229D01*
X6905300Y-8803943D01*
X6891014Y-8775372D01*
X6876728Y-8718229D01*
X6876728Y-8646800D01*
X6891014Y-8589657D01*
X6905300Y-8561086D01*
X6919586Y-8546800D01*
X6948157Y-8532514D01*
X7176728Y-8832514D02*
X7176728Y-8632514D01*
X7176728Y-8661086D02*
X7191014Y-8646800D01*
X7219586Y-8632514D01*
X7262443Y-8632514D01*
X7291014Y-8646800D01*
X7305300Y-8675372D01*
X7305300Y-8832514D01*
X7305300Y-8675372D02*
X7319586Y-8646800D01*
X7348157Y-8632514D01*
X7391014Y-8632514D01*
X7419586Y-8646800D01*
X7433871Y-8675372D01*
X7433871Y-8832514D01*
X7576728Y-8832514D02*
X7576728Y-8632514D01*
X7576728Y-8661086D02*
X7591014Y-8646800D01*
X7619586Y-8632514D01*
X7662443Y-8632514D01*
X7691014Y-8646800D01*
X7705300Y-8675372D01*
X7705300Y-8832514D01*
X7705300Y-8675372D02*
X7719586Y-8646800D01*
X7748157Y-8632514D01*
X7791014Y-8632514D01*
X7819586Y-8646800D01*
X7833871Y-8675372D01*
X7833871Y-8832514D01*
X8419586Y-8518229D02*
X8162443Y-8903943D01*
X8805300Y-8532514D02*
X8833871Y-8532514D01*
X8862443Y-8546800D01*
X8876728Y-8561086D01*
X8891014Y-8589657D01*
X8905300Y-8646800D01*
X8905300Y-8718229D01*
X8891014Y-8775372D01*
X8876728Y-8803943D01*
X8862443Y-8818229D01*
X8833871Y-8832514D01*
X8805300Y-8832514D01*
X8776728Y-8818229D01*
X8762443Y-8803943D01*
X8748157Y-8775372D01*
X8733871Y-8718229D01*
X8733871Y-8646800D01*
X8748157Y-8589657D01*
X8762443Y-8561086D01*
X8776728Y-8546800D01*
X8805300Y-8532514D01*
X9033871Y-8803943D02*
X9048157Y-8818229D01*
X9033871Y-8832514D01*
X9019586Y-8818229D01*
X9033871Y-8803943D01*
X9033871Y-8832514D01*
X9233871Y-8532514D02*
X9262443Y-8532514D01*
X9291014Y-8546800D01*
X9305300Y-8561086D01*
X9319586Y-8589657D01*
X9333871Y-8646800D01*
X9333871Y-8718229D01*
X9319586Y-8775372D01*
X9305300Y-8803943D01*
X9291014Y-8818229D01*
X9262443Y-8832514D01*
X9233871Y-8832514D01*
X9205300Y-8818229D01*
X9191014Y-8803943D01*
X9176728Y-8775372D01*
X9162443Y-8718229D01*
X9162443Y-8646800D01*
X9176728Y-8589657D01*
X9191014Y-8561086D01*
X9205300Y-8546800D01*
X9233871Y-8532514D01*
X9619586Y-8832514D02*
X9448157Y-8832514D01*
X9533871Y-8832514D02*
X9533871Y-8532514D01*
X9505300Y-8575372D01*
X9476728Y-8603943D01*
X9448157Y-8618229D01*
X9733871Y-8561086D02*
X9748157Y-8546800D01*
X9776728Y-8532514D01*
X9848157Y-8532514D01*
X9876728Y-8546800D01*
X9891014Y-8561086D01*
X9905300Y-8589657D01*
X9905300Y-8618229D01*
X9891014Y-8661086D01*
X9719586Y-8832514D01*
X9905300Y-8832514D01*
X10019586Y-8532514D02*
X10019586Y-8589657D01*
X10133871Y-8532514D02*
X10133871Y-8589657D01*
X10576728Y-8946800D02*
X10562443Y-8932514D01*
X10533871Y-8889657D01*
X10519586Y-8861086D01*
X10505300Y-8818229D01*
X10491014Y-8746800D01*
X10491014Y-8689657D01*
X10505300Y-8618229D01*
X10519586Y-8575372D01*
X10533871Y-8546800D01*
X10562443Y-8503943D01*
X10576728Y-8489657D01*
X10676728Y-8561086D02*
X10691014Y-8546800D01*
X10719586Y-8532514D01*
X10791014Y-8532514D01*
X10819586Y-8546800D01*
X10833871Y-8561086D01*
X10848157Y-8589657D01*
X10848157Y-8618229D01*
X10833871Y-8661086D01*
X10662443Y-8832514D01*
X10848157Y-8832514D01*
X11205300Y-8832514D02*
X11205300Y-8532514D01*
X11333871Y-8832514D02*
X11333871Y-8675372D01*
X11319586Y-8646800D01*
X11291014Y-8632514D01*
X11248157Y-8632514D01*
X11219586Y-8646800D01*
X11205300Y-8661086D01*
X11519586Y-8832514D02*
X11491014Y-8818229D01*
X11476728Y-8803943D01*
X11462443Y-8775372D01*
X11462443Y-8689657D01*
X11476728Y-8661086D01*
X11491014Y-8646800D01*
X11519586Y-8632514D01*
X11562443Y-8632514D01*
X11591014Y-8646800D01*
X11605300Y-8661086D01*
X11619586Y-8689657D01*
X11619586Y-8775372D01*
X11605300Y-8803943D01*
X11591014Y-8818229D01*
X11562443Y-8832514D01*
X11519586Y-8832514D01*
X11791014Y-8832514D02*
X11762443Y-8818229D01*
X11748157Y-8789657D01*
X11748157Y-8532514D01*
X12019586Y-8818229D02*
X11991014Y-8832514D01*
X11933871Y-8832514D01*
X11905300Y-8818229D01*
X11891014Y-8789657D01*
X11891014Y-8675372D01*
X11905300Y-8646800D01*
X11933871Y-8632514D01*
X11991014Y-8632514D01*
X12019586Y-8646800D01*
X12033871Y-8675372D01*
X12033871Y-8703943D01*
X11891014Y-8732514D01*
X12148157Y-8818229D02*
X12176728Y-8832514D01*
X12233871Y-8832514D01*
X12262443Y-8818229D01*
X12276728Y-8789657D01*
X12276728Y-8775372D01*
X12262443Y-8746800D01*
X12233871Y-8732514D01*
X12191014Y-8732514D01*
X12162443Y-8718229D01*
X12148157Y-8689657D01*
X12148157Y-8675372D01*
X12162443Y-8646800D01*
X12191014Y-8632514D01*
X12233871Y-8632514D01*
X12262443Y-8646800D01*
X12376728Y-8946800D02*
X12391014Y-8932514D01*
X12419586Y-8889657D01*
X12433871Y-8861086D01*
X12448157Y-8818229D01*
X12462443Y-8746800D01*
X12462443Y-8689657D01*
X12448157Y-8618229D01*
X12433871Y-8575372D01*
X12419586Y-8546800D01*
X12391014Y-8503943D01*
X12376728Y-8489657D01*
X5890300Y-9092800D02*
G75*
G03X5890300Y-9092800I-22500J0D01*
G01*
X6233871Y-8928514D02*
X6262443Y-8928514D01*
X6291014Y-8942800D01*
X6305300Y-8957086D01*
X6319586Y-8985657D01*
X6333871Y-9042800D01*
X6333871Y-9114229D01*
X6319586Y-9171372D01*
X6305300Y-9199943D01*
X6291014Y-9214229D01*
X6262443Y-9228514D01*
X6233871Y-9228514D01*
X6205300Y-9214229D01*
X6191014Y-9199943D01*
X6176728Y-9171372D01*
X6162443Y-9114229D01*
X6162443Y-9042800D01*
X6176728Y-8985657D01*
X6191014Y-8957086D01*
X6205300Y-8942800D01*
X6233871Y-8928514D01*
X6462443Y-9199943D02*
X6476728Y-9214229D01*
X6462443Y-9228514D01*
X6448157Y-9214229D01*
X6462443Y-9199943D01*
X6462443Y-9228514D01*
X6733871Y-9028514D02*
X6733871Y-9228514D01*
X6662443Y-8914229D02*
X6591014Y-9128514D01*
X6776728Y-9128514D01*
X7033871Y-8928514D02*
X6891014Y-8928514D01*
X6876728Y-9071372D01*
X6891014Y-9057086D01*
X6919586Y-9042800D01*
X6991014Y-9042800D01*
X7019586Y-9057086D01*
X7033871Y-9071372D01*
X7048157Y-9099943D01*
X7048157Y-9171372D01*
X7033871Y-9199943D01*
X7019586Y-9214229D01*
X6991014Y-9228514D01*
X6919586Y-9228514D01*
X6891014Y-9214229D01*
X6876728Y-9199943D01*
X7176728Y-9228514D02*
X7176728Y-9028514D01*
X7176728Y-9057086D02*
X7191014Y-9042800D01*
X7219586Y-9028514D01*
X7262443Y-9028514D01*
X7291014Y-9042800D01*
X7305300Y-9071372D01*
X7305300Y-9228514D01*
X7305300Y-9071372D02*
X7319586Y-9042800D01*
X7348157Y-9028514D01*
X7391014Y-9028514D01*
X7419586Y-9042800D01*
X7433871Y-9071372D01*
X7433871Y-9228514D01*
X7576728Y-9228514D02*
X7576728Y-9028514D01*
X7576728Y-9057086D02*
X7591014Y-9042800D01*
X7619586Y-9028514D01*
X7662443Y-9028514D01*
X7691014Y-9042800D01*
X7705300Y-9071372D01*
X7705300Y-9228514D01*
X7705300Y-9071372D02*
X7719586Y-9042800D01*
X7748157Y-9028514D01*
X7791014Y-9028514D01*
X7819586Y-9042800D01*
X7833871Y-9071372D01*
X7833871Y-9228514D01*
X8419586Y-8914229D02*
X8162443Y-9299943D01*
X8805300Y-8928514D02*
X8833871Y-8928514D01*
X8862443Y-8942800D01*
X8876728Y-8957086D01*
X8891014Y-8985657D01*
X8905300Y-9042800D01*
X8905300Y-9114229D01*
X8891014Y-9171372D01*
X8876728Y-9199943D01*
X8862443Y-9214229D01*
X8833871Y-9228514D01*
X8805300Y-9228514D01*
X8776728Y-9214229D01*
X8762443Y-9199943D01*
X8748157Y-9171372D01*
X8733871Y-9114229D01*
X8733871Y-9042800D01*
X8748157Y-8985657D01*
X8762443Y-8957086D01*
X8776728Y-8942800D01*
X8805300Y-8928514D01*
X9033871Y-9199943D02*
X9048157Y-9214229D01*
X9033871Y-9228514D01*
X9019586Y-9214229D01*
X9033871Y-9199943D01*
X9033871Y-9228514D01*
X9233871Y-8928514D02*
X9262443Y-8928514D01*
X9291014Y-8942800D01*
X9305300Y-8957086D01*
X9319586Y-8985657D01*
X9333871Y-9042800D01*
X9333871Y-9114229D01*
X9319586Y-9171372D01*
X9305300Y-9199943D01*
X9291014Y-9214229D01*
X9262443Y-9228514D01*
X9233871Y-9228514D01*
X9205300Y-9214229D01*
X9191014Y-9199943D01*
X9176728Y-9171372D01*
X9162443Y-9114229D01*
X9162443Y-9042800D01*
X9176728Y-8985657D01*
X9191014Y-8957086D01*
X9205300Y-8942800D01*
X9233871Y-8928514D01*
X9619586Y-9228514D02*
X9448157Y-9228514D01*
X9533871Y-9228514D02*
X9533871Y-8928514D01*
X9505300Y-8971372D01*
X9476728Y-8999943D01*
X9448157Y-9014229D01*
X9791014Y-9057086D02*
X9762443Y-9042800D01*
X9748157Y-9028514D01*
X9733871Y-8999943D01*
X9733871Y-8985657D01*
X9748157Y-8957086D01*
X9762443Y-8942800D01*
X9791014Y-8928514D01*
X9848157Y-8928514D01*
X9876728Y-8942800D01*
X9891014Y-8957086D01*
X9905300Y-8985657D01*
X9905300Y-8999943D01*
X9891014Y-9028514D01*
X9876728Y-9042800D01*
X9848157Y-9057086D01*
X9791014Y-9057086D01*
X9762443Y-9071372D01*
X9748157Y-9085657D01*
X9733871Y-9114229D01*
X9733871Y-9171372D01*
X9748157Y-9199943D01*
X9762443Y-9214229D01*
X9791014Y-9228514D01*
X9848157Y-9228514D01*
X9876728Y-9214229D01*
X9891014Y-9199943D01*
X9905300Y-9171372D01*
X9905300Y-9114229D01*
X9891014Y-9085657D01*
X9876728Y-9071372D01*
X9848157Y-9057086D01*
X10019586Y-8928514D02*
X10019586Y-8985657D01*
X10133871Y-8928514D02*
X10133871Y-8985657D01*
X10576728Y-9342800D02*
X10562443Y-9328514D01*
X10533871Y-9285657D01*
X10519586Y-9257086D01*
X10505300Y-9214229D01*
X10491014Y-9142800D01*
X10491014Y-9085657D01*
X10505300Y-9014229D01*
X10519586Y-8971372D01*
X10533871Y-8942800D01*
X10562443Y-8899943D01*
X10576728Y-8885657D01*
X10676728Y-8957086D02*
X10691014Y-8942800D01*
X10719586Y-8928514D01*
X10791014Y-8928514D01*
X10819586Y-8942800D01*
X10833871Y-8957086D01*
X10848157Y-8985657D01*
X10848157Y-9014229D01*
X10833871Y-9057086D01*
X10662443Y-9228514D01*
X10848157Y-9228514D01*
X11105300Y-9028514D02*
X11105300Y-9228514D01*
X11033871Y-8914229D02*
X10962443Y-9128514D01*
X11148157Y-9128514D01*
X11491014Y-9228514D02*
X11491014Y-8928514D01*
X11619586Y-9228514D02*
X11619586Y-9071372D01*
X11605300Y-9042800D01*
X11576728Y-9028514D01*
X11533871Y-9028514D01*
X11505300Y-9042800D01*
X11491014Y-9057086D01*
X11805300Y-9228514D02*
X11776728Y-9214229D01*
X11762443Y-9199943D01*
X11748157Y-9171372D01*
X11748157Y-9085657D01*
X11762443Y-9057086D01*
X11776728Y-9042800D01*
X11805300Y-9028514D01*
X11848157Y-9028514D01*
X11876728Y-9042800D01*
X11891014Y-9057086D01*
X11905300Y-9085657D01*
X11905300Y-9171372D01*
X11891014Y-9199943D01*
X11876728Y-9214229D01*
X11848157Y-9228514D01*
X11805300Y-9228514D01*
X12076728Y-9228514D02*
X12048157Y-9214229D01*
X12033871Y-9185657D01*
X12033871Y-8928514D01*
X12305300Y-9214229D02*
X12276728Y-9228514D01*
X12219586Y-9228514D01*
X12191014Y-9214229D01*
X12176728Y-9185657D01*
X12176728Y-9071372D01*
X12191014Y-9042800D01*
X12219586Y-9028514D01*
X12276728Y-9028514D01*
X12305300Y-9042800D01*
X12319586Y-9071372D01*
X12319586Y-9099943D01*
X12176728Y-9128514D01*
X12433871Y-9214229D02*
X12462443Y-9228514D01*
X12519586Y-9228514D01*
X12548157Y-9214229D01*
X12562443Y-9185657D01*
X12562443Y-9171372D01*
X12548157Y-9142800D01*
X12519586Y-9128514D01*
X12476728Y-9128514D01*
X12448157Y-9114229D01*
X12433871Y-9085657D01*
X12433871Y-9071372D01*
X12448157Y-9042800D01*
X12476728Y-9028514D01*
X12519586Y-9028514D01*
X12548157Y-9042800D01*
X12662443Y-9342800D02*
X12676728Y-9328514D01*
X12705300Y-9285657D01*
X12719586Y-9257086D01*
X12733871Y-9214229D01*
X12748157Y-9142800D01*
X12748157Y-9085657D01*
X12733871Y-9014229D01*
X12719586Y-8971372D01*
X12705300Y-8942800D01*
X12676728Y-8899943D01*
X12662443Y-8885657D01*
X5865300Y-9463800D02*
X5865300Y-9513800D01*
X5840300Y-9488800D02*
X5890300Y-9488800D01*
X6233871Y-9324514D02*
X6262443Y-9324514D01*
X6291014Y-9338800D01*
X6305300Y-9353086D01*
X6319586Y-9381657D01*
X6333871Y-9438800D01*
X6333871Y-9510229D01*
X6319586Y-9567372D01*
X6305300Y-9595943D01*
X6291014Y-9610229D01*
X6262443Y-9624514D01*
X6233871Y-9624514D01*
X6205300Y-9610229D01*
X6191014Y-9595943D01*
X6176728Y-9567372D01*
X6162443Y-9510229D01*
X6162443Y-9438800D01*
X6176728Y-9381657D01*
X6191014Y-9353086D01*
X6205300Y-9338800D01*
X6233871Y-9324514D01*
X6462443Y-9595943D02*
X6476728Y-9610229D01*
X6462443Y-9624514D01*
X6448157Y-9610229D01*
X6462443Y-9595943D01*
X6462443Y-9624514D01*
X6748157Y-9324514D02*
X6605300Y-9324514D01*
X6591014Y-9467372D01*
X6605300Y-9453086D01*
X6633871Y-9438800D01*
X6705300Y-9438800D01*
X6733871Y-9453086D01*
X6748157Y-9467372D01*
X6762443Y-9495943D01*
X6762443Y-9567372D01*
X6748157Y-9595943D01*
X6733871Y-9610229D01*
X6705300Y-9624514D01*
X6633871Y-9624514D01*
X6605300Y-9610229D01*
X6591014Y-9595943D01*
X6948157Y-9324514D02*
X6976728Y-9324514D01*
X7005300Y-9338800D01*
X7019586Y-9353086D01*
X7033871Y-9381657D01*
X7048157Y-9438800D01*
X7048157Y-9510229D01*
X7033871Y-9567372D01*
X7019586Y-9595943D01*
X7005300Y-9610229D01*
X6976728Y-9624514D01*
X6948157Y-9624514D01*
X6919586Y-9610229D01*
X6905300Y-9595943D01*
X6891014Y-9567372D01*
X6876728Y-9510229D01*
X6876728Y-9438800D01*
X6891014Y-9381657D01*
X6905300Y-9353086D01*
X6919586Y-9338800D01*
X6948157Y-9324514D01*
X7176728Y-9624514D02*
X7176728Y-9424514D01*
X7176728Y-9453086D02*
X7191014Y-9438800D01*
X7219586Y-9424514D01*
X7262443Y-9424514D01*
X7291014Y-9438800D01*
X7305300Y-9467372D01*
X7305300Y-9624514D01*
X7305300Y-9467372D02*
X7319586Y-9438800D01*
X7348157Y-9424514D01*
X7391014Y-9424514D01*
X7419586Y-9438800D01*
X7433871Y-9467372D01*
X7433871Y-9624514D01*
X7576728Y-9624514D02*
X7576728Y-9424514D01*
X7576728Y-9453086D02*
X7591014Y-9438800D01*
X7619586Y-9424514D01*
X7662443Y-9424514D01*
X7691014Y-9438800D01*
X7705300Y-9467372D01*
X7705300Y-9624514D01*
X7705300Y-9467372D02*
X7719586Y-9438800D01*
X7748157Y-9424514D01*
X7791014Y-9424514D01*
X7819586Y-9438800D01*
X7833871Y-9467372D01*
X7833871Y-9624514D01*
X8419586Y-9310229D02*
X8162443Y-9695943D01*
X8805300Y-9324514D02*
X8833871Y-9324514D01*
X8862443Y-9338800D01*
X8876728Y-9353086D01*
X8891014Y-9381657D01*
X8905300Y-9438800D01*
X8905300Y-9510229D01*
X8891014Y-9567372D01*
X8876728Y-9595943D01*
X8862443Y-9610229D01*
X8833871Y-9624514D01*
X8805300Y-9624514D01*
X8776728Y-9610229D01*
X8762443Y-9595943D01*
X8748157Y-9567372D01*
X8733871Y-9510229D01*
X8733871Y-9438800D01*
X8748157Y-9381657D01*
X8762443Y-9353086D01*
X8776728Y-9338800D01*
X8805300Y-9324514D01*
X9033871Y-9595943D02*
X9048157Y-9610229D01*
X9033871Y-9624514D01*
X9019586Y-9610229D01*
X9033871Y-9595943D01*
X9033871Y-9624514D01*
X9233871Y-9324514D02*
X9262443Y-9324514D01*
X9291014Y-9338800D01*
X9305300Y-9353086D01*
X9319586Y-9381657D01*
X9333871Y-9438800D01*
X9333871Y-9510229D01*
X9319586Y-9567372D01*
X9305300Y-9595943D01*
X9291014Y-9610229D01*
X9262443Y-9624514D01*
X9233871Y-9624514D01*
X9205300Y-9610229D01*
X9191014Y-9595943D01*
X9176728Y-9567372D01*
X9162443Y-9510229D01*
X9162443Y-9438800D01*
X9176728Y-9381657D01*
X9191014Y-9353086D01*
X9205300Y-9338800D01*
X9233871Y-9324514D01*
X9448157Y-9353086D02*
X9462443Y-9338800D01*
X9491014Y-9324514D01*
X9562443Y-9324514D01*
X9591014Y-9338800D01*
X9605300Y-9353086D01*
X9619586Y-9381657D01*
X9619586Y-9410229D01*
X9605300Y-9453086D01*
X9433871Y-9624514D01*
X9619586Y-9624514D01*
X9805300Y-9324514D02*
X9833871Y-9324514D01*
X9862443Y-9338800D01*
X9876728Y-9353086D01*
X9891014Y-9381657D01*
X9905300Y-9438800D01*
X9905300Y-9510229D01*
X9891014Y-9567372D01*
X9876728Y-9595943D01*
X9862443Y-9610229D01*
X9833871Y-9624514D01*
X9805300Y-9624514D01*
X9776728Y-9610229D01*
X9762443Y-9595943D01*
X9748157Y-9567372D01*
X9733871Y-9510229D01*
X9733871Y-9438800D01*
X9748157Y-9381657D01*
X9762443Y-9353086D01*
X9776728Y-9338800D01*
X9805300Y-9324514D01*
X10019586Y-9324514D02*
X10019586Y-9381657D01*
X10133871Y-9324514D02*
X10133871Y-9381657D01*
X10576728Y-9738800D02*
X10562443Y-9724514D01*
X10533871Y-9681657D01*
X10519586Y-9653086D01*
X10505300Y-9610229D01*
X10491014Y-9538800D01*
X10491014Y-9481657D01*
X10505300Y-9410229D01*
X10519586Y-9367372D01*
X10533871Y-9338800D01*
X10562443Y-9295943D01*
X10576728Y-9281657D01*
X10748157Y-9324514D02*
X10776728Y-9324514D01*
X10805300Y-9338800D01*
X10819586Y-9353086D01*
X10833871Y-9381657D01*
X10848157Y-9438800D01*
X10848157Y-9510229D01*
X10833871Y-9567372D01*
X10819586Y-9595943D01*
X10805300Y-9610229D01*
X10776728Y-9624514D01*
X10748157Y-9624514D01*
X10719586Y-9610229D01*
X10705300Y-9595943D01*
X10691014Y-9567372D01*
X10676728Y-9510229D01*
X10676728Y-9438800D01*
X10691014Y-9381657D01*
X10705300Y-9353086D01*
X10719586Y-9338800D01*
X10748157Y-9324514D01*
X11205300Y-9624514D02*
X11205300Y-9324514D01*
X11333871Y-9624514D02*
X11333871Y-9467372D01*
X11319586Y-9438800D01*
X11291014Y-9424514D01*
X11248157Y-9424514D01*
X11219586Y-9438800D01*
X11205300Y-9453086D01*
X11519586Y-9624514D02*
X11491014Y-9610229D01*
X11476728Y-9595943D01*
X11462443Y-9567372D01*
X11462443Y-9481657D01*
X11476728Y-9453086D01*
X11491014Y-9438800D01*
X11519586Y-9424514D01*
X11562443Y-9424514D01*
X11591014Y-9438800D01*
X11605300Y-9453086D01*
X11619586Y-9481657D01*
X11619586Y-9567372D01*
X11605300Y-9595943D01*
X11591014Y-9610229D01*
X11562443Y-9624514D01*
X11519586Y-9624514D01*
X11791014Y-9624514D02*
X11762443Y-9610229D01*
X11748157Y-9581657D01*
X11748157Y-9324514D01*
X12019586Y-9610229D02*
X11991014Y-9624514D01*
X11933871Y-9624514D01*
X11905300Y-9610229D01*
X11891014Y-9581657D01*
X11891014Y-9467372D01*
X11905300Y-9438800D01*
X11933871Y-9424514D01*
X11991014Y-9424514D01*
X12019586Y-9438800D01*
X12033871Y-9467372D01*
X12033871Y-9495943D01*
X11891014Y-9524514D01*
X12148157Y-9610229D02*
X12176728Y-9624514D01*
X12233871Y-9624514D01*
X12262443Y-9610229D01*
X12276728Y-9581657D01*
X12276728Y-9567372D01*
X12262443Y-9538800D01*
X12233871Y-9524514D01*
X12191014Y-9524514D01*
X12162443Y-9510229D01*
X12148157Y-9481657D01*
X12148157Y-9467372D01*
X12162443Y-9438800D01*
X12191014Y-9424514D01*
X12233871Y-9424514D01*
X12262443Y-9438800D01*
X12633871Y-9510229D02*
X12862443Y-9510229D01*
X12748157Y-9624514D02*
X12748157Y-9395943D01*
X13376728Y-9324514D02*
X13233871Y-9324514D01*
X13219586Y-9467372D01*
X13233871Y-9453086D01*
X13262443Y-9438800D01*
X13333871Y-9438800D01*
X13362443Y-9453086D01*
X13376728Y-9467372D01*
X13391014Y-9495943D01*
X13391014Y-9567372D01*
X13376728Y-9595943D01*
X13362443Y-9610229D01*
X13333871Y-9624514D01*
X13262443Y-9624514D01*
X13233871Y-9610229D01*
X13219586Y-9595943D01*
X13733871Y-9610229D02*
X13762443Y-9624514D01*
X13819586Y-9624514D01*
X13848157Y-9610229D01*
X13862443Y-9581657D01*
X13862443Y-9567372D01*
X13848157Y-9538800D01*
X13819586Y-9524514D01*
X13776728Y-9524514D01*
X13748157Y-9510229D01*
X13733871Y-9481657D01*
X13733871Y-9467372D01*
X13748157Y-9438800D01*
X13776728Y-9424514D01*
X13819586Y-9424514D01*
X13848157Y-9438800D01*
X14033871Y-9624514D02*
X14005300Y-9610229D01*
X13991014Y-9581657D01*
X13991014Y-9324514D01*
X14191014Y-9624514D02*
X14162443Y-9610229D01*
X14148157Y-9595943D01*
X14133871Y-9567372D01*
X14133871Y-9481657D01*
X14148157Y-9453086D01*
X14162443Y-9438800D01*
X14191014Y-9424514D01*
X14233871Y-9424514D01*
X14262443Y-9438800D01*
X14276728Y-9453086D01*
X14291014Y-9481657D01*
X14291014Y-9567372D01*
X14276728Y-9595943D01*
X14262443Y-9610229D01*
X14233871Y-9624514D01*
X14191014Y-9624514D01*
X14376728Y-9424514D02*
X14491014Y-9424514D01*
X14419586Y-9324514D02*
X14419586Y-9581657D01*
X14433871Y-9610229D01*
X14462443Y-9624514D01*
X14491014Y-9624514D01*
X14576728Y-9610229D02*
X14605300Y-9624514D01*
X14662443Y-9624514D01*
X14691014Y-9610229D01*
X14705300Y-9581657D01*
X14705300Y-9567372D01*
X14691014Y-9538800D01*
X14662443Y-9524514D01*
X14619586Y-9524514D01*
X14591014Y-9510229D01*
X14576728Y-9481657D01*
X14576728Y-9467372D01*
X14591014Y-9438800D01*
X14619586Y-9424514D01*
X14662443Y-9424514D01*
X14691014Y-9438800D01*
X14805300Y-9738800D02*
X14819586Y-9724514D01*
X14848157Y-9681657D01*
X14862443Y-9653086D01*
X14876728Y-9610229D01*
X14891014Y-9538800D01*
X14891014Y-9481657D01*
X14876728Y-9410229D01*
X14862443Y-9367372D01*
X14848157Y-9338800D01*
X14819586Y-9295943D01*
X14805300Y-9281657D01*
X5878584Y-9913085D02*
X5878584Y-9856516D01*
X5822015Y-9856516D01*
X5822015Y-9913085D01*
X5878584Y-9913085D01*
X6233871Y-9720514D02*
X6262443Y-9720514D01*
X6291014Y-9734800D01*
X6305300Y-9749086D01*
X6319586Y-9777657D01*
X6333871Y-9834800D01*
X6333871Y-9906229D01*
X6319586Y-9963372D01*
X6305300Y-9991943D01*
X6291014Y-10006229D01*
X6262443Y-10020514D01*
X6233871Y-10020514D01*
X6205300Y-10006229D01*
X6191014Y-9991943D01*
X6176728Y-9963372D01*
X6162443Y-9906229D01*
X6162443Y-9834800D01*
X6176728Y-9777657D01*
X6191014Y-9749086D01*
X6205300Y-9734800D01*
X6233871Y-9720514D01*
X6462443Y-9991943D02*
X6476728Y-10006229D01*
X6462443Y-10020514D01*
X6448157Y-10006229D01*
X6462443Y-9991943D01*
X6462443Y-10020514D01*
X6648157Y-9849086D02*
X6619586Y-9834800D01*
X6605300Y-9820514D01*
X6591014Y-9791943D01*
X6591014Y-9777657D01*
X6605300Y-9749086D01*
X6619586Y-9734800D01*
X6648157Y-9720514D01*
X6705300Y-9720514D01*
X6733871Y-9734800D01*
X6748157Y-9749086D01*
X6762443Y-9777657D01*
X6762443Y-9791943D01*
X6748157Y-9820514D01*
X6733871Y-9834800D01*
X6705300Y-9849086D01*
X6648157Y-9849086D01*
X6619586Y-9863372D01*
X6605300Y-9877657D01*
X6591014Y-9906229D01*
X6591014Y-9963372D01*
X6605300Y-9991943D01*
X6619586Y-10006229D01*
X6648157Y-10020514D01*
X6705300Y-10020514D01*
X6733871Y-10006229D01*
X6748157Y-9991943D01*
X6762443Y-9963372D01*
X6762443Y-9906229D01*
X6748157Y-9877657D01*
X6733871Y-9863372D01*
X6705300Y-9849086D01*
X6948157Y-9720514D02*
X6976728Y-9720514D01*
X7005300Y-9734800D01*
X7019586Y-9749086D01*
X7033871Y-9777657D01*
X7048157Y-9834800D01*
X7048157Y-9906229D01*
X7033871Y-9963372D01*
X7019586Y-9991943D01*
X7005300Y-10006229D01*
X6976728Y-10020514D01*
X6948157Y-10020514D01*
X6919586Y-10006229D01*
X6905300Y-9991943D01*
X6891014Y-9963372D01*
X6876728Y-9906229D01*
X6876728Y-9834800D01*
X6891014Y-9777657D01*
X6905300Y-9749086D01*
X6919586Y-9734800D01*
X6948157Y-9720514D01*
X7176728Y-10020514D02*
X7176728Y-9820514D01*
X7176728Y-9849086D02*
X7191014Y-9834800D01*
X7219586Y-9820514D01*
X7262443Y-9820514D01*
X7291014Y-9834800D01*
X7305300Y-9863372D01*
X7305300Y-10020514D01*
X7305300Y-9863372D02*
X7319586Y-9834800D01*
X7348157Y-9820514D01*
X7391014Y-9820514D01*
X7419586Y-9834800D01*
X7433871Y-9863372D01*
X7433871Y-10020514D01*
X7576728Y-10020514D02*
X7576728Y-9820514D01*
X7576728Y-9849086D02*
X7591014Y-9834800D01*
X7619586Y-9820514D01*
X7662443Y-9820514D01*
X7691014Y-9834800D01*
X7705300Y-9863372D01*
X7705300Y-10020514D01*
X7705300Y-9863372D02*
X7719586Y-9834800D01*
X7748157Y-9820514D01*
X7791014Y-9820514D01*
X7819586Y-9834800D01*
X7833871Y-9863372D01*
X7833871Y-10020514D01*
X8419586Y-9706229D02*
X8162443Y-10091943D01*
X8805300Y-9720514D02*
X8833871Y-9720514D01*
X8862443Y-9734800D01*
X8876728Y-9749086D01*
X8891014Y-9777657D01*
X8905300Y-9834800D01*
X8905300Y-9906229D01*
X8891014Y-9963372D01*
X8876728Y-9991943D01*
X8862443Y-10006229D01*
X8833871Y-10020514D01*
X8805300Y-10020514D01*
X8776728Y-10006229D01*
X8762443Y-9991943D01*
X8748157Y-9963372D01*
X8733871Y-9906229D01*
X8733871Y-9834800D01*
X8748157Y-9777657D01*
X8762443Y-9749086D01*
X8776728Y-9734800D01*
X8805300Y-9720514D01*
X9033871Y-9991943D02*
X9048157Y-10006229D01*
X9033871Y-10020514D01*
X9019586Y-10006229D01*
X9033871Y-9991943D01*
X9033871Y-10020514D01*
X9233871Y-9720514D02*
X9262443Y-9720514D01*
X9291014Y-9734800D01*
X9305300Y-9749086D01*
X9319586Y-9777657D01*
X9333871Y-9834800D01*
X9333871Y-9906229D01*
X9319586Y-9963372D01*
X9305300Y-9991943D01*
X9291014Y-10006229D01*
X9262443Y-10020514D01*
X9233871Y-10020514D01*
X9205300Y-10006229D01*
X9191014Y-9991943D01*
X9176728Y-9963372D01*
X9162443Y-9906229D01*
X9162443Y-9834800D01*
X9176728Y-9777657D01*
X9191014Y-9749086D01*
X9205300Y-9734800D01*
X9233871Y-9720514D01*
X9433871Y-9720514D02*
X9619586Y-9720514D01*
X9519586Y-9834800D01*
X9562443Y-9834800D01*
X9591014Y-9849086D01*
X9605300Y-9863372D01*
X9619586Y-9891943D01*
X9619586Y-9963372D01*
X9605300Y-9991943D01*
X9591014Y-10006229D01*
X9562443Y-10020514D01*
X9476728Y-10020514D01*
X9448157Y-10006229D01*
X9433871Y-9991943D01*
X9905300Y-10020514D02*
X9733871Y-10020514D01*
X9819586Y-10020514D02*
X9819586Y-9720514D01*
X9791014Y-9763372D01*
X9762443Y-9791943D01*
X9733871Y-9806229D01*
X10019586Y-9720514D02*
X10019586Y-9777657D01*
X10133871Y-9720514D02*
X10133871Y-9777657D01*
X10576728Y-10134800D02*
X10562443Y-10120514D01*
X10533871Y-10077657D01*
X10519586Y-10049086D01*
X10505300Y-10006229D01*
X10491014Y-9934800D01*
X10491014Y-9877657D01*
X10505300Y-9806229D01*
X10519586Y-9763372D01*
X10533871Y-9734800D01*
X10562443Y-9691943D01*
X10576728Y-9677657D01*
X10676728Y-9749086D02*
X10691014Y-9734800D01*
X10719586Y-9720514D01*
X10791014Y-9720514D01*
X10819586Y-9734800D01*
X10833871Y-9749086D01*
X10848157Y-9777657D01*
X10848157Y-9806229D01*
X10833871Y-9849086D01*
X10662443Y-10020514D01*
X10848157Y-10020514D01*
X11033871Y-9720514D02*
X11062443Y-9720514D01*
X11091014Y-9734800D01*
X11105300Y-9749086D01*
X11119586Y-9777657D01*
X11133871Y-9834800D01*
X11133871Y-9906229D01*
X11119586Y-9963372D01*
X11105300Y-9991943D01*
X11091014Y-10006229D01*
X11062443Y-10020514D01*
X11033871Y-10020514D01*
X11005300Y-10006229D01*
X10991014Y-9991943D01*
X10976728Y-9963372D01*
X10962443Y-9906229D01*
X10962443Y-9834800D01*
X10976728Y-9777657D01*
X10991014Y-9749086D01*
X11005300Y-9734800D01*
X11033871Y-9720514D01*
X11491014Y-10020514D02*
X11491014Y-9720514D01*
X11619586Y-10020514D02*
X11619586Y-9863372D01*
X11605300Y-9834800D01*
X11576728Y-9820514D01*
X11533871Y-9820514D01*
X11505300Y-9834800D01*
X11491014Y-9849086D01*
X11805300Y-10020514D02*
X11776728Y-10006229D01*
X11762443Y-9991943D01*
X11748157Y-9963372D01*
X11748157Y-9877657D01*
X11762443Y-9849086D01*
X11776728Y-9834800D01*
X11805300Y-9820514D01*
X11848157Y-9820514D01*
X11876728Y-9834800D01*
X11891014Y-9849086D01*
X11905300Y-9877657D01*
X11905300Y-9963372D01*
X11891014Y-9991943D01*
X11876728Y-10006229D01*
X11848157Y-10020514D01*
X11805300Y-10020514D01*
X12076728Y-10020514D02*
X12048157Y-10006229D01*
X12033871Y-9977657D01*
X12033871Y-9720514D01*
X12305300Y-10006229D02*
X12276728Y-10020514D01*
X12219586Y-10020514D01*
X12191014Y-10006229D01*
X12176728Y-9977657D01*
X12176728Y-9863372D01*
X12191014Y-9834800D01*
X12219586Y-9820514D01*
X12276728Y-9820514D01*
X12305300Y-9834800D01*
X12319586Y-9863372D01*
X12319586Y-9891943D01*
X12176728Y-9920514D01*
X12433871Y-10006229D02*
X12462443Y-10020514D01*
X12519586Y-10020514D01*
X12548157Y-10006229D01*
X12562443Y-9977657D01*
X12562443Y-9963372D01*
X12548157Y-9934800D01*
X12519586Y-9920514D01*
X12476728Y-9920514D01*
X12448157Y-9906229D01*
X12433871Y-9877657D01*
X12433871Y-9863372D01*
X12448157Y-9834800D01*
X12476728Y-9820514D01*
X12519586Y-9820514D01*
X12548157Y-9834800D01*
X12662443Y-10134800D02*
X12676728Y-10120514D01*
X12705300Y-10077657D01*
X12719586Y-10049086D01*
X12733871Y-10006229D01*
X12748157Y-9934800D01*
X12748157Y-9877657D01*
X12733871Y-9806229D01*
X12719586Y-9763372D01*
X12705300Y-9734800D01*
X12676728Y-9691943D01*
X12662443Y-9677657D01*
X5840300Y-10330800D02*
X5890300Y-10280800D01*
X5840300Y-10230800D01*
X5790300Y-10280800D01*
X5840300Y-10330800D01*
X6333871Y-10416514D02*
X6162443Y-10416514D01*
X6248157Y-10416514D02*
X6248157Y-10116514D01*
X6219586Y-10159372D01*
X6191014Y-10187943D01*
X6162443Y-10202229D01*
X6462443Y-10387943D02*
X6476728Y-10402229D01*
X6462443Y-10416514D01*
X6448157Y-10402229D01*
X6462443Y-10387943D01*
X6462443Y-10416514D01*
X6662443Y-10116514D02*
X6691014Y-10116514D01*
X6719586Y-10130800D01*
X6733871Y-10145086D01*
X6748157Y-10173657D01*
X6762443Y-10230800D01*
X6762443Y-10302229D01*
X6748157Y-10359372D01*
X6733871Y-10387943D01*
X6719586Y-10402229D01*
X6691014Y-10416514D01*
X6662443Y-10416514D01*
X6633871Y-10402229D01*
X6619586Y-10387943D01*
X6605300Y-10359372D01*
X6591014Y-10302229D01*
X6591014Y-10230800D01*
X6605300Y-10173657D01*
X6619586Y-10145086D01*
X6633871Y-10130800D01*
X6662443Y-10116514D01*
X6948157Y-10116514D02*
X6976728Y-10116514D01*
X7005300Y-10130800D01*
X7019586Y-10145086D01*
X7033871Y-10173657D01*
X7048157Y-10230800D01*
X7048157Y-10302229D01*
X7033871Y-10359372D01*
X7019586Y-10387943D01*
X7005300Y-10402229D01*
X6976728Y-10416514D01*
X6948157Y-10416514D01*
X6919586Y-10402229D01*
X6905300Y-10387943D01*
X6891014Y-10359372D01*
X6876728Y-10302229D01*
X6876728Y-10230800D01*
X6891014Y-10173657D01*
X6905300Y-10145086D01*
X6919586Y-10130800D01*
X6948157Y-10116514D01*
X7176728Y-10416514D02*
X7176728Y-10216514D01*
X7176728Y-10245086D02*
X7191014Y-10230800D01*
X7219586Y-10216514D01*
X7262443Y-10216514D01*
X7291014Y-10230800D01*
X7305300Y-10259372D01*
X7305300Y-10416514D01*
X7305300Y-10259372D02*
X7319586Y-10230800D01*
X7348157Y-10216514D01*
X7391014Y-10216514D01*
X7419586Y-10230800D01*
X7433871Y-10259372D01*
X7433871Y-10416514D01*
X7576728Y-10416514D02*
X7576728Y-10216514D01*
X7576728Y-10245086D02*
X7591014Y-10230800D01*
X7619586Y-10216514D01*
X7662443Y-10216514D01*
X7691014Y-10230800D01*
X7705300Y-10259372D01*
X7705300Y-10416514D01*
X7705300Y-10259372D02*
X7719586Y-10230800D01*
X7748157Y-10216514D01*
X7791014Y-10216514D01*
X7819586Y-10230800D01*
X7833871Y-10259372D01*
X7833871Y-10416514D01*
X8419586Y-10102229D02*
X8162443Y-10487943D01*
X8805300Y-10116514D02*
X8833871Y-10116514D01*
X8862443Y-10130800D01*
X8876728Y-10145086D01*
X8891014Y-10173657D01*
X8905300Y-10230800D01*
X8905300Y-10302229D01*
X8891014Y-10359372D01*
X8876728Y-10387943D01*
X8862443Y-10402229D01*
X8833871Y-10416514D01*
X8805300Y-10416514D01*
X8776728Y-10402229D01*
X8762443Y-10387943D01*
X8748157Y-10359372D01*
X8733871Y-10302229D01*
X8733871Y-10230800D01*
X8748157Y-10173657D01*
X8762443Y-10145086D01*
X8776728Y-10130800D01*
X8805300Y-10116514D01*
X9033871Y-10387943D02*
X9048157Y-10402229D01*
X9033871Y-10416514D01*
X9019586Y-10402229D01*
X9033871Y-10387943D01*
X9033871Y-10416514D01*
X9233871Y-10116514D02*
X9262443Y-10116514D01*
X9291014Y-10130800D01*
X9305300Y-10145086D01*
X9319586Y-10173657D01*
X9333871Y-10230800D01*
X9333871Y-10302229D01*
X9319586Y-10359372D01*
X9305300Y-10387943D01*
X9291014Y-10402229D01*
X9262443Y-10416514D01*
X9233871Y-10416514D01*
X9205300Y-10402229D01*
X9191014Y-10387943D01*
X9176728Y-10359372D01*
X9162443Y-10302229D01*
X9162443Y-10230800D01*
X9176728Y-10173657D01*
X9191014Y-10145086D01*
X9205300Y-10130800D01*
X9233871Y-10116514D01*
X9433871Y-10116514D02*
X9619586Y-10116514D01*
X9519586Y-10230800D01*
X9562443Y-10230800D01*
X9591014Y-10245086D01*
X9605300Y-10259372D01*
X9619586Y-10287943D01*
X9619586Y-10359372D01*
X9605300Y-10387943D01*
X9591014Y-10402229D01*
X9562443Y-10416514D01*
X9476728Y-10416514D01*
X9448157Y-10402229D01*
X9433871Y-10387943D01*
X9762443Y-10416514D02*
X9819586Y-10416514D01*
X9848157Y-10402229D01*
X9862443Y-10387943D01*
X9891014Y-10345086D01*
X9905300Y-10287943D01*
X9905300Y-10173657D01*
X9891014Y-10145086D01*
X9876728Y-10130800D01*
X9848157Y-10116514D01*
X9791014Y-10116514D01*
X9762443Y-10130800D01*
X9748157Y-10145086D01*
X9733871Y-10173657D01*
X9733871Y-10245086D01*
X9748157Y-10273657D01*
X9762443Y-10287943D01*
X9791014Y-10302229D01*
X9848157Y-10302229D01*
X9876728Y-10287943D01*
X9891014Y-10273657D01*
X9905300Y-10245086D01*
X10019586Y-10116514D02*
X10019586Y-10173657D01*
X10133871Y-10116514D02*
X10133871Y-10173657D01*
X10576728Y-10530800D02*
X10562443Y-10516514D01*
X10533871Y-10473657D01*
X10519586Y-10445086D01*
X10505300Y-10402229D01*
X10491014Y-10330800D01*
X10491014Y-10273657D01*
X10505300Y-10202229D01*
X10519586Y-10159372D01*
X10533871Y-10130800D01*
X10562443Y-10087943D01*
X10576728Y-10073657D01*
X10676728Y-10145086D02*
X10691014Y-10130800D01*
X10719586Y-10116514D01*
X10791014Y-10116514D01*
X10819586Y-10130800D01*
X10833871Y-10145086D01*
X10848157Y-10173657D01*
X10848157Y-10202229D01*
X10833871Y-10245086D01*
X10662443Y-10416514D01*
X10848157Y-10416514D01*
X11033871Y-10116514D02*
X11062443Y-10116514D01*
X11091014Y-10130800D01*
X11105300Y-10145086D01*
X11119586Y-10173657D01*
X11133871Y-10230800D01*
X11133871Y-10302229D01*
X11119586Y-10359372D01*
X11105300Y-10387943D01*
X11091014Y-10402229D01*
X11062443Y-10416514D01*
X11033871Y-10416514D01*
X11005300Y-10402229D01*
X10991014Y-10387943D01*
X10976728Y-10359372D01*
X10962443Y-10302229D01*
X10962443Y-10230800D01*
X10976728Y-10173657D01*
X10991014Y-10145086D01*
X11005300Y-10130800D01*
X11033871Y-10116514D01*
X11491014Y-10416514D02*
X11491014Y-10116514D01*
X11619586Y-10416514D02*
X11619586Y-10259372D01*
X11605300Y-10230800D01*
X11576728Y-10216514D01*
X11533871Y-10216514D01*
X11505300Y-10230800D01*
X11491014Y-10245086D01*
X11805300Y-10416514D02*
X11776728Y-10402229D01*
X11762443Y-10387943D01*
X11748157Y-10359372D01*
X11748157Y-10273657D01*
X11762443Y-10245086D01*
X11776728Y-10230800D01*
X11805300Y-10216514D01*
X11848157Y-10216514D01*
X11876728Y-10230800D01*
X11891014Y-10245086D01*
X11905300Y-10273657D01*
X11905300Y-10359372D01*
X11891014Y-10387943D01*
X11876728Y-10402229D01*
X11848157Y-10416514D01*
X11805300Y-10416514D01*
X12076728Y-10416514D02*
X12048157Y-10402229D01*
X12033871Y-10373657D01*
X12033871Y-10116514D01*
X12305300Y-10402229D02*
X12276728Y-10416514D01*
X12219586Y-10416514D01*
X12191014Y-10402229D01*
X12176728Y-10373657D01*
X12176728Y-10259372D01*
X12191014Y-10230800D01*
X12219586Y-10216514D01*
X12276728Y-10216514D01*
X12305300Y-10230800D01*
X12319586Y-10259372D01*
X12319586Y-10287943D01*
X12176728Y-10316514D01*
X12433871Y-10402229D02*
X12462443Y-10416514D01*
X12519586Y-10416514D01*
X12548157Y-10402229D01*
X12562443Y-10373657D01*
X12562443Y-10359372D01*
X12548157Y-10330800D01*
X12519586Y-10316514D01*
X12476728Y-10316514D01*
X12448157Y-10302229D01*
X12433871Y-10273657D01*
X12433871Y-10259372D01*
X12448157Y-10230800D01*
X12476728Y-10216514D01*
X12519586Y-10216514D01*
X12548157Y-10230800D01*
X12662443Y-10530800D02*
X12676728Y-10516514D01*
X12705300Y-10473657D01*
X12719586Y-10445086D01*
X12733871Y-10402229D01*
X12748157Y-10330800D01*
X12748157Y-10273657D01*
X12733871Y-10202229D01*
X12719586Y-10159372D01*
X12705300Y-10130800D01*
X12676728Y-10087943D01*
X12662443Y-10073657D01*
X5780300Y-10621800D02*
X5890300Y-10731800D01*
X5890300Y-10621800D02*
X5780300Y-10731800D01*
X5890300Y-10676800D02*
G75*
G03X5890300Y-10676800I-55000J0D01*
G01*
X6333871Y-10812514D02*
X6162443Y-10812514D01*
X6248157Y-10812514D02*
X6248157Y-10512514D01*
X6219586Y-10555372D01*
X6191014Y-10583943D01*
X6162443Y-10598229D01*
X6462443Y-10783943D02*
X6476728Y-10798229D01*
X6462443Y-10812514D01*
X6448157Y-10798229D01*
X6462443Y-10783943D01*
X6462443Y-10812514D01*
X6762443Y-10812514D02*
X6591014Y-10812514D01*
X6676728Y-10812514D02*
X6676728Y-10512514D01*
X6648157Y-10555372D01*
X6619586Y-10583943D01*
X6591014Y-10598229D01*
X6948157Y-10512514D02*
X6976728Y-10512514D01*
X7005300Y-10526800D01*
X7019586Y-10541086D01*
X7033871Y-10569657D01*
X7048157Y-10626800D01*
X7048157Y-10698229D01*
X7033871Y-10755372D01*
X7019586Y-10783943D01*
X7005300Y-10798229D01*
X6976728Y-10812514D01*
X6948157Y-10812514D01*
X6919586Y-10798229D01*
X6905300Y-10783943D01*
X6891014Y-10755372D01*
X6876728Y-10698229D01*
X6876728Y-10626800D01*
X6891014Y-10569657D01*
X6905300Y-10541086D01*
X6919586Y-10526800D01*
X6948157Y-10512514D01*
X7176728Y-10812514D02*
X7176728Y-10612514D01*
X7176728Y-10641086D02*
X7191014Y-10626800D01*
X7219586Y-10612514D01*
X7262443Y-10612514D01*
X7291014Y-10626800D01*
X7305300Y-10655372D01*
X7305300Y-10812514D01*
X7305300Y-10655372D02*
X7319586Y-10626800D01*
X7348157Y-10612514D01*
X7391014Y-10612514D01*
X7419586Y-10626800D01*
X7433871Y-10655372D01*
X7433871Y-10812514D01*
X7576728Y-10812514D02*
X7576728Y-10612514D01*
X7576728Y-10641086D02*
X7591014Y-10626800D01*
X7619586Y-10612514D01*
X7662443Y-10612514D01*
X7691014Y-10626800D01*
X7705300Y-10655372D01*
X7705300Y-10812514D01*
X7705300Y-10655372D02*
X7719586Y-10626800D01*
X7748157Y-10612514D01*
X7791014Y-10612514D01*
X7819586Y-10626800D01*
X7833871Y-10655372D01*
X7833871Y-10812514D01*
X8419586Y-10498229D02*
X8162443Y-10883943D01*
X8805300Y-10512514D02*
X8833871Y-10512514D01*
X8862443Y-10526800D01*
X8876728Y-10541086D01*
X8891014Y-10569657D01*
X8905300Y-10626800D01*
X8905300Y-10698229D01*
X8891014Y-10755372D01*
X8876728Y-10783943D01*
X8862443Y-10798229D01*
X8833871Y-10812514D01*
X8805300Y-10812514D01*
X8776728Y-10798229D01*
X8762443Y-10783943D01*
X8748157Y-10755372D01*
X8733871Y-10698229D01*
X8733871Y-10626800D01*
X8748157Y-10569657D01*
X8762443Y-10541086D01*
X8776728Y-10526800D01*
X8805300Y-10512514D01*
X9033871Y-10783943D02*
X9048157Y-10798229D01*
X9033871Y-10812514D01*
X9019586Y-10798229D01*
X9033871Y-10783943D01*
X9033871Y-10812514D01*
X9233871Y-10512514D02*
X9262443Y-10512514D01*
X9291014Y-10526800D01*
X9305300Y-10541086D01*
X9319586Y-10569657D01*
X9333871Y-10626800D01*
X9333871Y-10698229D01*
X9319586Y-10755372D01*
X9305300Y-10783943D01*
X9291014Y-10798229D01*
X9262443Y-10812514D01*
X9233871Y-10812514D01*
X9205300Y-10798229D01*
X9191014Y-10783943D01*
X9176728Y-10755372D01*
X9162443Y-10698229D01*
X9162443Y-10626800D01*
X9176728Y-10569657D01*
X9191014Y-10541086D01*
X9205300Y-10526800D01*
X9233871Y-10512514D01*
X9591014Y-10612514D02*
X9591014Y-10812514D01*
X9519586Y-10498229D02*
X9448157Y-10712514D01*
X9633871Y-10712514D01*
X9719586Y-10512514D02*
X9905300Y-10512514D01*
X9805300Y-10626800D01*
X9848157Y-10626800D01*
X9876728Y-10641086D01*
X9891014Y-10655372D01*
X9905300Y-10683943D01*
X9905300Y-10755372D01*
X9891014Y-10783943D01*
X9876728Y-10798229D01*
X9848157Y-10812514D01*
X9762443Y-10812514D01*
X9733871Y-10798229D01*
X9719586Y-10783943D01*
X10019586Y-10512514D02*
X10019586Y-10569657D01*
X10133871Y-10512514D02*
X10133871Y-10569657D01*
X10576728Y-10926800D02*
X10562443Y-10912514D01*
X10533871Y-10869657D01*
X10519586Y-10841086D01*
X10505300Y-10798229D01*
X10491014Y-10726800D01*
X10491014Y-10669657D01*
X10505300Y-10598229D01*
X10519586Y-10555372D01*
X10533871Y-10526800D01*
X10562443Y-10483943D01*
X10576728Y-10469657D01*
X10662443Y-10512514D02*
X10862443Y-10512514D01*
X10733871Y-10812514D01*
X11205300Y-10812514D02*
X11205300Y-10512514D01*
X11333871Y-10812514D02*
X11333871Y-10655372D01*
X11319586Y-10626800D01*
X11291014Y-10612514D01*
X11248157Y-10612514D01*
X11219586Y-10626800D01*
X11205300Y-10641086D01*
X11519586Y-10812514D02*
X11491014Y-10798229D01*
X11476728Y-10783943D01*
X11462443Y-10755372D01*
X11462443Y-10669657D01*
X11476728Y-10641086D01*
X11491014Y-10626800D01*
X11519586Y-10612514D01*
X11562443Y-10612514D01*
X11591014Y-10626800D01*
X11605300Y-10641086D01*
X11619586Y-10669657D01*
X11619586Y-10755372D01*
X11605300Y-10783943D01*
X11591014Y-10798229D01*
X11562443Y-10812514D01*
X11519586Y-10812514D01*
X11791014Y-10812514D02*
X11762443Y-10798229D01*
X11748157Y-10769657D01*
X11748157Y-10512514D01*
X12019586Y-10798229D02*
X11991014Y-10812514D01*
X11933871Y-10812514D01*
X11905300Y-10798229D01*
X11891014Y-10769657D01*
X11891014Y-10655372D01*
X11905300Y-10626800D01*
X11933871Y-10612514D01*
X11991014Y-10612514D01*
X12019586Y-10626800D01*
X12033871Y-10655372D01*
X12033871Y-10683943D01*
X11891014Y-10712514D01*
X12148157Y-10798229D02*
X12176728Y-10812514D01*
X12233871Y-10812514D01*
X12262443Y-10798229D01*
X12276728Y-10769657D01*
X12276728Y-10755372D01*
X12262443Y-10726800D01*
X12233871Y-10712514D01*
X12191014Y-10712514D01*
X12162443Y-10698229D01*
X12148157Y-10669657D01*
X12148157Y-10655372D01*
X12162443Y-10626800D01*
X12191014Y-10612514D01*
X12233871Y-10612514D01*
X12262443Y-10626800D01*
X12376728Y-10926800D02*
X12391014Y-10912514D01*
X12419586Y-10869657D01*
X12433871Y-10841086D01*
X12448157Y-10798229D01*
X12462443Y-10726800D01*
X12462443Y-10669657D01*
X12448157Y-10598229D01*
X12433871Y-10555372D01*
X12419586Y-10526800D01*
X12391014Y-10483943D01*
X12376728Y-10469657D01*
X5770300Y-11012800D02*
X5890300Y-11132800D01*
X5890300Y-11012800D02*
X5770300Y-11132800D01*
X5830300Y-11012800D02*
X5830300Y-11132800D01*
X5770300Y-11072800D02*
X5890300Y-11072800D01*
X6333871Y-11208514D02*
X6162443Y-11208514D01*
X6248157Y-11208514D02*
X6248157Y-10908514D01*
X6219586Y-10951372D01*
X6191014Y-10979943D01*
X6162443Y-10994229D01*
X6462443Y-11179943D02*
X6476728Y-11194229D01*
X6462443Y-11208514D01*
X6448157Y-11194229D01*
X6462443Y-11179943D01*
X6462443Y-11208514D01*
X6591014Y-10937086D02*
X6605300Y-10922800D01*
X6633871Y-10908514D01*
X6705300Y-10908514D01*
X6733871Y-10922800D01*
X6748157Y-10937086D01*
X6762443Y-10965657D01*
X6762443Y-10994229D01*
X6748157Y-11037086D01*
X6576728Y-11208514D01*
X6762443Y-11208514D01*
X6948157Y-10908514D02*
X6976728Y-10908514D01*
X7005300Y-10922800D01*
X7019586Y-10937086D01*
X7033871Y-10965657D01*
X7048157Y-11022800D01*
X7048157Y-11094229D01*
X7033871Y-11151372D01*
X7019586Y-11179943D01*
X7005300Y-11194229D01*
X6976728Y-11208514D01*
X6948157Y-11208514D01*
X6919586Y-11194229D01*
X6905300Y-11179943D01*
X6891014Y-11151372D01*
X6876728Y-11094229D01*
X6876728Y-11022800D01*
X6891014Y-10965657D01*
X6905300Y-10937086D01*
X6919586Y-10922800D01*
X6948157Y-10908514D01*
X7176728Y-11208514D02*
X7176728Y-11008514D01*
X7176728Y-11037086D02*
X7191014Y-11022800D01*
X7219586Y-11008514D01*
X7262443Y-11008514D01*
X7291014Y-11022800D01*
X7305300Y-11051372D01*
X7305300Y-11208514D01*
X7305300Y-11051372D02*
X7319586Y-11022800D01*
X7348157Y-11008514D01*
X7391014Y-11008514D01*
X7419586Y-11022800D01*
X7433871Y-11051372D01*
X7433871Y-11208514D01*
X7576728Y-11208514D02*
X7576728Y-11008514D01*
X7576728Y-11037086D02*
X7591014Y-11022800D01*
X7619586Y-11008514D01*
X7662443Y-11008514D01*
X7691014Y-11022800D01*
X7705300Y-11051372D01*
X7705300Y-11208514D01*
X7705300Y-11051372D02*
X7719586Y-11022800D01*
X7748157Y-11008514D01*
X7791014Y-11008514D01*
X7819586Y-11022800D01*
X7833871Y-11051372D01*
X7833871Y-11208514D01*
X8419586Y-10894229D02*
X8162443Y-11279943D01*
X8805300Y-10908514D02*
X8833871Y-10908514D01*
X8862443Y-10922800D01*
X8876728Y-10937086D01*
X8891014Y-10965657D01*
X8905300Y-11022800D01*
X8905300Y-11094229D01*
X8891014Y-11151372D01*
X8876728Y-11179943D01*
X8862443Y-11194229D01*
X8833871Y-11208514D01*
X8805300Y-11208514D01*
X8776728Y-11194229D01*
X8762443Y-11179943D01*
X8748157Y-11151372D01*
X8733871Y-11094229D01*
X8733871Y-11022800D01*
X8748157Y-10965657D01*
X8762443Y-10937086D01*
X8776728Y-10922800D01*
X8805300Y-10908514D01*
X9033871Y-11179943D02*
X9048157Y-11194229D01*
X9033871Y-11208514D01*
X9019586Y-11194229D01*
X9033871Y-11179943D01*
X9033871Y-11208514D01*
X9233871Y-10908514D02*
X9262443Y-10908514D01*
X9291014Y-10922800D01*
X9305300Y-10937086D01*
X9319586Y-10965657D01*
X9333871Y-11022800D01*
X9333871Y-11094229D01*
X9319586Y-11151372D01*
X9305300Y-11179943D01*
X9291014Y-11194229D01*
X9262443Y-11208514D01*
X9233871Y-11208514D01*
X9205300Y-11194229D01*
X9191014Y-11179943D01*
X9176728Y-11151372D01*
X9162443Y-11094229D01*
X9162443Y-11022800D01*
X9176728Y-10965657D01*
X9191014Y-10937086D01*
X9205300Y-10922800D01*
X9233871Y-10908514D01*
X9591014Y-11008514D02*
X9591014Y-11208514D01*
X9519586Y-10894229D02*
X9448157Y-11108514D01*
X9633871Y-11108514D01*
X9719586Y-10908514D02*
X9919586Y-10908514D01*
X9791014Y-11208514D01*
X10019586Y-10908514D02*
X10019586Y-10965657D01*
X10133871Y-10908514D02*
X10133871Y-10965657D01*
X10576728Y-11322800D02*
X10562443Y-11308514D01*
X10533871Y-11265657D01*
X10519586Y-11237086D01*
X10505300Y-11194229D01*
X10491014Y-11122800D01*
X10491014Y-11065657D01*
X10505300Y-10994229D01*
X10519586Y-10951372D01*
X10533871Y-10922800D01*
X10562443Y-10879943D01*
X10576728Y-10865657D01*
X10676728Y-10937086D02*
X10691014Y-10922800D01*
X10719586Y-10908514D01*
X10791014Y-10908514D01*
X10819586Y-10922800D01*
X10833871Y-10937086D01*
X10848157Y-10965657D01*
X10848157Y-10994229D01*
X10833871Y-11037086D01*
X10662443Y-11208514D01*
X10848157Y-11208514D01*
X11205300Y-11208514D02*
X11205300Y-10908514D01*
X11333871Y-11208514D02*
X11333871Y-11051372D01*
X11319586Y-11022800D01*
X11291014Y-11008514D01*
X11248157Y-11008514D01*
X11219586Y-11022800D01*
X11205300Y-11037086D01*
X11519586Y-11208514D02*
X11491014Y-11194229D01*
X11476728Y-11179943D01*
X11462443Y-11151372D01*
X11462443Y-11065657D01*
X11476728Y-11037086D01*
X11491014Y-11022800D01*
X11519586Y-11008514D01*
X11562443Y-11008514D01*
X11591014Y-11022800D01*
X11605300Y-11037086D01*
X11619586Y-11065657D01*
X11619586Y-11151372D01*
X11605300Y-11179943D01*
X11591014Y-11194229D01*
X11562443Y-11208514D01*
X11519586Y-11208514D01*
X11791014Y-11208514D02*
X11762443Y-11194229D01*
X11748157Y-11165657D01*
X11748157Y-10908514D01*
X12019586Y-11194229D02*
X11991014Y-11208514D01*
X11933871Y-11208514D01*
X11905300Y-11194229D01*
X11891014Y-11165657D01*
X11891014Y-11051372D01*
X11905300Y-11022800D01*
X11933871Y-11008514D01*
X11991014Y-11008514D01*
X12019586Y-11022800D01*
X12033871Y-11051372D01*
X12033871Y-11079943D01*
X11891014Y-11108514D01*
X12148157Y-11194229D02*
X12176728Y-11208514D01*
X12233871Y-11208514D01*
X12262443Y-11194229D01*
X12276728Y-11165657D01*
X12276728Y-11151372D01*
X12262443Y-11122800D01*
X12233871Y-11108514D01*
X12191014Y-11108514D01*
X12162443Y-11094229D01*
X12148157Y-11065657D01*
X12148157Y-11051372D01*
X12162443Y-11022800D01*
X12191014Y-11008514D01*
X12233871Y-11008514D01*
X12262443Y-11022800D01*
X12376728Y-11322800D02*
X12391014Y-11308514D01*
X12419586Y-11265657D01*
X12433871Y-11237086D01*
X12448157Y-11194229D01*
X12462443Y-11122800D01*
X12462443Y-11065657D01*
X12448157Y-10994229D01*
X12433871Y-10951372D01*
X12419586Y-10922800D01*
X12391014Y-10879943D01*
X12376728Y-10865657D01*
X5740300Y-11393800D02*
X5890300Y-11543800D01*
X5890300Y-11393800D02*
X5740300Y-11543800D01*
X5868333Y-11521834D02*
X5868333Y-11415767D01*
X5762266Y-11415767D01*
X5762266Y-11521834D01*
X5868333Y-11521834D01*
X6333871Y-11604514D02*
X6162443Y-11604514D01*
X6248157Y-11604514D02*
X6248157Y-11304514D01*
X6219586Y-11347371D01*
X6191014Y-11375943D01*
X6162443Y-11390229D01*
X6462443Y-11575943D02*
X6476728Y-11590229D01*
X6462443Y-11604514D01*
X6448157Y-11590229D01*
X6462443Y-11575943D01*
X6462443Y-11604514D01*
X6748157Y-11304514D02*
X6605300Y-11304514D01*
X6591014Y-11447371D01*
X6605300Y-11433086D01*
X6633871Y-11418800D01*
X6705300Y-11418800D01*
X6733871Y-11433086D01*
X6748157Y-11447371D01*
X6762443Y-11475943D01*
X6762443Y-11547371D01*
X6748157Y-11575943D01*
X6733871Y-11590229D01*
X6705300Y-11604514D01*
X6633871Y-11604514D01*
X6605300Y-11590229D01*
X6591014Y-11575943D01*
X6948157Y-11304514D02*
X6976728Y-11304514D01*
X7005300Y-11318800D01*
X7019586Y-11333086D01*
X7033871Y-11361657D01*
X7048157Y-11418800D01*
X7048157Y-11490229D01*
X7033871Y-11547371D01*
X7019586Y-11575943D01*
X7005300Y-11590229D01*
X6976728Y-11604514D01*
X6948157Y-11604514D01*
X6919586Y-11590229D01*
X6905300Y-11575943D01*
X6891014Y-11547371D01*
X6876728Y-11490229D01*
X6876728Y-11418800D01*
X6891014Y-11361657D01*
X6905300Y-11333086D01*
X6919586Y-11318800D01*
X6948157Y-11304514D01*
X7176728Y-11604514D02*
X7176728Y-11404514D01*
X7176728Y-11433086D02*
X7191014Y-11418800D01*
X7219586Y-11404514D01*
X7262443Y-11404514D01*
X7291014Y-11418800D01*
X7305300Y-11447371D01*
X7305300Y-11604514D01*
X7305300Y-11447371D02*
X7319586Y-11418800D01*
X7348157Y-11404514D01*
X7391014Y-11404514D01*
X7419586Y-11418800D01*
X7433871Y-11447371D01*
X7433871Y-11604514D01*
X7576728Y-11604514D02*
X7576728Y-11404514D01*
X7576728Y-11433086D02*
X7591014Y-11418800D01*
X7619586Y-11404514D01*
X7662443Y-11404514D01*
X7691014Y-11418800D01*
X7705300Y-11447371D01*
X7705300Y-11604514D01*
X7705300Y-11447371D02*
X7719586Y-11418800D01*
X7748157Y-11404514D01*
X7791014Y-11404514D01*
X7819586Y-11418800D01*
X7833871Y-11447371D01*
X7833871Y-11604514D01*
X8419586Y-11290229D02*
X8162443Y-11675943D01*
X8805300Y-11304514D02*
X8833871Y-11304514D01*
X8862443Y-11318800D01*
X8876728Y-11333086D01*
X8891014Y-11361657D01*
X8905300Y-11418800D01*
X8905300Y-11490229D01*
X8891014Y-11547371D01*
X8876728Y-11575943D01*
X8862443Y-11590229D01*
X8833871Y-11604514D01*
X8805300Y-11604514D01*
X8776728Y-11590229D01*
X8762443Y-11575943D01*
X8748157Y-11547371D01*
X8733871Y-11490229D01*
X8733871Y-11418800D01*
X8748157Y-11361657D01*
X8762443Y-11333086D01*
X8776728Y-11318800D01*
X8805300Y-11304514D01*
X9033871Y-11575943D02*
X9048157Y-11590229D01*
X9033871Y-11604514D01*
X9019586Y-11590229D01*
X9033871Y-11575943D01*
X9033871Y-11604514D01*
X9233871Y-11304514D02*
X9262443Y-11304514D01*
X9291014Y-11318800D01*
X9305300Y-11333086D01*
X9319586Y-11361657D01*
X9333871Y-11418800D01*
X9333871Y-11490229D01*
X9319586Y-11547371D01*
X9305300Y-11575943D01*
X9291014Y-11590229D01*
X9262443Y-11604514D01*
X9233871Y-11604514D01*
X9205300Y-11590229D01*
X9191014Y-11575943D01*
X9176728Y-11547371D01*
X9162443Y-11490229D01*
X9162443Y-11418800D01*
X9176728Y-11361657D01*
X9191014Y-11333086D01*
X9205300Y-11318800D01*
X9233871Y-11304514D01*
X9605300Y-11304514D02*
X9462443Y-11304514D01*
X9448157Y-11447371D01*
X9462443Y-11433086D01*
X9491014Y-11418800D01*
X9562443Y-11418800D01*
X9591014Y-11433086D01*
X9605300Y-11447371D01*
X9619586Y-11475943D01*
X9619586Y-11547371D01*
X9605300Y-11575943D01*
X9591014Y-11590229D01*
X9562443Y-11604514D01*
X9491014Y-11604514D01*
X9462443Y-11590229D01*
X9448157Y-11575943D01*
X9762443Y-11604514D02*
X9819586Y-11604514D01*
X9848157Y-11590229D01*
X9862443Y-11575943D01*
X9891014Y-11533086D01*
X9905300Y-11475943D01*
X9905300Y-11361657D01*
X9891014Y-11333086D01*
X9876728Y-11318800D01*
X9848157Y-11304514D01*
X9791014Y-11304514D01*
X9762443Y-11318800D01*
X9748157Y-11333086D01*
X9733871Y-11361657D01*
X9733871Y-11433086D01*
X9748157Y-11461657D01*
X9762443Y-11475943D01*
X9791014Y-11490229D01*
X9848157Y-11490229D01*
X9876728Y-11475943D01*
X9891014Y-11461657D01*
X9905300Y-11433086D01*
X10019586Y-11304514D02*
X10019586Y-11361657D01*
X10133871Y-11304514D02*
X10133871Y-11361657D01*
X10576728Y-11718800D02*
X10562443Y-11704514D01*
X10533871Y-11661657D01*
X10519586Y-11633086D01*
X10505300Y-11590229D01*
X10491014Y-11518800D01*
X10491014Y-11461657D01*
X10505300Y-11390229D01*
X10519586Y-11347371D01*
X10533871Y-11318800D01*
X10562443Y-11275943D01*
X10576728Y-11261657D01*
X10662443Y-11304514D02*
X10848157Y-11304514D01*
X10748157Y-11418800D01*
X10791014Y-11418800D01*
X10819586Y-11433086D01*
X10833871Y-11447371D01*
X10848157Y-11475943D01*
X10848157Y-11547371D01*
X10833871Y-11575943D01*
X10819586Y-11590229D01*
X10791014Y-11604514D01*
X10705300Y-11604514D01*
X10676728Y-11590229D01*
X10662443Y-11575943D01*
X11205300Y-11604514D02*
X11205300Y-11304514D01*
X11333871Y-11604514D02*
X11333871Y-11447371D01*
X11319586Y-11418800D01*
X11291014Y-11404514D01*
X11248157Y-11404514D01*
X11219586Y-11418800D01*
X11205300Y-11433086D01*
X11519586Y-11604514D02*
X11491014Y-11590229D01*
X11476728Y-11575943D01*
X11462443Y-11547371D01*
X11462443Y-11461657D01*
X11476728Y-11433086D01*
X11491014Y-11418800D01*
X11519586Y-11404514D01*
X11562443Y-11404514D01*
X11591014Y-11418800D01*
X11605300Y-11433086D01*
X11619586Y-11461657D01*
X11619586Y-11547371D01*
X11605300Y-11575943D01*
X11591014Y-11590229D01*
X11562443Y-11604514D01*
X11519586Y-11604514D01*
X11791014Y-11604514D02*
X11762443Y-11590229D01*
X11748157Y-11561657D01*
X11748157Y-11304514D01*
X12019586Y-11590229D02*
X11991014Y-11604514D01*
X11933871Y-11604514D01*
X11905300Y-11590229D01*
X11891014Y-11561657D01*
X11891014Y-11447371D01*
X11905300Y-11418800D01*
X11933871Y-11404514D01*
X11991014Y-11404514D01*
X12019586Y-11418800D01*
X12033871Y-11447371D01*
X12033871Y-11475943D01*
X11891014Y-11504514D01*
X12148157Y-11590229D02*
X12176728Y-11604514D01*
X12233871Y-11604514D01*
X12262443Y-11590229D01*
X12276728Y-11561657D01*
X12276728Y-11547371D01*
X12262443Y-11518800D01*
X12233871Y-11504514D01*
X12191014Y-11504514D01*
X12162443Y-11490229D01*
X12148157Y-11461657D01*
X12148157Y-11447371D01*
X12162443Y-11418800D01*
X12191014Y-11404514D01*
X12233871Y-11404514D01*
X12262443Y-11418800D01*
X12376728Y-11718800D02*
X12391014Y-11704514D01*
X12419586Y-11661657D01*
X12433871Y-11633086D01*
X12448157Y-11590229D01*
X12462443Y-11518800D01*
X12462443Y-11461657D01*
X12448157Y-11390229D01*
X12433871Y-11347371D01*
X12419586Y-11318800D01*
X12391014Y-11275943D01*
X12376728Y-11261657D01*
X5660300Y-11749800D02*
X5890300Y-11979800D01*
X5890300Y-11749800D02*
X5660300Y-11979800D01*
X5775300Y-11979800D02*
X5890300Y-11864800D01*
X5775300Y-11749800D01*
X5660300Y-11864800D01*
X5775300Y-11979800D01*
X6162443Y-11729086D02*
X6176728Y-11714800D01*
X6205300Y-11700514D01*
X6276728Y-11700514D01*
X6305300Y-11714800D01*
X6319586Y-11729086D01*
X6333871Y-11757657D01*
X6333871Y-11786229D01*
X6319586Y-11829086D01*
X6148157Y-12000514D01*
X6333871Y-12000514D01*
X6462443Y-11971943D02*
X6476728Y-11986229D01*
X6462443Y-12000514D01*
X6448157Y-11986229D01*
X6462443Y-11971943D01*
X6462443Y-12000514D01*
X6576728Y-11700514D02*
X6762443Y-11700514D01*
X6662443Y-11814800D01*
X6705300Y-11814800D01*
X6733871Y-11829086D01*
X6748157Y-11843371D01*
X6762443Y-11871943D01*
X6762443Y-11943371D01*
X6748157Y-11971943D01*
X6733871Y-11986229D01*
X6705300Y-12000514D01*
X6619586Y-12000514D01*
X6591014Y-11986229D01*
X6576728Y-11971943D01*
X6948157Y-11700514D02*
X6976728Y-11700514D01*
X7005300Y-11714800D01*
X7019586Y-11729086D01*
X7033871Y-11757657D01*
X7048157Y-11814800D01*
X7048157Y-11886229D01*
X7033871Y-11943371D01*
X7019586Y-11971943D01*
X7005300Y-11986229D01*
X6976728Y-12000514D01*
X6948157Y-12000514D01*
X6919586Y-11986229D01*
X6905300Y-11971943D01*
X6891014Y-11943371D01*
X6876728Y-11886229D01*
X6876728Y-11814800D01*
X6891014Y-11757657D01*
X6905300Y-11729086D01*
X6919586Y-11714800D01*
X6948157Y-11700514D01*
X7176728Y-12000514D02*
X7176728Y-11800514D01*
X7176728Y-11829086D02*
X7191014Y-11814800D01*
X7219586Y-11800514D01*
X7262443Y-11800514D01*
X7291014Y-11814800D01*
X7305300Y-11843371D01*
X7305300Y-12000514D01*
X7305300Y-11843371D02*
X7319586Y-11814800D01*
X7348157Y-11800514D01*
X7391014Y-11800514D01*
X7419586Y-11814800D01*
X7433871Y-11843371D01*
X7433871Y-12000514D01*
X7576728Y-12000514D02*
X7576728Y-11800514D01*
X7576728Y-11829086D02*
X7591014Y-11814800D01*
X7619586Y-11800514D01*
X7662443Y-11800514D01*
X7691014Y-11814800D01*
X7705300Y-11843371D01*
X7705300Y-12000514D01*
X7705300Y-11843371D02*
X7719586Y-11814800D01*
X7748157Y-11800514D01*
X7791014Y-11800514D01*
X7819586Y-11814800D01*
X7833871Y-11843371D01*
X7833871Y-12000514D01*
X8419586Y-11686229D02*
X8162443Y-12071943D01*
X8805300Y-11700514D02*
X8833871Y-11700514D01*
X8862443Y-11714800D01*
X8876728Y-11729086D01*
X8891014Y-11757657D01*
X8905300Y-11814800D01*
X8905300Y-11886229D01*
X8891014Y-11943371D01*
X8876728Y-11971943D01*
X8862443Y-11986229D01*
X8833871Y-12000514D01*
X8805300Y-12000514D01*
X8776728Y-11986229D01*
X8762443Y-11971943D01*
X8748157Y-11943371D01*
X8733871Y-11886229D01*
X8733871Y-11814800D01*
X8748157Y-11757657D01*
X8762443Y-11729086D01*
X8776728Y-11714800D01*
X8805300Y-11700514D01*
X9033871Y-11971943D02*
X9048157Y-11986229D01*
X9033871Y-12000514D01*
X9019586Y-11986229D01*
X9033871Y-11971943D01*
X9033871Y-12000514D01*
X9233871Y-11700514D02*
X9262443Y-11700514D01*
X9291014Y-11714800D01*
X9305300Y-11729086D01*
X9319586Y-11757657D01*
X9333871Y-11814800D01*
X9333871Y-11886229D01*
X9319586Y-11943371D01*
X9305300Y-11971943D01*
X9291014Y-11986229D01*
X9262443Y-12000514D01*
X9233871Y-12000514D01*
X9205300Y-11986229D01*
X9191014Y-11971943D01*
X9176728Y-11943371D01*
X9162443Y-11886229D01*
X9162443Y-11814800D01*
X9176728Y-11757657D01*
X9191014Y-11729086D01*
X9205300Y-11714800D01*
X9233871Y-11700514D01*
X9476728Y-12000514D02*
X9533871Y-12000514D01*
X9562443Y-11986229D01*
X9576728Y-11971943D01*
X9605300Y-11929086D01*
X9619586Y-11871943D01*
X9619586Y-11757657D01*
X9605300Y-11729086D01*
X9591014Y-11714800D01*
X9562443Y-11700514D01*
X9505300Y-11700514D01*
X9476728Y-11714800D01*
X9462443Y-11729086D01*
X9448157Y-11757657D01*
X9448157Y-11829086D01*
X9462443Y-11857657D01*
X9476728Y-11871943D01*
X9505300Y-11886229D01*
X9562443Y-11886229D01*
X9591014Y-11871943D01*
X9605300Y-11857657D01*
X9619586Y-11829086D01*
X9905300Y-12000514D02*
X9733871Y-12000514D01*
X9819586Y-12000514D02*
X9819586Y-11700514D01*
X9791014Y-11743371D01*
X9762443Y-11771943D01*
X9733871Y-11786229D01*
X10019586Y-11700514D02*
X10019586Y-11757657D01*
X10133871Y-11700514D02*
X10133871Y-11757657D01*
X10576728Y-12114800D02*
X10562443Y-12100514D01*
X10533871Y-12057657D01*
X10519586Y-12029086D01*
X10505300Y-11986229D01*
X10491014Y-11914800D01*
X10491014Y-11857657D01*
X10505300Y-11786229D01*
X10519586Y-11743371D01*
X10533871Y-11714800D01*
X10562443Y-11671943D01*
X10576728Y-11657657D01*
X10662443Y-11700514D02*
X10848157Y-11700514D01*
X10748157Y-11814800D01*
X10791014Y-11814800D01*
X10819586Y-11829086D01*
X10833871Y-11843371D01*
X10848157Y-11871943D01*
X10848157Y-11943371D01*
X10833871Y-11971943D01*
X10819586Y-11986229D01*
X10791014Y-12000514D01*
X10705300Y-12000514D01*
X10676728Y-11986229D01*
X10662443Y-11971943D01*
X11205300Y-12000514D02*
X11205300Y-11700514D01*
X11333871Y-12000514D02*
X11333871Y-11843371D01*
X11319586Y-11814800D01*
X11291014Y-11800514D01*
X11248157Y-11800514D01*
X11219586Y-11814800D01*
X11205300Y-11829086D01*
X11519586Y-12000514D02*
X11491014Y-11986229D01*
X11476728Y-11971943D01*
X11462443Y-11943371D01*
X11462443Y-11857657D01*
X11476728Y-11829086D01*
X11491014Y-11814800D01*
X11519586Y-11800514D01*
X11562443Y-11800514D01*
X11591014Y-11814800D01*
X11605300Y-11829086D01*
X11619586Y-11857657D01*
X11619586Y-11943371D01*
X11605300Y-11971943D01*
X11591014Y-11986229D01*
X11562443Y-12000514D01*
X11519586Y-12000514D01*
X11791014Y-12000514D02*
X11762443Y-11986229D01*
X11748157Y-11957657D01*
X11748157Y-11700514D01*
X12019586Y-11986229D02*
X11991014Y-12000514D01*
X11933871Y-12000514D01*
X11905300Y-11986229D01*
X11891014Y-11957657D01*
X11891014Y-11843371D01*
X11905300Y-11814800D01*
X11933871Y-11800514D01*
X11991014Y-11800514D01*
X12019586Y-11814800D01*
X12033871Y-11843371D01*
X12033871Y-11871943D01*
X11891014Y-11900514D01*
X12148157Y-11986229D02*
X12176728Y-12000514D01*
X12233871Y-12000514D01*
X12262443Y-11986229D01*
X12276728Y-11957657D01*
X12276728Y-11943371D01*
X12262443Y-11914800D01*
X12233871Y-11900514D01*
X12191014Y-11900514D01*
X12162443Y-11886229D01*
X12148157Y-11857657D01*
X12148157Y-11843371D01*
X12162443Y-11814800D01*
X12191014Y-11800514D01*
X12233871Y-11800514D01*
X12262443Y-11814800D01*
X12376728Y-12114800D02*
X12391014Y-12100514D01*
X12419586Y-12057657D01*
X12433871Y-12029086D01*
X12448157Y-11986229D01*
X12462443Y-11914800D01*
X12462443Y-11857657D01*
X12448157Y-11786229D01*
X12433871Y-11743371D01*
X12419586Y-11714800D01*
X12391014Y-11671943D01*
X12376728Y-11657657D01*
M02*
