M48
; DRILL file {KiCad (5.1.2)-1} date 2/6/2020 1:28:46 PM
; FORMAT={-:-/ absolute / inch / decimal}
; #@! TF.CreationDate,2020-02-06T13:28:46-05:00
; #@! TF.GenerationSoftware,Kicad,Pcbnew,(5.1.2)-1
; #@! TF.FileFunction,Plated,1,2,PTH
FMAT,2
INCH
T1C0.0118
T2C0.0177
T3C0.0197
T4C0.0315
T5C0.0394
T6C0.0433
T7C0.0472
T8C0.0591
T9C0.0906
%
G90
G05
T1
X2.4Y-2.99
X2.4094Y-1.5844
T2
X2.505Y-1.815
X2.515Y-2.52
X2.955Y-2.435
X2.995Y-2.04
X3.075Y-2.04
X3.155Y-1.86
X3.165Y-2.88
X3.18Y-2.78
X3.235Y-2.04
X3.35Y-2.195
X3.405Y-2.26
X3.43Y-1.82
X3.475Y-2.04
X3.5229Y-1.8829
X3.55Y-1.82
X3.5554Y-2.125
X3.6025Y-1.9775
X3.635Y-2.04
X3.635Y-2.125
X3.775Y-2.065
X3.845Y-2.105
X4.045Y-2.095
X4.1123Y-2.4277
X4.2202Y-2.3452
T4
X3.355Y-1.5
X3.655Y-1.5
X2.625Y-2.325
X2.625Y-2.425
X2.625Y-2.525
X3.355Y-1.63
X3.655Y-1.63
X3.285Y-2.325
X3.285Y-2.425
X3.285Y-2.525
X3.065Y-2.325
X3.065Y-2.425
X3.065Y-2.525
X2.925Y-2.15
X3.225Y-2.15
X2.845Y-2.325
X2.845Y-2.425
X2.845Y-2.525
X4.265Y-1.93
X4.3634Y-1.93
T5
X2.6674Y-2.7824
X2.7674Y-2.7824
X2.8674Y-2.7824
X2.9674Y-2.7824
X3.9194Y-2.7824
X4.0194Y-2.7824
X4.1194Y-2.7824
X4.2194Y-2.7824
X2.75Y-1.95
X2.75Y-2.05
X2.75Y-2.15
X3.875Y-2.525
X3.875Y-2.625
X2.6Y-1.95
X2.6Y-2.05
X2.6Y-2.15
X3.675Y-2.525
X3.675Y-2.625
X4.365Y-1.51
X4.365Y-1.61
T6
X2.8149Y-1.5844
X2.8149Y-1.6828
X3.0826Y-1.5844
X3.0826Y-1.6828
X4.425Y-2.465
X4.425Y-2.565
X4.425Y-2.665
T7
X4.35Y-2.975
X4.45Y-2.975
T8
X2.4034Y-2.1574
X3.4574Y-1.3174
X4.5131Y-2.1574
T9
X2.683Y-1.4663
X2.9487Y-1.4348
X3.2145Y-1.4663
T3
G00X3.871Y-1.295
M15
G01X3.9202Y-1.295
M16
G05
G00X3.871Y-1.5352
M15
G01X3.9202Y-1.5352
M16
G05
G00X3.871Y-1.7517
M15
G01X3.9202Y-1.7517
M16
G05
G00X3.9498Y-1.3895
M15
G01X3.999Y-1.3895
M16
G05
G00X3.9498Y-1.606
M15
G01X3.999Y-1.606
M16
G05
T0
M30
