G04 #@! TF.GenerationSoftware,KiCad,Pcbnew,(5.1.2)-1*
G04 #@! TF.CreationDate,2019-11-25T21:42:07-05:00*
G04 #@! TF.ProjectId,svideomod,73766964-656f-46d6-9f64-2e6b69636164,rev?*
G04 #@! TF.SameCoordinates,Original*
G04 #@! TF.FileFunction,Soldermask,Top*
G04 #@! TF.FilePolarity,Negative*
%FSLAX46Y46*%
G04 Gerber Fmt 4.6, Leading zero omitted, Abs format (unit mm)*
G04 Created by KiCad (PCBNEW (5.1.2)-1) date 2019-11-25 21:42:07*
%MOMM*%
%LPD*%
G04 APERTURE LIST*
%ADD10C,0.100000*%
G04 APERTURE END LIST*
D10*
G36*
X78906823Y-92506313D02*
G01*
X79067242Y-92554976D01*
X79179011Y-92614718D01*
X79215078Y-92633996D01*
X79344659Y-92740341D01*
X79451004Y-92869922D01*
X79451005Y-92869924D01*
X79530024Y-93017758D01*
X79578687Y-93178177D01*
X79595117Y-93345000D01*
X79578687Y-93511823D01*
X79530024Y-93672242D01*
X79459114Y-93804906D01*
X79451004Y-93820078D01*
X79344659Y-93949659D01*
X79215078Y-94056004D01*
X79215076Y-94056005D01*
X79067242Y-94135024D01*
X78906823Y-94183687D01*
X78781804Y-94196000D01*
X78698196Y-94196000D01*
X78573177Y-94183687D01*
X78412758Y-94135024D01*
X78264924Y-94056005D01*
X78264922Y-94056004D01*
X78135341Y-93949659D01*
X78028996Y-93820078D01*
X78020886Y-93804906D01*
X77949976Y-93672242D01*
X77901313Y-93511823D01*
X77884883Y-93345000D01*
X77901313Y-93178177D01*
X77949976Y-93017758D01*
X78028995Y-92869924D01*
X78028996Y-92869922D01*
X78135341Y-92740341D01*
X78264922Y-92633996D01*
X78300989Y-92614718D01*
X78412758Y-92554976D01*
X78573177Y-92506313D01*
X78698196Y-92494000D01*
X78781804Y-92494000D01*
X78906823Y-92506313D01*
X78906823Y-92506313D01*
G37*
G36*
X76366823Y-92506313D02*
G01*
X76527242Y-92554976D01*
X76639011Y-92614718D01*
X76675078Y-92633996D01*
X76804659Y-92740341D01*
X76911004Y-92869922D01*
X76911005Y-92869924D01*
X76990024Y-93017758D01*
X77038687Y-93178177D01*
X77055117Y-93345000D01*
X77038687Y-93511823D01*
X76990024Y-93672242D01*
X76919114Y-93804906D01*
X76911004Y-93820078D01*
X76804659Y-93949659D01*
X76675078Y-94056004D01*
X76675076Y-94056005D01*
X76527242Y-94135024D01*
X76366823Y-94183687D01*
X76241804Y-94196000D01*
X76158196Y-94196000D01*
X76033177Y-94183687D01*
X75872758Y-94135024D01*
X75724924Y-94056005D01*
X75724922Y-94056004D01*
X75595341Y-93949659D01*
X75488996Y-93820078D01*
X75480886Y-93804906D01*
X75409976Y-93672242D01*
X75361313Y-93511823D01*
X75344883Y-93345000D01*
X75361313Y-93178177D01*
X75409976Y-93017758D01*
X75488995Y-92869924D01*
X75488996Y-92869922D01*
X75595341Y-92740341D01*
X75724922Y-92633996D01*
X75760989Y-92614718D01*
X75872758Y-92554976D01*
X76033177Y-92506313D01*
X76158196Y-92494000D01*
X76241804Y-92494000D01*
X76366823Y-92506313D01*
X76366823Y-92506313D01*
G37*
G36*
X63666823Y-92506313D02*
G01*
X63827242Y-92554976D01*
X63939011Y-92614718D01*
X63975078Y-92633996D01*
X64104659Y-92740341D01*
X64211004Y-92869922D01*
X64211005Y-92869924D01*
X64290024Y-93017758D01*
X64338687Y-93178177D01*
X64355117Y-93345000D01*
X64338687Y-93511823D01*
X64290024Y-93672242D01*
X64219114Y-93804906D01*
X64211004Y-93820078D01*
X64104659Y-93949659D01*
X63975078Y-94056004D01*
X63975076Y-94056005D01*
X63827242Y-94135024D01*
X63666823Y-94183687D01*
X63541804Y-94196000D01*
X63458196Y-94196000D01*
X63333177Y-94183687D01*
X63172758Y-94135024D01*
X63024924Y-94056005D01*
X63024922Y-94056004D01*
X62895341Y-93949659D01*
X62788996Y-93820078D01*
X62780886Y-93804906D01*
X62709976Y-93672242D01*
X62661313Y-93511823D01*
X62644883Y-93345000D01*
X62661313Y-93178177D01*
X62709976Y-93017758D01*
X62788995Y-92869924D01*
X62788996Y-92869922D01*
X62895341Y-92740341D01*
X63024922Y-92633996D01*
X63060989Y-92614718D01*
X63172758Y-92554976D01*
X63333177Y-92506313D01*
X63458196Y-92494000D01*
X63541804Y-92494000D01*
X63666823Y-92506313D01*
X63666823Y-92506313D01*
G37*
G36*
X61126823Y-92506313D02*
G01*
X61287242Y-92554976D01*
X61399011Y-92614718D01*
X61435078Y-92633996D01*
X61564659Y-92740341D01*
X61671004Y-92869922D01*
X61671005Y-92869924D01*
X61750024Y-93017758D01*
X61798687Y-93178177D01*
X61815117Y-93345000D01*
X61798687Y-93511823D01*
X61750024Y-93672242D01*
X61679114Y-93804906D01*
X61671004Y-93820078D01*
X61564659Y-93949659D01*
X61435078Y-94056004D01*
X61435076Y-94056005D01*
X61287242Y-94135024D01*
X61126823Y-94183687D01*
X61001804Y-94196000D01*
X60918196Y-94196000D01*
X60793177Y-94183687D01*
X60632758Y-94135024D01*
X60484924Y-94056005D01*
X60484922Y-94056004D01*
X60355341Y-93949659D01*
X60248996Y-93820078D01*
X60240886Y-93804906D01*
X60169976Y-93672242D01*
X60121313Y-93511823D01*
X60104883Y-93345000D01*
X60121313Y-93178177D01*
X60169976Y-93017758D01*
X60248995Y-92869924D01*
X60248996Y-92869922D01*
X60355341Y-92740341D01*
X60484922Y-92633996D01*
X60520989Y-92614718D01*
X60632758Y-92554976D01*
X60793177Y-92506313D01*
X60918196Y-92494000D01*
X61001804Y-92494000D01*
X61126823Y-92506313D01*
X61126823Y-92506313D01*
G37*
G36*
X81988674Y-92598465D02*
G01*
X82026367Y-92609899D01*
X82061103Y-92628466D01*
X82091548Y-92653452D01*
X82116534Y-92683897D01*
X82135101Y-92718633D01*
X82146535Y-92756326D01*
X82151000Y-92801661D01*
X82151000Y-93888339D01*
X82146535Y-93933674D01*
X82135101Y-93971367D01*
X82116534Y-94006103D01*
X82091548Y-94036548D01*
X82061103Y-94061534D01*
X82026367Y-94080101D01*
X81988674Y-94091535D01*
X81943339Y-94096000D01*
X81106661Y-94096000D01*
X81061326Y-94091535D01*
X81023633Y-94080101D01*
X80988897Y-94061534D01*
X80958452Y-94036548D01*
X80933466Y-94006103D01*
X80914899Y-93971367D01*
X80903465Y-93933674D01*
X80899000Y-93888339D01*
X80899000Y-92801661D01*
X80903465Y-92756326D01*
X80914899Y-92718633D01*
X80933466Y-92683897D01*
X80958452Y-92653452D01*
X80988897Y-92628466D01*
X81023633Y-92609899D01*
X81061326Y-92598465D01*
X81106661Y-92594000D01*
X81943339Y-92594000D01*
X81988674Y-92598465D01*
X81988674Y-92598465D01*
G37*
G36*
X84038674Y-92598465D02*
G01*
X84076367Y-92609899D01*
X84111103Y-92628466D01*
X84141548Y-92653452D01*
X84166534Y-92683897D01*
X84185101Y-92718633D01*
X84196535Y-92756326D01*
X84201000Y-92801661D01*
X84201000Y-93888339D01*
X84196535Y-93933674D01*
X84185101Y-93971367D01*
X84166534Y-94006103D01*
X84141548Y-94036548D01*
X84111103Y-94061534D01*
X84076367Y-94080101D01*
X84038674Y-94091535D01*
X83993339Y-94096000D01*
X83156661Y-94096000D01*
X83111326Y-94091535D01*
X83073633Y-94080101D01*
X83038897Y-94061534D01*
X83008452Y-94036548D01*
X82983466Y-94006103D01*
X82964899Y-93971367D01*
X82953465Y-93933674D01*
X82949000Y-93888339D01*
X82949000Y-92801661D01*
X82953465Y-92756326D01*
X82964899Y-92718633D01*
X82983466Y-92683897D01*
X83008452Y-92653452D01*
X83038897Y-92628466D01*
X83073633Y-92609899D01*
X83111326Y-92598465D01*
X83156661Y-92594000D01*
X83993339Y-92594000D01*
X84038674Y-92598465D01*
X84038674Y-92598465D01*
G37*
G36*
X88973674Y-92598465D02*
G01*
X89011367Y-92609899D01*
X89046103Y-92628466D01*
X89076548Y-92653452D01*
X89101534Y-92683897D01*
X89120101Y-92718633D01*
X89131535Y-92756326D01*
X89136000Y-92801661D01*
X89136000Y-93888339D01*
X89131535Y-93933674D01*
X89120101Y-93971367D01*
X89101534Y-94006103D01*
X89076548Y-94036548D01*
X89046103Y-94061534D01*
X89011367Y-94080101D01*
X88973674Y-94091535D01*
X88928339Y-94096000D01*
X88091661Y-94096000D01*
X88046326Y-94091535D01*
X88008633Y-94080101D01*
X87973897Y-94061534D01*
X87943452Y-94036548D01*
X87918466Y-94006103D01*
X87899899Y-93971367D01*
X87888465Y-93933674D01*
X87884000Y-93888339D01*
X87884000Y-92801661D01*
X87888465Y-92756326D01*
X87899899Y-92718633D01*
X87918466Y-92683897D01*
X87943452Y-92653452D01*
X87973897Y-92628466D01*
X88008633Y-92609899D01*
X88046326Y-92598465D01*
X88091661Y-92594000D01*
X88928339Y-92594000D01*
X88973674Y-92598465D01*
X88973674Y-92598465D01*
G37*
G36*
X91023674Y-92598465D02*
G01*
X91061367Y-92609899D01*
X91096103Y-92628466D01*
X91126548Y-92653452D01*
X91151534Y-92683897D01*
X91170101Y-92718633D01*
X91181535Y-92756326D01*
X91186000Y-92801661D01*
X91186000Y-93888339D01*
X91181535Y-93933674D01*
X91170101Y-93971367D01*
X91151534Y-94006103D01*
X91126548Y-94036548D01*
X91096103Y-94061534D01*
X91061367Y-94080101D01*
X91023674Y-94091535D01*
X90978339Y-94096000D01*
X90141661Y-94096000D01*
X90096326Y-94091535D01*
X90058633Y-94080101D01*
X90023897Y-94061534D01*
X89993452Y-94036548D01*
X89968466Y-94006103D01*
X89949899Y-93971367D01*
X89938465Y-93933674D01*
X89934000Y-93888339D01*
X89934000Y-92801661D01*
X89938465Y-92756326D01*
X89949899Y-92718633D01*
X89968466Y-92683897D01*
X89993452Y-92653452D01*
X90023897Y-92628466D01*
X90058633Y-92609899D01*
X90096326Y-92598465D01*
X90141661Y-92594000D01*
X90978339Y-92594000D01*
X91023674Y-92598465D01*
X91023674Y-92598465D01*
G37*
G36*
X78906823Y-89966313D02*
G01*
X79067242Y-90014976D01*
X79179011Y-90074718D01*
X79215078Y-90093996D01*
X79344659Y-90200341D01*
X79451004Y-90329922D01*
X79451005Y-90329924D01*
X79530024Y-90477758D01*
X79578687Y-90638177D01*
X79595117Y-90805000D01*
X79578687Y-90971823D01*
X79530024Y-91132242D01*
X79522221Y-91146840D01*
X79451004Y-91280078D01*
X79344659Y-91409659D01*
X79215078Y-91516004D01*
X79215076Y-91516005D01*
X79067242Y-91595024D01*
X78906823Y-91643687D01*
X78781804Y-91656000D01*
X78698196Y-91656000D01*
X78573177Y-91643687D01*
X78412758Y-91595024D01*
X78264924Y-91516005D01*
X78264922Y-91516004D01*
X78135341Y-91409659D01*
X78028996Y-91280078D01*
X77957779Y-91146840D01*
X77949976Y-91132242D01*
X77901313Y-90971823D01*
X77884883Y-90805000D01*
X77901313Y-90638177D01*
X77949976Y-90477758D01*
X78028995Y-90329924D01*
X78028996Y-90329922D01*
X78135341Y-90200341D01*
X78264922Y-90093996D01*
X78300989Y-90074718D01*
X78412758Y-90014976D01*
X78573177Y-89966313D01*
X78698196Y-89954000D01*
X78781804Y-89954000D01*
X78906823Y-89966313D01*
X78906823Y-89966313D01*
G37*
G36*
X61126823Y-89966313D02*
G01*
X61287242Y-90014976D01*
X61399011Y-90074718D01*
X61435078Y-90093996D01*
X61564659Y-90200341D01*
X61671004Y-90329922D01*
X61671005Y-90329924D01*
X61750024Y-90477758D01*
X61798687Y-90638177D01*
X61815117Y-90805000D01*
X61798687Y-90971823D01*
X61750024Y-91132242D01*
X61742221Y-91146840D01*
X61671004Y-91280078D01*
X61564659Y-91409659D01*
X61435078Y-91516004D01*
X61435076Y-91516005D01*
X61287242Y-91595024D01*
X61126823Y-91643687D01*
X61001804Y-91656000D01*
X60918196Y-91656000D01*
X60793177Y-91643687D01*
X60632758Y-91595024D01*
X60484924Y-91516005D01*
X60484922Y-91516004D01*
X60355341Y-91409659D01*
X60248996Y-91280078D01*
X60177779Y-91146840D01*
X60169976Y-91132242D01*
X60121313Y-90971823D01*
X60104883Y-90805000D01*
X60121313Y-90638177D01*
X60169976Y-90477758D01*
X60248995Y-90329924D01*
X60248996Y-90329922D01*
X60355341Y-90200341D01*
X60484922Y-90093996D01*
X60520989Y-90074718D01*
X60632758Y-90014976D01*
X60793177Y-89966313D01*
X60918196Y-89954000D01*
X61001804Y-89954000D01*
X61126823Y-89966313D01*
X61126823Y-89966313D01*
G37*
G36*
X63666823Y-89966313D02*
G01*
X63827242Y-90014976D01*
X63939011Y-90074718D01*
X63975078Y-90093996D01*
X64104659Y-90200341D01*
X64211004Y-90329922D01*
X64211005Y-90329924D01*
X64290024Y-90477758D01*
X64338687Y-90638177D01*
X64355117Y-90805000D01*
X64338687Y-90971823D01*
X64290024Y-91132242D01*
X64282221Y-91146840D01*
X64211004Y-91280078D01*
X64104659Y-91409659D01*
X63975078Y-91516004D01*
X63975076Y-91516005D01*
X63827242Y-91595024D01*
X63666823Y-91643687D01*
X63541804Y-91656000D01*
X63458196Y-91656000D01*
X63333177Y-91643687D01*
X63172758Y-91595024D01*
X63024924Y-91516005D01*
X63024922Y-91516004D01*
X62895341Y-91409659D01*
X62788996Y-91280078D01*
X62717779Y-91146840D01*
X62709976Y-91132242D01*
X62661313Y-90971823D01*
X62644883Y-90805000D01*
X62661313Y-90638177D01*
X62709976Y-90477758D01*
X62788995Y-90329924D01*
X62788996Y-90329922D01*
X62895341Y-90200341D01*
X63024922Y-90093996D01*
X63060989Y-90074718D01*
X63172758Y-90014976D01*
X63333177Y-89966313D01*
X63458196Y-89954000D01*
X63541804Y-89954000D01*
X63666823Y-89966313D01*
X63666823Y-89966313D01*
G37*
G36*
X76366823Y-89966313D02*
G01*
X76527242Y-90014976D01*
X76639011Y-90074718D01*
X76675078Y-90093996D01*
X76804659Y-90200341D01*
X76911004Y-90329922D01*
X76911005Y-90329924D01*
X76990024Y-90477758D01*
X77038687Y-90638177D01*
X77055117Y-90805000D01*
X77038687Y-90971823D01*
X76990024Y-91132242D01*
X76982221Y-91146840D01*
X76911004Y-91280078D01*
X76804659Y-91409659D01*
X76675078Y-91516004D01*
X76675076Y-91516005D01*
X76527242Y-91595024D01*
X76366823Y-91643687D01*
X76241804Y-91656000D01*
X76158196Y-91656000D01*
X76033177Y-91643687D01*
X75872758Y-91595024D01*
X75724924Y-91516005D01*
X75724922Y-91516004D01*
X75595341Y-91409659D01*
X75488996Y-91280078D01*
X75417779Y-91146840D01*
X75409976Y-91132242D01*
X75361313Y-90971823D01*
X75344883Y-90805000D01*
X75361313Y-90638177D01*
X75409976Y-90477758D01*
X75488995Y-90329924D01*
X75488996Y-90329922D01*
X75595341Y-90200341D01*
X75724922Y-90093996D01*
X75760989Y-90074718D01*
X75872758Y-90014976D01*
X76033177Y-89966313D01*
X76158196Y-89954000D01*
X76241804Y-89954000D01*
X76366823Y-89966313D01*
X76366823Y-89966313D01*
G37*
G36*
X81988674Y-90058465D02*
G01*
X82026367Y-90069899D01*
X82061103Y-90088466D01*
X82091548Y-90113452D01*
X82116534Y-90143897D01*
X82135101Y-90178633D01*
X82146535Y-90216326D01*
X82151000Y-90261661D01*
X82151000Y-91348339D01*
X82146535Y-91393674D01*
X82135101Y-91431367D01*
X82116534Y-91466103D01*
X82091548Y-91496548D01*
X82061103Y-91521534D01*
X82026367Y-91540101D01*
X81988674Y-91551535D01*
X81943339Y-91556000D01*
X81106661Y-91556000D01*
X81061326Y-91551535D01*
X81023633Y-91540101D01*
X80988897Y-91521534D01*
X80958452Y-91496548D01*
X80933466Y-91466103D01*
X80914899Y-91431367D01*
X80903465Y-91393674D01*
X80899000Y-91348339D01*
X80899000Y-90261661D01*
X80903465Y-90216326D01*
X80914899Y-90178633D01*
X80933466Y-90143897D01*
X80958452Y-90113452D01*
X80988897Y-90088466D01*
X81023633Y-90069899D01*
X81061326Y-90058465D01*
X81106661Y-90054000D01*
X81943339Y-90054000D01*
X81988674Y-90058465D01*
X81988674Y-90058465D01*
G37*
G36*
X84038674Y-90058465D02*
G01*
X84076367Y-90069899D01*
X84111103Y-90088466D01*
X84141548Y-90113452D01*
X84166534Y-90143897D01*
X84185101Y-90178633D01*
X84196535Y-90216326D01*
X84201000Y-90261661D01*
X84201000Y-91348339D01*
X84196535Y-91393674D01*
X84185101Y-91431367D01*
X84166534Y-91466103D01*
X84141548Y-91496548D01*
X84111103Y-91521534D01*
X84076367Y-91540101D01*
X84038674Y-91551535D01*
X83993339Y-91556000D01*
X83156661Y-91556000D01*
X83111326Y-91551535D01*
X83073633Y-91540101D01*
X83038897Y-91521534D01*
X83008452Y-91496548D01*
X82983466Y-91466103D01*
X82964899Y-91431367D01*
X82953465Y-91393674D01*
X82949000Y-91348339D01*
X82949000Y-90261661D01*
X82953465Y-90216326D01*
X82964899Y-90178633D01*
X82983466Y-90143897D01*
X83008452Y-90113452D01*
X83038897Y-90088466D01*
X83073633Y-90069899D01*
X83111326Y-90058465D01*
X83156661Y-90054000D01*
X83993339Y-90054000D01*
X84038674Y-90058465D01*
X84038674Y-90058465D01*
G37*
G36*
X88973674Y-90058465D02*
G01*
X89011367Y-90069899D01*
X89046103Y-90088466D01*
X89076548Y-90113452D01*
X89101534Y-90143897D01*
X89120101Y-90178633D01*
X89131535Y-90216326D01*
X89136000Y-90261661D01*
X89136000Y-91348339D01*
X89131535Y-91393674D01*
X89120101Y-91431367D01*
X89101534Y-91466103D01*
X89076548Y-91496548D01*
X89046103Y-91521534D01*
X89011367Y-91540101D01*
X88973674Y-91551535D01*
X88928339Y-91556000D01*
X88091661Y-91556000D01*
X88046326Y-91551535D01*
X88008633Y-91540101D01*
X87973897Y-91521534D01*
X87943452Y-91496548D01*
X87918466Y-91466103D01*
X87899899Y-91431367D01*
X87888465Y-91393674D01*
X87884000Y-91348339D01*
X87884000Y-90261661D01*
X87888465Y-90216326D01*
X87899899Y-90178633D01*
X87918466Y-90143897D01*
X87943452Y-90113452D01*
X87973897Y-90088466D01*
X88008633Y-90069899D01*
X88046326Y-90058465D01*
X88091661Y-90054000D01*
X88928339Y-90054000D01*
X88973674Y-90058465D01*
X88973674Y-90058465D01*
G37*
G36*
X91023674Y-90058465D02*
G01*
X91061367Y-90069899D01*
X91096103Y-90088466D01*
X91126548Y-90113452D01*
X91151534Y-90143897D01*
X91170101Y-90178633D01*
X91181535Y-90216326D01*
X91186000Y-90261661D01*
X91186000Y-91348339D01*
X91181535Y-91393674D01*
X91170101Y-91431367D01*
X91151534Y-91466103D01*
X91126548Y-91496548D01*
X91096103Y-91521534D01*
X91061367Y-91540101D01*
X91023674Y-91551535D01*
X90978339Y-91556000D01*
X90141661Y-91556000D01*
X90096326Y-91551535D01*
X90058633Y-91540101D01*
X90023897Y-91521534D01*
X89993452Y-91496548D01*
X89968466Y-91466103D01*
X89949899Y-91431367D01*
X89938465Y-91393674D01*
X89934000Y-91348339D01*
X89934000Y-90261661D01*
X89938465Y-90216326D01*
X89949899Y-90178633D01*
X89968466Y-90143897D01*
X89993452Y-90113452D01*
X90023897Y-90088466D01*
X90058633Y-90069899D01*
X90096326Y-90058465D01*
X90141661Y-90054000D01*
X90978339Y-90054000D01*
X91023674Y-90058465D01*
X91023674Y-90058465D01*
G37*
G36*
X68309928Y-90456764D02*
G01*
X68331009Y-90463160D01*
X68350445Y-90473548D01*
X68367476Y-90487524D01*
X68381452Y-90504555D01*
X68391840Y-90523991D01*
X68398236Y-90545072D01*
X68401000Y-90573140D01*
X68401000Y-91036860D01*
X68398236Y-91064928D01*
X68391840Y-91086009D01*
X68381452Y-91105445D01*
X68367476Y-91122476D01*
X68350445Y-91136452D01*
X68331009Y-91146840D01*
X68309928Y-91153236D01*
X68281860Y-91156000D01*
X66468140Y-91156000D01*
X66440072Y-91153236D01*
X66418991Y-91146840D01*
X66399555Y-91136452D01*
X66382524Y-91122476D01*
X66368548Y-91105445D01*
X66358160Y-91086009D01*
X66351764Y-91064928D01*
X66349000Y-91036860D01*
X66349000Y-90573140D01*
X66351764Y-90545072D01*
X66358160Y-90523991D01*
X66368548Y-90504555D01*
X66382524Y-90487524D01*
X66399555Y-90473548D01*
X66418991Y-90463160D01*
X66440072Y-90456764D01*
X66468140Y-90454000D01*
X68281860Y-90454000D01*
X68309928Y-90456764D01*
X68309928Y-90456764D01*
G37*
G36*
X73259928Y-90456764D02*
G01*
X73281009Y-90463160D01*
X73300445Y-90473548D01*
X73317476Y-90487524D01*
X73331452Y-90504555D01*
X73341840Y-90523991D01*
X73348236Y-90545072D01*
X73351000Y-90573140D01*
X73351000Y-91036860D01*
X73348236Y-91064928D01*
X73341840Y-91086009D01*
X73331452Y-91105445D01*
X73317476Y-91122476D01*
X73300445Y-91136452D01*
X73281009Y-91146840D01*
X73259928Y-91153236D01*
X73231860Y-91156000D01*
X71418140Y-91156000D01*
X71390072Y-91153236D01*
X71368991Y-91146840D01*
X71349555Y-91136452D01*
X71332524Y-91122476D01*
X71318548Y-91105445D01*
X71308160Y-91086009D01*
X71301764Y-91064928D01*
X71299000Y-91036860D01*
X71299000Y-90573140D01*
X71301764Y-90545072D01*
X71308160Y-90523991D01*
X71318548Y-90504555D01*
X71332524Y-90487524D01*
X71349555Y-90473548D01*
X71368991Y-90463160D01*
X71390072Y-90456764D01*
X71418140Y-90454000D01*
X73231860Y-90454000D01*
X73259928Y-90456764D01*
X73259928Y-90456764D01*
G37*
G36*
X73259928Y-89186764D02*
G01*
X73281009Y-89193160D01*
X73300445Y-89203548D01*
X73317476Y-89217524D01*
X73331452Y-89234555D01*
X73341840Y-89253991D01*
X73348236Y-89275072D01*
X73351000Y-89303140D01*
X73351000Y-89766860D01*
X73348236Y-89794928D01*
X73341840Y-89816009D01*
X73331452Y-89835445D01*
X73317476Y-89852476D01*
X73300445Y-89866452D01*
X73281009Y-89876840D01*
X73259928Y-89883236D01*
X73231860Y-89886000D01*
X71418140Y-89886000D01*
X71390072Y-89883236D01*
X71368991Y-89876840D01*
X71349555Y-89866452D01*
X71332524Y-89852476D01*
X71318548Y-89835445D01*
X71308160Y-89816009D01*
X71301764Y-89794928D01*
X71299000Y-89766860D01*
X71299000Y-89303140D01*
X71301764Y-89275072D01*
X71308160Y-89253991D01*
X71318548Y-89234555D01*
X71332524Y-89217524D01*
X71349555Y-89203548D01*
X71368991Y-89193160D01*
X71390072Y-89186764D01*
X71418140Y-89184000D01*
X73231860Y-89184000D01*
X73259928Y-89186764D01*
X73259928Y-89186764D01*
G37*
G36*
X68309928Y-89186764D02*
G01*
X68331009Y-89193160D01*
X68350445Y-89203548D01*
X68367476Y-89217524D01*
X68381452Y-89234555D01*
X68391840Y-89253991D01*
X68398236Y-89275072D01*
X68401000Y-89303140D01*
X68401000Y-89766860D01*
X68398236Y-89794928D01*
X68391840Y-89816009D01*
X68381452Y-89835445D01*
X68367476Y-89852476D01*
X68350445Y-89866452D01*
X68331009Y-89876840D01*
X68309928Y-89883236D01*
X68281860Y-89886000D01*
X66468140Y-89886000D01*
X66440072Y-89883236D01*
X66418991Y-89876840D01*
X66399555Y-89866452D01*
X66382524Y-89852476D01*
X66368548Y-89835445D01*
X66358160Y-89816009D01*
X66351764Y-89794928D01*
X66349000Y-89766860D01*
X66349000Y-89303140D01*
X66351764Y-89275072D01*
X66358160Y-89253991D01*
X66368548Y-89234555D01*
X66382524Y-89217524D01*
X66399555Y-89203548D01*
X66418991Y-89193160D01*
X66440072Y-89186764D01*
X66468140Y-89184000D01*
X68281860Y-89184000D01*
X68309928Y-89186764D01*
X68309928Y-89186764D01*
G37*
G36*
X63666823Y-87426313D02*
G01*
X63797380Y-87465917D01*
X63823455Y-87473827D01*
X63827242Y-87474976D01*
X63945786Y-87538339D01*
X63975078Y-87553996D01*
X64104659Y-87660341D01*
X64211004Y-87789922D01*
X64211005Y-87789924D01*
X64290024Y-87937758D01*
X64338687Y-88098177D01*
X64355117Y-88265000D01*
X64338687Y-88431823D01*
X64290024Y-88592242D01*
X64282221Y-88606840D01*
X64211004Y-88740078D01*
X64104659Y-88869659D01*
X63975078Y-88976004D01*
X63975076Y-88976005D01*
X63827242Y-89055024D01*
X63666823Y-89103687D01*
X63541804Y-89116000D01*
X63458196Y-89116000D01*
X63333177Y-89103687D01*
X63172758Y-89055024D01*
X63024924Y-88976005D01*
X63024922Y-88976004D01*
X62895341Y-88869659D01*
X62788996Y-88740078D01*
X62717779Y-88606840D01*
X62709976Y-88592242D01*
X62661313Y-88431823D01*
X62644883Y-88265000D01*
X62661313Y-88098177D01*
X62709976Y-87937758D01*
X62788995Y-87789924D01*
X62788996Y-87789922D01*
X62895341Y-87660341D01*
X63024922Y-87553996D01*
X63054214Y-87538339D01*
X63172758Y-87474976D01*
X63176546Y-87473827D01*
X63202620Y-87465917D01*
X63333177Y-87426313D01*
X63458196Y-87414000D01*
X63541804Y-87414000D01*
X63666823Y-87426313D01*
X63666823Y-87426313D01*
G37*
G36*
X76366823Y-87426313D02*
G01*
X76497380Y-87465917D01*
X76523455Y-87473827D01*
X76527242Y-87474976D01*
X76645786Y-87538339D01*
X76675078Y-87553996D01*
X76804659Y-87660341D01*
X76911004Y-87789922D01*
X76911005Y-87789924D01*
X76990024Y-87937758D01*
X77038687Y-88098177D01*
X77055117Y-88265000D01*
X77038687Y-88431823D01*
X76990024Y-88592242D01*
X76982221Y-88606840D01*
X76911004Y-88740078D01*
X76804659Y-88869659D01*
X76675078Y-88976004D01*
X76675076Y-88976005D01*
X76527242Y-89055024D01*
X76366823Y-89103687D01*
X76241804Y-89116000D01*
X76158196Y-89116000D01*
X76033177Y-89103687D01*
X75872758Y-89055024D01*
X75724924Y-88976005D01*
X75724922Y-88976004D01*
X75595341Y-88869659D01*
X75488996Y-88740078D01*
X75417779Y-88606840D01*
X75409976Y-88592242D01*
X75361313Y-88431823D01*
X75344883Y-88265000D01*
X75361313Y-88098177D01*
X75409976Y-87937758D01*
X75488995Y-87789924D01*
X75488996Y-87789922D01*
X75595341Y-87660341D01*
X75724922Y-87553996D01*
X75754214Y-87538339D01*
X75872758Y-87474976D01*
X75876546Y-87473827D01*
X75902620Y-87465917D01*
X76033177Y-87426313D01*
X76158196Y-87414000D01*
X76241804Y-87414000D01*
X76366823Y-87426313D01*
X76366823Y-87426313D01*
G37*
G36*
X61126823Y-87426313D02*
G01*
X61257380Y-87465917D01*
X61283455Y-87473827D01*
X61287242Y-87474976D01*
X61405786Y-87538339D01*
X61435078Y-87553996D01*
X61564659Y-87660341D01*
X61671004Y-87789922D01*
X61671005Y-87789924D01*
X61750024Y-87937758D01*
X61798687Y-88098177D01*
X61815117Y-88265000D01*
X61798687Y-88431823D01*
X61750024Y-88592242D01*
X61742221Y-88606840D01*
X61671004Y-88740078D01*
X61564659Y-88869659D01*
X61435078Y-88976004D01*
X61435076Y-88976005D01*
X61287242Y-89055024D01*
X61126823Y-89103687D01*
X61001804Y-89116000D01*
X60918196Y-89116000D01*
X60793177Y-89103687D01*
X60632758Y-89055024D01*
X60484924Y-88976005D01*
X60484922Y-88976004D01*
X60355341Y-88869659D01*
X60248996Y-88740078D01*
X60177779Y-88606840D01*
X60169976Y-88592242D01*
X60121313Y-88431823D01*
X60104883Y-88265000D01*
X60121313Y-88098177D01*
X60169976Y-87937758D01*
X60248995Y-87789924D01*
X60248996Y-87789922D01*
X60355341Y-87660341D01*
X60484922Y-87553996D01*
X60514214Y-87538339D01*
X60632758Y-87474976D01*
X60636546Y-87473827D01*
X60662620Y-87465917D01*
X60793177Y-87426313D01*
X60918196Y-87414000D01*
X61001804Y-87414000D01*
X61126823Y-87426313D01*
X61126823Y-87426313D01*
G37*
G36*
X78906823Y-87426313D02*
G01*
X79037380Y-87465917D01*
X79063455Y-87473827D01*
X79067242Y-87474976D01*
X79185786Y-87538339D01*
X79215078Y-87553996D01*
X79344659Y-87660341D01*
X79451004Y-87789922D01*
X79451005Y-87789924D01*
X79530024Y-87937758D01*
X79578687Y-88098177D01*
X79595117Y-88265000D01*
X79578687Y-88431823D01*
X79530024Y-88592242D01*
X79522221Y-88606840D01*
X79451004Y-88740078D01*
X79344659Y-88869659D01*
X79215078Y-88976004D01*
X79215076Y-88976005D01*
X79067242Y-89055024D01*
X78906823Y-89103687D01*
X78781804Y-89116000D01*
X78698196Y-89116000D01*
X78573177Y-89103687D01*
X78412758Y-89055024D01*
X78264924Y-88976005D01*
X78264922Y-88976004D01*
X78135341Y-88869659D01*
X78028996Y-88740078D01*
X77957779Y-88606840D01*
X77949976Y-88592242D01*
X77901313Y-88431823D01*
X77884883Y-88265000D01*
X77901313Y-88098177D01*
X77949976Y-87937758D01*
X78028995Y-87789924D01*
X78028996Y-87789922D01*
X78135341Y-87660341D01*
X78264922Y-87553996D01*
X78294214Y-87538339D01*
X78412758Y-87474976D01*
X78416546Y-87473827D01*
X78442620Y-87465917D01*
X78573177Y-87426313D01*
X78698196Y-87414000D01*
X78781804Y-87414000D01*
X78906823Y-87426313D01*
X78906823Y-87426313D01*
G37*
G36*
X68309928Y-87916764D02*
G01*
X68331009Y-87923160D01*
X68350445Y-87933548D01*
X68367476Y-87947524D01*
X68381452Y-87964555D01*
X68391840Y-87983991D01*
X68398236Y-88005072D01*
X68401000Y-88033140D01*
X68401000Y-88496860D01*
X68398236Y-88524928D01*
X68391840Y-88546009D01*
X68381452Y-88565445D01*
X68367476Y-88582476D01*
X68350445Y-88596452D01*
X68331009Y-88606840D01*
X68309928Y-88613236D01*
X68281860Y-88616000D01*
X66468140Y-88616000D01*
X66440072Y-88613236D01*
X66418991Y-88606840D01*
X66399555Y-88596452D01*
X66382524Y-88582476D01*
X66368548Y-88565445D01*
X66358160Y-88546009D01*
X66351764Y-88524928D01*
X66349000Y-88496860D01*
X66349000Y-88033140D01*
X66351764Y-88005072D01*
X66358160Y-87983991D01*
X66368548Y-87964555D01*
X66382524Y-87947524D01*
X66399555Y-87933548D01*
X66418991Y-87923160D01*
X66440072Y-87916764D01*
X66468140Y-87914000D01*
X68281860Y-87914000D01*
X68309928Y-87916764D01*
X68309928Y-87916764D01*
G37*
G36*
X73259928Y-87916764D02*
G01*
X73281009Y-87923160D01*
X73300445Y-87933548D01*
X73317476Y-87947524D01*
X73331452Y-87964555D01*
X73341840Y-87983991D01*
X73348236Y-88005072D01*
X73351000Y-88033140D01*
X73351000Y-88496860D01*
X73348236Y-88524928D01*
X73341840Y-88546009D01*
X73331452Y-88565445D01*
X73317476Y-88582476D01*
X73300445Y-88596452D01*
X73281009Y-88606840D01*
X73259928Y-88613236D01*
X73231860Y-88616000D01*
X71418140Y-88616000D01*
X71390072Y-88613236D01*
X71368991Y-88606840D01*
X71349555Y-88596452D01*
X71332524Y-88582476D01*
X71318548Y-88565445D01*
X71308160Y-88546009D01*
X71301764Y-88524928D01*
X71299000Y-88496860D01*
X71299000Y-88033140D01*
X71301764Y-88005072D01*
X71308160Y-87983991D01*
X71318548Y-87964555D01*
X71332524Y-87947524D01*
X71349555Y-87933548D01*
X71368991Y-87923160D01*
X71390072Y-87916764D01*
X71418140Y-87914000D01*
X73231860Y-87914000D01*
X73259928Y-87916764D01*
X73259928Y-87916764D01*
G37*
G36*
X87068674Y-86248465D02*
G01*
X87106367Y-86259899D01*
X87141103Y-86278466D01*
X87171548Y-86303452D01*
X87196534Y-86333897D01*
X87215101Y-86368633D01*
X87226535Y-86406326D01*
X87231000Y-86451661D01*
X87231000Y-87538339D01*
X87226535Y-87583674D01*
X87215101Y-87621367D01*
X87196534Y-87656103D01*
X87171548Y-87686548D01*
X87141103Y-87711534D01*
X87106367Y-87730101D01*
X87068674Y-87741535D01*
X87023339Y-87746000D01*
X86186661Y-87746000D01*
X86141326Y-87741535D01*
X86103633Y-87730101D01*
X86068897Y-87711534D01*
X86038452Y-87686548D01*
X86013466Y-87656103D01*
X85994899Y-87621367D01*
X85983465Y-87583674D01*
X85979000Y-87538339D01*
X85979000Y-86451661D01*
X85983465Y-86406326D01*
X85994899Y-86368633D01*
X86013466Y-86333897D01*
X86038452Y-86303452D01*
X86068897Y-86278466D01*
X86103633Y-86259899D01*
X86141326Y-86248465D01*
X86186661Y-86244000D01*
X87023339Y-86244000D01*
X87068674Y-86248465D01*
X87068674Y-86248465D01*
G37*
G36*
X89118674Y-86248465D02*
G01*
X89156367Y-86259899D01*
X89191103Y-86278466D01*
X89221548Y-86303452D01*
X89246534Y-86333897D01*
X89265101Y-86368633D01*
X89276535Y-86406326D01*
X89281000Y-86451661D01*
X89281000Y-87538339D01*
X89276535Y-87583674D01*
X89265101Y-87621367D01*
X89246534Y-87656103D01*
X89221548Y-87686548D01*
X89191103Y-87711534D01*
X89156367Y-87730101D01*
X89118674Y-87741535D01*
X89073339Y-87746000D01*
X88236661Y-87746000D01*
X88191326Y-87741535D01*
X88153633Y-87730101D01*
X88118897Y-87711534D01*
X88088452Y-87686548D01*
X88063466Y-87656103D01*
X88044899Y-87621367D01*
X88033465Y-87583674D01*
X88029000Y-87538339D01*
X88029000Y-86451661D01*
X88033465Y-86406326D01*
X88044899Y-86368633D01*
X88063466Y-86333897D01*
X88088452Y-86303452D01*
X88118897Y-86278466D01*
X88153633Y-86259899D01*
X88191326Y-86248465D01*
X88236661Y-86244000D01*
X89073339Y-86244000D01*
X89118674Y-86248465D01*
X89118674Y-86248465D01*
G37*
G36*
X68309928Y-86646764D02*
G01*
X68331009Y-86653160D01*
X68350445Y-86663548D01*
X68367476Y-86677524D01*
X68381452Y-86694555D01*
X68391840Y-86713991D01*
X68398236Y-86735072D01*
X68401000Y-86763140D01*
X68401000Y-87226860D01*
X68398236Y-87254928D01*
X68391840Y-87276009D01*
X68381452Y-87295445D01*
X68367476Y-87312476D01*
X68350445Y-87326452D01*
X68331009Y-87336840D01*
X68309928Y-87343236D01*
X68281860Y-87346000D01*
X66468140Y-87346000D01*
X66440072Y-87343236D01*
X66418991Y-87336840D01*
X66399555Y-87326452D01*
X66382524Y-87312476D01*
X66368548Y-87295445D01*
X66358160Y-87276009D01*
X66351764Y-87254928D01*
X66349000Y-87226860D01*
X66349000Y-86763140D01*
X66351764Y-86735072D01*
X66358160Y-86713991D01*
X66368548Y-86694555D01*
X66382524Y-86677524D01*
X66399555Y-86663548D01*
X66418991Y-86653160D01*
X66440072Y-86646764D01*
X66468140Y-86644000D01*
X68281860Y-86644000D01*
X68309928Y-86646764D01*
X68309928Y-86646764D01*
G37*
G36*
X73259928Y-86646764D02*
G01*
X73281009Y-86653160D01*
X73300445Y-86663548D01*
X73317476Y-86677524D01*
X73331452Y-86694555D01*
X73341840Y-86713991D01*
X73348236Y-86735072D01*
X73351000Y-86763140D01*
X73351000Y-87226860D01*
X73348236Y-87254928D01*
X73341840Y-87276009D01*
X73331452Y-87295445D01*
X73317476Y-87312476D01*
X73300445Y-87326452D01*
X73281009Y-87336840D01*
X73259928Y-87343236D01*
X73231860Y-87346000D01*
X71418140Y-87346000D01*
X71390072Y-87343236D01*
X71368991Y-87336840D01*
X71349555Y-87326452D01*
X71332524Y-87312476D01*
X71318548Y-87295445D01*
X71308160Y-87276009D01*
X71301764Y-87254928D01*
X71299000Y-87226860D01*
X71299000Y-86763140D01*
X71301764Y-86735072D01*
X71308160Y-86713991D01*
X71318548Y-86694555D01*
X71332524Y-86677524D01*
X71349555Y-86663548D01*
X71368991Y-86653160D01*
X71390072Y-86646764D01*
X71418140Y-86644000D01*
X73231860Y-86644000D01*
X73259928Y-86646764D01*
X73259928Y-86646764D01*
G37*
G36*
X91064928Y-85471764D02*
G01*
X91086009Y-85478160D01*
X91105445Y-85488548D01*
X91122476Y-85502524D01*
X91136452Y-85519555D01*
X91146840Y-85538991D01*
X91153236Y-85560072D01*
X91156000Y-85588140D01*
X91156000Y-87201860D01*
X91153236Y-87229928D01*
X91146840Y-87251009D01*
X91136452Y-87270445D01*
X91122476Y-87287476D01*
X91105445Y-87301452D01*
X91086009Y-87311840D01*
X91064928Y-87318236D01*
X91036860Y-87321000D01*
X90573140Y-87321000D01*
X90545072Y-87318236D01*
X90523991Y-87311840D01*
X90504555Y-87301452D01*
X90487524Y-87287476D01*
X90473548Y-87270445D01*
X90463160Y-87251009D01*
X90456764Y-87229928D01*
X90454000Y-87201860D01*
X90454000Y-85588140D01*
X90456764Y-85560072D01*
X90463160Y-85538991D01*
X90473548Y-85519555D01*
X90487524Y-85502524D01*
X90504555Y-85488548D01*
X90523991Y-85478160D01*
X90545072Y-85471764D01*
X90573140Y-85469000D01*
X91036860Y-85469000D01*
X91064928Y-85471764D01*
X91064928Y-85471764D01*
G37*
G36*
X93604928Y-85471764D02*
G01*
X93626009Y-85478160D01*
X93645445Y-85488548D01*
X93662476Y-85502524D01*
X93676452Y-85519555D01*
X93686840Y-85538991D01*
X93693236Y-85560072D01*
X93696000Y-85588140D01*
X93696000Y-87201860D01*
X93693236Y-87229928D01*
X93686840Y-87251009D01*
X93676452Y-87270445D01*
X93662476Y-87287476D01*
X93645445Y-87301452D01*
X93626009Y-87311840D01*
X93604928Y-87318236D01*
X93576860Y-87321000D01*
X93113140Y-87321000D01*
X93085072Y-87318236D01*
X93063991Y-87311840D01*
X93044555Y-87301452D01*
X93027524Y-87287476D01*
X93013548Y-87270445D01*
X93003160Y-87251009D01*
X92996764Y-87229928D01*
X92994000Y-87201860D01*
X92994000Y-85588140D01*
X92996764Y-85560072D01*
X93003160Y-85538991D01*
X93013548Y-85519555D01*
X93027524Y-85502524D01*
X93044555Y-85488548D01*
X93063991Y-85478160D01*
X93085072Y-85471764D01*
X93113140Y-85469000D01*
X93576860Y-85469000D01*
X93604928Y-85471764D01*
X93604928Y-85471764D01*
G37*
G36*
X92334928Y-85471764D02*
G01*
X92356009Y-85478160D01*
X92375445Y-85488548D01*
X92392476Y-85502524D01*
X92406452Y-85519555D01*
X92416840Y-85538991D01*
X92423236Y-85560072D01*
X92426000Y-85588140D01*
X92426000Y-87201860D01*
X92423236Y-87229928D01*
X92416840Y-87251009D01*
X92406452Y-87270445D01*
X92392476Y-87287476D01*
X92375445Y-87301452D01*
X92356009Y-87311840D01*
X92334928Y-87318236D01*
X92306860Y-87321000D01*
X91843140Y-87321000D01*
X91815072Y-87318236D01*
X91793991Y-87311840D01*
X91774555Y-87301452D01*
X91757524Y-87287476D01*
X91743548Y-87270445D01*
X91733160Y-87251009D01*
X91726764Y-87229928D01*
X91724000Y-87201860D01*
X91724000Y-85588140D01*
X91726764Y-85560072D01*
X91733160Y-85538991D01*
X91743548Y-85519555D01*
X91757524Y-85502524D01*
X91774555Y-85488548D01*
X91793991Y-85478160D01*
X91815072Y-85471764D01*
X91843140Y-85469000D01*
X92306860Y-85469000D01*
X92334928Y-85471764D01*
X92334928Y-85471764D01*
G37*
G36*
X94874928Y-85471764D02*
G01*
X94896009Y-85478160D01*
X94915445Y-85488548D01*
X94932476Y-85502524D01*
X94946452Y-85519555D01*
X94956840Y-85538991D01*
X94963236Y-85560072D01*
X94966000Y-85588140D01*
X94966000Y-87201860D01*
X94963236Y-87229928D01*
X94956840Y-87251009D01*
X94946452Y-87270445D01*
X94932476Y-87287476D01*
X94915445Y-87301452D01*
X94896009Y-87311840D01*
X94874928Y-87318236D01*
X94846860Y-87321000D01*
X94383140Y-87321000D01*
X94355072Y-87318236D01*
X94333991Y-87311840D01*
X94314555Y-87301452D01*
X94297524Y-87287476D01*
X94283548Y-87270445D01*
X94273160Y-87251009D01*
X94266764Y-87229928D01*
X94264000Y-87201860D01*
X94264000Y-85588140D01*
X94266764Y-85560072D01*
X94273160Y-85538991D01*
X94283548Y-85519555D01*
X94297524Y-85502524D01*
X94314555Y-85488548D01*
X94333991Y-85478160D01*
X94355072Y-85471764D01*
X94383140Y-85469000D01*
X94846860Y-85469000D01*
X94874928Y-85471764D01*
X94874928Y-85471764D01*
G37*
G36*
X63666823Y-84886313D02*
G01*
X63726648Y-84904461D01*
X63809049Y-84929457D01*
X63827242Y-84934976D01*
X63935702Y-84992949D01*
X63975078Y-85013996D01*
X64104659Y-85120341D01*
X64211004Y-85249922D01*
X64211005Y-85249924D01*
X64290024Y-85397758D01*
X64338687Y-85558177D01*
X64355117Y-85725000D01*
X64338687Y-85891823D01*
X64290024Y-86052242D01*
X64282221Y-86066840D01*
X64211004Y-86200078D01*
X64104659Y-86329659D01*
X63975078Y-86436004D01*
X63975076Y-86436005D01*
X63827242Y-86515024D01*
X63827239Y-86515025D01*
X63797380Y-86524083D01*
X63666823Y-86563687D01*
X63541804Y-86576000D01*
X63458196Y-86576000D01*
X63333177Y-86563687D01*
X63202620Y-86524083D01*
X63172761Y-86515025D01*
X63172758Y-86515024D01*
X63024924Y-86436005D01*
X63024922Y-86436004D01*
X62895341Y-86329659D01*
X62788996Y-86200078D01*
X62717779Y-86066840D01*
X62709976Y-86052242D01*
X62661313Y-85891823D01*
X62644883Y-85725000D01*
X62661313Y-85558177D01*
X62709976Y-85397758D01*
X62788995Y-85249924D01*
X62788996Y-85249922D01*
X62895341Y-85120341D01*
X63024922Y-85013996D01*
X63064298Y-84992949D01*
X63172758Y-84934976D01*
X63190952Y-84929457D01*
X63273352Y-84904461D01*
X63333177Y-84886313D01*
X63458196Y-84874000D01*
X63541804Y-84874000D01*
X63666823Y-84886313D01*
X63666823Y-84886313D01*
G37*
G36*
X76366823Y-84886313D02*
G01*
X76426648Y-84904461D01*
X76509049Y-84929457D01*
X76527242Y-84934976D01*
X76635702Y-84992949D01*
X76675078Y-85013996D01*
X76804659Y-85120341D01*
X76911004Y-85249922D01*
X76911005Y-85249924D01*
X76990024Y-85397758D01*
X77038687Y-85558177D01*
X77055117Y-85725000D01*
X77038687Y-85891823D01*
X76990024Y-86052242D01*
X76982221Y-86066840D01*
X76911004Y-86200078D01*
X76804659Y-86329659D01*
X76675078Y-86436004D01*
X76675076Y-86436005D01*
X76527242Y-86515024D01*
X76527239Y-86515025D01*
X76497380Y-86524083D01*
X76366823Y-86563687D01*
X76241804Y-86576000D01*
X76158196Y-86576000D01*
X76033177Y-86563687D01*
X75902620Y-86524083D01*
X75872761Y-86515025D01*
X75872758Y-86515024D01*
X75724924Y-86436005D01*
X75724922Y-86436004D01*
X75595341Y-86329659D01*
X75488996Y-86200078D01*
X75417779Y-86066840D01*
X75409976Y-86052242D01*
X75361313Y-85891823D01*
X75344883Y-85725000D01*
X75361313Y-85558177D01*
X75409976Y-85397758D01*
X75488995Y-85249924D01*
X75488996Y-85249922D01*
X75595341Y-85120341D01*
X75724922Y-85013996D01*
X75764298Y-84992949D01*
X75872758Y-84934976D01*
X75890952Y-84929457D01*
X75973352Y-84904461D01*
X76033177Y-84886313D01*
X76158196Y-84874000D01*
X76241804Y-84874000D01*
X76366823Y-84886313D01*
X76366823Y-84886313D01*
G37*
G36*
X61126823Y-84886313D02*
G01*
X61186648Y-84904461D01*
X61269049Y-84929457D01*
X61287242Y-84934976D01*
X61395702Y-84992949D01*
X61435078Y-85013996D01*
X61564659Y-85120341D01*
X61671004Y-85249922D01*
X61671005Y-85249924D01*
X61750024Y-85397758D01*
X61798687Y-85558177D01*
X61815117Y-85725000D01*
X61798687Y-85891823D01*
X61750024Y-86052242D01*
X61742221Y-86066840D01*
X61671004Y-86200078D01*
X61564659Y-86329659D01*
X61435078Y-86436004D01*
X61435076Y-86436005D01*
X61287242Y-86515024D01*
X61287239Y-86515025D01*
X61257380Y-86524083D01*
X61126823Y-86563687D01*
X61001804Y-86576000D01*
X60918196Y-86576000D01*
X60793177Y-86563687D01*
X60662620Y-86524083D01*
X60632761Y-86515025D01*
X60632758Y-86515024D01*
X60484924Y-86436005D01*
X60484922Y-86436004D01*
X60355341Y-86329659D01*
X60248996Y-86200078D01*
X60177779Y-86066840D01*
X60169976Y-86052242D01*
X60121313Y-85891823D01*
X60104883Y-85725000D01*
X60121313Y-85558177D01*
X60169976Y-85397758D01*
X60248995Y-85249924D01*
X60248996Y-85249922D01*
X60355341Y-85120341D01*
X60484922Y-85013996D01*
X60524298Y-84992949D01*
X60632758Y-84934976D01*
X60650952Y-84929457D01*
X60733352Y-84904461D01*
X60793177Y-84886313D01*
X60918196Y-84874000D01*
X61001804Y-84874000D01*
X61126823Y-84886313D01*
X61126823Y-84886313D01*
G37*
G36*
X78906823Y-84886313D02*
G01*
X78966648Y-84904461D01*
X79049049Y-84929457D01*
X79067242Y-84934976D01*
X79175702Y-84992949D01*
X79215078Y-85013996D01*
X79344659Y-85120341D01*
X79451004Y-85249922D01*
X79451005Y-85249924D01*
X79530024Y-85397758D01*
X79578687Y-85558177D01*
X79595117Y-85725000D01*
X79578687Y-85891823D01*
X79530024Y-86052242D01*
X79522221Y-86066840D01*
X79451004Y-86200078D01*
X79344659Y-86329659D01*
X79215078Y-86436004D01*
X79215076Y-86436005D01*
X79067242Y-86515024D01*
X79067239Y-86515025D01*
X79037380Y-86524083D01*
X78906823Y-86563687D01*
X78781804Y-86576000D01*
X78698196Y-86576000D01*
X78573177Y-86563687D01*
X78442620Y-86524083D01*
X78412761Y-86515025D01*
X78412758Y-86515024D01*
X78264924Y-86436005D01*
X78264922Y-86436004D01*
X78135341Y-86329659D01*
X78028996Y-86200078D01*
X77957779Y-86066840D01*
X77949976Y-86052242D01*
X77901313Y-85891823D01*
X77884883Y-85725000D01*
X77901313Y-85558177D01*
X77949976Y-85397758D01*
X78028995Y-85249924D01*
X78028996Y-85249922D01*
X78135341Y-85120341D01*
X78264922Y-85013996D01*
X78304298Y-84992949D01*
X78412758Y-84934976D01*
X78430952Y-84929457D01*
X78513352Y-84904461D01*
X78573177Y-84886313D01*
X78698196Y-84874000D01*
X78781804Y-84874000D01*
X78906823Y-84886313D01*
X78906823Y-84886313D01*
G37*
G36*
X84038674Y-84978465D02*
G01*
X84076367Y-84989899D01*
X84111103Y-85008466D01*
X84141548Y-85033452D01*
X84166534Y-85063897D01*
X84185101Y-85098633D01*
X84196535Y-85136326D01*
X84201000Y-85181661D01*
X84201000Y-86268339D01*
X84196535Y-86313674D01*
X84185101Y-86351367D01*
X84166534Y-86386103D01*
X84141548Y-86416548D01*
X84111103Y-86441534D01*
X84076367Y-86460101D01*
X84038674Y-86471535D01*
X83993339Y-86476000D01*
X83156661Y-86476000D01*
X83111326Y-86471535D01*
X83073633Y-86460101D01*
X83038897Y-86441534D01*
X83008452Y-86416548D01*
X82983466Y-86386103D01*
X82964899Y-86351367D01*
X82953465Y-86313674D01*
X82949000Y-86268339D01*
X82949000Y-85181661D01*
X82953465Y-85136326D01*
X82964899Y-85098633D01*
X82983466Y-85063897D01*
X83008452Y-85033452D01*
X83038897Y-85008466D01*
X83073633Y-84989899D01*
X83111326Y-84978465D01*
X83156661Y-84974000D01*
X83993339Y-84974000D01*
X84038674Y-84978465D01*
X84038674Y-84978465D01*
G37*
G36*
X81988674Y-84978465D02*
G01*
X82026367Y-84989899D01*
X82061103Y-85008466D01*
X82091548Y-85033452D01*
X82116534Y-85063897D01*
X82135101Y-85098633D01*
X82146535Y-85136326D01*
X82151000Y-85181661D01*
X82151000Y-86268339D01*
X82146535Y-86313674D01*
X82135101Y-86351367D01*
X82116534Y-86386103D01*
X82091548Y-86416548D01*
X82061103Y-86441534D01*
X82026367Y-86460101D01*
X81988674Y-86471535D01*
X81943339Y-86476000D01*
X81106661Y-86476000D01*
X81061326Y-86471535D01*
X81023633Y-86460101D01*
X80988897Y-86441534D01*
X80958452Y-86416548D01*
X80933466Y-86386103D01*
X80914899Y-86351367D01*
X80903465Y-86313674D01*
X80899000Y-86268339D01*
X80899000Y-85181661D01*
X80903465Y-85136326D01*
X80914899Y-85098633D01*
X80933466Y-85063897D01*
X80958452Y-85033452D01*
X80988897Y-85008466D01*
X81023633Y-84989899D01*
X81061326Y-84978465D01*
X81106661Y-84974000D01*
X81943339Y-84974000D01*
X81988674Y-84978465D01*
X81988674Y-84978465D01*
G37*
G36*
X73259928Y-85376764D02*
G01*
X73281009Y-85383160D01*
X73300445Y-85393548D01*
X73317476Y-85407524D01*
X73331452Y-85424555D01*
X73341840Y-85443991D01*
X73348236Y-85465072D01*
X73351000Y-85493140D01*
X73351000Y-85956860D01*
X73348236Y-85984928D01*
X73341840Y-86006009D01*
X73331452Y-86025445D01*
X73317476Y-86042476D01*
X73300445Y-86056452D01*
X73281009Y-86066840D01*
X73259928Y-86073236D01*
X73231860Y-86076000D01*
X71418140Y-86076000D01*
X71390072Y-86073236D01*
X71368991Y-86066840D01*
X71349555Y-86056452D01*
X71332524Y-86042476D01*
X71318548Y-86025445D01*
X71308160Y-86006009D01*
X71301764Y-85984928D01*
X71299000Y-85956860D01*
X71299000Y-85493140D01*
X71301764Y-85465072D01*
X71308160Y-85443991D01*
X71318548Y-85424555D01*
X71332524Y-85407524D01*
X71349555Y-85393548D01*
X71368991Y-85383160D01*
X71390072Y-85376764D01*
X71418140Y-85374000D01*
X73231860Y-85374000D01*
X73259928Y-85376764D01*
X73259928Y-85376764D01*
G37*
G36*
X68309928Y-85376764D02*
G01*
X68331009Y-85383160D01*
X68350445Y-85393548D01*
X68367476Y-85407524D01*
X68381452Y-85424555D01*
X68391840Y-85443991D01*
X68398236Y-85465072D01*
X68401000Y-85493140D01*
X68401000Y-85956860D01*
X68398236Y-85984928D01*
X68391840Y-86006009D01*
X68381452Y-86025445D01*
X68367476Y-86042476D01*
X68350445Y-86056452D01*
X68331009Y-86066840D01*
X68309928Y-86073236D01*
X68281860Y-86076000D01*
X66468140Y-86076000D01*
X66440072Y-86073236D01*
X66418991Y-86066840D01*
X66399555Y-86056452D01*
X66382524Y-86042476D01*
X66368548Y-86025445D01*
X66358160Y-86006009D01*
X66351764Y-85984928D01*
X66349000Y-85956860D01*
X66349000Y-85493140D01*
X66351764Y-85465072D01*
X66358160Y-85443991D01*
X66368548Y-85424555D01*
X66382524Y-85407524D01*
X66399555Y-85393548D01*
X66418991Y-85383160D01*
X66440072Y-85376764D01*
X66468140Y-85374000D01*
X68281860Y-85374000D01*
X68309928Y-85376764D01*
X68309928Y-85376764D01*
G37*
G36*
X88723786Y-82657746D02*
G01*
X88754461Y-82667051D01*
X88782729Y-82682161D01*
X88807506Y-82702494D01*
X88827839Y-82727271D01*
X88842949Y-82755539D01*
X88852254Y-82786214D01*
X88856000Y-82824251D01*
X88856000Y-84835749D01*
X88852254Y-84873786D01*
X88842949Y-84904461D01*
X88827839Y-84932729D01*
X88807506Y-84957506D01*
X88782729Y-84977839D01*
X88754461Y-84992949D01*
X88723786Y-85002254D01*
X88685749Y-85006000D01*
X86574251Y-85006000D01*
X86536214Y-85002254D01*
X86505539Y-84992949D01*
X86477271Y-84977839D01*
X86452494Y-84957506D01*
X86432161Y-84932729D01*
X86417051Y-84904461D01*
X86407746Y-84873786D01*
X86404000Y-84835749D01*
X86404000Y-82824251D01*
X86407746Y-82786214D01*
X86417051Y-82755539D01*
X86432161Y-82727271D01*
X86452494Y-82702494D01*
X86477271Y-82682161D01*
X86505539Y-82667051D01*
X86536214Y-82657746D01*
X86574251Y-82654000D01*
X88685749Y-82654000D01*
X88723786Y-82657746D01*
X88723786Y-82657746D01*
G37*
G36*
X68309928Y-84106764D02*
G01*
X68331009Y-84113160D01*
X68350445Y-84123548D01*
X68367476Y-84137524D01*
X68381452Y-84154555D01*
X68391840Y-84173991D01*
X68398236Y-84195072D01*
X68401000Y-84223140D01*
X68401000Y-84686860D01*
X68398236Y-84714928D01*
X68391840Y-84736009D01*
X68381452Y-84755445D01*
X68367476Y-84772476D01*
X68350445Y-84786452D01*
X68331009Y-84796840D01*
X68309928Y-84803236D01*
X68281860Y-84806000D01*
X66468140Y-84806000D01*
X66440072Y-84803236D01*
X66418991Y-84796840D01*
X66399555Y-84786452D01*
X66382524Y-84772476D01*
X66368548Y-84755445D01*
X66358160Y-84736009D01*
X66351764Y-84714928D01*
X66349000Y-84686860D01*
X66349000Y-84223140D01*
X66351764Y-84195072D01*
X66358160Y-84173991D01*
X66368548Y-84154555D01*
X66382524Y-84137524D01*
X66399555Y-84123548D01*
X66418991Y-84113160D01*
X66440072Y-84106764D01*
X66468140Y-84104000D01*
X68281860Y-84104000D01*
X68309928Y-84106764D01*
X68309928Y-84106764D01*
G37*
G36*
X73259928Y-84106764D02*
G01*
X73281009Y-84113160D01*
X73300445Y-84123548D01*
X73317476Y-84137524D01*
X73331452Y-84154555D01*
X73341840Y-84173991D01*
X73348236Y-84195072D01*
X73351000Y-84223140D01*
X73351000Y-84686860D01*
X73348236Y-84714928D01*
X73341840Y-84736009D01*
X73331452Y-84755445D01*
X73317476Y-84772476D01*
X73300445Y-84786452D01*
X73281009Y-84796840D01*
X73259928Y-84803236D01*
X73231860Y-84806000D01*
X71418140Y-84806000D01*
X71390072Y-84803236D01*
X71368991Y-84796840D01*
X71349555Y-84786452D01*
X71332524Y-84772476D01*
X71318548Y-84755445D01*
X71308160Y-84736009D01*
X71301764Y-84714928D01*
X71299000Y-84686860D01*
X71299000Y-84223140D01*
X71301764Y-84195072D01*
X71308160Y-84173991D01*
X71318548Y-84154555D01*
X71332524Y-84137524D01*
X71349555Y-84123548D01*
X71368991Y-84113160D01*
X71390072Y-84106764D01*
X71418140Y-84104000D01*
X73231860Y-84104000D01*
X73259928Y-84106764D01*
X73259928Y-84106764D01*
G37*
G36*
X63666823Y-82346313D02*
G01*
X63827242Y-82394976D01*
X63939011Y-82454718D01*
X63975078Y-82473996D01*
X64104659Y-82580341D01*
X64211004Y-82709922D01*
X64211005Y-82709924D01*
X64290024Y-82857758D01*
X64338687Y-83018177D01*
X64355117Y-83185000D01*
X64338687Y-83351823D01*
X64290024Y-83512242D01*
X64282221Y-83526840D01*
X64211004Y-83660078D01*
X64104659Y-83789659D01*
X63975078Y-83896004D01*
X63975076Y-83896005D01*
X63827242Y-83975024D01*
X63666823Y-84023687D01*
X63541804Y-84036000D01*
X63458196Y-84036000D01*
X63333177Y-84023687D01*
X63172758Y-83975024D01*
X63024924Y-83896005D01*
X63024922Y-83896004D01*
X62895341Y-83789659D01*
X62788996Y-83660078D01*
X62717779Y-83526840D01*
X62709976Y-83512242D01*
X62661313Y-83351823D01*
X62644883Y-83185000D01*
X62661313Y-83018177D01*
X62709976Y-82857758D01*
X62788995Y-82709924D01*
X62788996Y-82709922D01*
X62895341Y-82580341D01*
X63024922Y-82473996D01*
X63060989Y-82454718D01*
X63172758Y-82394976D01*
X63333177Y-82346313D01*
X63458196Y-82334000D01*
X63541804Y-82334000D01*
X63666823Y-82346313D01*
X63666823Y-82346313D01*
G37*
G36*
X61126823Y-82346313D02*
G01*
X61287242Y-82394976D01*
X61399011Y-82454718D01*
X61435078Y-82473996D01*
X61564659Y-82580341D01*
X61671004Y-82709922D01*
X61671005Y-82709924D01*
X61750024Y-82857758D01*
X61798687Y-83018177D01*
X61815117Y-83185000D01*
X61798687Y-83351823D01*
X61750024Y-83512242D01*
X61742221Y-83526840D01*
X61671004Y-83660078D01*
X61564659Y-83789659D01*
X61435078Y-83896004D01*
X61435076Y-83896005D01*
X61287242Y-83975024D01*
X61126823Y-84023687D01*
X61001804Y-84036000D01*
X60918196Y-84036000D01*
X60793177Y-84023687D01*
X60632758Y-83975024D01*
X60484924Y-83896005D01*
X60484922Y-83896004D01*
X60355341Y-83789659D01*
X60248996Y-83660078D01*
X60177779Y-83526840D01*
X60169976Y-83512242D01*
X60121313Y-83351823D01*
X60104883Y-83185000D01*
X60121313Y-83018177D01*
X60169976Y-82857758D01*
X60248995Y-82709924D01*
X60248996Y-82709922D01*
X60355341Y-82580341D01*
X60484922Y-82473996D01*
X60520989Y-82454718D01*
X60632758Y-82394976D01*
X60793177Y-82346313D01*
X60918196Y-82334000D01*
X61001804Y-82334000D01*
X61126823Y-82346313D01*
X61126823Y-82346313D01*
G37*
G36*
X78906823Y-82346313D02*
G01*
X79067242Y-82394976D01*
X79179011Y-82454718D01*
X79215078Y-82473996D01*
X79344659Y-82580341D01*
X79451004Y-82709922D01*
X79451005Y-82709924D01*
X79530024Y-82857758D01*
X79578687Y-83018177D01*
X79595117Y-83185000D01*
X79578687Y-83351823D01*
X79530024Y-83512242D01*
X79522221Y-83526840D01*
X79451004Y-83660078D01*
X79344659Y-83789659D01*
X79215078Y-83896004D01*
X79215076Y-83896005D01*
X79067242Y-83975024D01*
X78906823Y-84023687D01*
X78781804Y-84036000D01*
X78698196Y-84036000D01*
X78573177Y-84023687D01*
X78412758Y-83975024D01*
X78264924Y-83896005D01*
X78264922Y-83896004D01*
X78135341Y-83789659D01*
X78028996Y-83660078D01*
X77957779Y-83526840D01*
X77949976Y-83512242D01*
X77901313Y-83351823D01*
X77884883Y-83185000D01*
X77901313Y-83018177D01*
X77949976Y-82857758D01*
X78028995Y-82709924D01*
X78028996Y-82709922D01*
X78135341Y-82580341D01*
X78264922Y-82473996D01*
X78300989Y-82454718D01*
X78412758Y-82394976D01*
X78573177Y-82346313D01*
X78698196Y-82334000D01*
X78781804Y-82334000D01*
X78906823Y-82346313D01*
X78906823Y-82346313D01*
G37*
G36*
X76366823Y-82346313D02*
G01*
X76527242Y-82394976D01*
X76639011Y-82454718D01*
X76675078Y-82473996D01*
X76804659Y-82580341D01*
X76911004Y-82709922D01*
X76911005Y-82709924D01*
X76990024Y-82857758D01*
X77038687Y-83018177D01*
X77055117Y-83185000D01*
X77038687Y-83351823D01*
X76990024Y-83512242D01*
X76982221Y-83526840D01*
X76911004Y-83660078D01*
X76804659Y-83789659D01*
X76675078Y-83896004D01*
X76675076Y-83896005D01*
X76527242Y-83975024D01*
X76366823Y-84023687D01*
X76241804Y-84036000D01*
X76158196Y-84036000D01*
X76033177Y-84023687D01*
X75872758Y-83975024D01*
X75724924Y-83896005D01*
X75724922Y-83896004D01*
X75595341Y-83789659D01*
X75488996Y-83660078D01*
X75417779Y-83526840D01*
X75409976Y-83512242D01*
X75361313Y-83351823D01*
X75344883Y-83185000D01*
X75361313Y-83018177D01*
X75409976Y-82857758D01*
X75488995Y-82709924D01*
X75488996Y-82709922D01*
X75595341Y-82580341D01*
X75724922Y-82473996D01*
X75760989Y-82454718D01*
X75872758Y-82394976D01*
X76033177Y-82346313D01*
X76158196Y-82334000D01*
X76241804Y-82334000D01*
X76366823Y-82346313D01*
X76366823Y-82346313D01*
G37*
G36*
X81988674Y-82438465D02*
G01*
X82026367Y-82449899D01*
X82061103Y-82468466D01*
X82091548Y-82493452D01*
X82116534Y-82523897D01*
X82135101Y-82558633D01*
X82146535Y-82596326D01*
X82151000Y-82641661D01*
X82151000Y-83728339D01*
X82146535Y-83773674D01*
X82135101Y-83811367D01*
X82116534Y-83846103D01*
X82091548Y-83876548D01*
X82061103Y-83901534D01*
X82026367Y-83920101D01*
X81988674Y-83931535D01*
X81943339Y-83936000D01*
X81106661Y-83936000D01*
X81061326Y-83931535D01*
X81023633Y-83920101D01*
X80988897Y-83901534D01*
X80958452Y-83876548D01*
X80933466Y-83846103D01*
X80914899Y-83811367D01*
X80903465Y-83773674D01*
X80899000Y-83728339D01*
X80899000Y-82641661D01*
X80903465Y-82596326D01*
X80914899Y-82558633D01*
X80933466Y-82523897D01*
X80958452Y-82493452D01*
X80988897Y-82468466D01*
X81023633Y-82449899D01*
X81061326Y-82438465D01*
X81106661Y-82434000D01*
X81943339Y-82434000D01*
X81988674Y-82438465D01*
X81988674Y-82438465D01*
G37*
G36*
X84038674Y-82438465D02*
G01*
X84076367Y-82449899D01*
X84111103Y-82468466D01*
X84141548Y-82493452D01*
X84166534Y-82523897D01*
X84185101Y-82558633D01*
X84196535Y-82596326D01*
X84201000Y-82641661D01*
X84201000Y-83728339D01*
X84196535Y-83773674D01*
X84185101Y-83811367D01*
X84166534Y-83846103D01*
X84141548Y-83876548D01*
X84111103Y-83901534D01*
X84076367Y-83920101D01*
X84038674Y-83931535D01*
X83993339Y-83936000D01*
X83156661Y-83936000D01*
X83111326Y-83931535D01*
X83073633Y-83920101D01*
X83038897Y-83901534D01*
X83008452Y-83876548D01*
X82983466Y-83846103D01*
X82964899Y-83811367D01*
X82953465Y-83773674D01*
X82949000Y-83728339D01*
X82949000Y-82641661D01*
X82953465Y-82596326D01*
X82964899Y-82558633D01*
X82983466Y-82523897D01*
X83008452Y-82493452D01*
X83038897Y-82468466D01*
X83073633Y-82449899D01*
X83111326Y-82438465D01*
X83156661Y-82434000D01*
X83993339Y-82434000D01*
X84038674Y-82438465D01*
X84038674Y-82438465D01*
G37*
G36*
X68309928Y-82836764D02*
G01*
X68331009Y-82843160D01*
X68350445Y-82853548D01*
X68367476Y-82867524D01*
X68381452Y-82884555D01*
X68391840Y-82903991D01*
X68398236Y-82925072D01*
X68401000Y-82953140D01*
X68401000Y-83416860D01*
X68398236Y-83444928D01*
X68391840Y-83466009D01*
X68381452Y-83485445D01*
X68367476Y-83502476D01*
X68350445Y-83516452D01*
X68331009Y-83526840D01*
X68309928Y-83533236D01*
X68281860Y-83536000D01*
X66468140Y-83536000D01*
X66440072Y-83533236D01*
X66418991Y-83526840D01*
X66399555Y-83516452D01*
X66382524Y-83502476D01*
X66368548Y-83485445D01*
X66358160Y-83466009D01*
X66351764Y-83444928D01*
X66349000Y-83416860D01*
X66349000Y-82953140D01*
X66351764Y-82925072D01*
X66358160Y-82903991D01*
X66368548Y-82884555D01*
X66382524Y-82867524D01*
X66399555Y-82853548D01*
X66418991Y-82843160D01*
X66440072Y-82836764D01*
X66468140Y-82834000D01*
X68281860Y-82834000D01*
X68309928Y-82836764D01*
X68309928Y-82836764D01*
G37*
G36*
X73259928Y-82836764D02*
G01*
X73281009Y-82843160D01*
X73300445Y-82853548D01*
X73317476Y-82867524D01*
X73331452Y-82884555D01*
X73341840Y-82903991D01*
X73348236Y-82925072D01*
X73351000Y-82953140D01*
X73351000Y-83416860D01*
X73348236Y-83444928D01*
X73341840Y-83466009D01*
X73331452Y-83485445D01*
X73317476Y-83502476D01*
X73300445Y-83516452D01*
X73281009Y-83526840D01*
X73259928Y-83533236D01*
X73231860Y-83536000D01*
X71418140Y-83536000D01*
X71390072Y-83533236D01*
X71368991Y-83526840D01*
X71349555Y-83516452D01*
X71332524Y-83502476D01*
X71318548Y-83485445D01*
X71308160Y-83466009D01*
X71301764Y-83444928D01*
X71299000Y-83416860D01*
X71299000Y-82953140D01*
X71301764Y-82925072D01*
X71308160Y-82903991D01*
X71318548Y-82884555D01*
X71332524Y-82867524D01*
X71349555Y-82853548D01*
X71368991Y-82843160D01*
X71390072Y-82836764D01*
X71418140Y-82834000D01*
X73231860Y-82834000D01*
X73259928Y-82836764D01*
X73259928Y-82836764D01*
G37*
G36*
X92334928Y-80321764D02*
G01*
X92356009Y-80328160D01*
X92375445Y-80338548D01*
X92392476Y-80352524D01*
X92406452Y-80369555D01*
X92416840Y-80388991D01*
X92423236Y-80410072D01*
X92426000Y-80438140D01*
X92426000Y-82051860D01*
X92423236Y-82079928D01*
X92416840Y-82101009D01*
X92406452Y-82120445D01*
X92392476Y-82137476D01*
X92375445Y-82151452D01*
X92356009Y-82161840D01*
X92334928Y-82168236D01*
X92306860Y-82171000D01*
X91843140Y-82171000D01*
X91815072Y-82168236D01*
X91793991Y-82161840D01*
X91774555Y-82151452D01*
X91757524Y-82137476D01*
X91743548Y-82120445D01*
X91733160Y-82101009D01*
X91726764Y-82079928D01*
X91724000Y-82051860D01*
X91724000Y-80438140D01*
X91726764Y-80410072D01*
X91733160Y-80388991D01*
X91743548Y-80369555D01*
X91757524Y-80352524D01*
X91774555Y-80338548D01*
X91793991Y-80328160D01*
X91815072Y-80321764D01*
X91843140Y-80319000D01*
X92306860Y-80319000D01*
X92334928Y-80321764D01*
X92334928Y-80321764D01*
G37*
G36*
X91064928Y-80321764D02*
G01*
X91086009Y-80328160D01*
X91105445Y-80338548D01*
X91122476Y-80352524D01*
X91136452Y-80369555D01*
X91146840Y-80388991D01*
X91153236Y-80410072D01*
X91156000Y-80438140D01*
X91156000Y-82051860D01*
X91153236Y-82079928D01*
X91146840Y-82101009D01*
X91136452Y-82120445D01*
X91122476Y-82137476D01*
X91105445Y-82151452D01*
X91086009Y-82161840D01*
X91064928Y-82168236D01*
X91036860Y-82171000D01*
X90573140Y-82171000D01*
X90545072Y-82168236D01*
X90523991Y-82161840D01*
X90504555Y-82151452D01*
X90487524Y-82137476D01*
X90473548Y-82120445D01*
X90463160Y-82101009D01*
X90456764Y-82079928D01*
X90454000Y-82051860D01*
X90454000Y-80438140D01*
X90456764Y-80410072D01*
X90463160Y-80388991D01*
X90473548Y-80369555D01*
X90487524Y-80352524D01*
X90504555Y-80338548D01*
X90523991Y-80328160D01*
X90545072Y-80321764D01*
X90573140Y-80319000D01*
X91036860Y-80319000D01*
X91064928Y-80321764D01*
X91064928Y-80321764D01*
G37*
G36*
X94874928Y-80321764D02*
G01*
X94896009Y-80328160D01*
X94915445Y-80338548D01*
X94932476Y-80352524D01*
X94946452Y-80369555D01*
X94956840Y-80388991D01*
X94963236Y-80410072D01*
X94966000Y-80438140D01*
X94966000Y-82051860D01*
X94963236Y-82079928D01*
X94956840Y-82101009D01*
X94946452Y-82120445D01*
X94932476Y-82137476D01*
X94915445Y-82151452D01*
X94896009Y-82161840D01*
X94874928Y-82168236D01*
X94846860Y-82171000D01*
X94383140Y-82171000D01*
X94355072Y-82168236D01*
X94333991Y-82161840D01*
X94314555Y-82151452D01*
X94297524Y-82137476D01*
X94283548Y-82120445D01*
X94273160Y-82101009D01*
X94266764Y-82079928D01*
X94264000Y-82051860D01*
X94264000Y-80438140D01*
X94266764Y-80410072D01*
X94273160Y-80388991D01*
X94283548Y-80369555D01*
X94297524Y-80352524D01*
X94314555Y-80338548D01*
X94333991Y-80328160D01*
X94355072Y-80321764D01*
X94383140Y-80319000D01*
X94846860Y-80319000D01*
X94874928Y-80321764D01*
X94874928Y-80321764D01*
G37*
G36*
X93604928Y-80321764D02*
G01*
X93626009Y-80328160D01*
X93645445Y-80338548D01*
X93662476Y-80352524D01*
X93676452Y-80369555D01*
X93686840Y-80388991D01*
X93693236Y-80410072D01*
X93696000Y-80438140D01*
X93696000Y-82051860D01*
X93693236Y-82079928D01*
X93686840Y-82101009D01*
X93676452Y-82120445D01*
X93662476Y-82137476D01*
X93645445Y-82151452D01*
X93626009Y-82161840D01*
X93604928Y-82168236D01*
X93576860Y-82171000D01*
X93113140Y-82171000D01*
X93085072Y-82168236D01*
X93063991Y-82161840D01*
X93044555Y-82151452D01*
X93027524Y-82137476D01*
X93013548Y-82120445D01*
X93003160Y-82101009D01*
X92996764Y-82079928D01*
X92994000Y-82051860D01*
X92994000Y-80438140D01*
X92996764Y-80410072D01*
X93003160Y-80388991D01*
X93013548Y-80369555D01*
X93027524Y-80352524D01*
X93044555Y-80338548D01*
X93063991Y-80328160D01*
X93085072Y-80321764D01*
X93113140Y-80319000D01*
X93576860Y-80319000D01*
X93604928Y-80321764D01*
X93604928Y-80321764D01*
G37*
G36*
X78906823Y-79806313D02*
G01*
X79067242Y-79854976D01*
X79179011Y-79914718D01*
X79215078Y-79933996D01*
X79344659Y-80040341D01*
X79451004Y-80169922D01*
X79451005Y-80169924D01*
X79530024Y-80317758D01*
X79578687Y-80478177D01*
X79595117Y-80645000D01*
X79578687Y-80811823D01*
X79530024Y-80972242D01*
X79459114Y-81104906D01*
X79451004Y-81120078D01*
X79344659Y-81249659D01*
X79215078Y-81356004D01*
X79215076Y-81356005D01*
X79067242Y-81435024D01*
X78906823Y-81483687D01*
X78781804Y-81496000D01*
X78698196Y-81496000D01*
X78573177Y-81483687D01*
X78412758Y-81435024D01*
X78264924Y-81356005D01*
X78264922Y-81356004D01*
X78135341Y-81249659D01*
X78028996Y-81120078D01*
X78020886Y-81104906D01*
X77949976Y-80972242D01*
X77901313Y-80811823D01*
X77884883Y-80645000D01*
X77901313Y-80478177D01*
X77949976Y-80317758D01*
X78028995Y-80169924D01*
X78028996Y-80169922D01*
X78135341Y-80040341D01*
X78264922Y-79933996D01*
X78300989Y-79914718D01*
X78412758Y-79854976D01*
X78573177Y-79806313D01*
X78698196Y-79794000D01*
X78781804Y-79794000D01*
X78906823Y-79806313D01*
X78906823Y-79806313D01*
G37*
G36*
X63666823Y-79806313D02*
G01*
X63827242Y-79854976D01*
X63939011Y-79914718D01*
X63975078Y-79933996D01*
X64104659Y-80040341D01*
X64211004Y-80169922D01*
X64211005Y-80169924D01*
X64290024Y-80317758D01*
X64338687Y-80478177D01*
X64355117Y-80645000D01*
X64338687Y-80811823D01*
X64290024Y-80972242D01*
X64219114Y-81104906D01*
X64211004Y-81120078D01*
X64104659Y-81249659D01*
X63975078Y-81356004D01*
X63975076Y-81356005D01*
X63827242Y-81435024D01*
X63666823Y-81483687D01*
X63541804Y-81496000D01*
X63458196Y-81496000D01*
X63333177Y-81483687D01*
X63172758Y-81435024D01*
X63024924Y-81356005D01*
X63024922Y-81356004D01*
X62895341Y-81249659D01*
X62788996Y-81120078D01*
X62780886Y-81104906D01*
X62709976Y-80972242D01*
X62661313Y-80811823D01*
X62644883Y-80645000D01*
X62661313Y-80478177D01*
X62709976Y-80317758D01*
X62788995Y-80169924D01*
X62788996Y-80169922D01*
X62895341Y-80040341D01*
X63024922Y-79933996D01*
X63060989Y-79914718D01*
X63172758Y-79854976D01*
X63333177Y-79806313D01*
X63458196Y-79794000D01*
X63541804Y-79794000D01*
X63666823Y-79806313D01*
X63666823Y-79806313D01*
G37*
G36*
X76366823Y-79806313D02*
G01*
X76527242Y-79854976D01*
X76639011Y-79914718D01*
X76675078Y-79933996D01*
X76804659Y-80040341D01*
X76911004Y-80169922D01*
X76911005Y-80169924D01*
X76990024Y-80317758D01*
X77038687Y-80478177D01*
X77055117Y-80645000D01*
X77038687Y-80811823D01*
X76990024Y-80972242D01*
X76919114Y-81104906D01*
X76911004Y-81120078D01*
X76804659Y-81249659D01*
X76675078Y-81356004D01*
X76675076Y-81356005D01*
X76527242Y-81435024D01*
X76366823Y-81483687D01*
X76241804Y-81496000D01*
X76158196Y-81496000D01*
X76033177Y-81483687D01*
X75872758Y-81435024D01*
X75724924Y-81356005D01*
X75724922Y-81356004D01*
X75595341Y-81249659D01*
X75488996Y-81120078D01*
X75480886Y-81104906D01*
X75409976Y-80972242D01*
X75361313Y-80811823D01*
X75344883Y-80645000D01*
X75361313Y-80478177D01*
X75409976Y-80317758D01*
X75488995Y-80169924D01*
X75488996Y-80169922D01*
X75595341Y-80040341D01*
X75724922Y-79933996D01*
X75760989Y-79914718D01*
X75872758Y-79854976D01*
X76033177Y-79806313D01*
X76158196Y-79794000D01*
X76241804Y-79794000D01*
X76366823Y-79806313D01*
X76366823Y-79806313D01*
G37*
G36*
X61126823Y-79806313D02*
G01*
X61287242Y-79854976D01*
X61399011Y-79914718D01*
X61435078Y-79933996D01*
X61564659Y-80040341D01*
X61671004Y-80169922D01*
X61671005Y-80169924D01*
X61750024Y-80317758D01*
X61798687Y-80478177D01*
X61815117Y-80645000D01*
X61798687Y-80811823D01*
X61750024Y-80972242D01*
X61679114Y-81104906D01*
X61671004Y-81120078D01*
X61564659Y-81249659D01*
X61435078Y-81356004D01*
X61435076Y-81356005D01*
X61287242Y-81435024D01*
X61126823Y-81483687D01*
X61001804Y-81496000D01*
X60918196Y-81496000D01*
X60793177Y-81483687D01*
X60632758Y-81435024D01*
X60484924Y-81356005D01*
X60484922Y-81356004D01*
X60355341Y-81249659D01*
X60248996Y-81120078D01*
X60240886Y-81104906D01*
X60169976Y-80972242D01*
X60121313Y-80811823D01*
X60104883Y-80645000D01*
X60121313Y-80478177D01*
X60169976Y-80317758D01*
X60248995Y-80169924D01*
X60248996Y-80169922D01*
X60355341Y-80040341D01*
X60484922Y-79933996D01*
X60520989Y-79914718D01*
X60632758Y-79854976D01*
X60793177Y-79806313D01*
X60918196Y-79794000D01*
X61001804Y-79794000D01*
X61126823Y-79806313D01*
X61126823Y-79806313D01*
G37*
G36*
X84038674Y-79898465D02*
G01*
X84076367Y-79909899D01*
X84111103Y-79928466D01*
X84141548Y-79953452D01*
X84166534Y-79983897D01*
X84185101Y-80018633D01*
X84196535Y-80056326D01*
X84201000Y-80101661D01*
X84201000Y-81188339D01*
X84196535Y-81233674D01*
X84185101Y-81271367D01*
X84166534Y-81306103D01*
X84141548Y-81336548D01*
X84111103Y-81361534D01*
X84076367Y-81380101D01*
X84038674Y-81391535D01*
X83993339Y-81396000D01*
X83156661Y-81396000D01*
X83111326Y-81391535D01*
X83073633Y-81380101D01*
X83038897Y-81361534D01*
X83008452Y-81336548D01*
X82983466Y-81306103D01*
X82964899Y-81271367D01*
X82953465Y-81233674D01*
X82949000Y-81188339D01*
X82949000Y-80101661D01*
X82953465Y-80056326D01*
X82964899Y-80018633D01*
X82983466Y-79983897D01*
X83008452Y-79953452D01*
X83038897Y-79928466D01*
X83073633Y-79909899D01*
X83111326Y-79898465D01*
X83156661Y-79894000D01*
X83993339Y-79894000D01*
X84038674Y-79898465D01*
X84038674Y-79898465D01*
G37*
G36*
X81988674Y-79898465D02*
G01*
X82026367Y-79909899D01*
X82061103Y-79928466D01*
X82091548Y-79953452D01*
X82116534Y-79983897D01*
X82135101Y-80018633D01*
X82146535Y-80056326D01*
X82151000Y-80101661D01*
X82151000Y-81188339D01*
X82146535Y-81233674D01*
X82135101Y-81271367D01*
X82116534Y-81306103D01*
X82091548Y-81336548D01*
X82061103Y-81361534D01*
X82026367Y-81380101D01*
X81988674Y-81391535D01*
X81943339Y-81396000D01*
X81106661Y-81396000D01*
X81061326Y-81391535D01*
X81023633Y-81380101D01*
X80988897Y-81361534D01*
X80958452Y-81336548D01*
X80933466Y-81306103D01*
X80914899Y-81271367D01*
X80903465Y-81233674D01*
X80899000Y-81188339D01*
X80899000Y-80101661D01*
X80903465Y-80056326D01*
X80914899Y-80018633D01*
X80933466Y-79983897D01*
X80958452Y-79953452D01*
X80988897Y-79928466D01*
X81023633Y-79909899D01*
X81061326Y-79898465D01*
X81106661Y-79894000D01*
X81943339Y-79894000D01*
X81988674Y-79898465D01*
X81988674Y-79898465D01*
G37*
G36*
X88723786Y-77557746D02*
G01*
X88754461Y-77567051D01*
X88782729Y-77582161D01*
X88807506Y-77602494D01*
X88827839Y-77627271D01*
X88842949Y-77655539D01*
X88852254Y-77686214D01*
X88856000Y-77724251D01*
X88856000Y-79735749D01*
X88852254Y-79773786D01*
X88842949Y-79804461D01*
X88827839Y-79832729D01*
X88807506Y-79857506D01*
X88782729Y-79877839D01*
X88754461Y-79892949D01*
X88723786Y-79902254D01*
X88685749Y-79906000D01*
X86574251Y-79906000D01*
X86536214Y-79902254D01*
X86505539Y-79892949D01*
X86477271Y-79877839D01*
X86452494Y-79857506D01*
X86432161Y-79832729D01*
X86417051Y-79804461D01*
X86407746Y-79773786D01*
X86404000Y-79735749D01*
X86404000Y-77724251D01*
X86407746Y-77686214D01*
X86417051Y-77655539D01*
X86432161Y-77627271D01*
X86452494Y-77602494D01*
X86477271Y-77582161D01*
X86505539Y-77567051D01*
X86536214Y-77557746D01*
X86574251Y-77554000D01*
X88685749Y-77554000D01*
X88723786Y-77557746D01*
X88723786Y-77557746D01*
G37*
G36*
X91704174Y-77866465D02*
G01*
X91741867Y-77877899D01*
X91776603Y-77896466D01*
X91807048Y-77921452D01*
X91832034Y-77951897D01*
X91850601Y-77986633D01*
X91862035Y-78024326D01*
X91866500Y-78069661D01*
X91866500Y-79156339D01*
X91862035Y-79201674D01*
X91850601Y-79239367D01*
X91832034Y-79274103D01*
X91807048Y-79304548D01*
X91776603Y-79329534D01*
X91741867Y-79348101D01*
X91704174Y-79359535D01*
X91658839Y-79364000D01*
X90822161Y-79364000D01*
X90776826Y-79359535D01*
X90739133Y-79348101D01*
X90704397Y-79329534D01*
X90673952Y-79304548D01*
X90648966Y-79274103D01*
X90630399Y-79239367D01*
X90618965Y-79201674D01*
X90614500Y-79156339D01*
X90614500Y-78069661D01*
X90618965Y-78024326D01*
X90630399Y-77986633D01*
X90648966Y-77951897D01*
X90673952Y-77921452D01*
X90704397Y-77896466D01*
X90739133Y-77877899D01*
X90776826Y-77866465D01*
X90822161Y-77862000D01*
X91658839Y-77862000D01*
X91704174Y-77866465D01*
X91704174Y-77866465D01*
G37*
G36*
X93754174Y-77866465D02*
G01*
X93791867Y-77877899D01*
X93826603Y-77896466D01*
X93857048Y-77921452D01*
X93882034Y-77951897D01*
X93900601Y-77986633D01*
X93912035Y-78024326D01*
X93916500Y-78069661D01*
X93916500Y-79156339D01*
X93912035Y-79201674D01*
X93900601Y-79239367D01*
X93882034Y-79274103D01*
X93857048Y-79304548D01*
X93826603Y-79329534D01*
X93791867Y-79348101D01*
X93754174Y-79359535D01*
X93708839Y-79364000D01*
X92872161Y-79364000D01*
X92826826Y-79359535D01*
X92789133Y-79348101D01*
X92754397Y-79329534D01*
X92723952Y-79304548D01*
X92698966Y-79274103D01*
X92680399Y-79239367D01*
X92668965Y-79201674D01*
X92664500Y-79156339D01*
X92664500Y-78069661D01*
X92668965Y-78024326D01*
X92680399Y-77986633D01*
X92698966Y-77951897D01*
X92723952Y-77921452D01*
X92754397Y-77896466D01*
X92789133Y-77877899D01*
X92826826Y-77866465D01*
X92872161Y-77862000D01*
X93708839Y-77862000D01*
X93754174Y-77866465D01*
X93754174Y-77866465D01*
G37*
G36*
X61126823Y-77266313D02*
G01*
X61287242Y-77314976D01*
X61399011Y-77374718D01*
X61435078Y-77393996D01*
X61564659Y-77500341D01*
X61671004Y-77629922D01*
X61671005Y-77629924D01*
X61750024Y-77777758D01*
X61798687Y-77938177D01*
X61815117Y-78105000D01*
X61798687Y-78271823D01*
X61750024Y-78432242D01*
X61679114Y-78564906D01*
X61671004Y-78580078D01*
X61564659Y-78709659D01*
X61435078Y-78816004D01*
X61435076Y-78816005D01*
X61287242Y-78895024D01*
X61126823Y-78943687D01*
X61001804Y-78956000D01*
X60918196Y-78956000D01*
X60793177Y-78943687D01*
X60632758Y-78895024D01*
X60484924Y-78816005D01*
X60484922Y-78816004D01*
X60355341Y-78709659D01*
X60248996Y-78580078D01*
X60240886Y-78564906D01*
X60169976Y-78432242D01*
X60121313Y-78271823D01*
X60104883Y-78105000D01*
X60121313Y-77938177D01*
X60169976Y-77777758D01*
X60248995Y-77629924D01*
X60248996Y-77629922D01*
X60355341Y-77500341D01*
X60484922Y-77393996D01*
X60520989Y-77374718D01*
X60632758Y-77314976D01*
X60793177Y-77266313D01*
X60918196Y-77254000D01*
X61001804Y-77254000D01*
X61126823Y-77266313D01*
X61126823Y-77266313D01*
G37*
G36*
X76366823Y-77266313D02*
G01*
X76527242Y-77314976D01*
X76639011Y-77374718D01*
X76675078Y-77393996D01*
X76804659Y-77500341D01*
X76911004Y-77629922D01*
X76911005Y-77629924D01*
X76990024Y-77777758D01*
X77038687Y-77938177D01*
X77055117Y-78105000D01*
X77038687Y-78271823D01*
X76990024Y-78432242D01*
X76919114Y-78564906D01*
X76911004Y-78580078D01*
X76804659Y-78709659D01*
X76675078Y-78816004D01*
X76675076Y-78816005D01*
X76527242Y-78895024D01*
X76366823Y-78943687D01*
X76241804Y-78956000D01*
X76158196Y-78956000D01*
X76033177Y-78943687D01*
X75872758Y-78895024D01*
X75724924Y-78816005D01*
X75724922Y-78816004D01*
X75595341Y-78709659D01*
X75488996Y-78580078D01*
X75480886Y-78564906D01*
X75409976Y-78432242D01*
X75361313Y-78271823D01*
X75344883Y-78105000D01*
X75361313Y-77938177D01*
X75409976Y-77777758D01*
X75488995Y-77629924D01*
X75488996Y-77629922D01*
X75595341Y-77500341D01*
X75724922Y-77393996D01*
X75760989Y-77374718D01*
X75872758Y-77314976D01*
X76033177Y-77266313D01*
X76158196Y-77254000D01*
X76241804Y-77254000D01*
X76366823Y-77266313D01*
X76366823Y-77266313D01*
G37*
G36*
X78906823Y-77266313D02*
G01*
X79067242Y-77314976D01*
X79179011Y-77374718D01*
X79215078Y-77393996D01*
X79344659Y-77500341D01*
X79451004Y-77629922D01*
X79451005Y-77629924D01*
X79530024Y-77777758D01*
X79578687Y-77938177D01*
X79595117Y-78105000D01*
X79578687Y-78271823D01*
X79530024Y-78432242D01*
X79459114Y-78564906D01*
X79451004Y-78580078D01*
X79344659Y-78709659D01*
X79215078Y-78816004D01*
X79215076Y-78816005D01*
X79067242Y-78895024D01*
X78906823Y-78943687D01*
X78781804Y-78956000D01*
X78698196Y-78956000D01*
X78573177Y-78943687D01*
X78412758Y-78895024D01*
X78264924Y-78816005D01*
X78264922Y-78816004D01*
X78135341Y-78709659D01*
X78028996Y-78580078D01*
X78020886Y-78564906D01*
X77949976Y-78432242D01*
X77901313Y-78271823D01*
X77884883Y-78105000D01*
X77901313Y-77938177D01*
X77949976Y-77777758D01*
X78028995Y-77629924D01*
X78028996Y-77629922D01*
X78135341Y-77500341D01*
X78264922Y-77393996D01*
X78300989Y-77374718D01*
X78412758Y-77314976D01*
X78573177Y-77266313D01*
X78698196Y-77254000D01*
X78781804Y-77254000D01*
X78906823Y-77266313D01*
X78906823Y-77266313D01*
G37*
G36*
X63666823Y-77266313D02*
G01*
X63827242Y-77314976D01*
X63939011Y-77374718D01*
X63975078Y-77393996D01*
X64104659Y-77500341D01*
X64211004Y-77629922D01*
X64211005Y-77629924D01*
X64290024Y-77777758D01*
X64338687Y-77938177D01*
X64355117Y-78105000D01*
X64338687Y-78271823D01*
X64290024Y-78432242D01*
X64219114Y-78564906D01*
X64211004Y-78580078D01*
X64104659Y-78709659D01*
X63975078Y-78816004D01*
X63975076Y-78816005D01*
X63827242Y-78895024D01*
X63666823Y-78943687D01*
X63541804Y-78956000D01*
X63458196Y-78956000D01*
X63333177Y-78943687D01*
X63172758Y-78895024D01*
X63024924Y-78816005D01*
X63024922Y-78816004D01*
X62895341Y-78709659D01*
X62788996Y-78580078D01*
X62780886Y-78564906D01*
X62709976Y-78432242D01*
X62661313Y-78271823D01*
X62644883Y-78105000D01*
X62661313Y-77938177D01*
X62709976Y-77777758D01*
X62788995Y-77629924D01*
X62788996Y-77629922D01*
X62895341Y-77500341D01*
X63024922Y-77393996D01*
X63060989Y-77374718D01*
X63172758Y-77314976D01*
X63333177Y-77266313D01*
X63458196Y-77254000D01*
X63541804Y-77254000D01*
X63666823Y-77266313D01*
X63666823Y-77266313D01*
G37*
G36*
X81988674Y-77358465D02*
G01*
X82026367Y-77369899D01*
X82061103Y-77388466D01*
X82091548Y-77413452D01*
X82116534Y-77443897D01*
X82135101Y-77478633D01*
X82146535Y-77516326D01*
X82151000Y-77561661D01*
X82151000Y-78648339D01*
X82146535Y-78693674D01*
X82135101Y-78731367D01*
X82116534Y-78766103D01*
X82091548Y-78796548D01*
X82061103Y-78821534D01*
X82026367Y-78840101D01*
X81988674Y-78851535D01*
X81943339Y-78856000D01*
X81106661Y-78856000D01*
X81061326Y-78851535D01*
X81023633Y-78840101D01*
X80988897Y-78821534D01*
X80958452Y-78796548D01*
X80933466Y-78766103D01*
X80914899Y-78731367D01*
X80903465Y-78693674D01*
X80899000Y-78648339D01*
X80899000Y-77561661D01*
X80903465Y-77516326D01*
X80914899Y-77478633D01*
X80933466Y-77443897D01*
X80958452Y-77413452D01*
X80988897Y-77388466D01*
X81023633Y-77369899D01*
X81061326Y-77358465D01*
X81106661Y-77354000D01*
X81943339Y-77354000D01*
X81988674Y-77358465D01*
X81988674Y-77358465D01*
G37*
G36*
X84038674Y-77358465D02*
G01*
X84076367Y-77369899D01*
X84111103Y-77388466D01*
X84141548Y-77413452D01*
X84166534Y-77443897D01*
X84185101Y-77478633D01*
X84196535Y-77516326D01*
X84201000Y-77561661D01*
X84201000Y-78648339D01*
X84196535Y-78693674D01*
X84185101Y-78731367D01*
X84166534Y-78766103D01*
X84141548Y-78796548D01*
X84111103Y-78821534D01*
X84076367Y-78840101D01*
X84038674Y-78851535D01*
X83993339Y-78856000D01*
X83156661Y-78856000D01*
X83111326Y-78851535D01*
X83073633Y-78840101D01*
X83038897Y-78821534D01*
X83008452Y-78796548D01*
X82983466Y-78766103D01*
X82964899Y-78731367D01*
X82953465Y-78693674D01*
X82949000Y-78648339D01*
X82949000Y-77561661D01*
X82953465Y-77516326D01*
X82964899Y-77478633D01*
X82983466Y-77443897D01*
X83008452Y-77413452D01*
X83038897Y-77388466D01*
X83073633Y-77369899D01*
X83111326Y-77358465D01*
X83156661Y-77354000D01*
X83993339Y-77354000D01*
X84038674Y-77358465D01*
X84038674Y-77358465D01*
G37*
G36*
X71338674Y-77358465D02*
G01*
X71376367Y-77369899D01*
X71411103Y-77388466D01*
X71441548Y-77413452D01*
X71466534Y-77443897D01*
X71485101Y-77478633D01*
X71496535Y-77516326D01*
X71501000Y-77561661D01*
X71501000Y-78648339D01*
X71496535Y-78693674D01*
X71485101Y-78731367D01*
X71466534Y-78766103D01*
X71441548Y-78796548D01*
X71411103Y-78821534D01*
X71376367Y-78840101D01*
X71338674Y-78851535D01*
X71293339Y-78856000D01*
X70456661Y-78856000D01*
X70411326Y-78851535D01*
X70373633Y-78840101D01*
X70338897Y-78821534D01*
X70308452Y-78796548D01*
X70283466Y-78766103D01*
X70264899Y-78731367D01*
X70253465Y-78693674D01*
X70249000Y-78648339D01*
X70249000Y-77561661D01*
X70253465Y-77516326D01*
X70264899Y-77478633D01*
X70283466Y-77443897D01*
X70308452Y-77413452D01*
X70338897Y-77388466D01*
X70373633Y-77369899D01*
X70411326Y-77358465D01*
X70456661Y-77354000D01*
X71293339Y-77354000D01*
X71338674Y-77358465D01*
X71338674Y-77358465D01*
G37*
G36*
X69288674Y-77358465D02*
G01*
X69326367Y-77369899D01*
X69361103Y-77388466D01*
X69391548Y-77413452D01*
X69416534Y-77443897D01*
X69435101Y-77478633D01*
X69446535Y-77516326D01*
X69451000Y-77561661D01*
X69451000Y-78648339D01*
X69446535Y-78693674D01*
X69435101Y-78731367D01*
X69416534Y-78766103D01*
X69391548Y-78796548D01*
X69361103Y-78821534D01*
X69326367Y-78840101D01*
X69288674Y-78851535D01*
X69243339Y-78856000D01*
X68406661Y-78856000D01*
X68361326Y-78851535D01*
X68323633Y-78840101D01*
X68288897Y-78821534D01*
X68258452Y-78796548D01*
X68233466Y-78766103D01*
X68214899Y-78731367D01*
X68203465Y-78693674D01*
X68199000Y-78648339D01*
X68199000Y-77561661D01*
X68203465Y-77516326D01*
X68214899Y-77478633D01*
X68233466Y-77443897D01*
X68258452Y-77413452D01*
X68288897Y-77388466D01*
X68323633Y-77369899D01*
X68361326Y-77358465D01*
X68406661Y-77354000D01*
X69243339Y-77354000D01*
X69288674Y-77358465D01*
X69288674Y-77358465D01*
G37*
G36*
X94146823Y-75361313D02*
G01*
X94307242Y-75409976D01*
X94382050Y-75449962D01*
X94455078Y-75488996D01*
X94584659Y-75595341D01*
X94691004Y-75724922D01*
X94691005Y-75724924D01*
X94770024Y-75872758D01*
X94818687Y-76033177D01*
X94835117Y-76200000D01*
X94818687Y-76366823D01*
X94770024Y-76527242D01*
X94699114Y-76659906D01*
X94691004Y-76675078D01*
X94584659Y-76804659D01*
X94455078Y-76911004D01*
X94455076Y-76911005D01*
X94307242Y-76990024D01*
X94146823Y-77038687D01*
X94021804Y-77051000D01*
X93938196Y-77051000D01*
X93813177Y-77038687D01*
X93652758Y-76990024D01*
X93504924Y-76911005D01*
X93504922Y-76911004D01*
X93375341Y-76804659D01*
X93268996Y-76675078D01*
X93260886Y-76659906D01*
X93189976Y-76527242D01*
X93141313Y-76366823D01*
X93124883Y-76200000D01*
X93141313Y-76033177D01*
X93189976Y-75872758D01*
X93268995Y-75724924D01*
X93268996Y-75724922D01*
X93375341Y-75595341D01*
X93504922Y-75488996D01*
X93577950Y-75449962D01*
X93652758Y-75409976D01*
X93813177Y-75361313D01*
X93938196Y-75349000D01*
X94021804Y-75349000D01*
X94146823Y-75361313D01*
X94146823Y-75361313D01*
G37*
G36*
X73613674Y-75333465D02*
G01*
X73651367Y-75344899D01*
X73686103Y-75363466D01*
X73716548Y-75388452D01*
X73741534Y-75418897D01*
X73760101Y-75453633D01*
X73771535Y-75491326D01*
X73776000Y-75536661D01*
X73776000Y-76373339D01*
X73771535Y-76418674D01*
X73760101Y-76456367D01*
X73741534Y-76491103D01*
X73716548Y-76521548D01*
X73686103Y-76546534D01*
X73651367Y-76565101D01*
X73613674Y-76576535D01*
X73568339Y-76581000D01*
X72481661Y-76581000D01*
X72436326Y-76576535D01*
X72398633Y-76565101D01*
X72363897Y-76546534D01*
X72333452Y-76521548D01*
X72308466Y-76491103D01*
X72289899Y-76456367D01*
X72278465Y-76418674D01*
X72274000Y-76373339D01*
X72274000Y-75536661D01*
X72278465Y-75491326D01*
X72289899Y-75453633D01*
X72308466Y-75418897D01*
X72333452Y-75388452D01*
X72363897Y-75363466D01*
X72398633Y-75344899D01*
X72436326Y-75333465D01*
X72481661Y-75329000D01*
X73568339Y-75329000D01*
X73613674Y-75333465D01*
X73613674Y-75333465D01*
G37*
G36*
X61126823Y-74726313D02*
G01*
X61287242Y-74774976D01*
X61399011Y-74834718D01*
X61435078Y-74853996D01*
X61564659Y-74960341D01*
X61671004Y-75089922D01*
X61671005Y-75089924D01*
X61750024Y-75237758D01*
X61798687Y-75398177D01*
X61815117Y-75565000D01*
X61798687Y-75731823D01*
X61750024Y-75892242D01*
X61679114Y-76024906D01*
X61671004Y-76040078D01*
X61564659Y-76169659D01*
X61435078Y-76276004D01*
X61435076Y-76276005D01*
X61287242Y-76355024D01*
X61126823Y-76403687D01*
X61001804Y-76416000D01*
X60918196Y-76416000D01*
X60793177Y-76403687D01*
X60632758Y-76355024D01*
X60484924Y-76276005D01*
X60484922Y-76276004D01*
X60355341Y-76169659D01*
X60248996Y-76040078D01*
X60240886Y-76024906D01*
X60169976Y-75892242D01*
X60121313Y-75731823D01*
X60104883Y-75565000D01*
X60121313Y-75398177D01*
X60169976Y-75237758D01*
X60248995Y-75089924D01*
X60248996Y-75089922D01*
X60355341Y-74960341D01*
X60484922Y-74853996D01*
X60520989Y-74834718D01*
X60632758Y-74774976D01*
X60793177Y-74726313D01*
X60918196Y-74714000D01*
X61001804Y-74714000D01*
X61126823Y-74726313D01*
X61126823Y-74726313D01*
G37*
G36*
X76366823Y-74726313D02*
G01*
X76527242Y-74774976D01*
X76639011Y-74834718D01*
X76675078Y-74853996D01*
X76804659Y-74960341D01*
X76911004Y-75089922D01*
X76911005Y-75089924D01*
X76990024Y-75237758D01*
X77038687Y-75398177D01*
X77055117Y-75565000D01*
X77038687Y-75731823D01*
X76990024Y-75892242D01*
X76919114Y-76024906D01*
X76911004Y-76040078D01*
X76804659Y-76169659D01*
X76675078Y-76276004D01*
X76675076Y-76276005D01*
X76527242Y-76355024D01*
X76366823Y-76403687D01*
X76241804Y-76416000D01*
X76158196Y-76416000D01*
X76033177Y-76403687D01*
X75872758Y-76355024D01*
X75724924Y-76276005D01*
X75724922Y-76276004D01*
X75595341Y-76169659D01*
X75488996Y-76040078D01*
X75480886Y-76024906D01*
X75409976Y-75892242D01*
X75361313Y-75731823D01*
X75344883Y-75565000D01*
X75361313Y-75398177D01*
X75409976Y-75237758D01*
X75488995Y-75089924D01*
X75488996Y-75089922D01*
X75595341Y-74960341D01*
X75724922Y-74853996D01*
X75760989Y-74834718D01*
X75872758Y-74774976D01*
X76033177Y-74726313D01*
X76158196Y-74714000D01*
X76241804Y-74714000D01*
X76366823Y-74726313D01*
X76366823Y-74726313D01*
G37*
G36*
X63666823Y-74726313D02*
G01*
X63827242Y-74774976D01*
X63939011Y-74834718D01*
X63975078Y-74853996D01*
X64104659Y-74960341D01*
X64211004Y-75089922D01*
X64211005Y-75089924D01*
X64290024Y-75237758D01*
X64338687Y-75398177D01*
X64355117Y-75565000D01*
X64338687Y-75731823D01*
X64290024Y-75892242D01*
X64219114Y-76024906D01*
X64211004Y-76040078D01*
X64104659Y-76169659D01*
X63975078Y-76276004D01*
X63975076Y-76276005D01*
X63827242Y-76355024D01*
X63666823Y-76403687D01*
X63541804Y-76416000D01*
X63458196Y-76416000D01*
X63333177Y-76403687D01*
X63172758Y-76355024D01*
X63024924Y-76276005D01*
X63024922Y-76276004D01*
X62895341Y-76169659D01*
X62788996Y-76040078D01*
X62780886Y-76024906D01*
X62709976Y-75892242D01*
X62661313Y-75731823D01*
X62644883Y-75565000D01*
X62661313Y-75398177D01*
X62709976Y-75237758D01*
X62788995Y-75089924D01*
X62788996Y-75089922D01*
X62895341Y-74960341D01*
X63024922Y-74853996D01*
X63060989Y-74834718D01*
X63172758Y-74774976D01*
X63333177Y-74726313D01*
X63458196Y-74714000D01*
X63541804Y-74714000D01*
X63666823Y-74726313D01*
X63666823Y-74726313D01*
G37*
G36*
X78906823Y-74726313D02*
G01*
X79067242Y-74774976D01*
X79179011Y-74834718D01*
X79215078Y-74853996D01*
X79344659Y-74960341D01*
X79451004Y-75089922D01*
X79451005Y-75089924D01*
X79530024Y-75237758D01*
X79578687Y-75398177D01*
X79595117Y-75565000D01*
X79578687Y-75731823D01*
X79530024Y-75892242D01*
X79459114Y-76024906D01*
X79451004Y-76040078D01*
X79344659Y-76169659D01*
X79215078Y-76276004D01*
X79215076Y-76276005D01*
X79067242Y-76355024D01*
X78906823Y-76403687D01*
X78781804Y-76416000D01*
X78698196Y-76416000D01*
X78573177Y-76403687D01*
X78412758Y-76355024D01*
X78264924Y-76276005D01*
X78264922Y-76276004D01*
X78135341Y-76169659D01*
X78028996Y-76040078D01*
X78020886Y-76024906D01*
X77949976Y-75892242D01*
X77901313Y-75731823D01*
X77884883Y-75565000D01*
X77901313Y-75398177D01*
X77949976Y-75237758D01*
X78028995Y-75089924D01*
X78028996Y-75089922D01*
X78135341Y-74960341D01*
X78264922Y-74853996D01*
X78300989Y-74834718D01*
X78412758Y-74774976D01*
X78573177Y-74726313D01*
X78698196Y-74714000D01*
X78781804Y-74714000D01*
X78906823Y-74726313D01*
X78906823Y-74726313D01*
G37*
G36*
X84038674Y-74818465D02*
G01*
X84076367Y-74829899D01*
X84111103Y-74848466D01*
X84141548Y-74873452D01*
X84166534Y-74903897D01*
X84185101Y-74938633D01*
X84196535Y-74976326D01*
X84201000Y-75021661D01*
X84201000Y-76108339D01*
X84196535Y-76153674D01*
X84185101Y-76191367D01*
X84166534Y-76226103D01*
X84141548Y-76256548D01*
X84111103Y-76281534D01*
X84076367Y-76300101D01*
X84038674Y-76311535D01*
X83993339Y-76316000D01*
X83156661Y-76316000D01*
X83111326Y-76311535D01*
X83073633Y-76300101D01*
X83038897Y-76281534D01*
X83008452Y-76256548D01*
X82983466Y-76226103D01*
X82964899Y-76191367D01*
X82953465Y-76153674D01*
X82949000Y-76108339D01*
X82949000Y-75021661D01*
X82953465Y-74976326D01*
X82964899Y-74938633D01*
X82983466Y-74903897D01*
X83008452Y-74873452D01*
X83038897Y-74848466D01*
X83073633Y-74829899D01*
X83111326Y-74818465D01*
X83156661Y-74814000D01*
X83993339Y-74814000D01*
X84038674Y-74818465D01*
X84038674Y-74818465D01*
G37*
G36*
X87068674Y-74818465D02*
G01*
X87106367Y-74829899D01*
X87141103Y-74848466D01*
X87171548Y-74873452D01*
X87196534Y-74903897D01*
X87215101Y-74938633D01*
X87226535Y-74976326D01*
X87231000Y-75021661D01*
X87231000Y-76108339D01*
X87226535Y-76153674D01*
X87215101Y-76191367D01*
X87196534Y-76226103D01*
X87171548Y-76256548D01*
X87141103Y-76281534D01*
X87106367Y-76300101D01*
X87068674Y-76311535D01*
X87023339Y-76316000D01*
X86186661Y-76316000D01*
X86141326Y-76311535D01*
X86103633Y-76300101D01*
X86068897Y-76281534D01*
X86038452Y-76256548D01*
X86013466Y-76226103D01*
X85994899Y-76191367D01*
X85983465Y-76153674D01*
X85979000Y-76108339D01*
X85979000Y-75021661D01*
X85983465Y-74976326D01*
X85994899Y-74938633D01*
X86013466Y-74903897D01*
X86038452Y-74873452D01*
X86068897Y-74848466D01*
X86103633Y-74829899D01*
X86141326Y-74818465D01*
X86186661Y-74814000D01*
X87023339Y-74814000D01*
X87068674Y-74818465D01*
X87068674Y-74818465D01*
G37*
G36*
X89118674Y-74818465D02*
G01*
X89156367Y-74829899D01*
X89191103Y-74848466D01*
X89221548Y-74873452D01*
X89246534Y-74903897D01*
X89265101Y-74938633D01*
X89276535Y-74976326D01*
X89281000Y-75021661D01*
X89281000Y-76108339D01*
X89276535Y-76153674D01*
X89265101Y-76191367D01*
X89246534Y-76226103D01*
X89221548Y-76256548D01*
X89191103Y-76281534D01*
X89156367Y-76300101D01*
X89118674Y-76311535D01*
X89073339Y-76316000D01*
X88236661Y-76316000D01*
X88191326Y-76311535D01*
X88153633Y-76300101D01*
X88118897Y-76281534D01*
X88088452Y-76256548D01*
X88063466Y-76226103D01*
X88044899Y-76191367D01*
X88033465Y-76153674D01*
X88029000Y-76108339D01*
X88029000Y-75021661D01*
X88033465Y-74976326D01*
X88044899Y-74938633D01*
X88063466Y-74903897D01*
X88088452Y-74873452D01*
X88118897Y-74848466D01*
X88153633Y-74829899D01*
X88191326Y-74818465D01*
X88236661Y-74814000D01*
X89073339Y-74814000D01*
X89118674Y-74818465D01*
X89118674Y-74818465D01*
G37*
G36*
X81988674Y-74818465D02*
G01*
X82026367Y-74829899D01*
X82061103Y-74848466D01*
X82091548Y-74873452D01*
X82116534Y-74903897D01*
X82135101Y-74938633D01*
X82146535Y-74976326D01*
X82151000Y-75021661D01*
X82151000Y-76108339D01*
X82146535Y-76153674D01*
X82135101Y-76191367D01*
X82116534Y-76226103D01*
X82091548Y-76256548D01*
X82061103Y-76281534D01*
X82026367Y-76300101D01*
X81988674Y-76311535D01*
X81943339Y-76316000D01*
X81106661Y-76316000D01*
X81061326Y-76311535D01*
X81023633Y-76300101D01*
X80988897Y-76281534D01*
X80958452Y-76256548D01*
X80933466Y-76226103D01*
X80914899Y-76191367D01*
X80903465Y-76153674D01*
X80899000Y-76108339D01*
X80899000Y-75021661D01*
X80903465Y-74976326D01*
X80914899Y-74938633D01*
X80933466Y-74903897D01*
X80958452Y-74873452D01*
X80988897Y-74848466D01*
X81023633Y-74829899D01*
X81061326Y-74818465D01*
X81106661Y-74814000D01*
X81943339Y-74814000D01*
X81988674Y-74818465D01*
X81988674Y-74818465D01*
G37*
G36*
X73613674Y-73283465D02*
G01*
X73651367Y-73294899D01*
X73686103Y-73313466D01*
X73716548Y-73338452D01*
X73741534Y-73368897D01*
X73760101Y-73403633D01*
X73771535Y-73441326D01*
X73776000Y-73486661D01*
X73776000Y-74323339D01*
X73771535Y-74368674D01*
X73760101Y-74406367D01*
X73741534Y-74441103D01*
X73716548Y-74471548D01*
X73686103Y-74496534D01*
X73651367Y-74515101D01*
X73613674Y-74526535D01*
X73568339Y-74531000D01*
X72481661Y-74531000D01*
X72436326Y-74526535D01*
X72398633Y-74515101D01*
X72363897Y-74496534D01*
X72333452Y-74471548D01*
X72308466Y-74441103D01*
X72289899Y-74406367D01*
X72278465Y-74368674D01*
X72274000Y-74323339D01*
X72274000Y-73486661D01*
X72278465Y-73441326D01*
X72289899Y-73403633D01*
X72308466Y-73368897D01*
X72333452Y-73338452D01*
X72363897Y-73313466D01*
X72398633Y-73294899D01*
X72436326Y-73283465D01*
X72481661Y-73279000D01*
X73568339Y-73279000D01*
X73613674Y-73283465D01*
X73613674Y-73283465D01*
G37*
G36*
X69168674Y-72793465D02*
G01*
X69206367Y-72804899D01*
X69241103Y-72823466D01*
X69271548Y-72848452D01*
X69296534Y-72878897D01*
X69315101Y-72913633D01*
X69326535Y-72951326D01*
X69331000Y-72996661D01*
X69331000Y-73833339D01*
X69326535Y-73878674D01*
X69315101Y-73916367D01*
X69296534Y-73951103D01*
X69271548Y-73981548D01*
X69241103Y-74006534D01*
X69206367Y-74025101D01*
X69168674Y-74036535D01*
X69123339Y-74041000D01*
X68036661Y-74041000D01*
X67991326Y-74036535D01*
X67953633Y-74025101D01*
X67918897Y-74006534D01*
X67888452Y-73981548D01*
X67863466Y-73951103D01*
X67844899Y-73916367D01*
X67833465Y-73878674D01*
X67829000Y-73833339D01*
X67829000Y-72996661D01*
X67833465Y-72951326D01*
X67844899Y-72913633D01*
X67863466Y-72878897D01*
X67888452Y-72848452D01*
X67918897Y-72823466D01*
X67953633Y-72804899D01*
X67991326Y-72793465D01*
X68036661Y-72789000D01*
X69123339Y-72789000D01*
X69168674Y-72793465D01*
X69168674Y-72793465D01*
G37*
G36*
X63666823Y-72186313D02*
G01*
X63827242Y-72234976D01*
X63959906Y-72305886D01*
X63975078Y-72313996D01*
X64104659Y-72420341D01*
X64211004Y-72549922D01*
X64211005Y-72549924D01*
X64290024Y-72697758D01*
X64338687Y-72858177D01*
X64355117Y-73025000D01*
X64338687Y-73191823D01*
X64290024Y-73352242D01*
X64219114Y-73484906D01*
X64211004Y-73500078D01*
X64104659Y-73629659D01*
X63975078Y-73736004D01*
X63975076Y-73736005D01*
X63827242Y-73815024D01*
X63666823Y-73863687D01*
X63541804Y-73876000D01*
X63458196Y-73876000D01*
X63333177Y-73863687D01*
X63172758Y-73815024D01*
X63024924Y-73736005D01*
X63024922Y-73736004D01*
X62895341Y-73629659D01*
X62788996Y-73500078D01*
X62780886Y-73484906D01*
X62709976Y-73352242D01*
X62661313Y-73191823D01*
X62644883Y-73025000D01*
X62661313Y-72858177D01*
X62709976Y-72697758D01*
X62788995Y-72549924D01*
X62788996Y-72549922D01*
X62895341Y-72420341D01*
X63024922Y-72313996D01*
X63040094Y-72305886D01*
X63172758Y-72234976D01*
X63333177Y-72186313D01*
X63458196Y-72174000D01*
X63541804Y-72174000D01*
X63666823Y-72186313D01*
X63666823Y-72186313D01*
G37*
G36*
X61126823Y-72186313D02*
G01*
X61287242Y-72234976D01*
X61419906Y-72305886D01*
X61435078Y-72313996D01*
X61564659Y-72420341D01*
X61671004Y-72549922D01*
X61671005Y-72549924D01*
X61750024Y-72697758D01*
X61798687Y-72858177D01*
X61815117Y-73025000D01*
X61798687Y-73191823D01*
X61750024Y-73352242D01*
X61679114Y-73484906D01*
X61671004Y-73500078D01*
X61564659Y-73629659D01*
X61435078Y-73736004D01*
X61435076Y-73736005D01*
X61287242Y-73815024D01*
X61126823Y-73863687D01*
X61001804Y-73876000D01*
X60918196Y-73876000D01*
X60793177Y-73863687D01*
X60632758Y-73815024D01*
X60484924Y-73736005D01*
X60484922Y-73736004D01*
X60355341Y-73629659D01*
X60248996Y-73500078D01*
X60240886Y-73484906D01*
X60169976Y-73352242D01*
X60121313Y-73191823D01*
X60104883Y-73025000D01*
X60121313Y-72858177D01*
X60169976Y-72697758D01*
X60248995Y-72549924D01*
X60248996Y-72549922D01*
X60355341Y-72420341D01*
X60484922Y-72313996D01*
X60500094Y-72305886D01*
X60632758Y-72234976D01*
X60793177Y-72186313D01*
X60918196Y-72174000D01*
X61001804Y-72174000D01*
X61126823Y-72186313D01*
X61126823Y-72186313D01*
G37*
G36*
X76366823Y-72186313D02*
G01*
X76527242Y-72234976D01*
X76659906Y-72305886D01*
X76675078Y-72313996D01*
X76804659Y-72420341D01*
X76911004Y-72549922D01*
X76911005Y-72549924D01*
X76990024Y-72697758D01*
X77038687Y-72858177D01*
X77055117Y-73025000D01*
X77038687Y-73191823D01*
X76990024Y-73352242D01*
X76919114Y-73484906D01*
X76911004Y-73500078D01*
X76804659Y-73629659D01*
X76675078Y-73736004D01*
X76675076Y-73736005D01*
X76527242Y-73815024D01*
X76366823Y-73863687D01*
X76241804Y-73876000D01*
X76158196Y-73876000D01*
X76033177Y-73863687D01*
X75872758Y-73815024D01*
X75724924Y-73736005D01*
X75724922Y-73736004D01*
X75595341Y-73629659D01*
X75488996Y-73500078D01*
X75480886Y-73484906D01*
X75409976Y-73352242D01*
X75361313Y-73191823D01*
X75344883Y-73025000D01*
X75361313Y-72858177D01*
X75409976Y-72697758D01*
X75488995Y-72549924D01*
X75488996Y-72549922D01*
X75595341Y-72420341D01*
X75724922Y-72313996D01*
X75740094Y-72305886D01*
X75872758Y-72234976D01*
X76033177Y-72186313D01*
X76158196Y-72174000D01*
X76241804Y-72174000D01*
X76366823Y-72186313D01*
X76366823Y-72186313D01*
G37*
G36*
X78906823Y-72186313D02*
G01*
X79067242Y-72234976D01*
X79199906Y-72305886D01*
X79215078Y-72313996D01*
X79344659Y-72420341D01*
X79451004Y-72549922D01*
X79451005Y-72549924D01*
X79530024Y-72697758D01*
X79578687Y-72858177D01*
X79595117Y-73025000D01*
X79578687Y-73191823D01*
X79530024Y-73352242D01*
X79459114Y-73484906D01*
X79451004Y-73500078D01*
X79344659Y-73629659D01*
X79215078Y-73736004D01*
X79215076Y-73736005D01*
X79067242Y-73815024D01*
X78906823Y-73863687D01*
X78781804Y-73876000D01*
X78698196Y-73876000D01*
X78573177Y-73863687D01*
X78412758Y-73815024D01*
X78264924Y-73736005D01*
X78264922Y-73736004D01*
X78135341Y-73629659D01*
X78028996Y-73500078D01*
X78020886Y-73484906D01*
X77949976Y-73352242D01*
X77901313Y-73191823D01*
X77884883Y-73025000D01*
X77901313Y-72858177D01*
X77949976Y-72697758D01*
X78028995Y-72549924D01*
X78028996Y-72549922D01*
X78135341Y-72420341D01*
X78264922Y-72313996D01*
X78280094Y-72305886D01*
X78412758Y-72234976D01*
X78573177Y-72186313D01*
X78698196Y-72174000D01*
X78781804Y-72174000D01*
X78906823Y-72186313D01*
X78906823Y-72186313D01*
G37*
G36*
X69168674Y-70743465D02*
G01*
X69206367Y-70754899D01*
X69241103Y-70773466D01*
X69271548Y-70798452D01*
X69296534Y-70828897D01*
X69315101Y-70863633D01*
X69326535Y-70901326D01*
X69331000Y-70946661D01*
X69331000Y-71783339D01*
X69326535Y-71828674D01*
X69315101Y-71866367D01*
X69296534Y-71901103D01*
X69271548Y-71931548D01*
X69241103Y-71956534D01*
X69206367Y-71975101D01*
X69168674Y-71986535D01*
X69123339Y-71991000D01*
X68036661Y-71991000D01*
X67991326Y-71986535D01*
X67953633Y-71975101D01*
X67918897Y-71956534D01*
X67888452Y-71931548D01*
X67863466Y-71901103D01*
X67844899Y-71866367D01*
X67833465Y-71828674D01*
X67829000Y-71783339D01*
X67829000Y-70946661D01*
X67833465Y-70901326D01*
X67844899Y-70863633D01*
X67863466Y-70828897D01*
X67888452Y-70798452D01*
X67918897Y-70773466D01*
X67953633Y-70754899D01*
X67991326Y-70743465D01*
X68036661Y-70739000D01*
X69123339Y-70739000D01*
X69168674Y-70743465D01*
X69168674Y-70743465D01*
G37*
G36*
X88390589Y-70358876D02*
G01*
X88489893Y-70378629D01*
X88630206Y-70436748D01*
X88756484Y-70521125D01*
X88863875Y-70628516D01*
X88948252Y-70754794D01*
X89006371Y-70895107D01*
X89018896Y-70958075D01*
X89036000Y-71044062D01*
X89036000Y-71195938D01*
X89026124Y-71245589D01*
X89006371Y-71344893D01*
X88948252Y-71485206D01*
X88863875Y-71611484D01*
X88756484Y-71718875D01*
X88630206Y-71803252D01*
X88489893Y-71861371D01*
X88390589Y-71881124D01*
X88340938Y-71891000D01*
X88189062Y-71891000D01*
X88139411Y-71881124D01*
X88040107Y-71861371D01*
X87899794Y-71803252D01*
X87773516Y-71718875D01*
X87666125Y-71611484D01*
X87581748Y-71485206D01*
X87523629Y-71344893D01*
X87503876Y-71245589D01*
X87494000Y-71195938D01*
X87494000Y-71044062D01*
X87511104Y-70958075D01*
X87523629Y-70895107D01*
X87581748Y-70754794D01*
X87666125Y-70628516D01*
X87773516Y-70521125D01*
X87899794Y-70436748D01*
X88040107Y-70378629D01*
X88139411Y-70358876D01*
X88189062Y-70349000D01*
X88340938Y-70349000D01*
X88390589Y-70358876D01*
X88390589Y-70358876D01*
G37*
G36*
X85850589Y-70358876D02*
G01*
X85949893Y-70378629D01*
X86090206Y-70436748D01*
X86216484Y-70521125D01*
X86323875Y-70628516D01*
X86408252Y-70754794D01*
X86466371Y-70895107D01*
X86478896Y-70958075D01*
X86496000Y-71044062D01*
X86496000Y-71195938D01*
X86486124Y-71245589D01*
X86466371Y-71344893D01*
X86408252Y-71485206D01*
X86323875Y-71611484D01*
X86216484Y-71718875D01*
X86090206Y-71803252D01*
X85949893Y-71861371D01*
X85850589Y-71881124D01*
X85800938Y-71891000D01*
X85649062Y-71891000D01*
X85599411Y-71881124D01*
X85500107Y-71861371D01*
X85359794Y-71803252D01*
X85233516Y-71718875D01*
X85126125Y-71611484D01*
X85041748Y-71485206D01*
X84983629Y-71344893D01*
X84963876Y-71245589D01*
X84954000Y-71195938D01*
X84954000Y-71044062D01*
X84971104Y-70958075D01*
X84983629Y-70895107D01*
X85041748Y-70754794D01*
X85126125Y-70628516D01*
X85233516Y-70521125D01*
X85359794Y-70436748D01*
X85500107Y-70378629D01*
X85599411Y-70358876D01*
X85649062Y-70349000D01*
X85800938Y-70349000D01*
X85850589Y-70358876D01*
X85850589Y-70358876D01*
G37*
G36*
X83310589Y-70358876D02*
G01*
X83409893Y-70378629D01*
X83550206Y-70436748D01*
X83676484Y-70521125D01*
X83783875Y-70628516D01*
X83868252Y-70754794D01*
X83926371Y-70895107D01*
X83938896Y-70958075D01*
X83956000Y-71044062D01*
X83956000Y-71195938D01*
X83946124Y-71245589D01*
X83926371Y-71344893D01*
X83868252Y-71485206D01*
X83783875Y-71611484D01*
X83676484Y-71718875D01*
X83550206Y-71803252D01*
X83409893Y-71861371D01*
X83310589Y-71881124D01*
X83260938Y-71891000D01*
X83109062Y-71891000D01*
X83059411Y-71881124D01*
X82960107Y-71861371D01*
X82819794Y-71803252D01*
X82693516Y-71718875D01*
X82586125Y-71611484D01*
X82501748Y-71485206D01*
X82443629Y-71344893D01*
X82423876Y-71245589D01*
X82414000Y-71195938D01*
X82414000Y-71044062D01*
X82431104Y-70958075D01*
X82443629Y-70895107D01*
X82501748Y-70754794D01*
X82586125Y-70628516D01*
X82693516Y-70521125D01*
X82819794Y-70436748D01*
X82960107Y-70378629D01*
X83059411Y-70358876D01*
X83109062Y-70349000D01*
X83260938Y-70349000D01*
X83310589Y-70358876D01*
X83310589Y-70358876D01*
G37*
G36*
X76366823Y-69646313D02*
G01*
X76527242Y-69694976D01*
X76659906Y-69765886D01*
X76675078Y-69773996D01*
X76804659Y-69880341D01*
X76911004Y-70009922D01*
X76911005Y-70009924D01*
X76990024Y-70157758D01*
X77038687Y-70318177D01*
X77055117Y-70485000D01*
X77038687Y-70651823D01*
X76990024Y-70812242D01*
X76919114Y-70944906D01*
X76911004Y-70960078D01*
X76804659Y-71089659D01*
X76675078Y-71196004D01*
X76675076Y-71196005D01*
X76527242Y-71275024D01*
X76366823Y-71323687D01*
X76241804Y-71336000D01*
X76158196Y-71336000D01*
X76033177Y-71323687D01*
X75872758Y-71275024D01*
X75724924Y-71196005D01*
X75724922Y-71196004D01*
X75595341Y-71089659D01*
X75488996Y-70960078D01*
X75480886Y-70944906D01*
X75409976Y-70812242D01*
X75361313Y-70651823D01*
X75344883Y-70485000D01*
X75361313Y-70318177D01*
X75409976Y-70157758D01*
X75488995Y-70009924D01*
X75488996Y-70009922D01*
X75595341Y-69880341D01*
X75724922Y-69773996D01*
X75740094Y-69765886D01*
X75872758Y-69694976D01*
X76033177Y-69646313D01*
X76158196Y-69634000D01*
X76241804Y-69634000D01*
X76366823Y-69646313D01*
X76366823Y-69646313D01*
G37*
G36*
X63666823Y-69646313D02*
G01*
X63827242Y-69694976D01*
X63959906Y-69765886D01*
X63975078Y-69773996D01*
X64104659Y-69880341D01*
X64211004Y-70009922D01*
X64211005Y-70009924D01*
X64290024Y-70157758D01*
X64338687Y-70318177D01*
X64355117Y-70485000D01*
X64338687Y-70651823D01*
X64290024Y-70812242D01*
X64219114Y-70944906D01*
X64211004Y-70960078D01*
X64104659Y-71089659D01*
X63975078Y-71196004D01*
X63975076Y-71196005D01*
X63827242Y-71275024D01*
X63666823Y-71323687D01*
X63541804Y-71336000D01*
X63458196Y-71336000D01*
X63333177Y-71323687D01*
X63172758Y-71275024D01*
X63024924Y-71196005D01*
X63024922Y-71196004D01*
X62895341Y-71089659D01*
X62788996Y-70960078D01*
X62780886Y-70944906D01*
X62709976Y-70812242D01*
X62661313Y-70651823D01*
X62644883Y-70485000D01*
X62661313Y-70318177D01*
X62709976Y-70157758D01*
X62788995Y-70009924D01*
X62788996Y-70009922D01*
X62895341Y-69880341D01*
X63024922Y-69773996D01*
X63040094Y-69765886D01*
X63172758Y-69694976D01*
X63333177Y-69646313D01*
X63458196Y-69634000D01*
X63541804Y-69634000D01*
X63666823Y-69646313D01*
X63666823Y-69646313D01*
G37*
G36*
X78906823Y-69646313D02*
G01*
X79067242Y-69694976D01*
X79199906Y-69765886D01*
X79215078Y-69773996D01*
X79344659Y-69880341D01*
X79451004Y-70009922D01*
X79451005Y-70009924D01*
X79530024Y-70157758D01*
X79578687Y-70318177D01*
X79595117Y-70485000D01*
X79578687Y-70651823D01*
X79530024Y-70812242D01*
X79459114Y-70944906D01*
X79451004Y-70960078D01*
X79344659Y-71089659D01*
X79215078Y-71196004D01*
X79215076Y-71196005D01*
X79067242Y-71275024D01*
X78906823Y-71323687D01*
X78781804Y-71336000D01*
X78698196Y-71336000D01*
X78573177Y-71323687D01*
X78412758Y-71275024D01*
X78264924Y-71196005D01*
X78264922Y-71196004D01*
X78135341Y-71089659D01*
X78028996Y-70960078D01*
X78020886Y-70944906D01*
X77949976Y-70812242D01*
X77901313Y-70651823D01*
X77884883Y-70485000D01*
X77901313Y-70318177D01*
X77949976Y-70157758D01*
X78028995Y-70009924D01*
X78028996Y-70009922D01*
X78135341Y-69880341D01*
X78264922Y-69773996D01*
X78280094Y-69765886D01*
X78412758Y-69694976D01*
X78573177Y-69646313D01*
X78698196Y-69634000D01*
X78781804Y-69634000D01*
X78906823Y-69646313D01*
X78906823Y-69646313D01*
G37*
G36*
X61126823Y-69646313D02*
G01*
X61287242Y-69694976D01*
X61419906Y-69765886D01*
X61435078Y-69773996D01*
X61564659Y-69880341D01*
X61671004Y-70009922D01*
X61671005Y-70009924D01*
X61750024Y-70157758D01*
X61798687Y-70318177D01*
X61815117Y-70485000D01*
X61798687Y-70651823D01*
X61750024Y-70812242D01*
X61679114Y-70944906D01*
X61671004Y-70960078D01*
X61564659Y-71089659D01*
X61435078Y-71196004D01*
X61435076Y-71196005D01*
X61287242Y-71275024D01*
X61126823Y-71323687D01*
X61001804Y-71336000D01*
X60918196Y-71336000D01*
X60793177Y-71323687D01*
X60632758Y-71275024D01*
X60484924Y-71196005D01*
X60484922Y-71196004D01*
X60355341Y-71089659D01*
X60248996Y-70960078D01*
X60240886Y-70944906D01*
X60169976Y-70812242D01*
X60121313Y-70651823D01*
X60104883Y-70485000D01*
X60121313Y-70318177D01*
X60169976Y-70157758D01*
X60248995Y-70009924D01*
X60248996Y-70009922D01*
X60355341Y-69880341D01*
X60484922Y-69773996D01*
X60500094Y-69765886D01*
X60632758Y-69694976D01*
X60793177Y-69646313D01*
X60918196Y-69634000D01*
X61001804Y-69634000D01*
X61126823Y-69646313D01*
X61126823Y-69646313D01*
G37*
G36*
X94228228Y-67761703D02*
G01*
X94383100Y-67825853D01*
X94522481Y-67918985D01*
X94641015Y-68037519D01*
X94734147Y-68176900D01*
X94798297Y-68331772D01*
X94831000Y-68496184D01*
X94831000Y-68663816D01*
X94798297Y-68828228D01*
X94734147Y-68983100D01*
X94641015Y-69122481D01*
X94522481Y-69241015D01*
X94383100Y-69334147D01*
X94228228Y-69398297D01*
X94063816Y-69431000D01*
X93896184Y-69431000D01*
X93731772Y-69398297D01*
X93576900Y-69334147D01*
X93437519Y-69241015D01*
X93318985Y-69122481D01*
X93225853Y-68983100D01*
X93161703Y-68828228D01*
X93129000Y-68663816D01*
X93129000Y-68496184D01*
X93161703Y-68331772D01*
X93225853Y-68176900D01*
X93318985Y-68037519D01*
X93437519Y-67918985D01*
X93576900Y-67825853D01*
X93731772Y-67761703D01*
X93896184Y-67729000D01*
X94063816Y-67729000D01*
X94228228Y-67761703D01*
X94228228Y-67761703D01*
G37*
G36*
X63666823Y-67106313D02*
G01*
X63827242Y-67154976D01*
X63959906Y-67225886D01*
X63975078Y-67233996D01*
X64104659Y-67340341D01*
X64211004Y-67469922D01*
X64211005Y-67469924D01*
X64290024Y-67617758D01*
X64338687Y-67778177D01*
X64355117Y-67945000D01*
X64338687Y-68111823D01*
X64290024Y-68272242D01*
X64219114Y-68404906D01*
X64211004Y-68420078D01*
X64104659Y-68549659D01*
X63975078Y-68656004D01*
X63975076Y-68656005D01*
X63827242Y-68735024D01*
X63666823Y-68783687D01*
X63541804Y-68796000D01*
X63458196Y-68796000D01*
X63333177Y-68783687D01*
X63172758Y-68735024D01*
X63024924Y-68656005D01*
X63024922Y-68656004D01*
X62895341Y-68549659D01*
X62788996Y-68420078D01*
X62780886Y-68404906D01*
X62709976Y-68272242D01*
X62661313Y-68111823D01*
X62644883Y-67945000D01*
X62661313Y-67778177D01*
X62709976Y-67617758D01*
X62788995Y-67469924D01*
X62788996Y-67469922D01*
X62895341Y-67340341D01*
X63024922Y-67233996D01*
X63040094Y-67225886D01*
X63172758Y-67154976D01*
X63333177Y-67106313D01*
X63458196Y-67094000D01*
X63541804Y-67094000D01*
X63666823Y-67106313D01*
X63666823Y-67106313D01*
G37*
G36*
X76366823Y-67106313D02*
G01*
X76527242Y-67154976D01*
X76659906Y-67225886D01*
X76675078Y-67233996D01*
X76804659Y-67340341D01*
X76911004Y-67469922D01*
X76911005Y-67469924D01*
X76990024Y-67617758D01*
X77038687Y-67778177D01*
X77055117Y-67945000D01*
X77038687Y-68111823D01*
X76990024Y-68272242D01*
X76919114Y-68404906D01*
X76911004Y-68420078D01*
X76804659Y-68549659D01*
X76675078Y-68656004D01*
X76675076Y-68656005D01*
X76527242Y-68735024D01*
X76366823Y-68783687D01*
X76241804Y-68796000D01*
X76158196Y-68796000D01*
X76033177Y-68783687D01*
X75872758Y-68735024D01*
X75724924Y-68656005D01*
X75724922Y-68656004D01*
X75595341Y-68549659D01*
X75488996Y-68420078D01*
X75480886Y-68404906D01*
X75409976Y-68272242D01*
X75361313Y-68111823D01*
X75344883Y-67945000D01*
X75361313Y-67778177D01*
X75409976Y-67617758D01*
X75488995Y-67469924D01*
X75488996Y-67469922D01*
X75595341Y-67340341D01*
X75724922Y-67233996D01*
X75740094Y-67225886D01*
X75872758Y-67154976D01*
X76033177Y-67106313D01*
X76158196Y-67094000D01*
X76241804Y-67094000D01*
X76366823Y-67106313D01*
X76366823Y-67106313D01*
G37*
G36*
X61126823Y-67106313D02*
G01*
X61287242Y-67154976D01*
X61419906Y-67225886D01*
X61435078Y-67233996D01*
X61564659Y-67340341D01*
X61671004Y-67469922D01*
X61671005Y-67469924D01*
X61750024Y-67617758D01*
X61798687Y-67778177D01*
X61815117Y-67945000D01*
X61798687Y-68111823D01*
X61750024Y-68272242D01*
X61679114Y-68404906D01*
X61671004Y-68420078D01*
X61564659Y-68549659D01*
X61435078Y-68656004D01*
X61435076Y-68656005D01*
X61287242Y-68735024D01*
X61126823Y-68783687D01*
X61001804Y-68796000D01*
X60918196Y-68796000D01*
X60793177Y-68783687D01*
X60632758Y-68735024D01*
X60484924Y-68656005D01*
X60484922Y-68656004D01*
X60355341Y-68549659D01*
X60248996Y-68420078D01*
X60240886Y-68404906D01*
X60169976Y-68272242D01*
X60121313Y-68111823D01*
X60104883Y-67945000D01*
X60121313Y-67778177D01*
X60169976Y-67617758D01*
X60248995Y-67469924D01*
X60248996Y-67469922D01*
X60355341Y-67340341D01*
X60484922Y-67233996D01*
X60500094Y-67225886D01*
X60632758Y-67154976D01*
X60793177Y-67106313D01*
X60918196Y-67094000D01*
X61001804Y-67094000D01*
X61126823Y-67106313D01*
X61126823Y-67106313D01*
G37*
G36*
X78906823Y-67106313D02*
G01*
X79067242Y-67154976D01*
X79199906Y-67225886D01*
X79215078Y-67233996D01*
X79344659Y-67340341D01*
X79451004Y-67469922D01*
X79451005Y-67469924D01*
X79530024Y-67617758D01*
X79578687Y-67778177D01*
X79595117Y-67945000D01*
X79578687Y-68111823D01*
X79530024Y-68272242D01*
X79459114Y-68404906D01*
X79451004Y-68420078D01*
X79344659Y-68549659D01*
X79215078Y-68656004D01*
X79215076Y-68656005D01*
X79067242Y-68735024D01*
X78906823Y-68783687D01*
X78781804Y-68796000D01*
X78698196Y-68796000D01*
X78573177Y-68783687D01*
X78412758Y-68735024D01*
X78264924Y-68656005D01*
X78264922Y-68656004D01*
X78135341Y-68549659D01*
X78028996Y-68420078D01*
X78020886Y-68404906D01*
X77949976Y-68272242D01*
X77901313Y-68111823D01*
X77884883Y-67945000D01*
X77901313Y-67778177D01*
X77949976Y-67617758D01*
X78028995Y-67469924D01*
X78028996Y-67469922D01*
X78135341Y-67340341D01*
X78264922Y-67233996D01*
X78280094Y-67225886D01*
X78412758Y-67154976D01*
X78573177Y-67106313D01*
X78698196Y-67094000D01*
X78781804Y-67094000D01*
X78906823Y-67106313D01*
X78906823Y-67106313D01*
G37*
G36*
X94146823Y-65201313D02*
G01*
X94307242Y-65249976D01*
X94439906Y-65320886D01*
X94455078Y-65328996D01*
X94584659Y-65435341D01*
X94691004Y-65564922D01*
X94691005Y-65564924D01*
X94770024Y-65712758D01*
X94818687Y-65873177D01*
X94835117Y-66040000D01*
X94818687Y-66206823D01*
X94770024Y-66367242D01*
X94699114Y-66499906D01*
X94691004Y-66515078D01*
X94584659Y-66644659D01*
X94455078Y-66751004D01*
X94455076Y-66751005D01*
X94307242Y-66830024D01*
X94146823Y-66878687D01*
X94021804Y-66891000D01*
X93938196Y-66891000D01*
X93813177Y-66878687D01*
X93652758Y-66830024D01*
X93504924Y-66751005D01*
X93504922Y-66751004D01*
X93375341Y-66644659D01*
X93268996Y-66515078D01*
X93260886Y-66499906D01*
X93189976Y-66367242D01*
X93141313Y-66206823D01*
X93124883Y-66040000D01*
X93141313Y-65873177D01*
X93189976Y-65712758D01*
X93268995Y-65564924D01*
X93268996Y-65564922D01*
X93375341Y-65435341D01*
X93504922Y-65328996D01*
X93520094Y-65320886D01*
X93652758Y-65249976D01*
X93813177Y-65201313D01*
X93938196Y-65189000D01*
X94021804Y-65189000D01*
X94146823Y-65201313D01*
X94146823Y-65201313D01*
G37*
G36*
X76366823Y-64566313D02*
G01*
X76527242Y-64614976D01*
X76659906Y-64685886D01*
X76675078Y-64693996D01*
X76804659Y-64800341D01*
X76911004Y-64929922D01*
X76911005Y-64929924D01*
X76990024Y-65077758D01*
X77038687Y-65238177D01*
X77055117Y-65405000D01*
X77038687Y-65571823D01*
X76990024Y-65732242D01*
X76919114Y-65864906D01*
X76911004Y-65880078D01*
X76804659Y-66009659D01*
X76675078Y-66116004D01*
X76675076Y-66116005D01*
X76527242Y-66195024D01*
X76366823Y-66243687D01*
X76241804Y-66256000D01*
X76158196Y-66256000D01*
X76033177Y-66243687D01*
X75872758Y-66195024D01*
X75724924Y-66116005D01*
X75724922Y-66116004D01*
X75595341Y-66009659D01*
X75488996Y-65880078D01*
X75480886Y-65864906D01*
X75409976Y-65732242D01*
X75361313Y-65571823D01*
X75344883Y-65405000D01*
X75361313Y-65238177D01*
X75409976Y-65077758D01*
X75488995Y-64929924D01*
X75488996Y-64929922D01*
X75595341Y-64800341D01*
X75724922Y-64693996D01*
X75740094Y-64685886D01*
X75872758Y-64614976D01*
X76033177Y-64566313D01*
X76158196Y-64554000D01*
X76241804Y-64554000D01*
X76366823Y-64566313D01*
X76366823Y-64566313D01*
G37*
G36*
X61126823Y-64566313D02*
G01*
X61287242Y-64614976D01*
X61419906Y-64685886D01*
X61435078Y-64693996D01*
X61564659Y-64800341D01*
X61671004Y-64929922D01*
X61671005Y-64929924D01*
X61750024Y-65077758D01*
X61798687Y-65238177D01*
X61815117Y-65405000D01*
X61798687Y-65571823D01*
X61750024Y-65732242D01*
X61679114Y-65864906D01*
X61671004Y-65880078D01*
X61564659Y-66009659D01*
X61435078Y-66116004D01*
X61435076Y-66116005D01*
X61287242Y-66195024D01*
X61126823Y-66243687D01*
X61001804Y-66256000D01*
X60918196Y-66256000D01*
X60793177Y-66243687D01*
X60632758Y-66195024D01*
X60484924Y-66116005D01*
X60484922Y-66116004D01*
X60355341Y-66009659D01*
X60248996Y-65880078D01*
X60240886Y-65864906D01*
X60169976Y-65732242D01*
X60121313Y-65571823D01*
X60104883Y-65405000D01*
X60121313Y-65238177D01*
X60169976Y-65077758D01*
X60248995Y-64929924D01*
X60248996Y-64929922D01*
X60355341Y-64800341D01*
X60484922Y-64693996D01*
X60500094Y-64685886D01*
X60632758Y-64614976D01*
X60793177Y-64566313D01*
X60918196Y-64554000D01*
X61001804Y-64554000D01*
X61126823Y-64566313D01*
X61126823Y-64566313D01*
G37*
G36*
X78906823Y-64566313D02*
G01*
X79067242Y-64614976D01*
X79199906Y-64685886D01*
X79215078Y-64693996D01*
X79344659Y-64800341D01*
X79451004Y-64929922D01*
X79451005Y-64929924D01*
X79530024Y-65077758D01*
X79578687Y-65238177D01*
X79595117Y-65405000D01*
X79578687Y-65571823D01*
X79530024Y-65732242D01*
X79459114Y-65864906D01*
X79451004Y-65880078D01*
X79344659Y-66009659D01*
X79215078Y-66116004D01*
X79215076Y-66116005D01*
X79067242Y-66195024D01*
X78906823Y-66243687D01*
X78781804Y-66256000D01*
X78698196Y-66256000D01*
X78573177Y-66243687D01*
X78412758Y-66195024D01*
X78264924Y-66116005D01*
X78264922Y-66116004D01*
X78135341Y-66009659D01*
X78028996Y-65880078D01*
X78020886Y-65864906D01*
X77949976Y-65732242D01*
X77901313Y-65571823D01*
X77884883Y-65405000D01*
X77901313Y-65238177D01*
X77949976Y-65077758D01*
X78028995Y-64929924D01*
X78028996Y-64929922D01*
X78135341Y-64800341D01*
X78264922Y-64693996D01*
X78280094Y-64685886D01*
X78412758Y-64614976D01*
X78573177Y-64566313D01*
X78698196Y-64554000D01*
X78781804Y-64554000D01*
X78906823Y-64566313D01*
X78906823Y-64566313D01*
G37*
G36*
X63666823Y-64566313D02*
G01*
X63827242Y-64614976D01*
X63959906Y-64685886D01*
X63975078Y-64693996D01*
X64104659Y-64800341D01*
X64211004Y-64929922D01*
X64211005Y-64929924D01*
X64290024Y-65077758D01*
X64338687Y-65238177D01*
X64355117Y-65405000D01*
X64338687Y-65571823D01*
X64290024Y-65732242D01*
X64219114Y-65864906D01*
X64211004Y-65880078D01*
X64104659Y-66009659D01*
X63975078Y-66116004D01*
X63975076Y-66116005D01*
X63827242Y-66195024D01*
X63666823Y-66243687D01*
X63541804Y-66256000D01*
X63458196Y-66256000D01*
X63333177Y-66243687D01*
X63172758Y-66195024D01*
X63024924Y-66116005D01*
X63024922Y-66116004D01*
X62895341Y-66009659D01*
X62788996Y-65880078D01*
X62780886Y-65864906D01*
X62709976Y-65732242D01*
X62661313Y-65571823D01*
X62644883Y-65405000D01*
X62661313Y-65238177D01*
X62709976Y-65077758D01*
X62788995Y-64929924D01*
X62788996Y-64929922D01*
X62895341Y-64800341D01*
X63024922Y-64693996D01*
X63040094Y-64685886D01*
X63172758Y-64614976D01*
X63333177Y-64566313D01*
X63458196Y-64554000D01*
X63541804Y-64554000D01*
X63666823Y-64566313D01*
X63666823Y-64566313D01*
G37*
G36*
X88390589Y-64008876D02*
G01*
X88489893Y-64028629D01*
X88630206Y-64086748D01*
X88756484Y-64171125D01*
X88863875Y-64278516D01*
X88948252Y-64404794D01*
X89006371Y-64545107D01*
X89020269Y-64614976D01*
X89035987Y-64693995D01*
X89036000Y-64694063D01*
X89036000Y-64845937D01*
X89006371Y-64994893D01*
X88948252Y-65135206D01*
X88863875Y-65261484D01*
X88756484Y-65368875D01*
X88630206Y-65453252D01*
X88489893Y-65511371D01*
X88390589Y-65531124D01*
X88340938Y-65541000D01*
X88189062Y-65541000D01*
X88139411Y-65531124D01*
X88040107Y-65511371D01*
X87899794Y-65453252D01*
X87773516Y-65368875D01*
X87666125Y-65261484D01*
X87581748Y-65135206D01*
X87523629Y-64994893D01*
X87494000Y-64845937D01*
X87494000Y-64694063D01*
X87494014Y-64693995D01*
X87509731Y-64614976D01*
X87523629Y-64545107D01*
X87581748Y-64404794D01*
X87666125Y-64278516D01*
X87773516Y-64171125D01*
X87899794Y-64086748D01*
X88040107Y-64028629D01*
X88139411Y-64008876D01*
X88189062Y-63999000D01*
X88340938Y-63999000D01*
X88390589Y-64008876D01*
X88390589Y-64008876D01*
G37*
G36*
X83310589Y-64008876D02*
G01*
X83409893Y-64028629D01*
X83550206Y-64086748D01*
X83676484Y-64171125D01*
X83783875Y-64278516D01*
X83868252Y-64404794D01*
X83926371Y-64545107D01*
X83940269Y-64614976D01*
X83955987Y-64693995D01*
X83956000Y-64694063D01*
X83956000Y-64845937D01*
X83926371Y-64994893D01*
X83868252Y-65135206D01*
X83783875Y-65261484D01*
X83676484Y-65368875D01*
X83550206Y-65453252D01*
X83409893Y-65511371D01*
X83310589Y-65531124D01*
X83260938Y-65541000D01*
X83109062Y-65541000D01*
X83059411Y-65531124D01*
X82960107Y-65511371D01*
X82819794Y-65453252D01*
X82693516Y-65368875D01*
X82586125Y-65261484D01*
X82501748Y-65135206D01*
X82443629Y-64994893D01*
X82414000Y-64845937D01*
X82414000Y-64694063D01*
X82414014Y-64693995D01*
X82429731Y-64614976D01*
X82443629Y-64545107D01*
X82501748Y-64404794D01*
X82586125Y-64278516D01*
X82693516Y-64171125D01*
X82819794Y-64086748D01*
X82960107Y-64028629D01*
X83059411Y-64008876D01*
X83109062Y-63999000D01*
X83260938Y-63999000D01*
X83310589Y-64008876D01*
X83310589Y-64008876D01*
G37*
G36*
X85850589Y-64008876D02*
G01*
X85949893Y-64028629D01*
X86090206Y-64086748D01*
X86216484Y-64171125D01*
X86323875Y-64278516D01*
X86408252Y-64404794D01*
X86466371Y-64545107D01*
X86480269Y-64614976D01*
X86495987Y-64693995D01*
X86496000Y-64694063D01*
X86496000Y-64845937D01*
X86466371Y-64994893D01*
X86408252Y-65135206D01*
X86323875Y-65261484D01*
X86216484Y-65368875D01*
X86090206Y-65453252D01*
X85949893Y-65511371D01*
X85850589Y-65531124D01*
X85800938Y-65541000D01*
X85649062Y-65541000D01*
X85599411Y-65531124D01*
X85500107Y-65511371D01*
X85359794Y-65453252D01*
X85233516Y-65368875D01*
X85126125Y-65261484D01*
X85041748Y-65135206D01*
X84983629Y-64994893D01*
X84954000Y-64845937D01*
X84954000Y-64694063D01*
X84954014Y-64693995D01*
X84969731Y-64614976D01*
X84983629Y-64545107D01*
X85041748Y-64404794D01*
X85126125Y-64278516D01*
X85233516Y-64171125D01*
X85359794Y-64086748D01*
X85500107Y-64028629D01*
X85599411Y-64008876D01*
X85649062Y-63999000D01*
X85800938Y-63999000D01*
X85850589Y-64008876D01*
X85850589Y-64008876D01*
G37*
G36*
X73613674Y-63268465D02*
G01*
X73651367Y-63279899D01*
X73686103Y-63298466D01*
X73716548Y-63323452D01*
X73741534Y-63353897D01*
X73760101Y-63388633D01*
X73771535Y-63426326D01*
X73776000Y-63471661D01*
X73776000Y-64308339D01*
X73771535Y-64353674D01*
X73760101Y-64391367D01*
X73741534Y-64426103D01*
X73716548Y-64456548D01*
X73686103Y-64481534D01*
X73651367Y-64500101D01*
X73613674Y-64511535D01*
X73568339Y-64516000D01*
X72481661Y-64516000D01*
X72436326Y-64511535D01*
X72398633Y-64500101D01*
X72363897Y-64481534D01*
X72333452Y-64456548D01*
X72308466Y-64426103D01*
X72289899Y-64391367D01*
X72278465Y-64353674D01*
X72274000Y-64308339D01*
X72274000Y-63471661D01*
X72278465Y-63426326D01*
X72289899Y-63388633D01*
X72308466Y-63353897D01*
X72333452Y-63323452D01*
X72363897Y-63298466D01*
X72398633Y-63279899D01*
X72436326Y-63268465D01*
X72481661Y-63264000D01*
X73568339Y-63264000D01*
X73613674Y-63268465D01*
X73613674Y-63268465D01*
G37*
G36*
X63666823Y-62026313D02*
G01*
X63827242Y-62074976D01*
X63959906Y-62145886D01*
X63975078Y-62153996D01*
X64104659Y-62260341D01*
X64211004Y-62389922D01*
X64211005Y-62389924D01*
X64290024Y-62537758D01*
X64338687Y-62698177D01*
X64355117Y-62865000D01*
X64338687Y-63031823D01*
X64290024Y-63192242D01*
X64249282Y-63268465D01*
X64211004Y-63340078D01*
X64104659Y-63469659D01*
X63975078Y-63576004D01*
X63975076Y-63576005D01*
X63827242Y-63655024D01*
X63666823Y-63703687D01*
X63541804Y-63716000D01*
X63458196Y-63716000D01*
X63333177Y-63703687D01*
X63172758Y-63655024D01*
X63024924Y-63576005D01*
X63024922Y-63576004D01*
X62895341Y-63469659D01*
X62788996Y-63340078D01*
X62750718Y-63268465D01*
X62709976Y-63192242D01*
X62661313Y-63031823D01*
X62644883Y-62865000D01*
X62661313Y-62698177D01*
X62709976Y-62537758D01*
X62788995Y-62389924D01*
X62788996Y-62389922D01*
X62895341Y-62260341D01*
X63024922Y-62153996D01*
X63040094Y-62145886D01*
X63172758Y-62074976D01*
X63333177Y-62026313D01*
X63458196Y-62014000D01*
X63541804Y-62014000D01*
X63666823Y-62026313D01*
X63666823Y-62026313D01*
G37*
G36*
X78906823Y-62026313D02*
G01*
X79067242Y-62074976D01*
X79199906Y-62145886D01*
X79215078Y-62153996D01*
X79344659Y-62260341D01*
X79451004Y-62389922D01*
X79451005Y-62389924D01*
X79530024Y-62537758D01*
X79578687Y-62698177D01*
X79595117Y-62865000D01*
X79578687Y-63031823D01*
X79530024Y-63192242D01*
X79489282Y-63268465D01*
X79451004Y-63340078D01*
X79344659Y-63469659D01*
X79215078Y-63576004D01*
X79215076Y-63576005D01*
X79067242Y-63655024D01*
X78906823Y-63703687D01*
X78781804Y-63716000D01*
X78698196Y-63716000D01*
X78573177Y-63703687D01*
X78412758Y-63655024D01*
X78264924Y-63576005D01*
X78264922Y-63576004D01*
X78135341Y-63469659D01*
X78028996Y-63340078D01*
X77990718Y-63268465D01*
X77949976Y-63192242D01*
X77901313Y-63031823D01*
X77884883Y-62865000D01*
X77901313Y-62698177D01*
X77949976Y-62537758D01*
X78028995Y-62389924D01*
X78028996Y-62389922D01*
X78135341Y-62260341D01*
X78264922Y-62153996D01*
X78280094Y-62145886D01*
X78412758Y-62074976D01*
X78573177Y-62026313D01*
X78698196Y-62014000D01*
X78781804Y-62014000D01*
X78906823Y-62026313D01*
X78906823Y-62026313D01*
G37*
G36*
X76366823Y-62026313D02*
G01*
X76527242Y-62074976D01*
X76659906Y-62145886D01*
X76675078Y-62153996D01*
X76804659Y-62260341D01*
X76911004Y-62389922D01*
X76911005Y-62389924D01*
X76990024Y-62537758D01*
X77038687Y-62698177D01*
X77055117Y-62865000D01*
X77038687Y-63031823D01*
X76990024Y-63192242D01*
X76949282Y-63268465D01*
X76911004Y-63340078D01*
X76804659Y-63469659D01*
X76675078Y-63576004D01*
X76675076Y-63576005D01*
X76527242Y-63655024D01*
X76366823Y-63703687D01*
X76241804Y-63716000D01*
X76158196Y-63716000D01*
X76033177Y-63703687D01*
X75872758Y-63655024D01*
X75724924Y-63576005D01*
X75724922Y-63576004D01*
X75595341Y-63469659D01*
X75488996Y-63340078D01*
X75450718Y-63268465D01*
X75409976Y-63192242D01*
X75361313Y-63031823D01*
X75344883Y-62865000D01*
X75361313Y-62698177D01*
X75409976Y-62537758D01*
X75488995Y-62389924D01*
X75488996Y-62389922D01*
X75595341Y-62260341D01*
X75724922Y-62153996D01*
X75740094Y-62145886D01*
X75872758Y-62074976D01*
X76033177Y-62026313D01*
X76158196Y-62014000D01*
X76241804Y-62014000D01*
X76366823Y-62026313D01*
X76366823Y-62026313D01*
G37*
G36*
X61126823Y-62026313D02*
G01*
X61287242Y-62074976D01*
X61419906Y-62145886D01*
X61435078Y-62153996D01*
X61564659Y-62260341D01*
X61671004Y-62389922D01*
X61671005Y-62389924D01*
X61750024Y-62537758D01*
X61798687Y-62698177D01*
X61815117Y-62865000D01*
X61798687Y-63031823D01*
X61750024Y-63192242D01*
X61709282Y-63268465D01*
X61671004Y-63340078D01*
X61564659Y-63469659D01*
X61435078Y-63576004D01*
X61435076Y-63576005D01*
X61287242Y-63655024D01*
X61126823Y-63703687D01*
X61001804Y-63716000D01*
X60918196Y-63716000D01*
X60793177Y-63703687D01*
X60632758Y-63655024D01*
X60484924Y-63576005D01*
X60484922Y-63576004D01*
X60355341Y-63469659D01*
X60248996Y-63340078D01*
X60210718Y-63268465D01*
X60169976Y-63192242D01*
X60121313Y-63031823D01*
X60104883Y-62865000D01*
X60121313Y-62698177D01*
X60169976Y-62537758D01*
X60248995Y-62389924D01*
X60248996Y-62389922D01*
X60355341Y-62260341D01*
X60484922Y-62153996D01*
X60500094Y-62145886D01*
X60632758Y-62074976D01*
X60793177Y-62026313D01*
X60918196Y-62014000D01*
X61001804Y-62014000D01*
X61126823Y-62026313D01*
X61126823Y-62026313D01*
G37*
G36*
X73613674Y-61218465D02*
G01*
X73651367Y-61229899D01*
X73686103Y-61248466D01*
X73716548Y-61273452D01*
X73741534Y-61303897D01*
X73760101Y-61338633D01*
X73771535Y-61376326D01*
X73776000Y-61421661D01*
X73776000Y-62258339D01*
X73771535Y-62303674D01*
X73760101Y-62341367D01*
X73741534Y-62376103D01*
X73716548Y-62406548D01*
X73686103Y-62431534D01*
X73651367Y-62450101D01*
X73613674Y-62461535D01*
X73568339Y-62466000D01*
X72481661Y-62466000D01*
X72436326Y-62461535D01*
X72398633Y-62450101D01*
X72363897Y-62431534D01*
X72333452Y-62406548D01*
X72308466Y-62376103D01*
X72289899Y-62341367D01*
X72278465Y-62303674D01*
X72274000Y-62258339D01*
X72274000Y-61421661D01*
X72278465Y-61376326D01*
X72289899Y-61338633D01*
X72308466Y-61303897D01*
X72333452Y-61273452D01*
X72363897Y-61248466D01*
X72398633Y-61229899D01*
X72436326Y-61218465D01*
X72481661Y-61214000D01*
X73568339Y-61214000D01*
X73613674Y-61218465D01*
X73613674Y-61218465D01*
G37*
G36*
X76366823Y-59486313D02*
G01*
X76527242Y-59534976D01*
X76659906Y-59605886D01*
X76675078Y-59613996D01*
X76804659Y-59720341D01*
X76911004Y-59849922D01*
X76911005Y-59849924D01*
X76990024Y-59997758D01*
X77038687Y-60158177D01*
X77055117Y-60325000D01*
X77038687Y-60491823D01*
X76990024Y-60652242D01*
X76919114Y-60784906D01*
X76911004Y-60800078D01*
X76804659Y-60929659D01*
X76675078Y-61036004D01*
X76675076Y-61036005D01*
X76527242Y-61115024D01*
X76366823Y-61163687D01*
X76241804Y-61176000D01*
X76158196Y-61176000D01*
X76033177Y-61163687D01*
X75872758Y-61115024D01*
X75724924Y-61036005D01*
X75724922Y-61036004D01*
X75595341Y-60929659D01*
X75488996Y-60800078D01*
X75480886Y-60784906D01*
X75409976Y-60652242D01*
X75361313Y-60491823D01*
X75344883Y-60325000D01*
X75361313Y-60158177D01*
X75409976Y-59997758D01*
X75488995Y-59849924D01*
X75488996Y-59849922D01*
X75595341Y-59720341D01*
X75724922Y-59613996D01*
X75740094Y-59605886D01*
X75872758Y-59534976D01*
X76033177Y-59486313D01*
X76158196Y-59474000D01*
X76241804Y-59474000D01*
X76366823Y-59486313D01*
X76366823Y-59486313D01*
G37*
G36*
X61126823Y-59486313D02*
G01*
X61287242Y-59534976D01*
X61419906Y-59605886D01*
X61435078Y-59613996D01*
X61564659Y-59720341D01*
X61671004Y-59849922D01*
X61671005Y-59849924D01*
X61750024Y-59997758D01*
X61798687Y-60158177D01*
X61815117Y-60325000D01*
X61798687Y-60491823D01*
X61750024Y-60652242D01*
X61679114Y-60784906D01*
X61671004Y-60800078D01*
X61564659Y-60929659D01*
X61435078Y-61036004D01*
X61435076Y-61036005D01*
X61287242Y-61115024D01*
X61126823Y-61163687D01*
X61001804Y-61176000D01*
X60918196Y-61176000D01*
X60793177Y-61163687D01*
X60632758Y-61115024D01*
X60484924Y-61036005D01*
X60484922Y-61036004D01*
X60355341Y-60929659D01*
X60248996Y-60800078D01*
X60240886Y-60784906D01*
X60169976Y-60652242D01*
X60121313Y-60491823D01*
X60104883Y-60325000D01*
X60121313Y-60158177D01*
X60169976Y-59997758D01*
X60248995Y-59849924D01*
X60248996Y-59849922D01*
X60355341Y-59720341D01*
X60484922Y-59613996D01*
X60500094Y-59605886D01*
X60632758Y-59534976D01*
X60793177Y-59486313D01*
X60918196Y-59474000D01*
X61001804Y-59474000D01*
X61126823Y-59486313D01*
X61126823Y-59486313D01*
G37*
G36*
X63666823Y-59486313D02*
G01*
X63827242Y-59534976D01*
X63959906Y-59605886D01*
X63975078Y-59613996D01*
X64104659Y-59720341D01*
X64211004Y-59849922D01*
X64211005Y-59849924D01*
X64290024Y-59997758D01*
X64338687Y-60158177D01*
X64355117Y-60325000D01*
X64338687Y-60491823D01*
X64290024Y-60652242D01*
X64219114Y-60784906D01*
X64211004Y-60800078D01*
X64104659Y-60929659D01*
X63975078Y-61036004D01*
X63975076Y-61036005D01*
X63827242Y-61115024D01*
X63666823Y-61163687D01*
X63541804Y-61176000D01*
X63458196Y-61176000D01*
X63333177Y-61163687D01*
X63172758Y-61115024D01*
X63024924Y-61036005D01*
X63024922Y-61036004D01*
X62895341Y-60929659D01*
X62788996Y-60800078D01*
X62780886Y-60784906D01*
X62709976Y-60652242D01*
X62661313Y-60491823D01*
X62644883Y-60325000D01*
X62661313Y-60158177D01*
X62709976Y-59997758D01*
X62788995Y-59849924D01*
X62788996Y-59849922D01*
X62895341Y-59720341D01*
X63024922Y-59613996D01*
X63040094Y-59605886D01*
X63172758Y-59534976D01*
X63333177Y-59486313D01*
X63458196Y-59474000D01*
X63541804Y-59474000D01*
X63666823Y-59486313D01*
X63666823Y-59486313D01*
G37*
G36*
X78906823Y-59486313D02*
G01*
X79067242Y-59534976D01*
X79199906Y-59605886D01*
X79215078Y-59613996D01*
X79344659Y-59720341D01*
X79451004Y-59849922D01*
X79451005Y-59849924D01*
X79530024Y-59997758D01*
X79578687Y-60158177D01*
X79595117Y-60325000D01*
X79578687Y-60491823D01*
X79530024Y-60652242D01*
X79459114Y-60784906D01*
X79451004Y-60800078D01*
X79344659Y-60929659D01*
X79215078Y-61036004D01*
X79215076Y-61036005D01*
X79067242Y-61115024D01*
X78906823Y-61163687D01*
X78781804Y-61176000D01*
X78698196Y-61176000D01*
X78573177Y-61163687D01*
X78412758Y-61115024D01*
X78264924Y-61036005D01*
X78264922Y-61036004D01*
X78135341Y-60929659D01*
X78028996Y-60800078D01*
X78020886Y-60784906D01*
X77949976Y-60652242D01*
X77901313Y-60491823D01*
X77884883Y-60325000D01*
X77901313Y-60158177D01*
X77949976Y-59997758D01*
X78028995Y-59849924D01*
X78028996Y-59849922D01*
X78135341Y-59720341D01*
X78264922Y-59613996D01*
X78280094Y-59605886D01*
X78412758Y-59534976D01*
X78573177Y-59486313D01*
X78698196Y-59474000D01*
X78781804Y-59474000D01*
X78906823Y-59486313D01*
X78906823Y-59486313D01*
G37*
G36*
X94228228Y-57601703D02*
G01*
X94383100Y-57665853D01*
X94522481Y-57758985D01*
X94641015Y-57877519D01*
X94734147Y-58016900D01*
X94798297Y-58171772D01*
X94831000Y-58336184D01*
X94831000Y-58503816D01*
X94798297Y-58668228D01*
X94734147Y-58823100D01*
X94641015Y-58962481D01*
X94522481Y-59081015D01*
X94383100Y-59174147D01*
X94228228Y-59238297D01*
X94063816Y-59271000D01*
X93896184Y-59271000D01*
X93731772Y-59238297D01*
X93576900Y-59174147D01*
X93437519Y-59081015D01*
X93318985Y-58962481D01*
X93225853Y-58823100D01*
X93161703Y-58668228D01*
X93129000Y-58503816D01*
X93129000Y-58336184D01*
X93161703Y-58171772D01*
X93225853Y-58016900D01*
X93318985Y-57877519D01*
X93437519Y-57758985D01*
X93576900Y-57665853D01*
X93731772Y-57601703D01*
X93896184Y-57569000D01*
X94063816Y-57569000D01*
X94228228Y-57601703D01*
X94228228Y-57601703D01*
G37*
G36*
X83310589Y-57658876D02*
G01*
X83409893Y-57678629D01*
X83550206Y-57736748D01*
X83676484Y-57821125D01*
X83783875Y-57928516D01*
X83868252Y-58054794D01*
X83926371Y-58195107D01*
X83926371Y-58195109D01*
X83956000Y-58344062D01*
X83956000Y-58495938D01*
X83954433Y-58503815D01*
X83926371Y-58644893D01*
X83868252Y-58785206D01*
X83783875Y-58911484D01*
X83676484Y-59018875D01*
X83550206Y-59103252D01*
X83409893Y-59161371D01*
X83345663Y-59174147D01*
X83260938Y-59191000D01*
X83109062Y-59191000D01*
X83024337Y-59174147D01*
X82960107Y-59161371D01*
X82819794Y-59103252D01*
X82693516Y-59018875D01*
X82586125Y-58911484D01*
X82501748Y-58785206D01*
X82443629Y-58644893D01*
X82415567Y-58503815D01*
X82414000Y-58495938D01*
X82414000Y-58344062D01*
X82443629Y-58195109D01*
X82443629Y-58195107D01*
X82501748Y-58054794D01*
X82586125Y-57928516D01*
X82693516Y-57821125D01*
X82819794Y-57736748D01*
X82960107Y-57678629D01*
X83059411Y-57658876D01*
X83109062Y-57649000D01*
X83260938Y-57649000D01*
X83310589Y-57658876D01*
X83310589Y-57658876D01*
G37*
G36*
X85850589Y-57658876D02*
G01*
X85949893Y-57678629D01*
X86090206Y-57736748D01*
X86216484Y-57821125D01*
X86323875Y-57928516D01*
X86408252Y-58054794D01*
X86466371Y-58195107D01*
X86466371Y-58195109D01*
X86496000Y-58344062D01*
X86496000Y-58495938D01*
X86494433Y-58503815D01*
X86466371Y-58644893D01*
X86408252Y-58785206D01*
X86323875Y-58911484D01*
X86216484Y-59018875D01*
X86090206Y-59103252D01*
X85949893Y-59161371D01*
X85885663Y-59174147D01*
X85800938Y-59191000D01*
X85649062Y-59191000D01*
X85564337Y-59174147D01*
X85500107Y-59161371D01*
X85359794Y-59103252D01*
X85233516Y-59018875D01*
X85126125Y-58911484D01*
X85041748Y-58785206D01*
X84983629Y-58644893D01*
X84955567Y-58503815D01*
X84954000Y-58495938D01*
X84954000Y-58344062D01*
X84983629Y-58195109D01*
X84983629Y-58195107D01*
X85041748Y-58054794D01*
X85126125Y-57928516D01*
X85233516Y-57821125D01*
X85359794Y-57736748D01*
X85500107Y-57678629D01*
X85599411Y-57658876D01*
X85649062Y-57649000D01*
X85800938Y-57649000D01*
X85850589Y-57658876D01*
X85850589Y-57658876D01*
G37*
G36*
X88390589Y-57658876D02*
G01*
X88489893Y-57678629D01*
X88630206Y-57736748D01*
X88756484Y-57821125D01*
X88863875Y-57928516D01*
X88948252Y-58054794D01*
X89006371Y-58195107D01*
X89006371Y-58195109D01*
X89036000Y-58344062D01*
X89036000Y-58495938D01*
X89034433Y-58503815D01*
X89006371Y-58644893D01*
X88948252Y-58785206D01*
X88863875Y-58911484D01*
X88756484Y-59018875D01*
X88630206Y-59103252D01*
X88489893Y-59161371D01*
X88425663Y-59174147D01*
X88340938Y-59191000D01*
X88189062Y-59191000D01*
X88104337Y-59174147D01*
X88040107Y-59161371D01*
X87899794Y-59103252D01*
X87773516Y-59018875D01*
X87666125Y-58911484D01*
X87581748Y-58785206D01*
X87523629Y-58644893D01*
X87495567Y-58503815D01*
X87494000Y-58495938D01*
X87494000Y-58344062D01*
X87523629Y-58195109D01*
X87523629Y-58195107D01*
X87581748Y-58054794D01*
X87666125Y-57928516D01*
X87773516Y-57821125D01*
X87899794Y-57736748D01*
X88040107Y-57678629D01*
X88139411Y-57658876D01*
X88189062Y-57649000D01*
X88340938Y-57649000D01*
X88390589Y-57658876D01*
X88390589Y-57658876D01*
G37*
G36*
X63666823Y-56946313D02*
G01*
X63827242Y-56994976D01*
X63959906Y-57065886D01*
X63975078Y-57073996D01*
X64104659Y-57180341D01*
X64211004Y-57309922D01*
X64211005Y-57309924D01*
X64290024Y-57457758D01*
X64338687Y-57618177D01*
X64355117Y-57785000D01*
X64338687Y-57951823D01*
X64290024Y-58112242D01*
X64219114Y-58244906D01*
X64211004Y-58260078D01*
X64104659Y-58389659D01*
X63975078Y-58496004D01*
X63975076Y-58496005D01*
X63827242Y-58575024D01*
X63666823Y-58623687D01*
X63541804Y-58636000D01*
X63458196Y-58636000D01*
X63333177Y-58623687D01*
X63172758Y-58575024D01*
X63024924Y-58496005D01*
X63024922Y-58496004D01*
X62895341Y-58389659D01*
X62788996Y-58260078D01*
X62780886Y-58244906D01*
X62709976Y-58112242D01*
X62661313Y-57951823D01*
X62644883Y-57785000D01*
X62661313Y-57618177D01*
X62709976Y-57457758D01*
X62788995Y-57309924D01*
X62788996Y-57309922D01*
X62895341Y-57180341D01*
X63024922Y-57073996D01*
X63040094Y-57065886D01*
X63172758Y-56994976D01*
X63333177Y-56946313D01*
X63458196Y-56934000D01*
X63541804Y-56934000D01*
X63666823Y-56946313D01*
X63666823Y-56946313D01*
G37*
G36*
X61126823Y-56946313D02*
G01*
X61287242Y-56994976D01*
X61419906Y-57065886D01*
X61435078Y-57073996D01*
X61564659Y-57180341D01*
X61671004Y-57309922D01*
X61671005Y-57309924D01*
X61750024Y-57457758D01*
X61798687Y-57618177D01*
X61815117Y-57785000D01*
X61798687Y-57951823D01*
X61750024Y-58112242D01*
X61679114Y-58244906D01*
X61671004Y-58260078D01*
X61564659Y-58389659D01*
X61435078Y-58496004D01*
X61435076Y-58496005D01*
X61287242Y-58575024D01*
X61126823Y-58623687D01*
X61001804Y-58636000D01*
X60918196Y-58636000D01*
X60793177Y-58623687D01*
X60632758Y-58575024D01*
X60484924Y-58496005D01*
X60484922Y-58496004D01*
X60355341Y-58389659D01*
X60248996Y-58260078D01*
X60240886Y-58244906D01*
X60169976Y-58112242D01*
X60121313Y-57951823D01*
X60104883Y-57785000D01*
X60121313Y-57618177D01*
X60169976Y-57457758D01*
X60248995Y-57309924D01*
X60248996Y-57309922D01*
X60355341Y-57180341D01*
X60484922Y-57073996D01*
X60500094Y-57065886D01*
X60632758Y-56994976D01*
X60793177Y-56946313D01*
X60918196Y-56934000D01*
X61001804Y-56934000D01*
X61126823Y-56946313D01*
X61126823Y-56946313D01*
G37*
G36*
X76366823Y-56946313D02*
G01*
X76527242Y-56994976D01*
X76659906Y-57065886D01*
X76675078Y-57073996D01*
X76804659Y-57180341D01*
X76911004Y-57309922D01*
X76911005Y-57309924D01*
X76990024Y-57457758D01*
X77038687Y-57618177D01*
X77055117Y-57785000D01*
X77038687Y-57951823D01*
X76990024Y-58112242D01*
X76919114Y-58244906D01*
X76911004Y-58260078D01*
X76804659Y-58389659D01*
X76675078Y-58496004D01*
X76675076Y-58496005D01*
X76527242Y-58575024D01*
X76366823Y-58623687D01*
X76241804Y-58636000D01*
X76158196Y-58636000D01*
X76033177Y-58623687D01*
X75872758Y-58575024D01*
X75724924Y-58496005D01*
X75724922Y-58496004D01*
X75595341Y-58389659D01*
X75488996Y-58260078D01*
X75480886Y-58244906D01*
X75409976Y-58112242D01*
X75361313Y-57951823D01*
X75344883Y-57785000D01*
X75361313Y-57618177D01*
X75409976Y-57457758D01*
X75488995Y-57309924D01*
X75488996Y-57309922D01*
X75595341Y-57180341D01*
X75724922Y-57073996D01*
X75740094Y-57065886D01*
X75872758Y-56994976D01*
X76033177Y-56946313D01*
X76158196Y-56934000D01*
X76241804Y-56934000D01*
X76366823Y-56946313D01*
X76366823Y-56946313D01*
G37*
G36*
X78906823Y-56946313D02*
G01*
X79067242Y-56994976D01*
X79199906Y-57065886D01*
X79215078Y-57073996D01*
X79344659Y-57180341D01*
X79451004Y-57309922D01*
X79451005Y-57309924D01*
X79530024Y-57457758D01*
X79578687Y-57618177D01*
X79595117Y-57785000D01*
X79578687Y-57951823D01*
X79530024Y-58112242D01*
X79459114Y-58244906D01*
X79451004Y-58260078D01*
X79344659Y-58389659D01*
X79215078Y-58496004D01*
X79215076Y-58496005D01*
X79067242Y-58575024D01*
X78906823Y-58623687D01*
X78781804Y-58636000D01*
X78698196Y-58636000D01*
X78573177Y-58623687D01*
X78412758Y-58575024D01*
X78264924Y-58496005D01*
X78264922Y-58496004D01*
X78135341Y-58389659D01*
X78028996Y-58260078D01*
X78020886Y-58244906D01*
X77949976Y-58112242D01*
X77901313Y-57951823D01*
X77884883Y-57785000D01*
X77901313Y-57618177D01*
X77949976Y-57457758D01*
X78028995Y-57309924D01*
X78028996Y-57309922D01*
X78135341Y-57180341D01*
X78264922Y-57073996D01*
X78280094Y-57065886D01*
X78412758Y-56994976D01*
X78573177Y-56946313D01*
X78698196Y-56934000D01*
X78781804Y-56934000D01*
X78906823Y-56946313D01*
X78906823Y-56946313D01*
G37*
G36*
X94228228Y-55061703D02*
G01*
X94383100Y-55125853D01*
X94522481Y-55218985D01*
X94641015Y-55337519D01*
X94734147Y-55476900D01*
X94798297Y-55631772D01*
X94831000Y-55796184D01*
X94831000Y-55963816D01*
X94798297Y-56128228D01*
X94734147Y-56283100D01*
X94641015Y-56422481D01*
X94522481Y-56541015D01*
X94383100Y-56634147D01*
X94228228Y-56698297D01*
X94063816Y-56731000D01*
X93896184Y-56731000D01*
X93731772Y-56698297D01*
X93576900Y-56634147D01*
X93437519Y-56541015D01*
X93318985Y-56422481D01*
X93225853Y-56283100D01*
X93161703Y-56128228D01*
X93129000Y-55963816D01*
X93129000Y-55796184D01*
X93161703Y-55631772D01*
X93225853Y-55476900D01*
X93318985Y-55337519D01*
X93437519Y-55218985D01*
X93576900Y-55125853D01*
X93731772Y-55061703D01*
X93896184Y-55029000D01*
X94063816Y-55029000D01*
X94228228Y-55061703D01*
X94228228Y-55061703D01*
G37*
G36*
X63666823Y-54406313D02*
G01*
X63827242Y-54454976D01*
X63959906Y-54525886D01*
X63975078Y-54533996D01*
X64104659Y-54640341D01*
X64211004Y-54769922D01*
X64211005Y-54769924D01*
X64290024Y-54917758D01*
X64338687Y-55078177D01*
X64355117Y-55245000D01*
X64338687Y-55411823D01*
X64290024Y-55572242D01*
X64219114Y-55704906D01*
X64211004Y-55720078D01*
X64104659Y-55849659D01*
X63975078Y-55956004D01*
X63975076Y-55956005D01*
X63827242Y-56035024D01*
X63666823Y-56083687D01*
X63541804Y-56096000D01*
X63458196Y-56096000D01*
X63333177Y-56083687D01*
X63172758Y-56035024D01*
X63024924Y-55956005D01*
X63024922Y-55956004D01*
X62895341Y-55849659D01*
X62788996Y-55720078D01*
X62780886Y-55704906D01*
X62709976Y-55572242D01*
X62661313Y-55411823D01*
X62644883Y-55245000D01*
X62661313Y-55078177D01*
X62709976Y-54917758D01*
X62788995Y-54769924D01*
X62788996Y-54769922D01*
X62895341Y-54640341D01*
X63024922Y-54533996D01*
X63040094Y-54525886D01*
X63172758Y-54454976D01*
X63333177Y-54406313D01*
X63458196Y-54394000D01*
X63541804Y-54394000D01*
X63666823Y-54406313D01*
X63666823Y-54406313D01*
G37*
G36*
X61126823Y-54406313D02*
G01*
X61287242Y-54454976D01*
X61419906Y-54525886D01*
X61435078Y-54533996D01*
X61564659Y-54640341D01*
X61671004Y-54769922D01*
X61671005Y-54769924D01*
X61750024Y-54917758D01*
X61798687Y-55078177D01*
X61815117Y-55245000D01*
X61798687Y-55411823D01*
X61750024Y-55572242D01*
X61679114Y-55704906D01*
X61671004Y-55720078D01*
X61564659Y-55849659D01*
X61435078Y-55956004D01*
X61435076Y-55956005D01*
X61287242Y-56035024D01*
X61126823Y-56083687D01*
X61001804Y-56096000D01*
X60918196Y-56096000D01*
X60793177Y-56083687D01*
X60632758Y-56035024D01*
X60484924Y-55956005D01*
X60484922Y-55956004D01*
X60355341Y-55849659D01*
X60248996Y-55720078D01*
X60240886Y-55704906D01*
X60169976Y-55572242D01*
X60121313Y-55411823D01*
X60104883Y-55245000D01*
X60121313Y-55078177D01*
X60169976Y-54917758D01*
X60248995Y-54769924D01*
X60248996Y-54769922D01*
X60355341Y-54640341D01*
X60484922Y-54533996D01*
X60500094Y-54525886D01*
X60632758Y-54454976D01*
X60793177Y-54406313D01*
X60918196Y-54394000D01*
X61001804Y-54394000D01*
X61126823Y-54406313D01*
X61126823Y-54406313D01*
G37*
G36*
X76366823Y-54406313D02*
G01*
X76527242Y-54454976D01*
X76659906Y-54525886D01*
X76675078Y-54533996D01*
X76804659Y-54640341D01*
X76911004Y-54769922D01*
X76911005Y-54769924D01*
X76990024Y-54917758D01*
X77038687Y-55078177D01*
X77055117Y-55245000D01*
X77038687Y-55411823D01*
X76990024Y-55572242D01*
X76919114Y-55704906D01*
X76911004Y-55720078D01*
X76804659Y-55849659D01*
X76675078Y-55956004D01*
X76675076Y-55956005D01*
X76527242Y-56035024D01*
X76366823Y-56083687D01*
X76241804Y-56096000D01*
X76158196Y-56096000D01*
X76033177Y-56083687D01*
X75872758Y-56035024D01*
X75724924Y-55956005D01*
X75724922Y-55956004D01*
X75595341Y-55849659D01*
X75488996Y-55720078D01*
X75480886Y-55704906D01*
X75409976Y-55572242D01*
X75361313Y-55411823D01*
X75344883Y-55245000D01*
X75361313Y-55078177D01*
X75409976Y-54917758D01*
X75488995Y-54769924D01*
X75488996Y-54769922D01*
X75595341Y-54640341D01*
X75724922Y-54533996D01*
X75740094Y-54525886D01*
X75872758Y-54454976D01*
X76033177Y-54406313D01*
X76158196Y-54394000D01*
X76241804Y-54394000D01*
X76366823Y-54406313D01*
X76366823Y-54406313D01*
G37*
G36*
X78906823Y-54406313D02*
G01*
X79067242Y-54454976D01*
X79199906Y-54525886D01*
X79215078Y-54533996D01*
X79344659Y-54640341D01*
X79451004Y-54769922D01*
X79451005Y-54769924D01*
X79530024Y-54917758D01*
X79578687Y-55078177D01*
X79595117Y-55245000D01*
X79578687Y-55411823D01*
X79530024Y-55572242D01*
X79459114Y-55704906D01*
X79451004Y-55720078D01*
X79344659Y-55849659D01*
X79215078Y-55956004D01*
X79215076Y-55956005D01*
X79067242Y-56035024D01*
X78906823Y-56083687D01*
X78781804Y-56096000D01*
X78698196Y-56096000D01*
X78573177Y-56083687D01*
X78412758Y-56035024D01*
X78264924Y-55956005D01*
X78264922Y-55956004D01*
X78135341Y-55849659D01*
X78028996Y-55720078D01*
X78020886Y-55704906D01*
X77949976Y-55572242D01*
X77901313Y-55411823D01*
X77884883Y-55245000D01*
X77901313Y-55078177D01*
X77949976Y-54917758D01*
X78028995Y-54769924D01*
X78028996Y-54769922D01*
X78135341Y-54640341D01*
X78264922Y-54533996D01*
X78280094Y-54525886D01*
X78412758Y-54454976D01*
X78573177Y-54406313D01*
X78698196Y-54394000D01*
X78781804Y-54394000D01*
X78906823Y-54406313D01*
X78906823Y-54406313D01*
G37*
G36*
X63666823Y-51866313D02*
G01*
X63827242Y-51914976D01*
X63959906Y-51985886D01*
X63975078Y-51993996D01*
X64104659Y-52100341D01*
X64211004Y-52229922D01*
X64211005Y-52229924D01*
X64290024Y-52377758D01*
X64338687Y-52538177D01*
X64355117Y-52705000D01*
X64338687Y-52871823D01*
X64290024Y-53032242D01*
X64219114Y-53164906D01*
X64211004Y-53180078D01*
X64104659Y-53309659D01*
X63975078Y-53416004D01*
X63975076Y-53416005D01*
X63827242Y-53495024D01*
X63666823Y-53543687D01*
X63541804Y-53556000D01*
X63458196Y-53556000D01*
X63333177Y-53543687D01*
X63172758Y-53495024D01*
X63024924Y-53416005D01*
X63024922Y-53416004D01*
X62895341Y-53309659D01*
X62788996Y-53180078D01*
X62780886Y-53164906D01*
X62709976Y-53032242D01*
X62661313Y-52871823D01*
X62644883Y-52705000D01*
X62661313Y-52538177D01*
X62709976Y-52377758D01*
X62788995Y-52229924D01*
X62788996Y-52229922D01*
X62895341Y-52100341D01*
X63024922Y-51993996D01*
X63040094Y-51985886D01*
X63172758Y-51914976D01*
X63333177Y-51866313D01*
X63458196Y-51854000D01*
X63541804Y-51854000D01*
X63666823Y-51866313D01*
X63666823Y-51866313D01*
G37*
G36*
X61126823Y-51866313D02*
G01*
X61287242Y-51914976D01*
X61419906Y-51985886D01*
X61435078Y-51993996D01*
X61564659Y-52100341D01*
X61671004Y-52229922D01*
X61671005Y-52229924D01*
X61750024Y-52377758D01*
X61798687Y-52538177D01*
X61815117Y-52705000D01*
X61798687Y-52871823D01*
X61750024Y-53032242D01*
X61679114Y-53164906D01*
X61671004Y-53180078D01*
X61564659Y-53309659D01*
X61435078Y-53416004D01*
X61435076Y-53416005D01*
X61287242Y-53495024D01*
X61126823Y-53543687D01*
X61001804Y-53556000D01*
X60918196Y-53556000D01*
X60793177Y-53543687D01*
X60632758Y-53495024D01*
X60484924Y-53416005D01*
X60484922Y-53416004D01*
X60355341Y-53309659D01*
X60248996Y-53180078D01*
X60240886Y-53164906D01*
X60169976Y-53032242D01*
X60121313Y-52871823D01*
X60104883Y-52705000D01*
X60121313Y-52538177D01*
X60169976Y-52377758D01*
X60248995Y-52229924D01*
X60248996Y-52229922D01*
X60355341Y-52100341D01*
X60484922Y-51993996D01*
X60500094Y-51985886D01*
X60632758Y-51914976D01*
X60793177Y-51866313D01*
X60918196Y-51854000D01*
X61001804Y-51854000D01*
X61126823Y-51866313D01*
X61126823Y-51866313D01*
G37*
G36*
X76366823Y-51866313D02*
G01*
X76527242Y-51914976D01*
X76659906Y-51985886D01*
X76675078Y-51993996D01*
X76804659Y-52100341D01*
X76911004Y-52229922D01*
X76911005Y-52229924D01*
X76990024Y-52377758D01*
X77038687Y-52538177D01*
X77055117Y-52705000D01*
X77038687Y-52871823D01*
X76990024Y-53032242D01*
X76919114Y-53164906D01*
X76911004Y-53180078D01*
X76804659Y-53309659D01*
X76675078Y-53416004D01*
X76675076Y-53416005D01*
X76527242Y-53495024D01*
X76366823Y-53543687D01*
X76241804Y-53556000D01*
X76158196Y-53556000D01*
X76033177Y-53543687D01*
X75872758Y-53495024D01*
X75724924Y-53416005D01*
X75724922Y-53416004D01*
X75595341Y-53309659D01*
X75488996Y-53180078D01*
X75480886Y-53164906D01*
X75409976Y-53032242D01*
X75361313Y-52871823D01*
X75344883Y-52705000D01*
X75361313Y-52538177D01*
X75409976Y-52377758D01*
X75488995Y-52229924D01*
X75488996Y-52229922D01*
X75595341Y-52100341D01*
X75724922Y-51993996D01*
X75740094Y-51985886D01*
X75872758Y-51914976D01*
X76033177Y-51866313D01*
X76158196Y-51854000D01*
X76241804Y-51854000D01*
X76366823Y-51866313D01*
X76366823Y-51866313D01*
G37*
G36*
X78906823Y-51866313D02*
G01*
X79067242Y-51914976D01*
X79199906Y-51985886D01*
X79215078Y-51993996D01*
X79344659Y-52100341D01*
X79451004Y-52229922D01*
X79451005Y-52229924D01*
X79530024Y-52377758D01*
X79578687Y-52538177D01*
X79595117Y-52705000D01*
X79578687Y-52871823D01*
X79530024Y-53032242D01*
X79459114Y-53164906D01*
X79451004Y-53180078D01*
X79344659Y-53309659D01*
X79215078Y-53416004D01*
X79215076Y-53416005D01*
X79067242Y-53495024D01*
X78906823Y-53543687D01*
X78781804Y-53556000D01*
X78698196Y-53556000D01*
X78573177Y-53543687D01*
X78412758Y-53495024D01*
X78264924Y-53416005D01*
X78264922Y-53416004D01*
X78135341Y-53309659D01*
X78028996Y-53180078D01*
X78020886Y-53164906D01*
X77949976Y-53032242D01*
X77901313Y-52871823D01*
X77884883Y-52705000D01*
X77901313Y-52538177D01*
X77949976Y-52377758D01*
X78028995Y-52229924D01*
X78028996Y-52229922D01*
X78135341Y-52100341D01*
X78264922Y-51993996D01*
X78280094Y-51985886D01*
X78412758Y-51914976D01*
X78573177Y-51866313D01*
X78698196Y-51854000D01*
X78781804Y-51854000D01*
X78906823Y-51866313D01*
X78906823Y-51866313D01*
G37*
G36*
X88390589Y-51308876D02*
G01*
X88489893Y-51328629D01*
X88630206Y-51386748D01*
X88756484Y-51471125D01*
X88863875Y-51578516D01*
X88948252Y-51704794D01*
X89006371Y-51845107D01*
X89020269Y-51914976D01*
X89035987Y-51993995D01*
X89036000Y-51994063D01*
X89036000Y-52145937D01*
X89006371Y-52294893D01*
X88948252Y-52435206D01*
X88863875Y-52561484D01*
X88756484Y-52668875D01*
X88630206Y-52753252D01*
X88489893Y-52811371D01*
X88390589Y-52831124D01*
X88340938Y-52841000D01*
X88189062Y-52841000D01*
X88139411Y-52831124D01*
X88040107Y-52811371D01*
X87899794Y-52753252D01*
X87773516Y-52668875D01*
X87666125Y-52561484D01*
X87581748Y-52435206D01*
X87523629Y-52294893D01*
X87494000Y-52145937D01*
X87494000Y-51994063D01*
X87494014Y-51993995D01*
X87509731Y-51914976D01*
X87523629Y-51845107D01*
X87581748Y-51704794D01*
X87666125Y-51578516D01*
X87773516Y-51471125D01*
X87899794Y-51386748D01*
X88040107Y-51328629D01*
X88139411Y-51308876D01*
X88189062Y-51299000D01*
X88340938Y-51299000D01*
X88390589Y-51308876D01*
X88390589Y-51308876D01*
G37*
G36*
X83310589Y-51308876D02*
G01*
X83409893Y-51328629D01*
X83550206Y-51386748D01*
X83676484Y-51471125D01*
X83783875Y-51578516D01*
X83868252Y-51704794D01*
X83926371Y-51845107D01*
X83940269Y-51914976D01*
X83955987Y-51993995D01*
X83956000Y-51994063D01*
X83956000Y-52145937D01*
X83926371Y-52294893D01*
X83868252Y-52435206D01*
X83783875Y-52561484D01*
X83676484Y-52668875D01*
X83550206Y-52753252D01*
X83409893Y-52811371D01*
X83310589Y-52831124D01*
X83260938Y-52841000D01*
X83109062Y-52841000D01*
X83059411Y-52831124D01*
X82960107Y-52811371D01*
X82819794Y-52753252D01*
X82693516Y-52668875D01*
X82586125Y-52561484D01*
X82501748Y-52435206D01*
X82443629Y-52294893D01*
X82414000Y-52145937D01*
X82414000Y-51994063D01*
X82414014Y-51993995D01*
X82429731Y-51914976D01*
X82443629Y-51845107D01*
X82501748Y-51704794D01*
X82586125Y-51578516D01*
X82693516Y-51471125D01*
X82819794Y-51386748D01*
X82960107Y-51328629D01*
X83059411Y-51308876D01*
X83109062Y-51299000D01*
X83260938Y-51299000D01*
X83310589Y-51308876D01*
X83310589Y-51308876D01*
G37*
G36*
X85850589Y-51308876D02*
G01*
X85949893Y-51328629D01*
X86090206Y-51386748D01*
X86216484Y-51471125D01*
X86323875Y-51578516D01*
X86408252Y-51704794D01*
X86466371Y-51845107D01*
X86480269Y-51914976D01*
X86495987Y-51993995D01*
X86496000Y-51994063D01*
X86496000Y-52145937D01*
X86466371Y-52294893D01*
X86408252Y-52435206D01*
X86323875Y-52561484D01*
X86216484Y-52668875D01*
X86090206Y-52753252D01*
X85949893Y-52811371D01*
X85850589Y-52831124D01*
X85800938Y-52841000D01*
X85649062Y-52841000D01*
X85599411Y-52831124D01*
X85500107Y-52811371D01*
X85359794Y-52753252D01*
X85233516Y-52668875D01*
X85126125Y-52561484D01*
X85041748Y-52435206D01*
X84983629Y-52294893D01*
X84954000Y-52145937D01*
X84954000Y-51994063D01*
X84954014Y-51993995D01*
X84969731Y-51914976D01*
X84983629Y-51845107D01*
X85041748Y-51704794D01*
X85126125Y-51578516D01*
X85233516Y-51471125D01*
X85359794Y-51386748D01*
X85500107Y-51328629D01*
X85599411Y-51308876D01*
X85649062Y-51299000D01*
X85800938Y-51299000D01*
X85850589Y-51308876D01*
X85850589Y-51308876D01*
G37*
G36*
X78906823Y-49326313D02*
G01*
X79067242Y-49374976D01*
X79199906Y-49445886D01*
X79215078Y-49453996D01*
X79344659Y-49560341D01*
X79451004Y-49689922D01*
X79451005Y-49689924D01*
X79530024Y-49837758D01*
X79578687Y-49998177D01*
X79595117Y-50165000D01*
X79578687Y-50331823D01*
X79530024Y-50492242D01*
X79459114Y-50624906D01*
X79451004Y-50640078D01*
X79344659Y-50769659D01*
X79215078Y-50876004D01*
X79215076Y-50876005D01*
X79067242Y-50955024D01*
X78906823Y-51003687D01*
X78781804Y-51016000D01*
X78698196Y-51016000D01*
X78573177Y-51003687D01*
X78412758Y-50955024D01*
X78264924Y-50876005D01*
X78264922Y-50876004D01*
X78135341Y-50769659D01*
X78028996Y-50640078D01*
X78020886Y-50624906D01*
X77949976Y-50492242D01*
X77901313Y-50331823D01*
X77884883Y-50165000D01*
X77901313Y-49998177D01*
X77949976Y-49837758D01*
X78028995Y-49689924D01*
X78028996Y-49689922D01*
X78135341Y-49560341D01*
X78264922Y-49453996D01*
X78280094Y-49445886D01*
X78412758Y-49374976D01*
X78573177Y-49326313D01*
X78698196Y-49314000D01*
X78781804Y-49314000D01*
X78906823Y-49326313D01*
X78906823Y-49326313D01*
G37*
G36*
X76366823Y-49326313D02*
G01*
X76527242Y-49374976D01*
X76659906Y-49445886D01*
X76675078Y-49453996D01*
X76804659Y-49560341D01*
X76911004Y-49689922D01*
X76911005Y-49689924D01*
X76990024Y-49837758D01*
X77038687Y-49998177D01*
X77055117Y-50165000D01*
X77038687Y-50331823D01*
X76990024Y-50492242D01*
X76919114Y-50624906D01*
X76911004Y-50640078D01*
X76804659Y-50769659D01*
X76675078Y-50876004D01*
X76675076Y-50876005D01*
X76527242Y-50955024D01*
X76366823Y-51003687D01*
X76241804Y-51016000D01*
X76158196Y-51016000D01*
X76033177Y-51003687D01*
X75872758Y-50955024D01*
X75724924Y-50876005D01*
X75724922Y-50876004D01*
X75595341Y-50769659D01*
X75488996Y-50640078D01*
X75480886Y-50624906D01*
X75409976Y-50492242D01*
X75361313Y-50331823D01*
X75344883Y-50165000D01*
X75361313Y-49998177D01*
X75409976Y-49837758D01*
X75488995Y-49689924D01*
X75488996Y-49689922D01*
X75595341Y-49560341D01*
X75724922Y-49453996D01*
X75740094Y-49445886D01*
X75872758Y-49374976D01*
X76033177Y-49326313D01*
X76158196Y-49314000D01*
X76241804Y-49314000D01*
X76366823Y-49326313D01*
X76366823Y-49326313D01*
G37*
G36*
X61126823Y-49326313D02*
G01*
X61287242Y-49374976D01*
X61419906Y-49445886D01*
X61435078Y-49453996D01*
X61564659Y-49560341D01*
X61671004Y-49689922D01*
X61671005Y-49689924D01*
X61750024Y-49837758D01*
X61798687Y-49998177D01*
X61815117Y-50165000D01*
X61798687Y-50331823D01*
X61750024Y-50492242D01*
X61679114Y-50624906D01*
X61671004Y-50640078D01*
X61564659Y-50769659D01*
X61435078Y-50876004D01*
X61435076Y-50876005D01*
X61287242Y-50955024D01*
X61126823Y-51003687D01*
X61001804Y-51016000D01*
X60918196Y-51016000D01*
X60793177Y-51003687D01*
X60632758Y-50955024D01*
X60484924Y-50876005D01*
X60484922Y-50876004D01*
X60355341Y-50769659D01*
X60248996Y-50640078D01*
X60240886Y-50624906D01*
X60169976Y-50492242D01*
X60121313Y-50331823D01*
X60104883Y-50165000D01*
X60121313Y-49998177D01*
X60169976Y-49837758D01*
X60248995Y-49689924D01*
X60248996Y-49689922D01*
X60355341Y-49560341D01*
X60484922Y-49453996D01*
X60500094Y-49445886D01*
X60632758Y-49374976D01*
X60793177Y-49326313D01*
X60918196Y-49314000D01*
X61001804Y-49314000D01*
X61126823Y-49326313D01*
X61126823Y-49326313D01*
G37*
G36*
X63666823Y-49326313D02*
G01*
X63827242Y-49374976D01*
X63959906Y-49445886D01*
X63975078Y-49453996D01*
X64104659Y-49560341D01*
X64211004Y-49689922D01*
X64211005Y-49689924D01*
X64290024Y-49837758D01*
X64338687Y-49998177D01*
X64355117Y-50165000D01*
X64338687Y-50331823D01*
X64290024Y-50492242D01*
X64219114Y-50624906D01*
X64211004Y-50640078D01*
X64104659Y-50769659D01*
X63975078Y-50876004D01*
X63975076Y-50876005D01*
X63827242Y-50955024D01*
X63666823Y-51003687D01*
X63541804Y-51016000D01*
X63458196Y-51016000D01*
X63333177Y-51003687D01*
X63172758Y-50955024D01*
X63024924Y-50876005D01*
X63024922Y-50876004D01*
X62895341Y-50769659D01*
X62788996Y-50640078D01*
X62780886Y-50624906D01*
X62709976Y-50492242D01*
X62661313Y-50331823D01*
X62644883Y-50165000D01*
X62661313Y-49998177D01*
X62709976Y-49837758D01*
X62788995Y-49689924D01*
X62788996Y-49689922D01*
X62895341Y-49560341D01*
X63024922Y-49453996D01*
X63040094Y-49445886D01*
X63172758Y-49374976D01*
X63333177Y-49326313D01*
X63458196Y-49314000D01*
X63541804Y-49314000D01*
X63666823Y-49326313D01*
X63666823Y-49326313D01*
G37*
G36*
X94146823Y-47421313D02*
G01*
X94307242Y-47469976D01*
X94439906Y-47540886D01*
X94455078Y-47548996D01*
X94584659Y-47655341D01*
X94691004Y-47784922D01*
X94691005Y-47784924D01*
X94770024Y-47932758D01*
X94818687Y-48093177D01*
X94835117Y-48260000D01*
X94818687Y-48426823D01*
X94770024Y-48587242D01*
X94699114Y-48719906D01*
X94691004Y-48735078D01*
X94584659Y-48864659D01*
X94455078Y-48971004D01*
X94455076Y-48971005D01*
X94307242Y-49050024D01*
X94146823Y-49098687D01*
X94021804Y-49111000D01*
X93938196Y-49111000D01*
X93813177Y-49098687D01*
X93652758Y-49050024D01*
X93504924Y-48971005D01*
X93504922Y-48971004D01*
X93375341Y-48864659D01*
X93268996Y-48735078D01*
X93260886Y-48719906D01*
X93189976Y-48587242D01*
X93141313Y-48426823D01*
X93124883Y-48260000D01*
X93141313Y-48093177D01*
X93189976Y-47932758D01*
X93268995Y-47784924D01*
X93268996Y-47784922D01*
X93375341Y-47655341D01*
X93504922Y-47548996D01*
X93520094Y-47540886D01*
X93652758Y-47469976D01*
X93813177Y-47421313D01*
X93938196Y-47409000D01*
X94021804Y-47409000D01*
X94146823Y-47421313D01*
X94146823Y-47421313D01*
G37*
G36*
X76366823Y-46786313D02*
G01*
X76527242Y-46834976D01*
X76659906Y-46905886D01*
X76675078Y-46913996D01*
X76804659Y-47020341D01*
X76911004Y-47149922D01*
X76911005Y-47149924D01*
X76990024Y-47297758D01*
X77038687Y-47458177D01*
X77055117Y-47625000D01*
X77038687Y-47791823D01*
X76990024Y-47952242D01*
X76919114Y-48084906D01*
X76911004Y-48100078D01*
X76804659Y-48229659D01*
X76675078Y-48336004D01*
X76675076Y-48336005D01*
X76527242Y-48415024D01*
X76366823Y-48463687D01*
X76241804Y-48476000D01*
X76158196Y-48476000D01*
X76033177Y-48463687D01*
X75872758Y-48415024D01*
X75724924Y-48336005D01*
X75724922Y-48336004D01*
X75595341Y-48229659D01*
X75488996Y-48100078D01*
X75480886Y-48084906D01*
X75409976Y-47952242D01*
X75361313Y-47791823D01*
X75344883Y-47625000D01*
X75361313Y-47458177D01*
X75409976Y-47297758D01*
X75488995Y-47149924D01*
X75488996Y-47149922D01*
X75595341Y-47020341D01*
X75724922Y-46913996D01*
X75740094Y-46905886D01*
X75872758Y-46834976D01*
X76033177Y-46786313D01*
X76158196Y-46774000D01*
X76241804Y-46774000D01*
X76366823Y-46786313D01*
X76366823Y-46786313D01*
G37*
G36*
X61126823Y-46786313D02*
G01*
X61287242Y-46834976D01*
X61419906Y-46905886D01*
X61435078Y-46913996D01*
X61564659Y-47020341D01*
X61671004Y-47149922D01*
X61671005Y-47149924D01*
X61750024Y-47297758D01*
X61798687Y-47458177D01*
X61815117Y-47625000D01*
X61798687Y-47791823D01*
X61750024Y-47952242D01*
X61679114Y-48084906D01*
X61671004Y-48100078D01*
X61564659Y-48229659D01*
X61435078Y-48336004D01*
X61435076Y-48336005D01*
X61287242Y-48415024D01*
X61126823Y-48463687D01*
X61001804Y-48476000D01*
X60918196Y-48476000D01*
X60793177Y-48463687D01*
X60632758Y-48415024D01*
X60484924Y-48336005D01*
X60484922Y-48336004D01*
X60355341Y-48229659D01*
X60248996Y-48100078D01*
X60240886Y-48084906D01*
X60169976Y-47952242D01*
X60121313Y-47791823D01*
X60104883Y-47625000D01*
X60121313Y-47458177D01*
X60169976Y-47297758D01*
X60248995Y-47149924D01*
X60248996Y-47149922D01*
X60355341Y-47020341D01*
X60484922Y-46913996D01*
X60500094Y-46905886D01*
X60632758Y-46834976D01*
X60793177Y-46786313D01*
X60918196Y-46774000D01*
X61001804Y-46774000D01*
X61126823Y-46786313D01*
X61126823Y-46786313D01*
G37*
G36*
X78906823Y-46786313D02*
G01*
X79067242Y-46834976D01*
X79199906Y-46905886D01*
X79215078Y-46913996D01*
X79344659Y-47020341D01*
X79451004Y-47149922D01*
X79451005Y-47149924D01*
X79530024Y-47297758D01*
X79578687Y-47458177D01*
X79595117Y-47625000D01*
X79578687Y-47791823D01*
X79530024Y-47952242D01*
X79459114Y-48084906D01*
X79451004Y-48100078D01*
X79344659Y-48229659D01*
X79215078Y-48336004D01*
X79215076Y-48336005D01*
X79067242Y-48415024D01*
X78906823Y-48463687D01*
X78781804Y-48476000D01*
X78698196Y-48476000D01*
X78573177Y-48463687D01*
X78412758Y-48415024D01*
X78264924Y-48336005D01*
X78264922Y-48336004D01*
X78135341Y-48229659D01*
X78028996Y-48100078D01*
X78020886Y-48084906D01*
X77949976Y-47952242D01*
X77901313Y-47791823D01*
X77884883Y-47625000D01*
X77901313Y-47458177D01*
X77949976Y-47297758D01*
X78028995Y-47149924D01*
X78028996Y-47149922D01*
X78135341Y-47020341D01*
X78264922Y-46913996D01*
X78280094Y-46905886D01*
X78412758Y-46834976D01*
X78573177Y-46786313D01*
X78698196Y-46774000D01*
X78781804Y-46774000D01*
X78906823Y-46786313D01*
X78906823Y-46786313D01*
G37*
G36*
X63666823Y-46786313D02*
G01*
X63827242Y-46834976D01*
X63959906Y-46905886D01*
X63975078Y-46913996D01*
X64104659Y-47020341D01*
X64211004Y-47149922D01*
X64211005Y-47149924D01*
X64290024Y-47297758D01*
X64338687Y-47458177D01*
X64355117Y-47625000D01*
X64338687Y-47791823D01*
X64290024Y-47952242D01*
X64219114Y-48084906D01*
X64211004Y-48100078D01*
X64104659Y-48229659D01*
X63975078Y-48336004D01*
X63975076Y-48336005D01*
X63827242Y-48415024D01*
X63666823Y-48463687D01*
X63541804Y-48476000D01*
X63458196Y-48476000D01*
X63333177Y-48463687D01*
X63172758Y-48415024D01*
X63024924Y-48336005D01*
X63024922Y-48336004D01*
X62895341Y-48229659D01*
X62788996Y-48100078D01*
X62780886Y-48084906D01*
X62709976Y-47952242D01*
X62661313Y-47791823D01*
X62644883Y-47625000D01*
X62661313Y-47458177D01*
X62709976Y-47297758D01*
X62788995Y-47149924D01*
X62788996Y-47149922D01*
X62895341Y-47020341D01*
X63024922Y-46913996D01*
X63040094Y-46905886D01*
X63172758Y-46834976D01*
X63333177Y-46786313D01*
X63458196Y-46774000D01*
X63541804Y-46774000D01*
X63666823Y-46786313D01*
X63666823Y-46786313D01*
G37*
G36*
X83939943Y-44182519D02*
G01*
X84006127Y-44189037D01*
X84175966Y-44240557D01*
X84332491Y-44324222D01*
X84368229Y-44353552D01*
X84469686Y-44436814D01*
X84552948Y-44538271D01*
X84582278Y-44574009D01*
X84665943Y-44730534D01*
X84717463Y-44900373D01*
X84734859Y-45077000D01*
X84717463Y-45253627D01*
X84665943Y-45423466D01*
X84582278Y-45579991D01*
X84552948Y-45615729D01*
X84469686Y-45717186D01*
X84373643Y-45796005D01*
X84332491Y-45829778D01*
X84175966Y-45913443D01*
X84006127Y-45964963D01*
X83939942Y-45971482D01*
X83873760Y-45978000D01*
X83785240Y-45978000D01*
X83719058Y-45971482D01*
X83652873Y-45964963D01*
X83483034Y-45913443D01*
X83326509Y-45829778D01*
X83285357Y-45796005D01*
X83189314Y-45717186D01*
X83106052Y-45615729D01*
X83076722Y-45579991D01*
X82993057Y-45423466D01*
X82941537Y-45253627D01*
X82924141Y-45077000D01*
X82941537Y-44900373D01*
X82993057Y-44730534D01*
X83076722Y-44574009D01*
X83106052Y-44538271D01*
X83189314Y-44436814D01*
X83290771Y-44353552D01*
X83326509Y-44324222D01*
X83483034Y-44240557D01*
X83652873Y-44189037D01*
X83719057Y-44182519D01*
X83785240Y-44176000D01*
X83873760Y-44176000D01*
X83939943Y-44182519D01*
X83939943Y-44182519D01*
G37*
G36*
X89810500Y-45978000D02*
G01*
X88008500Y-45978000D01*
X88008500Y-44176000D01*
X89810500Y-44176000D01*
X89810500Y-45978000D01*
X89810500Y-45978000D01*
G37*
G36*
X86479943Y-44182519D02*
G01*
X86546127Y-44189037D01*
X86715966Y-44240557D01*
X86872491Y-44324222D01*
X86908229Y-44353552D01*
X87009686Y-44436814D01*
X87092948Y-44538271D01*
X87122278Y-44574009D01*
X87205943Y-44730534D01*
X87257463Y-44900373D01*
X87274859Y-45077000D01*
X87257463Y-45253627D01*
X87205943Y-45423466D01*
X87122278Y-45579991D01*
X87092948Y-45615729D01*
X87009686Y-45717186D01*
X86913643Y-45796005D01*
X86872491Y-45829778D01*
X86715966Y-45913443D01*
X86546127Y-45964963D01*
X86479942Y-45971482D01*
X86413760Y-45978000D01*
X86325240Y-45978000D01*
X86259058Y-45971482D01*
X86192873Y-45964963D01*
X86023034Y-45913443D01*
X85866509Y-45829778D01*
X85825357Y-45796005D01*
X85729314Y-45717186D01*
X85646052Y-45615729D01*
X85616722Y-45579991D01*
X85533057Y-45423466D01*
X85481537Y-45253627D01*
X85464141Y-45077000D01*
X85481537Y-44900373D01*
X85533057Y-44730534D01*
X85616722Y-44574009D01*
X85646052Y-44538271D01*
X85729314Y-44436814D01*
X85830771Y-44353552D01*
X85866509Y-44324222D01*
X86023034Y-44240557D01*
X86192873Y-44189037D01*
X86259057Y-44182519D01*
X86325240Y-44176000D01*
X86413760Y-44176000D01*
X86479943Y-44182519D01*
X86479943Y-44182519D01*
G37*
G36*
X64351000Y-45936000D02*
G01*
X62649000Y-45936000D01*
X62649000Y-44234000D01*
X64351000Y-44234000D01*
X64351000Y-45936000D01*
X64351000Y-45936000D01*
G37*
G36*
X61811000Y-45936000D02*
G01*
X60109000Y-45936000D01*
X60109000Y-44234000D01*
X61811000Y-44234000D01*
X61811000Y-45936000D01*
X61811000Y-45936000D01*
G37*
G36*
X76366823Y-44246313D02*
G01*
X76527242Y-44294976D01*
X76581955Y-44324221D01*
X76675078Y-44373996D01*
X76804659Y-44480341D01*
X76911004Y-44609922D01*
X76911005Y-44609924D01*
X76990024Y-44757758D01*
X77038687Y-44918177D01*
X77055117Y-45085000D01*
X77038687Y-45251823D01*
X76990024Y-45412242D01*
X76919114Y-45544906D01*
X76911004Y-45560078D01*
X76804659Y-45689659D01*
X76675078Y-45796004D01*
X76675076Y-45796005D01*
X76527242Y-45875024D01*
X76366823Y-45923687D01*
X76241804Y-45936000D01*
X76158196Y-45936000D01*
X76033177Y-45923687D01*
X75872758Y-45875024D01*
X75724924Y-45796005D01*
X75724922Y-45796004D01*
X75595341Y-45689659D01*
X75488996Y-45560078D01*
X75480886Y-45544906D01*
X75409976Y-45412242D01*
X75361313Y-45251823D01*
X75344883Y-45085000D01*
X75361313Y-44918177D01*
X75409976Y-44757758D01*
X75488995Y-44609924D01*
X75488996Y-44609922D01*
X75595341Y-44480341D01*
X75724922Y-44373996D01*
X75818045Y-44324221D01*
X75872758Y-44294976D01*
X76033177Y-44246313D01*
X76158196Y-44234000D01*
X76241804Y-44234000D01*
X76366823Y-44246313D01*
X76366823Y-44246313D01*
G37*
G36*
X78906823Y-44246313D02*
G01*
X79067242Y-44294976D01*
X79121955Y-44324221D01*
X79215078Y-44373996D01*
X79344659Y-44480341D01*
X79451004Y-44609922D01*
X79451005Y-44609924D01*
X79530024Y-44757758D01*
X79578687Y-44918177D01*
X79595117Y-45085000D01*
X79578687Y-45251823D01*
X79530024Y-45412242D01*
X79459114Y-45544906D01*
X79451004Y-45560078D01*
X79344659Y-45689659D01*
X79215078Y-45796004D01*
X79215076Y-45796005D01*
X79067242Y-45875024D01*
X78906823Y-45923687D01*
X78781804Y-45936000D01*
X78698196Y-45936000D01*
X78573177Y-45923687D01*
X78412758Y-45875024D01*
X78264924Y-45796005D01*
X78264922Y-45796004D01*
X78135341Y-45689659D01*
X78028996Y-45560078D01*
X78020886Y-45544906D01*
X77949976Y-45412242D01*
X77901313Y-45251823D01*
X77884883Y-45085000D01*
X77901313Y-44918177D01*
X77949976Y-44757758D01*
X78028995Y-44609924D01*
X78028996Y-44609922D01*
X78135341Y-44480341D01*
X78264922Y-44373996D01*
X78358045Y-44324221D01*
X78412758Y-44294976D01*
X78573177Y-44246313D01*
X78698196Y-44234000D01*
X78781804Y-44234000D01*
X78906823Y-44246313D01*
X78906823Y-44246313D01*
G37*
M02*
