G04 #@! TF.GenerationSoftware,KiCad,Pcbnew,(5.1.2)-1*
G04 #@! TF.CreationDate,2019-11-25T21:42:07-05:00*
G04 #@! TF.ProjectId,svideomod,73766964-656f-46d6-9f64-2e6b69636164,rev?*
G04 #@! TF.SameCoordinates,Original*
G04 #@! TF.FileFunction,Legend,Top*
G04 #@! TF.FilePolarity,Positive*
%FSLAX46Y46*%
G04 Gerber Fmt 4.6, Leading zero omitted, Abs format (unit mm)*
G04 Created by KiCad (PCBNEW (5.1.2)-1) date 2019-11-25 21:42:07*
%MOMM*%
%LPD*%
G04 APERTURE LIST*
%ADD10C,0.150000*%
%ADD11C,0.400000*%
%ADD12C,0.120000*%
%ADD13C,0.300000*%
G04 APERTURE END LIST*
D10*
X69191119Y-47212500D02*
X68191119Y-47545833D01*
X69191119Y-47879166D01*
X68191119Y-48736309D02*
X68191119Y-48164880D01*
X68191119Y-48450595D02*
X69191119Y-48450595D01*
X69048261Y-48355357D01*
X68953023Y-48260119D01*
X68905404Y-48164880D01*
X68286357Y-49164880D02*
X68238738Y-49212500D01*
X68191119Y-49164880D01*
X68238738Y-49117261D01*
X68286357Y-49164880D01*
X68191119Y-49164880D01*
X69191119Y-49831547D02*
X69191119Y-49926785D01*
X69143500Y-50022023D01*
X69095880Y-50069642D01*
X69000642Y-50117261D01*
X68810166Y-50164880D01*
X68572071Y-50164880D01*
X68381595Y-50117261D01*
X68286357Y-50069642D01*
X68238738Y-50022023D01*
X68191119Y-49926785D01*
X68191119Y-49831547D01*
X68238738Y-49736309D01*
X68286357Y-49688690D01*
X68381595Y-49641071D01*
X68572071Y-49593452D01*
X68810166Y-49593452D01*
X69000642Y-49641071D01*
X69095880Y-49688690D01*
X69143500Y-49736309D01*
X69191119Y-49831547D01*
X68191119Y-51117261D02*
X68191119Y-50545833D01*
X68191119Y-50831547D02*
X69191119Y-50831547D01*
X69048261Y-50736309D01*
X68953023Y-50641071D01*
X68905404Y-50545833D01*
D11*
X69953285Y-48197523D02*
X69848523Y-48102285D01*
X69743761Y-47816571D01*
X69743761Y-47626095D01*
X69848523Y-47340380D01*
X70058047Y-47149904D01*
X70267571Y-47054666D01*
X70686619Y-46959428D01*
X71000904Y-46959428D01*
X71419952Y-47054666D01*
X71629476Y-47149904D01*
X71839000Y-47340380D01*
X71943761Y-47626095D01*
X71943761Y-47816571D01*
X71839000Y-48102285D01*
X71734238Y-48197523D01*
X69743761Y-49340380D02*
X69848523Y-49149904D01*
X70058047Y-49054666D01*
X71943761Y-49054666D01*
X69848523Y-50864190D02*
X69743761Y-50673714D01*
X69743761Y-50292761D01*
X69848523Y-50102285D01*
X70058047Y-50007047D01*
X70896142Y-50007047D01*
X71105666Y-50102285D01*
X71210428Y-50292761D01*
X71210428Y-50673714D01*
X71105666Y-50864190D01*
X70896142Y-50959428D01*
X70686619Y-50959428D01*
X70477095Y-50007047D01*
X69743761Y-52673714D02*
X70896142Y-52673714D01*
X71105666Y-52578476D01*
X71210428Y-52388000D01*
X71210428Y-52007047D01*
X71105666Y-51816571D01*
X69848523Y-52673714D02*
X69743761Y-52483238D01*
X69743761Y-52007047D01*
X69848523Y-51816571D01*
X70058047Y-51721333D01*
X70267571Y-51721333D01*
X70477095Y-51816571D01*
X70581857Y-52007047D01*
X70581857Y-52483238D01*
X70686619Y-52673714D01*
X69743761Y-53626095D02*
X71210428Y-53626095D01*
X70791380Y-53626095D02*
X71000904Y-53721333D01*
X71105666Y-53816571D01*
X71210428Y-54007047D01*
X71210428Y-54197523D01*
X71943761Y-54578476D02*
X69743761Y-55245142D01*
X71943761Y-55911809D01*
X69743761Y-56578476D02*
X71210428Y-56578476D01*
X71943761Y-56578476D02*
X71839000Y-56483238D01*
X71734238Y-56578476D01*
X71839000Y-56673714D01*
X71943761Y-56578476D01*
X71734238Y-56578476D01*
X69743761Y-58388000D02*
X71943761Y-58388000D01*
X69848523Y-58388000D02*
X69743761Y-58197523D01*
X69743761Y-57816571D01*
X69848523Y-57626095D01*
X69953285Y-57530857D01*
X70162809Y-57435619D01*
X70791380Y-57435619D01*
X71000904Y-57530857D01*
X71105666Y-57626095D01*
X71210428Y-57816571D01*
X71210428Y-58197523D01*
X71105666Y-58388000D01*
X69848523Y-60102285D02*
X69743761Y-59911809D01*
X69743761Y-59530857D01*
X69848523Y-59340380D01*
X70058047Y-59245142D01*
X70896142Y-59245142D01*
X71105666Y-59340380D01*
X71210428Y-59530857D01*
X71210428Y-59911809D01*
X71105666Y-60102285D01*
X70896142Y-60197523D01*
X70686619Y-60197523D01*
X70477095Y-59245142D01*
X69743761Y-61340380D02*
X69848523Y-61149904D01*
X69953285Y-61054666D01*
X70162809Y-60959428D01*
X70791380Y-60959428D01*
X71000904Y-61054666D01*
X71105666Y-61149904D01*
X71210428Y-61340380D01*
X71210428Y-61626095D01*
X71105666Y-61816571D01*
X71000904Y-61911809D01*
X70791380Y-62007047D01*
X70162809Y-62007047D01*
X69953285Y-61911809D01*
X69848523Y-61816571D01*
X69743761Y-61626095D01*
X69743761Y-61340380D01*
X71943761Y-63721333D02*
X71943761Y-63340380D01*
X71839000Y-63149904D01*
X71734238Y-63054666D01*
X71419952Y-62864190D01*
X71000904Y-62768952D01*
X70162809Y-62768952D01*
X69953285Y-62864190D01*
X69848523Y-62959428D01*
X69743761Y-63149904D01*
X69743761Y-63530857D01*
X69848523Y-63721333D01*
X69953285Y-63816571D01*
X70162809Y-63911809D01*
X70686619Y-63911809D01*
X70896142Y-63816571D01*
X71000904Y-63721333D01*
X71105666Y-63530857D01*
X71105666Y-63149904D01*
X71000904Y-62959428D01*
X70896142Y-62864190D01*
X70686619Y-62768952D01*
X71210428Y-65626095D02*
X69743761Y-65626095D01*
X72048523Y-65149904D02*
X70477095Y-64673714D01*
X70477095Y-65911809D01*
D12*
X90239500Y-43747000D02*
X90239500Y-45077000D01*
X88909500Y-43747000D02*
X90239500Y-43747000D01*
X87639500Y-43747000D02*
X87639500Y-46407000D01*
X87639500Y-46407000D02*
X82499500Y-46407000D01*
X87639500Y-43747000D02*
X82499500Y-43747000D01*
X82499500Y-43747000D02*
X82499500Y-46407000D01*
X75040000Y-43755000D02*
X69580000Y-43755000D01*
X75040000Y-94675000D02*
X75040000Y-43755000D01*
X62120000Y-94675000D02*
X75040000Y-94675000D01*
X62120000Y-43755000D02*
X62120000Y-94675000D01*
X67580000Y-43755000D02*
X62120000Y-43755000D01*
X69580000Y-43755000D02*
G75*
G02X67580000Y-43755000I-1000000J0D01*
G01*
X82811252Y-86435000D02*
X82288748Y-86435000D01*
X82811252Y-85015000D02*
X82288748Y-85015000D01*
X89273748Y-92635000D02*
X89796252Y-92635000D01*
X89273748Y-94055000D02*
X89796252Y-94055000D01*
X87891252Y-76275000D02*
X87368748Y-76275000D01*
X87891252Y-74855000D02*
X87368748Y-74855000D01*
X92526752Y-77903000D02*
X92004248Y-77903000D01*
X92526752Y-79323000D02*
X92004248Y-79323000D01*
X87368748Y-87705000D02*
X87891252Y-87705000D01*
X87368748Y-86285000D02*
X87891252Y-86285000D01*
X82811252Y-82475000D02*
X82288748Y-82475000D01*
X82811252Y-83895000D02*
X82288748Y-83895000D01*
X69290000Y-72651252D02*
X69290000Y-72128748D01*
X67870000Y-72651252D02*
X67870000Y-72128748D01*
X89340000Y-84280000D02*
X89340000Y-77345000D01*
X89340000Y-77345000D02*
X85920000Y-77345000D01*
X85920000Y-77345000D02*
X85920000Y-84280000D01*
X70111252Y-78815000D02*
X69588748Y-78815000D01*
X70111252Y-77395000D02*
X69588748Y-77395000D01*
X82288748Y-77395000D02*
X82811252Y-77395000D01*
X82288748Y-78815000D02*
X82811252Y-78815000D01*
X95200000Y-69620000D02*
X92760000Y-69620000D01*
X92760000Y-69620000D02*
X92760000Y-75160000D01*
X92760000Y-75160000D02*
X95200000Y-75160000D01*
X95200000Y-75160000D02*
X95200000Y-69620000D01*
X92130000Y-50920000D02*
X91371000Y-50920000D01*
X90611000Y-52135000D02*
X90611000Y-49705000D01*
X92130000Y-52135000D02*
X92130000Y-49705000D01*
X92130000Y-49705000D02*
X90611000Y-49705000D01*
X92130000Y-52135000D02*
X90611000Y-52135000D01*
X80840000Y-54600000D02*
X80840000Y-49530000D01*
X90610000Y-54600000D02*
X90610000Y-49530000D01*
X90610000Y-49530000D02*
X80840000Y-49530000D01*
X90610000Y-54600000D02*
X80840000Y-54600000D01*
X82288748Y-81355000D02*
X82811252Y-81355000D01*
X82288748Y-79935000D02*
X82811252Y-79935000D01*
X89796252Y-90095000D02*
X89273748Y-90095000D01*
X89796252Y-91515000D02*
X89273748Y-91515000D01*
X95350000Y-48800000D02*
X95020000Y-48800000D01*
X95350000Y-55340000D02*
X95350000Y-48800000D01*
X95020000Y-55340000D02*
X95350000Y-55340000D01*
X92610000Y-48800000D02*
X92940000Y-48800000D01*
X92610000Y-55340000D02*
X92610000Y-48800000D01*
X92940000Y-55340000D02*
X92610000Y-55340000D01*
X82288748Y-74855000D02*
X82811252Y-74855000D01*
X82288748Y-76275000D02*
X82811252Y-76275000D01*
X95020000Y-58960000D02*
X95350000Y-58960000D01*
X95350000Y-58960000D02*
X95350000Y-65500000D01*
X95350000Y-65500000D02*
X95020000Y-65500000D01*
X92940000Y-58960000D02*
X92610000Y-58960000D01*
X92610000Y-58960000D02*
X92610000Y-65500000D01*
X92610000Y-65500000D02*
X92940000Y-65500000D01*
X73735000Y-62603748D02*
X73735000Y-63126252D01*
X72315000Y-62603748D02*
X72315000Y-63126252D01*
X92130000Y-57270000D02*
X91371000Y-57270000D01*
X90611000Y-58485000D02*
X90611000Y-56055000D01*
X92130000Y-58485000D02*
X92130000Y-56055000D01*
X92130000Y-56055000D02*
X90611000Y-56055000D01*
X92130000Y-58485000D02*
X90611000Y-58485000D01*
X80840000Y-60950000D02*
X80840000Y-55880000D01*
X90610000Y-60950000D02*
X90610000Y-55880000D01*
X90610000Y-55880000D02*
X80840000Y-55880000D01*
X90610000Y-60950000D02*
X80840000Y-60950000D01*
X73735000Y-74668748D02*
X73735000Y-75191252D01*
X72315000Y-74668748D02*
X72315000Y-75191252D01*
X82811252Y-94055000D02*
X82288748Y-94055000D01*
X82811252Y-92635000D02*
X82288748Y-92635000D01*
X90610000Y-67300000D02*
X80840000Y-67300000D01*
X90610000Y-62230000D02*
X80840000Y-62230000D01*
X90610000Y-67300000D02*
X90610000Y-62230000D01*
X80840000Y-67300000D02*
X80840000Y-62230000D01*
X92130000Y-64835000D02*
X90611000Y-64835000D01*
X92130000Y-62405000D02*
X90611000Y-62405000D01*
X92130000Y-64835000D02*
X92130000Y-62405000D01*
X90611000Y-64835000D02*
X90611000Y-62405000D01*
X92130000Y-63620000D02*
X91371000Y-63620000D01*
X82811252Y-90095000D02*
X82288748Y-90095000D01*
X82811252Y-91515000D02*
X82288748Y-91515000D01*
X90610000Y-73650000D02*
X80840000Y-73650000D01*
X90610000Y-68580000D02*
X80840000Y-68580000D01*
X90610000Y-73650000D02*
X90610000Y-68580000D01*
X80840000Y-73650000D02*
X80840000Y-68580000D01*
X92130000Y-71185000D02*
X90611000Y-71185000D01*
X92130000Y-68755000D02*
X90611000Y-68755000D01*
X92130000Y-71185000D02*
X92130000Y-68755000D01*
X90611000Y-71185000D02*
X90611000Y-68755000D01*
X92130000Y-69970000D02*
X91371000Y-69970000D01*
X90150000Y-83820000D02*
X90150000Y-85770000D01*
X90150000Y-83820000D02*
X90150000Y-81870000D01*
X95270000Y-83820000D02*
X95270000Y-85770000D01*
X95270000Y-83820000D02*
X95270000Y-80370000D01*
X69850000Y-91430000D02*
X71800000Y-91430000D01*
X69850000Y-91430000D02*
X67900000Y-91430000D01*
X69850000Y-82560000D02*
X71800000Y-82560000D01*
X69850000Y-82560000D02*
X66400000Y-82560000D01*
X72120000Y-43755000D02*
G75*
G02X70120000Y-43755000I-1000000J0D01*
G01*
X70120000Y-43755000D02*
X64660000Y-43755000D01*
X64660000Y-43755000D02*
X64660000Y-94675000D01*
X64660000Y-94675000D02*
X77580000Y-94675000D01*
X77580000Y-94675000D02*
X77580000Y-43755000D01*
X77580000Y-43755000D02*
X72120000Y-43755000D01*
D13*
X89411109Y-46740100D02*
X89220633Y-46640100D01*
X88934919Y-46640100D01*
X88649204Y-46740100D01*
X88458728Y-46940100D01*
X88363490Y-47140100D01*
X88268252Y-47540100D01*
X88268252Y-47840100D01*
X88363490Y-48240100D01*
X88458728Y-48440100D01*
X88649204Y-48640100D01*
X88934919Y-48740100D01*
X89125395Y-48740100D01*
X89411109Y-48640100D01*
X89506347Y-48540100D01*
X89506347Y-47840100D01*
X89125395Y-47840100D01*
X86347300Y-47803600D02*
X86347300Y-48803600D01*
X85680633Y-46703600D02*
X86347300Y-47803600D01*
X87013966Y-46703600D01*
X84451747Y-48590900D02*
X84356509Y-48690900D01*
X84070795Y-48790900D01*
X83880319Y-48790900D01*
X83594604Y-48690900D01*
X83404128Y-48490900D01*
X83308890Y-48290900D01*
X83213652Y-47890900D01*
X83213652Y-47590900D01*
X83308890Y-47190900D01*
X83404128Y-46990900D01*
X83594604Y-46790900D01*
X83880319Y-46690900D01*
X84070795Y-46690900D01*
X84356509Y-46790900D01*
X84451747Y-46890900D01*
D10*
X82383333Y-87732142D02*
X82335714Y-87779761D01*
X82192857Y-87827380D01*
X82097619Y-87827380D01*
X81954761Y-87779761D01*
X81859523Y-87684523D01*
X81811904Y-87589285D01*
X81764285Y-87398809D01*
X81764285Y-87255952D01*
X81811904Y-87065476D01*
X81859523Y-86970238D01*
X81954761Y-86875000D01*
X82097619Y-86827380D01*
X82192857Y-86827380D01*
X82335714Y-86875000D01*
X82383333Y-86922619D01*
X83335714Y-87827380D02*
X82764285Y-87827380D01*
X83050000Y-87827380D02*
X83050000Y-86827380D01*
X82954761Y-86970238D01*
X82859523Y-87065476D01*
X82764285Y-87113095D01*
X91908333Y-93702142D02*
X91860714Y-93749761D01*
X91717857Y-93797380D01*
X91622619Y-93797380D01*
X91479761Y-93749761D01*
X91384523Y-93654523D01*
X91336904Y-93559285D01*
X91289285Y-93368809D01*
X91289285Y-93225952D01*
X91336904Y-93035476D01*
X91384523Y-92940238D01*
X91479761Y-92845000D01*
X91622619Y-92797380D01*
X91717857Y-92797380D01*
X91860714Y-92845000D01*
X91908333Y-92892619D01*
X92289285Y-92892619D02*
X92336904Y-92845000D01*
X92432142Y-92797380D01*
X92670238Y-92797380D01*
X92765476Y-92845000D01*
X92813095Y-92892619D01*
X92860714Y-92987857D01*
X92860714Y-93083095D01*
X92813095Y-93225952D01*
X92241666Y-93797380D01*
X92860714Y-93797380D01*
X90003333Y-75922142D02*
X89955714Y-75969761D01*
X89812857Y-76017380D01*
X89717619Y-76017380D01*
X89574761Y-75969761D01*
X89479523Y-75874523D01*
X89431904Y-75779285D01*
X89384285Y-75588809D01*
X89384285Y-75445952D01*
X89431904Y-75255476D01*
X89479523Y-75160238D01*
X89574761Y-75065000D01*
X89717619Y-75017380D01*
X89812857Y-75017380D01*
X89955714Y-75065000D01*
X90003333Y-75112619D01*
X90336666Y-75017380D02*
X90955714Y-75017380D01*
X90622380Y-75398333D01*
X90765238Y-75398333D01*
X90860476Y-75445952D01*
X90908095Y-75493571D01*
X90955714Y-75588809D01*
X90955714Y-75826904D01*
X90908095Y-75922142D01*
X90860476Y-75969761D01*
X90765238Y-76017380D01*
X90479523Y-76017380D01*
X90384285Y-75969761D01*
X90336666Y-75922142D01*
X94638833Y-78970142D02*
X94591214Y-79017761D01*
X94448357Y-79065380D01*
X94353119Y-79065380D01*
X94210261Y-79017761D01*
X94115023Y-78922523D01*
X94067404Y-78827285D01*
X94019785Y-78636809D01*
X94019785Y-78493952D01*
X94067404Y-78303476D01*
X94115023Y-78208238D01*
X94210261Y-78113000D01*
X94353119Y-78065380D01*
X94448357Y-78065380D01*
X94591214Y-78113000D01*
X94638833Y-78160619D01*
X95495976Y-78398714D02*
X95495976Y-79065380D01*
X95257880Y-78017761D02*
X95019785Y-78732047D01*
X95638833Y-78732047D01*
X90003333Y-88622142D02*
X89955714Y-88669761D01*
X89812857Y-88717380D01*
X89717619Y-88717380D01*
X89574761Y-88669761D01*
X89479523Y-88574523D01*
X89431904Y-88479285D01*
X89384285Y-88288809D01*
X89384285Y-88145952D01*
X89431904Y-87955476D01*
X89479523Y-87860238D01*
X89574761Y-87765000D01*
X89717619Y-87717380D01*
X89812857Y-87717380D01*
X89955714Y-87765000D01*
X90003333Y-87812619D01*
X90908095Y-87717380D02*
X90431904Y-87717380D01*
X90384285Y-88193571D01*
X90431904Y-88145952D01*
X90527142Y-88098333D01*
X90765238Y-88098333D01*
X90860476Y-88145952D01*
X90908095Y-88193571D01*
X90955714Y-88288809D01*
X90955714Y-88526904D01*
X90908095Y-88622142D01*
X90860476Y-88669761D01*
X90765238Y-88717380D01*
X90527142Y-88717380D01*
X90431904Y-88669761D01*
X90384285Y-88622142D01*
X84923333Y-83542142D02*
X84875714Y-83589761D01*
X84732857Y-83637380D01*
X84637619Y-83637380D01*
X84494761Y-83589761D01*
X84399523Y-83494523D01*
X84351904Y-83399285D01*
X84304285Y-83208809D01*
X84304285Y-83065952D01*
X84351904Y-82875476D01*
X84399523Y-82780238D01*
X84494761Y-82685000D01*
X84637619Y-82637380D01*
X84732857Y-82637380D01*
X84875714Y-82685000D01*
X84923333Y-82732619D01*
X85780476Y-82637380D02*
X85590000Y-82637380D01*
X85494761Y-82685000D01*
X85447142Y-82732619D01*
X85351904Y-82875476D01*
X85304285Y-83065952D01*
X85304285Y-83446904D01*
X85351904Y-83542142D01*
X85399523Y-83589761D01*
X85494761Y-83637380D01*
X85685238Y-83637380D01*
X85780476Y-83589761D01*
X85828095Y-83542142D01*
X85875714Y-83446904D01*
X85875714Y-83208809D01*
X85828095Y-83113571D01*
X85780476Y-83065952D01*
X85685238Y-83018333D01*
X85494761Y-83018333D01*
X85399523Y-83065952D01*
X85351904Y-83113571D01*
X85304285Y-83208809D01*
X67287142Y-72556666D02*
X67334761Y-72604285D01*
X67382380Y-72747142D01*
X67382380Y-72842380D01*
X67334761Y-72985238D01*
X67239523Y-73080476D01*
X67144285Y-73128095D01*
X66953809Y-73175714D01*
X66810952Y-73175714D01*
X66620476Y-73128095D01*
X66525238Y-73080476D01*
X66430000Y-72985238D01*
X66382380Y-72842380D01*
X66382380Y-72747142D01*
X66430000Y-72604285D01*
X66477619Y-72556666D01*
X66382380Y-72223333D02*
X66382380Y-71556666D01*
X67382380Y-71985238D01*
X87987142Y-81446666D02*
X88034761Y-81494285D01*
X88082380Y-81637142D01*
X88082380Y-81732380D01*
X88034761Y-81875238D01*
X87939523Y-81970476D01*
X87844285Y-82018095D01*
X87653809Y-82065714D01*
X87510952Y-82065714D01*
X87320476Y-82018095D01*
X87225238Y-81970476D01*
X87130000Y-81875238D01*
X87082380Y-81732380D01*
X87082380Y-81637142D01*
X87130000Y-81494285D01*
X87177619Y-81446666D01*
X87510952Y-80875238D02*
X87463333Y-80970476D01*
X87415714Y-81018095D01*
X87320476Y-81065714D01*
X87272857Y-81065714D01*
X87177619Y-81018095D01*
X87130000Y-80970476D01*
X87082380Y-80875238D01*
X87082380Y-80684761D01*
X87130000Y-80589523D01*
X87177619Y-80541904D01*
X87272857Y-80494285D01*
X87320476Y-80494285D01*
X87415714Y-80541904D01*
X87463333Y-80589523D01*
X87510952Y-80684761D01*
X87510952Y-80875238D01*
X87558571Y-80970476D01*
X87606190Y-81018095D01*
X87701428Y-81065714D01*
X87891904Y-81065714D01*
X87987142Y-81018095D01*
X88034761Y-80970476D01*
X88082380Y-80875238D01*
X88082380Y-80684761D01*
X88034761Y-80589523D01*
X87987142Y-80541904D01*
X87891904Y-80494285D01*
X87701428Y-80494285D01*
X87606190Y-80541904D01*
X87558571Y-80589523D01*
X87510952Y-80684761D01*
X72223333Y-78462142D02*
X72175714Y-78509761D01*
X72032857Y-78557380D01*
X71937619Y-78557380D01*
X71794761Y-78509761D01*
X71699523Y-78414523D01*
X71651904Y-78319285D01*
X71604285Y-78128809D01*
X71604285Y-77985952D01*
X71651904Y-77795476D01*
X71699523Y-77700238D01*
X71794761Y-77605000D01*
X71937619Y-77557380D01*
X72032857Y-77557380D01*
X72175714Y-77605000D01*
X72223333Y-77652619D01*
X72699523Y-78557380D02*
X72890000Y-78557380D01*
X72985238Y-78509761D01*
X73032857Y-78462142D01*
X73128095Y-78319285D01*
X73175714Y-78128809D01*
X73175714Y-77747857D01*
X73128095Y-77652619D01*
X73080476Y-77605000D01*
X72985238Y-77557380D01*
X72794761Y-77557380D01*
X72699523Y-77605000D01*
X72651904Y-77652619D01*
X72604285Y-77747857D01*
X72604285Y-77985952D01*
X72651904Y-78081190D01*
X72699523Y-78128809D01*
X72794761Y-78176428D01*
X72985238Y-78176428D01*
X73080476Y-78128809D01*
X73128095Y-78081190D01*
X73175714Y-77985952D01*
X85082142Y-78462142D02*
X85034523Y-78509761D01*
X84891666Y-78557380D01*
X84796428Y-78557380D01*
X84653571Y-78509761D01*
X84558333Y-78414523D01*
X84510714Y-78319285D01*
X84463095Y-78128809D01*
X84463095Y-77985952D01*
X84510714Y-77795476D01*
X84558333Y-77700238D01*
X84653571Y-77605000D01*
X84796428Y-77557380D01*
X84891666Y-77557380D01*
X85034523Y-77605000D01*
X85082142Y-77652619D01*
X86034523Y-78557380D02*
X85463095Y-78557380D01*
X85748809Y-78557380D02*
X85748809Y-77557380D01*
X85653571Y-77700238D01*
X85558333Y-77795476D01*
X85463095Y-77843095D01*
X86986904Y-78557380D02*
X86415476Y-78557380D01*
X86701190Y-78557380D02*
X86701190Y-77557380D01*
X86605952Y-77700238D01*
X86510714Y-77795476D01*
X86415476Y-77843095D01*
X94432380Y-72556666D02*
X94432380Y-73032857D01*
X93432380Y-73032857D01*
X94432380Y-71699523D02*
X94432380Y-72270952D01*
X94432380Y-71985238D02*
X93432380Y-71985238D01*
X93575238Y-72080476D01*
X93670476Y-72175714D01*
X93718095Y-72270952D01*
X85558333Y-54427380D02*
X85225000Y-53951190D01*
X84986904Y-54427380D02*
X84986904Y-53427380D01*
X85367857Y-53427380D01*
X85463095Y-53475000D01*
X85510714Y-53522619D01*
X85558333Y-53617857D01*
X85558333Y-53760714D01*
X85510714Y-53855952D01*
X85463095Y-53903571D01*
X85367857Y-53951190D01*
X84986904Y-53951190D01*
X86510714Y-54427380D02*
X85939285Y-54427380D01*
X86225000Y-54427380D02*
X86225000Y-53427380D01*
X86129761Y-53570238D01*
X86034523Y-53665476D01*
X85939285Y-53713095D01*
X84923333Y-81097380D02*
X84590000Y-80621190D01*
X84351904Y-81097380D02*
X84351904Y-80097380D01*
X84732857Y-80097380D01*
X84828095Y-80145000D01*
X84875714Y-80192619D01*
X84923333Y-80287857D01*
X84923333Y-80430714D01*
X84875714Y-80525952D01*
X84828095Y-80573571D01*
X84732857Y-80621190D01*
X84351904Y-80621190D01*
X85304285Y-80192619D02*
X85351904Y-80145000D01*
X85447142Y-80097380D01*
X85685238Y-80097380D01*
X85780476Y-80145000D01*
X85828095Y-80192619D01*
X85875714Y-80287857D01*
X85875714Y-80383095D01*
X85828095Y-80525952D01*
X85256666Y-81097380D01*
X85875714Y-81097380D01*
X91908333Y-91257380D02*
X91575000Y-90781190D01*
X91336904Y-91257380D02*
X91336904Y-90257380D01*
X91717857Y-90257380D01*
X91813095Y-90305000D01*
X91860714Y-90352619D01*
X91908333Y-90447857D01*
X91908333Y-90590714D01*
X91860714Y-90685952D01*
X91813095Y-90733571D01*
X91717857Y-90781190D01*
X91336904Y-90781190D01*
X92241666Y-90257380D02*
X92860714Y-90257380D01*
X92527380Y-90638333D01*
X92670238Y-90638333D01*
X92765476Y-90685952D01*
X92813095Y-90733571D01*
X92860714Y-90828809D01*
X92860714Y-91066904D01*
X92813095Y-91162142D01*
X92765476Y-91209761D01*
X92670238Y-91257380D01*
X92384523Y-91257380D01*
X92289285Y-91209761D01*
X92241666Y-91162142D01*
X94432380Y-52236666D02*
X93956190Y-52570000D01*
X94432380Y-52808095D02*
X93432380Y-52808095D01*
X93432380Y-52427142D01*
X93480000Y-52331904D01*
X93527619Y-52284285D01*
X93622857Y-52236666D01*
X93765714Y-52236666D01*
X93860952Y-52284285D01*
X93908571Y-52331904D01*
X93956190Y-52427142D01*
X93956190Y-52808095D01*
X93765714Y-51379523D02*
X94432380Y-51379523D01*
X93384761Y-51617619D02*
X94099047Y-51855714D01*
X94099047Y-51236666D01*
X84923333Y-76017380D02*
X84590000Y-75541190D01*
X84351904Y-76017380D02*
X84351904Y-75017380D01*
X84732857Y-75017380D01*
X84828095Y-75065000D01*
X84875714Y-75112619D01*
X84923333Y-75207857D01*
X84923333Y-75350714D01*
X84875714Y-75445952D01*
X84828095Y-75493571D01*
X84732857Y-75541190D01*
X84351904Y-75541190D01*
X85780476Y-75017380D02*
X85590000Y-75017380D01*
X85494761Y-75065000D01*
X85447142Y-75112619D01*
X85351904Y-75255476D01*
X85304285Y-75445952D01*
X85304285Y-75826904D01*
X85351904Y-75922142D01*
X85399523Y-75969761D01*
X85494761Y-76017380D01*
X85685238Y-76017380D01*
X85780476Y-75969761D01*
X85828095Y-75922142D01*
X85875714Y-75826904D01*
X85875714Y-75588809D01*
X85828095Y-75493571D01*
X85780476Y-75445952D01*
X85685238Y-75398333D01*
X85494761Y-75398333D01*
X85399523Y-75445952D01*
X85351904Y-75493571D01*
X85304285Y-75588809D01*
X94432380Y-62396666D02*
X93956190Y-62730000D01*
X94432380Y-62968095D02*
X93432380Y-62968095D01*
X93432380Y-62587142D01*
X93480000Y-62491904D01*
X93527619Y-62444285D01*
X93622857Y-62396666D01*
X93765714Y-62396666D01*
X93860952Y-62444285D01*
X93908571Y-62491904D01*
X93956190Y-62587142D01*
X93956190Y-62968095D01*
X93432380Y-62063333D02*
X93432380Y-61396666D01*
X94432380Y-61825238D01*
X75127380Y-63031666D02*
X74651190Y-63365000D01*
X75127380Y-63603095D02*
X74127380Y-63603095D01*
X74127380Y-63222142D01*
X74175000Y-63126904D01*
X74222619Y-63079285D01*
X74317857Y-63031666D01*
X74460714Y-63031666D01*
X74555952Y-63079285D01*
X74603571Y-63126904D01*
X74651190Y-63222142D01*
X74651190Y-63603095D01*
X74555952Y-62460238D02*
X74508333Y-62555476D01*
X74460714Y-62603095D01*
X74365476Y-62650714D01*
X74317857Y-62650714D01*
X74222619Y-62603095D01*
X74175000Y-62555476D01*
X74127380Y-62460238D01*
X74127380Y-62269761D01*
X74175000Y-62174523D01*
X74222619Y-62126904D01*
X74317857Y-62079285D01*
X74365476Y-62079285D01*
X74460714Y-62126904D01*
X74508333Y-62174523D01*
X74555952Y-62269761D01*
X74555952Y-62460238D01*
X74603571Y-62555476D01*
X74651190Y-62603095D01*
X74746428Y-62650714D01*
X74936904Y-62650714D01*
X75032142Y-62603095D01*
X75079761Y-62555476D01*
X75127380Y-62460238D01*
X75127380Y-62269761D01*
X75079761Y-62174523D01*
X75032142Y-62126904D01*
X74936904Y-62079285D01*
X74746428Y-62079285D01*
X74651190Y-62126904D01*
X74603571Y-62174523D01*
X74555952Y-62269761D01*
X85558333Y-60777380D02*
X85225000Y-60301190D01*
X84986904Y-60777380D02*
X84986904Y-59777380D01*
X85367857Y-59777380D01*
X85463095Y-59825000D01*
X85510714Y-59872619D01*
X85558333Y-59967857D01*
X85558333Y-60110714D01*
X85510714Y-60205952D01*
X85463095Y-60253571D01*
X85367857Y-60301190D01*
X84986904Y-60301190D01*
X86034523Y-60777380D02*
X86225000Y-60777380D01*
X86320238Y-60729761D01*
X86367857Y-60682142D01*
X86463095Y-60539285D01*
X86510714Y-60348809D01*
X86510714Y-59967857D01*
X86463095Y-59872619D01*
X86415476Y-59825000D01*
X86320238Y-59777380D01*
X86129761Y-59777380D01*
X86034523Y-59825000D01*
X85986904Y-59872619D01*
X85939285Y-59967857D01*
X85939285Y-60205952D01*
X85986904Y-60301190D01*
X86034523Y-60348809D01*
X86129761Y-60396428D01*
X86320238Y-60396428D01*
X86415476Y-60348809D01*
X86463095Y-60301190D01*
X86510714Y-60205952D01*
X75127380Y-75572857D02*
X74651190Y-75906190D01*
X75127380Y-76144285D02*
X74127380Y-76144285D01*
X74127380Y-75763333D01*
X74175000Y-75668095D01*
X74222619Y-75620476D01*
X74317857Y-75572857D01*
X74460714Y-75572857D01*
X74555952Y-75620476D01*
X74603571Y-75668095D01*
X74651190Y-75763333D01*
X74651190Y-76144285D01*
X75127380Y-74620476D02*
X75127380Y-75191904D01*
X75127380Y-74906190D02*
X74127380Y-74906190D01*
X74270238Y-75001428D01*
X74365476Y-75096666D01*
X74413095Y-75191904D01*
X74127380Y-74001428D02*
X74127380Y-73906190D01*
X74175000Y-73810952D01*
X74222619Y-73763333D01*
X74317857Y-73715714D01*
X74508333Y-73668095D01*
X74746428Y-73668095D01*
X74936904Y-73715714D01*
X75032142Y-73763333D01*
X75079761Y-73810952D01*
X75127380Y-73906190D01*
X75127380Y-74001428D01*
X75079761Y-74096666D01*
X75032142Y-74144285D01*
X74936904Y-74191904D01*
X74746428Y-74239523D01*
X74508333Y-74239523D01*
X74317857Y-74191904D01*
X74222619Y-74144285D01*
X74175000Y-74096666D01*
X74127380Y-74001428D01*
X85082142Y-93797380D02*
X84748809Y-93321190D01*
X84510714Y-93797380D02*
X84510714Y-92797380D01*
X84891666Y-92797380D01*
X84986904Y-92845000D01*
X85034523Y-92892619D01*
X85082142Y-92987857D01*
X85082142Y-93130714D01*
X85034523Y-93225952D01*
X84986904Y-93273571D01*
X84891666Y-93321190D01*
X84510714Y-93321190D01*
X86034523Y-93797380D02*
X85463095Y-93797380D01*
X85748809Y-93797380D02*
X85748809Y-92797380D01*
X85653571Y-92940238D01*
X85558333Y-93035476D01*
X85463095Y-93083095D01*
X86367857Y-92797380D02*
X86986904Y-92797380D01*
X86653571Y-93178333D01*
X86796428Y-93178333D01*
X86891666Y-93225952D01*
X86939285Y-93273571D01*
X86986904Y-93368809D01*
X86986904Y-93606904D01*
X86939285Y-93702142D01*
X86891666Y-93749761D01*
X86796428Y-93797380D01*
X86510714Y-93797380D01*
X86415476Y-93749761D01*
X86367857Y-93702142D01*
X85082142Y-67127380D02*
X84748809Y-66651190D01*
X84510714Y-67127380D02*
X84510714Y-66127380D01*
X84891666Y-66127380D01*
X84986904Y-66175000D01*
X85034523Y-66222619D01*
X85082142Y-66317857D01*
X85082142Y-66460714D01*
X85034523Y-66555952D01*
X84986904Y-66603571D01*
X84891666Y-66651190D01*
X84510714Y-66651190D01*
X86034523Y-67127380D02*
X85463095Y-67127380D01*
X85748809Y-67127380D02*
X85748809Y-66127380D01*
X85653571Y-66270238D01*
X85558333Y-66365476D01*
X85463095Y-66413095D01*
X86891666Y-66460714D02*
X86891666Y-67127380D01*
X86653571Y-66079761D02*
X86415476Y-66794047D01*
X87034523Y-66794047D01*
X85082142Y-91257380D02*
X84748809Y-90781190D01*
X84510714Y-91257380D02*
X84510714Y-90257380D01*
X84891666Y-90257380D01*
X84986904Y-90305000D01*
X85034523Y-90352619D01*
X85082142Y-90447857D01*
X85082142Y-90590714D01*
X85034523Y-90685952D01*
X84986904Y-90733571D01*
X84891666Y-90781190D01*
X84510714Y-90781190D01*
X86034523Y-91257380D02*
X85463095Y-91257380D01*
X85748809Y-91257380D02*
X85748809Y-90257380D01*
X85653571Y-90400238D01*
X85558333Y-90495476D01*
X85463095Y-90543095D01*
X86939285Y-90257380D02*
X86463095Y-90257380D01*
X86415476Y-90733571D01*
X86463095Y-90685952D01*
X86558333Y-90638333D01*
X86796428Y-90638333D01*
X86891666Y-90685952D01*
X86939285Y-90733571D01*
X86986904Y-90828809D01*
X86986904Y-91066904D01*
X86939285Y-91162142D01*
X86891666Y-91209761D01*
X86796428Y-91257380D01*
X86558333Y-91257380D01*
X86463095Y-91209761D01*
X86415476Y-91162142D01*
X85082142Y-73477380D02*
X84748809Y-73001190D01*
X84510714Y-73477380D02*
X84510714Y-72477380D01*
X84891666Y-72477380D01*
X84986904Y-72525000D01*
X85034523Y-72572619D01*
X85082142Y-72667857D01*
X85082142Y-72810714D01*
X85034523Y-72905952D01*
X84986904Y-72953571D01*
X84891666Y-73001190D01*
X84510714Y-73001190D01*
X86034523Y-73477380D02*
X85463095Y-73477380D01*
X85748809Y-73477380D02*
X85748809Y-72477380D01*
X85653571Y-72620238D01*
X85558333Y-72715476D01*
X85463095Y-72763095D01*
X86891666Y-72477380D02*
X86701190Y-72477380D01*
X86605952Y-72525000D01*
X86558333Y-72572619D01*
X86463095Y-72715476D01*
X86415476Y-72905952D01*
X86415476Y-73286904D01*
X86463095Y-73382142D01*
X86510714Y-73429761D01*
X86605952Y-73477380D01*
X86796428Y-73477380D01*
X86891666Y-73429761D01*
X86939285Y-73382142D01*
X86986904Y-73286904D01*
X86986904Y-73048809D01*
X86939285Y-72953571D01*
X86891666Y-72905952D01*
X86796428Y-72858333D01*
X86605952Y-72858333D01*
X86510714Y-72905952D01*
X86463095Y-72953571D01*
X86415476Y-73048809D01*
X92162380Y-84581904D02*
X92971904Y-84581904D01*
X93067142Y-84534285D01*
X93114761Y-84486666D01*
X93162380Y-84391428D01*
X93162380Y-84200952D01*
X93114761Y-84105714D01*
X93067142Y-84058095D01*
X92971904Y-84010476D01*
X92162380Y-84010476D01*
X93162380Y-83010476D02*
X93162380Y-83581904D01*
X93162380Y-83296190D02*
X92162380Y-83296190D01*
X92305238Y-83391428D01*
X92400476Y-83486666D01*
X92448095Y-83581904D01*
X69088095Y-83272380D02*
X69088095Y-84081904D01*
X69135714Y-84177142D01*
X69183333Y-84224761D01*
X69278571Y-84272380D01*
X69469047Y-84272380D01*
X69564285Y-84224761D01*
X69611904Y-84177142D01*
X69659523Y-84081904D01*
X69659523Y-83272380D01*
X70088095Y-83367619D02*
X70135714Y-83320000D01*
X70230952Y-83272380D01*
X70469047Y-83272380D01*
X70564285Y-83320000D01*
X70611904Y-83367619D01*
X70659523Y-83462857D01*
X70659523Y-83558095D01*
X70611904Y-83700952D01*
X70040476Y-84272380D01*
X70659523Y-84272380D01*
X67043551Y-45222979D02*
X66853075Y-45222979D01*
X66757837Y-45270599D01*
X66710218Y-45318218D01*
X66614979Y-45461075D01*
X66567360Y-45651551D01*
X66567360Y-46032503D01*
X66614979Y-46127741D01*
X66662599Y-46175360D01*
X66757837Y-46222979D01*
X66948313Y-46222979D01*
X67043551Y-46175360D01*
X67091170Y-46127741D01*
X67138789Y-46032503D01*
X67138789Y-45794408D01*
X67091170Y-45699170D01*
X67043551Y-45651551D01*
X66948313Y-45603932D01*
X66757837Y-45603932D01*
X66662599Y-45651551D01*
X66614979Y-45699170D01*
X66567360Y-45794408D01*
X68043551Y-45222979D02*
X67567360Y-45222979D01*
X67519741Y-45699170D01*
X67567360Y-45651551D01*
X67662599Y-45603932D01*
X67900694Y-45603932D01*
X67995932Y-45651551D01*
X68043551Y-45699170D01*
X68091170Y-45794408D01*
X68091170Y-46032503D01*
X68043551Y-46127741D01*
X67995932Y-46175360D01*
X67900694Y-46222979D01*
X67662599Y-46222979D01*
X67567360Y-46175360D01*
X67519741Y-46127741D01*
X68948313Y-45222979D02*
X68757837Y-45222979D01*
X68662599Y-45270599D01*
X68614979Y-45318218D01*
X68519741Y-45461075D01*
X68472122Y-45651551D01*
X68472122Y-46032503D01*
X68519741Y-46127741D01*
X68567360Y-46175360D01*
X68662599Y-46222979D01*
X68853075Y-46222979D01*
X68948313Y-46175360D01*
X68995932Y-46127741D01*
X69043551Y-46032503D01*
X69043551Y-45794408D01*
X68995932Y-45699170D01*
X68948313Y-45651551D01*
X68853075Y-45603932D01*
X68662599Y-45603932D01*
X68567360Y-45651551D01*
X68519741Y-45699170D01*
X68472122Y-45794408D01*
X69376884Y-45222979D02*
X70043551Y-46222979D01*
X70043551Y-45222979D02*
X69376884Y-46222979D01*
X70424503Y-45842027D02*
X71186408Y-45842027D01*
X71519741Y-45222979D02*
X71853075Y-46222979D01*
X72186408Y-45222979D01*
X72519741Y-46222979D02*
X72519741Y-45222979D01*
X73567360Y-46127741D02*
X73519741Y-46175360D01*
X73376884Y-46222979D01*
X73281646Y-46222979D01*
X73138789Y-46175360D01*
X73043551Y-46080122D01*
X72995932Y-45984884D01*
X72948313Y-45794408D01*
X72948313Y-45651551D01*
X72995932Y-45461075D01*
X73043551Y-45365837D01*
X73138789Y-45270599D01*
X73281646Y-45222979D01*
X73376884Y-45222979D01*
X73519741Y-45270599D01*
X73567360Y-45318218D01*
X73995932Y-45842027D02*
X74757837Y-45842027D01*
X75234027Y-46222979D02*
X75234027Y-45222979D01*
X75710218Y-46222979D02*
X75710218Y-45222979D01*
M02*
