M48
; DRILL file {KiCad (5.1.2)-1} date 11/25/2019 9:42:10 PM
; FORMAT={-:-/ absolute / inch / decimal}
; #@! TF.CreationDate,2019-11-25T21:42:10-05:00
; #@! TF.GenerationSoftware,Kicad,Pcbnew,(5.1.2)-1
; #@! TF.FileFunction,Plated,1,2,PTH
FMAT,2
INCH
T1C0.0118
T2C0.0157
T3C0.0315
T4C0.0394
%
G90
G05
T1
X2.7Y-2.8
X2.7Y-2.9
X2.7Y-3.6
X2.775Y-3.425
X2.825Y-3.375
X2.85Y-2.65
X2.85Y-3.0
X2.875Y-2.525
X2.925Y-3.225
X2.9265Y-3.068
X3.225Y-2.715
X3.225Y-3.275
X3.275Y-3.4
X3.29Y-2.865
X3.3Y-3.075
X3.3Y-3.575
X3.3Y-3.675
X3.4Y-3.425
X3.425Y-3.2
X3.4995Y-3.2509
X3.55Y-2.125
X3.5654Y-3.6246
X3.5775Y-3.1125
X3.625Y-3.3375
X3.725Y-3.3325
T2
X3.2096Y-3.175
T3
X3.275Y-2.05
X3.375Y-2.05
X3.475Y-2.05
X3.7Y-1.9
X3.7Y-2.2
X3.275Y-2.3
X3.375Y-2.3
X3.475Y-2.3
X3.275Y-2.55
X3.375Y-2.55
X3.475Y-2.55
X2.4Y-1.775
X2.4Y-1.875
X2.4Y-1.975
X2.4Y-2.075
X2.4Y-2.175
X2.4Y-2.275
X2.4Y-2.375
X2.4Y-2.475
X2.4Y-2.575
X2.4Y-2.675
X2.4Y-2.775
X2.4Y-2.875
X2.4Y-2.975
X2.4Y-3.075
X2.4Y-3.175
X2.4Y-3.275
X2.4Y-3.375
X2.4Y-3.475
X2.4Y-3.575
X2.4Y-3.675
X3.0Y-1.775
X3.0Y-1.875
X3.0Y-1.975
X3.0Y-2.075
X3.0Y-2.175
X3.0Y-2.275
X3.0Y-2.375
X3.0Y-2.475
X3.0Y-2.575
X3.0Y-2.675
X3.0Y-2.775
X3.0Y-2.875
X3.0Y-2.975
X3.0Y-3.075
X3.0Y-3.175
X3.0Y-3.275
X3.0Y-3.375
X3.0Y-3.475
X3.0Y-3.575
X3.0Y-3.675
X2.5Y-1.775
X2.5Y-1.875
X2.5Y-1.975
X2.5Y-2.075
X2.5Y-2.175
X2.5Y-2.275
X2.5Y-2.375
X2.5Y-2.475
X2.5Y-2.575
X2.5Y-2.675
X2.5Y-2.775
X2.5Y-2.875
X2.5Y-2.975
X2.5Y-3.075
X2.5Y-3.175
X2.5Y-3.275
X2.5Y-3.375
X2.5Y-3.475
X2.5Y-3.575
X2.5Y-3.675
X3.1Y-1.775
X3.1Y-1.875
X3.1Y-1.975
X3.1Y-2.075
X3.1Y-2.175
X3.1Y-2.275
X3.1Y-2.375
X3.1Y-2.475
X3.1Y-2.575
X3.1Y-2.675
X3.1Y-2.775
X3.1Y-2.875
X3.1Y-2.975
X3.1Y-3.075
X3.1Y-3.175
X3.1Y-3.275
X3.1Y-3.375
X3.1Y-3.475
X3.1Y-3.575
X3.1Y-3.675
X3.7Y-2.3
X3.7Y-2.6
X3.275Y-2.8
X3.375Y-2.8
X3.475Y-2.8
X3.7Y-2.7
X3.7Y-3.0
T4
X3.3004Y-1.7747
X3.4004Y-1.7747
X3.5004Y-1.7747
T0
M30
