G04 #@! TF.GenerationSoftware,KiCad,Pcbnew,(5.1.2)-1*
G04 #@! TF.CreationDate,2019-11-25T21:42:07-05:00*
G04 #@! TF.ProjectId,svideomod,73766964-656f-46d6-9f64-2e6b69636164,rev?*
G04 #@! TF.SameCoordinates,Original*
G04 #@! TF.FileFunction,Soldermask,Bot*
G04 #@! TF.FilePolarity,Negative*
%FSLAX46Y46*%
G04 Gerber Fmt 4.6, Leading zero omitted, Abs format (unit mm)*
G04 Created by KiCad (PCBNEW (5.1.2)-1) date 2019-11-25 21:42:07*
%MOMM*%
%LPD*%
G04 APERTURE LIST*
%ADD10C,0.100000*%
G04 APERTURE END LIST*
D10*
G36*
X78906823Y-92506313D02*
G01*
X79067242Y-92554976D01*
X79199906Y-92625886D01*
X79215078Y-92633996D01*
X79344659Y-92740341D01*
X79451004Y-92869922D01*
X79451005Y-92869924D01*
X79530024Y-93017758D01*
X79578687Y-93178177D01*
X79595117Y-93345000D01*
X79578687Y-93511823D01*
X79530024Y-93672242D01*
X79459114Y-93804906D01*
X79451004Y-93820078D01*
X79344659Y-93949659D01*
X79215078Y-94056004D01*
X79215076Y-94056005D01*
X79067242Y-94135024D01*
X78906823Y-94183687D01*
X78781804Y-94196000D01*
X78698196Y-94196000D01*
X78573177Y-94183687D01*
X78412758Y-94135024D01*
X78264924Y-94056005D01*
X78264922Y-94056004D01*
X78135341Y-93949659D01*
X78028996Y-93820078D01*
X78020886Y-93804906D01*
X77949976Y-93672242D01*
X77901313Y-93511823D01*
X77884883Y-93345000D01*
X77901313Y-93178177D01*
X77949976Y-93017758D01*
X78028995Y-92869924D01*
X78028996Y-92869922D01*
X78135341Y-92740341D01*
X78264922Y-92633996D01*
X78280094Y-92625886D01*
X78412758Y-92554976D01*
X78573177Y-92506313D01*
X78698196Y-92494000D01*
X78781804Y-92494000D01*
X78906823Y-92506313D01*
X78906823Y-92506313D01*
G37*
G36*
X61126823Y-92506313D02*
G01*
X61287242Y-92554976D01*
X61419906Y-92625886D01*
X61435078Y-92633996D01*
X61564659Y-92740341D01*
X61671004Y-92869922D01*
X61671005Y-92869924D01*
X61750024Y-93017758D01*
X61798687Y-93178177D01*
X61815117Y-93345000D01*
X61798687Y-93511823D01*
X61750024Y-93672242D01*
X61679114Y-93804906D01*
X61671004Y-93820078D01*
X61564659Y-93949659D01*
X61435078Y-94056004D01*
X61435076Y-94056005D01*
X61287242Y-94135024D01*
X61126823Y-94183687D01*
X61001804Y-94196000D01*
X60918196Y-94196000D01*
X60793177Y-94183687D01*
X60632758Y-94135024D01*
X60484924Y-94056005D01*
X60484922Y-94056004D01*
X60355341Y-93949659D01*
X60248996Y-93820078D01*
X60240886Y-93804906D01*
X60169976Y-93672242D01*
X60121313Y-93511823D01*
X60104883Y-93345000D01*
X60121313Y-93178177D01*
X60169976Y-93017758D01*
X60248995Y-92869924D01*
X60248996Y-92869922D01*
X60355341Y-92740341D01*
X60484922Y-92633996D01*
X60500094Y-92625886D01*
X60632758Y-92554976D01*
X60793177Y-92506313D01*
X60918196Y-92494000D01*
X61001804Y-92494000D01*
X61126823Y-92506313D01*
X61126823Y-92506313D01*
G37*
G36*
X63666823Y-92506313D02*
G01*
X63827242Y-92554976D01*
X63959906Y-92625886D01*
X63975078Y-92633996D01*
X64104659Y-92740341D01*
X64211004Y-92869922D01*
X64211005Y-92869924D01*
X64290024Y-93017758D01*
X64338687Y-93178177D01*
X64355117Y-93345000D01*
X64338687Y-93511823D01*
X64290024Y-93672242D01*
X64219114Y-93804906D01*
X64211004Y-93820078D01*
X64104659Y-93949659D01*
X63975078Y-94056004D01*
X63975076Y-94056005D01*
X63827242Y-94135024D01*
X63666823Y-94183687D01*
X63541804Y-94196000D01*
X63458196Y-94196000D01*
X63333177Y-94183687D01*
X63172758Y-94135024D01*
X63024924Y-94056005D01*
X63024922Y-94056004D01*
X62895341Y-93949659D01*
X62788996Y-93820078D01*
X62780886Y-93804906D01*
X62709976Y-93672242D01*
X62661313Y-93511823D01*
X62644883Y-93345000D01*
X62661313Y-93178177D01*
X62709976Y-93017758D01*
X62788995Y-92869924D01*
X62788996Y-92869922D01*
X62895341Y-92740341D01*
X63024922Y-92633996D01*
X63040094Y-92625886D01*
X63172758Y-92554976D01*
X63333177Y-92506313D01*
X63458196Y-92494000D01*
X63541804Y-92494000D01*
X63666823Y-92506313D01*
X63666823Y-92506313D01*
G37*
G36*
X76366823Y-92506313D02*
G01*
X76527242Y-92554976D01*
X76659906Y-92625886D01*
X76675078Y-92633996D01*
X76804659Y-92740341D01*
X76911004Y-92869922D01*
X76911005Y-92869924D01*
X76990024Y-93017758D01*
X77038687Y-93178177D01*
X77055117Y-93345000D01*
X77038687Y-93511823D01*
X76990024Y-93672242D01*
X76919114Y-93804906D01*
X76911004Y-93820078D01*
X76804659Y-93949659D01*
X76675078Y-94056004D01*
X76675076Y-94056005D01*
X76527242Y-94135024D01*
X76366823Y-94183687D01*
X76241804Y-94196000D01*
X76158196Y-94196000D01*
X76033177Y-94183687D01*
X75872758Y-94135024D01*
X75724924Y-94056005D01*
X75724922Y-94056004D01*
X75595341Y-93949659D01*
X75488996Y-93820078D01*
X75480886Y-93804906D01*
X75409976Y-93672242D01*
X75361313Y-93511823D01*
X75344883Y-93345000D01*
X75361313Y-93178177D01*
X75409976Y-93017758D01*
X75488995Y-92869924D01*
X75488996Y-92869922D01*
X75595341Y-92740341D01*
X75724922Y-92633996D01*
X75740094Y-92625886D01*
X75872758Y-92554976D01*
X76033177Y-92506313D01*
X76158196Y-92494000D01*
X76241804Y-92494000D01*
X76366823Y-92506313D01*
X76366823Y-92506313D01*
G37*
G36*
X61126823Y-89966313D02*
G01*
X61287242Y-90014976D01*
X61419906Y-90085886D01*
X61435078Y-90093996D01*
X61564659Y-90200341D01*
X61671004Y-90329922D01*
X61671005Y-90329924D01*
X61750024Y-90477758D01*
X61798687Y-90638177D01*
X61815117Y-90805000D01*
X61798687Y-90971823D01*
X61750024Y-91132242D01*
X61679114Y-91264906D01*
X61671004Y-91280078D01*
X61564659Y-91409659D01*
X61435078Y-91516004D01*
X61435076Y-91516005D01*
X61287242Y-91595024D01*
X61126823Y-91643687D01*
X61001804Y-91656000D01*
X60918196Y-91656000D01*
X60793177Y-91643687D01*
X60632758Y-91595024D01*
X60484924Y-91516005D01*
X60484922Y-91516004D01*
X60355341Y-91409659D01*
X60248996Y-91280078D01*
X60240886Y-91264906D01*
X60169976Y-91132242D01*
X60121313Y-90971823D01*
X60104883Y-90805000D01*
X60121313Y-90638177D01*
X60169976Y-90477758D01*
X60248995Y-90329924D01*
X60248996Y-90329922D01*
X60355341Y-90200341D01*
X60484922Y-90093996D01*
X60500094Y-90085886D01*
X60632758Y-90014976D01*
X60793177Y-89966313D01*
X60918196Y-89954000D01*
X61001804Y-89954000D01*
X61126823Y-89966313D01*
X61126823Y-89966313D01*
G37*
G36*
X76366823Y-89966313D02*
G01*
X76527242Y-90014976D01*
X76659906Y-90085886D01*
X76675078Y-90093996D01*
X76804659Y-90200341D01*
X76911004Y-90329922D01*
X76911005Y-90329924D01*
X76990024Y-90477758D01*
X77038687Y-90638177D01*
X77055117Y-90805000D01*
X77038687Y-90971823D01*
X76990024Y-91132242D01*
X76919114Y-91264906D01*
X76911004Y-91280078D01*
X76804659Y-91409659D01*
X76675078Y-91516004D01*
X76675076Y-91516005D01*
X76527242Y-91595024D01*
X76366823Y-91643687D01*
X76241804Y-91656000D01*
X76158196Y-91656000D01*
X76033177Y-91643687D01*
X75872758Y-91595024D01*
X75724924Y-91516005D01*
X75724922Y-91516004D01*
X75595341Y-91409659D01*
X75488996Y-91280078D01*
X75480886Y-91264906D01*
X75409976Y-91132242D01*
X75361313Y-90971823D01*
X75344883Y-90805000D01*
X75361313Y-90638177D01*
X75409976Y-90477758D01*
X75488995Y-90329924D01*
X75488996Y-90329922D01*
X75595341Y-90200341D01*
X75724922Y-90093996D01*
X75740094Y-90085886D01*
X75872758Y-90014976D01*
X76033177Y-89966313D01*
X76158196Y-89954000D01*
X76241804Y-89954000D01*
X76366823Y-89966313D01*
X76366823Y-89966313D01*
G37*
G36*
X63666823Y-89966313D02*
G01*
X63827242Y-90014976D01*
X63959906Y-90085886D01*
X63975078Y-90093996D01*
X64104659Y-90200341D01*
X64211004Y-90329922D01*
X64211005Y-90329924D01*
X64290024Y-90477758D01*
X64338687Y-90638177D01*
X64355117Y-90805000D01*
X64338687Y-90971823D01*
X64290024Y-91132242D01*
X64219114Y-91264906D01*
X64211004Y-91280078D01*
X64104659Y-91409659D01*
X63975078Y-91516004D01*
X63975076Y-91516005D01*
X63827242Y-91595024D01*
X63666823Y-91643687D01*
X63541804Y-91656000D01*
X63458196Y-91656000D01*
X63333177Y-91643687D01*
X63172758Y-91595024D01*
X63024924Y-91516005D01*
X63024922Y-91516004D01*
X62895341Y-91409659D01*
X62788996Y-91280078D01*
X62780886Y-91264906D01*
X62709976Y-91132242D01*
X62661313Y-90971823D01*
X62644883Y-90805000D01*
X62661313Y-90638177D01*
X62709976Y-90477758D01*
X62788995Y-90329924D01*
X62788996Y-90329922D01*
X62895341Y-90200341D01*
X63024922Y-90093996D01*
X63040094Y-90085886D01*
X63172758Y-90014976D01*
X63333177Y-89966313D01*
X63458196Y-89954000D01*
X63541804Y-89954000D01*
X63666823Y-89966313D01*
X63666823Y-89966313D01*
G37*
G36*
X78906823Y-89966313D02*
G01*
X79067242Y-90014976D01*
X79199906Y-90085886D01*
X79215078Y-90093996D01*
X79344659Y-90200341D01*
X79451004Y-90329922D01*
X79451005Y-90329924D01*
X79530024Y-90477758D01*
X79578687Y-90638177D01*
X79595117Y-90805000D01*
X79578687Y-90971823D01*
X79530024Y-91132242D01*
X79459114Y-91264906D01*
X79451004Y-91280078D01*
X79344659Y-91409659D01*
X79215078Y-91516004D01*
X79215076Y-91516005D01*
X79067242Y-91595024D01*
X78906823Y-91643687D01*
X78781804Y-91656000D01*
X78698196Y-91656000D01*
X78573177Y-91643687D01*
X78412758Y-91595024D01*
X78264924Y-91516005D01*
X78264922Y-91516004D01*
X78135341Y-91409659D01*
X78028996Y-91280078D01*
X78020886Y-91264906D01*
X77949976Y-91132242D01*
X77901313Y-90971823D01*
X77884883Y-90805000D01*
X77901313Y-90638177D01*
X77949976Y-90477758D01*
X78028995Y-90329924D01*
X78028996Y-90329922D01*
X78135341Y-90200341D01*
X78264922Y-90093996D01*
X78280094Y-90085886D01*
X78412758Y-90014976D01*
X78573177Y-89966313D01*
X78698196Y-89954000D01*
X78781804Y-89954000D01*
X78906823Y-89966313D01*
X78906823Y-89966313D01*
G37*
G36*
X78906823Y-87426313D02*
G01*
X79067242Y-87474976D01*
X79199906Y-87545886D01*
X79215078Y-87553996D01*
X79344659Y-87660341D01*
X79451004Y-87789922D01*
X79451005Y-87789924D01*
X79530024Y-87937758D01*
X79578687Y-88098177D01*
X79595117Y-88265000D01*
X79578687Y-88431823D01*
X79530024Y-88592242D01*
X79459114Y-88724906D01*
X79451004Y-88740078D01*
X79344659Y-88869659D01*
X79215078Y-88976004D01*
X79215076Y-88976005D01*
X79067242Y-89055024D01*
X78906823Y-89103687D01*
X78781804Y-89116000D01*
X78698196Y-89116000D01*
X78573177Y-89103687D01*
X78412758Y-89055024D01*
X78264924Y-88976005D01*
X78264922Y-88976004D01*
X78135341Y-88869659D01*
X78028996Y-88740078D01*
X78020886Y-88724906D01*
X77949976Y-88592242D01*
X77901313Y-88431823D01*
X77884883Y-88265000D01*
X77901313Y-88098177D01*
X77949976Y-87937758D01*
X78028995Y-87789924D01*
X78028996Y-87789922D01*
X78135341Y-87660341D01*
X78264922Y-87553996D01*
X78280094Y-87545886D01*
X78412758Y-87474976D01*
X78573177Y-87426313D01*
X78698196Y-87414000D01*
X78781804Y-87414000D01*
X78906823Y-87426313D01*
X78906823Y-87426313D01*
G37*
G36*
X63666823Y-87426313D02*
G01*
X63827242Y-87474976D01*
X63959906Y-87545886D01*
X63975078Y-87553996D01*
X64104659Y-87660341D01*
X64211004Y-87789922D01*
X64211005Y-87789924D01*
X64290024Y-87937758D01*
X64338687Y-88098177D01*
X64355117Y-88265000D01*
X64338687Y-88431823D01*
X64290024Y-88592242D01*
X64219114Y-88724906D01*
X64211004Y-88740078D01*
X64104659Y-88869659D01*
X63975078Y-88976004D01*
X63975076Y-88976005D01*
X63827242Y-89055024D01*
X63666823Y-89103687D01*
X63541804Y-89116000D01*
X63458196Y-89116000D01*
X63333177Y-89103687D01*
X63172758Y-89055024D01*
X63024924Y-88976005D01*
X63024922Y-88976004D01*
X62895341Y-88869659D01*
X62788996Y-88740078D01*
X62780886Y-88724906D01*
X62709976Y-88592242D01*
X62661313Y-88431823D01*
X62644883Y-88265000D01*
X62661313Y-88098177D01*
X62709976Y-87937758D01*
X62788995Y-87789924D01*
X62788996Y-87789922D01*
X62895341Y-87660341D01*
X63024922Y-87553996D01*
X63040094Y-87545886D01*
X63172758Y-87474976D01*
X63333177Y-87426313D01*
X63458196Y-87414000D01*
X63541804Y-87414000D01*
X63666823Y-87426313D01*
X63666823Y-87426313D01*
G37*
G36*
X76366823Y-87426313D02*
G01*
X76527242Y-87474976D01*
X76659906Y-87545886D01*
X76675078Y-87553996D01*
X76804659Y-87660341D01*
X76911004Y-87789922D01*
X76911005Y-87789924D01*
X76990024Y-87937758D01*
X77038687Y-88098177D01*
X77055117Y-88265000D01*
X77038687Y-88431823D01*
X76990024Y-88592242D01*
X76919114Y-88724906D01*
X76911004Y-88740078D01*
X76804659Y-88869659D01*
X76675078Y-88976004D01*
X76675076Y-88976005D01*
X76527242Y-89055024D01*
X76366823Y-89103687D01*
X76241804Y-89116000D01*
X76158196Y-89116000D01*
X76033177Y-89103687D01*
X75872758Y-89055024D01*
X75724924Y-88976005D01*
X75724922Y-88976004D01*
X75595341Y-88869659D01*
X75488996Y-88740078D01*
X75480886Y-88724906D01*
X75409976Y-88592242D01*
X75361313Y-88431823D01*
X75344883Y-88265000D01*
X75361313Y-88098177D01*
X75409976Y-87937758D01*
X75488995Y-87789924D01*
X75488996Y-87789922D01*
X75595341Y-87660341D01*
X75724922Y-87553996D01*
X75740094Y-87545886D01*
X75872758Y-87474976D01*
X76033177Y-87426313D01*
X76158196Y-87414000D01*
X76241804Y-87414000D01*
X76366823Y-87426313D01*
X76366823Y-87426313D01*
G37*
G36*
X61126823Y-87426313D02*
G01*
X61287242Y-87474976D01*
X61419906Y-87545886D01*
X61435078Y-87553996D01*
X61564659Y-87660341D01*
X61671004Y-87789922D01*
X61671005Y-87789924D01*
X61750024Y-87937758D01*
X61798687Y-88098177D01*
X61815117Y-88265000D01*
X61798687Y-88431823D01*
X61750024Y-88592242D01*
X61679114Y-88724906D01*
X61671004Y-88740078D01*
X61564659Y-88869659D01*
X61435078Y-88976004D01*
X61435076Y-88976005D01*
X61287242Y-89055024D01*
X61126823Y-89103687D01*
X61001804Y-89116000D01*
X60918196Y-89116000D01*
X60793177Y-89103687D01*
X60632758Y-89055024D01*
X60484924Y-88976005D01*
X60484922Y-88976004D01*
X60355341Y-88869659D01*
X60248996Y-88740078D01*
X60240886Y-88724906D01*
X60169976Y-88592242D01*
X60121313Y-88431823D01*
X60104883Y-88265000D01*
X60121313Y-88098177D01*
X60169976Y-87937758D01*
X60248995Y-87789924D01*
X60248996Y-87789922D01*
X60355341Y-87660341D01*
X60484922Y-87553996D01*
X60500094Y-87545886D01*
X60632758Y-87474976D01*
X60793177Y-87426313D01*
X60918196Y-87414000D01*
X61001804Y-87414000D01*
X61126823Y-87426313D01*
X61126823Y-87426313D01*
G37*
G36*
X78906823Y-84886313D02*
G01*
X79067242Y-84934976D01*
X79199906Y-85005886D01*
X79215078Y-85013996D01*
X79344659Y-85120341D01*
X79451004Y-85249922D01*
X79451005Y-85249924D01*
X79530024Y-85397758D01*
X79578687Y-85558177D01*
X79595117Y-85725000D01*
X79578687Y-85891823D01*
X79530024Y-86052242D01*
X79459114Y-86184906D01*
X79451004Y-86200078D01*
X79344659Y-86329659D01*
X79215078Y-86436004D01*
X79215076Y-86436005D01*
X79067242Y-86515024D01*
X78906823Y-86563687D01*
X78781804Y-86576000D01*
X78698196Y-86576000D01*
X78573177Y-86563687D01*
X78412758Y-86515024D01*
X78264924Y-86436005D01*
X78264922Y-86436004D01*
X78135341Y-86329659D01*
X78028996Y-86200078D01*
X78020886Y-86184906D01*
X77949976Y-86052242D01*
X77901313Y-85891823D01*
X77884883Y-85725000D01*
X77901313Y-85558177D01*
X77949976Y-85397758D01*
X78028995Y-85249924D01*
X78028996Y-85249922D01*
X78135341Y-85120341D01*
X78264922Y-85013996D01*
X78280094Y-85005886D01*
X78412758Y-84934976D01*
X78573177Y-84886313D01*
X78698196Y-84874000D01*
X78781804Y-84874000D01*
X78906823Y-84886313D01*
X78906823Y-84886313D01*
G37*
G36*
X61126823Y-84886313D02*
G01*
X61287242Y-84934976D01*
X61419906Y-85005886D01*
X61435078Y-85013996D01*
X61564659Y-85120341D01*
X61671004Y-85249922D01*
X61671005Y-85249924D01*
X61750024Y-85397758D01*
X61798687Y-85558177D01*
X61815117Y-85725000D01*
X61798687Y-85891823D01*
X61750024Y-86052242D01*
X61679114Y-86184906D01*
X61671004Y-86200078D01*
X61564659Y-86329659D01*
X61435078Y-86436004D01*
X61435076Y-86436005D01*
X61287242Y-86515024D01*
X61126823Y-86563687D01*
X61001804Y-86576000D01*
X60918196Y-86576000D01*
X60793177Y-86563687D01*
X60632758Y-86515024D01*
X60484924Y-86436005D01*
X60484922Y-86436004D01*
X60355341Y-86329659D01*
X60248996Y-86200078D01*
X60240886Y-86184906D01*
X60169976Y-86052242D01*
X60121313Y-85891823D01*
X60104883Y-85725000D01*
X60121313Y-85558177D01*
X60169976Y-85397758D01*
X60248995Y-85249924D01*
X60248996Y-85249922D01*
X60355341Y-85120341D01*
X60484922Y-85013996D01*
X60500094Y-85005886D01*
X60632758Y-84934976D01*
X60793177Y-84886313D01*
X60918196Y-84874000D01*
X61001804Y-84874000D01*
X61126823Y-84886313D01*
X61126823Y-84886313D01*
G37*
G36*
X63666823Y-84886313D02*
G01*
X63827242Y-84934976D01*
X63959906Y-85005886D01*
X63975078Y-85013996D01*
X64104659Y-85120341D01*
X64211004Y-85249922D01*
X64211005Y-85249924D01*
X64290024Y-85397758D01*
X64338687Y-85558177D01*
X64355117Y-85725000D01*
X64338687Y-85891823D01*
X64290024Y-86052242D01*
X64219114Y-86184906D01*
X64211004Y-86200078D01*
X64104659Y-86329659D01*
X63975078Y-86436004D01*
X63975076Y-86436005D01*
X63827242Y-86515024D01*
X63666823Y-86563687D01*
X63541804Y-86576000D01*
X63458196Y-86576000D01*
X63333177Y-86563687D01*
X63172758Y-86515024D01*
X63024924Y-86436005D01*
X63024922Y-86436004D01*
X62895341Y-86329659D01*
X62788996Y-86200078D01*
X62780886Y-86184906D01*
X62709976Y-86052242D01*
X62661313Y-85891823D01*
X62644883Y-85725000D01*
X62661313Y-85558177D01*
X62709976Y-85397758D01*
X62788995Y-85249924D01*
X62788996Y-85249922D01*
X62895341Y-85120341D01*
X63024922Y-85013996D01*
X63040094Y-85005886D01*
X63172758Y-84934976D01*
X63333177Y-84886313D01*
X63458196Y-84874000D01*
X63541804Y-84874000D01*
X63666823Y-84886313D01*
X63666823Y-84886313D01*
G37*
G36*
X76366823Y-84886313D02*
G01*
X76527242Y-84934976D01*
X76659906Y-85005886D01*
X76675078Y-85013996D01*
X76804659Y-85120341D01*
X76911004Y-85249922D01*
X76911005Y-85249924D01*
X76990024Y-85397758D01*
X77038687Y-85558177D01*
X77055117Y-85725000D01*
X77038687Y-85891823D01*
X76990024Y-86052242D01*
X76919114Y-86184906D01*
X76911004Y-86200078D01*
X76804659Y-86329659D01*
X76675078Y-86436004D01*
X76675076Y-86436005D01*
X76527242Y-86515024D01*
X76366823Y-86563687D01*
X76241804Y-86576000D01*
X76158196Y-86576000D01*
X76033177Y-86563687D01*
X75872758Y-86515024D01*
X75724924Y-86436005D01*
X75724922Y-86436004D01*
X75595341Y-86329659D01*
X75488996Y-86200078D01*
X75480886Y-86184906D01*
X75409976Y-86052242D01*
X75361313Y-85891823D01*
X75344883Y-85725000D01*
X75361313Y-85558177D01*
X75409976Y-85397758D01*
X75488995Y-85249924D01*
X75488996Y-85249922D01*
X75595341Y-85120341D01*
X75724922Y-85013996D01*
X75740094Y-85005886D01*
X75872758Y-84934976D01*
X76033177Y-84886313D01*
X76158196Y-84874000D01*
X76241804Y-84874000D01*
X76366823Y-84886313D01*
X76366823Y-84886313D01*
G37*
G36*
X61126823Y-82346313D02*
G01*
X61287242Y-82394976D01*
X61419906Y-82465886D01*
X61435078Y-82473996D01*
X61564659Y-82580341D01*
X61671004Y-82709922D01*
X61671005Y-82709924D01*
X61750024Y-82857758D01*
X61798687Y-83018177D01*
X61815117Y-83185000D01*
X61798687Y-83351823D01*
X61750024Y-83512242D01*
X61679114Y-83644906D01*
X61671004Y-83660078D01*
X61564659Y-83789659D01*
X61435078Y-83896004D01*
X61435076Y-83896005D01*
X61287242Y-83975024D01*
X61126823Y-84023687D01*
X61001804Y-84036000D01*
X60918196Y-84036000D01*
X60793177Y-84023687D01*
X60632758Y-83975024D01*
X60484924Y-83896005D01*
X60484922Y-83896004D01*
X60355341Y-83789659D01*
X60248996Y-83660078D01*
X60240886Y-83644906D01*
X60169976Y-83512242D01*
X60121313Y-83351823D01*
X60104883Y-83185000D01*
X60121313Y-83018177D01*
X60169976Y-82857758D01*
X60248995Y-82709924D01*
X60248996Y-82709922D01*
X60355341Y-82580341D01*
X60484922Y-82473996D01*
X60500094Y-82465886D01*
X60632758Y-82394976D01*
X60793177Y-82346313D01*
X60918196Y-82334000D01*
X61001804Y-82334000D01*
X61126823Y-82346313D01*
X61126823Y-82346313D01*
G37*
G36*
X76366823Y-82346313D02*
G01*
X76527242Y-82394976D01*
X76659906Y-82465886D01*
X76675078Y-82473996D01*
X76804659Y-82580341D01*
X76911004Y-82709922D01*
X76911005Y-82709924D01*
X76990024Y-82857758D01*
X77038687Y-83018177D01*
X77055117Y-83185000D01*
X77038687Y-83351823D01*
X76990024Y-83512242D01*
X76919114Y-83644906D01*
X76911004Y-83660078D01*
X76804659Y-83789659D01*
X76675078Y-83896004D01*
X76675076Y-83896005D01*
X76527242Y-83975024D01*
X76366823Y-84023687D01*
X76241804Y-84036000D01*
X76158196Y-84036000D01*
X76033177Y-84023687D01*
X75872758Y-83975024D01*
X75724924Y-83896005D01*
X75724922Y-83896004D01*
X75595341Y-83789659D01*
X75488996Y-83660078D01*
X75480886Y-83644906D01*
X75409976Y-83512242D01*
X75361313Y-83351823D01*
X75344883Y-83185000D01*
X75361313Y-83018177D01*
X75409976Y-82857758D01*
X75488995Y-82709924D01*
X75488996Y-82709922D01*
X75595341Y-82580341D01*
X75724922Y-82473996D01*
X75740094Y-82465886D01*
X75872758Y-82394976D01*
X76033177Y-82346313D01*
X76158196Y-82334000D01*
X76241804Y-82334000D01*
X76366823Y-82346313D01*
X76366823Y-82346313D01*
G37*
G36*
X63666823Y-82346313D02*
G01*
X63827242Y-82394976D01*
X63959906Y-82465886D01*
X63975078Y-82473996D01*
X64104659Y-82580341D01*
X64211004Y-82709922D01*
X64211005Y-82709924D01*
X64290024Y-82857758D01*
X64338687Y-83018177D01*
X64355117Y-83185000D01*
X64338687Y-83351823D01*
X64290024Y-83512242D01*
X64219114Y-83644906D01*
X64211004Y-83660078D01*
X64104659Y-83789659D01*
X63975078Y-83896004D01*
X63975076Y-83896005D01*
X63827242Y-83975024D01*
X63666823Y-84023687D01*
X63541804Y-84036000D01*
X63458196Y-84036000D01*
X63333177Y-84023687D01*
X63172758Y-83975024D01*
X63024924Y-83896005D01*
X63024922Y-83896004D01*
X62895341Y-83789659D01*
X62788996Y-83660078D01*
X62780886Y-83644906D01*
X62709976Y-83512242D01*
X62661313Y-83351823D01*
X62644883Y-83185000D01*
X62661313Y-83018177D01*
X62709976Y-82857758D01*
X62788995Y-82709924D01*
X62788996Y-82709922D01*
X62895341Y-82580341D01*
X63024922Y-82473996D01*
X63040094Y-82465886D01*
X63172758Y-82394976D01*
X63333177Y-82346313D01*
X63458196Y-82334000D01*
X63541804Y-82334000D01*
X63666823Y-82346313D01*
X63666823Y-82346313D01*
G37*
G36*
X78906823Y-82346313D02*
G01*
X79067242Y-82394976D01*
X79199906Y-82465886D01*
X79215078Y-82473996D01*
X79344659Y-82580341D01*
X79451004Y-82709922D01*
X79451005Y-82709924D01*
X79530024Y-82857758D01*
X79578687Y-83018177D01*
X79595117Y-83185000D01*
X79578687Y-83351823D01*
X79530024Y-83512242D01*
X79459114Y-83644906D01*
X79451004Y-83660078D01*
X79344659Y-83789659D01*
X79215078Y-83896004D01*
X79215076Y-83896005D01*
X79067242Y-83975024D01*
X78906823Y-84023687D01*
X78781804Y-84036000D01*
X78698196Y-84036000D01*
X78573177Y-84023687D01*
X78412758Y-83975024D01*
X78264924Y-83896005D01*
X78264922Y-83896004D01*
X78135341Y-83789659D01*
X78028996Y-83660078D01*
X78020886Y-83644906D01*
X77949976Y-83512242D01*
X77901313Y-83351823D01*
X77884883Y-83185000D01*
X77901313Y-83018177D01*
X77949976Y-82857758D01*
X78028995Y-82709924D01*
X78028996Y-82709922D01*
X78135341Y-82580341D01*
X78264922Y-82473996D01*
X78280094Y-82465886D01*
X78412758Y-82394976D01*
X78573177Y-82346313D01*
X78698196Y-82334000D01*
X78781804Y-82334000D01*
X78906823Y-82346313D01*
X78906823Y-82346313D01*
G37*
G36*
X63666823Y-79806313D02*
G01*
X63827242Y-79854976D01*
X63959906Y-79925886D01*
X63975078Y-79933996D01*
X64104659Y-80040341D01*
X64211004Y-80169922D01*
X64211005Y-80169924D01*
X64290024Y-80317758D01*
X64338687Y-80478177D01*
X64355117Y-80645000D01*
X64338687Y-80811823D01*
X64290024Y-80972242D01*
X64219114Y-81104906D01*
X64211004Y-81120078D01*
X64104659Y-81249659D01*
X63975078Y-81356004D01*
X63975076Y-81356005D01*
X63827242Y-81435024D01*
X63666823Y-81483687D01*
X63541804Y-81496000D01*
X63458196Y-81496000D01*
X63333177Y-81483687D01*
X63172758Y-81435024D01*
X63024924Y-81356005D01*
X63024922Y-81356004D01*
X62895341Y-81249659D01*
X62788996Y-81120078D01*
X62780886Y-81104906D01*
X62709976Y-80972242D01*
X62661313Y-80811823D01*
X62644883Y-80645000D01*
X62661313Y-80478177D01*
X62709976Y-80317758D01*
X62788995Y-80169924D01*
X62788996Y-80169922D01*
X62895341Y-80040341D01*
X63024922Y-79933996D01*
X63040094Y-79925886D01*
X63172758Y-79854976D01*
X63333177Y-79806313D01*
X63458196Y-79794000D01*
X63541804Y-79794000D01*
X63666823Y-79806313D01*
X63666823Y-79806313D01*
G37*
G36*
X76366823Y-79806313D02*
G01*
X76527242Y-79854976D01*
X76659906Y-79925886D01*
X76675078Y-79933996D01*
X76804659Y-80040341D01*
X76911004Y-80169922D01*
X76911005Y-80169924D01*
X76990024Y-80317758D01*
X77038687Y-80478177D01*
X77055117Y-80645000D01*
X77038687Y-80811823D01*
X76990024Y-80972242D01*
X76919114Y-81104906D01*
X76911004Y-81120078D01*
X76804659Y-81249659D01*
X76675078Y-81356004D01*
X76675076Y-81356005D01*
X76527242Y-81435024D01*
X76366823Y-81483687D01*
X76241804Y-81496000D01*
X76158196Y-81496000D01*
X76033177Y-81483687D01*
X75872758Y-81435024D01*
X75724924Y-81356005D01*
X75724922Y-81356004D01*
X75595341Y-81249659D01*
X75488996Y-81120078D01*
X75480886Y-81104906D01*
X75409976Y-80972242D01*
X75361313Y-80811823D01*
X75344883Y-80645000D01*
X75361313Y-80478177D01*
X75409976Y-80317758D01*
X75488995Y-80169924D01*
X75488996Y-80169922D01*
X75595341Y-80040341D01*
X75724922Y-79933996D01*
X75740094Y-79925886D01*
X75872758Y-79854976D01*
X76033177Y-79806313D01*
X76158196Y-79794000D01*
X76241804Y-79794000D01*
X76366823Y-79806313D01*
X76366823Y-79806313D01*
G37*
G36*
X61126823Y-79806313D02*
G01*
X61287242Y-79854976D01*
X61419906Y-79925886D01*
X61435078Y-79933996D01*
X61564659Y-80040341D01*
X61671004Y-80169922D01*
X61671005Y-80169924D01*
X61750024Y-80317758D01*
X61798687Y-80478177D01*
X61815117Y-80645000D01*
X61798687Y-80811823D01*
X61750024Y-80972242D01*
X61679114Y-81104906D01*
X61671004Y-81120078D01*
X61564659Y-81249659D01*
X61435078Y-81356004D01*
X61435076Y-81356005D01*
X61287242Y-81435024D01*
X61126823Y-81483687D01*
X61001804Y-81496000D01*
X60918196Y-81496000D01*
X60793177Y-81483687D01*
X60632758Y-81435024D01*
X60484924Y-81356005D01*
X60484922Y-81356004D01*
X60355341Y-81249659D01*
X60248996Y-81120078D01*
X60240886Y-81104906D01*
X60169976Y-80972242D01*
X60121313Y-80811823D01*
X60104883Y-80645000D01*
X60121313Y-80478177D01*
X60169976Y-80317758D01*
X60248995Y-80169924D01*
X60248996Y-80169922D01*
X60355341Y-80040341D01*
X60484922Y-79933996D01*
X60500094Y-79925886D01*
X60632758Y-79854976D01*
X60793177Y-79806313D01*
X60918196Y-79794000D01*
X61001804Y-79794000D01*
X61126823Y-79806313D01*
X61126823Y-79806313D01*
G37*
G36*
X78906823Y-79806313D02*
G01*
X79067242Y-79854976D01*
X79199906Y-79925886D01*
X79215078Y-79933996D01*
X79344659Y-80040341D01*
X79451004Y-80169922D01*
X79451005Y-80169924D01*
X79530024Y-80317758D01*
X79578687Y-80478177D01*
X79595117Y-80645000D01*
X79578687Y-80811823D01*
X79530024Y-80972242D01*
X79459114Y-81104906D01*
X79451004Y-81120078D01*
X79344659Y-81249659D01*
X79215078Y-81356004D01*
X79215076Y-81356005D01*
X79067242Y-81435024D01*
X78906823Y-81483687D01*
X78781804Y-81496000D01*
X78698196Y-81496000D01*
X78573177Y-81483687D01*
X78412758Y-81435024D01*
X78264924Y-81356005D01*
X78264922Y-81356004D01*
X78135341Y-81249659D01*
X78028996Y-81120078D01*
X78020886Y-81104906D01*
X77949976Y-80972242D01*
X77901313Y-80811823D01*
X77884883Y-80645000D01*
X77901313Y-80478177D01*
X77949976Y-80317758D01*
X78028995Y-80169924D01*
X78028996Y-80169922D01*
X78135341Y-80040341D01*
X78264922Y-79933996D01*
X78280094Y-79925886D01*
X78412758Y-79854976D01*
X78573177Y-79806313D01*
X78698196Y-79794000D01*
X78781804Y-79794000D01*
X78906823Y-79806313D01*
X78906823Y-79806313D01*
G37*
G36*
X78906823Y-77266313D02*
G01*
X79067242Y-77314976D01*
X79199906Y-77385886D01*
X79215078Y-77393996D01*
X79344659Y-77500341D01*
X79451004Y-77629922D01*
X79451005Y-77629924D01*
X79530024Y-77777758D01*
X79578687Y-77938177D01*
X79595117Y-78105000D01*
X79578687Y-78271823D01*
X79530024Y-78432242D01*
X79459114Y-78564906D01*
X79451004Y-78580078D01*
X79344659Y-78709659D01*
X79215078Y-78816004D01*
X79215076Y-78816005D01*
X79067242Y-78895024D01*
X78906823Y-78943687D01*
X78781804Y-78956000D01*
X78698196Y-78956000D01*
X78573177Y-78943687D01*
X78412758Y-78895024D01*
X78264924Y-78816005D01*
X78264922Y-78816004D01*
X78135341Y-78709659D01*
X78028996Y-78580078D01*
X78020886Y-78564906D01*
X77949976Y-78432242D01*
X77901313Y-78271823D01*
X77884883Y-78105000D01*
X77901313Y-77938177D01*
X77949976Y-77777758D01*
X78028995Y-77629924D01*
X78028996Y-77629922D01*
X78135341Y-77500341D01*
X78264922Y-77393996D01*
X78280094Y-77385886D01*
X78412758Y-77314976D01*
X78573177Y-77266313D01*
X78698196Y-77254000D01*
X78781804Y-77254000D01*
X78906823Y-77266313D01*
X78906823Y-77266313D01*
G37*
G36*
X63666823Y-77266313D02*
G01*
X63827242Y-77314976D01*
X63959906Y-77385886D01*
X63975078Y-77393996D01*
X64104659Y-77500341D01*
X64211004Y-77629922D01*
X64211005Y-77629924D01*
X64290024Y-77777758D01*
X64338687Y-77938177D01*
X64355117Y-78105000D01*
X64338687Y-78271823D01*
X64290024Y-78432242D01*
X64219114Y-78564906D01*
X64211004Y-78580078D01*
X64104659Y-78709659D01*
X63975078Y-78816004D01*
X63975076Y-78816005D01*
X63827242Y-78895024D01*
X63666823Y-78943687D01*
X63541804Y-78956000D01*
X63458196Y-78956000D01*
X63333177Y-78943687D01*
X63172758Y-78895024D01*
X63024924Y-78816005D01*
X63024922Y-78816004D01*
X62895341Y-78709659D01*
X62788996Y-78580078D01*
X62780886Y-78564906D01*
X62709976Y-78432242D01*
X62661313Y-78271823D01*
X62644883Y-78105000D01*
X62661313Y-77938177D01*
X62709976Y-77777758D01*
X62788995Y-77629924D01*
X62788996Y-77629922D01*
X62895341Y-77500341D01*
X63024922Y-77393996D01*
X63040094Y-77385886D01*
X63172758Y-77314976D01*
X63333177Y-77266313D01*
X63458196Y-77254000D01*
X63541804Y-77254000D01*
X63666823Y-77266313D01*
X63666823Y-77266313D01*
G37*
G36*
X61126823Y-77266313D02*
G01*
X61287242Y-77314976D01*
X61419906Y-77385886D01*
X61435078Y-77393996D01*
X61564659Y-77500341D01*
X61671004Y-77629922D01*
X61671005Y-77629924D01*
X61750024Y-77777758D01*
X61798687Y-77938177D01*
X61815117Y-78105000D01*
X61798687Y-78271823D01*
X61750024Y-78432242D01*
X61679114Y-78564906D01*
X61671004Y-78580078D01*
X61564659Y-78709659D01*
X61435078Y-78816004D01*
X61435076Y-78816005D01*
X61287242Y-78895024D01*
X61126823Y-78943687D01*
X61001804Y-78956000D01*
X60918196Y-78956000D01*
X60793177Y-78943687D01*
X60632758Y-78895024D01*
X60484924Y-78816005D01*
X60484922Y-78816004D01*
X60355341Y-78709659D01*
X60248996Y-78580078D01*
X60240886Y-78564906D01*
X60169976Y-78432242D01*
X60121313Y-78271823D01*
X60104883Y-78105000D01*
X60121313Y-77938177D01*
X60169976Y-77777758D01*
X60248995Y-77629924D01*
X60248996Y-77629922D01*
X60355341Y-77500341D01*
X60484922Y-77393996D01*
X60500094Y-77385886D01*
X60632758Y-77314976D01*
X60793177Y-77266313D01*
X60918196Y-77254000D01*
X61001804Y-77254000D01*
X61126823Y-77266313D01*
X61126823Y-77266313D01*
G37*
G36*
X76366823Y-77266313D02*
G01*
X76527242Y-77314976D01*
X76659906Y-77385886D01*
X76675078Y-77393996D01*
X76804659Y-77500341D01*
X76911004Y-77629922D01*
X76911005Y-77629924D01*
X76990024Y-77777758D01*
X77038687Y-77938177D01*
X77055117Y-78105000D01*
X77038687Y-78271823D01*
X76990024Y-78432242D01*
X76919114Y-78564906D01*
X76911004Y-78580078D01*
X76804659Y-78709659D01*
X76675078Y-78816004D01*
X76675076Y-78816005D01*
X76527242Y-78895024D01*
X76366823Y-78943687D01*
X76241804Y-78956000D01*
X76158196Y-78956000D01*
X76033177Y-78943687D01*
X75872758Y-78895024D01*
X75724924Y-78816005D01*
X75724922Y-78816004D01*
X75595341Y-78709659D01*
X75488996Y-78580078D01*
X75480886Y-78564906D01*
X75409976Y-78432242D01*
X75361313Y-78271823D01*
X75344883Y-78105000D01*
X75361313Y-77938177D01*
X75409976Y-77777758D01*
X75488995Y-77629924D01*
X75488996Y-77629922D01*
X75595341Y-77500341D01*
X75724922Y-77393996D01*
X75740094Y-77385886D01*
X75872758Y-77314976D01*
X76033177Y-77266313D01*
X76158196Y-77254000D01*
X76241804Y-77254000D01*
X76366823Y-77266313D01*
X76366823Y-77266313D01*
G37*
G36*
X94146823Y-75361313D02*
G01*
X94307242Y-75409976D01*
X94439906Y-75480886D01*
X94455078Y-75488996D01*
X94584659Y-75595341D01*
X94691004Y-75724922D01*
X94691005Y-75724924D01*
X94770024Y-75872758D01*
X94818687Y-76033177D01*
X94835117Y-76200000D01*
X94818687Y-76366823D01*
X94770024Y-76527242D01*
X94699114Y-76659906D01*
X94691004Y-76675078D01*
X94584659Y-76804659D01*
X94455078Y-76911004D01*
X94455076Y-76911005D01*
X94307242Y-76990024D01*
X94146823Y-77038687D01*
X94021804Y-77051000D01*
X93938196Y-77051000D01*
X93813177Y-77038687D01*
X93652758Y-76990024D01*
X93504924Y-76911005D01*
X93504922Y-76911004D01*
X93375341Y-76804659D01*
X93268996Y-76675078D01*
X93260886Y-76659906D01*
X93189976Y-76527242D01*
X93141313Y-76366823D01*
X93124883Y-76200000D01*
X93141313Y-76033177D01*
X93189976Y-75872758D01*
X93268995Y-75724924D01*
X93268996Y-75724922D01*
X93375341Y-75595341D01*
X93504922Y-75488996D01*
X93520094Y-75480886D01*
X93652758Y-75409976D01*
X93813177Y-75361313D01*
X93938196Y-75349000D01*
X94021804Y-75349000D01*
X94146823Y-75361313D01*
X94146823Y-75361313D01*
G37*
G36*
X76366823Y-74726313D02*
G01*
X76527242Y-74774976D01*
X76659906Y-74845886D01*
X76675078Y-74853996D01*
X76804659Y-74960341D01*
X76911004Y-75089922D01*
X76911005Y-75089924D01*
X76990024Y-75237758D01*
X77038687Y-75398177D01*
X77055117Y-75565000D01*
X77038687Y-75731823D01*
X76990024Y-75892242D01*
X76919114Y-76024906D01*
X76911004Y-76040078D01*
X76804659Y-76169659D01*
X76675078Y-76276004D01*
X76675076Y-76276005D01*
X76527242Y-76355024D01*
X76366823Y-76403687D01*
X76241804Y-76416000D01*
X76158196Y-76416000D01*
X76033177Y-76403687D01*
X75872758Y-76355024D01*
X75724924Y-76276005D01*
X75724922Y-76276004D01*
X75595341Y-76169659D01*
X75488996Y-76040078D01*
X75480886Y-76024906D01*
X75409976Y-75892242D01*
X75361313Y-75731823D01*
X75344883Y-75565000D01*
X75361313Y-75398177D01*
X75409976Y-75237758D01*
X75488995Y-75089924D01*
X75488996Y-75089922D01*
X75595341Y-74960341D01*
X75724922Y-74853996D01*
X75740094Y-74845886D01*
X75872758Y-74774976D01*
X76033177Y-74726313D01*
X76158196Y-74714000D01*
X76241804Y-74714000D01*
X76366823Y-74726313D01*
X76366823Y-74726313D01*
G37*
G36*
X61126823Y-74726313D02*
G01*
X61287242Y-74774976D01*
X61419906Y-74845886D01*
X61435078Y-74853996D01*
X61564659Y-74960341D01*
X61671004Y-75089922D01*
X61671005Y-75089924D01*
X61750024Y-75237758D01*
X61798687Y-75398177D01*
X61815117Y-75565000D01*
X61798687Y-75731823D01*
X61750024Y-75892242D01*
X61679114Y-76024906D01*
X61671004Y-76040078D01*
X61564659Y-76169659D01*
X61435078Y-76276004D01*
X61435076Y-76276005D01*
X61287242Y-76355024D01*
X61126823Y-76403687D01*
X61001804Y-76416000D01*
X60918196Y-76416000D01*
X60793177Y-76403687D01*
X60632758Y-76355024D01*
X60484924Y-76276005D01*
X60484922Y-76276004D01*
X60355341Y-76169659D01*
X60248996Y-76040078D01*
X60240886Y-76024906D01*
X60169976Y-75892242D01*
X60121313Y-75731823D01*
X60104883Y-75565000D01*
X60121313Y-75398177D01*
X60169976Y-75237758D01*
X60248995Y-75089924D01*
X60248996Y-75089922D01*
X60355341Y-74960341D01*
X60484922Y-74853996D01*
X60500094Y-74845886D01*
X60632758Y-74774976D01*
X60793177Y-74726313D01*
X60918196Y-74714000D01*
X61001804Y-74714000D01*
X61126823Y-74726313D01*
X61126823Y-74726313D01*
G37*
G36*
X78906823Y-74726313D02*
G01*
X79067242Y-74774976D01*
X79199906Y-74845886D01*
X79215078Y-74853996D01*
X79344659Y-74960341D01*
X79451004Y-75089922D01*
X79451005Y-75089924D01*
X79530024Y-75237758D01*
X79578687Y-75398177D01*
X79595117Y-75565000D01*
X79578687Y-75731823D01*
X79530024Y-75892242D01*
X79459114Y-76024906D01*
X79451004Y-76040078D01*
X79344659Y-76169659D01*
X79215078Y-76276004D01*
X79215076Y-76276005D01*
X79067242Y-76355024D01*
X78906823Y-76403687D01*
X78781804Y-76416000D01*
X78698196Y-76416000D01*
X78573177Y-76403687D01*
X78412758Y-76355024D01*
X78264924Y-76276005D01*
X78264922Y-76276004D01*
X78135341Y-76169659D01*
X78028996Y-76040078D01*
X78020886Y-76024906D01*
X77949976Y-75892242D01*
X77901313Y-75731823D01*
X77884883Y-75565000D01*
X77901313Y-75398177D01*
X77949976Y-75237758D01*
X78028995Y-75089924D01*
X78028996Y-75089922D01*
X78135341Y-74960341D01*
X78264922Y-74853996D01*
X78280094Y-74845886D01*
X78412758Y-74774976D01*
X78573177Y-74726313D01*
X78698196Y-74714000D01*
X78781804Y-74714000D01*
X78906823Y-74726313D01*
X78906823Y-74726313D01*
G37*
G36*
X63666823Y-74726313D02*
G01*
X63827242Y-74774976D01*
X63959906Y-74845886D01*
X63975078Y-74853996D01*
X64104659Y-74960341D01*
X64211004Y-75089922D01*
X64211005Y-75089924D01*
X64290024Y-75237758D01*
X64338687Y-75398177D01*
X64355117Y-75565000D01*
X64338687Y-75731823D01*
X64290024Y-75892242D01*
X64219114Y-76024906D01*
X64211004Y-76040078D01*
X64104659Y-76169659D01*
X63975078Y-76276004D01*
X63975076Y-76276005D01*
X63827242Y-76355024D01*
X63666823Y-76403687D01*
X63541804Y-76416000D01*
X63458196Y-76416000D01*
X63333177Y-76403687D01*
X63172758Y-76355024D01*
X63024924Y-76276005D01*
X63024922Y-76276004D01*
X62895341Y-76169659D01*
X62788996Y-76040078D01*
X62780886Y-76024906D01*
X62709976Y-75892242D01*
X62661313Y-75731823D01*
X62644883Y-75565000D01*
X62661313Y-75398177D01*
X62709976Y-75237758D01*
X62788995Y-75089924D01*
X62788996Y-75089922D01*
X62895341Y-74960341D01*
X63024922Y-74853996D01*
X63040094Y-74845886D01*
X63172758Y-74774976D01*
X63333177Y-74726313D01*
X63458196Y-74714000D01*
X63541804Y-74714000D01*
X63666823Y-74726313D01*
X63666823Y-74726313D01*
G37*
G36*
X61126823Y-72186313D02*
G01*
X61287242Y-72234976D01*
X61419906Y-72305886D01*
X61435078Y-72313996D01*
X61564659Y-72420341D01*
X61671004Y-72549922D01*
X61671005Y-72549924D01*
X61750024Y-72697758D01*
X61798687Y-72858177D01*
X61815117Y-73025000D01*
X61798687Y-73191823D01*
X61750024Y-73352242D01*
X61679114Y-73484906D01*
X61671004Y-73500078D01*
X61564659Y-73629659D01*
X61435078Y-73736004D01*
X61435076Y-73736005D01*
X61287242Y-73815024D01*
X61126823Y-73863687D01*
X61001804Y-73876000D01*
X60918196Y-73876000D01*
X60793177Y-73863687D01*
X60632758Y-73815024D01*
X60484924Y-73736005D01*
X60484922Y-73736004D01*
X60355341Y-73629659D01*
X60248996Y-73500078D01*
X60240886Y-73484906D01*
X60169976Y-73352242D01*
X60121313Y-73191823D01*
X60104883Y-73025000D01*
X60121313Y-72858177D01*
X60169976Y-72697758D01*
X60248995Y-72549924D01*
X60248996Y-72549922D01*
X60355341Y-72420341D01*
X60484922Y-72313996D01*
X60500094Y-72305886D01*
X60632758Y-72234976D01*
X60793177Y-72186313D01*
X60918196Y-72174000D01*
X61001804Y-72174000D01*
X61126823Y-72186313D01*
X61126823Y-72186313D01*
G37*
G36*
X63666823Y-72186313D02*
G01*
X63827242Y-72234976D01*
X63959906Y-72305886D01*
X63975078Y-72313996D01*
X64104659Y-72420341D01*
X64211004Y-72549922D01*
X64211005Y-72549924D01*
X64290024Y-72697758D01*
X64338687Y-72858177D01*
X64355117Y-73025000D01*
X64338687Y-73191823D01*
X64290024Y-73352242D01*
X64219114Y-73484906D01*
X64211004Y-73500078D01*
X64104659Y-73629659D01*
X63975078Y-73736004D01*
X63975076Y-73736005D01*
X63827242Y-73815024D01*
X63666823Y-73863687D01*
X63541804Y-73876000D01*
X63458196Y-73876000D01*
X63333177Y-73863687D01*
X63172758Y-73815024D01*
X63024924Y-73736005D01*
X63024922Y-73736004D01*
X62895341Y-73629659D01*
X62788996Y-73500078D01*
X62780886Y-73484906D01*
X62709976Y-73352242D01*
X62661313Y-73191823D01*
X62644883Y-73025000D01*
X62661313Y-72858177D01*
X62709976Y-72697758D01*
X62788995Y-72549924D01*
X62788996Y-72549922D01*
X62895341Y-72420341D01*
X63024922Y-72313996D01*
X63040094Y-72305886D01*
X63172758Y-72234976D01*
X63333177Y-72186313D01*
X63458196Y-72174000D01*
X63541804Y-72174000D01*
X63666823Y-72186313D01*
X63666823Y-72186313D01*
G37*
G36*
X76366823Y-72186313D02*
G01*
X76527242Y-72234976D01*
X76659906Y-72305886D01*
X76675078Y-72313996D01*
X76804659Y-72420341D01*
X76911004Y-72549922D01*
X76911005Y-72549924D01*
X76990024Y-72697758D01*
X77038687Y-72858177D01*
X77055117Y-73025000D01*
X77038687Y-73191823D01*
X76990024Y-73352242D01*
X76919114Y-73484906D01*
X76911004Y-73500078D01*
X76804659Y-73629659D01*
X76675078Y-73736004D01*
X76675076Y-73736005D01*
X76527242Y-73815024D01*
X76366823Y-73863687D01*
X76241804Y-73876000D01*
X76158196Y-73876000D01*
X76033177Y-73863687D01*
X75872758Y-73815024D01*
X75724924Y-73736005D01*
X75724922Y-73736004D01*
X75595341Y-73629659D01*
X75488996Y-73500078D01*
X75480886Y-73484906D01*
X75409976Y-73352242D01*
X75361313Y-73191823D01*
X75344883Y-73025000D01*
X75361313Y-72858177D01*
X75409976Y-72697758D01*
X75488995Y-72549924D01*
X75488996Y-72549922D01*
X75595341Y-72420341D01*
X75724922Y-72313996D01*
X75740094Y-72305886D01*
X75872758Y-72234976D01*
X76033177Y-72186313D01*
X76158196Y-72174000D01*
X76241804Y-72174000D01*
X76366823Y-72186313D01*
X76366823Y-72186313D01*
G37*
G36*
X78906823Y-72186313D02*
G01*
X79067242Y-72234976D01*
X79199906Y-72305886D01*
X79215078Y-72313996D01*
X79344659Y-72420341D01*
X79451004Y-72549922D01*
X79451005Y-72549924D01*
X79530024Y-72697758D01*
X79578687Y-72858177D01*
X79595117Y-73025000D01*
X79578687Y-73191823D01*
X79530024Y-73352242D01*
X79459114Y-73484906D01*
X79451004Y-73500078D01*
X79344659Y-73629659D01*
X79215078Y-73736004D01*
X79215076Y-73736005D01*
X79067242Y-73815024D01*
X78906823Y-73863687D01*
X78781804Y-73876000D01*
X78698196Y-73876000D01*
X78573177Y-73863687D01*
X78412758Y-73815024D01*
X78264924Y-73736005D01*
X78264922Y-73736004D01*
X78135341Y-73629659D01*
X78028996Y-73500078D01*
X78020886Y-73484906D01*
X77949976Y-73352242D01*
X77901313Y-73191823D01*
X77884883Y-73025000D01*
X77901313Y-72858177D01*
X77949976Y-72697758D01*
X78028995Y-72549924D01*
X78028996Y-72549922D01*
X78135341Y-72420341D01*
X78264922Y-72313996D01*
X78280094Y-72305886D01*
X78412758Y-72234976D01*
X78573177Y-72186313D01*
X78698196Y-72174000D01*
X78781804Y-72174000D01*
X78906823Y-72186313D01*
X78906823Y-72186313D01*
G37*
G36*
X88390589Y-70358876D02*
G01*
X88489893Y-70378629D01*
X88630206Y-70436748D01*
X88756484Y-70521125D01*
X88863875Y-70628516D01*
X88948252Y-70754794D01*
X89006371Y-70895107D01*
X89006371Y-70895109D01*
X89036000Y-71044062D01*
X89036000Y-71195938D01*
X89026124Y-71245589D01*
X89006371Y-71344893D01*
X88948252Y-71485206D01*
X88863875Y-71611484D01*
X88756484Y-71718875D01*
X88630206Y-71803252D01*
X88489893Y-71861371D01*
X88390589Y-71881124D01*
X88340938Y-71891000D01*
X88189062Y-71891000D01*
X88139411Y-71881124D01*
X88040107Y-71861371D01*
X87899794Y-71803252D01*
X87773516Y-71718875D01*
X87666125Y-71611484D01*
X87581748Y-71485206D01*
X87523629Y-71344893D01*
X87503876Y-71245589D01*
X87494000Y-71195938D01*
X87494000Y-71044062D01*
X87523629Y-70895109D01*
X87523629Y-70895107D01*
X87581748Y-70754794D01*
X87666125Y-70628516D01*
X87773516Y-70521125D01*
X87899794Y-70436748D01*
X88040107Y-70378629D01*
X88139411Y-70358876D01*
X88189062Y-70349000D01*
X88340938Y-70349000D01*
X88390589Y-70358876D01*
X88390589Y-70358876D01*
G37*
G36*
X83310589Y-70358876D02*
G01*
X83409893Y-70378629D01*
X83550206Y-70436748D01*
X83676484Y-70521125D01*
X83783875Y-70628516D01*
X83868252Y-70754794D01*
X83926371Y-70895107D01*
X83926371Y-70895109D01*
X83956000Y-71044062D01*
X83956000Y-71195938D01*
X83946124Y-71245589D01*
X83926371Y-71344893D01*
X83868252Y-71485206D01*
X83783875Y-71611484D01*
X83676484Y-71718875D01*
X83550206Y-71803252D01*
X83409893Y-71861371D01*
X83310589Y-71881124D01*
X83260938Y-71891000D01*
X83109062Y-71891000D01*
X83059411Y-71881124D01*
X82960107Y-71861371D01*
X82819794Y-71803252D01*
X82693516Y-71718875D01*
X82586125Y-71611484D01*
X82501748Y-71485206D01*
X82443629Y-71344893D01*
X82423876Y-71245589D01*
X82414000Y-71195938D01*
X82414000Y-71044062D01*
X82443629Y-70895109D01*
X82443629Y-70895107D01*
X82501748Y-70754794D01*
X82586125Y-70628516D01*
X82693516Y-70521125D01*
X82819794Y-70436748D01*
X82960107Y-70378629D01*
X83059411Y-70358876D01*
X83109062Y-70349000D01*
X83260938Y-70349000D01*
X83310589Y-70358876D01*
X83310589Y-70358876D01*
G37*
G36*
X85850589Y-70358876D02*
G01*
X85949893Y-70378629D01*
X86090206Y-70436748D01*
X86216484Y-70521125D01*
X86323875Y-70628516D01*
X86408252Y-70754794D01*
X86466371Y-70895107D01*
X86466371Y-70895109D01*
X86496000Y-71044062D01*
X86496000Y-71195938D01*
X86486124Y-71245589D01*
X86466371Y-71344893D01*
X86408252Y-71485206D01*
X86323875Y-71611484D01*
X86216484Y-71718875D01*
X86090206Y-71803252D01*
X85949893Y-71861371D01*
X85850589Y-71881124D01*
X85800938Y-71891000D01*
X85649062Y-71891000D01*
X85599411Y-71881124D01*
X85500107Y-71861371D01*
X85359794Y-71803252D01*
X85233516Y-71718875D01*
X85126125Y-71611484D01*
X85041748Y-71485206D01*
X84983629Y-71344893D01*
X84963876Y-71245589D01*
X84954000Y-71195938D01*
X84954000Y-71044062D01*
X84983629Y-70895109D01*
X84983629Y-70895107D01*
X85041748Y-70754794D01*
X85126125Y-70628516D01*
X85233516Y-70521125D01*
X85359794Y-70436748D01*
X85500107Y-70378629D01*
X85599411Y-70358876D01*
X85649062Y-70349000D01*
X85800938Y-70349000D01*
X85850589Y-70358876D01*
X85850589Y-70358876D01*
G37*
G36*
X78906823Y-69646313D02*
G01*
X79067242Y-69694976D01*
X79199906Y-69765886D01*
X79215078Y-69773996D01*
X79344659Y-69880341D01*
X79451004Y-70009922D01*
X79451005Y-70009924D01*
X79530024Y-70157758D01*
X79578687Y-70318177D01*
X79595117Y-70485000D01*
X79578687Y-70651823D01*
X79530024Y-70812242D01*
X79459114Y-70944906D01*
X79451004Y-70960078D01*
X79344659Y-71089659D01*
X79215078Y-71196004D01*
X79215076Y-71196005D01*
X79067242Y-71275024D01*
X78906823Y-71323687D01*
X78781804Y-71336000D01*
X78698196Y-71336000D01*
X78573177Y-71323687D01*
X78412758Y-71275024D01*
X78264924Y-71196005D01*
X78264922Y-71196004D01*
X78135341Y-71089659D01*
X78028996Y-70960078D01*
X78020886Y-70944906D01*
X77949976Y-70812242D01*
X77901313Y-70651823D01*
X77884883Y-70485000D01*
X77901313Y-70318177D01*
X77949976Y-70157758D01*
X78028995Y-70009924D01*
X78028996Y-70009922D01*
X78135341Y-69880341D01*
X78264922Y-69773996D01*
X78280094Y-69765886D01*
X78412758Y-69694976D01*
X78573177Y-69646313D01*
X78698196Y-69634000D01*
X78781804Y-69634000D01*
X78906823Y-69646313D01*
X78906823Y-69646313D01*
G37*
G36*
X76366823Y-69646313D02*
G01*
X76527242Y-69694976D01*
X76659906Y-69765886D01*
X76675078Y-69773996D01*
X76804659Y-69880341D01*
X76911004Y-70009922D01*
X76911005Y-70009924D01*
X76990024Y-70157758D01*
X77038687Y-70318177D01*
X77055117Y-70485000D01*
X77038687Y-70651823D01*
X76990024Y-70812242D01*
X76919114Y-70944906D01*
X76911004Y-70960078D01*
X76804659Y-71089659D01*
X76675078Y-71196004D01*
X76675076Y-71196005D01*
X76527242Y-71275024D01*
X76366823Y-71323687D01*
X76241804Y-71336000D01*
X76158196Y-71336000D01*
X76033177Y-71323687D01*
X75872758Y-71275024D01*
X75724924Y-71196005D01*
X75724922Y-71196004D01*
X75595341Y-71089659D01*
X75488996Y-70960078D01*
X75480886Y-70944906D01*
X75409976Y-70812242D01*
X75361313Y-70651823D01*
X75344883Y-70485000D01*
X75361313Y-70318177D01*
X75409976Y-70157758D01*
X75488995Y-70009924D01*
X75488996Y-70009922D01*
X75595341Y-69880341D01*
X75724922Y-69773996D01*
X75740094Y-69765886D01*
X75872758Y-69694976D01*
X76033177Y-69646313D01*
X76158196Y-69634000D01*
X76241804Y-69634000D01*
X76366823Y-69646313D01*
X76366823Y-69646313D01*
G37*
G36*
X63666823Y-69646313D02*
G01*
X63827242Y-69694976D01*
X63959906Y-69765886D01*
X63975078Y-69773996D01*
X64104659Y-69880341D01*
X64211004Y-70009922D01*
X64211005Y-70009924D01*
X64290024Y-70157758D01*
X64338687Y-70318177D01*
X64355117Y-70485000D01*
X64338687Y-70651823D01*
X64290024Y-70812242D01*
X64219114Y-70944906D01*
X64211004Y-70960078D01*
X64104659Y-71089659D01*
X63975078Y-71196004D01*
X63975076Y-71196005D01*
X63827242Y-71275024D01*
X63666823Y-71323687D01*
X63541804Y-71336000D01*
X63458196Y-71336000D01*
X63333177Y-71323687D01*
X63172758Y-71275024D01*
X63024924Y-71196005D01*
X63024922Y-71196004D01*
X62895341Y-71089659D01*
X62788996Y-70960078D01*
X62780886Y-70944906D01*
X62709976Y-70812242D01*
X62661313Y-70651823D01*
X62644883Y-70485000D01*
X62661313Y-70318177D01*
X62709976Y-70157758D01*
X62788995Y-70009924D01*
X62788996Y-70009922D01*
X62895341Y-69880341D01*
X63024922Y-69773996D01*
X63040094Y-69765886D01*
X63172758Y-69694976D01*
X63333177Y-69646313D01*
X63458196Y-69634000D01*
X63541804Y-69634000D01*
X63666823Y-69646313D01*
X63666823Y-69646313D01*
G37*
G36*
X61126823Y-69646313D02*
G01*
X61287242Y-69694976D01*
X61419906Y-69765886D01*
X61435078Y-69773996D01*
X61564659Y-69880341D01*
X61671004Y-70009922D01*
X61671005Y-70009924D01*
X61750024Y-70157758D01*
X61798687Y-70318177D01*
X61815117Y-70485000D01*
X61798687Y-70651823D01*
X61750024Y-70812242D01*
X61679114Y-70944906D01*
X61671004Y-70960078D01*
X61564659Y-71089659D01*
X61435078Y-71196004D01*
X61435076Y-71196005D01*
X61287242Y-71275024D01*
X61126823Y-71323687D01*
X61001804Y-71336000D01*
X60918196Y-71336000D01*
X60793177Y-71323687D01*
X60632758Y-71275024D01*
X60484924Y-71196005D01*
X60484922Y-71196004D01*
X60355341Y-71089659D01*
X60248996Y-70960078D01*
X60240886Y-70944906D01*
X60169976Y-70812242D01*
X60121313Y-70651823D01*
X60104883Y-70485000D01*
X60121313Y-70318177D01*
X60169976Y-70157758D01*
X60248995Y-70009924D01*
X60248996Y-70009922D01*
X60355341Y-69880341D01*
X60484922Y-69773996D01*
X60500094Y-69765886D01*
X60632758Y-69694976D01*
X60793177Y-69646313D01*
X60918196Y-69634000D01*
X61001804Y-69634000D01*
X61126823Y-69646313D01*
X61126823Y-69646313D01*
G37*
G36*
X94228228Y-67761703D02*
G01*
X94383100Y-67825853D01*
X94522481Y-67918985D01*
X94641015Y-68037519D01*
X94734147Y-68176900D01*
X94798297Y-68331772D01*
X94831000Y-68496184D01*
X94831000Y-68663816D01*
X94798297Y-68828228D01*
X94734147Y-68983100D01*
X94641015Y-69122481D01*
X94522481Y-69241015D01*
X94383100Y-69334147D01*
X94228228Y-69398297D01*
X94063816Y-69431000D01*
X93896184Y-69431000D01*
X93731772Y-69398297D01*
X93576900Y-69334147D01*
X93437519Y-69241015D01*
X93318985Y-69122481D01*
X93225853Y-68983100D01*
X93161703Y-68828228D01*
X93129000Y-68663816D01*
X93129000Y-68496184D01*
X93161703Y-68331772D01*
X93225853Y-68176900D01*
X93318985Y-68037519D01*
X93437519Y-67918985D01*
X93576900Y-67825853D01*
X93731772Y-67761703D01*
X93896184Y-67729000D01*
X94063816Y-67729000D01*
X94228228Y-67761703D01*
X94228228Y-67761703D01*
G37*
G36*
X61126823Y-67106313D02*
G01*
X61287242Y-67154976D01*
X61419906Y-67225886D01*
X61435078Y-67233996D01*
X61564659Y-67340341D01*
X61671004Y-67469922D01*
X61671005Y-67469924D01*
X61750024Y-67617758D01*
X61798687Y-67778177D01*
X61815117Y-67945000D01*
X61798687Y-68111823D01*
X61750024Y-68272242D01*
X61679114Y-68404906D01*
X61671004Y-68420078D01*
X61564659Y-68549659D01*
X61435078Y-68656004D01*
X61435076Y-68656005D01*
X61287242Y-68735024D01*
X61126823Y-68783687D01*
X61001804Y-68796000D01*
X60918196Y-68796000D01*
X60793177Y-68783687D01*
X60632758Y-68735024D01*
X60484924Y-68656005D01*
X60484922Y-68656004D01*
X60355341Y-68549659D01*
X60248996Y-68420078D01*
X60240886Y-68404906D01*
X60169976Y-68272242D01*
X60121313Y-68111823D01*
X60104883Y-67945000D01*
X60121313Y-67778177D01*
X60169976Y-67617758D01*
X60248995Y-67469924D01*
X60248996Y-67469922D01*
X60355341Y-67340341D01*
X60484922Y-67233996D01*
X60500094Y-67225886D01*
X60632758Y-67154976D01*
X60793177Y-67106313D01*
X60918196Y-67094000D01*
X61001804Y-67094000D01*
X61126823Y-67106313D01*
X61126823Y-67106313D01*
G37*
G36*
X78906823Y-67106313D02*
G01*
X79067242Y-67154976D01*
X79199906Y-67225886D01*
X79215078Y-67233996D01*
X79344659Y-67340341D01*
X79451004Y-67469922D01*
X79451005Y-67469924D01*
X79530024Y-67617758D01*
X79578687Y-67778177D01*
X79595117Y-67945000D01*
X79578687Y-68111823D01*
X79530024Y-68272242D01*
X79459114Y-68404906D01*
X79451004Y-68420078D01*
X79344659Y-68549659D01*
X79215078Y-68656004D01*
X79215076Y-68656005D01*
X79067242Y-68735024D01*
X78906823Y-68783687D01*
X78781804Y-68796000D01*
X78698196Y-68796000D01*
X78573177Y-68783687D01*
X78412758Y-68735024D01*
X78264924Y-68656005D01*
X78264922Y-68656004D01*
X78135341Y-68549659D01*
X78028996Y-68420078D01*
X78020886Y-68404906D01*
X77949976Y-68272242D01*
X77901313Y-68111823D01*
X77884883Y-67945000D01*
X77901313Y-67778177D01*
X77949976Y-67617758D01*
X78028995Y-67469924D01*
X78028996Y-67469922D01*
X78135341Y-67340341D01*
X78264922Y-67233996D01*
X78280094Y-67225886D01*
X78412758Y-67154976D01*
X78573177Y-67106313D01*
X78698196Y-67094000D01*
X78781804Y-67094000D01*
X78906823Y-67106313D01*
X78906823Y-67106313D01*
G37*
G36*
X63666823Y-67106313D02*
G01*
X63827242Y-67154976D01*
X63959906Y-67225886D01*
X63975078Y-67233996D01*
X64104659Y-67340341D01*
X64211004Y-67469922D01*
X64211005Y-67469924D01*
X64290024Y-67617758D01*
X64338687Y-67778177D01*
X64355117Y-67945000D01*
X64338687Y-68111823D01*
X64290024Y-68272242D01*
X64219114Y-68404906D01*
X64211004Y-68420078D01*
X64104659Y-68549659D01*
X63975078Y-68656004D01*
X63975076Y-68656005D01*
X63827242Y-68735024D01*
X63666823Y-68783687D01*
X63541804Y-68796000D01*
X63458196Y-68796000D01*
X63333177Y-68783687D01*
X63172758Y-68735024D01*
X63024924Y-68656005D01*
X63024922Y-68656004D01*
X62895341Y-68549659D01*
X62788996Y-68420078D01*
X62780886Y-68404906D01*
X62709976Y-68272242D01*
X62661313Y-68111823D01*
X62644883Y-67945000D01*
X62661313Y-67778177D01*
X62709976Y-67617758D01*
X62788995Y-67469924D01*
X62788996Y-67469922D01*
X62895341Y-67340341D01*
X63024922Y-67233996D01*
X63040094Y-67225886D01*
X63172758Y-67154976D01*
X63333177Y-67106313D01*
X63458196Y-67094000D01*
X63541804Y-67094000D01*
X63666823Y-67106313D01*
X63666823Y-67106313D01*
G37*
G36*
X76366823Y-67106313D02*
G01*
X76527242Y-67154976D01*
X76659906Y-67225886D01*
X76675078Y-67233996D01*
X76804659Y-67340341D01*
X76911004Y-67469922D01*
X76911005Y-67469924D01*
X76990024Y-67617758D01*
X77038687Y-67778177D01*
X77055117Y-67945000D01*
X77038687Y-68111823D01*
X76990024Y-68272242D01*
X76919114Y-68404906D01*
X76911004Y-68420078D01*
X76804659Y-68549659D01*
X76675078Y-68656004D01*
X76675076Y-68656005D01*
X76527242Y-68735024D01*
X76366823Y-68783687D01*
X76241804Y-68796000D01*
X76158196Y-68796000D01*
X76033177Y-68783687D01*
X75872758Y-68735024D01*
X75724924Y-68656005D01*
X75724922Y-68656004D01*
X75595341Y-68549659D01*
X75488996Y-68420078D01*
X75480886Y-68404906D01*
X75409976Y-68272242D01*
X75361313Y-68111823D01*
X75344883Y-67945000D01*
X75361313Y-67778177D01*
X75409976Y-67617758D01*
X75488995Y-67469924D01*
X75488996Y-67469922D01*
X75595341Y-67340341D01*
X75724922Y-67233996D01*
X75740094Y-67225886D01*
X75872758Y-67154976D01*
X76033177Y-67106313D01*
X76158196Y-67094000D01*
X76241804Y-67094000D01*
X76366823Y-67106313D01*
X76366823Y-67106313D01*
G37*
G36*
X94146823Y-65201313D02*
G01*
X94307242Y-65249976D01*
X94439906Y-65320886D01*
X94455078Y-65328996D01*
X94584659Y-65435341D01*
X94691004Y-65564922D01*
X94691005Y-65564924D01*
X94770024Y-65712758D01*
X94818687Y-65873177D01*
X94835117Y-66040000D01*
X94818687Y-66206823D01*
X94770024Y-66367242D01*
X94699114Y-66499906D01*
X94691004Y-66515078D01*
X94584659Y-66644659D01*
X94455078Y-66751004D01*
X94455076Y-66751005D01*
X94307242Y-66830024D01*
X94146823Y-66878687D01*
X94021804Y-66891000D01*
X93938196Y-66891000D01*
X93813177Y-66878687D01*
X93652758Y-66830024D01*
X93504924Y-66751005D01*
X93504922Y-66751004D01*
X93375341Y-66644659D01*
X93268996Y-66515078D01*
X93260886Y-66499906D01*
X93189976Y-66367242D01*
X93141313Y-66206823D01*
X93124883Y-66040000D01*
X93141313Y-65873177D01*
X93189976Y-65712758D01*
X93268995Y-65564924D01*
X93268996Y-65564922D01*
X93375341Y-65435341D01*
X93504922Y-65328996D01*
X93520094Y-65320886D01*
X93652758Y-65249976D01*
X93813177Y-65201313D01*
X93938196Y-65189000D01*
X94021804Y-65189000D01*
X94146823Y-65201313D01*
X94146823Y-65201313D01*
G37*
G36*
X78906823Y-64566313D02*
G01*
X79067242Y-64614976D01*
X79199906Y-64685886D01*
X79215078Y-64693996D01*
X79344659Y-64800341D01*
X79451004Y-64929922D01*
X79451005Y-64929924D01*
X79530024Y-65077758D01*
X79578687Y-65238177D01*
X79595117Y-65405000D01*
X79578687Y-65571823D01*
X79530024Y-65732242D01*
X79459114Y-65864906D01*
X79451004Y-65880078D01*
X79344659Y-66009659D01*
X79215078Y-66116004D01*
X79215076Y-66116005D01*
X79067242Y-66195024D01*
X78906823Y-66243687D01*
X78781804Y-66256000D01*
X78698196Y-66256000D01*
X78573177Y-66243687D01*
X78412758Y-66195024D01*
X78264924Y-66116005D01*
X78264922Y-66116004D01*
X78135341Y-66009659D01*
X78028996Y-65880078D01*
X78020886Y-65864906D01*
X77949976Y-65732242D01*
X77901313Y-65571823D01*
X77884883Y-65405000D01*
X77901313Y-65238177D01*
X77949976Y-65077758D01*
X78028995Y-64929924D01*
X78028996Y-64929922D01*
X78135341Y-64800341D01*
X78264922Y-64693996D01*
X78280094Y-64685886D01*
X78412758Y-64614976D01*
X78573177Y-64566313D01*
X78698196Y-64554000D01*
X78781804Y-64554000D01*
X78906823Y-64566313D01*
X78906823Y-64566313D01*
G37*
G36*
X76366823Y-64566313D02*
G01*
X76527242Y-64614976D01*
X76659906Y-64685886D01*
X76675078Y-64693996D01*
X76804659Y-64800341D01*
X76911004Y-64929922D01*
X76911005Y-64929924D01*
X76990024Y-65077758D01*
X77038687Y-65238177D01*
X77055117Y-65405000D01*
X77038687Y-65571823D01*
X76990024Y-65732242D01*
X76919114Y-65864906D01*
X76911004Y-65880078D01*
X76804659Y-66009659D01*
X76675078Y-66116004D01*
X76675076Y-66116005D01*
X76527242Y-66195024D01*
X76366823Y-66243687D01*
X76241804Y-66256000D01*
X76158196Y-66256000D01*
X76033177Y-66243687D01*
X75872758Y-66195024D01*
X75724924Y-66116005D01*
X75724922Y-66116004D01*
X75595341Y-66009659D01*
X75488996Y-65880078D01*
X75480886Y-65864906D01*
X75409976Y-65732242D01*
X75361313Y-65571823D01*
X75344883Y-65405000D01*
X75361313Y-65238177D01*
X75409976Y-65077758D01*
X75488995Y-64929924D01*
X75488996Y-64929922D01*
X75595341Y-64800341D01*
X75724922Y-64693996D01*
X75740094Y-64685886D01*
X75872758Y-64614976D01*
X76033177Y-64566313D01*
X76158196Y-64554000D01*
X76241804Y-64554000D01*
X76366823Y-64566313D01*
X76366823Y-64566313D01*
G37*
G36*
X63666823Y-64566313D02*
G01*
X63827242Y-64614976D01*
X63959906Y-64685886D01*
X63975078Y-64693996D01*
X64104659Y-64800341D01*
X64211004Y-64929922D01*
X64211005Y-64929924D01*
X64290024Y-65077758D01*
X64338687Y-65238177D01*
X64355117Y-65405000D01*
X64338687Y-65571823D01*
X64290024Y-65732242D01*
X64219114Y-65864906D01*
X64211004Y-65880078D01*
X64104659Y-66009659D01*
X63975078Y-66116004D01*
X63975076Y-66116005D01*
X63827242Y-66195024D01*
X63666823Y-66243687D01*
X63541804Y-66256000D01*
X63458196Y-66256000D01*
X63333177Y-66243687D01*
X63172758Y-66195024D01*
X63024924Y-66116005D01*
X63024922Y-66116004D01*
X62895341Y-66009659D01*
X62788996Y-65880078D01*
X62780886Y-65864906D01*
X62709976Y-65732242D01*
X62661313Y-65571823D01*
X62644883Y-65405000D01*
X62661313Y-65238177D01*
X62709976Y-65077758D01*
X62788995Y-64929924D01*
X62788996Y-64929922D01*
X62895341Y-64800341D01*
X63024922Y-64693996D01*
X63040094Y-64685886D01*
X63172758Y-64614976D01*
X63333177Y-64566313D01*
X63458196Y-64554000D01*
X63541804Y-64554000D01*
X63666823Y-64566313D01*
X63666823Y-64566313D01*
G37*
G36*
X61126823Y-64566313D02*
G01*
X61287242Y-64614976D01*
X61419906Y-64685886D01*
X61435078Y-64693996D01*
X61564659Y-64800341D01*
X61671004Y-64929922D01*
X61671005Y-64929924D01*
X61750024Y-65077758D01*
X61798687Y-65238177D01*
X61815117Y-65405000D01*
X61798687Y-65571823D01*
X61750024Y-65732242D01*
X61679114Y-65864906D01*
X61671004Y-65880078D01*
X61564659Y-66009659D01*
X61435078Y-66116004D01*
X61435076Y-66116005D01*
X61287242Y-66195024D01*
X61126823Y-66243687D01*
X61001804Y-66256000D01*
X60918196Y-66256000D01*
X60793177Y-66243687D01*
X60632758Y-66195024D01*
X60484924Y-66116005D01*
X60484922Y-66116004D01*
X60355341Y-66009659D01*
X60248996Y-65880078D01*
X60240886Y-65864906D01*
X60169976Y-65732242D01*
X60121313Y-65571823D01*
X60104883Y-65405000D01*
X60121313Y-65238177D01*
X60169976Y-65077758D01*
X60248995Y-64929924D01*
X60248996Y-64929922D01*
X60355341Y-64800341D01*
X60484922Y-64693996D01*
X60500094Y-64685886D01*
X60632758Y-64614976D01*
X60793177Y-64566313D01*
X60918196Y-64554000D01*
X61001804Y-64554000D01*
X61126823Y-64566313D01*
X61126823Y-64566313D01*
G37*
G36*
X83310589Y-64008876D02*
G01*
X83409893Y-64028629D01*
X83550206Y-64086748D01*
X83676484Y-64171125D01*
X83783875Y-64278516D01*
X83868252Y-64404794D01*
X83926371Y-64545107D01*
X83940269Y-64614976D01*
X83955987Y-64693995D01*
X83956000Y-64694063D01*
X83956000Y-64845937D01*
X83926371Y-64994893D01*
X83868252Y-65135206D01*
X83783875Y-65261484D01*
X83676484Y-65368875D01*
X83550206Y-65453252D01*
X83409893Y-65511371D01*
X83310589Y-65531124D01*
X83260938Y-65541000D01*
X83109062Y-65541000D01*
X83059411Y-65531124D01*
X82960107Y-65511371D01*
X82819794Y-65453252D01*
X82693516Y-65368875D01*
X82586125Y-65261484D01*
X82501748Y-65135206D01*
X82443629Y-64994893D01*
X82414000Y-64845937D01*
X82414000Y-64694063D01*
X82414014Y-64693995D01*
X82429731Y-64614976D01*
X82443629Y-64545107D01*
X82501748Y-64404794D01*
X82586125Y-64278516D01*
X82693516Y-64171125D01*
X82819794Y-64086748D01*
X82960107Y-64028629D01*
X83059411Y-64008876D01*
X83109062Y-63999000D01*
X83260938Y-63999000D01*
X83310589Y-64008876D01*
X83310589Y-64008876D01*
G37*
G36*
X88390589Y-64008876D02*
G01*
X88489893Y-64028629D01*
X88630206Y-64086748D01*
X88756484Y-64171125D01*
X88863875Y-64278516D01*
X88948252Y-64404794D01*
X89006371Y-64545107D01*
X89020269Y-64614976D01*
X89035987Y-64693995D01*
X89036000Y-64694063D01*
X89036000Y-64845937D01*
X89006371Y-64994893D01*
X88948252Y-65135206D01*
X88863875Y-65261484D01*
X88756484Y-65368875D01*
X88630206Y-65453252D01*
X88489893Y-65511371D01*
X88390589Y-65531124D01*
X88340938Y-65541000D01*
X88189062Y-65541000D01*
X88139411Y-65531124D01*
X88040107Y-65511371D01*
X87899794Y-65453252D01*
X87773516Y-65368875D01*
X87666125Y-65261484D01*
X87581748Y-65135206D01*
X87523629Y-64994893D01*
X87494000Y-64845937D01*
X87494000Y-64694063D01*
X87494014Y-64693995D01*
X87509731Y-64614976D01*
X87523629Y-64545107D01*
X87581748Y-64404794D01*
X87666125Y-64278516D01*
X87773516Y-64171125D01*
X87899794Y-64086748D01*
X88040107Y-64028629D01*
X88139411Y-64008876D01*
X88189062Y-63999000D01*
X88340938Y-63999000D01*
X88390589Y-64008876D01*
X88390589Y-64008876D01*
G37*
G36*
X85850589Y-64008876D02*
G01*
X85949893Y-64028629D01*
X86090206Y-64086748D01*
X86216484Y-64171125D01*
X86323875Y-64278516D01*
X86408252Y-64404794D01*
X86466371Y-64545107D01*
X86480269Y-64614976D01*
X86495987Y-64693995D01*
X86496000Y-64694063D01*
X86496000Y-64845937D01*
X86466371Y-64994893D01*
X86408252Y-65135206D01*
X86323875Y-65261484D01*
X86216484Y-65368875D01*
X86090206Y-65453252D01*
X85949893Y-65511371D01*
X85850589Y-65531124D01*
X85800938Y-65541000D01*
X85649062Y-65541000D01*
X85599411Y-65531124D01*
X85500107Y-65511371D01*
X85359794Y-65453252D01*
X85233516Y-65368875D01*
X85126125Y-65261484D01*
X85041748Y-65135206D01*
X84983629Y-64994893D01*
X84954000Y-64845937D01*
X84954000Y-64694063D01*
X84954014Y-64693995D01*
X84969731Y-64614976D01*
X84983629Y-64545107D01*
X85041748Y-64404794D01*
X85126125Y-64278516D01*
X85233516Y-64171125D01*
X85359794Y-64086748D01*
X85500107Y-64028629D01*
X85599411Y-64008876D01*
X85649062Y-63999000D01*
X85800938Y-63999000D01*
X85850589Y-64008876D01*
X85850589Y-64008876D01*
G37*
G36*
X61126823Y-62026313D02*
G01*
X61287242Y-62074976D01*
X61419906Y-62145886D01*
X61435078Y-62153996D01*
X61564659Y-62260341D01*
X61671004Y-62389922D01*
X61671005Y-62389924D01*
X61750024Y-62537758D01*
X61798687Y-62698177D01*
X61815117Y-62865000D01*
X61798687Y-63031823D01*
X61750024Y-63192242D01*
X61679114Y-63324906D01*
X61671004Y-63340078D01*
X61564659Y-63469659D01*
X61435078Y-63576004D01*
X61435076Y-63576005D01*
X61287242Y-63655024D01*
X61126823Y-63703687D01*
X61001804Y-63716000D01*
X60918196Y-63716000D01*
X60793177Y-63703687D01*
X60632758Y-63655024D01*
X60484924Y-63576005D01*
X60484922Y-63576004D01*
X60355341Y-63469659D01*
X60248996Y-63340078D01*
X60240886Y-63324906D01*
X60169976Y-63192242D01*
X60121313Y-63031823D01*
X60104883Y-62865000D01*
X60121313Y-62698177D01*
X60169976Y-62537758D01*
X60248995Y-62389924D01*
X60248996Y-62389922D01*
X60355341Y-62260341D01*
X60484922Y-62153996D01*
X60500094Y-62145886D01*
X60632758Y-62074976D01*
X60793177Y-62026313D01*
X60918196Y-62014000D01*
X61001804Y-62014000D01*
X61126823Y-62026313D01*
X61126823Y-62026313D01*
G37*
G36*
X78906823Y-62026313D02*
G01*
X79067242Y-62074976D01*
X79199906Y-62145886D01*
X79215078Y-62153996D01*
X79344659Y-62260341D01*
X79451004Y-62389922D01*
X79451005Y-62389924D01*
X79530024Y-62537758D01*
X79578687Y-62698177D01*
X79595117Y-62865000D01*
X79578687Y-63031823D01*
X79530024Y-63192242D01*
X79459114Y-63324906D01*
X79451004Y-63340078D01*
X79344659Y-63469659D01*
X79215078Y-63576004D01*
X79215076Y-63576005D01*
X79067242Y-63655024D01*
X78906823Y-63703687D01*
X78781804Y-63716000D01*
X78698196Y-63716000D01*
X78573177Y-63703687D01*
X78412758Y-63655024D01*
X78264924Y-63576005D01*
X78264922Y-63576004D01*
X78135341Y-63469659D01*
X78028996Y-63340078D01*
X78020886Y-63324906D01*
X77949976Y-63192242D01*
X77901313Y-63031823D01*
X77884883Y-62865000D01*
X77901313Y-62698177D01*
X77949976Y-62537758D01*
X78028995Y-62389924D01*
X78028996Y-62389922D01*
X78135341Y-62260341D01*
X78264922Y-62153996D01*
X78280094Y-62145886D01*
X78412758Y-62074976D01*
X78573177Y-62026313D01*
X78698196Y-62014000D01*
X78781804Y-62014000D01*
X78906823Y-62026313D01*
X78906823Y-62026313D01*
G37*
G36*
X76366823Y-62026313D02*
G01*
X76527242Y-62074976D01*
X76659906Y-62145886D01*
X76675078Y-62153996D01*
X76804659Y-62260341D01*
X76911004Y-62389922D01*
X76911005Y-62389924D01*
X76990024Y-62537758D01*
X77038687Y-62698177D01*
X77055117Y-62865000D01*
X77038687Y-63031823D01*
X76990024Y-63192242D01*
X76919114Y-63324906D01*
X76911004Y-63340078D01*
X76804659Y-63469659D01*
X76675078Y-63576004D01*
X76675076Y-63576005D01*
X76527242Y-63655024D01*
X76366823Y-63703687D01*
X76241804Y-63716000D01*
X76158196Y-63716000D01*
X76033177Y-63703687D01*
X75872758Y-63655024D01*
X75724924Y-63576005D01*
X75724922Y-63576004D01*
X75595341Y-63469659D01*
X75488996Y-63340078D01*
X75480886Y-63324906D01*
X75409976Y-63192242D01*
X75361313Y-63031823D01*
X75344883Y-62865000D01*
X75361313Y-62698177D01*
X75409976Y-62537758D01*
X75488995Y-62389924D01*
X75488996Y-62389922D01*
X75595341Y-62260341D01*
X75724922Y-62153996D01*
X75740094Y-62145886D01*
X75872758Y-62074976D01*
X76033177Y-62026313D01*
X76158196Y-62014000D01*
X76241804Y-62014000D01*
X76366823Y-62026313D01*
X76366823Y-62026313D01*
G37*
G36*
X63666823Y-62026313D02*
G01*
X63827242Y-62074976D01*
X63959906Y-62145886D01*
X63975078Y-62153996D01*
X64104659Y-62260341D01*
X64211004Y-62389922D01*
X64211005Y-62389924D01*
X64290024Y-62537758D01*
X64338687Y-62698177D01*
X64355117Y-62865000D01*
X64338687Y-63031823D01*
X64290024Y-63192242D01*
X64219114Y-63324906D01*
X64211004Y-63340078D01*
X64104659Y-63469659D01*
X63975078Y-63576004D01*
X63975076Y-63576005D01*
X63827242Y-63655024D01*
X63666823Y-63703687D01*
X63541804Y-63716000D01*
X63458196Y-63716000D01*
X63333177Y-63703687D01*
X63172758Y-63655024D01*
X63024924Y-63576005D01*
X63024922Y-63576004D01*
X62895341Y-63469659D01*
X62788996Y-63340078D01*
X62780886Y-63324906D01*
X62709976Y-63192242D01*
X62661313Y-63031823D01*
X62644883Y-62865000D01*
X62661313Y-62698177D01*
X62709976Y-62537758D01*
X62788995Y-62389924D01*
X62788996Y-62389922D01*
X62895341Y-62260341D01*
X63024922Y-62153996D01*
X63040094Y-62145886D01*
X63172758Y-62074976D01*
X63333177Y-62026313D01*
X63458196Y-62014000D01*
X63541804Y-62014000D01*
X63666823Y-62026313D01*
X63666823Y-62026313D01*
G37*
G36*
X61126823Y-59486313D02*
G01*
X61287242Y-59534976D01*
X61419906Y-59605886D01*
X61435078Y-59613996D01*
X61564659Y-59720341D01*
X61671004Y-59849922D01*
X61671005Y-59849924D01*
X61750024Y-59997758D01*
X61798687Y-60158177D01*
X61815117Y-60325000D01*
X61798687Y-60491823D01*
X61750024Y-60652242D01*
X61679114Y-60784906D01*
X61671004Y-60800078D01*
X61564659Y-60929659D01*
X61435078Y-61036004D01*
X61435076Y-61036005D01*
X61287242Y-61115024D01*
X61126823Y-61163687D01*
X61001804Y-61176000D01*
X60918196Y-61176000D01*
X60793177Y-61163687D01*
X60632758Y-61115024D01*
X60484924Y-61036005D01*
X60484922Y-61036004D01*
X60355341Y-60929659D01*
X60248996Y-60800078D01*
X60240886Y-60784906D01*
X60169976Y-60652242D01*
X60121313Y-60491823D01*
X60104883Y-60325000D01*
X60121313Y-60158177D01*
X60169976Y-59997758D01*
X60248995Y-59849924D01*
X60248996Y-59849922D01*
X60355341Y-59720341D01*
X60484922Y-59613996D01*
X60500094Y-59605886D01*
X60632758Y-59534976D01*
X60793177Y-59486313D01*
X60918196Y-59474000D01*
X61001804Y-59474000D01*
X61126823Y-59486313D01*
X61126823Y-59486313D01*
G37*
G36*
X63666823Y-59486313D02*
G01*
X63827242Y-59534976D01*
X63959906Y-59605886D01*
X63975078Y-59613996D01*
X64104659Y-59720341D01*
X64211004Y-59849922D01*
X64211005Y-59849924D01*
X64290024Y-59997758D01*
X64338687Y-60158177D01*
X64355117Y-60325000D01*
X64338687Y-60491823D01*
X64290024Y-60652242D01*
X64219114Y-60784906D01*
X64211004Y-60800078D01*
X64104659Y-60929659D01*
X63975078Y-61036004D01*
X63975076Y-61036005D01*
X63827242Y-61115024D01*
X63666823Y-61163687D01*
X63541804Y-61176000D01*
X63458196Y-61176000D01*
X63333177Y-61163687D01*
X63172758Y-61115024D01*
X63024924Y-61036005D01*
X63024922Y-61036004D01*
X62895341Y-60929659D01*
X62788996Y-60800078D01*
X62780886Y-60784906D01*
X62709976Y-60652242D01*
X62661313Y-60491823D01*
X62644883Y-60325000D01*
X62661313Y-60158177D01*
X62709976Y-59997758D01*
X62788995Y-59849924D01*
X62788996Y-59849922D01*
X62895341Y-59720341D01*
X63024922Y-59613996D01*
X63040094Y-59605886D01*
X63172758Y-59534976D01*
X63333177Y-59486313D01*
X63458196Y-59474000D01*
X63541804Y-59474000D01*
X63666823Y-59486313D01*
X63666823Y-59486313D01*
G37*
G36*
X78906823Y-59486313D02*
G01*
X79067242Y-59534976D01*
X79199906Y-59605886D01*
X79215078Y-59613996D01*
X79344659Y-59720341D01*
X79451004Y-59849922D01*
X79451005Y-59849924D01*
X79530024Y-59997758D01*
X79578687Y-60158177D01*
X79595117Y-60325000D01*
X79578687Y-60491823D01*
X79530024Y-60652242D01*
X79459114Y-60784906D01*
X79451004Y-60800078D01*
X79344659Y-60929659D01*
X79215078Y-61036004D01*
X79215076Y-61036005D01*
X79067242Y-61115024D01*
X78906823Y-61163687D01*
X78781804Y-61176000D01*
X78698196Y-61176000D01*
X78573177Y-61163687D01*
X78412758Y-61115024D01*
X78264924Y-61036005D01*
X78264922Y-61036004D01*
X78135341Y-60929659D01*
X78028996Y-60800078D01*
X78020886Y-60784906D01*
X77949976Y-60652242D01*
X77901313Y-60491823D01*
X77884883Y-60325000D01*
X77901313Y-60158177D01*
X77949976Y-59997758D01*
X78028995Y-59849924D01*
X78028996Y-59849922D01*
X78135341Y-59720341D01*
X78264922Y-59613996D01*
X78280094Y-59605886D01*
X78412758Y-59534976D01*
X78573177Y-59486313D01*
X78698196Y-59474000D01*
X78781804Y-59474000D01*
X78906823Y-59486313D01*
X78906823Y-59486313D01*
G37*
G36*
X76366823Y-59486313D02*
G01*
X76527242Y-59534976D01*
X76659906Y-59605886D01*
X76675078Y-59613996D01*
X76804659Y-59720341D01*
X76911004Y-59849922D01*
X76911005Y-59849924D01*
X76990024Y-59997758D01*
X77038687Y-60158177D01*
X77055117Y-60325000D01*
X77038687Y-60491823D01*
X76990024Y-60652242D01*
X76919114Y-60784906D01*
X76911004Y-60800078D01*
X76804659Y-60929659D01*
X76675078Y-61036004D01*
X76675076Y-61036005D01*
X76527242Y-61115024D01*
X76366823Y-61163687D01*
X76241804Y-61176000D01*
X76158196Y-61176000D01*
X76033177Y-61163687D01*
X75872758Y-61115024D01*
X75724924Y-61036005D01*
X75724922Y-61036004D01*
X75595341Y-60929659D01*
X75488996Y-60800078D01*
X75480886Y-60784906D01*
X75409976Y-60652242D01*
X75361313Y-60491823D01*
X75344883Y-60325000D01*
X75361313Y-60158177D01*
X75409976Y-59997758D01*
X75488995Y-59849924D01*
X75488996Y-59849922D01*
X75595341Y-59720341D01*
X75724922Y-59613996D01*
X75740094Y-59605886D01*
X75872758Y-59534976D01*
X76033177Y-59486313D01*
X76158196Y-59474000D01*
X76241804Y-59474000D01*
X76366823Y-59486313D01*
X76366823Y-59486313D01*
G37*
G36*
X94228228Y-57601703D02*
G01*
X94383100Y-57665853D01*
X94522481Y-57758985D01*
X94641015Y-57877519D01*
X94734147Y-58016900D01*
X94798297Y-58171772D01*
X94831000Y-58336184D01*
X94831000Y-58503816D01*
X94798297Y-58668228D01*
X94734147Y-58823100D01*
X94641015Y-58962481D01*
X94522481Y-59081015D01*
X94383100Y-59174147D01*
X94228228Y-59238297D01*
X94063816Y-59271000D01*
X93896184Y-59271000D01*
X93731772Y-59238297D01*
X93576900Y-59174147D01*
X93437519Y-59081015D01*
X93318985Y-58962481D01*
X93225853Y-58823100D01*
X93161703Y-58668228D01*
X93129000Y-58503816D01*
X93129000Y-58336184D01*
X93161703Y-58171772D01*
X93225853Y-58016900D01*
X93318985Y-57877519D01*
X93437519Y-57758985D01*
X93576900Y-57665853D01*
X93731772Y-57601703D01*
X93896184Y-57569000D01*
X94063816Y-57569000D01*
X94228228Y-57601703D01*
X94228228Y-57601703D01*
G37*
G36*
X83310589Y-57658876D02*
G01*
X83409893Y-57678629D01*
X83550206Y-57736748D01*
X83676484Y-57821125D01*
X83783875Y-57928516D01*
X83868252Y-58054794D01*
X83926371Y-58195107D01*
X83926371Y-58195109D01*
X83956000Y-58344062D01*
X83956000Y-58495938D01*
X83954433Y-58503815D01*
X83926371Y-58644893D01*
X83868252Y-58785206D01*
X83783875Y-58911484D01*
X83676484Y-59018875D01*
X83550206Y-59103252D01*
X83409893Y-59161371D01*
X83345663Y-59174147D01*
X83260938Y-59191000D01*
X83109062Y-59191000D01*
X83024337Y-59174147D01*
X82960107Y-59161371D01*
X82819794Y-59103252D01*
X82693516Y-59018875D01*
X82586125Y-58911484D01*
X82501748Y-58785206D01*
X82443629Y-58644893D01*
X82415567Y-58503815D01*
X82414000Y-58495938D01*
X82414000Y-58344062D01*
X82443629Y-58195109D01*
X82443629Y-58195107D01*
X82501748Y-58054794D01*
X82586125Y-57928516D01*
X82693516Y-57821125D01*
X82819794Y-57736748D01*
X82960107Y-57678629D01*
X83059411Y-57658876D01*
X83109062Y-57649000D01*
X83260938Y-57649000D01*
X83310589Y-57658876D01*
X83310589Y-57658876D01*
G37*
G36*
X85850589Y-57658876D02*
G01*
X85949893Y-57678629D01*
X86090206Y-57736748D01*
X86216484Y-57821125D01*
X86323875Y-57928516D01*
X86408252Y-58054794D01*
X86466371Y-58195107D01*
X86466371Y-58195109D01*
X86496000Y-58344062D01*
X86496000Y-58495938D01*
X86494433Y-58503815D01*
X86466371Y-58644893D01*
X86408252Y-58785206D01*
X86323875Y-58911484D01*
X86216484Y-59018875D01*
X86090206Y-59103252D01*
X85949893Y-59161371D01*
X85885663Y-59174147D01*
X85800938Y-59191000D01*
X85649062Y-59191000D01*
X85564337Y-59174147D01*
X85500107Y-59161371D01*
X85359794Y-59103252D01*
X85233516Y-59018875D01*
X85126125Y-58911484D01*
X85041748Y-58785206D01*
X84983629Y-58644893D01*
X84955567Y-58503815D01*
X84954000Y-58495938D01*
X84954000Y-58344062D01*
X84983629Y-58195109D01*
X84983629Y-58195107D01*
X85041748Y-58054794D01*
X85126125Y-57928516D01*
X85233516Y-57821125D01*
X85359794Y-57736748D01*
X85500107Y-57678629D01*
X85599411Y-57658876D01*
X85649062Y-57649000D01*
X85800938Y-57649000D01*
X85850589Y-57658876D01*
X85850589Y-57658876D01*
G37*
G36*
X88390589Y-57658876D02*
G01*
X88489893Y-57678629D01*
X88630206Y-57736748D01*
X88756484Y-57821125D01*
X88863875Y-57928516D01*
X88948252Y-58054794D01*
X89006371Y-58195107D01*
X89006371Y-58195109D01*
X89036000Y-58344062D01*
X89036000Y-58495938D01*
X89034433Y-58503815D01*
X89006371Y-58644893D01*
X88948252Y-58785206D01*
X88863875Y-58911484D01*
X88756484Y-59018875D01*
X88630206Y-59103252D01*
X88489893Y-59161371D01*
X88425663Y-59174147D01*
X88340938Y-59191000D01*
X88189062Y-59191000D01*
X88104337Y-59174147D01*
X88040107Y-59161371D01*
X87899794Y-59103252D01*
X87773516Y-59018875D01*
X87666125Y-58911484D01*
X87581748Y-58785206D01*
X87523629Y-58644893D01*
X87495567Y-58503815D01*
X87494000Y-58495938D01*
X87494000Y-58344062D01*
X87523629Y-58195109D01*
X87523629Y-58195107D01*
X87581748Y-58054794D01*
X87666125Y-57928516D01*
X87773516Y-57821125D01*
X87899794Y-57736748D01*
X88040107Y-57678629D01*
X88139411Y-57658876D01*
X88189062Y-57649000D01*
X88340938Y-57649000D01*
X88390589Y-57658876D01*
X88390589Y-57658876D01*
G37*
G36*
X78906823Y-56946313D02*
G01*
X79067242Y-56994976D01*
X79199906Y-57065886D01*
X79215078Y-57073996D01*
X79344659Y-57180341D01*
X79451004Y-57309922D01*
X79451005Y-57309924D01*
X79530024Y-57457758D01*
X79578687Y-57618177D01*
X79595117Y-57785000D01*
X79578687Y-57951823D01*
X79530024Y-58112242D01*
X79459114Y-58244906D01*
X79451004Y-58260078D01*
X79344659Y-58389659D01*
X79215078Y-58496004D01*
X79215076Y-58496005D01*
X79067242Y-58575024D01*
X78906823Y-58623687D01*
X78781804Y-58636000D01*
X78698196Y-58636000D01*
X78573177Y-58623687D01*
X78412758Y-58575024D01*
X78264924Y-58496005D01*
X78264922Y-58496004D01*
X78135341Y-58389659D01*
X78028996Y-58260078D01*
X78020886Y-58244906D01*
X77949976Y-58112242D01*
X77901313Y-57951823D01*
X77884883Y-57785000D01*
X77901313Y-57618177D01*
X77949976Y-57457758D01*
X78028995Y-57309924D01*
X78028996Y-57309922D01*
X78135341Y-57180341D01*
X78264922Y-57073996D01*
X78280094Y-57065886D01*
X78412758Y-56994976D01*
X78573177Y-56946313D01*
X78698196Y-56934000D01*
X78781804Y-56934000D01*
X78906823Y-56946313D01*
X78906823Y-56946313D01*
G37*
G36*
X61126823Y-56946313D02*
G01*
X61287242Y-56994976D01*
X61419906Y-57065886D01*
X61435078Y-57073996D01*
X61564659Y-57180341D01*
X61671004Y-57309922D01*
X61671005Y-57309924D01*
X61750024Y-57457758D01*
X61798687Y-57618177D01*
X61815117Y-57785000D01*
X61798687Y-57951823D01*
X61750024Y-58112242D01*
X61679114Y-58244906D01*
X61671004Y-58260078D01*
X61564659Y-58389659D01*
X61435078Y-58496004D01*
X61435076Y-58496005D01*
X61287242Y-58575024D01*
X61126823Y-58623687D01*
X61001804Y-58636000D01*
X60918196Y-58636000D01*
X60793177Y-58623687D01*
X60632758Y-58575024D01*
X60484924Y-58496005D01*
X60484922Y-58496004D01*
X60355341Y-58389659D01*
X60248996Y-58260078D01*
X60240886Y-58244906D01*
X60169976Y-58112242D01*
X60121313Y-57951823D01*
X60104883Y-57785000D01*
X60121313Y-57618177D01*
X60169976Y-57457758D01*
X60248995Y-57309924D01*
X60248996Y-57309922D01*
X60355341Y-57180341D01*
X60484922Y-57073996D01*
X60500094Y-57065886D01*
X60632758Y-56994976D01*
X60793177Y-56946313D01*
X60918196Y-56934000D01*
X61001804Y-56934000D01*
X61126823Y-56946313D01*
X61126823Y-56946313D01*
G37*
G36*
X63666823Y-56946313D02*
G01*
X63827242Y-56994976D01*
X63959906Y-57065886D01*
X63975078Y-57073996D01*
X64104659Y-57180341D01*
X64211004Y-57309922D01*
X64211005Y-57309924D01*
X64290024Y-57457758D01*
X64338687Y-57618177D01*
X64355117Y-57785000D01*
X64338687Y-57951823D01*
X64290024Y-58112242D01*
X64219114Y-58244906D01*
X64211004Y-58260078D01*
X64104659Y-58389659D01*
X63975078Y-58496004D01*
X63975076Y-58496005D01*
X63827242Y-58575024D01*
X63666823Y-58623687D01*
X63541804Y-58636000D01*
X63458196Y-58636000D01*
X63333177Y-58623687D01*
X63172758Y-58575024D01*
X63024924Y-58496005D01*
X63024922Y-58496004D01*
X62895341Y-58389659D01*
X62788996Y-58260078D01*
X62780886Y-58244906D01*
X62709976Y-58112242D01*
X62661313Y-57951823D01*
X62644883Y-57785000D01*
X62661313Y-57618177D01*
X62709976Y-57457758D01*
X62788995Y-57309924D01*
X62788996Y-57309922D01*
X62895341Y-57180341D01*
X63024922Y-57073996D01*
X63040094Y-57065886D01*
X63172758Y-56994976D01*
X63333177Y-56946313D01*
X63458196Y-56934000D01*
X63541804Y-56934000D01*
X63666823Y-56946313D01*
X63666823Y-56946313D01*
G37*
G36*
X76366823Y-56946313D02*
G01*
X76527242Y-56994976D01*
X76659906Y-57065886D01*
X76675078Y-57073996D01*
X76804659Y-57180341D01*
X76911004Y-57309922D01*
X76911005Y-57309924D01*
X76990024Y-57457758D01*
X77038687Y-57618177D01*
X77055117Y-57785000D01*
X77038687Y-57951823D01*
X76990024Y-58112242D01*
X76919114Y-58244906D01*
X76911004Y-58260078D01*
X76804659Y-58389659D01*
X76675078Y-58496004D01*
X76675076Y-58496005D01*
X76527242Y-58575024D01*
X76366823Y-58623687D01*
X76241804Y-58636000D01*
X76158196Y-58636000D01*
X76033177Y-58623687D01*
X75872758Y-58575024D01*
X75724924Y-58496005D01*
X75724922Y-58496004D01*
X75595341Y-58389659D01*
X75488996Y-58260078D01*
X75480886Y-58244906D01*
X75409976Y-58112242D01*
X75361313Y-57951823D01*
X75344883Y-57785000D01*
X75361313Y-57618177D01*
X75409976Y-57457758D01*
X75488995Y-57309924D01*
X75488996Y-57309922D01*
X75595341Y-57180341D01*
X75724922Y-57073996D01*
X75740094Y-57065886D01*
X75872758Y-56994976D01*
X76033177Y-56946313D01*
X76158196Y-56934000D01*
X76241804Y-56934000D01*
X76366823Y-56946313D01*
X76366823Y-56946313D01*
G37*
G36*
X94228228Y-55061703D02*
G01*
X94383100Y-55125853D01*
X94522481Y-55218985D01*
X94641015Y-55337519D01*
X94734147Y-55476900D01*
X94798297Y-55631772D01*
X94831000Y-55796184D01*
X94831000Y-55963816D01*
X94798297Y-56128228D01*
X94734147Y-56283100D01*
X94641015Y-56422481D01*
X94522481Y-56541015D01*
X94383100Y-56634147D01*
X94228228Y-56698297D01*
X94063816Y-56731000D01*
X93896184Y-56731000D01*
X93731772Y-56698297D01*
X93576900Y-56634147D01*
X93437519Y-56541015D01*
X93318985Y-56422481D01*
X93225853Y-56283100D01*
X93161703Y-56128228D01*
X93129000Y-55963816D01*
X93129000Y-55796184D01*
X93161703Y-55631772D01*
X93225853Y-55476900D01*
X93318985Y-55337519D01*
X93437519Y-55218985D01*
X93576900Y-55125853D01*
X93731772Y-55061703D01*
X93896184Y-55029000D01*
X94063816Y-55029000D01*
X94228228Y-55061703D01*
X94228228Y-55061703D01*
G37*
G36*
X61126823Y-54406313D02*
G01*
X61287242Y-54454976D01*
X61419906Y-54525886D01*
X61435078Y-54533996D01*
X61564659Y-54640341D01*
X61671004Y-54769922D01*
X61671005Y-54769924D01*
X61750024Y-54917758D01*
X61798687Y-55078177D01*
X61815117Y-55245000D01*
X61798687Y-55411823D01*
X61750024Y-55572242D01*
X61679114Y-55704906D01*
X61671004Y-55720078D01*
X61564659Y-55849659D01*
X61435078Y-55956004D01*
X61435076Y-55956005D01*
X61287242Y-56035024D01*
X61126823Y-56083687D01*
X61001804Y-56096000D01*
X60918196Y-56096000D01*
X60793177Y-56083687D01*
X60632758Y-56035024D01*
X60484924Y-55956005D01*
X60484922Y-55956004D01*
X60355341Y-55849659D01*
X60248996Y-55720078D01*
X60240886Y-55704906D01*
X60169976Y-55572242D01*
X60121313Y-55411823D01*
X60104883Y-55245000D01*
X60121313Y-55078177D01*
X60169976Y-54917758D01*
X60248995Y-54769924D01*
X60248996Y-54769922D01*
X60355341Y-54640341D01*
X60484922Y-54533996D01*
X60500094Y-54525886D01*
X60632758Y-54454976D01*
X60793177Y-54406313D01*
X60918196Y-54394000D01*
X61001804Y-54394000D01*
X61126823Y-54406313D01*
X61126823Y-54406313D01*
G37*
G36*
X63666823Y-54406313D02*
G01*
X63827242Y-54454976D01*
X63959906Y-54525886D01*
X63975078Y-54533996D01*
X64104659Y-54640341D01*
X64211004Y-54769922D01*
X64211005Y-54769924D01*
X64290024Y-54917758D01*
X64338687Y-55078177D01*
X64355117Y-55245000D01*
X64338687Y-55411823D01*
X64290024Y-55572242D01*
X64219114Y-55704906D01*
X64211004Y-55720078D01*
X64104659Y-55849659D01*
X63975078Y-55956004D01*
X63975076Y-55956005D01*
X63827242Y-56035024D01*
X63666823Y-56083687D01*
X63541804Y-56096000D01*
X63458196Y-56096000D01*
X63333177Y-56083687D01*
X63172758Y-56035024D01*
X63024924Y-55956005D01*
X63024922Y-55956004D01*
X62895341Y-55849659D01*
X62788996Y-55720078D01*
X62780886Y-55704906D01*
X62709976Y-55572242D01*
X62661313Y-55411823D01*
X62644883Y-55245000D01*
X62661313Y-55078177D01*
X62709976Y-54917758D01*
X62788995Y-54769924D01*
X62788996Y-54769922D01*
X62895341Y-54640341D01*
X63024922Y-54533996D01*
X63040094Y-54525886D01*
X63172758Y-54454976D01*
X63333177Y-54406313D01*
X63458196Y-54394000D01*
X63541804Y-54394000D01*
X63666823Y-54406313D01*
X63666823Y-54406313D01*
G37*
G36*
X76366823Y-54406313D02*
G01*
X76527242Y-54454976D01*
X76659906Y-54525886D01*
X76675078Y-54533996D01*
X76804659Y-54640341D01*
X76911004Y-54769922D01*
X76911005Y-54769924D01*
X76990024Y-54917758D01*
X77038687Y-55078177D01*
X77055117Y-55245000D01*
X77038687Y-55411823D01*
X76990024Y-55572242D01*
X76919114Y-55704906D01*
X76911004Y-55720078D01*
X76804659Y-55849659D01*
X76675078Y-55956004D01*
X76675076Y-55956005D01*
X76527242Y-56035024D01*
X76366823Y-56083687D01*
X76241804Y-56096000D01*
X76158196Y-56096000D01*
X76033177Y-56083687D01*
X75872758Y-56035024D01*
X75724924Y-55956005D01*
X75724922Y-55956004D01*
X75595341Y-55849659D01*
X75488996Y-55720078D01*
X75480886Y-55704906D01*
X75409976Y-55572242D01*
X75361313Y-55411823D01*
X75344883Y-55245000D01*
X75361313Y-55078177D01*
X75409976Y-54917758D01*
X75488995Y-54769924D01*
X75488996Y-54769922D01*
X75595341Y-54640341D01*
X75724922Y-54533996D01*
X75740094Y-54525886D01*
X75872758Y-54454976D01*
X76033177Y-54406313D01*
X76158196Y-54394000D01*
X76241804Y-54394000D01*
X76366823Y-54406313D01*
X76366823Y-54406313D01*
G37*
G36*
X78906823Y-54406313D02*
G01*
X79067242Y-54454976D01*
X79199906Y-54525886D01*
X79215078Y-54533996D01*
X79344659Y-54640341D01*
X79451004Y-54769922D01*
X79451005Y-54769924D01*
X79530024Y-54917758D01*
X79578687Y-55078177D01*
X79595117Y-55245000D01*
X79578687Y-55411823D01*
X79530024Y-55572242D01*
X79459114Y-55704906D01*
X79451004Y-55720078D01*
X79344659Y-55849659D01*
X79215078Y-55956004D01*
X79215076Y-55956005D01*
X79067242Y-56035024D01*
X78906823Y-56083687D01*
X78781804Y-56096000D01*
X78698196Y-56096000D01*
X78573177Y-56083687D01*
X78412758Y-56035024D01*
X78264924Y-55956005D01*
X78264922Y-55956004D01*
X78135341Y-55849659D01*
X78028996Y-55720078D01*
X78020886Y-55704906D01*
X77949976Y-55572242D01*
X77901313Y-55411823D01*
X77884883Y-55245000D01*
X77901313Y-55078177D01*
X77949976Y-54917758D01*
X78028995Y-54769924D01*
X78028996Y-54769922D01*
X78135341Y-54640341D01*
X78264922Y-54533996D01*
X78280094Y-54525886D01*
X78412758Y-54454976D01*
X78573177Y-54406313D01*
X78698196Y-54394000D01*
X78781804Y-54394000D01*
X78906823Y-54406313D01*
X78906823Y-54406313D01*
G37*
G36*
X61126823Y-51866313D02*
G01*
X61287242Y-51914976D01*
X61419906Y-51985886D01*
X61435078Y-51993996D01*
X61564659Y-52100341D01*
X61671004Y-52229922D01*
X61671005Y-52229924D01*
X61750024Y-52377758D01*
X61798687Y-52538177D01*
X61815117Y-52705000D01*
X61798687Y-52871823D01*
X61750024Y-53032242D01*
X61679114Y-53164906D01*
X61671004Y-53180078D01*
X61564659Y-53309659D01*
X61435078Y-53416004D01*
X61435076Y-53416005D01*
X61287242Y-53495024D01*
X61126823Y-53543687D01*
X61001804Y-53556000D01*
X60918196Y-53556000D01*
X60793177Y-53543687D01*
X60632758Y-53495024D01*
X60484924Y-53416005D01*
X60484922Y-53416004D01*
X60355341Y-53309659D01*
X60248996Y-53180078D01*
X60240886Y-53164906D01*
X60169976Y-53032242D01*
X60121313Y-52871823D01*
X60104883Y-52705000D01*
X60121313Y-52538177D01*
X60169976Y-52377758D01*
X60248995Y-52229924D01*
X60248996Y-52229922D01*
X60355341Y-52100341D01*
X60484922Y-51993996D01*
X60500094Y-51985886D01*
X60632758Y-51914976D01*
X60793177Y-51866313D01*
X60918196Y-51854000D01*
X61001804Y-51854000D01*
X61126823Y-51866313D01*
X61126823Y-51866313D01*
G37*
G36*
X78906823Y-51866313D02*
G01*
X79067242Y-51914976D01*
X79199906Y-51985886D01*
X79215078Y-51993996D01*
X79344659Y-52100341D01*
X79451004Y-52229922D01*
X79451005Y-52229924D01*
X79530024Y-52377758D01*
X79578687Y-52538177D01*
X79595117Y-52705000D01*
X79578687Y-52871823D01*
X79530024Y-53032242D01*
X79459114Y-53164906D01*
X79451004Y-53180078D01*
X79344659Y-53309659D01*
X79215078Y-53416004D01*
X79215076Y-53416005D01*
X79067242Y-53495024D01*
X78906823Y-53543687D01*
X78781804Y-53556000D01*
X78698196Y-53556000D01*
X78573177Y-53543687D01*
X78412758Y-53495024D01*
X78264924Y-53416005D01*
X78264922Y-53416004D01*
X78135341Y-53309659D01*
X78028996Y-53180078D01*
X78020886Y-53164906D01*
X77949976Y-53032242D01*
X77901313Y-52871823D01*
X77884883Y-52705000D01*
X77901313Y-52538177D01*
X77949976Y-52377758D01*
X78028995Y-52229924D01*
X78028996Y-52229922D01*
X78135341Y-52100341D01*
X78264922Y-51993996D01*
X78280094Y-51985886D01*
X78412758Y-51914976D01*
X78573177Y-51866313D01*
X78698196Y-51854000D01*
X78781804Y-51854000D01*
X78906823Y-51866313D01*
X78906823Y-51866313D01*
G37*
G36*
X76366823Y-51866313D02*
G01*
X76527242Y-51914976D01*
X76659906Y-51985886D01*
X76675078Y-51993996D01*
X76804659Y-52100341D01*
X76911004Y-52229922D01*
X76911005Y-52229924D01*
X76990024Y-52377758D01*
X77038687Y-52538177D01*
X77055117Y-52705000D01*
X77038687Y-52871823D01*
X76990024Y-53032242D01*
X76919114Y-53164906D01*
X76911004Y-53180078D01*
X76804659Y-53309659D01*
X76675078Y-53416004D01*
X76675076Y-53416005D01*
X76527242Y-53495024D01*
X76366823Y-53543687D01*
X76241804Y-53556000D01*
X76158196Y-53556000D01*
X76033177Y-53543687D01*
X75872758Y-53495024D01*
X75724924Y-53416005D01*
X75724922Y-53416004D01*
X75595341Y-53309659D01*
X75488996Y-53180078D01*
X75480886Y-53164906D01*
X75409976Y-53032242D01*
X75361313Y-52871823D01*
X75344883Y-52705000D01*
X75361313Y-52538177D01*
X75409976Y-52377758D01*
X75488995Y-52229924D01*
X75488996Y-52229922D01*
X75595341Y-52100341D01*
X75724922Y-51993996D01*
X75740094Y-51985886D01*
X75872758Y-51914976D01*
X76033177Y-51866313D01*
X76158196Y-51854000D01*
X76241804Y-51854000D01*
X76366823Y-51866313D01*
X76366823Y-51866313D01*
G37*
G36*
X63666823Y-51866313D02*
G01*
X63827242Y-51914976D01*
X63959906Y-51985886D01*
X63975078Y-51993996D01*
X64104659Y-52100341D01*
X64211004Y-52229922D01*
X64211005Y-52229924D01*
X64290024Y-52377758D01*
X64338687Y-52538177D01*
X64355117Y-52705000D01*
X64338687Y-52871823D01*
X64290024Y-53032242D01*
X64219114Y-53164906D01*
X64211004Y-53180078D01*
X64104659Y-53309659D01*
X63975078Y-53416004D01*
X63975076Y-53416005D01*
X63827242Y-53495024D01*
X63666823Y-53543687D01*
X63541804Y-53556000D01*
X63458196Y-53556000D01*
X63333177Y-53543687D01*
X63172758Y-53495024D01*
X63024924Y-53416005D01*
X63024922Y-53416004D01*
X62895341Y-53309659D01*
X62788996Y-53180078D01*
X62780886Y-53164906D01*
X62709976Y-53032242D01*
X62661313Y-52871823D01*
X62644883Y-52705000D01*
X62661313Y-52538177D01*
X62709976Y-52377758D01*
X62788995Y-52229924D01*
X62788996Y-52229922D01*
X62895341Y-52100341D01*
X63024922Y-51993996D01*
X63040094Y-51985886D01*
X63172758Y-51914976D01*
X63333177Y-51866313D01*
X63458196Y-51854000D01*
X63541804Y-51854000D01*
X63666823Y-51866313D01*
X63666823Y-51866313D01*
G37*
G36*
X85850589Y-51308876D02*
G01*
X85949893Y-51328629D01*
X86090206Y-51386748D01*
X86216484Y-51471125D01*
X86323875Y-51578516D01*
X86408252Y-51704794D01*
X86466371Y-51845107D01*
X86480269Y-51914976D01*
X86495987Y-51993995D01*
X86496000Y-51994063D01*
X86496000Y-52145937D01*
X86466371Y-52294893D01*
X86408252Y-52435206D01*
X86323875Y-52561484D01*
X86216484Y-52668875D01*
X86090206Y-52753252D01*
X85949893Y-52811371D01*
X85850589Y-52831124D01*
X85800938Y-52841000D01*
X85649062Y-52841000D01*
X85599411Y-52831124D01*
X85500107Y-52811371D01*
X85359794Y-52753252D01*
X85233516Y-52668875D01*
X85126125Y-52561484D01*
X85041748Y-52435206D01*
X84983629Y-52294893D01*
X84954000Y-52145937D01*
X84954000Y-51994063D01*
X84954014Y-51993995D01*
X84969731Y-51914976D01*
X84983629Y-51845107D01*
X85041748Y-51704794D01*
X85126125Y-51578516D01*
X85233516Y-51471125D01*
X85359794Y-51386748D01*
X85500107Y-51328629D01*
X85599411Y-51308876D01*
X85649062Y-51299000D01*
X85800938Y-51299000D01*
X85850589Y-51308876D01*
X85850589Y-51308876D01*
G37*
G36*
X83310589Y-51308876D02*
G01*
X83409893Y-51328629D01*
X83550206Y-51386748D01*
X83676484Y-51471125D01*
X83783875Y-51578516D01*
X83868252Y-51704794D01*
X83926371Y-51845107D01*
X83940269Y-51914976D01*
X83955987Y-51993995D01*
X83956000Y-51994063D01*
X83956000Y-52145937D01*
X83926371Y-52294893D01*
X83868252Y-52435206D01*
X83783875Y-52561484D01*
X83676484Y-52668875D01*
X83550206Y-52753252D01*
X83409893Y-52811371D01*
X83310589Y-52831124D01*
X83260938Y-52841000D01*
X83109062Y-52841000D01*
X83059411Y-52831124D01*
X82960107Y-52811371D01*
X82819794Y-52753252D01*
X82693516Y-52668875D01*
X82586125Y-52561484D01*
X82501748Y-52435206D01*
X82443629Y-52294893D01*
X82414000Y-52145937D01*
X82414000Y-51994063D01*
X82414014Y-51993995D01*
X82429731Y-51914976D01*
X82443629Y-51845107D01*
X82501748Y-51704794D01*
X82586125Y-51578516D01*
X82693516Y-51471125D01*
X82819794Y-51386748D01*
X82960107Y-51328629D01*
X83059411Y-51308876D01*
X83109062Y-51299000D01*
X83260938Y-51299000D01*
X83310589Y-51308876D01*
X83310589Y-51308876D01*
G37*
G36*
X88390589Y-51308876D02*
G01*
X88489893Y-51328629D01*
X88630206Y-51386748D01*
X88756484Y-51471125D01*
X88863875Y-51578516D01*
X88948252Y-51704794D01*
X89006371Y-51845107D01*
X89020269Y-51914976D01*
X89035987Y-51993995D01*
X89036000Y-51994063D01*
X89036000Y-52145937D01*
X89006371Y-52294893D01*
X88948252Y-52435206D01*
X88863875Y-52561484D01*
X88756484Y-52668875D01*
X88630206Y-52753252D01*
X88489893Y-52811371D01*
X88390589Y-52831124D01*
X88340938Y-52841000D01*
X88189062Y-52841000D01*
X88139411Y-52831124D01*
X88040107Y-52811371D01*
X87899794Y-52753252D01*
X87773516Y-52668875D01*
X87666125Y-52561484D01*
X87581748Y-52435206D01*
X87523629Y-52294893D01*
X87494000Y-52145937D01*
X87494000Y-51994063D01*
X87494014Y-51993995D01*
X87509731Y-51914976D01*
X87523629Y-51845107D01*
X87581748Y-51704794D01*
X87666125Y-51578516D01*
X87773516Y-51471125D01*
X87899794Y-51386748D01*
X88040107Y-51328629D01*
X88139411Y-51308876D01*
X88189062Y-51299000D01*
X88340938Y-51299000D01*
X88390589Y-51308876D01*
X88390589Y-51308876D01*
G37*
G36*
X61126823Y-49326313D02*
G01*
X61287242Y-49374976D01*
X61419906Y-49445886D01*
X61435078Y-49453996D01*
X61564659Y-49560341D01*
X61671004Y-49689922D01*
X61671005Y-49689924D01*
X61750024Y-49837758D01*
X61798687Y-49998177D01*
X61815117Y-50165000D01*
X61798687Y-50331823D01*
X61750024Y-50492242D01*
X61679114Y-50624906D01*
X61671004Y-50640078D01*
X61564659Y-50769659D01*
X61435078Y-50876004D01*
X61435076Y-50876005D01*
X61287242Y-50955024D01*
X61126823Y-51003687D01*
X61001804Y-51016000D01*
X60918196Y-51016000D01*
X60793177Y-51003687D01*
X60632758Y-50955024D01*
X60484924Y-50876005D01*
X60484922Y-50876004D01*
X60355341Y-50769659D01*
X60248996Y-50640078D01*
X60240886Y-50624906D01*
X60169976Y-50492242D01*
X60121313Y-50331823D01*
X60104883Y-50165000D01*
X60121313Y-49998177D01*
X60169976Y-49837758D01*
X60248995Y-49689924D01*
X60248996Y-49689922D01*
X60355341Y-49560341D01*
X60484922Y-49453996D01*
X60500094Y-49445886D01*
X60632758Y-49374976D01*
X60793177Y-49326313D01*
X60918196Y-49314000D01*
X61001804Y-49314000D01*
X61126823Y-49326313D01*
X61126823Y-49326313D01*
G37*
G36*
X78906823Y-49326313D02*
G01*
X79067242Y-49374976D01*
X79199906Y-49445886D01*
X79215078Y-49453996D01*
X79344659Y-49560341D01*
X79451004Y-49689922D01*
X79451005Y-49689924D01*
X79530024Y-49837758D01*
X79578687Y-49998177D01*
X79595117Y-50165000D01*
X79578687Y-50331823D01*
X79530024Y-50492242D01*
X79459114Y-50624906D01*
X79451004Y-50640078D01*
X79344659Y-50769659D01*
X79215078Y-50876004D01*
X79215076Y-50876005D01*
X79067242Y-50955024D01*
X78906823Y-51003687D01*
X78781804Y-51016000D01*
X78698196Y-51016000D01*
X78573177Y-51003687D01*
X78412758Y-50955024D01*
X78264924Y-50876005D01*
X78264922Y-50876004D01*
X78135341Y-50769659D01*
X78028996Y-50640078D01*
X78020886Y-50624906D01*
X77949976Y-50492242D01*
X77901313Y-50331823D01*
X77884883Y-50165000D01*
X77901313Y-49998177D01*
X77949976Y-49837758D01*
X78028995Y-49689924D01*
X78028996Y-49689922D01*
X78135341Y-49560341D01*
X78264922Y-49453996D01*
X78280094Y-49445886D01*
X78412758Y-49374976D01*
X78573177Y-49326313D01*
X78698196Y-49314000D01*
X78781804Y-49314000D01*
X78906823Y-49326313D01*
X78906823Y-49326313D01*
G37*
G36*
X76366823Y-49326313D02*
G01*
X76527242Y-49374976D01*
X76659906Y-49445886D01*
X76675078Y-49453996D01*
X76804659Y-49560341D01*
X76911004Y-49689922D01*
X76911005Y-49689924D01*
X76990024Y-49837758D01*
X77038687Y-49998177D01*
X77055117Y-50165000D01*
X77038687Y-50331823D01*
X76990024Y-50492242D01*
X76919114Y-50624906D01*
X76911004Y-50640078D01*
X76804659Y-50769659D01*
X76675078Y-50876004D01*
X76675076Y-50876005D01*
X76527242Y-50955024D01*
X76366823Y-51003687D01*
X76241804Y-51016000D01*
X76158196Y-51016000D01*
X76033177Y-51003687D01*
X75872758Y-50955024D01*
X75724924Y-50876005D01*
X75724922Y-50876004D01*
X75595341Y-50769659D01*
X75488996Y-50640078D01*
X75480886Y-50624906D01*
X75409976Y-50492242D01*
X75361313Y-50331823D01*
X75344883Y-50165000D01*
X75361313Y-49998177D01*
X75409976Y-49837758D01*
X75488995Y-49689924D01*
X75488996Y-49689922D01*
X75595341Y-49560341D01*
X75724922Y-49453996D01*
X75740094Y-49445886D01*
X75872758Y-49374976D01*
X76033177Y-49326313D01*
X76158196Y-49314000D01*
X76241804Y-49314000D01*
X76366823Y-49326313D01*
X76366823Y-49326313D01*
G37*
G36*
X63666823Y-49326313D02*
G01*
X63827242Y-49374976D01*
X63959906Y-49445886D01*
X63975078Y-49453996D01*
X64104659Y-49560341D01*
X64211004Y-49689922D01*
X64211005Y-49689924D01*
X64290024Y-49837758D01*
X64338687Y-49998177D01*
X64355117Y-50165000D01*
X64338687Y-50331823D01*
X64290024Y-50492242D01*
X64219114Y-50624906D01*
X64211004Y-50640078D01*
X64104659Y-50769659D01*
X63975078Y-50876004D01*
X63975076Y-50876005D01*
X63827242Y-50955024D01*
X63666823Y-51003687D01*
X63541804Y-51016000D01*
X63458196Y-51016000D01*
X63333177Y-51003687D01*
X63172758Y-50955024D01*
X63024924Y-50876005D01*
X63024922Y-50876004D01*
X62895341Y-50769659D01*
X62788996Y-50640078D01*
X62780886Y-50624906D01*
X62709976Y-50492242D01*
X62661313Y-50331823D01*
X62644883Y-50165000D01*
X62661313Y-49998177D01*
X62709976Y-49837758D01*
X62788995Y-49689924D01*
X62788996Y-49689922D01*
X62895341Y-49560341D01*
X63024922Y-49453996D01*
X63040094Y-49445886D01*
X63172758Y-49374976D01*
X63333177Y-49326313D01*
X63458196Y-49314000D01*
X63541804Y-49314000D01*
X63666823Y-49326313D01*
X63666823Y-49326313D01*
G37*
G36*
X94146823Y-47421313D02*
G01*
X94307242Y-47469976D01*
X94439906Y-47540886D01*
X94455078Y-47548996D01*
X94584659Y-47655341D01*
X94691004Y-47784922D01*
X94691005Y-47784924D01*
X94770024Y-47932758D01*
X94818687Y-48093177D01*
X94835117Y-48260000D01*
X94818687Y-48426823D01*
X94770024Y-48587242D01*
X94699114Y-48719906D01*
X94691004Y-48735078D01*
X94584659Y-48864659D01*
X94455078Y-48971004D01*
X94455076Y-48971005D01*
X94307242Y-49050024D01*
X94146823Y-49098687D01*
X94021804Y-49111000D01*
X93938196Y-49111000D01*
X93813177Y-49098687D01*
X93652758Y-49050024D01*
X93504924Y-48971005D01*
X93504922Y-48971004D01*
X93375341Y-48864659D01*
X93268996Y-48735078D01*
X93260886Y-48719906D01*
X93189976Y-48587242D01*
X93141313Y-48426823D01*
X93124883Y-48260000D01*
X93141313Y-48093177D01*
X93189976Y-47932758D01*
X93268995Y-47784924D01*
X93268996Y-47784922D01*
X93375341Y-47655341D01*
X93504922Y-47548996D01*
X93520094Y-47540886D01*
X93652758Y-47469976D01*
X93813177Y-47421313D01*
X93938196Y-47409000D01*
X94021804Y-47409000D01*
X94146823Y-47421313D01*
X94146823Y-47421313D01*
G37*
G36*
X61126823Y-46786313D02*
G01*
X61287242Y-46834976D01*
X61419906Y-46905886D01*
X61435078Y-46913996D01*
X61564659Y-47020341D01*
X61671004Y-47149922D01*
X61671005Y-47149924D01*
X61750024Y-47297758D01*
X61798687Y-47458177D01*
X61815117Y-47625000D01*
X61798687Y-47791823D01*
X61750024Y-47952242D01*
X61679114Y-48084906D01*
X61671004Y-48100078D01*
X61564659Y-48229659D01*
X61435078Y-48336004D01*
X61435076Y-48336005D01*
X61287242Y-48415024D01*
X61126823Y-48463687D01*
X61001804Y-48476000D01*
X60918196Y-48476000D01*
X60793177Y-48463687D01*
X60632758Y-48415024D01*
X60484924Y-48336005D01*
X60484922Y-48336004D01*
X60355341Y-48229659D01*
X60248996Y-48100078D01*
X60240886Y-48084906D01*
X60169976Y-47952242D01*
X60121313Y-47791823D01*
X60104883Y-47625000D01*
X60121313Y-47458177D01*
X60169976Y-47297758D01*
X60248995Y-47149924D01*
X60248996Y-47149922D01*
X60355341Y-47020341D01*
X60484922Y-46913996D01*
X60500094Y-46905886D01*
X60632758Y-46834976D01*
X60793177Y-46786313D01*
X60918196Y-46774000D01*
X61001804Y-46774000D01*
X61126823Y-46786313D01*
X61126823Y-46786313D01*
G37*
G36*
X78906823Y-46786313D02*
G01*
X79067242Y-46834976D01*
X79199906Y-46905886D01*
X79215078Y-46913996D01*
X79344659Y-47020341D01*
X79451004Y-47149922D01*
X79451005Y-47149924D01*
X79530024Y-47297758D01*
X79578687Y-47458177D01*
X79595117Y-47625000D01*
X79578687Y-47791823D01*
X79530024Y-47952242D01*
X79459114Y-48084906D01*
X79451004Y-48100078D01*
X79344659Y-48229659D01*
X79215078Y-48336004D01*
X79215076Y-48336005D01*
X79067242Y-48415024D01*
X78906823Y-48463687D01*
X78781804Y-48476000D01*
X78698196Y-48476000D01*
X78573177Y-48463687D01*
X78412758Y-48415024D01*
X78264924Y-48336005D01*
X78264922Y-48336004D01*
X78135341Y-48229659D01*
X78028996Y-48100078D01*
X78020886Y-48084906D01*
X77949976Y-47952242D01*
X77901313Y-47791823D01*
X77884883Y-47625000D01*
X77901313Y-47458177D01*
X77949976Y-47297758D01*
X78028995Y-47149924D01*
X78028996Y-47149922D01*
X78135341Y-47020341D01*
X78264922Y-46913996D01*
X78280094Y-46905886D01*
X78412758Y-46834976D01*
X78573177Y-46786313D01*
X78698196Y-46774000D01*
X78781804Y-46774000D01*
X78906823Y-46786313D01*
X78906823Y-46786313D01*
G37*
G36*
X76366823Y-46786313D02*
G01*
X76527242Y-46834976D01*
X76659906Y-46905886D01*
X76675078Y-46913996D01*
X76804659Y-47020341D01*
X76911004Y-47149922D01*
X76911005Y-47149924D01*
X76990024Y-47297758D01*
X77038687Y-47458177D01*
X77055117Y-47625000D01*
X77038687Y-47791823D01*
X76990024Y-47952242D01*
X76919114Y-48084906D01*
X76911004Y-48100078D01*
X76804659Y-48229659D01*
X76675078Y-48336004D01*
X76675076Y-48336005D01*
X76527242Y-48415024D01*
X76366823Y-48463687D01*
X76241804Y-48476000D01*
X76158196Y-48476000D01*
X76033177Y-48463687D01*
X75872758Y-48415024D01*
X75724924Y-48336005D01*
X75724922Y-48336004D01*
X75595341Y-48229659D01*
X75488996Y-48100078D01*
X75480886Y-48084906D01*
X75409976Y-47952242D01*
X75361313Y-47791823D01*
X75344883Y-47625000D01*
X75361313Y-47458177D01*
X75409976Y-47297758D01*
X75488995Y-47149924D01*
X75488996Y-47149922D01*
X75595341Y-47020341D01*
X75724922Y-46913996D01*
X75740094Y-46905886D01*
X75872758Y-46834976D01*
X76033177Y-46786313D01*
X76158196Y-46774000D01*
X76241804Y-46774000D01*
X76366823Y-46786313D01*
X76366823Y-46786313D01*
G37*
G36*
X63666823Y-46786313D02*
G01*
X63827242Y-46834976D01*
X63959906Y-46905886D01*
X63975078Y-46913996D01*
X64104659Y-47020341D01*
X64211004Y-47149922D01*
X64211005Y-47149924D01*
X64290024Y-47297758D01*
X64338687Y-47458177D01*
X64355117Y-47625000D01*
X64338687Y-47791823D01*
X64290024Y-47952242D01*
X64219114Y-48084906D01*
X64211004Y-48100078D01*
X64104659Y-48229659D01*
X63975078Y-48336004D01*
X63975076Y-48336005D01*
X63827242Y-48415024D01*
X63666823Y-48463687D01*
X63541804Y-48476000D01*
X63458196Y-48476000D01*
X63333177Y-48463687D01*
X63172758Y-48415024D01*
X63024924Y-48336005D01*
X63024922Y-48336004D01*
X62895341Y-48229659D01*
X62788996Y-48100078D01*
X62780886Y-48084906D01*
X62709976Y-47952242D01*
X62661313Y-47791823D01*
X62644883Y-47625000D01*
X62661313Y-47458177D01*
X62709976Y-47297758D01*
X62788995Y-47149924D01*
X62788996Y-47149922D01*
X62895341Y-47020341D01*
X63024922Y-46913996D01*
X63040094Y-46905886D01*
X63172758Y-46834976D01*
X63333177Y-46786313D01*
X63458196Y-46774000D01*
X63541804Y-46774000D01*
X63666823Y-46786313D01*
X63666823Y-46786313D01*
G37*
G36*
X83939943Y-44182519D02*
G01*
X84006127Y-44189037D01*
X84175966Y-44240557D01*
X84332491Y-44324222D01*
X84368229Y-44353552D01*
X84469686Y-44436814D01*
X84552948Y-44538271D01*
X84582278Y-44574009D01*
X84665943Y-44730534D01*
X84717463Y-44900373D01*
X84734859Y-45077000D01*
X84717463Y-45253627D01*
X84665943Y-45423466D01*
X84582278Y-45579991D01*
X84552948Y-45615729D01*
X84469686Y-45717186D01*
X84373643Y-45796005D01*
X84332491Y-45829778D01*
X84175966Y-45913443D01*
X84006127Y-45964963D01*
X83939942Y-45971482D01*
X83873760Y-45978000D01*
X83785240Y-45978000D01*
X83719058Y-45971482D01*
X83652873Y-45964963D01*
X83483034Y-45913443D01*
X83326509Y-45829778D01*
X83285357Y-45796005D01*
X83189314Y-45717186D01*
X83106052Y-45615729D01*
X83076722Y-45579991D01*
X82993057Y-45423466D01*
X82941537Y-45253627D01*
X82924141Y-45077000D01*
X82941537Y-44900373D01*
X82993057Y-44730534D01*
X83076722Y-44574009D01*
X83106052Y-44538271D01*
X83189314Y-44436814D01*
X83290771Y-44353552D01*
X83326509Y-44324222D01*
X83483034Y-44240557D01*
X83652873Y-44189037D01*
X83719057Y-44182519D01*
X83785240Y-44176000D01*
X83873760Y-44176000D01*
X83939943Y-44182519D01*
X83939943Y-44182519D01*
G37*
G36*
X89810500Y-45978000D02*
G01*
X88008500Y-45978000D01*
X88008500Y-44176000D01*
X89810500Y-44176000D01*
X89810500Y-45978000D01*
X89810500Y-45978000D01*
G37*
G36*
X86479943Y-44182519D02*
G01*
X86546127Y-44189037D01*
X86715966Y-44240557D01*
X86872491Y-44324222D01*
X86908229Y-44353552D01*
X87009686Y-44436814D01*
X87092948Y-44538271D01*
X87122278Y-44574009D01*
X87205943Y-44730534D01*
X87257463Y-44900373D01*
X87274859Y-45077000D01*
X87257463Y-45253627D01*
X87205943Y-45423466D01*
X87122278Y-45579991D01*
X87092948Y-45615729D01*
X87009686Y-45717186D01*
X86913643Y-45796005D01*
X86872491Y-45829778D01*
X86715966Y-45913443D01*
X86546127Y-45964963D01*
X86479942Y-45971482D01*
X86413760Y-45978000D01*
X86325240Y-45978000D01*
X86259058Y-45971482D01*
X86192873Y-45964963D01*
X86023034Y-45913443D01*
X85866509Y-45829778D01*
X85825357Y-45796005D01*
X85729314Y-45717186D01*
X85646052Y-45615729D01*
X85616722Y-45579991D01*
X85533057Y-45423466D01*
X85481537Y-45253627D01*
X85464141Y-45077000D01*
X85481537Y-44900373D01*
X85533057Y-44730534D01*
X85616722Y-44574009D01*
X85646052Y-44538271D01*
X85729314Y-44436814D01*
X85830771Y-44353552D01*
X85866509Y-44324222D01*
X86023034Y-44240557D01*
X86192873Y-44189037D01*
X86259057Y-44182519D01*
X86325240Y-44176000D01*
X86413760Y-44176000D01*
X86479943Y-44182519D01*
X86479943Y-44182519D01*
G37*
G36*
X64351000Y-45936000D02*
G01*
X62649000Y-45936000D01*
X62649000Y-44234000D01*
X64351000Y-44234000D01*
X64351000Y-45936000D01*
X64351000Y-45936000D01*
G37*
G36*
X61811000Y-45936000D02*
G01*
X60109000Y-45936000D01*
X60109000Y-44234000D01*
X61811000Y-44234000D01*
X61811000Y-45936000D01*
X61811000Y-45936000D01*
G37*
G36*
X76366823Y-44246313D02*
G01*
X76527242Y-44294976D01*
X76581955Y-44324221D01*
X76675078Y-44373996D01*
X76804659Y-44480341D01*
X76911004Y-44609922D01*
X76911005Y-44609924D01*
X76990024Y-44757758D01*
X77038687Y-44918177D01*
X77055117Y-45085000D01*
X77038687Y-45251823D01*
X76990024Y-45412242D01*
X76919114Y-45544906D01*
X76911004Y-45560078D01*
X76804659Y-45689659D01*
X76675078Y-45796004D01*
X76675076Y-45796005D01*
X76527242Y-45875024D01*
X76366823Y-45923687D01*
X76241804Y-45936000D01*
X76158196Y-45936000D01*
X76033177Y-45923687D01*
X75872758Y-45875024D01*
X75724924Y-45796005D01*
X75724922Y-45796004D01*
X75595341Y-45689659D01*
X75488996Y-45560078D01*
X75480886Y-45544906D01*
X75409976Y-45412242D01*
X75361313Y-45251823D01*
X75344883Y-45085000D01*
X75361313Y-44918177D01*
X75409976Y-44757758D01*
X75488995Y-44609924D01*
X75488996Y-44609922D01*
X75595341Y-44480341D01*
X75724922Y-44373996D01*
X75818045Y-44324221D01*
X75872758Y-44294976D01*
X76033177Y-44246313D01*
X76158196Y-44234000D01*
X76241804Y-44234000D01*
X76366823Y-44246313D01*
X76366823Y-44246313D01*
G37*
G36*
X78906823Y-44246313D02*
G01*
X79067242Y-44294976D01*
X79121955Y-44324221D01*
X79215078Y-44373996D01*
X79344659Y-44480341D01*
X79451004Y-44609922D01*
X79451005Y-44609924D01*
X79530024Y-44757758D01*
X79578687Y-44918177D01*
X79595117Y-45085000D01*
X79578687Y-45251823D01*
X79530024Y-45412242D01*
X79459114Y-45544906D01*
X79451004Y-45560078D01*
X79344659Y-45689659D01*
X79215078Y-45796004D01*
X79215076Y-45796005D01*
X79067242Y-45875024D01*
X78906823Y-45923687D01*
X78781804Y-45936000D01*
X78698196Y-45936000D01*
X78573177Y-45923687D01*
X78412758Y-45875024D01*
X78264924Y-45796005D01*
X78264922Y-45796004D01*
X78135341Y-45689659D01*
X78028996Y-45560078D01*
X78020886Y-45544906D01*
X77949976Y-45412242D01*
X77901313Y-45251823D01*
X77884883Y-45085000D01*
X77901313Y-44918177D01*
X77949976Y-44757758D01*
X78028995Y-44609924D01*
X78028996Y-44609922D01*
X78135341Y-44480341D01*
X78264922Y-44373996D01*
X78358045Y-44324221D01*
X78412758Y-44294976D01*
X78573177Y-44246313D01*
X78698196Y-44234000D01*
X78781804Y-44234000D01*
X78906823Y-44246313D01*
X78906823Y-44246313D01*
G37*
M02*
