%FSLAX45Y45*%
G04 Gerber Fmt 4.5, Leading zero omitted, Abs format (unit mm)*
G04 Created by KiCad (PCBNEW (5.1.2)-1) date 2019-11-25 21:42:11*
%MOMM*%
%LPD*%
G04 APERTURE LIST*
%ADD10C,0.050000*%
%ADD11C,0.200000*%
%ADD12C,0.300000*%
G04 APERTURE END LIST*
D10*
X9588500Y-4349750D02*
X5988050Y-4349750D01*
X9588500Y-9493250D02*
X9588500Y-4349750D01*
X5988050Y-9493250D02*
X9588500Y-9493250D01*
X5988050Y-4349750D02*
X5988050Y-9493250D01*
D11*
X6843000Y-7097000D02*
X6873000Y-7127000D01*
X6873000Y-7097000D02*
X6843000Y-7127000D01*
X6843000Y-7351000D02*
X6873000Y-7381000D01*
X6873000Y-7351000D02*
X6843000Y-7381000D01*
X6843000Y-9129000D02*
X6873000Y-9159000D01*
X6873000Y-9129000D02*
X6843000Y-9159000D01*
X7033500Y-8684500D02*
X7063500Y-8714500D01*
X7063500Y-8684500D02*
X7033500Y-8714500D01*
X7160500Y-8557500D02*
X7190500Y-8587500D01*
X7190500Y-8557500D02*
X7160500Y-8587500D01*
X7224000Y-6716000D02*
X7254000Y-6746000D01*
X7254000Y-6716000D02*
X7224000Y-6746000D01*
X7224000Y-7605000D02*
X7254000Y-7635000D01*
X7254000Y-7605000D02*
X7224000Y-7635000D01*
X7287500Y-6398500D02*
X7317500Y-6428500D01*
X7317500Y-6398500D02*
X7287500Y-6428500D01*
X7414500Y-8176500D02*
X7444500Y-8206500D01*
X7444500Y-8176500D02*
X7414500Y-8206500D01*
X7418310Y-7777720D02*
X7448310Y-7807720D01*
X7448310Y-7777720D02*
X7418310Y-7807720D01*
X8176500Y-6881100D02*
X8206500Y-6911100D01*
X8206500Y-6881100D02*
X8176500Y-6911100D01*
X8176500Y-8303500D02*
X8206500Y-8333500D01*
X8206500Y-8303500D02*
X8176500Y-8333500D01*
X8303500Y-8621000D02*
X8333500Y-8651000D01*
X8333500Y-8621000D02*
X8303500Y-8651000D01*
X8341600Y-7262100D02*
X8371600Y-7292100D01*
X8371600Y-7262100D02*
X8341600Y-7292100D01*
X8367000Y-7795500D02*
X8397000Y-7825500D01*
X8397000Y-7795500D02*
X8367000Y-7825500D01*
X8367000Y-9065500D02*
X8397000Y-9095500D01*
X8397000Y-9065500D02*
X8367000Y-9095500D01*
X8367000Y-9319500D02*
X8397000Y-9349500D01*
X8397000Y-9319500D02*
X8367000Y-9349500D01*
X8621000Y-8684500D02*
X8651000Y-8714500D01*
X8651000Y-8684500D02*
X8621000Y-8714500D01*
X8684500Y-8113000D02*
X8714500Y-8143000D01*
X8714500Y-8113000D02*
X8684500Y-8143000D01*
X8873679Y-8242321D02*
X8903679Y-8272321D01*
X8903679Y-8242321D02*
X8873679Y-8272321D01*
X9002000Y-5382500D02*
X9032000Y-5412500D01*
X9032000Y-5382500D02*
X9002000Y-5412500D01*
X9041000Y-9191600D02*
X9071000Y-9221600D01*
X9071000Y-9191600D02*
X9041000Y-9221600D01*
X9071850Y-7890750D02*
X9101850Y-7920750D01*
X9101850Y-7890750D02*
X9071850Y-7920750D01*
X9192500Y-8462250D02*
X9222500Y-8492250D01*
X9222500Y-8462250D02*
X9192500Y-8492250D01*
X9446500Y-8449550D02*
X9476500Y-8479550D01*
X9476500Y-8449550D02*
X9446500Y-8479550D01*
X8172500Y-8064500D02*
G75*
G03X8172500Y-8064500I-20000J0D01*
G01*
X8318500Y-5167000D02*
X8318500Y-5247000D01*
X8278500Y-5207000D02*
X8358500Y-5207000D01*
X8572500Y-5167000D02*
X8572500Y-5247000D01*
X8532500Y-5207000D02*
X8612500Y-5207000D01*
X8826500Y-5167000D02*
X8826500Y-5247000D01*
X8786500Y-5207000D02*
X8866500Y-5207000D01*
X9398000Y-4786000D02*
X9398000Y-4866000D01*
X9358000Y-4826000D02*
X9438000Y-4826000D01*
X9398000Y-5548000D02*
X9398000Y-5628000D01*
X9358000Y-5588000D02*
X9438000Y-5588000D01*
X8318500Y-5802000D02*
X8318500Y-5882000D01*
X8278500Y-5842000D02*
X8358500Y-5842000D01*
X8572500Y-5802000D02*
X8572500Y-5882000D01*
X8532500Y-5842000D02*
X8612500Y-5842000D01*
X8826500Y-5802000D02*
X8826500Y-5882000D01*
X8786500Y-5842000D02*
X8866500Y-5842000D01*
X8318500Y-6437000D02*
X8318500Y-6517000D01*
X8278500Y-6477000D02*
X8358500Y-6477000D01*
X8572500Y-6437000D02*
X8572500Y-6517000D01*
X8532500Y-6477000D02*
X8612500Y-6477000D01*
X8826500Y-6437000D02*
X8826500Y-6517000D01*
X8786500Y-6477000D02*
X8866500Y-6477000D01*
X6096000Y-4468500D02*
X6096000Y-4548500D01*
X6056000Y-4508500D02*
X6136000Y-4508500D01*
X6096000Y-4722500D02*
X6096000Y-4802500D01*
X6056000Y-4762500D02*
X6136000Y-4762500D01*
X6096000Y-4976500D02*
X6096000Y-5056500D01*
X6056000Y-5016500D02*
X6136000Y-5016500D01*
X6096000Y-5230500D02*
X6096000Y-5310500D01*
X6056000Y-5270500D02*
X6136000Y-5270500D01*
X6096000Y-5484500D02*
X6096000Y-5564500D01*
X6056000Y-5524500D02*
X6136000Y-5524500D01*
X6096000Y-5738500D02*
X6096000Y-5818500D01*
X6056000Y-5778500D02*
X6136000Y-5778500D01*
X6096000Y-5992500D02*
X6096000Y-6072500D01*
X6056000Y-6032500D02*
X6136000Y-6032500D01*
X6096000Y-6246500D02*
X6096000Y-6326500D01*
X6056000Y-6286500D02*
X6136000Y-6286500D01*
X6096000Y-6500500D02*
X6096000Y-6580500D01*
X6056000Y-6540500D02*
X6136000Y-6540500D01*
X6096000Y-6754500D02*
X6096000Y-6834500D01*
X6056000Y-6794500D02*
X6136000Y-6794500D01*
X6096000Y-7008500D02*
X6096000Y-7088500D01*
X6056000Y-7048500D02*
X6136000Y-7048500D01*
X6096000Y-7262500D02*
X6096000Y-7342500D01*
X6056000Y-7302500D02*
X6136000Y-7302500D01*
X6096000Y-7516500D02*
X6096000Y-7596500D01*
X6056000Y-7556500D02*
X6136000Y-7556500D01*
X6096000Y-7770500D02*
X6096000Y-7850500D01*
X6056000Y-7810500D02*
X6136000Y-7810500D01*
X6096000Y-8024500D02*
X6096000Y-8104500D01*
X6056000Y-8064500D02*
X6136000Y-8064500D01*
X6096000Y-8278500D02*
X6096000Y-8358500D01*
X6056000Y-8318500D02*
X6136000Y-8318500D01*
X6096000Y-8532500D02*
X6096000Y-8612500D01*
X6056000Y-8572500D02*
X6136000Y-8572500D01*
X6096000Y-8786500D02*
X6096000Y-8866500D01*
X6056000Y-8826500D02*
X6136000Y-8826500D01*
X6096000Y-9040500D02*
X6096000Y-9120500D01*
X6056000Y-9080500D02*
X6136000Y-9080500D01*
X6096000Y-9294500D02*
X6096000Y-9374500D01*
X6056000Y-9334500D02*
X6136000Y-9334500D01*
X7620000Y-4468500D02*
X7620000Y-4548500D01*
X7580000Y-4508500D02*
X7660000Y-4508500D01*
X7620000Y-4722500D02*
X7620000Y-4802500D01*
X7580000Y-4762500D02*
X7660000Y-4762500D01*
X7620000Y-4976500D02*
X7620000Y-5056500D01*
X7580000Y-5016500D02*
X7660000Y-5016500D01*
X7620000Y-5230500D02*
X7620000Y-5310500D01*
X7580000Y-5270500D02*
X7660000Y-5270500D01*
X7620000Y-5484500D02*
X7620000Y-5564500D01*
X7580000Y-5524500D02*
X7660000Y-5524500D01*
X7620000Y-5738500D02*
X7620000Y-5818500D01*
X7580000Y-5778500D02*
X7660000Y-5778500D01*
X7620000Y-5992500D02*
X7620000Y-6072500D01*
X7580000Y-6032500D02*
X7660000Y-6032500D01*
X7620000Y-6246500D02*
X7620000Y-6326500D01*
X7580000Y-6286500D02*
X7660000Y-6286500D01*
X7620000Y-6500500D02*
X7620000Y-6580500D01*
X7580000Y-6540500D02*
X7660000Y-6540500D01*
X7620000Y-6754500D02*
X7620000Y-6834500D01*
X7580000Y-6794500D02*
X7660000Y-6794500D01*
X7620000Y-7008500D02*
X7620000Y-7088500D01*
X7580000Y-7048500D02*
X7660000Y-7048500D01*
X7620000Y-7262500D02*
X7620000Y-7342500D01*
X7580000Y-7302500D02*
X7660000Y-7302500D01*
X7620000Y-7516500D02*
X7620000Y-7596500D01*
X7580000Y-7556500D02*
X7660000Y-7556500D01*
X7620000Y-7770500D02*
X7620000Y-7850500D01*
X7580000Y-7810500D02*
X7660000Y-7810500D01*
X7620000Y-8024500D02*
X7620000Y-8104500D01*
X7580000Y-8064500D02*
X7660000Y-8064500D01*
X7620000Y-8278500D02*
X7620000Y-8358500D01*
X7580000Y-8318500D02*
X7660000Y-8318500D01*
X7620000Y-8532500D02*
X7620000Y-8612500D01*
X7580000Y-8572500D02*
X7660000Y-8572500D01*
X7620000Y-8786500D02*
X7620000Y-8866500D01*
X7580000Y-8826500D02*
X7660000Y-8826500D01*
X7620000Y-9040500D02*
X7620000Y-9120500D01*
X7580000Y-9080500D02*
X7660000Y-9080500D01*
X7620000Y-9294500D02*
X7620000Y-9374500D01*
X7580000Y-9334500D02*
X7660000Y-9334500D01*
X6350000Y-4468500D02*
X6350000Y-4548500D01*
X6310000Y-4508500D02*
X6390000Y-4508500D01*
X6350000Y-4722500D02*
X6350000Y-4802500D01*
X6310000Y-4762500D02*
X6390000Y-4762500D01*
X6350000Y-4976500D02*
X6350000Y-5056500D01*
X6310000Y-5016500D02*
X6390000Y-5016500D01*
X6350000Y-5230500D02*
X6350000Y-5310500D01*
X6310000Y-5270500D02*
X6390000Y-5270500D01*
X6350000Y-5484500D02*
X6350000Y-5564500D01*
X6310000Y-5524500D02*
X6390000Y-5524500D01*
X6350000Y-5738500D02*
X6350000Y-5818500D01*
X6310000Y-5778500D02*
X6390000Y-5778500D01*
X6350000Y-5992500D02*
X6350000Y-6072500D01*
X6310000Y-6032500D02*
X6390000Y-6032500D01*
X6350000Y-6246500D02*
X6350000Y-6326500D01*
X6310000Y-6286500D02*
X6390000Y-6286500D01*
X6350000Y-6500500D02*
X6350000Y-6580500D01*
X6310000Y-6540500D02*
X6390000Y-6540500D01*
X6350000Y-6754500D02*
X6350000Y-6834500D01*
X6310000Y-6794500D02*
X6390000Y-6794500D01*
X6350000Y-7008500D02*
X6350000Y-7088500D01*
X6310000Y-7048500D02*
X6390000Y-7048500D01*
X6350000Y-7262500D02*
X6350000Y-7342500D01*
X6310000Y-7302500D02*
X6390000Y-7302500D01*
X6350000Y-7516500D02*
X6350000Y-7596500D01*
X6310000Y-7556500D02*
X6390000Y-7556500D01*
X6350000Y-7770500D02*
X6350000Y-7850500D01*
X6310000Y-7810500D02*
X6390000Y-7810500D01*
X6350000Y-8024500D02*
X6350000Y-8104500D01*
X6310000Y-8064500D02*
X6390000Y-8064500D01*
X6350000Y-8278500D02*
X6350000Y-8358500D01*
X6310000Y-8318500D02*
X6390000Y-8318500D01*
X6350000Y-8532500D02*
X6350000Y-8612500D01*
X6310000Y-8572500D02*
X6390000Y-8572500D01*
X6350000Y-8786500D02*
X6350000Y-8866500D01*
X6310000Y-8826500D02*
X6390000Y-8826500D01*
X6350000Y-9040500D02*
X6350000Y-9120500D01*
X6310000Y-9080500D02*
X6390000Y-9080500D01*
X6350000Y-9294500D02*
X6350000Y-9374500D01*
X6310000Y-9334500D02*
X6390000Y-9334500D01*
X7874000Y-4468500D02*
X7874000Y-4548500D01*
X7834000Y-4508500D02*
X7914000Y-4508500D01*
X7874000Y-4722500D02*
X7874000Y-4802500D01*
X7834000Y-4762500D02*
X7914000Y-4762500D01*
X7874000Y-4976500D02*
X7874000Y-5056500D01*
X7834000Y-5016500D02*
X7914000Y-5016500D01*
X7874000Y-5230500D02*
X7874000Y-5310500D01*
X7834000Y-5270500D02*
X7914000Y-5270500D01*
X7874000Y-5484500D02*
X7874000Y-5564500D01*
X7834000Y-5524500D02*
X7914000Y-5524500D01*
X7874000Y-5738500D02*
X7874000Y-5818500D01*
X7834000Y-5778500D02*
X7914000Y-5778500D01*
X7874000Y-5992500D02*
X7874000Y-6072500D01*
X7834000Y-6032500D02*
X7914000Y-6032500D01*
X7874000Y-6246500D02*
X7874000Y-6326500D01*
X7834000Y-6286500D02*
X7914000Y-6286500D01*
X7874000Y-6500500D02*
X7874000Y-6580500D01*
X7834000Y-6540500D02*
X7914000Y-6540500D01*
X7874000Y-6754500D02*
X7874000Y-6834500D01*
X7834000Y-6794500D02*
X7914000Y-6794500D01*
X7874000Y-7008500D02*
X7874000Y-7088500D01*
X7834000Y-7048500D02*
X7914000Y-7048500D01*
X7874000Y-7262500D02*
X7874000Y-7342500D01*
X7834000Y-7302500D02*
X7914000Y-7302500D01*
X7874000Y-7516500D02*
X7874000Y-7596500D01*
X7834000Y-7556500D02*
X7914000Y-7556500D01*
X7874000Y-7770500D02*
X7874000Y-7850500D01*
X7834000Y-7810500D02*
X7914000Y-7810500D01*
X7874000Y-8024500D02*
X7874000Y-8104500D01*
X7834000Y-8064500D02*
X7914000Y-8064500D01*
X7874000Y-8278500D02*
X7874000Y-8358500D01*
X7834000Y-8318500D02*
X7914000Y-8318500D01*
X7874000Y-8532500D02*
X7874000Y-8612500D01*
X7834000Y-8572500D02*
X7914000Y-8572500D01*
X7874000Y-8786500D02*
X7874000Y-8866500D01*
X7834000Y-8826500D02*
X7914000Y-8826500D01*
X7874000Y-9040500D02*
X7874000Y-9120500D01*
X7834000Y-9080500D02*
X7914000Y-9080500D01*
X7874000Y-9294500D02*
X7874000Y-9374500D01*
X7834000Y-9334500D02*
X7914000Y-9334500D01*
X9398000Y-5802000D02*
X9398000Y-5882000D01*
X9358000Y-5842000D02*
X9438000Y-5842000D01*
X9398000Y-6564000D02*
X9398000Y-6644000D01*
X9358000Y-6604000D02*
X9438000Y-6604000D01*
X8318500Y-7072000D02*
X8318500Y-7152000D01*
X8278500Y-7112000D02*
X8358500Y-7112000D01*
X8572500Y-7072000D02*
X8572500Y-7152000D01*
X8532500Y-7112000D02*
X8612500Y-7112000D01*
X8826500Y-7072000D02*
X8826500Y-7152000D01*
X8786500Y-7112000D02*
X8866500Y-7112000D01*
X9398000Y-6818000D02*
X9398000Y-6898000D01*
X9358000Y-6858000D02*
X9438000Y-6858000D01*
X9398000Y-7580000D02*
X9398000Y-7660000D01*
X9358000Y-7620000D02*
X9438000Y-7620000D01*
X8418306Y-4543056D02*
X8418306Y-4472344D01*
X8347594Y-4472344D01*
X8347594Y-4543056D01*
X8418306Y-4543056D01*
X8672306Y-4543056D02*
X8672306Y-4472344D01*
X8601594Y-4472344D01*
X8601594Y-4543056D01*
X8672306Y-4543056D01*
X8926306Y-4543056D02*
X8926306Y-4472344D01*
X8855594Y-4472344D01*
X8855594Y-4543056D01*
X8926306Y-4543056D01*
D12*
X6271978Y-9961464D02*
X6271978Y-9661464D01*
X6343407Y-9661464D01*
X6386264Y-9675750D01*
X6414836Y-9704322D01*
X6429121Y-9732893D01*
X6443407Y-9790036D01*
X6443407Y-9832893D01*
X6429121Y-9890036D01*
X6414836Y-9918607D01*
X6386264Y-9947179D01*
X6343407Y-9961464D01*
X6271978Y-9961464D01*
X6571978Y-9961464D02*
X6571978Y-9761464D01*
X6571978Y-9818607D02*
X6586264Y-9790036D01*
X6600550Y-9775750D01*
X6629121Y-9761464D01*
X6657693Y-9761464D01*
X6757693Y-9961464D02*
X6757693Y-9761464D01*
X6757693Y-9661464D02*
X6743407Y-9675750D01*
X6757693Y-9690036D01*
X6771978Y-9675750D01*
X6757693Y-9661464D01*
X6757693Y-9690036D01*
X6943407Y-9961464D02*
X6914836Y-9947179D01*
X6900550Y-9918607D01*
X6900550Y-9661464D01*
X7100550Y-9961464D02*
X7071978Y-9947179D01*
X7057693Y-9918607D01*
X7057693Y-9661464D01*
X7443407Y-9961464D02*
X7443407Y-9661464D01*
X7543407Y-9875750D01*
X7643407Y-9661464D01*
X7643407Y-9961464D01*
X7914836Y-9961464D02*
X7914836Y-9804322D01*
X7900550Y-9775750D01*
X7871978Y-9761464D01*
X7814836Y-9761464D01*
X7786264Y-9775750D01*
X7914836Y-9947179D02*
X7886264Y-9961464D01*
X7814836Y-9961464D01*
X7786264Y-9947179D01*
X7771978Y-9918607D01*
X7771978Y-9890036D01*
X7786264Y-9861464D01*
X7814836Y-9847179D01*
X7886264Y-9847179D01*
X7914836Y-9832893D01*
X8057693Y-9761464D02*
X8057693Y-10061464D01*
X8057693Y-9775750D02*
X8086264Y-9761464D01*
X8143407Y-9761464D01*
X8171978Y-9775750D01*
X8186264Y-9790036D01*
X8200550Y-9818607D01*
X8200550Y-9904322D01*
X8186264Y-9932893D01*
X8171978Y-9947179D01*
X8143407Y-9961464D01*
X8086264Y-9961464D01*
X8057693Y-9947179D01*
X8329121Y-9932893D02*
X8343407Y-9947179D01*
X8329121Y-9961464D01*
X8314836Y-9947179D01*
X8329121Y-9932893D01*
X8329121Y-9961464D01*
X8329121Y-9775750D02*
X8343407Y-9790036D01*
X8329121Y-9804322D01*
X8314836Y-9790036D01*
X8329121Y-9775750D01*
X8329121Y-9804322D01*
X5955550Y-10440750D02*
X5985550Y-10470750D01*
X5985550Y-10440750D02*
X5955550Y-10470750D01*
X6329121Y-10291464D02*
X6357693Y-10291464D01*
X6386264Y-10305750D01*
X6400550Y-10320036D01*
X6414836Y-10348607D01*
X6429121Y-10405750D01*
X6429121Y-10477179D01*
X6414836Y-10534322D01*
X6400550Y-10562893D01*
X6386264Y-10577179D01*
X6357693Y-10591464D01*
X6329121Y-10591464D01*
X6300550Y-10577179D01*
X6286264Y-10562893D01*
X6271978Y-10534322D01*
X6257693Y-10477179D01*
X6257693Y-10405750D01*
X6271978Y-10348607D01*
X6286264Y-10320036D01*
X6300550Y-10305750D01*
X6329121Y-10291464D01*
X6557693Y-10562893D02*
X6571978Y-10577179D01*
X6557693Y-10591464D01*
X6543407Y-10577179D01*
X6557693Y-10562893D01*
X6557693Y-10591464D01*
X6671978Y-10291464D02*
X6857693Y-10291464D01*
X6757693Y-10405750D01*
X6800550Y-10405750D01*
X6829121Y-10420036D01*
X6843407Y-10434322D01*
X6857693Y-10462893D01*
X6857693Y-10534322D01*
X6843407Y-10562893D01*
X6829121Y-10577179D01*
X6800550Y-10591464D01*
X6714836Y-10591464D01*
X6686264Y-10577179D01*
X6671978Y-10562893D01*
X7043407Y-10291464D02*
X7071978Y-10291464D01*
X7100550Y-10305750D01*
X7114836Y-10320036D01*
X7129121Y-10348607D01*
X7143407Y-10405750D01*
X7143407Y-10477179D01*
X7129121Y-10534322D01*
X7114836Y-10562893D01*
X7100550Y-10577179D01*
X7071978Y-10591464D01*
X7043407Y-10591464D01*
X7014836Y-10577179D01*
X7000550Y-10562893D01*
X6986264Y-10534322D01*
X6971978Y-10477179D01*
X6971978Y-10405750D01*
X6986264Y-10348607D01*
X7000550Y-10320036D01*
X7014836Y-10305750D01*
X7043407Y-10291464D01*
X7271978Y-10591464D02*
X7271978Y-10391464D01*
X7271978Y-10420036D02*
X7286264Y-10405750D01*
X7314836Y-10391464D01*
X7357693Y-10391464D01*
X7386264Y-10405750D01*
X7400550Y-10434322D01*
X7400550Y-10591464D01*
X7400550Y-10434322D02*
X7414836Y-10405750D01*
X7443407Y-10391464D01*
X7486264Y-10391464D01*
X7514836Y-10405750D01*
X7529121Y-10434322D01*
X7529121Y-10591464D01*
X7671978Y-10591464D02*
X7671978Y-10391464D01*
X7671978Y-10420036D02*
X7686264Y-10405750D01*
X7714836Y-10391464D01*
X7757693Y-10391464D01*
X7786264Y-10405750D01*
X7800550Y-10434322D01*
X7800550Y-10591464D01*
X7800550Y-10434322D02*
X7814836Y-10405750D01*
X7843407Y-10391464D01*
X7886264Y-10391464D01*
X7914836Y-10405750D01*
X7929121Y-10434322D01*
X7929121Y-10591464D01*
X8514836Y-10277179D02*
X8257693Y-10662893D01*
X8900550Y-10291464D02*
X8929121Y-10291464D01*
X8957693Y-10305750D01*
X8971978Y-10320036D01*
X8986264Y-10348607D01*
X9000550Y-10405750D01*
X9000550Y-10477179D01*
X8986264Y-10534322D01*
X8971978Y-10562893D01*
X8957693Y-10577179D01*
X8929121Y-10591464D01*
X8900550Y-10591464D01*
X8871978Y-10577179D01*
X8857693Y-10562893D01*
X8843407Y-10534322D01*
X8829121Y-10477179D01*
X8829121Y-10405750D01*
X8843407Y-10348607D01*
X8857693Y-10320036D01*
X8871978Y-10305750D01*
X8900550Y-10291464D01*
X9129121Y-10562893D02*
X9143407Y-10577179D01*
X9129121Y-10591464D01*
X9114836Y-10577179D01*
X9129121Y-10562893D01*
X9129121Y-10591464D01*
X9329121Y-10291464D02*
X9357693Y-10291464D01*
X9386264Y-10305750D01*
X9400550Y-10320036D01*
X9414836Y-10348607D01*
X9429121Y-10405750D01*
X9429121Y-10477179D01*
X9414836Y-10534322D01*
X9400550Y-10562893D01*
X9386264Y-10577179D01*
X9357693Y-10591464D01*
X9329121Y-10591464D01*
X9300550Y-10577179D01*
X9286264Y-10562893D01*
X9271978Y-10534322D01*
X9257693Y-10477179D01*
X9257693Y-10405750D01*
X9271978Y-10348607D01*
X9286264Y-10320036D01*
X9300550Y-10305750D01*
X9329121Y-10291464D01*
X9714836Y-10591464D02*
X9543407Y-10591464D01*
X9629121Y-10591464D02*
X9629121Y-10291464D01*
X9600550Y-10334322D01*
X9571978Y-10362893D01*
X9543407Y-10377179D01*
X9829121Y-10320036D02*
X9843407Y-10305750D01*
X9871978Y-10291464D01*
X9943407Y-10291464D01*
X9971978Y-10305750D01*
X9986264Y-10320036D01*
X10000550Y-10348607D01*
X10000550Y-10377179D01*
X9986264Y-10420036D01*
X9814836Y-10591464D01*
X10000550Y-10591464D01*
X10114836Y-10291464D02*
X10114836Y-10348607D01*
X10229121Y-10291464D02*
X10229121Y-10348607D01*
X10671978Y-10705750D02*
X10657693Y-10691464D01*
X10629121Y-10648607D01*
X10614836Y-10620036D01*
X10600550Y-10577179D01*
X10586264Y-10505750D01*
X10586264Y-10448607D01*
X10600550Y-10377179D01*
X10614836Y-10334322D01*
X10629121Y-10305750D01*
X10657693Y-10262893D01*
X10671978Y-10248607D01*
X10771978Y-10320036D02*
X10786264Y-10305750D01*
X10814836Y-10291464D01*
X10886264Y-10291464D01*
X10914836Y-10305750D01*
X10929121Y-10320036D01*
X10943407Y-10348607D01*
X10943407Y-10377179D01*
X10929121Y-10420036D01*
X10757693Y-10591464D01*
X10943407Y-10591464D01*
X11214836Y-10291464D02*
X11071978Y-10291464D01*
X11057693Y-10434322D01*
X11071978Y-10420036D01*
X11100550Y-10405750D01*
X11171978Y-10405750D01*
X11200550Y-10420036D01*
X11214836Y-10434322D01*
X11229121Y-10462893D01*
X11229121Y-10534322D01*
X11214836Y-10562893D01*
X11200550Y-10577179D01*
X11171978Y-10591464D01*
X11100550Y-10591464D01*
X11071978Y-10577179D01*
X11057693Y-10562893D01*
X11586264Y-10591464D02*
X11586264Y-10291464D01*
X11714836Y-10591464D02*
X11714836Y-10434322D01*
X11700550Y-10405750D01*
X11671978Y-10391464D01*
X11629121Y-10391464D01*
X11600550Y-10405750D01*
X11586264Y-10420036D01*
X11900550Y-10591464D02*
X11871978Y-10577179D01*
X11857693Y-10562893D01*
X11843407Y-10534322D01*
X11843407Y-10448607D01*
X11857693Y-10420036D01*
X11871978Y-10405750D01*
X11900550Y-10391464D01*
X11943407Y-10391464D01*
X11971978Y-10405750D01*
X11986264Y-10420036D01*
X12000550Y-10448607D01*
X12000550Y-10534322D01*
X11986264Y-10562893D01*
X11971978Y-10577179D01*
X11943407Y-10591464D01*
X11900550Y-10591464D01*
X12171978Y-10591464D02*
X12143407Y-10577179D01*
X12129121Y-10548607D01*
X12129121Y-10291464D01*
X12400550Y-10577179D02*
X12371978Y-10591464D01*
X12314836Y-10591464D01*
X12286264Y-10577179D01*
X12271978Y-10548607D01*
X12271978Y-10434322D01*
X12286264Y-10405750D01*
X12314836Y-10391464D01*
X12371978Y-10391464D01*
X12400550Y-10405750D01*
X12414836Y-10434322D01*
X12414836Y-10462893D01*
X12271978Y-10491464D01*
X12529121Y-10577179D02*
X12557693Y-10591464D01*
X12614836Y-10591464D01*
X12643407Y-10577179D01*
X12657693Y-10548607D01*
X12657693Y-10534322D01*
X12643407Y-10505750D01*
X12614836Y-10491464D01*
X12571978Y-10491464D01*
X12543407Y-10477179D01*
X12529121Y-10448607D01*
X12529121Y-10434322D01*
X12543407Y-10405750D01*
X12571978Y-10391464D01*
X12614836Y-10391464D01*
X12643407Y-10405750D01*
X12757693Y-10705750D02*
X12771978Y-10691464D01*
X12800550Y-10648607D01*
X12814836Y-10620036D01*
X12829121Y-10577179D01*
X12843407Y-10505750D01*
X12843407Y-10448607D01*
X12829121Y-10377179D01*
X12814836Y-10334322D01*
X12800550Y-10305750D01*
X12771978Y-10262893D01*
X12757693Y-10248607D01*
X5985550Y-10851750D02*
G75*
G03X5985550Y-10851750I-20000J0D01*
G01*
X6329121Y-10687464D02*
X6357693Y-10687464D01*
X6386264Y-10701750D01*
X6400550Y-10716036D01*
X6414836Y-10744607D01*
X6429121Y-10801750D01*
X6429121Y-10873179D01*
X6414836Y-10930322D01*
X6400550Y-10958893D01*
X6386264Y-10973179D01*
X6357693Y-10987464D01*
X6329121Y-10987464D01*
X6300550Y-10973179D01*
X6286264Y-10958893D01*
X6271978Y-10930322D01*
X6257693Y-10873179D01*
X6257693Y-10801750D01*
X6271978Y-10744607D01*
X6286264Y-10716036D01*
X6300550Y-10701750D01*
X6329121Y-10687464D01*
X6557693Y-10958893D02*
X6571978Y-10973179D01*
X6557693Y-10987464D01*
X6543407Y-10973179D01*
X6557693Y-10958893D01*
X6557693Y-10987464D01*
X6829121Y-10787464D02*
X6829121Y-10987464D01*
X6757693Y-10673179D02*
X6686264Y-10887464D01*
X6871978Y-10887464D01*
X7043407Y-10687464D02*
X7071978Y-10687464D01*
X7100550Y-10701750D01*
X7114836Y-10716036D01*
X7129121Y-10744607D01*
X7143407Y-10801750D01*
X7143407Y-10873179D01*
X7129121Y-10930322D01*
X7114836Y-10958893D01*
X7100550Y-10973179D01*
X7071978Y-10987464D01*
X7043407Y-10987464D01*
X7014836Y-10973179D01*
X7000550Y-10958893D01*
X6986264Y-10930322D01*
X6971978Y-10873179D01*
X6971978Y-10801750D01*
X6986264Y-10744607D01*
X7000550Y-10716036D01*
X7014836Y-10701750D01*
X7043407Y-10687464D01*
X7271978Y-10987464D02*
X7271978Y-10787464D01*
X7271978Y-10816036D02*
X7286264Y-10801750D01*
X7314836Y-10787464D01*
X7357693Y-10787464D01*
X7386264Y-10801750D01*
X7400550Y-10830322D01*
X7400550Y-10987464D01*
X7400550Y-10830322D02*
X7414836Y-10801750D01*
X7443407Y-10787464D01*
X7486264Y-10787464D01*
X7514836Y-10801750D01*
X7529121Y-10830322D01*
X7529121Y-10987464D01*
X7671978Y-10987464D02*
X7671978Y-10787464D01*
X7671978Y-10816036D02*
X7686264Y-10801750D01*
X7714836Y-10787464D01*
X7757693Y-10787464D01*
X7786264Y-10801750D01*
X7800550Y-10830322D01*
X7800550Y-10987464D01*
X7800550Y-10830322D02*
X7814836Y-10801750D01*
X7843407Y-10787464D01*
X7886264Y-10787464D01*
X7914836Y-10801750D01*
X7929121Y-10830322D01*
X7929121Y-10987464D01*
X8514836Y-10673179D02*
X8257693Y-11058893D01*
X8900550Y-10687464D02*
X8929121Y-10687464D01*
X8957693Y-10701750D01*
X8971978Y-10716036D01*
X8986264Y-10744607D01*
X9000550Y-10801750D01*
X9000550Y-10873179D01*
X8986264Y-10930322D01*
X8971978Y-10958893D01*
X8957693Y-10973179D01*
X8929121Y-10987464D01*
X8900550Y-10987464D01*
X8871978Y-10973179D01*
X8857693Y-10958893D01*
X8843407Y-10930322D01*
X8829121Y-10873179D01*
X8829121Y-10801750D01*
X8843407Y-10744607D01*
X8857693Y-10716036D01*
X8871978Y-10701750D01*
X8900550Y-10687464D01*
X9129121Y-10958893D02*
X9143407Y-10973179D01*
X9129121Y-10987464D01*
X9114836Y-10973179D01*
X9129121Y-10958893D01*
X9129121Y-10987464D01*
X9329121Y-10687464D02*
X9357693Y-10687464D01*
X9386264Y-10701750D01*
X9400550Y-10716036D01*
X9414836Y-10744607D01*
X9429121Y-10801750D01*
X9429121Y-10873179D01*
X9414836Y-10930322D01*
X9400550Y-10958893D01*
X9386264Y-10973179D01*
X9357693Y-10987464D01*
X9329121Y-10987464D01*
X9300550Y-10973179D01*
X9286264Y-10958893D01*
X9271978Y-10930322D01*
X9257693Y-10873179D01*
X9257693Y-10801750D01*
X9271978Y-10744607D01*
X9286264Y-10716036D01*
X9300550Y-10701750D01*
X9329121Y-10687464D01*
X9714836Y-10987464D02*
X9543407Y-10987464D01*
X9629121Y-10987464D02*
X9629121Y-10687464D01*
X9600550Y-10730322D01*
X9571978Y-10758893D01*
X9543407Y-10773179D01*
X9971978Y-10687464D02*
X9914836Y-10687464D01*
X9886264Y-10701750D01*
X9871978Y-10716036D01*
X9843407Y-10758893D01*
X9829121Y-10816036D01*
X9829121Y-10930322D01*
X9843407Y-10958893D01*
X9857693Y-10973179D01*
X9886264Y-10987464D01*
X9943407Y-10987464D01*
X9971978Y-10973179D01*
X9986264Y-10958893D01*
X10000550Y-10930322D01*
X10000550Y-10858893D01*
X9986264Y-10830322D01*
X9971978Y-10816036D01*
X9943407Y-10801750D01*
X9886264Y-10801750D01*
X9857693Y-10816036D01*
X9843407Y-10830322D01*
X9829121Y-10858893D01*
X10114836Y-10687464D02*
X10114836Y-10744607D01*
X10229121Y-10687464D02*
X10229121Y-10744607D01*
X10671978Y-11101750D02*
X10657693Y-11087464D01*
X10629121Y-11044607D01*
X10614836Y-11016036D01*
X10600550Y-10973179D01*
X10586264Y-10901750D01*
X10586264Y-10844607D01*
X10600550Y-10773179D01*
X10614836Y-10730322D01*
X10629121Y-10701750D01*
X10657693Y-10658893D01*
X10671978Y-10644607D01*
X10943407Y-10987464D02*
X10771978Y-10987464D01*
X10857693Y-10987464D02*
X10857693Y-10687464D01*
X10829121Y-10730322D01*
X10800550Y-10758893D01*
X10771978Y-10773179D01*
X11300550Y-10987464D02*
X11300550Y-10687464D01*
X11429121Y-10987464D02*
X11429121Y-10830322D01*
X11414836Y-10801750D01*
X11386264Y-10787464D01*
X11343407Y-10787464D01*
X11314836Y-10801750D01*
X11300550Y-10816036D01*
X11614836Y-10987464D02*
X11586264Y-10973179D01*
X11571978Y-10958893D01*
X11557693Y-10930322D01*
X11557693Y-10844607D01*
X11571978Y-10816036D01*
X11586264Y-10801750D01*
X11614836Y-10787464D01*
X11657693Y-10787464D01*
X11686264Y-10801750D01*
X11700550Y-10816036D01*
X11714836Y-10844607D01*
X11714836Y-10930322D01*
X11700550Y-10958893D01*
X11686264Y-10973179D01*
X11657693Y-10987464D01*
X11614836Y-10987464D01*
X11886264Y-10987464D02*
X11857693Y-10973179D01*
X11843407Y-10944607D01*
X11843407Y-10687464D01*
X12114836Y-10973179D02*
X12086264Y-10987464D01*
X12029121Y-10987464D01*
X12000550Y-10973179D01*
X11986264Y-10944607D01*
X11986264Y-10830322D01*
X12000550Y-10801750D01*
X12029121Y-10787464D01*
X12086264Y-10787464D01*
X12114836Y-10801750D01*
X12129121Y-10830322D01*
X12129121Y-10858893D01*
X11986264Y-10887464D01*
X12229121Y-11101750D02*
X12243407Y-11087464D01*
X12271978Y-11044607D01*
X12286264Y-11016036D01*
X12300550Y-10973179D01*
X12314836Y-10901750D01*
X12314836Y-10844607D01*
X12300550Y-10773179D01*
X12286264Y-10730322D01*
X12271978Y-10701750D01*
X12243407Y-10658893D01*
X12229121Y-10644607D01*
X5945550Y-11207750D02*
X5945550Y-11287750D01*
X5905550Y-11247750D02*
X5985550Y-11247750D01*
X6329121Y-11083464D02*
X6357693Y-11083464D01*
X6386264Y-11097750D01*
X6400550Y-11112036D01*
X6414836Y-11140607D01*
X6429121Y-11197750D01*
X6429121Y-11269179D01*
X6414836Y-11326321D01*
X6400550Y-11354893D01*
X6386264Y-11369179D01*
X6357693Y-11383464D01*
X6329121Y-11383464D01*
X6300550Y-11369179D01*
X6286264Y-11354893D01*
X6271978Y-11326321D01*
X6257693Y-11269179D01*
X6257693Y-11197750D01*
X6271978Y-11140607D01*
X6286264Y-11112036D01*
X6300550Y-11097750D01*
X6329121Y-11083464D01*
X6557693Y-11354893D02*
X6571978Y-11369179D01*
X6557693Y-11383464D01*
X6543407Y-11369179D01*
X6557693Y-11354893D01*
X6557693Y-11383464D01*
X6743407Y-11212036D02*
X6714836Y-11197750D01*
X6700550Y-11183464D01*
X6686264Y-11154893D01*
X6686264Y-11140607D01*
X6700550Y-11112036D01*
X6714836Y-11097750D01*
X6743407Y-11083464D01*
X6800550Y-11083464D01*
X6829121Y-11097750D01*
X6843407Y-11112036D01*
X6857693Y-11140607D01*
X6857693Y-11154893D01*
X6843407Y-11183464D01*
X6829121Y-11197750D01*
X6800550Y-11212036D01*
X6743407Y-11212036D01*
X6714836Y-11226321D01*
X6700550Y-11240607D01*
X6686264Y-11269179D01*
X6686264Y-11326321D01*
X6700550Y-11354893D01*
X6714836Y-11369179D01*
X6743407Y-11383464D01*
X6800550Y-11383464D01*
X6829121Y-11369179D01*
X6843407Y-11354893D01*
X6857693Y-11326321D01*
X6857693Y-11269179D01*
X6843407Y-11240607D01*
X6829121Y-11226321D01*
X6800550Y-11212036D01*
X7043407Y-11083464D02*
X7071978Y-11083464D01*
X7100550Y-11097750D01*
X7114836Y-11112036D01*
X7129121Y-11140607D01*
X7143407Y-11197750D01*
X7143407Y-11269179D01*
X7129121Y-11326321D01*
X7114836Y-11354893D01*
X7100550Y-11369179D01*
X7071978Y-11383464D01*
X7043407Y-11383464D01*
X7014836Y-11369179D01*
X7000550Y-11354893D01*
X6986264Y-11326321D01*
X6971978Y-11269179D01*
X6971978Y-11197750D01*
X6986264Y-11140607D01*
X7000550Y-11112036D01*
X7014836Y-11097750D01*
X7043407Y-11083464D01*
X7271978Y-11383464D02*
X7271978Y-11183464D01*
X7271978Y-11212036D02*
X7286264Y-11197750D01*
X7314836Y-11183464D01*
X7357693Y-11183464D01*
X7386264Y-11197750D01*
X7400550Y-11226321D01*
X7400550Y-11383464D01*
X7400550Y-11226321D02*
X7414836Y-11197750D01*
X7443407Y-11183464D01*
X7486264Y-11183464D01*
X7514836Y-11197750D01*
X7529121Y-11226321D01*
X7529121Y-11383464D01*
X7671978Y-11383464D02*
X7671978Y-11183464D01*
X7671978Y-11212036D02*
X7686264Y-11197750D01*
X7714836Y-11183464D01*
X7757693Y-11183464D01*
X7786264Y-11197750D01*
X7800550Y-11226321D01*
X7800550Y-11383464D01*
X7800550Y-11226321D02*
X7814836Y-11197750D01*
X7843407Y-11183464D01*
X7886264Y-11183464D01*
X7914836Y-11197750D01*
X7929121Y-11226321D01*
X7929121Y-11383464D01*
X8514836Y-11069179D02*
X8257693Y-11454893D01*
X8900550Y-11083464D02*
X8929121Y-11083464D01*
X8957693Y-11097750D01*
X8971978Y-11112036D01*
X8986264Y-11140607D01*
X9000550Y-11197750D01*
X9000550Y-11269179D01*
X8986264Y-11326321D01*
X8971978Y-11354893D01*
X8957693Y-11369179D01*
X8929121Y-11383464D01*
X8900550Y-11383464D01*
X8871978Y-11369179D01*
X8857693Y-11354893D01*
X8843407Y-11326321D01*
X8829121Y-11269179D01*
X8829121Y-11197750D01*
X8843407Y-11140607D01*
X8857693Y-11112036D01*
X8871978Y-11097750D01*
X8900550Y-11083464D01*
X9129121Y-11354893D02*
X9143407Y-11369179D01*
X9129121Y-11383464D01*
X9114836Y-11369179D01*
X9129121Y-11354893D01*
X9129121Y-11383464D01*
X9329121Y-11083464D02*
X9357693Y-11083464D01*
X9386264Y-11097750D01*
X9400550Y-11112036D01*
X9414836Y-11140607D01*
X9429121Y-11197750D01*
X9429121Y-11269179D01*
X9414836Y-11326321D01*
X9400550Y-11354893D01*
X9386264Y-11369179D01*
X9357693Y-11383464D01*
X9329121Y-11383464D01*
X9300550Y-11369179D01*
X9286264Y-11354893D01*
X9271978Y-11326321D01*
X9257693Y-11269179D01*
X9257693Y-11197750D01*
X9271978Y-11140607D01*
X9286264Y-11112036D01*
X9300550Y-11097750D01*
X9329121Y-11083464D01*
X9529121Y-11083464D02*
X9714836Y-11083464D01*
X9614836Y-11197750D01*
X9657693Y-11197750D01*
X9686264Y-11212036D01*
X9700550Y-11226321D01*
X9714836Y-11254893D01*
X9714836Y-11326321D01*
X9700550Y-11354893D01*
X9686264Y-11369179D01*
X9657693Y-11383464D01*
X9571978Y-11383464D01*
X9543407Y-11369179D01*
X9529121Y-11354893D01*
X10000550Y-11383464D02*
X9829121Y-11383464D01*
X9914836Y-11383464D02*
X9914836Y-11083464D01*
X9886264Y-11126322D01*
X9857693Y-11154893D01*
X9829121Y-11169179D01*
X10114836Y-11083464D02*
X10114836Y-11140607D01*
X10229121Y-11083464D02*
X10229121Y-11140607D01*
X10671978Y-11497750D02*
X10657693Y-11483464D01*
X10629121Y-11440607D01*
X10614836Y-11412036D01*
X10600550Y-11369179D01*
X10586264Y-11297750D01*
X10586264Y-11240607D01*
X10600550Y-11169179D01*
X10614836Y-11126322D01*
X10629121Y-11097750D01*
X10657693Y-11054893D01*
X10671978Y-11040607D01*
X10800550Y-11383464D02*
X10857693Y-11383464D01*
X10886264Y-11369179D01*
X10900550Y-11354893D01*
X10929121Y-11312036D01*
X10943407Y-11254893D01*
X10943407Y-11140607D01*
X10929121Y-11112036D01*
X10914836Y-11097750D01*
X10886264Y-11083464D01*
X10829121Y-11083464D01*
X10800550Y-11097750D01*
X10786264Y-11112036D01*
X10771978Y-11140607D01*
X10771978Y-11212036D01*
X10786264Y-11240607D01*
X10800550Y-11254893D01*
X10829121Y-11269179D01*
X10886264Y-11269179D01*
X10914836Y-11254893D01*
X10929121Y-11240607D01*
X10943407Y-11212036D01*
X11114836Y-11212036D02*
X11086264Y-11197750D01*
X11071978Y-11183464D01*
X11057693Y-11154893D01*
X11057693Y-11140607D01*
X11071978Y-11112036D01*
X11086264Y-11097750D01*
X11114836Y-11083464D01*
X11171978Y-11083464D01*
X11200550Y-11097750D01*
X11214836Y-11112036D01*
X11229121Y-11140607D01*
X11229121Y-11154893D01*
X11214836Y-11183464D01*
X11200550Y-11197750D01*
X11171978Y-11212036D01*
X11114836Y-11212036D01*
X11086264Y-11226321D01*
X11071978Y-11240607D01*
X11057693Y-11269179D01*
X11057693Y-11326321D01*
X11071978Y-11354893D01*
X11086264Y-11369179D01*
X11114836Y-11383464D01*
X11171978Y-11383464D01*
X11200550Y-11369179D01*
X11214836Y-11354893D01*
X11229121Y-11326321D01*
X11229121Y-11269179D01*
X11214836Y-11240607D01*
X11200550Y-11226321D01*
X11171978Y-11212036D01*
X11586264Y-11383464D02*
X11586264Y-11083464D01*
X11714836Y-11383464D02*
X11714836Y-11226321D01*
X11700550Y-11197750D01*
X11671978Y-11183464D01*
X11629121Y-11183464D01*
X11600550Y-11197750D01*
X11586264Y-11212036D01*
X11900550Y-11383464D02*
X11871978Y-11369179D01*
X11857693Y-11354893D01*
X11843407Y-11326321D01*
X11843407Y-11240607D01*
X11857693Y-11212036D01*
X11871978Y-11197750D01*
X11900550Y-11183464D01*
X11943407Y-11183464D01*
X11971978Y-11197750D01*
X11986264Y-11212036D01*
X12000550Y-11240607D01*
X12000550Y-11326321D01*
X11986264Y-11354893D01*
X11971978Y-11369179D01*
X11943407Y-11383464D01*
X11900550Y-11383464D01*
X12171978Y-11383464D02*
X12143407Y-11369179D01*
X12129121Y-11340607D01*
X12129121Y-11083464D01*
X12400550Y-11369179D02*
X12371978Y-11383464D01*
X12314836Y-11383464D01*
X12286264Y-11369179D01*
X12271978Y-11340607D01*
X12271978Y-11226321D01*
X12286264Y-11197750D01*
X12314836Y-11183464D01*
X12371978Y-11183464D01*
X12400550Y-11197750D01*
X12414836Y-11226321D01*
X12414836Y-11254893D01*
X12271978Y-11283464D01*
X12529121Y-11369179D02*
X12557693Y-11383464D01*
X12614836Y-11383464D01*
X12643407Y-11369179D01*
X12657693Y-11340607D01*
X12657693Y-11326321D01*
X12643407Y-11297750D01*
X12614836Y-11283464D01*
X12571978Y-11283464D01*
X12543407Y-11269179D01*
X12529121Y-11240607D01*
X12529121Y-11226321D01*
X12543407Y-11197750D01*
X12571978Y-11183464D01*
X12614836Y-11183464D01*
X12643407Y-11197750D01*
X12757693Y-11497750D02*
X12771978Y-11483464D01*
X12800550Y-11440607D01*
X12814836Y-11412036D01*
X12829121Y-11369179D01*
X12843407Y-11297750D01*
X12843407Y-11240607D01*
X12829121Y-11169179D01*
X12814836Y-11126322D01*
X12800550Y-11097750D01*
X12771978Y-11054893D01*
X12757693Y-11040607D01*
X5970906Y-11679106D02*
X5970906Y-11608394D01*
X5900194Y-11608394D01*
X5900194Y-11679106D01*
X5970906Y-11679106D01*
X6429121Y-11779464D02*
X6257693Y-11779464D01*
X6343407Y-11779464D02*
X6343407Y-11479464D01*
X6314836Y-11522321D01*
X6286264Y-11550893D01*
X6257693Y-11565179D01*
X6557693Y-11750893D02*
X6571978Y-11765179D01*
X6557693Y-11779464D01*
X6543407Y-11765179D01*
X6557693Y-11750893D01*
X6557693Y-11779464D01*
X6757693Y-11479464D02*
X6786264Y-11479464D01*
X6814836Y-11493750D01*
X6829121Y-11508036D01*
X6843407Y-11536607D01*
X6857693Y-11593750D01*
X6857693Y-11665179D01*
X6843407Y-11722321D01*
X6829121Y-11750893D01*
X6814836Y-11765179D01*
X6786264Y-11779464D01*
X6757693Y-11779464D01*
X6729121Y-11765179D01*
X6714836Y-11750893D01*
X6700550Y-11722321D01*
X6686264Y-11665179D01*
X6686264Y-11593750D01*
X6700550Y-11536607D01*
X6714836Y-11508036D01*
X6729121Y-11493750D01*
X6757693Y-11479464D01*
X7043407Y-11479464D02*
X7071978Y-11479464D01*
X7100550Y-11493750D01*
X7114836Y-11508036D01*
X7129121Y-11536607D01*
X7143407Y-11593750D01*
X7143407Y-11665179D01*
X7129121Y-11722321D01*
X7114836Y-11750893D01*
X7100550Y-11765179D01*
X7071978Y-11779464D01*
X7043407Y-11779464D01*
X7014836Y-11765179D01*
X7000550Y-11750893D01*
X6986264Y-11722321D01*
X6971978Y-11665179D01*
X6971978Y-11593750D01*
X6986264Y-11536607D01*
X7000550Y-11508036D01*
X7014836Y-11493750D01*
X7043407Y-11479464D01*
X7271978Y-11779464D02*
X7271978Y-11579464D01*
X7271978Y-11608036D02*
X7286264Y-11593750D01*
X7314836Y-11579464D01*
X7357693Y-11579464D01*
X7386264Y-11593750D01*
X7400550Y-11622321D01*
X7400550Y-11779464D01*
X7400550Y-11622321D02*
X7414836Y-11593750D01*
X7443407Y-11579464D01*
X7486264Y-11579464D01*
X7514836Y-11593750D01*
X7529121Y-11622321D01*
X7529121Y-11779464D01*
X7671978Y-11779464D02*
X7671978Y-11579464D01*
X7671978Y-11608036D02*
X7686264Y-11593750D01*
X7714836Y-11579464D01*
X7757693Y-11579464D01*
X7786264Y-11593750D01*
X7800550Y-11622321D01*
X7800550Y-11779464D01*
X7800550Y-11622321D02*
X7814836Y-11593750D01*
X7843407Y-11579464D01*
X7886264Y-11579464D01*
X7914836Y-11593750D01*
X7929121Y-11622321D01*
X7929121Y-11779464D01*
X8514836Y-11465179D02*
X8257693Y-11850893D01*
X8900550Y-11479464D02*
X8929121Y-11479464D01*
X8957693Y-11493750D01*
X8971978Y-11508036D01*
X8986264Y-11536607D01*
X9000550Y-11593750D01*
X9000550Y-11665179D01*
X8986264Y-11722321D01*
X8971978Y-11750893D01*
X8957693Y-11765179D01*
X8929121Y-11779464D01*
X8900550Y-11779464D01*
X8871978Y-11765179D01*
X8857693Y-11750893D01*
X8843407Y-11722321D01*
X8829121Y-11665179D01*
X8829121Y-11593750D01*
X8843407Y-11536607D01*
X8857693Y-11508036D01*
X8871978Y-11493750D01*
X8900550Y-11479464D01*
X9129121Y-11750893D02*
X9143407Y-11765179D01*
X9129121Y-11779464D01*
X9114836Y-11765179D01*
X9129121Y-11750893D01*
X9129121Y-11779464D01*
X9329121Y-11479464D02*
X9357693Y-11479464D01*
X9386264Y-11493750D01*
X9400550Y-11508036D01*
X9414836Y-11536607D01*
X9429121Y-11593750D01*
X9429121Y-11665179D01*
X9414836Y-11722321D01*
X9400550Y-11750893D01*
X9386264Y-11765179D01*
X9357693Y-11779464D01*
X9329121Y-11779464D01*
X9300550Y-11765179D01*
X9286264Y-11750893D01*
X9271978Y-11722321D01*
X9257693Y-11665179D01*
X9257693Y-11593750D01*
X9271978Y-11536607D01*
X9286264Y-11508036D01*
X9300550Y-11493750D01*
X9329121Y-11479464D01*
X9529121Y-11479464D02*
X9714836Y-11479464D01*
X9614836Y-11593750D01*
X9657693Y-11593750D01*
X9686264Y-11608036D01*
X9700550Y-11622321D01*
X9714836Y-11650893D01*
X9714836Y-11722321D01*
X9700550Y-11750893D01*
X9686264Y-11765179D01*
X9657693Y-11779464D01*
X9571978Y-11779464D01*
X9543407Y-11765179D01*
X9529121Y-11750893D01*
X9857693Y-11779464D02*
X9914836Y-11779464D01*
X9943407Y-11765179D01*
X9957693Y-11750893D01*
X9986264Y-11708036D01*
X10000550Y-11650893D01*
X10000550Y-11536607D01*
X9986264Y-11508036D01*
X9971978Y-11493750D01*
X9943407Y-11479464D01*
X9886264Y-11479464D01*
X9857693Y-11493750D01*
X9843407Y-11508036D01*
X9829121Y-11536607D01*
X9829121Y-11608036D01*
X9843407Y-11636607D01*
X9857693Y-11650893D01*
X9886264Y-11665179D01*
X9943407Y-11665179D01*
X9971978Y-11650893D01*
X9986264Y-11636607D01*
X10000550Y-11608036D01*
X10114836Y-11479464D02*
X10114836Y-11536607D01*
X10229121Y-11479464D02*
X10229121Y-11536607D01*
X10671978Y-11893750D02*
X10657693Y-11879464D01*
X10629121Y-11836607D01*
X10614836Y-11808036D01*
X10600550Y-11765179D01*
X10586264Y-11693750D01*
X10586264Y-11636607D01*
X10600550Y-11565179D01*
X10614836Y-11522321D01*
X10629121Y-11493750D01*
X10657693Y-11450893D01*
X10671978Y-11436607D01*
X10757693Y-11479464D02*
X10943407Y-11479464D01*
X10843407Y-11593750D01*
X10886264Y-11593750D01*
X10914836Y-11608036D01*
X10929121Y-11622321D01*
X10943407Y-11650893D01*
X10943407Y-11722321D01*
X10929121Y-11750893D01*
X10914836Y-11765179D01*
X10886264Y-11779464D01*
X10800550Y-11779464D01*
X10771978Y-11765179D01*
X10757693Y-11750893D01*
X11300550Y-11779464D02*
X11300550Y-11479464D01*
X11429121Y-11779464D02*
X11429121Y-11622321D01*
X11414836Y-11593750D01*
X11386264Y-11579464D01*
X11343407Y-11579464D01*
X11314836Y-11593750D01*
X11300550Y-11608036D01*
X11614836Y-11779464D02*
X11586264Y-11765179D01*
X11571978Y-11750893D01*
X11557693Y-11722321D01*
X11557693Y-11636607D01*
X11571978Y-11608036D01*
X11586264Y-11593750D01*
X11614836Y-11579464D01*
X11657693Y-11579464D01*
X11686264Y-11593750D01*
X11700550Y-11608036D01*
X11714836Y-11636607D01*
X11714836Y-11722321D01*
X11700550Y-11750893D01*
X11686264Y-11765179D01*
X11657693Y-11779464D01*
X11614836Y-11779464D01*
X11886264Y-11779464D02*
X11857693Y-11765179D01*
X11843407Y-11736607D01*
X11843407Y-11479464D01*
X12114836Y-11765179D02*
X12086264Y-11779464D01*
X12029121Y-11779464D01*
X12000550Y-11765179D01*
X11986264Y-11736607D01*
X11986264Y-11622321D01*
X12000550Y-11593750D01*
X12029121Y-11579464D01*
X12086264Y-11579464D01*
X12114836Y-11593750D01*
X12129121Y-11622321D01*
X12129121Y-11650893D01*
X11986264Y-11679464D01*
X12243407Y-11765179D02*
X12271978Y-11779464D01*
X12329121Y-11779464D01*
X12357693Y-11765179D01*
X12371978Y-11736607D01*
X12371978Y-11722321D01*
X12357693Y-11693750D01*
X12329121Y-11679464D01*
X12286264Y-11679464D01*
X12257693Y-11665179D01*
X12243407Y-11636607D01*
X12243407Y-11622321D01*
X12257693Y-11593750D01*
X12286264Y-11579464D01*
X12329121Y-11579464D01*
X12357693Y-11593750D01*
X12471978Y-11893750D02*
X12486264Y-11879464D01*
X12514836Y-11836607D01*
X12529121Y-11808036D01*
X12543407Y-11765179D01*
X12557693Y-11693750D01*
X12557693Y-11636607D01*
X12543407Y-11565179D01*
X12529121Y-11522321D01*
X12514836Y-11493750D01*
X12486264Y-11450893D01*
X12471978Y-11436607D01*
M02*
